<svg id="Grupo_154899" data-name="Grupo 154899" xmlns="http://www.w3.org/2000/svg" xmlns:xlink="http://www.w3.org/1999/xlink" width="315.586" height="338" viewBox="0 0 315.586 338">
  <defs>
    <clipPath id="clip-path">
      <rect id="Rectángulo_45684" data-name="Rectángulo 45684" width="315.586" height="338" fill="none"/>
    </clipPath>
    <clipPath id="clip-path-6">
      <rect id="Rectángulo_45676" data-name="Rectángulo 45676" width="97.131" height="251.764" fill="none"/>
    </clipPath>
    <clipPath id="clip-path-7">
      <rect id="Rectángulo_45677" data-name="Rectángulo 45677" width="88.585" height="236.476" fill="none"/>
    </clipPath>
    <clipPath id="clip-path-9">
      <rect id="Rectángulo_45679" data-name="Rectángulo 45679" width="12.196" height="14.534" fill="none"/>
    </clipPath>
    <clipPath id="clip-path-11">
      <rect id="Rectángulo_45681" data-name="Rectángulo 45681" width="21.808" height="23.339" fill="none"/>
    </clipPath>
    <clipPath id="clip-path-12">
      <rect id="Rectángulo_45682" data-name="Rectángulo 45682" width="3.387" height="12.55" fill="none"/>
    </clipPath>
  </defs>
  <g id="Grupo_154898" data-name="Grupo 154898" clip-path="url(#clip-path)">
    <g id="Grupo_154872" data-name="Grupo 154872">
      <g id="Grupo_154871" data-name="Grupo 154871" clip-path="url(#clip-path)">
        <path id="Trazado_218517" data-name="Trazado 218517" d="M382.988,137.305H296.355s8.589-23.462,21.809-23.462,17.36,16.194,17.36,16.194,8.919-8.8,16.246-8.8,13.7,11.627,13.7,11.627,10.353-6.252,17.52,4.439" transform="translate(-67.402 -25.892)" fill="#ebebeb"/>
        <path id="Trazado_218518" data-name="Trazado 218518" d="M333.808,35.436H293.322s9.047-13.107,16.174-13.107,9.234,8.738,9.234,8.738,5.029-4.078,9.69-3.35,5.389,7.719,5.389,7.719" transform="translate(-66.712 -5.078)" fill="#ebebeb"/>
        <path id="Trazado_218519" data-name="Trazado 218519" d="M92.115,252.224H51.629s9.047-13.107,16.174-13.107,9.234,8.738,9.234,8.738,5.029-4.078,9.689-3.35,5.389,7.719,5.389,7.719" transform="translate(-11.742 -54.384)" fill="#ebebeb"/>
        <path id="Trazado_218520" data-name="Trazado 218520" d="M78.86,127.6H0s10.8-24.11,22.352-25.617S39.429,119.9,39.429,119.9s7.451-6.865,13.311-6.865,10.38,9.041,10.38,9.041,11.721-6.194,15.739,5.525" transform="translate(0 -23.176)" fill="#ebebeb"/>
        <path id="Trazado_218521" data-name="Trazado 218521" d="M158.14,52.747H104.869s9.15-17.468,19.078-17.723,15.145,13.22,15.145,13.22,15.442-12.393,19.048,4.5" transform="translate(-23.851 -7.965)" fill="#ebebeb"/>
        <path id="Trazado_218522" data-name="Trazado 218522" d="M322.293,268.942H269.022s9.15-17.468,19.078-17.723,15.145,13.22,15.145,13.22,15.442-12.393,19.048,4.5" transform="translate(-61.185 -57.135)" fill="#ebebeb"/>
      </g>
    </g>
    <g id="Grupo_154874" data-name="Grupo 154874">
      <g id="Grupo_154873" data-name="Grupo 154873" clip-path="url(#clip-path)">
        <path id="Trazado_218523" data-name="Trazado 218523" d="M274.654,420.51c0,5.908-44.675,10.7-99.784,10.7s-99.784-4.788-99.784-10.7,44.674-10.7,99.784-10.7,99.784,4.789,99.784,10.7" transform="translate(-17.077 -93.206)" fill="#ebebeb"/>
      </g>
    </g>
    <g id="Grupo_154876" data-name="Grupo 154876">
      <g id="Grupo_154875" data-name="Grupo 154875" clip-path="url(#clip-path)">
        <path id="Trazado_218524" data-name="Trazado 218524" d="M126.447,331.01c-3.868.137-8.183.357-11.386-2.152-2.957-2.315-5.6-5.766-5.2-9.729.114-1.13.372-1.827,1.583-1.345,1.845.736,3.268,2.77,4.546,4.2a39.1,39.1,0,0,0,5.365,5.089c1.375,1.055,2.859,1.968,4.262,2.99q.268.187.526.391c.066.047.134.1.2.149.036,0,.074,0,.11,0a.192.192,0,0,1,.189.149.2.2,0,0,1-.191.255" transform="translate(-24.977 -72.24)" fill="#37474f"/>
        <path id="Trazado_218525" data-name="Trazado 218525" d="M127.425,331.8c-3.4-.059-7.071.1-9.79-2.212a15.78,15.78,0,0,1-3.157-3.837c-.393-.64-1.572-2.547-1.084-3.307.885-1.374,4.936,4.226,5.5,4.763a16.6,16.6,0,0,0,7.509,3.9q.268.187.526.391a18.547,18.547,0,0,1-5.639-2.166c-2.413-1.44-3.756-3.568-5.644-5.555-.408-.431-1.638-1.876-2.1-.976-.306.593.832,2.461,1.078,2.861a15.687,15.687,0,0,0,2.985,3.646c2.712,2.369,6.365,2.286,9.791,2.427a.181.181,0,0,1,.03.066" transform="translate(-25.763 -73.286)" fill="#fff"/>
        <path id="Trazado_218526" data-name="Trazado 218526" d="M132.792,331.068c-.034.148-.062.3-.093.448,0,.005,0,.008-.006.014a.1.1,0,0,1-.069.079.163.163,0,0,1-.2-.078.117.117,0,0,1,0-.093.6.6,0,0,1,.019-.06l.042-.132a.032.032,0,0,1-.008-.011c0-.014-.008-.03-.011-.044-.686-2.559-.953-5.22-1.674-7.782-.689-2.444-1.546-4.842-2.043-7.336-.314-1.572-1.407-9.465,2.07-8.481,1.541.436,2.6,2.668,3.182,4a16.281,16.281,0,0,1,1.28,5.671c.253,4.812-1.51,9.191-2.485,13.8" transform="translate(-29.188 -69.938)" fill="#37474f"/>
        <path id="Trazado_218527" data-name="Trazado 218527" d="M134.575,322.695a18.907,18.907,0,0,0-.558-5.355c-.155-.606-.911-3.508-1.894-3.436-.636.042-.744,1.295-.8,1.708a16.687,16.687,0,0,0,.689,5.259,72.553,72.553,0,0,1,1.277,10.542c-.029.222-.066.45-.09.671-.03.186-.048.372-.072.558-.006.066-.018.126-.024.192-.006.048-.012.1-.019.15a.166.166,0,0,0,.2.078c.019-.144.042-.288.06-.432.006.12.006.233.012.354,0-.006.006-.006.006-.012.024-.126.048-.246.072-.365.006-.03.012-.054.019-.084,0-.2-.006-.4-.012-.588a78.906,78.906,0,0,0,1.127-9.24m-1.175,7.969c-.1-2.069-.3-4.132-.593-6.182-.234-1.655-.546-3.292-.894-4.923a16.939,16.939,0,0,1-.443-2.794c-.03-.72.072-3.382,1.445-1.733.99,1.2,1.23,3.748,1.35,5.216a26.767,26.767,0,0,1-.1,4.9c-.185,1.847-.491,3.682-.767,5.517" transform="translate(-29.857 -71.393)" fill="#fff"/>
        <path id="Trazado_218528" data-name="Trazado 218528" d="M132.359,348.361h0a.872.872,0,0,1-.143.017c-3.537-.178-8.249.153-11.191-2.186-2.173-1.729-4.308-5.145-3.621-8.042.782-3.266,5.193.654,6.361,1.6a108,108,0,0,1,8.667,8.432c.013.023.032.041.045.063l.007.012c.032.057-.043.088-.123.106" transform="translate(-26.672 -76.617)" fill="#37474f"/>
        <path id="Trazado_218529" data-name="Trazado 218529" d="M133.257,349.239c-.2-.126-.408-.252-.612-.384-2.327-1.463-4.593-3.028-6.77-4.7-.552-.419-4.533-3.963-5.133-2.7-.359.768.953,2.327,1.374,2.855a10.925,10.925,0,0,0,2.686,2.4c2.356,1.469,5.216,1.786,7.885,2.494.126.024.252.06.378.1a.442.442,0,0,0,.066.042h.005c.078-.018.15-.048.121-.1m-7-2.015a10.974,10.974,0,0,1-3.052-2.063c-.593-.564-2.686-2.68-2.128-3.55.294-.461.54-.216,1.1.06a7.06,7.06,0,0,1,.749.432c.594.389,1.14.845,1.691,1.283.971.78,1.955,1.529,2.962,2.26,1.643,1.2,3.334,2.326,5.061,3.4-2.122-.654-4.365-.912-6.386-1.823" transform="translate(-27.447 -77.597)" fill="#fff"/>
        <path id="Trazado_218530" data-name="Trazado 218530" d="M143.3,338.91a20.917,20.917,0,0,1-6.062,10.587.171.171,0,0,1-.066.039.161.161,0,0,1-.182-.067.15.15,0,0,1,.018-.2c.061-.058.119-.12.18-.181.586-4.808,1.231-9.589,1.726-14.411.116-1.136,1.006-8.368,3.228-7.191,1.372.728,1.464,3.691,1.581,5.023a21.06,21.06,0,0,1-.423,6.4" transform="translate(-31.149 -74.452)" fill="#37474f"/>
        <path id="Trazado_218531" data-name="Trazado 218531" d="M142.023,333.784c-.121-.4-.33-.815-.78-.534-.864.54-1.205,3.94-1.35,4.881-.593,3.88-1.511,7.61-2.447,11.405-.077.318-.155.641-.233.965l-.216.288a.158.158,0,0,0,.18.066c.012-.03.019-.066.03-.1.1-.126.2-.258.288-.389v-.006a24.706,24.706,0,0,0,3.5-6.824,23.429,23.429,0,0,0,1.031-4.755,13.6,13.6,0,0,0-.005-5m-4.54,16.322c-.042.066-.09.126-.132.192.042-.131.084-.257.121-.389a69.638,69.638,0,0,0,2.164-8.827c.258-1.517.42-3.046.732-4.551.132-.636.444-2.453.972-2.747.509-.293.515.414.569.821.036.294.036.828.042,1.1a24.376,24.376,0,0,1-4.467,14.4" transform="translate(-31.158 -75.772)" fill="#fff"/>
        <path id="Trazado_218532" data-name="Trazado 218532" d="M132.295,354.933h-.708c-.012-.623-.024-1.247-.042-1.865-.084-2.512-.186-5.025-.336-7.537-.084-1.433-.185-2.855-.335-4.264a1.127,1.127,0,0,1-.012-.144c-.018-.114-.03-.228-.042-.348s-.03-.246-.048-.372a30.4,30.4,0,0,0-2.429-9.234c-.45-.977-.941-1.931-1.457-2.879-.048-.09-.1-.179-.15-.27a.433.433,0,0,0-.042-.072c-.048-.1-.1-.186-.156-.282-.042-.072-.078-.137-.12-.209-1.637-2.879-3.508-5.63-5.283-8.4-.51-.792-1.02-1.589-1.517-2.387a1.019,1.019,0,0,1-.09-.144,1.68,1.68,0,0,1-.114-.174c-2.23-3.52-4.425-7.07-6.74-10.523-.09-.126.12-.24.2-.114,1.565,2.291,3.185,4.546,4.791,6.812.216.3.426.606.641.905.426.6.845,1.194,1.265,1.793.839,1.2,1.666,2.4,2.476,3.616a101.53,101.53,0,0,1,6.512,10.535c.138.276.27.552.4.834.084.174.168.348.24.522.1.2.185.4.276.606a32.633,32.633,0,0,1,2.38,11.141c.018.264.036.534.048.8.006.12.019.246.024.372,0,.066.006.132.012.2,0,.083.006.168.012.257v.006c0,.06.006.126.006.192.012.228.018.456.03.69.1,2.512.168,5.025.222,7.532.018.8.048,1.6.078,2.4" transform="translate(-25.621 -69.518)" fill="#37474f"/>
        <path id="Trazado_218533" data-name="Trazado 218533" d="M109.908,307.08c-1.936-2.6-4.418-7.976-1.564-10.77a3.04,3.04,0,0,1,4.046-.3c1.508,1.091,2.184,3.152,2.672,4.858,1.308,4.556,2.174,9.2,3.808,13.663.029.027.138.382.177.479s-.114.132-.148.042c-.054-.145-.107-.291-.161-.436-3.084-2.237-6.534-4.448-8.829-7.536" transform="translate(-24.347 -67.18)" fill="#37474f"/>
        <path id="Trazado_218534" data-name="Trazado 218534" d="M119.84,315.707c-.018-.025-.03-.054-.048-.079a31.788,31.788,0,0,1-1.811-3.37A64.707,64.707,0,0,1,115.2,304.8c-.311-.977-1.7-5.763-3.412-3.856-.719.8-.617,2.224-.5,3.208a12.053,12.053,0,0,0,1.487,4.485,21.958,21.958,0,0,0,6.429,6.716c.114.09.227.174.341.258.024.042.048.077.072.12a.6.6,0,0,0,.048.077.087.087,0,0,0,.042.037.108.108,0,0,0,.15-.067.077.077,0,0,0-.012-.071m-.756-.528a25.577,25.577,0,0,1-5.45-5.467,13.6,13.6,0,0,1-1.775-3.623,10.927,10.927,0,0,1-.383-1.756,7.663,7.663,0,0,1-.078-1.344c.03-.983.437-2.056,1.019-2.158.72-.132.96.287,1.433,1.114a7.729,7.729,0,0,1,.426.865,23.372,23.372,0,0,1,.8,2.267c.4,1.265.81,2.523,1.265,3.771.306.845.636,1.685,1,2.507a33.479,33.479,0,0,0,2.123,4.125c-.126-.1-.252-.2-.378-.3" transform="translate(-25.292 -68.344)" fill="#fff"/>
        <path id="Trazado_218535" data-name="Trazado 218535" d="M275.786,317.054c-.32,2.581-.814,5.137-1.336,7.682-.293,1.445-.606,2.886-.9,4.335-.322,1.593-.795,3.215-.364,4.823l.009,0a.908.908,0,0,1,.017.222.1.1,0,0,1-.018.028.194.194,0,0,1-.334-.059c-.011-.037-.018-.073-.028-.107l-.026-.033a6.284,6.284,0,0,1-.556-1.339,33.8,33.8,0,0,1-1.282-3.731,32.2,32.2,0,0,1-1.255-7.961,27.211,27.211,0,0,1,.749-7.171c.46-1.876,1.115-4.671,2.512-6.106,1.268-1.3,2.322.781,2.687,1.833.821,2.388.426,5.138.123,7.581" transform="translate(-61.34 -69.875)" fill="#37474f"/>
        <path id="Trazado_218536" data-name="Trazado 218536" d="M273.77,312.857c-.942,0-1.625,3.04-1.961,4.353a26.2,26.2,0,0,0-.8,6.332,33.9,33.9,0,0,0,1.949,11.249c.048.144.1.294.15.437.005.012.018.024.024.036.012.03.018.066.029.1a.194.194,0,0,0,.336.06c-.06-.318-.108-.63-.144-.948-.036-.287-.066-.569-.084-.851a44.93,44.93,0,0,1,.576-9.312c.456-3.6,1.175-11.452-.072-11.459m-.678,21.377c.048.419.114.834.192,1.242-.1-.3-.192-.6-.281-.9a37.5,37.5,0,0,1-1.775-9.924,26.86,26.86,0,0,1,.414-5.672,24.8,24.8,0,0,1,.732-2.968c.131-.408.815-2.95,1.4-2.825.408.09.5,2.38.51,2.428.024.456.024.918.018,1.38-.012.947-.078,1.894-.156,2.836-.18,2.044-.474,4.083-.719,6.122a35.472,35.472,0,0,0-.33,8.281" transform="translate(-61.636 -71.155)" fill="#fff"/>
        <path id="Trazado_218537" data-name="Trazado 218537" d="M291.447,328.294c-1.729,3.371-4.639,5.953-7.645,8.166-1.612,1.184-3.277,2.293-4.914,3.438a26.462,26.462,0,0,0-4.244,3.266c-.055.054-.111.113-.162.175a6.87,6.87,0,0,0-.88,1.215.1.1,0,0,1-.08.052c-.019.051-.035.1-.058.149a.034.034,0,0,1-.066-.015c0-.053.015-.114.019-.167l0-.014a.107.107,0,0,1-.01-.129.352.352,0,0,1,.031-.054c.006-.054.012-.111.022-.165.492-3.942,3.248-7.923,5.578-10.956a20.937,20.937,0,0,1,8.8-7.1c.905-.347,2.96-1.307,3.881-.571.84.672.09,2-.277,2.714" transform="translate(-62.179 -73.987)" fill="#37474f"/>
        <path id="Trazado_218538" data-name="Trazado 218538" d="M288.776,329.138c-.822-.821-3.238,1.205-3.844,1.679a40.311,40.311,0,0,0-5,4.863,36,36,0,0,0-6.386,9.24v.006c-.03.036-.054.072-.084.108-.012.059-.018.114-.024.168a.239.239,0,0,0-.03.054.107.107,0,0,0,.012.132c.042-.049.078-.1.12-.138.3-.372.617-.732.941-1.085.054-.059.108-.12.162-.174a77.622,77.622,0,0,1,7.478-6.6,37.261,37.261,0,0,0,4.977-4.839c.378-.456,2.368-2.723,1.679-3.412m-.756,1.8c-2.039,3.382-5.571,5.852-8.569,8.317a40.842,40.842,0,0,0-5.691,5.4,38.3,38.3,0,0,1,5.906-8.311,51.44,51.44,0,0,1,4.06-4.18,21.081,21.081,0,0,1,2.464-1.972,8.273,8.273,0,0,1,1.666-.9c1.146-.335.51,1.062.162,1.643" transform="translate(-62.179 -74.814)" fill="#fff"/>
        <path id="Trazado_218539" data-name="Trazado 218539" d="M270.232,354.076a.208.208,0,0,1-.176.1l.046.061a.059.059,0,0,1-.011.083.055.055,0,0,1-.084,0c-3.195-3.25-6.272-7.2-7.864-11.5a17.828,17.828,0,0,1-1.14-5.669c-.035-1.326-.106-4,1.028-4.962,2.284-1.941,4.365,6.3,4.674,7.54.566,2.265.939,4.572,1.46,6.846.572,2.489,1.324,4.932,2.074,7.373a.172.172,0,0,1-.005.133" transform="translate(-59.358 -75.484)" fill="#37474f"/>
        <path id="Trazado_218540" data-name="Trazado 218540" d="M270.692,355c-.126-.209-.246-.419-.36-.635a38.391,38.391,0,0,1-4.113-11.069,35.29,35.29,0,0,0-1.517-5.763c-.186-.456-.756-2.213-1.511-1.325-.39.461-.066,3.789.09,4.647a24.347,24.347,0,0,0,1.853,5.661,40.046,40.046,0,0,0,5.234,8.5c.06.077.12.155.18.228a.058.058,0,0,0,.012-.084.434.434,0,0,1-.042-.06.212.212,0,0,0,.174-.1m-4.635-7.081a28.249,28.249,0,0,1-2.195-5.493,20.016,20.016,0,0,1-.48-2.308,12.857,12.857,0,0,1-.156-1.84c.012-1.506.132-1.9.384-1.949.156-.03.372.132.816,1.031a9.842,9.842,0,0,1,.641,1.829c.234.888.438,1.781.63,2.681.39,1.792.756,3.6,1.277,5.355a29.7,29.7,0,0,0,3.172,7.2,45.814,45.814,0,0,1-4.089-6.506" transform="translate(-59.817 -76.41)" fill="#fff"/>
        <path id="Trazado_218541" data-name="Trazado 218541" d="M283.373,349.356a11.3,11.3,0,0,1-2.1,4.356c-1.9,2.618-4.32,4.795-6.391,7.27-.309.369-.611.746-.9,1.133-.03.043-.269.589-.266.544,0-.011.037-.219.105-.57l0,0c.333-1.734,1.422-6.971,2.78-9.649a23.149,23.149,0,0,1,3.025-4.734c.587-.664,1.965-2.1,3-1.786,1.117.338.9,2.607.737,3.44" transform="translate(-62.253 -78.664)" fill="#37474f"/>
        <path id="Trazado_218542" data-name="Trazado 218542" d="M281.684,348.991c-1.109-.689-3.969,4.42-4.353,5.079a32.534,32.534,0,0,0-3.263,7.79c-.09.305-.168.611-.246.923-.066.354-.108.558-.108.569.019,0,.24-.5.27-.545.048-.066.1-.132.15-.2.246-.318.5-.63.749-.929,1.241-1.859,2.519-3.7,3.724-5.589a30.023,30.023,0,0,0,2.308-4.245c.144-.336,1.253-2.555.767-2.855m-.318,1.439c-1.577,4.443-4.8,7.945-7.255,11.891-.042.066-.078.126-.121.192.036-.114.066-.234.1-.348a37.128,37.128,0,0,1,2.608-6.488,35.474,35.474,0,0,1,2.195-3.657,17.678,17.678,0,0,1,1.367-1.9c.228-.252.882-.917,1.1-.8.318.156.1.822,0,1.116" transform="translate(-62.253 -79.359)" fill="#fff"/>
        <path id="Trazado_218543" data-name="Trazado 218543" d="M295.826,301.755c-3.295,7.572-11.945,11.1-15.694,18.4-.007.015-.013.026-.018.038-.115.222-.223.449-.328.679a.154.154,0,0,1-.25.039.111.111,0,0,1-.015-.126c.022-.055.05-.11.078-.164a39.456,39.456,0,0,1,4.628-13.256c1.894-3.491,4.487-6.755,8.079-8.594.885-.455,2.611-1.415,3.6-.662,1.051.794.322,2.715-.085,3.647" transform="translate(-63.57 -67.737)" fill="#37474f"/>
        <path id="Trazado_218544" data-name="Trazado 218544" d="M292.868,303.3c-.419-.312-1.055.066-1.415.252a12.681,12.681,0,0,0-2.5,1.709A20.868,20.868,0,0,0,284.964,310a43.1,43.1,0,0,0-4.7,9.528c-.252.762-.474,1.529-.654,2.308-.024.1-.042.192-.066.288a.157.157,0,0,0,.252-.036c.1-.228.2-.437.311-.659a.626.626,0,0,1,.03-.06,25.291,25.291,0,0,1,2.351-4.317,59.623,59.623,0,0,1,4.934-5.853c.672-.743,6.9-6.842,5.445-7.9m-.528,1.751a28.379,28.379,0,0,1-3.91,4.743c-1.367,1.53-2.752,3.04-4.1,4.587a28.712,28.712,0,0,0-2.884,3.939,22.375,22.375,0,0,0-1.8,3.646,31.318,31.318,0,0,1,1.289-3.789.1.1,0,0,1,.024-.042,56.477,56.477,0,0,1,3.2-6.368c.012-.024.03-.054.042-.078a26.042,26.042,0,0,1,3.646-5.09,14.94,14.94,0,0,1,2.6-2.207c1.085-.7,2.033-1.157,2.3-.81.18.24-.1.948-.4,1.469" transform="translate(-63.578 -68.954)" fill="#fff"/>
        <path id="Trazado_218545" data-name="Trazado 218545" d="M282.686,314.363c-.99,2.135-1.937,4.3-2.872,6.47-.443,1.019-.882,2.039-1.313,3.052a.519.519,0,0,0-.029.06c-.156.365-.318.738-.474,1.1a67.646,67.646,0,0,0-3.868,10.242,30.836,30.836,0,0,0-.791,5.691c-.006.2-.019.4-.03.593v.006c0,.107-.006.216-.006.324a1.741,1.741,0,0,0-.006.18c-.059,1.661-.036,3.327-.005,4.947.042,2.261.233,4.5.45,6.74a1.141,1.141,0,0,0,.018.2c.006.1.018.2.024.306.006.054.012.1.018.156.006.1.019.192.024.287.073.72.138,1.439.2,2.165h-.69a44.916,44.916,0,0,1-.834-6.668,1.022,1.022,0,0,1-.006-.138c-.018-.216-.029-.438-.036-.654-.018-.27-.03-.534-.036-.8q-.036-.972-.054-1.925a47.386,47.386,0,0,1,.792-11.165c.024-.1.048-.2.072-.3a.957.957,0,0,1,.03-.126c.012-.072.03-.144.048-.215l.09-.342c.054-.2.114-.407.175-.6l.053-.18a72.551,72.551,0,0,1,3.808-9.193c.252-.545.5-1.085.762-1.625l.431-.9c.223-.45.45-.905.672-1.355a.1.1,0,0,1,.024-.042c1.055-2.128,2.152-4.233,3.2-6.368.048-.1.216-.018.168.084" transform="translate(-61.941 -71.468)" fill="#37474f"/>
        <path id="Trazado_218546" data-name="Trazado 218546" d="M101.6,363.124H53.2s.112-7.2,4.869-9.115a6.482,6.482,0,0,1,7.587,1.818s1.941-13.245,10.807-13.245,13.11,11.427,13.11,11.427,1.986-3.454,6.908-2.811,5.117,11.926,5.117,11.926" transform="translate(-12.1 -77.915)" fill="#37474f"/>
        <path id="Trazado_218547" data-name="Trazado 218547" d="M387.26,363.029s-1.484-6.923-4.447-7.989-4.767,2.04-4.767,2.04-.7-6.615-4.9-8.594-7.355,2.074-7.355,2.074-3.224-8.394-8.984-8.394-8.665,12.281-8.665,12.281-3.4-3.66-6.884-1.593-3.485,10.175-3.485,10.175Z" transform="translate(-76.822 -77.821)" fill="#37474f"/>
        <path id="Trazado_218548" data-name="Trazado 218548" d="M51.293,364.835H6.664s1.47-6.292,4.43-6.737,4.336,2.472,4.336,2.472-.134-8.776,5.393-10.27,10.162,6.259,10.162,6.259,3.466-4.421,8.188-4.138,5.922,7.587,5.922,7.587,4.3-2.535,6.2,4.828" transform="translate(-1.516 -79.627)" fill="#455a64"/>
        <path id="Trazado_218549" data-name="Trazado 218549" d="M333.843,365.745h-27.42s.063-4.081,2.759-5.164a3.67,3.67,0,0,1,4.3,1.03s1.1-7.5,6.123-7.5,7.427,6.474,7.427,6.474a3.851,3.851,0,0,1,3.914-1.593c2.789.365,2.9,6.757,2.9,6.757" transform="translate(-69.692 -80.537)" fill="#455a64"/>
      </g>
    </g>
    <g id="Grupo_154884" data-name="Grupo 154884">
      <g id="Grupo_154883" data-name="Grupo 154883" clip-path="url(#clip-path)">
        <path id="Trazado_218550" data-name="Trazado 218550" d="M141.383,97.871c0,7.4,0,42.731,33.236,48.489,0,0,.545,3.729,1.6,9.561,1.272,7.075,3.293,17.247,5.974,27.587a.21.21,0,0,0,.016.074c.929,3.559,1.931,7.134,3.015,10.613a.273.273,0,0,0,.017.08c.106.331.2.655.31.979a181.151,181.151,0,0,1,5.175,20.21c10.213,52.843-11.548,79.857-11.548,79.857h45.738s11.337-49.453-12.722-99.067c-4.45-9.186,13.244-16.651,20.987-33.736,6.561-14.474,6.373-85.682,3.186-90.271S228.1,68.8,228.1,75.115s0,65.449-4.458,76.93-23.473,25.263-23.473,25.263-9.772-16-15.249-51.026v-.015a336.49,336.49,0,0,1-3.4-62.33c-.008-.008-.008-.015,0-.015q.244-7.988.84-16.592c.456-6.575-6.374-3.692-8.647,2.06s-5.469,39.031-.913,83.821c0,0-22.771-3.207-22.771-39.038,0-6.575-8.647-3.7-8.647,3.7" transform="translate(-32.156 -9.906)" fill="#ffc727"/>
        <g id="Grupo_154879" data-name="Grupo 154879" transform="translate(109.227 33.651)" opacity="0.5">
          <g id="Grupo_154878" data-name="Grupo 154878">
            <g id="Grupo_154877" data-name="Grupo 154877" clip-path="url(#clip-path-6)">
              <path id="Trazado_218551" data-name="Trazado 218551" d="M141.383,97.871c0,7.4,0,42.731,33.236,48.489,0,0,.545,3.729,1.6,9.561,1.272,7.075,3.293,17.247,5.974,27.587a.21.21,0,0,0,.016.074c.929,3.559,1.931,7.134,3.015,10.613a.273.273,0,0,0,.017.08c.106.331.2.655.31.979a181.151,181.151,0,0,1,5.175,20.21c10.213,52.843-11.548,79.857-11.548,79.857h45.738s11.337-49.453-12.722-99.067c-4.45-9.186,13.244-16.651,20.987-33.736,6.561-14.474,6.373-85.682,3.186-90.271S228.1,68.8,228.1,75.115s0,65.449-4.458,76.93-23.473,25.263-23.473,25.263-9.772-16-15.249-51.026v-.015a336.49,336.49,0,0,1-3.4-62.33c-.008-.008-.008-.015,0-.015q.244-7.988.84-16.592c.456-6.575-6.374-3.692-8.647,2.06s-5.469,39.031-.913,83.821c0,0-22.771-3.207-22.771-39.038,0-6.575-8.647-3.7-8.647,3.7" transform="translate(-141.383 -43.558)"/>
            </g>
          </g>
        </g>
        <g id="Grupo_154882" data-name="Grupo 154882" transform="translate(115.912 48.939)" opacity="0.1">
          <g id="Grupo_154881" data-name="Grupo 154881">
            <g id="Grupo_154880" data-name="Grupo 154880" clip-path="url(#clip-path-7)">
              <path id="Trazado_218552" data-name="Trazado 218552" d="M220.137,240.346c2.624,8.951,6.218,17.666,8.827,26.639a182.418,182.418,0,0,1,5.885,27.557,141.558,141.558,0,0,1,.9,27.044c-.4,6.185-1.817,12.23-2.893,18.313h4.165c4.947-14.165,4.278-30.132,1.736-44.429a202.444,202.444,0,0,0-7.327-27.661c-3.056-9.289-6-18.776-9.9-27.808-.334-.758-1.622-.478-1.385.345" transform="translate(-165.973 -103.423)"/>
              <path id="Trazado_218553" data-name="Trazado 218553" d="M196.066,171.379c1.83,18.878,10.189,37.211,16.177,55.238a148.528,148.528,0,0,1,7.191,56.287c-.027.451-.775.458-.783,0-.188-10.312-.364-20.695-2.49-30.864-1.921-9.185-4.955-18.2-8.007-27.125-2.993-8.752-6.316-17.438-8.78-26.328a122.265,122.265,0,0,1-4.186-27.208c-.024-.515.83-.5.878,0" transform="translate(-160.305 -87.83)"/>
              <path id="Trazado_218554" data-name="Trazado 218554" d="M196.44,346.375h4.6c1.28-2.582,2.429-5.2,3.521-7.73a110.343,110.343,0,0,0,7.2-23.373,113.747,113.747,0,0,0-1.279-46.989c-.106-.441-.815-.243-.742.184a119.183,119.183,0,0,1-1.671,47.173,131.415,131.415,0,0,1-7.237,22.078,95.393,95.393,0,0,1-4.393,8.657" transform="translate(-160.59 -109.9)"/>
              <path id="Trazado_218555" data-name="Trazado 218555" d="M218.287,339.175c1.055-3.473,1.7-7.747,3.487-10.978a4.09,4.09,0,0,1,3.27-2.2.808.808,0,0,1,.321-.042,3.948,3.948,0,0,1,.472.062,4.475,4.475,0,0,1,.864.2c.562.192,1.2.575,1.3,1.17.005.029.009.063.015.092,2.034,2.9,1.279,9.1,1,11.373-.437,3.551-1.5,12.868-7.682,12.033-6-.81-4.066-8.33-3.041-11.7" transform="translate(-165.302 -123.071)"/>
              <path id="Trazado_218556" data-name="Trazado 218556" d="M186.471,189c1.272,7.075,3.293,17.247,5.974,27.588a.194.194,0,0,0,.016.073c.342,1.177.693,2.353,1.043,3.531.709,2.36,1.378,4.721,1.972,7.082a.3.3,0,0,0,.016.081c.106.331.2.654.31.978a181.028,181.028,0,0,1,5.175,20.21c1.051-8.87-.644-17.68-3.252-26.514-3.3-11.179-7.017-22.145-11.255-33.029" transform="translate(-158.323 -91.924)"/>
              <path id="Trazado_218557" data-name="Trazado 218557" d="M258.788,158.717a3.756,3.756,0,0,1,.438-1.872,1.519,1.519,0,0,1,1.476-.638,1.488,1.488,0,0,1,1.231.957c.027.064.042.129.064.193a1.042,1.042,0,0,1,.205.434,2.831,2.831,0,0,1,.033.858,1.845,1.845,0,0,1-.532,2.182,1.7,1.7,0,0,1-2.473-.287,2.332,2.332,0,0,1-.443-1.827" transform="translate(-174.762 -84.463)"/>
              <path id="Trazado_218558" data-name="Trazado 218558" d="M225.224,207.161c10.776-11.51,23.459-25.011,23.418-40.955,0-.4.617-.374.668,0,2.447,17.521-9.978,30.522-23.168,41.784-.616.525-1.452-.259-.919-.829" transform="translate(-167.098 -86.674)"/>
              <path id="Trazado_218559" data-name="Trazado 218559" d="M227.4,224.54c.531-2.865,3.016-5.321,5.112-7.417,2.821-2.821,5.885-5.395,8.283-8.541.317-.416,1.035-.053.759.4a50.218,50.218,0,0,1-6.263,7.818c-2.447,2.634-4.441,5.7-7.013,8.2a.527.527,0,0,1-.878-.461" transform="translate(-167.63 -96.336)"/>
              <path id="Trazado_218560" data-name="Trazado 218560" d="M261.679,93.807c0-.321.491-.3.535,0,2.069,13.994,2.407,28.941-.447,42.888-.092.447-.863.333-.863-.105,0-14.243.759-28.523.776-42.783" transform="translate(-175.251 -70.221)"/>
              <path id="Trazado_218561" data-name="Trazado 218561" d="M256.644,121.89c.013-.107.19-.114.191,0,.08,9.241.089,19.25-2.179,28.3a.548.548,0,0,1-1.051-.128c.077-9.317,1.908-18.909,3.039-28.171" transform="translate(-173.591 -76.642)"/>
              <path id="Trazado_218562" data-name="Trazado 218562" d="M151.337,140.783c2.351,6.134,4.921,11.642,10.4,16.089a40.384,40.384,0,0,0,8.266,5.226c2.873,1.347,6.092,1.963,8.908,3.371.416.209.178.7-.222.739-6.735.724-14.431-4.21-18.806-8.4-4.74-4.541-8.983-10.537-9.449-16.914-.036-.488.74-.529.9-.11" transform="translate(-150.127 -80.893)"/>
              <path id="Trazado_218563" data-name="Trazado 218563" d="M150.246,122.9c1.362,11.439,8.082,21.106,16.854,29.115.245.223-.076.63-.382.447-10.933-6.548-16.286-18.071-16.683-29.561,0-.124.2-.119.21,0" transform="translate(-150.036 -76.869)"/>
              <path id="Trazado_218564" data-name="Trazado 218564" d="M183.526,90.415c.043-.423.754-.44.745,0-.507,25.425,4.974,50.413,7.111,75.676.036.422-.741.523-.825.1-2.471-12.4-4.374-24.974-5.913-37.5-1.564-12.725-2.417-25.508-1.118-38.281" transform="translate(-157.508 -69.429)"/>
              <path id="Trazado_218565" data-name="Trazado 218565" d="M188.122,100.605a101.159,101.159,0,0,0,7.384,31.662,336.42,336.42,0,0,1-3.4-62.33,87.318,87.318,0,0,0-2.877,10.73,78.67,78.67,0,0,0-1.109,19.938" transform="translate(-158.653 -64.845)"/>
              <path id="Trazado_218566" data-name="Trazado 218566" d="M184.015,70.289c.379-2.264,1.45-4.341,1.93-6.585.1-.47.982-.485,1.068,0,.348,1.956-.332,3.593-.895,5.478a53.651,53.651,0,0,0-1.329,8.059.453.453,0,0,1-.9,0,27.1,27.1,0,0,1,.123-6.952" transform="translate(-157.699 -63.346)"/>
              <path id="Trazado_218567" data-name="Trazado 218567" d="M223.092,232.575a93.8,93.8,0,0,1,12.632,31.538c.1.445-.594.622-.756.188-3.932-10.564-8.412-20.971-12.557-31.467-.144-.364.472-.582.681-.259" transform="translate(-166.492 -101.799)"/>
              <path id="Trazado_218568" data-name="Trazado 218568" d="M208.346,244.041c2.037,3.794,4.335,9.37,3.41,13.639a.121.121,0,0,1-.209.025c-1.106-1.9-1.393-4.113-1.945-6.183-.64-2.4-1.462-4.761-2.094-7.162a.461.461,0,0,1,.838-.319" transform="translate(-163.104 -104.395)"/>
              <path id="Trazado_218569" data-name="Trazado 218569" d="M226.676,350.032a27.619,27.619,0,0,0,5.61-12.5c1.056-5.429,2.2-11.263,1.1-16.75-.9-4.5-2.631-8.75-3.3-13.309a63.38,63.38,0,0,1-.213-16.343c.038-.346.625-.362.611,0a62.49,62.49,0,0,0,2.014,18.79c1.377,5.088,3.593,10,3.564,15.308-.044,8.1-1.407,19.683-8.58,25.368-.412.326-1.174-.109-.81-.564" transform="translate(-167.445 -115.092)"/>
              <path id="Trazado_218570" data-name="Trazado 218570" d="M213.758,365.24h2.714a9.509,9.509,0,0,0-.358-4.06c-.9-3.155-2.706-6.634-2.168-9.965.032-.184-.269-.346-.367-.14-2.241,4.677-.44,9.407.179,14.165" transform="translate(-164.239 -128.764)"/>
              <path id="Trazado_218571" data-name="Trazado 218571" d="M214.947,347.393c.006-.009.022,0,.016.008a2.122,2.122,0,0,0-.339,1.316c0,.011-.019.011-.019,0a2.12,2.12,0,0,1,.342-1.324" transform="translate(-164.72 -127.947)"/>
            </g>
          </g>
        </g>
      </g>
    </g>
    <path id="Trazado_218572" data-name="Trazado 218572" d="M78.9,369.069l-39.448.068L0,369.324l39.449.189,39.448.068,78.9.13,78.9-.129,39.448-.068,39.449-.189-39.449-.188-39.448-.068-78.9-.128Z" transform="translate(0 -83.91)" fill="#263238"/>
    <g id="Grupo_154889" data-name="Grupo 154889">
      <g id="Grupo_154888" data-name="Grupo 154888" clip-path="url(#clip-path)">
        <path id="Trazado_218573" data-name="Trazado 218573" d="M350.08,213.405a17.391,17.391,0,1,1-17.39-17.391,17.39,17.39,0,0,1,17.39,17.391" transform="translate(-71.71 -44.581)" fill="#37474f"/>
        <path id="Trazado_218574" data-name="Trazado 218574" d="M343.758,209.956c-.421-4.231-3.337-8.443-8.462-8.443s-8.034,4.211-8.455,8.443c-.648,6.53,3.758,12.446,8.455,17.843,4.7-5.4,9.11-11.313,8.462-17.843m-8.462,4.7a4.633,4.633,0,1,1,4.639-4.632,4.631,4.631,0,0,1-4.639,4.632" transform="translate(-74.321 -45.831)" fill="#fff"/>
        <path id="Trazado_218575" data-name="Trazado 218575" d="M227.289,36.7A36.7,36.7,0,1,1,190.591,0a36.7,36.7,0,0,1,36.7,36.7" transform="translate(-35.001 0)" fill="#455a64"/>
        <path id="Trazado_218576" data-name="Trazado 218576" d="M195.055,30.925c-.083,2.335-.028,4.7-.028,7.227h9.116c-.389,3-.722,5.781-1.167,8.533-.028.278-.722.612-1.112.64-2.2.056-4.391.028-6.782.028V77.759a35.892,35.892,0,0,1-9.673-1.5V47.407h-7.977V38.235h7.811c.028-.695.083-1.251.083-1.779.056-2.418-.028-4.836.195-7.227.5-5.253,3.725-8.949,8.922-9.673,3.225-.444,6.588-.083,9.978-.083v8.339c-1.2,0-2.418-.028-3.613,0a15.376,15.376,0,0,0-3.2.222,3,3,0,0,0-2.557,2.891" transform="translate(-40.355 -4.397)" fill="#fff"/>
        <path id="Trazado_218577" data-name="Trazado 218577" d="M140.72,166.4a36.7,36.7,0,1,1-36.7-36.7,36.7,36.7,0,0,1,36.7,36.7" transform="translate(-15.312 -29.498)" fill="#455a64"/>
        <path id="Trazado_218578" data-name="Trazado 218578" d="M88.889,189.681a20.478,20.478,0,0,0,13.221-4.075c-5.469-1.66-7.649-3.331-8.445-6.44l3.669-.181c-4.316-1.657-6.852-4.557-7.184-9.293l3.776,1c-3.961-4.982-4.762-8.847-2.4-12.454a27.281,27.281,0,0,0,19.394,9.7c-.036-.619-.07-1.082-.088-1.547a8.918,8.918,0,0,1,5.2-8.97,9.023,9.023,0,0,1,10.3,1.244,1.893,1.893,0,0,0,2.08.426c1.473-.553,2.954-1.086,4.577-1.681a9.4,9.4,0,0,1-3.6,4.617c.035.089.07.178.1.267l4.535-1.164.181.18c-1.171,1.18-2.294,2.415-3.534,3.517a2.423,2.423,0,0,0-.986,2.022,26.532,26.532,0,0,1-24.15,26.6,26.926,26.926,0,0,1-15.748-3.215c-.309-.169-.6-.363-.905-.547" transform="translate(-20.217 -35.559)" fill="#fff"/>
        <path id="Trazado_218579" data-name="Trazado 218579" d="M231.965,219.959a25.737,25.737,0,1,1-25.737-25.737,25.737,25.737,0,0,1,25.737,25.737" transform="translate(-41.05 -44.173)" fill="#455a64"/>
        <path id="Trazado_218580" data-name="Trazado 218580" d="M199.738,210.072a.465.465,0,0,0,.107.032,3.21,3.21,0,0,1,2.951,2.722,3.18,3.18,0,0,1-1.091,2.993,3.12,3.12,0,0,1-1.534.729,3.265,3.265,0,0,1-.9.04,3.224,3.224,0,0,1-2.808-2.3,2.963,2.963,0,0,1-.118-.678c0-.044.007-.1-.053-.117v-.281c.057-.022.049-.073.053-.119.01-.093.014-.186.029-.278a3.2,3.2,0,0,1,2.97-2.709.534.534,0,0,0,.11-.032Z" transform="translate(-44.645 -47.778)" fill="#fff"/>
        <path id="Trazado_218581" data-name="Trazado 218581" d="M214.129,223.924c.027-.036.056-.071.082-.109a6.34,6.34,0,0,1,.946-1.111,5.878,5.878,0,0,1,2.621-1.406,8.063,8.063,0,0,1,1.458-.2,8.341,8.341,0,0,1,3.757.7,4.8,4.8,0,0,1,2.07,1.972,7.382,7.382,0,0,1,.686,1.735,9.346,9.346,0,0,1,.253,1.26c.028.212.04.426.054.64.025.4.044.793.066,1.191,0,.012,0,.023,0,.035.01.379.026.756.029,1.135q.013,1.9.018,3.8,0,2.873,0,5.747c0,.214-.009.223-.226.223h-2.435q-1.136,0-2.271,0c-.121,0-.242.011-.362.016h-.059c-.269-.014-.272-.076-.272-.277q0-2.383,0-4.765c0-1.576,0-3.153-.006-4.73a6.076,6.076,0,0,0-.231-1.767,3.478,3.478,0,0,0-.433-.956,2.227,2.227,0,0,0-1.427-.943,2.848,2.848,0,0,0-.672-.071c-.241.005-.484,0-.723.027a2.672,2.672,0,0,0-2.281,1.648,5.03,5.03,0,0,0-.361,1.34,10.551,10.551,0,0,0-.091,1.481v8.663c0,.066,0,.133,0,.2-.008.089-.046.124-.135.129-.05,0-.1,0-.152,0h-2.762c-.582,0-1.163,0-1.744,0-.172,0-.343.011-.514.016a.53.53,0,0,1-.07,0c-.227-.023-.246-.081-.243-.25,0-.086,0-.172,0-.257q0-5.707,0-11.414,0-2.88,0-5.759c0-.051,0-.1,0-.152.005-.127.051-.172.18-.181.031,0,.063,0,.094,0h4.846c.031,0,.063,0,.094,0,.124.007.171.048.172.173,0,.219-.009.437-.009.655,0,.32,0,.64.006.96,0,.152,0,.3,0,.456,0,.042,0,.083,0,.124l.035.009" transform="translate(-47.466 -50.283)" fill="#fff"/>
        <path id="Trazado_218582" data-name="Trazado 218582" d="M196.917,230.67q0-4.367,0-8.733a1.242,1.242,0,0,1,.006-.151.1.1,0,0,1,.11-.1c.042,0,.086,0,.128,0l5.115,0h.036c.2,0,.247.051.247.253q0,.988,0,1.978v15.453a1.144,1.144,0,0,1-.013.185.138.138,0,0,1-.133.127c-.132.007-.263.011-.4.012-.05,0-.1-.009-.151-.009h-4.3c-.113,0-.226.011-.338.016a.423.423,0,0,1-.07,0c-.189-.021-.246-.042-.246-.257q0-4.384,0-8.768Z" transform="translate(-44.785 -50.418)" fill="#fff"/>
        <path id="Trazado_218583" data-name="Trazado 218583" d="M335.98,139.882a36.664,36.664,0,1,1-36.664-36.664,36.663,36.663,0,0,1,36.664,36.664" transform="translate(-59.737 -23.475)" fill="#ffc727"/>
        <path id="Trazado_218584" data-name="Trazado 218584" d="M325.528,132.119c-.025-5.951-3.74-9.8-9.64-9.855q-12.241-.123-24.486,0c-5.773.061-9.513,3.884-9.6,9.645-.056,4.073-.01,8.151-.01,12.223,0,3.986-.026,7.977.005,11.962.05,6.083,3.761,9.973,9.783,10.034q12.111.131,24.226,0c5.906-.066,9.687-3.951,9.717-9.829q.068-12.088.005-24.18m-3.9,24.252c-.042,3.762-2.068,5.844-5.834,5.869q-12.111.076-24.221,0c-3.781-.02-5.828-2.1-5.848-5.844q-.054-12.217,0-24.435c.016-3.731,2.1-5.875,5.827-5.9q12.112-.085,24.222,0c3.736.025,5.812,2.158,5.854,5.878.045,4.074.009,8.146.009,12.218s.036,8.141-.009,12.213" transform="translate(-64.085 -27.793)" fill="#fff"/>
        <path id="Trazado_218585" data-name="Trazado 218585" d="M306.787,135.82a11.428,11.428,0,1,0,11.355,11.595,11.41,11.41,0,0,0-11.355-11.595m-.143,19.036a7.716,7.716,0,0,1-7.492-7.522,7.617,7.617,0,0,1,15.234-.005,7.72,7.72,0,0,1-7.742,7.528" transform="translate(-67.182 -30.89)" fill="#fff"/>
        <path id="Trazado_218586" data-name="Trazado 218586" d="M327.8,134.61a2.369,2.369,0,0,1-2.725,2.363,2.393,2.393,0,0,1-2.486-2.847c.118-1.6,1.159-2.339,2.757-2.43a2.559,2.559,0,0,1,2.454,2.913" transform="translate(-73.364 -29.953)" fill="#fff"/>
        <path id="Trazado_218587" data-name="Trazado 218587" d="M298.061,221.548a24.791,24.791,0,1,1-24.791-24.79,24.792,24.792,0,0,1,24.791,24.79" transform="translate(-56.513 -44.75)" fill="#ffc727"/>
        <path id="Trazado_218588" data-name="Trazado 218588" d="M268.6,235.562V216.526l22.7,9.518Z" transform="translate(-61.089 -49.246)" fill="#fff"/>
        <path id="Trazado_218589" data-name="Trazado 218589" d="M168.564,231.323a17.581,17.581,0,1,1-17.581-17.581,17.582,17.582,0,0,1,17.581,17.581" transform="translate(-30.34 -48.613)" fill="#37474f"/>
        <path id="Trazado_218590" data-name="Trazado 218590" d="M162.732,236.014c-2.9,5.851-9.8,9.324-9.8,9.324s-6.9-3.473-9.8-9.324c-2.417-4.88-.885-10.156,2.928-11.308,5.467-1.653,6.87,7.868,6.87,7.868s1.4-9.521,6.875-7.868c3.814,1.152,5.345,6.428,2.929,11.308" transform="translate(-32.288 -51.062)" fill="#fff"/>
        <path id="Trazado_218591" data-name="Trazado 218591" d="M302.244,57.755a25.737,25.737,0,1,1-25.737-25.737,25.737,25.737,0,0,1,25.737,25.737" transform="translate(-57.034 -7.282)" fill="#37474f"/>
        <path id="Trazado_218592" data-name="Trazado 218592" d="M287.937,50.5a6.284,6.284,0,0,0,.446.708s.025.019.039.032a6.629,6.629,0,0,1-.485-.74m.494.752v0h0l.268.191c-.09-.064-.181-.132-.27-.2m4.364,4.679V53.912a6.679,6.679,0,0,1-.794-.183,7.145,7.145,0,0,1-1.3-.514,6.5,6.5,0,0,1-1.156-.76,5.981,5.981,0,0,1-.542-.494l-.077-.083-.066-.073a4.356,4.356,0,0,1-.425-.545.643.643,0,0,1-.19-.128,6.733,6.733,0,0,1-.807-.817,7.124,7.124,0,0,1-.944-1.483,8.311,8.311,0,0,1-.587-1.658c-.05-.209-.093-.418-.138-.627v0l0-.013v-.012c0-.018,0-.037,0-.055h-3.417l-.508,0c-.091,0-.107.026-.107.111q0,9.308,0,18.616c0,.544,0,1.088,0,1.632,0,.31-.032.619-.065.927a7.316,7.316,0,0,1-.211,1.157,2.136,2.136,0,0,1-.235.479,4.39,4.39,0,0,1-.837,1.048,3.92,3.92,0,0,1-.794.573,4.233,4.233,0,0,1-1.259.456c-.158.029-.317.049-.476.066a4.263,4.263,0,0,1-.476.013,4.441,4.441,0,0,1-1.6-.328,3.885,3.885,0,0,1-1.022-.6,3.139,3.139,0,0,1-.827-1.007,7.076,7.076,0,0,1-.339-.894,4.118,4.118,0,0,0,.321.852.049.049,0,0,1,0,.035l0,.011a1.983,1.983,0,0,1-.326-.221l-.02-.015a3.215,3.215,0,0,1-1.074-1.482,5.13,5.13,0,0,1-.218-.769,4.55,4.55,0,0,1-.079-.625c-.007-.127-.018-.253-.015-.379a5,5,0,0,1,.206-1.323,4.11,4.11,0,0,1,.616-1.233,3.812,3.812,0,0,1,1.119-1.016,4.386,4.386,0,0,1,1.3-.515,5.826,5.826,0,0,1,.6-.1,6.173,6.173,0,0,1,.948-.029,3.822,3.822,0,0,1,.662.065c.09.02.107,0,.107-.093q0-2.139,0-4.28c-.327,0-.655-.015-.981,0a9.525,9.525,0,0,0-1.134.129,9.321,9.321,0,0,0-1.25.311,8.055,8.055,0,0,0-.858.338,8.553,8.553,0,0,0-1.241.693,9.744,9.744,0,0,0-.813.623,8.754,8.754,0,0,0-.742.715,8.967,8.967,0,0,0-.818,1.021,10.157,10.157,0,0,0-.786,1.347,10.5,10.5,0,0,0-.446,1.074,10.935,10.935,0,0,0-.426,1.575c-.049.253-.08.509-.112.765a10.376,10.376,0,0,0-.065,1.509c.006.293.033.585.065.876a9.654,9.654,0,0,0,.253,1.367,9.531,9.531,0,0,0,.483,1.389,9.233,9.233,0,0,0,.793,1.441,3.428,3.428,0,0,1,.212.335c-.01.016.4.477.628.721-.168-.181-.326-.372-.482-.563a.032.032,0,0,1,0-.042.609.609,0,0,1,.071.044c.065.046.121.1.182.153l.018.015a9.9,9.9,0,0,0,.827.593,10.024,10.024,0,0,0,1.133.624,11.231,11.231,0,0,0,1.517.584c.259.079.529.114.794.166.236.047.474.076.712.116.108.019.219.028.33.036a9.42,9.42,0,0,0,1.074.053c.308-.011.616-.029.922-.065a10.639,10.639,0,0,0,1.071-.178,8.3,8.3,0,0,0,1.551-.508,8.457,8.457,0,0,0,1.644-.966A8.82,8.82,0,0,0,283,72.845a8.215,8.215,0,0,0,.732-.918,9.869,9.869,0,0,0,.818-1.411,10.728,10.728,0,0,0,.637-1.713c.091-.325.164-.654.228-.987.047-.242.079-.486.117-.729.022-.134.029-.272.037-.409.11-1.862.036-3.726.049-5.589s0-3.733,0-5.6v-.1l.193.163a7.6,7.6,0,0,0,.958.684,9.463,9.463,0,0,0,.931.5,11.971,11.971,0,0,0,1.711.644c.424.125.853.229,1.286.316q.495.1.994.168c.2.027.407.046.613.059.135.009.27,0,.4.015.073.005.083-.022.083-.087,0-.64,0-1.279,0-1.919M269.93,73.149a.038.038,0,0,1-.012-.006l0-.005.014.007-.006,0m.068.06a.154.154,0,0,1-.015-.009s.009-.009.013-.009a.018.018,0,0,1,.013.006c0,.008,0,.019-.012.012m.508.613.044.046-.044-.046m12.82-27.361,2.438,0h-2.438m2.438,0s0,.029,0,.055c0-.018,0-.037,0-.055Z" transform="translate(-60.968 -10.566)" fill="#fefefe"/>
        <path id="Trazado_218593" data-name="Trazado 218593" d="M294.563,61.361c0,.075-.015.1-.093.1-.291-.008-.581-.038-.871-.068-.232-.025-.462-.057-.691-.093-.261-.041-.521-.1-.78-.155a13.163,13.163,0,0,1-1.493-.416,12.356,12.356,0,0,1-1.157-.466,9.135,9.135,0,0,1-1.352-.766,6.8,6.8,0,0,1-.706-.549c-.023.007-.012.028-.012.042.012.783-.021,1.566-.019,2.349q.006,4.115,0,8.231a6.483,6.483,0,0,1-.063.845c-.024.185-.042.372-.071.557-.042.267-.1.532-.153.8a10.635,10.635,0,0,1-.3,1.08,10.933,10.933,0,0,1-.508,1.249,9.968,9.968,0,0,1-.831,1.411c-.146.209-.306.409-.471.6-.145.173-.3.341-.458.5a8,8,0,0,1-.708.635c-.228.178-.46.348-.7.505a8.081,8.081,0,0,1-1.295.674,8.493,8.493,0,0,1-1.224.4c-.252.062-.508.109-.763.151s-.518.066-.776.1c-.072.01-.148-.02-.217.018h-1.024c-.016-.032-.046-.016-.07-.017a8.1,8.1,0,0,1-.841-.085c-.221-.031-.44-.073-.661-.1a6.925,6.925,0,0,1-1.43-.392c-.277-.1-.547-.222-.816-.345a9.867,9.867,0,0,1-1.325-.745,8.847,8.847,0,0,1-.715-.531,9.266,9.266,0,0,1-.854-.788l-.009-.009-.019-.021-.044-.047c-.227-.243-.638-.7-.628-.72a1.541,1.541,0,0,1,.216.158c.07.057.137.116.182.154l.019.015a9.821,9.821,0,0,0,1.959,1.218,11.229,11.229,0,0,0,1.517.584c.259.078.529.114.794.166.236.046.474.076.712.116.108.019.219.028.33.036a9.6,9.6,0,0,0,1.074.052c.308-.01.616-.028.922-.064a10.64,10.64,0,0,0,1.071-.179,8.239,8.239,0,0,0,1.551-.508,8.38,8.38,0,0,0,1.644-.966,8.762,8.762,0,0,0,1.136-1.038,8.141,8.141,0,0,0,.732-.918,9.824,9.824,0,0,0,.818-1.411A10.635,10.635,0,0,0,285.722,71c.092-.325.165-.654.229-.987.047-.241.079-.485.117-.728.021-.135.029-.273.037-.409.11-1.862.036-3.725.049-5.588s0-3.734,0-5.6v-.1l.194.164a7.667,7.667,0,0,0,.957.685,9.568,9.568,0,0,0,.932.5,11.974,11.974,0,0,0,1.71.644c.424.125.853.229,1.286.316q.495.1.994.168c.2.027.408.046.613.059.135.009.27,0,.4.015.073.006.083-.022.083-.087,0-.639,0-1.279,0-1.918V56.107a.048.048,0,0,1,.015,0,2.311,2.311,0,0,0,.363.067c.187.029.377.049.565.07.08.008.16,0,.239.016.043.008.054.02.05.058a.27.27,0,0,0,0,.035q0,2.505,0,5.01" transform="translate(-61.501 -12.76)" fill="#455a64"/>
        <path id="Trazado_218594" data-name="Trazado 218594" d="M277.4,60.483l-.017.005c-.327,0-.655-.016-.98,0a9.37,9.37,0,0,0-2.385.439,8.058,8.058,0,0,0-.858.338,8.553,8.553,0,0,0-1.241.694,9.589,9.589,0,0,0-.813.622,8.886,8.886,0,0,0-.742.715,9,9,0,0,0-.818,1.021,10.107,10.107,0,0,0-.786,1.347,10.7,10.7,0,0,0-.446,1.074,10.824,10.824,0,0,0-.425,1.574c-.05.253-.08.509-.113.765a10.491,10.491,0,0,0-.065,1.51c.006.293.033.584.065.875a9.625,9.625,0,0,0,.253,1.367,9.5,9.5,0,0,0,.483,1.389,9.2,9.2,0,0,0,.793,1.442,3.249,3.249,0,0,1,.212.335c-.069-.059-.141-.116-.206-.179a9.169,9.169,0,0,1-1.7-2.237,9.2,9.2,0,0,1-.686-1.636,9.319,9.319,0,0,1-.306-1.286c-.042-.251-.07-.5-.1-.759a1.067,1.067,0,0,0-.03-.313V68.37c.022-.013.018-.035.018-.054a6.606,6.606,0,0,1,.066-.719,9.648,9.648,0,0,1,.285-1.43,9.874,9.874,0,0,1,.43-1.254,10.042,10.042,0,0,1,1.04-1.9c.182-.262.38-.511.584-.756a8.889,8.889,0,0,1,2.2-1.856,8.4,8.4,0,0,1,1.75-.787,8.164,8.164,0,0,1,1.311-.308c.244-.034.488-.063.733-.087a8.922,8.922,0,0,1,1.176-.027,7.3,7.3,0,0,1,.925.081c.1.017.2.027.307.036.062,0,.082.032.081.093,0,.362,0,.724,0,1.085" transform="translate(-60.61 -13.46)" fill="#ffc727"/>
        <path id="Trazado_218595" data-name="Trazado 218595" d="M287.49,46.082h-3.416l-.508,0c-.091,0-.107.027-.107.113q0,9.307,0,18.615c0,.545,0,1.089,0,1.632,0,.311-.032.619-.065.929a7.335,7.335,0,0,1-.211,1.156,2.169,2.169,0,0,1-.235.479,4.393,4.393,0,0,1-.837,1.049,3.948,3.948,0,0,1-.794.573,4.253,4.253,0,0,1-1.259.455c-.158.029-.317.05-.476.065a4.085,4.085,0,0,1-.476.013,4.407,4.407,0,0,1-1.6-.328,3.947,3.947,0,0,1-1.022-.6,3.132,3.132,0,0,1-.827-1.007c.078.042.137.071.194.1a4.356,4.356,0,0,0,1.14.43,4.46,4.46,0,0,0,1.338.1,4.187,4.187,0,0,0,2.438-.992,4.615,4.615,0,0,0,.908-1.067,2.743,2.743,0,0,0,.4-1.063c.039-.263.079-.526.114-.79a3.711,3.711,0,0,0,.035-.481c0-.273.022-.549.022-.822q0-9.85,0-19.7c0-.026,0-.053,0-.08,0-.043.013-.064.059-.06.02,0,.04,0,.06,0h4.888c.128,0,.134,0,.132.13a5.8,5.8,0,0,0,.1,1.052.643.643,0,0,1,0,.1" transform="translate(-62.695 -10.188)" fill="#ffc727"/>
        <path id="Trazado_218596" data-name="Trazado 218596" d="M280.2,62.049v4.419c0,.113,0,.107-.11.087s-.231-.031-.347-.042c-.169-.015-.339-.014-.508-.019a5.48,5.48,0,0,0-1.328.121,4.3,4.3,0,0,0-1.184.433,4.065,4.065,0,0,0-.707.5,3.831,3.831,0,0,0-.867,1.1,4.232,4.232,0,0,0-.419,1.17c-.034.167-.053.335-.073.5a5.163,5.163,0,0,0-.012.656,3.946,3.946,0,0,0,.108.817c.015.066.031.132.048.2a7.119,7.119,0,0,0,.34.894l-.015-.008a2.312,2.312,0,0,1-.349-.226,3.387,3.387,0,0,1-.352-.314,3.335,3.335,0,0,1-.721-1.167,4.976,4.976,0,0,1-.218-.769,4.47,4.47,0,0,1-.08-.626c-.006-.126-.018-.252-.014-.378a4.965,4.965,0,0,1,.206-1.323,4.109,4.109,0,0,1,.615-1.233,3.814,3.814,0,0,1,1.119-1.016,4.37,4.37,0,0,1,1.3-.515,5.877,5.877,0,0,1,.6-.1,6.16,6.16,0,0,1,.947-.029,3.741,3.741,0,0,1,.662.065c.09.019.107,0,.107-.093v-4.28l.017-.005a.3.3,0,0,0,.125.021,6.936,6.936,0,0,1,.885.083.661.661,0,0,0,.16.019c.06-.006.065.021.064.07,0,.33,0,.66,0,.99" transform="translate(-62.18 -13.843)" fill="#455a64"/>
        <path id="Trazado_218597" data-name="Trazado 218597" d="M293.641,51.261h0a.633.633,0,0,1-.19-.128,6.673,6.673,0,0,1-.807-.817,7.126,7.126,0,0,1-.944-1.483,8.319,8.319,0,0,1-.588-1.658c-.049-.208-.093-.418-.138-.627v0l0-.013v0a.525.525,0,0,1,0-.063h0c.349,0,.7,0,1.048,0,.051,0,.063.015.062.063a6.216,6.216,0,0,0,.072.913,9.349,9.349,0,0,0,.318,1.46,8.7,8.7,0,0,0,.475,1.225c.064.138.131.265.2.381l0,0a6.451,6.451,0,0,0,.485.739l.007.011v0" transform="translate(-66.177 -10.567)" fill="#263238"/>
        <path id="Trazado_218598" data-name="Trazado 218598" d="M298.809,54.239q0,.542,0,1.085l-.015,0a6.679,6.679,0,0,1-.794-.183,7.144,7.144,0,0,1-1.3-.514,6.5,6.5,0,0,1-1.156-.76,5.982,5.982,0,0,1-.542-.494l-.076-.083a4.747,4.747,0,0,1-.489-.617l0,0h0v0h0c.089.063.18.131.27.2l.041.029a6.4,6.4,0,0,0,1.019.576,6.865,6.865,0,0,0,.712.283,8.269,8.269,0,0,0,1.351.323,9.216,9.216,0,0,0,.931.1c.047,0,.058.021.058.063" transform="translate(-66.963 -11.979)" fill="#ffc727"/>
        <path id="Trazado_218599" data-name="Trazado 218599" d="M236.971,133.379a36.7,36.7,0,1,1-36.7-36.7,36.7,36.7,0,0,1,36.7,36.7" transform="translate(-37.203 -21.989)" fill="#37474f"/>
        <path id="Trazado_218600" data-name="Trazado 218600" d="M180.777,160.631c1.016-3.657,1.918-7.057,2.922-10.427a3.77,3.77,0,0,0-.281-3.013c-7.082-14.275,2.314-31.528,18.183-33.468,14.589-1.782,26.932,9.22,26.619,23.73-.256,11.891-10.348,22.143-22.284,22.678a25.235,25.235,0,0,1-11.672-2.206,3.731,3.731,0,0,0-2.238-.169c-3.657.873-7.288,1.851-11.249,2.875m5.706-5.538c2.326-.6,4.291-1.174,6.288-1.587a3.348,3.348,0,0,1,2.074.268,20.947,20.947,0,0,0,9.49,2.471c12.118.213,21.881-11.044,19.573-22.849-1.6-8.164-6.615-13.52-14.717-15.374-8.314-1.9-15.386.774-20.415,7.642-4.917,6.715-5.047,13.95-1.031,21.272a3.625,3.625,0,0,1,.3,2.3c-.388,1.889-.978,3.735-1.557,5.856" transform="translate(-41.115 -25.822)" fill="#fff"/>
        <path id="Trazado_218601" data-name="Trazado 218601" d="M197.775,131.1c1.6-2.154,3.745-1.728,4.866.651.438.931.542,1.244.973,2.305.646,1.6.5,2.677-.654,3.711-.841.752-.762,1.415-.179,2.281a16.524,16.524,0,0,0,7.139,6.03,1.574,1.574,0,0,0,2.163-.48c2.066-2.47,2.1-2.444,5.015-1.071.336.158.671.321,1.005.481,2.242,1.075,2.581,3.091.756,4.866a6.565,6.565,0,0,1-6.586,1.6c-6.3-1.6-10.805-5.559-14.289-10.859a9.071,9.071,0,0,1-1.792-5.325,7.907,7.907,0,0,1,1.583-4.19" transform="translate(-44.62 -29.498)" fill="#fff"/>
        <path id="Trazado_218602" data-name="Trazado 218602" d="M79.6,114.628a17.391,17.391,0,1,1-17.39-17.39,17.391,17.391,0,0,1,17.39,17.39" transform="translate(-10.192 -22.115)" fill="#455a64"/>
        <path id="Trazado_218603" data-name="Trazado 218603" d="M63.346,123.559c-.519-.324-.971-.795-1.666-.726-.266.027-.208-.193-.21-.338q-.019-3.916-.032-7.827c0-.19.011-.346.217-.451,1.989-1.011,2.847-2.991,4.062-4.685a7.8,7.8,0,0,0,1.426-5.926c-.085-.586.188-.851.716-.973a1.309,1.309,0,0,1,1.491.464,10.532,10.532,0,0,1,1.15,3.415,12.26,12.26,0,0,1-.354,2.933c-.089.717-.253,1.425-.386,2.151.175.127.378.06.566.063q3.306-.006,6.612-.02c.929,0,1.385.262,1.516.878a1.767,1.767,0,0,1-.953,1.914c-.165.083-.463.009-.482.267s.288.235.44.341c.8.545.656,1.674-.266,2.33-.222.156-.652.086-.662.412,0,.26.4.255.582.438a1.492,1.492,0,0,1-.63,2.307,2.892,2.892,0,0,0-.387.151c-.109.074-.216.156,0,.306a1.3,1.3,0,0,1-.019,2.324c-.094.069-.19.138-.287.207a1.861,1.861,0,0,1-1.16.258q-5.185.028-10.369.037a1.229,1.229,0,0,1-.911-.25" transform="translate(-13.973 -23.331)" fill="#fff" fill-rule="evenodd"/>
        <path id="Trazado_218604" data-name="Trazado 218604" d="M51.159,122.2c-.005-1.657,0-3.317-.022-4.973,0-.338.03-.5.443-.5q3.035.027,6.065-.019c.4-.005.458.131.457.484q0,5,.036,10.008c0,.424-.111.545-.537.539-1.962-.015-3.923-.014-5.883.024-.488.009-.556-.161-.552-.589.019-1.658,0-3.316-.007-4.975" transform="translate(-11.63 -26.544)" fill="#fff" fill-rule="evenodd"/>
        <path id="Trazado_218605" data-name="Trazado 218605" d="M180.522,196.609a8.71,8.71,0,1,1-8.71-8.71,8.71,8.71,0,0,1,8.71,8.71" transform="translate(-37.095 -42.735)" fill="#ffc727"/>
        <path id="Trazado_218606" data-name="Trazado 218606" d="M172.381,191.34a3.575,3.575,0,0,1,2.241.637,3.155,3.155,0,0,1,1.158,1.609,2.989,2.989,0,0,1,.111.707,9.249,9.249,0,0,1,0,1.066c-.012.294-.034.589-.053.883-.008.123,0,.14.118.189a.735.735,0,0,0,.517,0,2.009,2.009,0,0,0,.263-.1.6.6,0,0,1,.654.138.284.284,0,0,1,0,.4,1.251,1.251,0,0,1-.5.309c-.148.058-.3.1-.45.16a1.181,1.181,0,0,0-.258.146.558.558,0,0,0-.212.661,3.34,3.34,0,0,0,.426.837,4.04,4.04,0,0,0,1.235,1.239,3.072,3.072,0,0,0,1.055.41.143.143,0,0,1,.117.219.518.518,0,0,1-.245.238,2.927,2.927,0,0,1-.819.284c-.158.036-.317.064-.477.089a.2.2,0,0,0-.172.142c-.058.167-.081.342-.127.513s-.1.214-.283.192c-.225-.026-.446-.079-.673-.1a2.117,2.117,0,0,0-1.54.423,6.51,6.51,0,0,1-.718.491,2.427,2.427,0,0,1-1.313.315,2.488,2.488,0,0,1-1.394-.485c-.239-.165-.467-.344-.716-.5a1.824,1.824,0,0,0-.795-.246,3.787,3.787,0,0,0-1.092.1l-.007,0c-.256.032-.286,0-.34-.21-.038-.147-.07-.3-.1-.443a.236.236,0,0,0-.221-.2,4.112,4.112,0,0,1-1.189-.328,1.009,1.009,0,0,1-.2-.123.376.376,0,0,1-.131-.179.139.139,0,0,1,.114-.195,3.05,3.05,0,0,0,.808-.268,3.718,3.718,0,0,0,1.261-1.062,4.611,4.611,0,0,0,.606-1.01.913.913,0,0,0,.079-.27.581.581,0,0,0-.276-.569,1.744,1.744,0,0,0-.479-.219,1.978,1.978,0,0,1-.575-.27.654.654,0,0,1-.121-.114.287.287,0,0,1,.048-.434.515.515,0,0,1,.588-.076,1.145,1.145,0,0,0,.557.138.614.614,0,0,0,.311-.087.1.1,0,0,0,.049-.1c-.024-.4-.049-.806-.067-1.209a6.95,6.95,0,0,1,.019-.905,2.522,2.522,0,0,1,.13-.7,3.179,3.179,0,0,1,1.949-1.941,3.416,3.416,0,0,1,1.139-.206" transform="translate(-37.807 -43.517)" fill="#fff"/>
        <path id="Trazado_218607" data-name="Trazado 218607" d="M266.034,103.486a8.71,8.71,0,1,1-8.71-8.71,8.71,8.71,0,0,1,8.71,8.71" transform="translate(-56.544 -21.555)" fill="#455a64"/>
        <path id="Trazado_218608" data-name="Trazado 218608" d="M261.939,100.935a2.9,2.9,0,1,1-2.9-2.9,2.9,2.9,0,0,1,2.9,2.9" transform="translate(-58.255 -22.297)" fill="#fff"/>
        <path id="Trazado_218609" data-name="Trazado 218609" d="M263.428,110.663v1.061H253.4v-1.061a5.016,5.016,0,0,1,10.033,0" transform="translate(-57.631 -24.03)" fill="#fff"/>
        <path id="Trazado_218610" data-name="Trazado 218610" d="M90.642,86.077a26.909,26.909,0,0,0,44.97,17.024l13.466,1.977-6.738-11.641a26.918,26.918,0,1,0-51.7-7.36" transform="translate(-20.582 -12.817)" fill="#455a64"/>
        <path id="Trazado_218611" data-name="Trazado 218611" d="M98.7,63.779a26.872,26.872,0,0,1,22.551-7.489,27.144,27.144,0,0,1,11.487,4.31,27.521,27.521,0,0,1,8.429,8.976,27.214,27.214,0,0,1,1.658,23.99l-.031-.46,6.7,11.664.494.86-.977-.15-13.452-2.065.318-.1a27.152,27.152,0,0,1-13.316,6.575,23.577,23.577,0,0,1-3.725.388,26.388,26.388,0,0,1-3.739-.071,26.824,26.824,0,0,1-7.247-1.728,26.51,26.51,0,0,1-6.493-3.615,24.348,24.348,0,0,1-5.28-5.213A27.07,27.07,0,0,1,98.7,63.779" transform="translate(-20.581 -12.748)" fill="#ffc727"/>
        <path id="Trazado_218612" data-name="Trazado 218612" d="M105.916,91.3a3.258,3.258,0,1,0,3.258-3.258,3.258,3.258,0,0,0-3.258,3.258" transform="translate(-24.089 -20.024)" fill="#263238"/>
        <path id="Trazado_218613" data-name="Trazado 218613" d="M121.031,91.3a3.258,3.258,0,1,0,3.258-3.258,3.258,3.258,0,0,0-3.258,3.258" transform="translate(-27.527 -20.024)" fill="#263238"/>
        <path id="Trazado_218614" data-name="Trazado 218614" d="M136.145,91.3a3.258,3.258,0,1,0,3.258-3.258,3.258,3.258,0,0,0-3.258,3.258" transform="translate(-30.964 -20.024)" fill="#263238"/>
        <path id="Trazado_218615" data-name="Trazado 218615" d="M352.5,77.6a17.3,17.3,0,0,1-28.9,10.943l-8.655,1.27,4.33-7.482A17.3,17.3,0,1,1,352.5,77.6" transform="translate(-71.628 -13.305)" fill="#455a64"/>
        <path id="Trazado_218616" data-name="Trazado 218616" d="M352.324,77.558a17.424,17.424,0,0,1-3.492,8.77,19.314,19.314,0,0,1-1.568,1.8,19.546,19.546,0,0,1-1.826,1.546A17.05,17.05,0,0,1,341.265,92a17.246,17.246,0,0,1-4.657,1.11,16.992,16.992,0,0,1-2.4.046,15.111,15.111,0,0,1-2.394-.249,17.449,17.449,0,0,1-8.558-4.226l.2.063-8.646,1.328-.627.1.318-.553,4.3-7.5-.02.3A17.491,17.491,0,0,1,319.849,67a17.683,17.683,0,0,1,5.419-5.77,17.6,17.6,0,0,1,15.206-2.048,17.675,17.675,0,0,1,6.672,4.091,17.4,17.4,0,0,1,5.178,14.287" transform="translate(-71.456 -13.26)" fill="#455a64"/>
        <path id="Trazado_218617" data-name="Trazado 218617" d="M352.53,80.962a2.094,2.094,0,1,1-2.094-2.094,2.094,2.094,0,0,1,2.094,2.094" transform="translate(-79.225 -17.937)" fill="#fff"/>
        <path id="Trazado_218618" data-name="Trazado 218618" d="M342.816,80.962a2.094,2.094,0,1,1-2.094-2.094,2.093,2.093,0,0,1,2.094,2.094" transform="translate(-77.016 -17.937)" fill="#fff"/>
        <path id="Trazado_218619" data-name="Trazado 218619" d="M333.1,80.962a2.094,2.094,0,1,1-2.094-2.094,2.094,2.094,0,0,1,2.094,2.094" transform="translate(-74.807 -17.937)" fill="#fff"/>
        <path id="Trazado_218620" data-name="Trazado 218620" d="M144.511,25.619a17.391,17.391,0,1,1-17.39-17.39,17.39,17.39,0,0,1,17.39,17.39" transform="translate(-24.956 -1.872)" fill="#ffc727"/>
        <g id="Grupo_154887" data-name="Grupo 154887" transform="translate(100.582 15.418)" opacity="0.5">
          <g id="Grupo_154886" data-name="Grupo 154886">
            <g id="Grupo_154885" data-name="Grupo 154885" clip-path="url(#clip-path-9)">
              <path id="Trazado_218621" data-name="Trazado 218621" d="M140.579,23.483a3.526,3.526,0,1,1-3.526-3.526,3.526,3.526,0,0,1,3.526,3.526" transform="translate(-130.951 -19.957)"/>
              <path id="Trazado_218622" data-name="Trazado 218622" d="M142.387,35.309V36.6h-12.2V35.309a6.1,6.1,0,0,1,12.2,0" transform="translate(-130.192 -22.065)"/>
            </g>
          </g>
        </g>
        <path id="Trazado_218623" data-name="Trazado 218623" d="M128.887,26.234a3.526,3.526,0,1,1-3.526-3.526,3.526,3.526,0,0,1,3.526,3.526" transform="translate(-27.71 -5.165)" fill="#fff"/>
        <path id="Trazado_218624" data-name="Trazado 218624" d="M130.7,38.061V39.35H118.5V38.061a6.1,6.1,0,0,1,12.2,0" transform="translate(-26.951 -7.272)" fill="#fff"/>
        <path id="Trazado_218625" data-name="Trazado 218625" d="M256.568,186.466a8.71,8.71,0,1,1-8.71-8.71,8.71,8.71,0,0,1,8.71,8.71" transform="translate(-54.391 -40.428)" fill="#455a64"/>
        <path id="Trazado_218626" data-name="Trazado 218626" d="M245.625,190.335h-.708a.8.8,0,0,1-.8-.8.805.805,0,0,1,.8-.8h.987l.464-2.682h-.9a.8.8,0,0,1,0-1.6h1.176l.3-1.835a.788.788,0,0,1,.8-.663.824.824,0,0,1,.8.942l-.274,1.556H250.7l.308-1.835a.792.792,0,0,1,.817-.663.815.815,0,0,1,.787.942l-.263,1.556h.712a.8.8,0,0,1,.8.8.815.815,0,0,1-.8.8h-.987l-.463,2.682h.877a.8.8,0,0,1,.8.8.806.806,0,0,1-.8.8h-1.156l-.324,1.894a.793.793,0,0,1-.8.663.815.815,0,0,1-.8-.938l.294-1.619h-2.422l-.324,1.894a.8.8,0,0,1-.814.663.788.788,0,0,1-.787-.938Zm4.336-1.6.464-2.682h-2.407l-.463,2.682Z" transform="translate(-55.52 -41.381)" fill="#fff"/>
        <path id="Trazado_218627" data-name="Trazado 218627" d="M103.647,41.255a8.71,8.71,0,1,1-11.008-5.528,8.711,8.711,0,0,1,11.008,5.528" transform="translate(-19.711 -8.025)" fill="#37474f"/>
        <path id="Trazado_218628" data-name="Trazado 218628" d="M95.579,39.151a5.755,5.755,0,1,0,1.354,11.43,5.511,5.511,0,0,0,1.37-.341.464.464,0,0,0,.3-.265.457.457,0,0,0-.008-.38.391.391,0,0,0-.193-.26.527.527,0,0,0-.439-.025,4.183,4.183,0,0,1-1.153.262,4.736,4.736,0,1,1,4.139-5.268,4.48,4.48,0,0,1-.265,2.208,1.567,1.567,0,0,1-.746.859l-.114.014c-.145.017-.188-.024-.192-.028a1.307,1.307,0,0,1-.138-.3c-.135-.559-.273-2.313-.274-2.334L99.2,44.51a2.982,2.982,0,1,0-5.917.7,3.084,3.084,0,0,0,3.344,2.784,2.8,2.8,0,0,0,1.855-1.023l.032.261a1.49,1.49,0,0,0,.376.8,1.2,1.2,0,0,0,1.058.359,1.223,1.223,0,0,0,.346-.077,2.689,2.689,0,0,0,1.337-1.379c.012-.022.019-.039.021-.042l.017-.032a5.792,5.792,0,0,0-6.089-7.712m.922,7.783a1.99,1.99,0,0,1-2.16-1.849,2.024,2.024,0,0,1,1.667-2.317,2.057,2.057,0,0,1,2.18,1.861,2.024,2.024,0,0,1-1.687,2.3" transform="translate(-20.581 -8.895)" fill="#fff"/>
      </g>
    </g>
    <g id="Grupo_154897" data-name="Grupo 154897">
      <g id="Grupo_154896" data-name="Grupo 154896" clip-path="url(#clip-path)">
        <path id="Trazado_218629" data-name="Trazado 218629" d="M104.157,415.187c.567-1.606,30-38.852,31.967-39.541.226-.091,12.839,9.286,12.839,9.286.513.716,24.957-3.92,24.957-3.92l-.369,29.363-44.312-1.866s-6.061,3.4-11.6,6.15c-.008,0-.013.006-.018,0a66.152,66.152,0,0,1-7.279,3.345c-2.228.522-6.766-1.222-6.187-2.82" transform="translate(-23.678 -85.435)" fill="#ad6359"/>
        <path id="Trazado_218630" data-name="Trazado 218630" d="M110.345,418.007a64.477,64.477,0,0,0,7.277-3.346c.007.007.014,0,.021,0,5.533-2.754,11.6-6.153,11.6-6.153l9.863.417,15.964-24.6c-3.4.53-5.939.837-6.1.608,0,0-12.608-9.377-12.835-9.283-1.972.687-31.4,37.932-31.969,39.538s3.958,3.347,6.187,2.821" transform="translate(-23.678 -85.436)" fill="#fff"/>
        <path id="Trazado_218631" data-name="Trazado 218631" d="M103.816,415.232c.6-1.646,30.155-38.868,32.179-39.575.766-.273,6.949,3.726,12.89,9.275L129.8,408.907s-17.328,8.722-19.632,9.259-6.95-1.289-6.353-2.935" transform="translate(-23.599 -85.435)" fill="#ffc727"/>
        <path id="Trazado_218632" data-name="Trazado 218632" d="M106.264,416.607c5.108-6.118,25.132-31.275,29.717-37.711.037-.052,0-.079-.039-.031-5.195,5.953-25.015,31.273-29.78,37.661-.1.135,0,.21.1.081" transform="translate(-24.135 -86.162)" fill="#263238"/>
        <path id="Trazado_218633" data-name="Trazado 218633" d="M116,426.316a6.4,6.4,0,0,0,1.441-4.943,6.2,6.2,0,0,0-2.224-4.04c-.039-.028-.093.039-.059.076a7.4,7.4,0,0,1,.765,8.845.05.05,0,0,0,.078.062" transform="translate(-26.188 -94.915)" fill="#263238"/>
        <path id="Trazado_218634" data-name="Trazado 218634" d="M134.538,417.848c2.018-2.47,3.436-6.065,2.625-9.239-.031-.123-.206-.077-.226.028a44.071,44.071,0,0,1-2.74,9.01.2.2,0,0,0,.341.2" transform="translate(-30.517 -92.916)" fill="#263238"/>
        <path id="Trazado_218635" data-name="Trazado 218635" d="M131.584,419.571c2.018-2.47,3.436-6.065,2.625-9.239-.031-.123-.205-.076-.226.028a44.074,44.074,0,0,1-2.74,9.01.2.2,0,0,0,.341.2" transform="translate(-29.845 -93.308)" fill="#263238"/>
        <path id="Trazado_218636" data-name="Trazado 218636" d="M128.629,421.293c2.018-2.47,3.436-6.065,2.625-9.239-.031-.123-.206-.076-.226.028a44.073,44.073,0,0,1-2.74,9.01.2.2,0,0,0,.341.2" transform="translate(-29.173 -93.699)" fill="#263238"/>
        <path id="Trazado_218637" data-name="Trazado 218637" d="M125.675,423.016c2.018-2.47,3.436-6.065,2.625-9.239-.031-.123-.205-.076-.226.028a44.07,44.07,0,0,1-2.74,9.01.2.2,0,0,0,.341.2" transform="translate(-28.502 -94.091)" fill="#263238"/>
        <path id="Trazado_218638" data-name="Trazado 218638" d="M149.345,385.739c2.216-2.808-2.144-6.259-4.365-3.446s2.144,6.259,4.365,3.446" transform="translate(-32.835 -86.709)" fill="#263238"/>
        <path id="Trazado_218639" data-name="Trazado 218639" d="M139.369,427.445c2.052-.432,2.292-2.838,1.823-4.482a16.743,16.743,0,0,0-4.584-7.341.085.085,0,0,0-.134.022.389.389,0,0,0-.558.289c-.182,2.755-.718,5.677-.049,8.405.39,1.593,1.561,3.514,3.5,3.107m-2.875-7.279c.056-1.357.179-2.7.186-4.061a49.942,49.942,0,0,1,2.583,4.346,18.079,18.079,0,0,1,.96,2.25c.394,1.2.535,5.307-2.38,3.4-1.607-1.053-1.417-4.314-1.35-5.932" transform="translate(-30.827 -94.522)" fill="#263238"/>
        <path id="Trazado_218640" data-name="Trazado 218640" d="M140.737,406.245c-2.061,1.909-3.223,4.643-4.588,7.043a.39.39,0,0,0,.307.549.083.083,0,0,0,.1.09,16.733,16.733,0,0,0,7.869-3.6c1.3-1.114,2.422-3.255.947-4.745-1.4-1.409-3.431-.45-4.634.664m2.618-.379c3.484.012,1.1,3.363.115,4.146a18.012,18.012,0,0,1-2.04,1.349,50.124,50.124,0,0,1-4.55,2.2c.743-1.138,1.382-2.329,2.082-3.493.834-1.387,2.472-4.214,4.393-4.207" transform="translate(-30.955 -92.083)" fill="#263238"/>
        <path id="Trazado_218641" data-name="Trazado 218641" d="M185.737,371.542l19.985-1.576s28.862-8.366,45.544-3.986c19.123,5.021,21.821,27.366,2.378,36.321-19.234,8.858-103.918,5.593-103.918,5.593l18.153-26.886s27.88-6.55,52.289-5.219l-34.558,3.98Z" transform="translate(-34.053 -82.948)" fill="#37474f"/>
        <path id="Trazado_218642" data-name="Trazado 218642" d="M196.534,380.08c2.974-.49,5.981-.732,8.981-1.011,3.025-.281,6.056-.5,9.088-.69a180.349,180.349,0,0,1,18.177-.276c.568.022,1.134.056,1.7.088.12-.038.25-.057.375-.084.292-.064.583-.13.878-.18.549-.094,1.1-.162,1.653-.235,1.15-.151,2.3-.249,3.446-.439.07-.012.1.093.025.107-1.152.231-2.285.539-3.439.766-.332.065-.664.13-1,.189,2.219.163,4.433.381,6.646.627.07.008.07.117,0,.111-3.013-.24-6.052-.325-9.075-.338-3-.012-6-.008-9,.1-6.067.222-12.134.639-18.183,1.145-3.395.284-6.8.634-10.2.705-.331.007-.4-.532-.069-.587" transform="translate(-44.649 -85.801)" fill="#263238"/>
        <path id="Trazado_218643" data-name="Trazado 218643" d="M160.948,411.893c1.12-1.711,2.083-3.543,3.112-5.311s2.066-3.545,3.1-5.317c2.066-3.533,9.467-15.406,10.191-16.233.046-.053.136.01.113.072-.356.923-4.985,8.791-6.049,10.544-2.129,3.508-4.36,6.942-6.561,10.4-.629.988-1.278,1.963-1.915,2.946s-1.313,1.946-1.9,2.957c-.036.061-.132,0-.093-.06" transform="translate(-36.603 -87.566)" fill="#263238"/>
        <path id="Trazado_218644" data-name="Trazado 218644" d="M269.3,421.765c-.492-1.632-28.124-40.229-30.061-41.01-.221-.1-13.263,8.669-13.263,8.669-.547.69-24.743-5.1-24.743-5.1l-1.022,29.347,44.35.234s5.894,3.679,11.293,6.691c.009,0,.013.007.019,0a66.091,66.091,0,0,0,7.112,3.686c2.2.627,6.817-.9,6.315-2.523" transform="translate(-45.535 -86.597)" fill="#ad6359"/>
        <path id="Trazado_218645" data-name="Trazado 218645" d="M268.783,424.288a64.53,64.53,0,0,1-7.11-3.687c-.008.007-.014,0-.022,0-5.4-3.012-11.291-6.7-11.291-6.7l-9.87-.05-14.782-25.33c3.374.691,5.892,1.118,6.068.9,0,0,13.037-8.77,13.26-8.665,1.937.78,29.568,39.375,30.061,41.007s-4.112,3.155-6.314,2.525" transform="translate(-51.334 -86.597)" fill="#fff"/>
        <path id="Trazado_218646" data-name="Trazado 218646" d="M277.144,421.821c-.519-1.672-28.281-40.251-30.27-41.054-.752-.308-7.117,3.394-13.314,8.656l17.928,24.851s16.9,9.533,19.171,10.178,7-.96,6.485-2.631" transform="translate(-53.12 -86.596)" fill="#ffc727"/>
        <path id="Trazado_218647" data-name="Trazado 218647" d="M279.245,423.113c-4.812-6.353-23.624-32.43-27.9-39.075-.035-.054,0-.08.041-.029,4.907,6.192,23.507,32.421,27.964,39.028.093.139-.005.21-.107.076" transform="translate(-57.162 -87.331)" fill="#263238"/>
        <path id="Trazado_218648" data-name="Trazado 218648" d="M277.086,432.767a6.4,6.4,0,0,1-1.205-5.005,6.2,6.2,0,0,1,2.413-3.93c.039-.026.091.044.056.079a7.4,7.4,0,0,0-1.183,8.8.05.05,0,0,1-.081.058" transform="translate(-62.721 -96.393)" fill="#263238"/>
        <path id="Trazado_218649" data-name="Trazado 218649" d="M258.753,423.391c-1.9-2.563-3.144-6.221-2.185-9.353.037-.121.209-.067.225.039a44.063,44.063,0,0,0,2.311,9.129.2.2,0,0,1-.351.185" transform="translate(-58.277 -94.151)" fill="#263238"/>
        <path id="Trazado_218650" data-name="Trazado 218650" d="M261.623,425.252c-1.9-2.563-3.144-6.221-2.185-9.353.037-.12.209-.066.225.039a44.064,44.064,0,0,0,2.311,9.129.2.2,0,0,1-.351.185" transform="translate(-58.93 -94.575)" fill="#263238"/>
        <path id="Trazado_218651" data-name="Trazado 218651" d="M264.492,427.113c-1.9-2.563-3.144-6.221-2.185-9.353.037-.121.209-.066.225.039a44.057,44.057,0,0,0,2.311,9.129.2.2,0,0,1-.351.185" transform="translate(-59.583 -94.998)" fill="#263238"/>
        <path id="Trazado_218652" data-name="Trazado 218652" d="M267.362,428.973c-1.9-2.563-3.144-6.221-2.185-9.353.037-.121.209-.067.225.039a44.051,44.051,0,0,0,2.311,9.129.2.2,0,0,1-.351.185" transform="translate(-60.235 -95.421)" fill="#263238"/>
        <path id="Trazado_218653" data-name="Trazado 218653" d="M244.777,390.62c-2.081-2.91,2.438-6.15,4.523-3.235s-2.437,6.15-4.523,3.235" transform="translate(-55.549 -87.845)" fill="#263238"/>
        <path id="Trazado_218654" data-name="Trazado 218654" d="M256.249,429.838c.8-2.693.4-5.638.348-8.4a.389.389,0,0,0-.544-.315.084.084,0,0,0-.132-.027A16.731,16.731,0,0,0,251,428.213c-.546,1.619-.42,4.034,1.609,4.563,1.919.5,3.18-1.364,3.645-2.937m-2.058,1.663c-3,1.769-2.666-2.329-2.216-3.506a17.955,17.955,0,0,1,1.065-2.2,50.238,50.238,0,0,1,2.786-4.218c-.058,1.357,0,2.708-.006,4.066-.01,1.619.025,4.886-1.629,5.861" transform="translate(-57.022 -95.768)" fill="#263238"/>
        <path id="Trazado_218655" data-name="Trazado 218655" d="M246.526,410.558c-1.544,1.419-.522,3.61.721,4.784a16.729,16.729,0,0,0,7.689,3.971.083.083,0,0,0,.1-.086.389.389,0,0,0,.333-.533c-1.25-2.461-2.281-5.248-4.249-7.253-1.149-1.17-3.137-2.224-4.6-.882m6.188,4.791c.644,1.2,1.226,2.416,1.914,3.587a50.25,50.25,0,0,1-4.441-2.417,18.049,18.049,0,0,1-1.974-1.445c-.95-.828-3.17-4.289.311-4.136,1.919.084,3.421,2.985,4.189,4.411" transform="translate(-55.891 -93.233)" fill="#263238"/>
        <path id="Trazado_218656" data-name="Trazado 218656" d="M178.21,371.256l-19.9-.528s-20.543-10.556-37.414-6.971c-19.34,4.11-22.437,28.182-8.3,37.1,17.912,11.3,98.951,11.353,98.951,11.353l-16.72-30.138s-26.779-6.384-51.223-6.21l34.33,5.611Z" transform="translate(-23.616 -82.562)" fill="#37474f"/>
        <path id="Trazado_218657" data-name="Trazado 218657" d="M204.059,387.163a.612.612,0,0,1-.032-.152l-.028-.124c-.021-.1-.044-.193-.069-.289a5.817,5.817,0,0,0-.188-.586c-.07-.195-.148-.383-.231-.572a4.318,4.318,0,0,0-.314-.532c-.012-.019-.031-.022-.046-.036a.247.247,0,0,0-.031-.022.211.211,0,0,0-.043-.018.309.309,0,0,0-.043-.019c-2.947-.63-22.995-4.044-25.978-4.464-3.008-.424-6.026-.786-9.044-1.12a180.47,180.47,0,0,0-18.144-1.135c-.568-.005-1.136,0-1.7.007-.118-.043-.247-.069-.37-.1-.289-.078-.576-.157-.868-.221-.543-.12-1.092-.214-1.64-.314-1.141-.205-2.288-.357-3.422-.6-.07-.015-.1.09-.03.107,1.14.284,2.257.647,3.4.927.328.081.657.161.987.236-2.223.058-4.445.171-6.668.312-.07,0-.075.113,0,.11,3.021-.1,6.061-.039,9.08.093,3,.13,6,.275,8.986.526,6.049.509,12.09,1.213,18.109,2,3.377.444,23.816,3.983,27.214,4.217a.259.259,0,0,0,.042-.006,2.006,2.006,0,0,0,.087.235c.088.187.178.372.273.556s.184.35.29.521l.16.251c.028.041.055.082.082.124a.659.659,0,0,1,.085.13.055.055,0,1,0,.1-.043" transform="translate(-31.727 -85.711)" fill="#263238"/>
        <path id="Trazado_218658" data-name="Trazado 218658" d="M230.666,416c-1.038-1.762-1.913-3.637-2.857-5.452s-1.9-3.64-2.847-5.457c-1.9-3.627-8.728-15.838-9.412-16.7-.043-.054-.136,0-.115.067.311.939,4.563,9.017,5.543,10.818,1.96,3.6,4.026,7.141,6.061,10.7.582,1.017,1.184,2.021,1.774,3.033s1.219,2.006,1.758,3.043c.032.063.131.006.095-.056" transform="translate(-48.997 -88.33)" fill="#263238"/>
        <path id="Trazado_218659" data-name="Trazado 218659" d="M146.57,266.03l3.047,22.859c.163.678-.226,1.171-.866,1.1l-11.465-1.316a1.869,1.869,0,0,1-1.454-1.364l-3.047-22.859c-.163-.681.225-1.171.866-1.1l11.463,1.316a1.867,1.867,0,0,1,1.455,1.364" transform="translate(-30.192 -59.893)" fill="#37474f"/>
        <path id="Trazado_218660" data-name="Trazado 218660" d="M144.81,265.813l3.047,22.859c.163.679-.226,1.171-.866,1.1l-11.464-1.316a1.87,1.87,0,0,1-1.455-1.364l-3.047-22.859c-.163-.681.226-1.171.865-1.1l11.464,1.316a1.866,1.866,0,0,1,1.456,1.364" transform="translate(-29.791 -59.844)" fill="#455a64"/>
        <path id="Trazado_218661" data-name="Trazado 218661" d="M144.659,267.188a.98.98,0,1,0,1.066-.886.98.98,0,0,0-1.066.886" transform="translate(-32.9 -60.566)" fill="#263238"/>
        <path id="Trazado_218662" data-name="Trazado 218662" d="M177.275,311.054c-7.957,13.141-24.63,29.432-30.621,30.01-2.873.277-8.045.4-11.462-3.3-7.457-8.066-12.869-22.557-13.436-30.584-.2-2.855,14.075-7.484,15.846-4.988,4.149,5.843,8.52,16.909,9.361,16.935,3.112.092,14.734-7.992,24.211-13.709,11.191-6.751,9.272.4,6.1,5.636" transform="translate(-27.691 -68.567)" fill="#ad6359"/>
        <path id="Trazado_218663" data-name="Trazado 218663" d="M123.3,285.287c2.045-5.537,3.42-6.644,2.665-12.234-.5-3.668,1.633-5.559,3.864-2.422,3.648,5.131,2.51,12.828,1.347,15.384Z" transform="translate(-28.044 -61.191)" fill="#ad6359"/>
        <path id="Trazado_218664" data-name="Trazado 218664" d="M122.053,302.88s-1.7-8.2-.105-14.314c1.1-4.229,4.53-13.163,17.075-16.742,2.976-.849,7.818.053,3.462,3.2-3.095,2.238-5.734,2.723-7.3,4.353,0,0,6.023,1.877,6.757,4.892a57.079,57.079,0,0,1,1.357,8.014,11.949,11.949,0,0,1-1.477.388s.6,2.844-1.853,6.529Z" transform="translate(-27.58 -61.754)" fill="#ad6359"/>
        <path id="Trazado_218665" data-name="Trazado 218665" d="M124.346,286.8c1.894-1.289,5.952-3.956,10.031-4.982,4.53-1.14,13.565-2.115,14.372,1.238.592,2.459-2.825,3.134-2.825,3.134s3.82.384,3.868,2.723c.044,2.13-2.631,2.495-2.631,2.495s2.277.631,1.924,2.691c-.424,2.478-5.126.749-7.724,2.888-.583.48-17.016-10.186-17.016-10.186" transform="translate(-28.281 -63.852)" fill="#ad6359"/>
        <path id="Trazado_218666" data-name="Trazado 218666" d="M137.851,288.221a18.613,18.613,0,0,1,11.075-.687c.093.027.121.111.032.1a45.863,45.863,0,0,0-11.1.625c-.026.005-.033-.032-.011-.042" transform="translate(-31.349 -65.271)" fill="#263238"/>
        <path id="Trazado_218667" data-name="Trazado 218667" d="M139.512,294.234a20.893,20.893,0,0,1,11.1-.025c.091.03.114.116.025.106a49.122,49.122,0,0,0-11.114-.038c-.025,0-.031-.035-.008-.043" transform="translate(-31.727 -66.744)" fill="#263238"/>
        <path id="Trazado_218668" data-name="Trazado 218668" d="M175.667,325.592l-16.845-8.3s16.082-10.54,23.565-13.677c7.8-3.27,10.4-1.483,4.029,7.723-6.414,9.261-10.749,14.255-10.749,14.255" transform="translate(-36.122 -68.708)" fill="#ffc727"/>
        <path id="Trazado_218669" data-name="Trazado 218669" d="M180.161,323.319l-.07.093a34.685,34.685,0,0,0-3.059-1.7,16.684,16.684,0,0,0-3.183-1.213c-.077-.023-.162-.039-.247-.062-.108-.031-.224-.054-.34-.077a10.11,10.11,0,0,0-3.971-.093,11.51,11.51,0,0,0-3.121,1.112l-.224-.116a12.113,12.113,0,0,1,3.314-1.174,10.168,10.168,0,0,1,4.041.116c.147.031.3.07.448.108.085.023.162.046.247.062a17.562,17.562,0,0,1,3.1,1.221,34.161,34.161,0,0,1,3.067,1.723m10.306-15.413a13.974,13.974,0,0,0-3.26,2.395,14.406,14.406,0,0,0-2.426,3.245,24.54,24.54,0,0,0-1.684,3.87.825.825,0,0,0-.054.147c-.4,1.151-.757,2.325-1.128,3.484.131-.178.27-.355.4-.541.309-.973.61-1.947.95-2.9a1.068,1.068,0,0,1,.046-.147,24.383,24.383,0,0,1,1.653-3.8,13.84,13.84,0,0,1,5.586-5.593c.093-.054.185-.1.278-.147.039-.085.077-.178.116-.263-.162.085-.324.17-.479.255m-7.154,9.549a.182.182,0,0,0-.062-.015l-.155-.023a10.275,10.275,0,0,0-3.886.077,13.011,13.011,0,0,0-3.724,1.584,14.45,14.45,0,0,0-1.738,1.236c-.046.039-.1.077-.147.124a15.22,15.22,0,0,0-1.267,1.182,18.106,18.106,0,0,0-1.622,1.993l.17.085a18.209,18.209,0,0,1,1.6-1.939,16.186,16.186,0,0,1,1.367-1.259,1.133,1.133,0,0,1,.147-.124,15.3,15.3,0,0,1,1.6-1.128,12.606,12.606,0,0,1,3.662-1.576,10.051,10.051,0,0,1,3.786-.108c.062.008.124.023.185.031.015,0,.023.008.039.008.348.062.7.131,1.043.224a1.484,1.484,0,0,0,.1-.131c-.363-.093-.726-.178-1.1-.24" transform="translate(-37.742 -69.971)" fill="#fff"/>
        <path id="Trazado_218670" data-name="Trazado 218670" d="M177.216,326.174c-.377-.243-.792-.435-1.19-.642s-.817-.428-1.226-.643c-.827-.435-1.663-.854-2.5-1.271-1.673-.831-3.344-1.67-5.031-2.472-.464-.221-.929-.44-1.4-.649-.494-.219-1-.4-1.5-.623-.031-.014-.047.032-.019.047.408.218.8.471,1.207.691s.838.447,1.262.662q1.25.634,2.51,1.249c1.653.807,3.305,1.62,4.975,2.392.467.215.935.426,1.4.641.487.225.974.481,1.48.661.026.009.05-.028.025-.044" transform="translate(-37.377 -72.75)" fill="#263238"/>
        <g id="Grupo_154892" data-name="Grupo 154892" transform="translate(132.075 233.547)" opacity="0.1">
          <g id="Grupo_154891" data-name="Grupo 154891">
            <g id="Grupo_154890" data-name="Grupo 154890" clip-path="url(#clip-path-11)">
              <path id="Trazado_218671" data-name="Trazado 218671" d="M189.173,311.379c-6.412,9.263-10.746,14.262-10.746,14.262l-7.471-3.685L191.715,302.3c1.893.649,1.329,3.5-2.542,9.078" transform="translate(-170.956 -302.301)"/>
            </g>
          </g>
        </g>
        <path id="Trazado_218672" data-name="Trazado 218672" d="M169.241,356.864c.684.817,46.819.284,47.069,0,.684-.76-7.383-40.551-15.488-52.69-2.736-4.1-11.431-4.932-14.469-.958-8.713,11.4-17.708,52.927-17.112,53.644" transform="translate(-38.485 -68.375)" fill="#ffc727"/>
        <path id="Trazado_218673" data-name="Trazado 218673" d="M210.28,328.085c-.008.015-.015.023-.023.023a14.54,14.54,0,0,1-2.936,2.1,15.736,15.736,0,0,1-3.77,1.452,12.215,12.215,0,0,1-4.033.286,15.651,15.651,0,0,1-3.94-.881,26.64,26.64,0,0,1-3.677-1.661c-1.306-.711-2.565-1.5-3.809-2.318-.07-.039-.131-.085-.2-.131-.943-.618-1.87-1.252-2.8-1.877-.919-.626-1.846-1.252-2.789-1.862-.062-.031-.116-.077-.185-.116-1.051-.672-2.117-1.313-3.229-1.885a.756.756,0,0,1,.039-.124c1.113.579,2.179,1.221,3.229,1.9.062.039.124.085.185.124.95.61,1.877,1.252,2.8,1.885s1.862,1.283,2.812,1.9a1.477,1.477,0,0,0,.2.131c.108.077.224.155.332.224,1.128.726,2.279,1.422,3.453,2.063a25.179,25.179,0,0,0,3.677,1.638,14.8,14.8,0,0,0,3.917.858,12.1,12.1,0,0,0,3.979-.3,15.447,15.447,0,0,0,3.724-1.468,13.713,13.713,0,0,0,2.727-1.947.722.722,0,0,0,.139-.131.5.5,0,0,0,.116-.108c.008.039.023.07.031.108s.023.077.031.116m-8.537-22.374a15.551,15.551,0,0,0-2.3-.379,3.545,3.545,0,0,0-.409-.023,1.826,1.826,0,0,0-.294-.015,11.45,11.45,0,0,0-3.322.317,15.318,15.318,0,0,0-3.77,1.46,13.971,13.971,0,0,0-3.26,2.395,14.406,14.406,0,0,0-2.426,3.245,24.545,24.545,0,0,0-1.684,3.871.825.825,0,0,0-.054.147c-.409,1.167-.765,2.356-1.143,3.531-.286.912-.587,1.831-.927,2.735a.448.448,0,0,0-.039.108,18.559,18.559,0,0,1-2.349,4.427,12.356,12.356,0,0,1-2.233,2.3c-.062.054-.124.1-.193.154-.139.108-.286.216-.433.317a11.921,11.921,0,0,1-1.082.664c-.031.108-.062.216-.093.332a14.2,14.2,0,0,0,1.313-.8c.209-.147.409-.294.6-.456.07-.054.139-.108.2-.162a12.929,12.929,0,0,0,2.1-2.21,18.453,18.453,0,0,0,2.349-4.45c.015-.031.023-.062.039-.1.355-.919.657-1.862.958-2.789.379-1.19.734-2.387,1.151-3.561a1.073,1.073,0,0,1,.046-.147,24.38,24.38,0,0,1,1.653-3.8,13.841,13.841,0,0,1,5.586-5.593,14.994,14.994,0,0,1,3.724-1.46,11.323,11.323,0,0,1,3.144-.348c.1,0,.2.008.294.008.185.008.363.015.541.031a15,15,0,0,1,2.4.4c-.031-.054-.062-.1-.093-.147m-1.306-1.731a12.629,12.629,0,0,0-1.7,1.313c-.046.039-.093.077-.139.124q-.359.336-.7.7a14.5,14.5,0,0,0-2.287,3.345,40.74,40.74,0,0,0-2.549,7.664c-.255.927-.518,1.854-.827,2.766a.443.443,0,0,1-.031.108,17.909,17.909,0,0,1-2.148,4.527,12.649,12.649,0,0,1-2.109,2.379.208.208,0,0,1-.062.054c-.185.162-.371.317-.564.464a15.584,15.584,0,0,1-3.484,1.947,10.541,10.541,0,0,1-3.909.7,15.73,15.73,0,0,1-2.086-.185c-.108-.008-.209-.031-.317-.046q-.649-.1-1.3-.255c-.015.054-.031.108-.046.17.379.085.765.17,1.151.24.1.015.2.039.309.054a16.14,16.14,0,0,0,2.287.224,10.65,10.65,0,0,0,3.986-.688,15.173,15.173,0,0,0,3.546-1.97c.216-.162.425-.34.626-.518a.444.444,0,0,0,.062-.054,12.776,12.776,0,0,0,2.094-2.38,18.12,18.12,0,0,0,2.163-4.535c.008-.031.023-.07.031-.108.317-.935.579-1.885.842-2.828a39.942,39.942,0,0,1,2.526-7.625,14.363,14.363,0,0,1,2.248-3.307,9.356,9.356,0,0,1,.834-.827.616.616,0,0,1,.139-.116,12.056,12.056,0,0,1,1.545-1.205,1,1,0,0,0-.139-.124m9.842,24.1c-.008-.039-.023-.077-.031-.116a.468.468,0,0,1-.147,0h-.108a15.223,15.223,0,0,1-3.948-.688,26.859,26.859,0,0,1-3.739-1.476q-1.808-.892-3.546-1.916c-1.159-.688-2.295-1.4-3.438-2.117-.95-.595-1.908-1.19-2.882-1.761a1.741,1.741,0,0,0-.2-.124,39.179,39.179,0,0,0-3.956-2.063,16.428,16.428,0,0,0-3.793-1.205.181.181,0,0,0-.062-.015l-.154-.023a10.228,10.228,0,0,0-3.755.054c-.023.07-.054.131-.077.2a10.016,10.016,0,0,1,3.778-.108c.062.008.124.023.185.031.015,0,.023.008.039.008a16.808,16.808,0,0,1,3.786,1.182A38.661,38.661,0,0,1,192.209,320c.07.039.139.085.2.124.966.564,1.916,1.143,2.866,1.731,2.287,1.406,4.566,2.843,6.992,4.033a25.811,25.811,0,0,0,3.747,1.507,15.254,15.254,0,0,0,3.948.711h.023c.093,0,.178.008.27.008h.031a.028.028,0,0,0-.008-.023m3.021,11.558a14.282,14.282,0,0,0-3.484,1.785,40.312,40.312,0,0,0-5.933,5.477c-.664.688-1.344,1.375-2.055,2.032-.031.031-.062.054-.085.077a18.213,18.213,0,0,1-4.071,2.928,12.611,12.611,0,0,1-3.786,1.213c-.031.008-.062.008-.093.015a15.7,15.7,0,0,1-3.9.008,10.1,10.1,0,0,1-3.021-.9,2.73,2.73,0,0,1-.263-.124c-.155-.077-.317-.162-.471-.247a18.3,18.3,0,0,1-3.214-2.395c-1.715-1.545-3.276-3.26-5.045-4.759-.039-.039-.085-.07-.124-.108-.247-.209-.5-.409-.757-.61a15.413,15.413,0,0,0-3.469-2.063c-.162-.069-.332-.131-.5-.193a.388.388,0,0,0-.1-.039c-.008.023-.008.039-.015.062.008.008.023.008.031.015.185.07.371.147.556.224a15.721,15.721,0,0,1,3.43,2.086c.247.193.487.386.726.587a1.554,1.554,0,0,0,.124.108c1.754,1.514,3.314,3.245,5.029,4.821a18.428,18.428,0,0,0,3.229,2.434l.348.185c.085.046.178.093.263.131a10.258,10.258,0,0,0,3.214,1.012,15.171,15.171,0,0,0,4.056-.015h.015c.031-.008.054-.008.085-.015a12.952,12.952,0,0,0,3.762-1.228,18.221,18.221,0,0,0,4.079-2.928.848.848,0,0,0,.085-.077c.726-.672,1.422-1.375,2.094-2.078a40.557,40.557,0,0,1,5.895-5.454,14.48,14.48,0,0,1,3.422-1.754,2.065,2.065,0,0,0-.054-.209m-7.695,15.938c-.688-1.159-1.337-2.333-1.993-3.507-.548-.981-1.1-1.97-1.669-2.936-.039-.07-.077-.131-.116-.2a38.474,38.474,0,0,0-2.48-3.724,16.234,16.234,0,0,0-2.341-2.542.927.927,0,0,0-.162-.147c-.093-.085-.185-.162-.278-.24a10.238,10.238,0,0,0-3.562-1.9,12.867,12.867,0,0,0-4.025-.409,14.853,14.853,0,0,0-3.986.711,13.384,13.384,0,0,0-1.313.487.839.839,0,0,0-.216.085,28.971,28.971,0,0,0-5.562,3.276c-.046.039-.1.07-.147.108-.031.023-.07.046-.1.07a59.172,59.172,0,0,1-6.42,4.334c-.015.008-.023.015-.039.023a.5.5,0,0,1-.031.1.131.131,0,0,1-.008.054c.015-.008.023-.015.039-.023l.093-.046a60.409,60.409,0,0,0,6.49-4.334c.031-.023.07-.046.1-.07s.077-.054.116-.085a28.636,28.636,0,0,1,5.709-3.3c.07-.031.139-.062.209-.085.371-.147.749-.286,1.136-.4a15.581,15.581,0,0,1,3.94-.7,12.646,12.646,0,0,1,3.963.379,10.059,10.059,0,0,1,3.515,1.854,3.388,3.388,0,0,1,.263.224.964.964,0,0,1,.17.147,16.148,16.148,0,0,1,2.349,2.519,38.989,38.989,0,0,1,2.5,3.716c.039.062.077.131.116.2.572.958,1.128,1.931,1.676,2.9,1.1,1.947,2.194,3.909,3.415,5.786h.108c-.5-.765-.989-1.537-1.452-2.318m-10.437-.386c-.394-.6-.773-1.213-1.151-1.823a2.023,2.023,0,0,1-.131-.216c-.294-.464-.572-.919-.858-1.383-.595-.958-1.182-1.916-1.792-2.859-.046-.062-.085-.131-.131-.193a38.459,38.459,0,0,0-2.627-3.616,16.155,16.155,0,0,0-2.913-2.8,11.319,11.319,0,0,0-1.653-1.02c-.077-.039-.155-.07-.232-.108a9.457,9.457,0,0,0-1.754-.618,12.9,12.9,0,0,0-4.041-.24,14.749,14.749,0,0,0-3.948.873q-.5.185-.973.394c-.015.054-.023.1-.039.155-.008.023-.008.039-.015.062,0,.008-.008.023-.008.031.015-.008.023-.015.039-.015a.209.209,0,0,1,.085-.039c.324-.147.649-.278.981-.394a15.261,15.261,0,0,1,3.9-.865,12.5,12.5,0,0,1,3.979.209,9.462,9.462,0,0,1,1.576.533c.077.031.162.07.24.108a10.824,10.824,0,0,1,1.769,1.058,16.369,16.369,0,0,1,2.9,2.766,39.5,39.5,0,0,1,2.665,3.608c.039.062.077.131.124.193.61.935,1.205,1.885,1.792,2.828.278.448.564.9.842,1.352.046.077.093.147.139.216.981,1.576,1.986,3.137,3.1,4.628h.108q-1.031-1.379-1.97-2.82m18.016-16.046a11.572,11.572,0,0,0-2.889-.927,15.414,15.414,0,0,0-4.041-.193,13.889,13.889,0,0,0-3.956.865,14.42,14.42,0,0,0-3.531,1.978,20.668,20.668,0,0,0-1.924,1.653,1.478,1.478,0,0,0-.116.108c-1.3,1.252-2.465,2.627-3.654,3.971-.641.718-1.29,1.437-1.97,2.117-.023.023-.046.054-.07.077a18.386,18.386,0,0,1-3.948,3.1c-.155.085-.317.17-.479.255a1.991,1.991,0,0,1-.224.108,12.363,12.363,0,0,1-3.028,1.012,15.324,15.324,0,0,1-3.986.193,10.315,10.315,0,0,1-3.809-1.112,18.18,18.18,0,0,1-3.314-2.256c-.355-.294-.7-.595-1.051-.9-.008-.015-.023-.023-.031-.031a.131.131,0,0,1-.008.054.654.654,0,0,1-.031.131c.332.294.672.587,1.012.873a18.387,18.387,0,0,0,3.33,2.3,10.642,10.642,0,0,0,3.878,1.159,15.131,15.131,0,0,0,4.048-.185,12.752,12.752,0,0,0,3.253-1.112c.077-.039.147-.077.224-.116.116-.054.224-.116.332-.178a18.192,18.192,0,0,0,3.956-3.106.735.735,0,0,0,.077-.077c.7-.7,1.36-1.429,2-2.163,1.2-1.352,2.372-2.735,3.662-3.971a.715.715,0,0,1,.108-.108,20.961,20.961,0,0,1,1.893-1.622,14.175,14.175,0,0,1,3.477-1.962,13.973,13.973,0,0,1,3.894-.881,15.375,15.375,0,0,1,3.994.17,11.394,11.394,0,0,1,2.959.943,1.34,1.34,0,0,0-.039-.17" transform="translate(-38.92 -69.136)" fill="#fff"/>
        <path id="Trazado_218674" data-name="Trazado 218674" d="M214.3,307.226c19.119,16.241,36,37.846,33.941,44.355-2.175,6.884-16.481,13.88-28.795,14.744-2.522.178-9.169-18.637-6.555-19.327,2.036-.538,11.273-2.577,12.434-3.758.807-.82-12.7-19.653-16.67-30.279-4.152-11.12.527-10.083,5.646-5.735" transform="translate(-47.093 -69.176)" fill="#ad6359"/>
        <path id="Trazado_218675" data-name="Trazado 218675" d="M211.14,359.288s-7.685.312-12.7.753c-2.8.246-7.559,1.095-9.532,2.216-2.951,1.676-14.225,10.573-12.127,13.354,1.9,2.516,5.209-1.089,5.209-1.089s-3.987,3.6-1.337,5.518c2.675,1.934,6.529-3.182,6.529-3.182s-4.5,3.529-1.473,5.305c2.626,1.542,7.7-3.867,7.7-3.867s-5.128,3.187-2.593,5.03c2.8,2.036,11.435-5.118,11.435-5.118a36.113,36.113,0,0,0,15.231-.1c.859-.187-6.346-18.817-6.346-18.817" transform="translate(-40.147 -81.715)" fill="#ad6359"/>
        <path id="Trazado_218676" data-name="Trazado 218676" d="M188.5,381.5c.32-.389.65-.77.97-1.156a24.606,24.606,0,0,1,1.965-2.183c.691-.66,1.41-1.287,2.149-1.894.781-.641,1.631-1.205,2.394-1.864a.056.056,0,1,1,.071.087,26.2,26.2,0,0,0-2.169,2.057c-.7.687-1.381,1.384-2.067,2.081-.671.681-1.381,1.313-2.07,1.974-.344.328-.673.674-1,1.018a7.889,7.889,0,0,1-.959.963c-.036.026-.077-.022-.06-.056a6.2,6.2,0,0,1,.777-1.028" transform="translate(-42.695 -85.149)" fill="#263238"/>
        <path id="Trazado_218677" data-name="Trazado 218677" d="M182.54,377.767a39.152,39.152,0,0,1,3.557-4.134,27.418,27.418,0,0,1,4.251-3.433.057.057,0,0,1,.07.087c-1.3,1.285-2.614,2.553-3.928,3.821-.643.62-3.476,3.524-3.81,3.791-.081.064-.184-.052-.139-.132" transform="translate(-41.514 -84.195)" fill="#263238"/>
        <path id="Trazado_218678" data-name="Trazado 218678" d="M194.46,385.112a38.73,38.73,0,0,1,3.415-3.826,35.2,35.2,0,0,1,4.3-3.01c.057-.028.12.046.07.086-1.35,1.109-2.715,2.191-4.011,3.363-.632.57-3.018,2.993-3.669,3.486-.059.044-.14-.038-.1-.1" transform="translate(-44.225 -86.032)" fill="#263238"/>
        <path id="Trazado_218679" data-name="Trazado 218679" d="M215.378,328.913l18.175-4.724s-13.62-13.573-20.314-18.158c-6.975-4.778-9.89-3.555-5.507,6.749,4.409,10.367,7.645,16.133,7.645,16.133" transform="translate(-46.775 -68.992)" fill="#ffc727"/>
        <path id="Trazado_218680" data-name="Trazado 218680" d="M217.172,309.118q-1.1-.7-2.248-1.321a25.806,25.806,0,0,0-3.677-1.669,15.366,15.366,0,0,0-3.948-.873,3.531,3.531,0,0,0-.409-.023,1.819,1.819,0,0,0-.294-.015c-.3-.015-.61-.015-.912-.008a.888.888,0,0,0-.008.147c.263-.015.525-.023.78-.015.1,0,.2.008.294.008.185.008.363.015.541.031a15.512,15.512,0,0,1,3.917.858,26.833,26.833,0,0,1,3.67,1.638c.919.5,1.823,1.035,2.712,1.584-.139-.116-.278-.232-.417-.34m-8.475-5.477a13.443,13.443,0,0,0-2.1,1.576c-.046.039-.093.077-.139.124q-.359.336-.7.7c-.023.023-.046.054-.07.077.008.093.015.193.031.294a2.556,2.556,0,0,1,.193-.232,9.352,9.352,0,0,1,.834-.827.615.615,0,0,1,.139-.116,13.289,13.289,0,0,1,2.024-1.514c-.077-.031-.147-.054-.216-.077m21.547,17.367a13.543,13.543,0,0,1-4.774,4.79,13.853,13.853,0,0,1-2.349,1.167l1.058-.27c.471-.224.935-.471,1.383-.742a14.282,14.282,0,0,0,3.16-2.534,13.667,13.667,0,0,0,1.676-2.256c-.054-.046-.1-.1-.155-.155" transform="translate(-46.778 -69.059)" fill="#fff"/>
        <path id="Trazado_218681" data-name="Trazado 218681" d="M226.868,318.763c-.185.525-.355,1.051-.525,1.584a40.315,40.315,0,0,1-2.874,7.54,14.238,14.238,0,0,1-2.426,3.245,1.853,1.853,0,0,1-.185.17,12.013,12.013,0,0,0,1.584-.077l-.78.2c-.309.015-.626.015-.943.008a4.792,4.792,0,0,1-.371.332l-.456.124a4.988,4.988,0,0,0,.533-.464,15.705,15.705,0,0,1-3.229-.5,1.172,1.172,0,0,0-.07-.139,15.237,15.237,0,0,0,3.33.51h.108a4.142,4.142,0,0,0,.332-.309,14.178,14.178,0,0,0,2.379-3.2,40.229,40.229,0,0,0,2.859-7.509c.178-.556.355-1.12.556-1.677.062.054.116.108.178.162" transform="translate(-49.382 -72.461)" fill="#fff"/>
        <path id="Trazado_218682" data-name="Trazado 218682" d="M218.769,330.924c.419-.161.864-.266,1.295-.389s.887-.253,1.33-.381c.9-.259,1.8-.5,2.707-.739,1.806-.476,3.612-.959,5.426-1.4.5-.122,1-.243,1.5-.353.528-.115,1.065-.192,1.591-.307.032-.007.039.041.008.05-.443.131-.877.3-1.321.433s-.912.268-1.37.393q-1.352.369-2.71.716c-1.783.456-3.565.919-5.357,1.337-.5.116-1,.228-1.5.345-.523.122-1.051.275-1.584.348-.028,0-.043-.037-.015-.048" transform="translate(-49.752 -74.451)" fill="#263238"/>
        <path id="Trazado_218683" data-name="Trazado 218683" d="M209.991,321.446c-.022-.032.03-.066.055-.038a14.178,14.178,0,0,1,1.317,1.747c-.138-.306-.283-.608-.419-.913-.438-.986-.858-1.98-1.3-2.965a.031.031,0,0,1,.056-.027c.885,1.663,1.839,3.293,2.671,4.984s1.669,3.381,2.475,5.084c.445.939.923,2.134,1.365,3.073.545-.061,1.214-.262,1.8-.339.052-.007.056.078.006.091-.6.158-1.284.458-1.928.566-.082.014-3.086-6-4.428-8.9-.577-.771-1.14-1.554-1.67-2.358" transform="translate(-47.68 -72.605)" fill="#263238"/>
        <path id="Trazado_218684" data-name="Trazado 218684" d="M194.2,308.387c2.6.769,7.353-3.01,9.322-6.177.134-.217-.079-2.6-.2-5.5-.066-1.763-.1-3.726,0-5.52.022-.368-11.4,2.11-11.4,2.11a28.653,28.653,0,0,1,.705,6.948,3.975,3.975,0,0,1-.118.732c-.005.033-.018.073-.022.121-.306,1.386-.8,6.539,1.717,7.284" transform="translate(-43.648 -66.218)" fill="#ad6359"/>
        <path id="Trazado_218685" data-name="Trazado 218685" d="M202.624,291.212c-.69,3-2.983,10.228-8.994,10.031a6.8,6.8,0,0,1-1.148-.126.51.51,0,0,1,.022-.123,4.592,4.592,0,0,0,.12-.729,28.63,28.63,0,0,0-.708-6.954s8.242-1.788,10.709-2.1" transform="translate(-43.648 -66.232)" fill="#263238"/>
        <path id="Trazado_218686" data-name="Trazado 218686" d="M202.848,272.015c1.031,4.048-1.619,15.48-4.579,17.917-4.291,3.534-11.046,3.573-13.98-1.523-2.844-4.94.873-19.777,4.154-21.964,4.832-3.221,12.883-.411,14.405,5.569" transform="translate(-41.684 -60.292)" fill="#ad6359"/>
        <path id="Trazado_218687" data-name="Trazado 218687" d="M202.848,272.015c1.031,4.048-1.619,15.48-4.579,17.917-4.291,3.534-11.046,3.573-13.98-1.523-2.844-4.94.873-19.777,4.154-21.964,4.832-3.221,12.883-.411,14.405,5.569" transform="translate(-41.684 -60.292)" fill="#ad6359"/>
        <path id="Trazado_218688" data-name="Trazado 218688" d="M193.265,282.66c.012-.028.052.05.044.082-.2.765-.3,1.675.341,2.089.02.012.009.051-.016.042-.824-.313-.68-1.52-.369-2.213" transform="translate(-43.899 -64.286)" fill="#263238"/>
        <path id="Trazado_218689" data-name="Trazado 218689" d="M194.158,281.82c1.261.187.794,2.7-.374,2.522-1.15-.171-.683-2.679.374-2.522" transform="translate(-43.921 -64.094)" fill="#263238"/>
        <path id="Trazado_218690" data-name="Trazado 218690" d="M187.339,281.642c0-.031-.068.025-.073.057-.12.782-.389,1.656-1.14,1.784-.023,0-.029.044,0,.045.88.039,1.225-1.126,1.214-1.886" transform="translate(-42.327 -64.053)" fill="#263238"/>
        <path id="Trazado_218691" data-name="Trazado 218691" d="M186.624,280.418c-1.232-.327-1.8,2.161-.655,2.464,1.124.3,1.688-2.19.655-2.464" transform="translate(-42.155 -63.77)" fill="#263238"/>
        <path id="Trazado_218692" data-name="Trazado 218692" d="M195.841,278.727a9.673,9.673,0,0,1-.986-.355,1.694,1.694,0,0,1-.936-.553.541.541,0,0,1,.091-.653,1.338,1.338,0,0,1,1.35-.128,1.963,1.963,0,0,1,1.126.858.575.575,0,0,1-.645.831" transform="translate(-44.088 -62.981)" fill="#263238"/>
        <path id="Trazado_218693" data-name="Trazado 218693" d="M185.822,278.285a10.083,10.083,0,0,0,1.045-.073,1.691,1.691,0,0,0,1.051-.278.54.54,0,0,0,.09-.653,1.339,1.339,0,0,0-1.264-.491,1.963,1.963,0,0,0-1.317.519.575.575,0,0,0,.395.976" transform="translate(-42.134 -62.951)" fill="#263238"/>
        <path id="Trazado_218694" data-name="Trazado 218694" d="M192.813,292.314c-.221.148-.453.363-.739.335a2.1,2.1,0,0,1-.8-.351.028.028,0,0,0-.041.034,1.065,1.065,0,0,0,.908.6.843.843,0,0,0,.739-.573c.02-.043-.036-.071-.068-.049" transform="translate(-43.493 -66.478)" fill="#263238"/>
        <path id="Trazado_218695" data-name="Trazado 218695" d="M191.478,286.444a2.691,2.691,0,0,1-1.985.849,3.392,3.392,0,0,1-.96-.134.979.979,0,0,1-.178-.055c-.056-.017-.105-.033-.165-.058a.2.2,0,0,1-.124-.2l0-.006a.356.356,0,0,1,.022-.078l0-.005.014-.068c.1-.6.322-1.5.322-1.5-.239.069-1.447.363-1.371.053a40.448,40.448,0,0,1,2.516-7.816.073.073,0,0,1,.138.046c-.514,2.484-1.46,4.86-2.016,7.346a4.737,4.737,0,0,1,1.32-.147c.08.04-.47,1.73-.491,2a.084.084,0,0,0,0,.029,3.729,3.729,0,0,0,2.9-.341c.066-.033.117.03.059.083" transform="translate(-42.542 -63.086)" fill="#263238"/>
        <path id="Trazado_218696" data-name="Trazado 218696" d="M189.5,289.583a3.2,3.2,0,0,0,1.075,1.208,1.433,1.433,0,0,0,.848.212c.65-.047.772-.614.749-1.123a3.439,3.439,0,0,0-.139-.8,4.132,4.132,0,0,1-2.533.5" transform="translate(-43.099 -65.748)" fill="#263238"/>
        <path id="Trazado_218697" data-name="Trazado 218697" d="M190.892,291.024a1.438,1.438,0,0,0,.847.213c.651-.048.773-.615.749-1.123a1.484,1.484,0,0,0-1.6.91" transform="translate(-43.416 -65.981)" fill="#ff97b8"/>
        <g id="Grupo_154895" data-name="Grupo 154895" transform="translate(158.058 207.617)" opacity="0.2">
          <g id="Grupo_154894" data-name="Grupo 154894">
            <g id="Grupo_154893" data-name="Grupo 154893" clip-path="url(#clip-path-12)">
              <path id="Trazado_218698" data-name="Trazado 218698" d="M207.228,281.288c-.732-.3-1.932-3.307-2.459-4.513-.559-1.252.338-6.782.563-8.037a8.458,8.458,0,0,1,2.407,4.029c.474,1.836.2,5.167-.511,8.521" transform="translate(-204.589 -268.738)" fill="#263238"/>
            </g>
          </g>
        </g>
        <path id="Trazado_218699" data-name="Trazado 218699" d="M191.943,271.653a4.031,4.031,0,0,0,3.327,2.081,4.11,4.11,0,0,0,3.593-1.763.033.033,0,0,1,.055.035,4.069,4.069,0,0,1-3.658,2.056,4.151,4.151,0,0,1-3.4-2.36.05.05,0,0,1,.087-.048" transform="translate(-43.634 -61.778)" fill="#263238"/>
        <path id="Trazado_218700" data-name="Trazado 218700" d="M198.362,260.1a6.344,6.344,0,0,1,4.628,3.949,4.52,4.52,0,0,1-.164,2.973c-.015.038-.094.013-.083-.026a4.961,4.961,0,0,0-1.387-4.864,6.392,6.392,0,0,0-5.4-1.807,4.043,4.043,0,0,0-2.48,1.269c-.062.073-.222-.015-.168-.093.914-1.3,2.994-1.873,5.054-1.4" transform="translate(-43.963 -59.118)" fill="#263238"/>
        <path id="Trazado_218701" data-name="Trazado 218701" d="M181.164,262.27A5.146,5.146,0,0,1,183.871,260c1.581-.579,3.141-.124,4.682.36a.034.034,0,0,1-.02.065,7.1,7.1,0,0,0-4.03-.368,5.065,5.065,0,0,0-2.79,1.939,4.933,4.933,0,0,0,.765,6.412,5.007,5.007,0,0,0,3.788,1.191c.053-.005.075.076.02.083a5.037,5.037,0,0,1-5.122-7.414" transform="translate(-41.063 -59.072)" fill="#263238"/>
        <path id="Trazado_218702" data-name="Trazado 218702" d="M202.831,273.119s3-3.654,1.659-6.39c-.759-1.55-4.21-2.062-4.21-2.062a6.28,6.28,0,0,0-3.4-3.4c-2.728-1.23-6.462-.245-6.462-.245a5.824,5.824,0,0,0-5.237-1.16c-3.954,1.313-4.6,6.8-1.378,9.258,2.261,1.724,6.11.191,6.11.191.318.11,3.263,2.8,6.4.324,0,0,1.69,2.244,3.8,1.334a3.043,3.043,0,0,0,2.727,2.152" transform="translate(-41.335 -59.046)" fill="#263238"/>
        <path id="Trazado_218703" data-name="Trazado 218703" d="M204.59,285.271s2.855-3.549,4.482-2.507-.693,6.31-2.726,6.914a2.023,2.023,0,0,1-2.631-1.266Z" transform="translate(-46.332 -64.267)" fill="#ad6359"/>
        <path id="Trazado_218704" data-name="Trazado 218704" d="M208.689,284.753a.028.028,0,0,1,.007.054,5.109,5.109,0,0,0-2.851,3.014,1.116,1.116,0,0,1,1.687-.192c.034.028,0,.083-.042.072a1.243,1.243,0,0,0-1.4.341,5.976,5.976,0,0,0-.729,1.061c-.073.12-.294.039-.236-.1,0-.01.009-.021.013-.031.084-1.776,1.63-4.166,3.546-4.217" transform="translate(-46.652 -64.763)" fill="#263238"/>
        <path id="Trazado_218705" data-name="Trazado 218705" d="M204.672,306.145a52.423,52.423,0,0,1-4.017,4.292,8.613,8.613,0,0,1-4.846,2.484c-1.786.147-3.566-.233-4.2-2.424a13.174,13.174,0,0,1-.076-5.732.068.068,0,1,0-.132-.022c-.432,2.853-.9,7.274,1.687,8.285,2.893,1.132,5.756-.338,7.816-2.324a26.927,26.927,0,0,0,3.826-4.516c.022-.032-.025-.073-.052-.044" transform="translate(-43.453 -69.295)" fill="#263238"/>
      </g>
    </g>
  </g>
</svg>
