<svg id="Grupo_154870" data-name="Grupo 154870" xmlns="http://www.w3.org/2000/svg" xmlns:xlink="http://www.w3.org/1999/xlink" width="406.356" height="427.548" viewBox="0 0 406.356 427.548">
  <defs>
    <clipPath id="clip-path">
      <rect id="Rectángulo_45672" data-name="Rectángulo 45672" width="406.356" height="427.548" fill="none"/>
    </clipPath>
    <clipPath id="clip-path-6">
      <rect id="Rectángulo_45666" data-name="Rectángulo 45666" width="88.291" height="84.52" fill="#f9c852"/>
    </clipPath>
    <clipPath id="clip-path-7">
      <rect id="Rectángulo_45667" data-name="Rectángulo 45667" width="70.537" height="141.109" fill="#f9c852"/>
    </clipPath>
    <clipPath id="clip-path-8">
      <rect id="Rectángulo_45668" data-name="Rectángulo 45668" width="9.47" height="16.587" fill="none"/>
    </clipPath>
    <clipPath id="clip-path-9">
      <rect id="Rectángulo_45669" data-name="Rectángulo 45669" width="57.308" height="117.912" fill="none"/>
    </clipPath>
    <clipPath id="clip-path-10">
      <rect id="Rectángulo_45670" data-name="Rectángulo 45670" width="44.431" height="40.895" fill="none"/>
    </clipPath>
  </defs>
  <g id="Grupo_154869" data-name="Grupo 154869" clip-path="url(#clip-path)">
    <g id="Grupo_154847" data-name="Grupo 154847">
      <g id="Grupo_154846" data-name="Grupo 154846" clip-path="url(#clip-path)">
        <path id="Trazado_218431" data-name="Trazado 218431" d="M86.877,99.627h0a32.83,32.83,0,1,1,32.83-32.83,32.83,32.83,0,0,1-32.83,32.83" transform="translate(-2.255 -1.417)" fill="#ebebeb"/>
        <rect id="Rectángulo_45658" data-name="Rectángulo 45658" width="6.794" height="21.95" transform="translate(69.735 58.061)" fill="#fff"/>
        <path id="Trazado_218432" data-name="Trazado 218432" d="M76.108,57.236a4.051,4.051,0,1,0-4.018-4.052,4.035,4.035,0,0,0,4.018,4.052" transform="translate(-3.007 -2.05)" fill="#fff"/>
        <path id="Trazado_218433" data-name="Trazado 218433" d="M90.912,70.987c0-3.086,1.42-4.925,4.14-4.925,2.5,0,3.7,1.765,3.7,4.925V82.509h6.763v-13.9c0-5.88-3.333-8.722-7.986-8.722a7.653,7.653,0,0,0-6.615,3.626V60.559H84.394v21.95h6.518Z" transform="translate(-3.521 -2.498)" fill="#fff"/>
        <path id="Trazado_218434" data-name="Trazado 218434" d="M133.667,0l4.5,8.22,8.22,4.5-8.22,4.5-4.5,8.22-4.5-8.22-8.22-4.5,8.22-4.5Z" transform="translate(-5.046 0)" fill="#f5f5f5"/>
        <path id="Trazado_218435" data-name="Trazado 218435" d="M329.455,232.386l3.372,6.165,6.165,3.372-6.165,3.371-3.372,6.166-3.371-6.166-6.166-3.371,6.166-3.372Z" transform="translate(-13.345 -9.694)" fill="#ebebeb"/>
        <path id="Trazado_218436" data-name="Trazado 218436" d="M339.634,200.622l1.521,2.781,2.782,1.522-2.782,1.521-1.521,2.782-1.521-2.782-2.782-1.521,2.782-1.522Z" transform="translate(-13.988 -8.369)" fill="#e0e0e0"/>
        <path id="Trazado_218437" data-name="Trazado 218437" d="M100.526,3.226l1.522,2.782,2.781,1.521L102.048,9.05l-1.522,2.782L99.005,9.05,96.223,7.529l2.782-1.521Z" transform="translate(-4.014 -0.135)" fill="#aac6ca"/>
        <path id="Trazado_218438" data-name="Trazado 218438" d="M20.251,272.038a9.937,9.937,0,0,0,5.8-9.27c-.049-5.49-4.261-9.906-9.409-9.863s-9.28,4.528-9.232,10.018a9.925,9.925,0,0,0,6.059,9.2C-.843,274.472.01,290.052.01,290.052l33.918-.283S34.5,274,20.251,272.038" transform="translate(0 -10.55)" fill="#e0e0e0"/>
        <path id="Trazado_218439" data-name="Trazado 218439" d="M359.724,379.865a5.279,5.279,0,0,0-10.412.31,5.279,5.279,0,0,0-10.415-.218,7.125,7.125,0,0,0,1.279,5.141,21.1,21.1,0,0,0,3.723,3.935c1.9,1.688,3.646,3.273,5.542,4.96,1.88-1.7,3.48-3.3,5.361-5.008a21.176,21.176,0,0,0,3.688-3.967,7.128,7.128,0,0,0,1.233-5.153" transform="translate(-14.133 -15.668)" fill="#ebebeb"/>
        <path id="Trazado_218440" data-name="Trazado 218440" d="M383.687,168.364l3.635-.721,5.739-12.626-1.438-7.255s5.548-1.459,6.772,8.171,1.458,7.07,1.458,7.07,11.937-2.32,13.134-1.48c.87.609,3.546,12.393,4.945,18.795a7.092,7.092,0,0,1-3.54,7.985,5.241,5.241,0,0,1-1.25.427c-2.974.59-18.655,1.186-18.655,1.186l-6.279,1.245Z" transform="translate(-16.006 -6.161)" fill="#e0e0e0"/>
        <path id="Trazado_218441" data-name="Trazado 218441" d="M372.418,169.288l7.165,24.415,6.225-1.235-4.832-24.358Z" transform="translate(-15.536 -7.013)" fill="#e0e0e0"/>
      </g>
    </g>
    <g id="Grupo_154849" data-name="Grupo 154849">
      <g id="Grupo_154848" data-name="Grupo 154848" clip-path="url(#clip-path)">
        <path id="Trazado_218442" data-name="Trazado 218442" d="M343,156.044h0a38.936,38.936,0,1,1-34.059-70.028h0A38.935,38.935,0,0,1,343,156.044" transform="translate(-11.973 -3.424)" fill="#c8eef3"/>
        <path id="Trazado_218443" data-name="Trazado 218443" d="M317.15,130.418a.915.915,0,0,0,.906-1.178c-.095-.472-.348-1.658-.447-2.155-.129-.677-.294-.857-.991-1.162a7.669,7.669,0,0,1-3.854-3.92c-2.936-6.036-1.047-13.635,6.2-17.159,6.414-3.12,11.845-.914,14.391,4.321,3.35,6.887,3.13,14.182-1.4,16.382a4.11,4.11,0,0,1-6.007-2.766c-.751-3.376-.951-7.318-2.014-9.5-.951-1.955-2.793-3.075-4.965-2.019-2.555,1.243-3.321,4.883-1.6,8.423a10.2,10.2,0,0,0,2.6,3.41s2.773,12.348,3.257,14.51a29.746,29.746,0,0,0,4.344,9.111.353.353,0,0,0,.633-.138c.086-.424,1.3-5.66.511-9.915-.223-1.2-1.511-7.382-1.511-7.382,1.6,1.18,4.7,1.392,7.281.138,7.68-3.734,9.484-13.267,4.926-22.638-3.446-7.086-12.654-10.766-21.776-6.329-11.348,5.52-13.114,16.439-9.815,23.224,2,4.109,5.332,7.007,9.331,6.745" transform="translate(-12.779 -4.11)" fill="#fff"/>
        <path id="Trazado_218444" data-name="Trazado 218444" d="M385.261,271.608h0a26.854,26.854,0,1,1,34.669-15.5h0a26.852,26.852,0,0,1-34.669,15.5" transform="translate(-15.351 -9.163)" fill="#c8eef3"/>
        <path id="Trazado_218445" data-name="Trazado 218445" d="M409.206,251.615A14.465,14.465,0,0,0,382.3,241.052c-.081.194-.162.387-.237.583a14.252,14.252,0,0,0-.711,7.665l-5.183,6.26,8.391.481a14.481,14.481,0,0,0,24.522-4.082c.043-.114.087-.228.125-.344m-17.94,6.452a12.111,12.111,0,0,1-5.536-4.253l-4.895-.277,3.016-3.645a11.944,11.944,0,0,1,.363-7.435,11.194,11.194,0,0,1,.474-1.072,12.165,12.165,0,0,1,22.541,8.859c-.086.3-.184.6-.3.893a12.125,12.125,0,0,1-15.665,6.93" transform="translate(-15.692 -9.696)" fill="#fff" fill-rule="evenodd"/>
        <path id="Trazado_218446" data-name="Trazado 218446" d="M401.325,252.149c-.272-.292-1.594-1.711-1.856-1.934s-.462-.365-.809-.121-1.269.74-1.541.883-.479.1-.752-.194a9.6,9.6,0,0,1-2.039-2.649,10.526,10.526,0,0,1-.973-2.974c-.064-.4.174-.514.4-.615.21-.094.476-.26.72-.384l.18-.112a3.893,3.893,0,0,0,.359-.313.634.634,0,0,0,.195-.585c-.019-.2-.065-2.069-.092-2.833s-.342-.754-.539-.829-.4-.189-.62-.273a1.316,1.316,0,0,0-1.043.072,3.943,3.943,0,0,0-2.206,2.3,4.47,4.47,0,0,0-.258,1.184,7.974,7.974,0,0,0,.313,2.728c.082.278.9,4.518,3.756,7.126s3.038,2.16,3.666,2.335a3.537,3.537,0,0,0,2.83-.709,2.9,2.9,0,0,0,.792-1.487c-.031-.164-.221-.331-.487-.621" transform="translate(-16.287 -9.976)" fill="#fff" fill-rule="evenodd"/>
        <path id="Trazado_218447" data-name="Trazado 218447" d="M20.74,142.571h0a20.477,20.477,0,1,1,20.477-20.477A20.477,20.477,0,0,1,20.74,142.571" transform="translate(-0.011 -4.239)" fill="#c8eef3"/>
        <path id="Trazado_218448" data-name="Trazado 218448" d="M10.246,129.455a12.732,12.732,0,0,0,19.586-11.306,9.059,9.059,0,0,0,2.234-2.317,8.939,8.939,0,0,1-2.571.7,4.484,4.484,0,0,0,1.968-2.476,8.993,8.993,0,0,1-2.842,1.087,4.48,4.48,0,0,0-7.629,4.083,12.707,12.707,0,0,1-9.226-4.677,4.482,4.482,0,0,0,1.385,5.977,4.452,4.452,0,0,1-2.028-.561,4.482,4.482,0,0,0,3.59,4.447,4.476,4.476,0,0,1-2.02.076,4.479,4.479,0,0,0,4.181,3.11,9,9,0,0,1-6.627,1.853" transform="translate(-0.427 -4.744)" fill="#fff"/>
        <path id="Trazado_218449" data-name="Trazado 218449" d="M58.141,380.7h0a35.268,35.268,0,1,1,26.135-42.482A35.269,35.269,0,0,1,58.141,380.7" transform="translate(-0.613 -12.978)" fill="#455a64"/>
        <path id="Trazado_218450" data-name="Trazado 218450" d="M46.919,331.595c5.023-1.2,5.623-1.32,7.628-1.7a10.694,10.694,0,0,1,3.647-.185,6.406,6.406,0,0,1,4.421,2.72,10.688,10.688,0,0,1,1.48,3.34c.563,1.962.724,2.552,1.921,7.575s1.319,5.622,1.7,7.627a10.713,10.713,0,0,1,.184,3.647,6.406,6.406,0,0,1-2.72,4.421,10.71,10.71,0,0,1-3.339,1.481c-1.962.562-2.552.723-7.575,1.919s-5.622,1.32-7.627,1.7a10.714,10.714,0,0,1-3.647.184,6.4,6.4,0,0,1-4.421-2.72,10.686,10.686,0,0,1-1.481-3.339c-.563-1.962-.724-2.552-1.92-7.575s-1.319-5.622-1.7-7.627a10.726,10.726,0,0,1-.185-3.648A6.4,6.4,0,0,1,36.006,335a10.664,10.664,0,0,1,3.339-1.481c1.962-.562,2.552-.724,7.574-1.92m-.807-3.389c-5.109,1.217-5.744,1.391-7.73,1.961a14.209,14.209,0,0,0-4.357,1.963,9.879,9.879,0,0,0-4.191,6.812,14.173,14.173,0,0,0,.214,4.774c.386,2.029.517,2.674,1.734,7.783s1.391,5.744,1.962,7.729a14.172,14.172,0,0,0,1.962,4.358,9.893,9.893,0,0,0,6.812,4.191,14.173,14.173,0,0,0,4.774-.214c2.029-.386,2.675-.517,7.783-1.734s5.744-1.39,7.729-1.961a14.22,14.22,0,0,0,4.358-1.962,9.893,9.893,0,0,0,4.191-6.812,14.194,14.194,0,0,0-.213-4.774c-.387-2.029-.518-2.675-1.735-7.783s-1.391-5.744-1.961-7.729a14.212,14.212,0,0,0-1.962-4.357,9.885,9.885,0,0,0-6.812-4.191,14.2,14.2,0,0,0-4.775.213c-2.028.387-2.674.517-7.782,1.734" transform="translate(-1.24 -13.605)" fill="#fff"/>
        <path id="Trazado_218451" data-name="Trazado 218451" d="M48.77,337.833a9.93,9.93,0,1,0,11.96,7.359,9.931,9.931,0,0,0-11.96-7.359m3.795,15.931A6.446,6.446,0,1,1,57.341,346a6.446,6.446,0,0,1-4.776,7.764" transform="translate(-1.716 -14.081)" fill="#fff"/>
        <path id="Trazado_218452" data-name="Trazado 218452" d="M61.642,334.311a2.321,2.321,0,1,1-2.8-1.72,2.32,2.32,0,0,1,2.8,1.72" transform="translate(-2.38 -13.872)" fill="#fff"/>
        <path id="Trazado_218453" data-name="Trazado 218453" d="M338.091,349.9h0a16.447,16.447,0,1,1,16.447-16.447A16.447,16.447,0,0,1,338.091,349.9" transform="translate(-13.417 -13.224)" fill="#455a64"/>
        <path id="Trazado_218454" data-name="Trazado 218454" d="M336.1,343.68h4V333.655H342.9l.3-3.357H340.1v-1.913c0-.791.159-1.1.925-1.1H343.2V323.8h-2.772c-2.979,0-4.323,1.313-4.323,3.824V330.3h-2.082v3.4H336.1Z" transform="translate(-13.934 -13.507)" fill="#fff"/>
      </g>
    </g>
    <g id="Grupo_154851" data-name="Grupo 154851">
      <g id="Grupo_154850" data-name="Grupo 154850" clip-path="url(#clip-path)">
        <path id="Trazado_218455" data-name="Trazado 218455" d="M273.266,429.23l-132.135-.079a28.78,28.78,0,0,1-28.766-28.788L112.429,69.1a28.785,28.785,0,0,1,28.8-28.778l132.135.078A28.784,28.784,0,0,1,302.13,69.187l-.065,331.266a28.782,28.782,0,0,1-28.8,28.777" transform="translate(-4.687 -1.682)" fill="#263238"/>
        <path id="Trazado_218456" data-name="Trazado 218456" d="M273.606,52.626l-25.619-.015a6.364,6.364,0,0,0-6.221,6.5l0,4.647a6.364,6.364,0,0,1-6.222,6.5l-49.936-.03a6.369,6.369,0,0,1-6.219-6.507V59.074a6.37,6.37,0,0,0-6.22-6.507l-9.01-.006-22.423-.013A20.159,20.159,0,0,0,121.565,72.7L121.5,396.041A20.157,20.157,0,0,0,141.648,416.2l131.87.078a20.158,20.158,0,0,0,20.17-20.154l.063-323.341a20.158,20.158,0,0,0-20.146-20.161" transform="translate(-5.068 -2.192)" fill="#fff"/>
        <path id="Trazado_218457" data-name="Trazado 218457" d="M281.592,80.035c0,.087-3.331.185-7.44.218s-7.443-.009-7.443-.1,3.33-.184,7.44-.218,7.442.01,7.443.1" transform="translate(-11.126 -3.334)" fill="#263238"/>
        <path id="Trazado_218458" data-name="Trazado 218458" d="M281.625,84.009c0,.086-3.331.185-7.44.218s-7.443-.009-7.443-.1,3.33-.184,7.44-.218,7.442.01,7.443.1" transform="translate(-11.127 -3.5)" fill="#263238"/>
        <path id="Trazado_218459" data-name="Trazado 218459" d="M281.658,87.983c0,.087-3.331.185-7.44.218s-7.443-.009-7.443-.1,3.33-.184,7.44-.218,7.442.01,7.443.1" transform="translate(-11.129 -3.666)" fill="#263238"/>
        <path id="Trazado_218460" data-name="Trazado 218460" d="M136.01,91.181a3.037,3.037,0,0,1,.39-.026l1.085-.036,4-.095-.111.112c-.014-.887-.03-1.857-.047-2.9.006-.54-.046-1.048.007-1.672a1.54,1.54,0,0,1,1.344-1.234c.646-.012,1.214-.042,1.914-.01a1.555,1.555,0,0,1,1.314,1.547c.015,1.354.031,2.768.048,4.236l-.186-.183,5.052-.051-.193.2c-.017-2.035-.036-4.14-.056-6.295q-.007-.808-.013-1.6a1.636,1.636,0,0,0-.71-1.194l-2.209-2.177-2.131-2.1-1.032-1.02c-.356-.342-.633-.7-1.045-.78a1.356,1.356,0,0,0-1.159.221c-.307.259-.632.625-.941.925l-1.812,1.828c-1.14,1.184-2.329,2.266-3.192,3.29a3.589,3.589,0,0,0-.254,1.885q0,.94,0,1.78-.01,1.637-.017,2.867c-.009.733-.015,1.339-.021,1.834a6.381,6.381,0,0,1-.024.661,4.576,4.576,0,0,1-.035-.608c-.014-.489-.031-1.084-.051-1.805q-.029-1.239-.065-2.891-.016-.857-.034-1.815c0-.323-.011-.654-.015-.993a2.091,2.091,0,0,1,.278-1.058c.935-1.145,2.051-2.159,3.2-3.378l1.8-1.843c.324-.318.589-.634.975-.966a1.719,1.719,0,0,1,1.465-.288,2.728,2.728,0,0,1,1.213.867q.512.5,1.037,1.016l2.137,2.1,2.214,2.172a4.155,4.155,0,0,1,.563.611,1.644,1.644,0,0,1,.265.852q.007.8.014,1.611c.016,2.156.033,4.261.048,6.295v.195h-.194l-5.052.033h-.185V91.1c-.008-1.467-.015-2.882-.022-4.236a1.219,1.219,0,0,0-1.022-1.227c-.581-.031-1.266-.011-1.832-.006a1.239,1.239,0,0,0-1.089.982c-.049.508-.011,1.1-.022,1.615q0,1.57,0,2.9v.113h-.111l-4.072-.028-1.061-.018a1.97,1.97,0,0,1-.349-.02" transform="translate(-5.665 -3.149)" fill="#263238"/>
        <path id="Trazado_218461" data-name="Trazado 218461" d="M225.445,355.509a7.392,7.392,0,0,1-1.385.1l-3.776.08c-3.188.045-7.592.073-12.456.073s-9.27-.028-12.459-.073l-3.776-.08a7.386,7.386,0,0,1-1.384-.1,7.391,7.391,0,0,1,1.384-.1l3.776-.08c3.188-.045,7.592-.073,12.459-.073s9.268.028,12.456.073l3.776.08a7.4,7.4,0,0,1,1.385.1" transform="translate(-7.935 -14.82)" fill="#455a64"/>
        <path id="Trazado_218462" data-name="Trazado 218462" d="M280.826,364.555c0,.138-20.287.249-45.306.249s-45.31-.111-45.31-.249,20.282-.249,45.31-.249,45.306.111,45.306.249" transform="translate(-7.935 -15.197)" fill="#455a64"/>
        <path id="Trazado_218463" data-name="Trazado 218463" d="M252.509,373.064c0,.138-13.947.249-31.147.249s-31.151-.111-31.151-.249,13.944-.249,31.151-.249,31.147.111,31.147.249" transform="translate(-7.935 -15.552)" fill="#455a64"/>
        <path id="Trazado_218464" data-name="Trazado 218464" d="M286.4,389.281l-2.815-2.823L280.9,389.13l.012-8.082,5.5.009Zm-2.815-3.175.088.087,2.478,2.488.011-7.376-5-.008-.011,7.234Z" transform="translate(-11.718 -15.896)" fill="#263238"/>
        <path id="Trazado_218465" data-name="Trazado 218465" d="M208.189,388.3l-.994-.443a2.722,2.722,0,1,1,1.451-2.391,2.748,2.748,0,0,1-.687,1.84Zm-2.323-5.382a2.571,2.571,0,0,0,.041,5.141,2.669,2.669,0,0,0,1.238-.39l.041-.024.732.328-.166-.721.034-.036a2.567,2.567,0,0,0-1.92-4.3" transform="translate(-8.474 -15.966)" fill="#263238"/>
        <path id="Trazado_218466" data-name="Trazado 218466" d="M214.93,387.89l-1.138-2.78-2.136-1.945,5.18-.042Zm-2.791-4.54,1.819,1.669.97,2.367,1.627-4.072Z" transform="translate(-8.829 -15.982)" fill="#263238"/>
        <path id="Trazado_218467" data-name="Trazado 218467" d="M214.11,385.119l-.1-.158,2.825-1.837.1.159Z" transform="translate(-8.927 -15.982)" fill="#263238"/>
        <path id="Trazado_218468" data-name="Trazado 218468" d="M199.627,383.717a1.6,1.6,0,0,0-3.159.105,1.6,1.6,0,0,0-3.159-.055,2.162,2.162,0,0,0,.393,1.559,6.438,6.438,0,0,0,1.135,1.189c.577.51,1.11.989,1.687,1.5.569-.518,1.053-1.006,1.621-1.526a6.366,6.366,0,0,0,1.115-1.207,2.159,2.159,0,0,0,.369-1.565" transform="translate(-8.063 -15.953)" fill="#e8505b"/>
        <path id="Trazado_218469" data-name="Trazado 218469" d="M285.98,394.855s-.011-.31-.016-.9-.011-1.475-.018-2.622c-.009-2.312-.022-5.712-.04-10.118-.021-8.808-.052-21.621-.09-37.693l.165.164-153.245.085h-.01l.249-.249c0,17.839-.006,35.146-.009,51.334l-.241-.242,109.659.112,32.012.068,8.59.031,2.227.015c.5,0,.766.015.766.015s-.243.011-.736.015l-2.2.015-8.539.031-31.957.068-109.825.112h-.242v-.241c0-16.188,0-33.495-.008-51.334v-.25h.26l153.245.085h.165v.165c-.038,16.114-.069,28.961-.09,37.792-.018,4.389-.032,7.777-.04,10.08q-.011,1.7-.018,2.593c0,.582-.016.869-.016.869" transform="translate(-5.526 -14.32)" fill="#263238"/>
        <rect id="Rectángulo_45661" data-name="Rectángulo 45661" width="33.939" height="42.452" transform="translate(133.379 371.717) rotate(-89.675)" fill="#ebebeb"/>
        <path id="Trazado_218470" data-name="Trazado 218470" d="M181.818,352.714a1.47,1.47,0,0,1-.213.012l-.6.01-2.317.013-8.7.01-30.616-.062.224-.221c-.05,10.1-.106,21.682-.167,33.935.052.06-.465-.472-.241-.247h.357l.367,0,.735,0,1.463.009,2.906.017,5.719.035,11.015.071,19.882.144-.209.207c.1-10.191.188-18.645.247-24.581.04-2.952.071-5.276.093-6.891.014-.78.026-1.387.034-1.825.011-.416.027-.641.027-.641s.014.2.019.6c0,.429.008,1.023.013,1.786,0,1.6.009,3.913.015,6.845-.009,5.967-.02,14.466-.034,24.712v.207h-.209l-19.882-.081-11.014-.055-5.72-.031-2.906-.015-1.463-.009-.735,0-.367,0h-.357c.219.223-.311-.3-.256-.255.08-12.253.154-23.831.219-33.935v-.224l.223,0,30.76.287,8.653.108,2.273.04.577.015a.909.909,0,0,1,.187.014" transform="translate(-5.795 -14.694)" fill="#263238"/>
        <rect id="Rectángulo_45662" data-name="Rectángulo 45662" width="29.666" height="39.47" transform="translate(134.854 369.589) rotate(-89.674)" fill="#e0e0e0"/>
        <path id="Trazado_218471" data-name="Trazado 218471" d="M140.725,384.878l13.89-18.362,8.473,11.586,5.827-6.135L180.193,385.1Z" transform="translate(-5.87 -15.289)" fill="#f5f5f5"/>
        <path id="Trazado_218472" data-name="Trazado 218472" d="M167.655,364.1a3.108,3.108,0,1,1-3.09-3.125,3.108,3.108,0,0,1,3.09,3.125" transform="translate(-6.735 -15.058)" fill="#f5f5f5"/>
        <path id="Trazado_218473" data-name="Trazado 218473" d="M212.145,122.975a1.6,1.6,0,0,1-.453.05l-1.3.047-4.782.08c-4.036.045-9.614.073-15.773.073s-11.739-.028-15.776-.073l-4.781-.08-1.3-.047a1.6,1.6,0,0,1-.453-.05,1.553,1.553,0,0,1,.453-.05l1.3-.047,4.781-.08c4.037-.045,9.614-.073,15.776-.073s11.737.028,15.773.073l4.782.08,1.3.047a1.552,1.552,0,0,1,.453.05" transform="translate(-6.988 -5.12)" fill="#263238"/>
        <path id="Trazado_218474" data-name="Trazado 218474" d="M279.176,318.233l-4.184-4.2-3.984,3.973L271.027,306l8.167.012Zm-4.183-4.719.131.13,3.683,3.7.017-10.962-7.429-.012-.016,10.751Z" transform="translate(-11.305 -12.765)" fill="#263238"/>
        <path id="Trazado_218475" data-name="Trazado 218475" d="M168.24,316.971l-1.956-.872a5.357,5.357,0,1,1,2.856-4.705,5.414,5.414,0,0,1-1.352,3.622Zm-4.572-10.593a5.059,5.059,0,1,0,.081,10.118,5.224,5.224,0,0,0,2.436-.768l.081-.046,1.441.644-.327-1.417.066-.071a5.054,5.054,0,0,0-3.779-8.461" transform="translate(-6.603 -12.765)" fill="#263238"/>
        <path id="Trazado_218476" data-name="Trazado 218476" d="M181.513,316.164l-2.241-5.47-4.2-3.83,10.194-.082Zm-5.493-8.936,3.58,3.286,1.909,4.659,3.2-8.015Z" transform="translate(-7.303 -12.798)" fill="#263238"/>
        <rect id="Rectángulo_45663" data-name="Rectángulo 45663" width="6.632" height="0.373" transform="matrix(0.838, -0.545, 0.545, 0.838, 172.197, 297.599)" fill="#263238"/>
        <path id="Trazado_218477" data-name="Trazado 218477" d="M151.389,307.949a3.153,3.153,0,0,0-6.218.208,3.153,3.153,0,0,0-6.22-.108,4.256,4.256,0,0,0,.774,3.068,12.629,12.629,0,0,0,2.233,2.342c1.136,1,2.185,1.946,3.32,2.951,1.119-1.022,2.072-1.981,3.191-3a12.644,12.644,0,0,0,2.194-2.378,4.258,4.258,0,0,0,.725-3.08" transform="translate(-5.794 -12.74)" fill="#e8505b"/>
        <path id="Trazado_218478" data-name="Trazado 218478" d="M157.577,122.685a6.915,6.915,0,1,1-6.915-6.915,6.915,6.915,0,0,1,6.915,6.915" transform="translate(-5.996 -4.829)" fill="#ebebeb"/>
        <path id="Trazado_218479" data-name="Trazado 218479" d="M271.169,277.357c0,.138-29,.249-64.76.249s-64.766-.111-64.766-.249,28.991-.249,64.766-.249,64.76.111,64.76.249" transform="translate(-5.909 -11.56)" fill="#455a64"/>
        <path id="Trazado_218480" data-name="Trazado 218480" d="M271.169,266.1c0,.138-29,.249-64.76.249s-64.766-.111-64.766-.249,28.991-.249,64.766-.249,64.76.111,64.76.249" transform="translate(-5.909 -11.09)" fill="#455a64"/>
        <path id="Trazado_218481" data-name="Trazado 218481" d="M212.145,288.763c0,.138-15.784.249-35.25.249s-35.252-.111-35.252-.249,15.78-.249,35.252-.249,35.25.111,35.25.249" transform="translate(-5.909 -12.035)" fill="#455a64"/>
        <path id="Trazado_218482" data-name="Trazado 218482" d="M205.9,411.282a2.752,2.752,0,1,1-2.74-2.8,2.771,2.771,0,0,1,2.74,2.8" transform="translate(-8.359 -17.04)" fill="#263238"/>
        <path id="Trazado_218483" data-name="Trazado 218483" d="M214.793,411.322a2.752,2.752,0,1,1-2.74-2.8,2.772,2.772,0,0,1,2.74,2.8" transform="translate(-8.731 -17.041)" fill="#263238"/>
        <path id="Trazado_218484" data-name="Trazado 218484" d="M223.691,411.363a2.752,2.752,0,1,1-2.74-2.8,2.77,2.77,0,0,1,2.74,2.8" transform="translate(-9.102 -17.043)" fill="#263238"/>
        <rect id="Rectángulo_45664" data-name="Rectángulo 45664" width="153.256" height="93.724" transform="translate(128.116 131.541)" fill="#e0e0e0"/>
        <path id="Trazado_218485" data-name="Trazado 218485" d="M148.457,232.53l43.916-58.779L219.6,210.51l18.453-19.66,36.191,41.644Z" transform="translate(-6.193 -7.248)" fill="#f5f5f5"/>
        <path id="Trazado_218486" data-name="Trazado 218486" d="M233.875,165.8a9.9,9.9,0,1,1-9.907-9.9,9.9,9.9,0,0,1,9.907,9.9" transform="translate(-8.93 -6.503)" fill="#f5f5f5"/>
        <path id="Trazado_218487" data-name="Trazado 218487" d="M286.508,316.727c0-2-.093-86.672-.226-212.011l.226.226-153.237.023h-.018l.25-.249c-.017,79.288-.034,152.665-.047,212.011l-.2-.2,153.256.2-153.256.2h-.2v-.2c-.013-59.346-.03-132.723-.047-212.011v-.249h.267l153.237.023h.226v.226c-.046,62.731-.084,115.757-.112,153.107-.026,18.648-.046,33.382-.06,43.461-.012,5.025-.021,8.888-.027,11.5-.007,1.3-.011,2.283-.013,2.951s-.013.99-.013.99" transform="translate(-5.548 -4.358)" fill="#263238"/>
      </g>
    </g>
    <g id="Grupo_154868" data-name="Grupo 154868">
      <g id="Grupo_154867" data-name="Grupo 154867" clip-path="url(#clip-path)">
        <path id="Trazado_218488" data-name="Trazado 218488" d="M215.34,351.146l3.39-11.392c.591-2.47,1.377-5.384,2.434-8.709.951-2.989,3.388-6.129,5.612-8.391,3.46-3.52,5.107-3.544,7.432-5.411.212-.136.448-.331.649-.438a3.67,3.67,0,0,0,1.131-.979c2-2.168.08-5.524-3.992-5.2-3.065.241-8.063,1.117-16.191,9.5-.1.127-.208.234-.308.364-4.265,5.545-8.271-10.284-8.994-16.176a6.173,6.173,0,0,0-8.345-4.79l-19.8,9.261a9.237,9.237,0,0,0-5.78.2,5.885,5.885,0,0,0-3.772,6.984l8.03,32.057L153.252,426.5h50.835Z" transform="translate(-6.393 -12.478)" fill="#ffbe9d"/>
        <path id="Trazado_218489" data-name="Trazado 218489" d="M254.912,277.716,239.2,308.508l-7.857-2.183-39.5,32.127a8,8,0,0,1-11.113-.988L165.694,319.99s30.321-13.061,35.929-23.874-.872-13.265-.872-13.265l14.271-16.216Z" transform="translate(-6.912 -11.123)" fill="#f9c852"/>
        <path id="Trazado_218490" data-name="Trazado 218490" d="M229.578,207.827s-23-5.088-55.373-36.215-47.579-72.463-51.54-72.261S101.4,91.52,68.5,163.1s-19.943,88.2-13.395,88.063,51.006-12.524,78.775-9.367,63.463,17.63,63.463,17.63Z" transform="translate(-1.961 -4.137)" fill="#f9c852"/>
        <path id="Trazado_218491" data-name="Trazado 218491" d="M284.774,250.983,276.927,265.9l-3.516,6.684a19.473,19.473,0,0,1-25.383,8.623l-49.3-17.178,28.713-65.551,49.258,26.25a19.475,19.475,0,0,1,8.078,26.251" transform="translate(-8.29 -8.28)" fill="#e8505b"/>
        <g id="Grupo_154854" data-name="Grupo 154854" transform="translate(190.435 190.201)" opacity="0.4">
          <g id="Grupo_154853" data-name="Grupo 154853">
            <g id="Grupo_154852" data-name="Grupo 154852" clip-path="url(#clip-path-6)">
              <path id="Trazado_218492" data-name="Trazado 218492" d="M284.774,250.983,276.927,265.9l-3.516,6.684a19.473,19.473,0,0,1-25.383,8.623l-49.3-17.178,28.713-65.551,49.258,26.25a19.475,19.475,0,0,1,8.078,26.251" transform="translate(-198.725 -198.481)" fill="#f9c852"/>
            </g>
          </g>
        </g>
        <path id="Trazado_218493" data-name="Trazado 218493" d="M71.345,164.469c-17.512,38.773-24.8,73.324-16.281,77.172S84.685,217.175,102.2,178.4s24.8-73.323,16.282-77.171S88.857,125.7,71.345,164.469" transform="translate(-2.148 -4.208)" fill="#e8505b"/>
        <g id="Grupo_154857" data-name="Grupo 154857" transform="translate(49.354 96.674)" opacity="0.5">
          <g id="Grupo_154856" data-name="Grupo 154856">
            <g id="Grupo_154855" data-name="Grupo 154855" clip-path="url(#clip-path-7)">
              <path id="Trazado_218494" data-name="Trazado 218494" d="M71.345,164.469c-17.512,38.773-24.8,73.324-16.281,77.172S84.685,217.175,102.2,178.4s24.8-73.323,16.282-77.171S88.857,125.7,71.345,164.469" transform="translate(-51.503 -100.882)" fill="#f9c852"/>
            </g>
          </g>
        </g>
        <path id="Trazado_218495" data-name="Trazado 218495" d="M292.354,274.9l-13.363-4.2,8.27-15.724,10.022,6.231Z" transform="translate(-11.638 -10.636)" fill="#f9c852"/>
        <g id="Grupo_154860" data-name="Grupo 154860" transform="translate(267.352 244.342)" opacity="0.6">
          <g id="Grupo_154859" data-name="Grupo 154859">
            <g id="Grupo_154858" data-name="Grupo 154858" clip-path="url(#clip-path-8)">
              <path id="Trazado_218496" data-name="Trazado 218496" d="M287.26,254.978,278.99,270.7l2.746.863,6.723-15.841Z" transform="translate(-278.99 -254.978)"/>
            </g>
          </g>
        </g>
        <path id="Trazado_218497" data-name="Trazado 218497" d="M276.746,258.189c-.2.432-6.865-2.16-14.895-5.79s-14.386-6.923-14.19-7.355,6.862,2.161,14.9,5.791,14.383,6.923,14.188,7.354" transform="translate(-10.331 -10.22)" fill="#e8505b"/>
        <path id="Trazado_218498" data-name="Trazado 218498" d="M281.159,248.427c-.211.426-6.245-2.118-13.48-5.68s-12.932-6.8-12.722-7.224,6.242,2.119,13.48,5.683,12.931,6.8,12.722,7.221" transform="translate(-10.635 -9.823)" fill="#e8505b"/>
        <path id="Trazado_218499" data-name="Trazado 218499" d="M271.448,268.5c-.071.228-1.658-.138-4.191-.921-1.265-.39-2.764-.885-4.422-1.459-1.647-.6-3.358-1.461-5.191-2.292-7.311-3.393-12.893-6.717-12.71-7.11.216-.466,6.183,2.19,13.426,5.55,1.817.822,3.5,1.73,5.091,2.393,1.595.645,3.025,1.247,4.22,1.777,2.39,1.062,3.846,1.836,3.777,2.062" transform="translate(-10.217 -10.707)" fill="#e8505b"/>
        <path id="Trazado_218500" data-name="Trazado 218500" d="M107.98,158.116s-19.993-12.4-30.932,14.614,10.1,31.453,10.1,31.453a179.965,179.965,0,0,0,20.834-46.067" transform="translate(-3.083 -6.477)" fill="#f9c852"/>
        <g id="Grupo_154863" data-name="Grupo 154863" transform="translate(68.879 119.447)" opacity="0.5">
          <g id="Grupo_154862" data-name="Grupo 154862">
            <g id="Grupo_154861" data-name="Grupo 154861" clip-path="url(#clip-path-9)">
              <path id="Trazado_218501" data-name="Trazado 218501" d="M129.159,124.647a30.234,30.234,0,0,1-.783,5.16c-.632,3.3-1.527,8.092-2.809,13.975-.845,2.9-1.769,6.061-2.76,9.453q-.752,2.55-1.553,5.265-.4,1.358-.816,2.752c-.3.923-.688,1.827-1.036,2.76-1.439,3.717-2.95,7.615-4.515,11.655q-.591,1.515-1.191,3.056c-.388,1.032-.938,2-1.4,3.02q-1.466,3.021-2.972,6.127t-2.98,6.125c-.51,1-.935,2.029-1.5,2.973l-1.667,2.827L96.8,210.551c-.519.85-.989,1.715-1.53,2.521q-.842,1.19-1.663,2.348L90.421,219.9l-5.731,8.022c-3.824,4.631-7.029,8.285-9.231,10.822a30.515,30.515,0,0,1-3.575,3.81,30.4,30.4,0,0,1,3.06-4.235l8.808-11.167c1.69-2.478,3.537-5.184,5.517-8.084q1.492-2.176,3.084-4.491.8-1.154,1.615-2.345c.526-.8.984-1.673,1.49-2.522,1.99-3.424,4.077-7.015,6.242-10.736q.815-1.4,1.642-2.814c.562-.94.98-1.966,1.484-2.958q1.456-3,2.951-6.085t2.959-6.08c.467-1.008,1.017-1.971,1.406-2.995l1.2-3.028,4.579-11.54c.356-.923.753-1.818,1.062-2.73q.428-1.38.846-2.723.837-2.682,1.625-5.206c1.057-3.352,2.042-6.48,2.946-9.343,1.39-5.763,2.521-10.454,3.327-13.8a30.867,30.867,0,0,1,1.438-5.03" transform="translate(-71.877 -124.647)"/>
            </g>
          </g>
        </g>
        <g id="Grupo_154866" data-name="Grupo 154866" transform="translate(163.572 279.337)" opacity="0.4">
          <g id="Grupo_154865" data-name="Grupo 154865">
            <g id="Grupo_154864" data-name="Grupo 154864" clip-path="url(#clip-path-10)">
              <path id="Trazado_218502" data-name="Trazado 218502" d="M170.693,318.883c1.824,3.311,3.685,6.673,6.384,9.319s6.405,4.52,10.165,4.142,7.324-3.5,7.364-7.282c1.805,1.357,4.572.622,6.067-1.07a10.613,10.613,0,0,0,2.16-6.293c2.451,1.446,5.861.3,7.5-2.03a9.7,9.7,0,0,0,.945-8.2,28.714,28.714,0,0,0-3.936-7.538c1.887.152,3.887.285,5.575-.572s2.829-3.09,1.844-4.706a4.687,4.687,0,0,0-2.748-1.754c-2.958-.926-5.034-1.667-8.113-1.309-.716.007,1.232,8.121-18.1,19.221-11.41,6.553-15.108,8.072-15.108,8.072" transform="translate(-170.693 -291.497)"/>
            </g>
          </g>
        </g>
        <path id="Trazado_218503" data-name="Trazado 218503" d="M215.258,332.29c-.012.089-1.3-.157-3.385-.1A19.135,19.135,0,0,0,197.668,339c-1.35,1.591-1.964,2.748-2.041,2.7a2.993,2.993,0,0,1,.379-.839,15.542,15.542,0,0,1,1.39-2.087,18.113,18.113,0,0,1,14.475-6.94,15.4,15.4,0,0,1,2.5.224,2.973,2.973,0,0,1,.891.23" transform="translate(-8.16 -13.843)" fill="#eb996e"/>
        <path id="Trazado_218504" data-name="Trazado 218504" d="M172.008,313.963c3.113,2.991,5.243,6.292,8.509,9.3,1.484,1.369,3.789,3.962,5.778,4.307s3.264.08,4.051-1.778c.637-1.506-.507-3.563-1.3-4.8-2.079-3.264-4.07-5.816-5.628-8.352-.729-1.188.216-1.435.56-.884,1.5,1.553,3.734,2.9,5.076,4.59,1.839,2.316,2.172,5.384,6.981,4.413a4.3,4.3,0,0,0,1.785-.742c1.81-1.385,1.887-3.795,1.125-5.725a15.7,15.7,0,0,0-2.677-4.051c2.046,2.311,4.282,4.746,7.536,5.008a4.483,4.483,0,0,0,4.558-2.466c.963-2.187-.418-4.3-1.8-6.01a62.668,62.668,0,0,0-8.173-8.35,6.227,6.227,0,0,0-3.972-1.473c-1.684-.011-3.791.306-4.832,1.77a6.535,6.535,0,0,0-1.307,5.009s-4.221-2.14-7.614.1a10.755,10.755,0,0,0-4.233,6.087Z" transform="translate(-7.175 -12.387)" fill="#ffbe9d"/>
        <path id="Trazado_218505" data-name="Trazado 218505" d="M195.4,295.586a5.055,5.055,0,0,1-.6-5.71c.719-1.408,1.624-2.775,2.542-3.085,4.017-1.355,21.564,1.681,21.4,5.575-.165,4-1.441,5.759-10.965,4.383-1.675-.241-4.3-.572-4.3-.572l-2.3,3.451Z" transform="translate(-8.101 -11.95)" fill="#ffbe9d"/>
        <path id="Trazado_218506" data-name="Trazado 218506" d="M198.311,312.618a31.565,31.565,0,0,0-4.2-5.082,31.509,31.509,0,0,0-5.469-3.685,5.618,5.618,0,0,1,1.858.655,16.665,16.665,0,0,1,6.979,6.327,5.633,5.633,0,0,1,.833,1.785" transform="translate(-7.869 -12.675)" fill="#eb996e"/>
        <path id="Trazado_218507" data-name="Trazado 218507" d="M201.561,300.364c-.087.081-1.246-.863-2.826-1.83a19.769,19.769,0,0,0-2.059-1.136c-.541-.255-.9-.325-.9-.4s.412-.115,1.022.069a9.433,9.433,0,0,1,2.2,1.042,6.782,6.782,0,0,1,2.563,2.255" transform="translate(-8.167 -12.387)" fill="#eb996e"/>
        <path id="Trazado_218508" data-name="Trazado 218508" d="M204.618,296.634a7.575,7.575,0,0,1-3.38-.381,6.179,6.179,0,0,1-2.163-1.133c-.481-.41-.682-.752-.634-.793a14.119,14.119,0,0,0,2.945,1.45,25.019,25.019,0,0,1,3.232.858" transform="translate(-8.278 -12.278)" fill="#eb996e"/>
        <path id="Trazado_218509" data-name="Trazado 218509" d="M186.484,317.651a12.25,12.25,0,0,1-1.6-2.079,18.883,18.883,0,0,0-4.1-4.655,8.257,8.257,0,0,0-5.8-1.537,10.569,10.569,0,0,0-2.445.777c-.016-.022.168-.2.56-.443a5.47,5.47,0,0,1,1.827-.682,8.151,8.151,0,0,1,6.149,1.48,16.651,16.651,0,0,1,4.1,4.865,15.52,15.52,0,0,1,1.306,2.275" transform="translate(-7.198 -12.886)" fill="#eb996e"/>
        <path id="Trazado_218510" data-name="Trazado 218510" d="M200.472,358.53a52.716,52.716,0,0,1-7.172,1.031,52.792,52.792,0,0,1-7.226.535,52.679,52.679,0,0,1,7.173-1.031,52.751,52.751,0,0,1,7.225-.535" transform="translate(-7.762 -14.955)" fill="#eb996e"/>
      </g>
    </g>
    <path id="Trazado_218511" data-name="Trazado 218511" d="M358.5,25.957l1.082,1.978,1.978,1.082L359.58,30.1,358.5,32.077,357.416,30.1l-1.978-1.082,1.978-1.082Z" transform="translate(-14.827 -1.083)" fill="#f9c852"/>
    <path id="Trazado_218512" data-name="Trazado 218512" d="M382.1,77.127l1.082,1.978,1.978,1.082-1.978,1.082L382.1,83.247l-1.082-1.978-1.978-1.082,1.978-1.082Z" transform="translate(-15.812 -3.217)" fill="#f9c852"/>
    <path id="Trazado_218513" data-name="Trazado 218513" d="M2.689,215.625.71,216.707l1.979,1.081,1.082,1.979,1.081-1.979,1.979-1.081-1.979-1.082L3.77,213.646Z" transform="translate(-0.03 -8.912)" fill="#f9c852"/>
    <path id="Trazado_218514" data-name="Trazado 218514" d="M327.354,38.675l2.5,4.567,4.567,2.5-4.567,2.5-2.5,4.568-2.5-4.568-4.567-2.5,4.567-2.5Z" transform="translate(-13.361 -1.613)" fill="#f9c852"/>
    <path id="Trazado_218515" data-name="Trazado 218515" d="M24.754,181.211l2.493,4.558,4.558,2.493-4.558,2.492-2.493,4.558-2.493-4.558L17.7,188.261l4.558-2.493Z" transform="translate(-0.739 -7.559)" fill="#f9c852"/>
    <path id="Trazado_218516" data-name="Trazado 218516" d="M388.351,294.679l2.492,4.558,4.558,2.493-4.558,2.492-2.492,4.558-2.493-4.558-4.558-2.492,4.558-2.493Z" transform="translate(-15.906 -12.293)" fill="#f9c852"/>
  </g>
</svg>
