<svg xmlns="http://www.w3.org/2000/svg" width="66.356" height="63.23" viewBox="0 0 66.356 63.23">
  <g id="Grupo_156453" data-name="Grupo 156453" transform="translate(-810.331 -21241.363)">
    <ellipse id="Elipse_5259" data-name="Elipse 5259" cx="30" cy="30.5" rx="30" ry="30.5" transform="translate(810.331 21243.594)" fill="#dbdada"/>
    <g id="Grupo_149564" data-name="Grupo 149564" transform="translate(405.807 21241.363)">
      <path id="Trazado_201688" data-name="Trazado 201688" d="M407.6,56.069c1.034-26.507,37.886-24.384,38.105-.274C444.609,82.264,407.868,80.166,407.6,56.069Zm28.527.068c-.472-13.028-18.879-12.2-19.018-.273C417.578,68.9,436.034,68.064,436.128,56.138Zm-4.378-.068c.158-5.809-9.374-7.373-10.262-.414C421.139,61.989,431.205,63.283,431.749,56.069Z" transform="translate(0 -11.67)"/>
      <path id="Trazado_201689" data-name="Trazado 201689" d="M440.047,12.656C452.361,12.656,467,23.533,467,39.473a4.365,4.365,0,0,1-4.378,4.378h-.068a3.215,3.215,0,0,1-3.147-2.873A23.57,23.57,0,0,0,438.473,20.25a3.283,3.283,0,0,1-2.873-3.215v-.068a4.455,4.455,0,0,1,4.447-4.31ZM440.32,0a4.378,4.378,0,0,0-4.378,4.378v.068a3.118,3.118,0,0,0,2.942,3.01,36.121,36.121,0,0,1,33.385,33.179,3.079,3.079,0,0,0,3.01,2.873h.068a4.409,4.409,0,0,0,4.378-4.378C479.657,15.94,458.791,0,440.32,0" transform="translate(-8.845)"/>
    </g>
  </g>
</svg>
