<svg xmlns="http://www.w3.org/2000/svg" width="281.012" height="256.647" viewBox="0 0 281.012 256.647">
  <g id="Grupo_152066" data-name="Grupo 152066" transform="translate(-89.447 -134.583)">
    <g id="Grupo_151951" data-name="Grupo 151951" transform="translate(176.611 134.583)">
      <path id="Trazado_204786" data-name="Trazado 204786" d="M735.039,999.674c0,5.219-9.509,9.45-21.239,9.45s-21.238-4.231-21.238-9.45,9.509-9.449,21.238-9.449S735.039,994.455,735.039,999.674Z" transform="translate(-692.562 -866.566)" fill="#98a7d3"/>
      <g id="Grupo_151950" data-name="Grupo 151950" transform="translate(1.253)">
        <g id="Grupo_151927" data-name="Grupo 151927" transform="translate(24.462 127.19)">
          <g id="Grupo_151926" data-name="Grupo 151926">
            <path id="Trazado_204787" data-name="Trazado 204787" d="M873.173,1018.456a11.573,11.573,0,0,0,3.974,2.317,3.392,3.392,0,0,0,3.311-.857.634.634,0,0,0-.1-.97c-4.4-3.342-5.712-4.289-5.712-4.289h-4.035a9.189,9.189,0,0,0-.087,2.277,3.49,3.49,0,0,0,2.214,1.341c.083.015.238-.108.317-.075Z" transform="translate(-870.496 -1014.656)" fill="#191818"/>
          </g>
          <path id="Trazado_204788" data-name="Trazado 204788" d="M880.394,1027.723a1.128,1.128,0,0,1-.085.276,2.21,2.21,0,0,1-2.043,1.022,5.91,5.91,0,0,1-2.513-.853,11.165,11.165,0,0,1-2.081-1.411,6.26,6.26,0,0,0-1.574-.787,8,8,0,0,1-1.587-1.07c0,.436.028.8.028.8a3.49,3.49,0,0,0,2.214,1.341c.083.015.238-.108.317-.075l.117.256a11.573,11.573,0,0,0,3.974,2.317,3.392,3.392,0,0,0,3.311-.858A.633.633,0,0,0,880.394,1027.723Z" transform="translate(-870.509 -1023.419)" fill="#060401"/>
        </g>
        <g id="Grupo_151928" data-name="Grupo 151928" transform="translate(18.419 61.3)">
          <path id="Trazado_204789" data-name="Trazado 204789" d="M834.4,591.9c4.488,4.955,6.267-.287,6.267-.287l.557-30.456c.058.453.207-3.073-5.458-2.309-5.65.76-7.081,2.963-7.081,2.963s3.108,21.038,5.716,30.089" transform="translate(-828.682 -558.741)" fill="#e28262"/>
          <path id="Trazado_204790" data-name="Trazado 204790" d="M861.591,768.9s-2.278,32.075-2.463,33.2c0,0-2.768.612-2.781-.025-.031-1.536-3.192-20.306-3.233-22.72-.1-6.112,1.472-7.268,3.044-11.386C856.159,767.974,861.6,763.95,861.591,768.9Z" transform="translate(-849.579 -736.416)" fill="#e28262"/>
        </g>
        <g id="Grupo_151930" data-name="Grupo 151930" transform="translate(18.419 61.3)">
          <g id="Grupo_151929" data-name="Grupo 151929">
            <path id="Trazado_204791" data-name="Trazado 204791" d="M833.362,592.1c-2.607-9.051-4.68-30.29-4.68-30.29s1.43-2.2,7.081-2.963c5.665-.764,5.516,2.761,5.458,2.309a198.388,198.388,0,0,1-.528,30.07S836.841,594.3,833.362,592.1Z" transform="translate(-828.682 -558.741)" fill="#111621"/>
            <path id="Trazado_204792" data-name="Trazado 204792" d="M868.232,786.492c4.488,4.955,6.267-.287,6.267-.287" transform="translate(-862.516 -753.331)" fill="#111621"/>
            <path id="Trazado_204793" data-name="Trazado 204793" d="M860.674,797.744c.662-.93.9-33.125.9-33.125.011-4.954-6.089-2.67-6.089-2.67a29.713,29.713,0,0,0-2.387,13.126c.04,2.414,1.654,21.574,1.685,23.111C854.781,798.185,858.779,800.4,860.674,797.744Z" transform="translate(-849.561 -732.131)" fill="#111621"/>
          </g>
        </g>
        <path id="Trazado_204794" data-name="Trazado 204794" d="M822.268,524.474a10.755,10.755,0,0,0,0,10.386c3.035,5.49,12.3,3.489,12.327-3.621C834.622,524.214,828.23,521.528,822.268,524.474Z" transform="translate(-803.622 -467.117)" fill="#111621"/>
        <path id="Trazado_204795" data-name="Trazado 204795" d="M775.332,450.986c-.8,2.85-4.105,13.726-4.105,13.726,11.828,14.152,20.74,1.769,20.857.478.141-1.545-1.584-7.444-1.9-13.807C790.188,451.382,786.963,446.417,775.332,450.986Z" transform="translate(-761.112 -403.605)" fill="#f39672"/>
        <path id="Trazado_204796" data-name="Trazado 204796" d="M791.894,517.094c.561-3.811-.6-7.656-1.2-11.508H773.367c-1.109,3.694-2.261,7.488-2.261,7.488s-.741,8.737,6.679,9.784C777.784,522.858,790.716,525.1,791.894,517.094Z" transform="translate(-760.99 -451.968)" fill="#111621"/>
        <g id="Grupo_151931" data-name="Grupo 151931" transform="translate(8.369 62.15)">
          <path id="Trazado_204797" data-name="Trazado 204797" d="M772.206,597.6c3.7,5.566,6.24.646,6.24.646l6.009-29.67c-.009.456-.18-3.865-5.9-3.95s-7.442,1.882-7.442,1.882-.149,21.755,1.089,31.092" transform="translate(-769.381 -564.621)" fill="#f39672"/>
          <path id="Trazado_204798" data-name="Trazado 204798" d="M768.291,778.462s-5.951,33.8-6.3,34.885c0,0-2.829.2-2.746-.437.2-1.523-.314-22.837,0-25.23.8-6.06,1.644-7.1,3.808-10.942C763.057,776.738,769.036,773.563,768.291,778.462Z" transform="translate(-759.141 -745.217)" fill="#f39672"/>
        </g>
        <g id="Grupo_151932" data-name="Grupo 151932" transform="translate(7.644 128.935)">
          <path id="Trazado_204799" data-name="Trazado 204799" d="M757.968,1027.419l1.674,5.1s-.345,4.57-4.01,1.738l-1.091-1.058a1.168,1.168,0,0,1-.395-1.121l.326-1.956.389-2.707S757.157,1025.861,757.968,1027.419Z" transform="translate(-754.124 -1026.727)" fill="#191818"/>
          <path id="Trazado_204800" data-name="Trazado 204800" d="M755.632,1064.63l-1.091-1.057a1.135,1.135,0,0,1-.375-.585l-.019.115a1.168,1.168,0,0,0,.395,1.122l1.091,1.058c3.665,2.832,4.01-1.738,4.01-1.738l-.065-.2C759.371,1064.424,758.564,1066.9,755.632,1064.63Z" transform="translate(-754.124 -1057.747)" fill="#060401"/>
        </g>
        <g id="Grupo_151934" data-name="Grupo 151934" transform="translate(7.088 58.988)">
          <g id="Grupo_151933" data-name="Grupo 151933">
            <path id="Trazado_204801" data-name="Trazado 204801" d="M773.215,793.6" transform="translate(-769.9 -757.346)" fill="#161c29"/>
            <path id="Trazado_204802" data-name="Trazado 204802" d="M769.45,579c-1.238-9.337-.287-34.136-.287-34.136s1.481-2.2,7.182-2.115c5.716.084,6.887,6.592,6.9,6.135,0,0-4.809,25.4-6.9,31.526C776.344,580.407,772.814,583.423,769.45,579Z" transform="translate(-766.135 -542.744)" fill="#161c29"/>
            <path id="Trazado_204803" data-name="Trazado 204803" d="M755.82,806.738c.35-1.086,5.025-34.8,5.025-34.8.058-4.58-5.968-3.456-5.968-3.456-2.165,3.839-2.667,5.633-3.471,11.693-.318,2.393-.931,24.531-1.128,26.055A6.151,6.151,0,0,0,755.82,806.738Z" transform="translate(-750.279 -735.752)" fill="#161c29"/>
          </g>
        </g>
        <g id="Grupo_151936" data-name="Grupo 151936" transform="translate(27.171 21.367)">
          <path id="Trazado_204804" data-name="Trazado 204804" d="M889.775,297.783s2.083,14.8,4.13,20.558c0,0,3.372.722,4.464-1.189,0,0-.375-12.648-.814-20.268C897.556,296.884,893.4,292.2,889.775,297.783Z" transform="translate(-889.698 -293.222)" fill="#e28262"/>
          <path id="Trazado_204805" data-name="Trazado 204805" d="M921.92,435.193s.725,12.209,1.434,16.993c0,0-.59,1.335-1.388.344-1.335-1.658-5.331-16.685-4.566-17.625C920.968,430.519,921.92,435.193,921.92,435.193Z" transform="translate(-913.248 -411.263)" fill="#e28262"/>
          <path id="Trazado_204806" data-name="Trazado 204806" d="M895.548,289.433a3.944,3.944,0,0,1-5.508-.727,3.89,3.89,0,0,1,.759-5.472,3.944,3.944,0,0,1,5.508.728A3.889,3.889,0,0,1,895.548,289.433Z" transform="translate(-889.241 -282.431)" fill="#e28262"/>
          <g id="Grupo_151935" data-name="Grupo 151935" transform="translate(8.208 39.478)">
            <path id="Trazado_204807" data-name="Trazado 204807" d="M950.027,580.429l.587,1.7-.58,2.507s.5.3.834-.546l.546-2.08-.5-1.942Z" transform="translate(-949.45 -576.529)" fill="#e28262"/>
            <path id="Trazado_204808" data-name="Trazado 204808" d="M954.014,583.615l.681,1.662-.439,2.535s.517.275.8-.591l.429-2.107-.6-1.911Z" transform="translate(-952.861 -579.213)" fill="#e28262"/>
            <path id="Trazado_204809" data-name="Trazado 204809" d="M949.21,560.015l-.7-1.969-.821-2.454-1.617.078-.041,2.757.13,1.419.2,1.934.032.631s.523.067.723-.985l.064-1.871.948,1.282-.112,2.588s.391,1.266.688.7l.648-3.724Z" transform="translate(-946.033 -555.592)" fill="#e28262"/>
          </g>
        </g>
        <path id="Trazado_204810" data-name="Trazado 204810" d="M892.257,282.334a5.167,5.167,0,0,1,3.753,4.954l.576,14.864a13.947,13.947,0,0,1-8.167,1.961S883.1,284.263,892.257,282.334Z" transform="translate(-860.053 -260.981)" fill="#00a5b7"/>
        <path id="Trazado_204811" data-name="Trazado 204811" d="M882.836,159.031a4.272,4.272,0,0,0,1.3-2.276c-.013-.19-.2-.34-.2-.578s.108-.341.2-.54a2.342,2.342,0,0,0,.225-1.143c0-.346.065-1.027-.171-1.3-.351-.41-1.051-.074-1.42.146-.766.456-1.2,1.2-1.991,1.635a3.188,3.188,0,0,0-1.27,1.471c-.477.817-.875,2.334.144,2.951A2.941,2.941,0,0,0,882.836,159.031Z" transform="translate(-853.321 -150.337)" fill="#341e13"/>
        <path id="Trazado_204812" data-name="Trazado 204812" d="M777.607,812.359" transform="translate(-766.57 -714.405)" fill="#f39672"/>
        <path id="Trazado_204813" data-name="Trazado 204813" d="M815.652,167.818s-.7-1.34-2.234-3.912c0,0-3.271-3.36-1.438-7.581,0,0,1.006-3.531,7.18-3.018C819.161,153.307,819.752,163.025,815.652,167.818Z" transform="translate(-795.498 -150.558)" fill="#f3906b"/>
        <path id="Trazado_204814" data-name="Trazado 204814" d="M832.036,215.943s1.039,9.686-1.177,10.418l7.9-.47s-1.241-2.927.2-5.085Z" transform="translate(-812.125 -204.185)" fill="#f39672"/>
        <path id="Trazado_204815" data-name="Trazado 204815" d="M845.288,224.2c-.131-2.213.147-2.662.637-3.393L839,215.943a47.146,47.146,0,0,1,.218,5.966A7.5,7.5,0,0,0,845.288,224.2Z" transform="translate(-819.09 -204.185)" fill="#db765e"/>
        <path id="Trazado_204816" data-name="Trazado 204816" d="M785.083,277.631c1.759,1.285,1.961,4.358,1.333,6.278-.721,2.2-1.007,5.017-1.729,8.206-.978,4.321-1.641,7.649-2.732,11.939-.9,3.549-15.162.689-15.162.689l-5.111-17.465s-.88-4.559,3.25-6.076a61.718,61.718,0,0,1,7.536-3.427,13.734,13.734,0,0,1,6.719-.865A33.369,33.369,0,0,1,785.083,277.631Z" transform="translate(-752.88 -256.278)" fill="#f39672"/>
        <path id="Trazado_204817" data-name="Trazado 204817" d="M832.435,168.316l.328-1.1.832-4.05a4.1,4.1,0,0,0-.065-1.682,4.129,4.129,0,0,1-.144-1.728,5.02,5.02,0,0,0-1.082-4.415c-1.809-2.571-5.781-2.369-5.781-2.369a5.538,5.538,0,0,0-5.073,5.263c-.639,3.2,2.008,5.707,2.014,5.712.211.2.161,1.246.236,1.539a4.2,4.2,0,0,0,2.665,2.444,11.824,11.824,0,0,0,3.978,1.135C830.845,169.089,832.246,168.944,832.435,168.316Z" transform="translate(-803.992 -150.315)" fill="#f3906b"/>
        <path id="Trazado_204818" data-name="Trazado 204818" d="M809.816,142.52c1.468-1.8,4.294-.173,6.116-1.281.85-.516.837-1.444,1.946-1.445,2.369,0,2.09-2.55.774-3.292a4.375,4.375,0,0,0-.8.034c-.656.076-1.082.361-1.743.124a18.353,18.353,0,0,1-1.938-1.047,6.891,6.891,0,0,0-2.671-1.027c-1.193-.054-1.573.817-2.456,1.389a8.777,8.777,0,0,1-1.965.571,16.69,16.69,0,0,0-2.71,1.466c-.617.363-1.458.848-1.371,1.684.082.793.888.974.642,1.834a7.112,7.112,0,0,0,.411,4.447,13.262,13.262,0,0,0,1.151,2.531,9.972,9.972,0,0,0,1.9,2.1,8.232,8.232,0,0,1,1.342,1.239c.046-1.952-.346-1.792.165-2.763.2-.378-.021-.7-.161-1.07s-.467-.684-.417-1.091c.253.082.493.115.631,0,.241-.2.044-.879.085-1.144a8.407,8.407,0,0,1,.7-2.684A3.5,3.5,0,0,1,809.816,142.52Z" transform="translate(-788.286 -134.583)" fill="#341e13"/>
        <g id="Grupo_151945" data-name="Grupo 151945" transform="translate(17.902 11.592)">
          <g id="Grupo_151941" data-name="Grupo 151941">
            <g id="Grupo_151940" data-name="Grupo 151940">
              <g id="Grupo_151939" data-name="Grupo 151939">
                <g id="Grupo_151938" data-name="Grupo 151938">
                  <g id="Grupo_151937" data-name="Grupo 151937">
                    <path id="Trazado_204819" data-name="Trazado 204819" d="M827.437,217.706a1.09,1.09,0,0,1-.673.3,1.6,1.6,0,0,1-1.64-1.453,1.463,1.463,0,0,1,1.185-1.749,1.377,1.377,0,0,1,1.019.324,1.987,1.987,0,0,1,.492,1.575A1.5,1.5,0,0,1,827.437,217.706Z" transform="translate(-825.106 -214.793)" fill="#f3906b"/>
                  </g>
                </g>
              </g>
            </g>
          </g>
          <g id="Grupo_151944" data-name="Grupo 151944" transform="translate(0.683 0.522)">
            <g id="Grupo_151942" data-name="Grupo 151942">
              <path id="Trazado_204820" data-name="Trazado 204820" d="M830.768,218.676c-.1-.46-.99.1-.816.343a1.446,1.446,0,0,0,.421.322.69.69,0,0,1,.351.473c.006.027.021.108,0,.13-.112.1-.566-.308-.665-.393a.785.785,0,0,1-.2-.731.471.471,0,0,1,.476-.412c.212-.013.429-.025.448.24,0,.006,0,.051-.009.027Z" transform="translate(-829.834 -218.404)" fill="#e47a5d"/>
            </g>
            <g id="Grupo_151943" data-name="Grupo 151943" transform="translate(0.242 0.734)">
              <path id="Trazado_204821" data-name="Trazado 204821" d="M831.955,223.54c.086-.111.189-.041.3.02a.446.446,0,0,1,.2.254,1.1,1.1,0,0,1-.023.791.592.592,0,0,1-.474.33c-.284.025-.4-.214-.438-.453-.011-.064-.035-.216.024-.263s.124.049.174.089a.4.4,0,0,0,.251.062.518.518,0,0,0,.4-.239.274.274,0,0,0,.034-.078c.018.157.014.193-.013.108a.412.412,0,0,0-.066-.1c-.079-.1-.2-.162-.285-.257-.041-.044-.127-.2-.083-.261Z" transform="translate(-831.505 -223.481)" fill="#e47a5d"/>
            </g>
          </g>
        </g>
        <path id="Trazado_204822" data-name="Trazado 204822" d="M880.388,210.2l-1.335.516s1.8.111,1.871-.412c0,0-.273-1.021-.568-1.988C880.356,208.32,880.586,210.128,880.388,210.2Z" transform="translate(-853.354 -197.663)" fill="#e47a5d"/>
        <g id="Grupo_151946" data-name="Grupo 151946" transform="translate(22.784 8.637)">
          <path id="Trazado_204823" data-name="Trazado 204823" d="M868.059,205.3c0,.282-.156.51-.347.51s-.347-.228-.347-.51.155-.511.347-.511S868.059,205.014,868.059,205.3Z" transform="translate(-866.14 -203.276)" fill="#341e13"/>
          <path id="Trazado_204824" data-name="Trazado 204824" d="M894.708,202.335c0,.282-.156.51-.347.51s-.347-.228-.347-.51.155-.511.347-.511S894.708,202.053,894.708,202.335Z" transform="translate(-888.937 -200.743)" fill="#341e13"/>
          <path id="Trazado_204825" data-name="Trazado 204825" d="M861.167,197.887c.125.026.155-.141.156-.141a.587.587,0,0,0-.008-.3.29.29,0,0,0-.149-.151,4.2,4.2,0,0,0-1.475.193c-.293.087-.768.305-.8.575-.009.081-.017.22.075.244A12.03,12.03,0,0,1,861.167,197.887Z" transform="translate(-858.887 -196.858)" fill="#341e13"/>
          <path id="Trazado_204826" data-name="Trazado 204826" d="M893.226,194.936a10.5,10.5,0,0,0-1.721.18c-.114.058-.188-.094-.188-.094a.593.593,0,0,1-.073-.291.288.288,0,0,1,.1-.185,3.141,3.141,0,0,1,1.277-.2,2.489,2.489,0,0,1,.641.087A1.229,1.229,0,0,1,893.226,194.936Z" transform="translate(-886.566 -194.346)" fill="#341e13"/>
        </g>
        <g id="Grupo_151947" data-name="Grupo 151947" transform="translate(25.028 14.172)">
          <path id="Trazado_204827" data-name="Trazado 204827" d="M877.165,232.641c.11,0,.168.05.127.128a1.647,1.647,0,0,1-2.85.344c-.067-.074-.009-.148.128-.165C874.57,232.948,876.022,232.763,877.165,232.641Z" transform="translate(-874.414 -232.641)" fill="#fff"/>
        </g>
        <path id="Trazado_204828" data-name="Trazado 204828" d="M771.524,526.484a10.755,10.755,0,0,0,0,10.386c3.035,5.49,12.3,3.489,12.327-3.622C783.878,526.224,777.486,523.538,771.524,526.484Z" transform="translate(-760.212 -468.836)" fill="#161c29"/>
        <path id="Trazado_204829" data-name="Trazado 204829" d="M779.189,277.348a33.372,33.372,0,0,1,5.895.721c1.759,1.285,1.961,4.358,1.333,6.278-.721,2.2-1.007,5.017-1.729,8.206-.978,4.321-.892,7.683-1.982,11.974-.9,3.548-17.609.393-17.609.393l-3.414-17.2s-.88-4.559,3.25-6.076a56.962,56.962,0,0,1,7.339-3.359s-.5,3.359,4.979,2.431C777.252,280.713,780.6,279.905,779.189,277.348Z" transform="translate(-752.88 -256.715)" fill="#3bb0b9"/>
        <path id="Trazado_204830" data-name="Trazado 204830" d="M771.264,453.079c-.8,2.85-2.45,11.863-2.45,11.863,2.169,9,22.126,2.523,22.244,1.232.141-1.545-1.595-8.318-1.908-14.681C789.15,451.493,782.9,448.51,771.264,453.079Z" transform="translate(-759.047 -404.874)" fill="#3bb0b9"/>
        <path id="Trazado_204831" data-name="Trazado 204831" d="M717.36,320.056c-1.951,2.212-8.909,12.368-10.962,14-.546.434-5.216,2.407-5.163-1.2,5.761-12.812,9.98-18.645,9.98-18.645s4.592-2.1,6.8,1.595C718.011,315.8,718.728,318.526,717.36,320.056Z" transform="translate(-701.235 -287.737)" fill="#f39672"/>
        <path id="Trazado_204832" data-name="Trazado 204832" d="M768.357,312.616a4.668,4.668,0,1,1-5.379-3.827A4.668,4.668,0,0,1,768.357,312.616Z" transform="translate(-750.725 -283.556)" fill="#f39672"/>
        <path id="Trazado_204833" data-name="Trazado 204833" d="M734.349,301.539s-3.877,1.508-5.647,4.4l-4.622,7.15s1.893,5.4,6.6,6.522l7.395-8.986S742.258,305.359,734.349,301.539Z" transform="translate(-720.778 -277.41)" fill="#3bb0b9"/>
        <path id="Trazado_204834" data-name="Trazado 204834" d="M709.489,442a159.327,159.327,0,0,1,8.061,15.491s.018,1.824-1.35,1.327-11.894-13.614-11.973-15.009C704.024,440.222,709.489,442,709.489,442Z" transform="translate(-703.79 -397.194)" fill="#f39672"/>
        <g id="Grupo_151949" data-name="Grupo 151949" transform="translate(12.46 60.337)">
          <g id="Grupo_151948" data-name="Grupo 151948">
            <path id="Trazado_204835" data-name="Trazado 204835" d="M789.853,556.714c-1.858-1.687-1.957-2.106-2.2-2.741-1.05-2.727,2.23-1.827,3.013-1.43.449.228.194,1.368,1.325,3.122,0,0,1.985,1.932,2.581,1.98,0,0,.574.234.467.664C795.039,558.309,793.166,558.864,789.853,556.714Z" transform="translate(-787.448 -552.077)" fill="#f39672"/>
          </g>
          <path id="Trazado_204836" data-name="Trazado 204836" d="M807.5,555.592s-1.256.34-.149,1.441l1.788.6a.59.59,0,0,0,.744-.14s.11-.291-.367-.546Z" transform="translate(-804.087 -555.084)" fill="#f39672"/>
        </g>
      </g>
    </g>
    <path id="Trazado_204837" data-name="Trazado 204837" d="M650.833,1065.837c-40.954,0-74.157-18.927-74.157-42.282s33.2-42.279,74.157-42.279,74.156,18.932,74.156,42.279S691.79,1065.837,650.833,1065.837Z" transform="translate(-416.814 -724.328)" fill="#98a7d3"/>
    <g id="Grupo_151961" data-name="Grupo 151961" transform="translate(100.201 142.681)">
      <g id="Grupo_151960" data-name="Grupo 151960">
        <g id="Grupo_151959" data-name="Grupo 151959">
          <g id="Grupo_151952" data-name="Grupo 151952" transform="translate(0 172.693)">
            <line id="Línea_391" data-name="Línea 391" x2="11.639" fill="none" stroke="#5893d0" stroke-miterlimit="10" stroke-width="2"/>
            <line id="Línea_392" data-name="Línea 392" x2="5.82" transform="translate(13.374)" fill="none" stroke="#5893d0" stroke-miterlimit="10" stroke-width="2"/>
          </g>
          <g id="Grupo_151953" data-name="Grupo 151953" transform="translate(247.899 126.958)">
            <line id="Línea_393" data-name="Línea 393" x2="13.558" fill="none" stroke="#5893d0" stroke-miterlimit="10" stroke-width="2"/>
            <line id="Línea_394" data-name="Línea 394" x2="6.779" transform="translate(15.58)" fill="none" stroke="#5893d0" stroke-miterlimit="10" stroke-width="2"/>
          </g>
          <g id="Grupo_151954" data-name="Grupo 151954" transform="translate(232.769 70.417)">
            <line id="Línea_395" data-name="Línea 395" x1="11.64" transform="translate(7.554)" fill="none" stroke="#5893d0" stroke-miterlimit="10" stroke-width="2"/>
            <line id="Línea_396" data-name="Línea 396" x1="5.82" fill="none" stroke="#5893d0" stroke-miterlimit="10" stroke-width="2"/>
          </g>
          <g id="Grupo_151955" data-name="Grupo 151955" transform="translate(129.257 8.329)">
            <line id="Línea_397" data-name="Línea 397" x2="1.623" y2="1.622" fill="none" stroke="#5893d0" stroke-miterlimit="10" stroke-width="2"/>
            <line id="Línea_398" data-name="Línea 398" x2="1.623" y2="1.623" transform="translate(2.767 2.767)" fill="none" stroke="#5893d0" stroke-miterlimit="10" stroke-width="2"/>
            <line id="Línea_399" data-name="Línea 399" x1="1.623" y2="1.622" transform="translate(2.767)" fill="none" stroke="#5893d0" stroke-miterlimit="10" stroke-width="2"/>
            <line id="Línea_400" data-name="Línea 400" x1="1.623" y2="1.623" transform="translate(0 2.767)" fill="none" stroke="#5893d0" stroke-miterlimit="10" stroke-width="2"/>
          </g>
          <g id="Grupo_151956" data-name="Grupo 151956" transform="translate(1.969 75.83)">
            <line id="Línea_401" data-name="Línea 401" x2="1.623" y2="1.622" fill="none" stroke="#5893d0" stroke-miterlimit="10" stroke-width="2"/>
            <line id="Línea_402" data-name="Línea 402" x2="1.622" y2="1.623" transform="translate(2.767 2.767)" fill="none" stroke="#5893d0" stroke-miterlimit="10" stroke-width="2"/>
            <line id="Línea_403" data-name="Línea 403" x1="1.622" y2="1.622" transform="translate(2.767)" fill="none" stroke="#5893d0" stroke-miterlimit="10" stroke-width="2"/>
            <line id="Línea_404" data-name="Línea 404" x1="1.623" y2="1.623" transform="translate(0 2.767)" fill="none" stroke="#5893d0" stroke-miterlimit="10" stroke-width="2"/>
          </g>
          <g id="Grupo_151957" data-name="Grupo 151957" transform="translate(168.964 73.253)">
            <line id="Línea_405" data-name="Línea 405" x2="1.622" y2="1.622" fill="none" stroke="#5893d0" stroke-miterlimit="10" stroke-width="2"/>
            <line id="Línea_406" data-name="Línea 406" x2="1.622" y2="1.622" transform="translate(2.767 2.767)" fill="none" stroke="#5893d0" stroke-miterlimit="10" stroke-width="2"/>
            <line id="Línea_407" data-name="Línea 407" x1="1.622" y2="1.622" transform="translate(2.767)" fill="none" stroke="#5893d0" stroke-miterlimit="10" stroke-width="2"/>
            <line id="Línea_408" data-name="Línea 408" x1="1.622" y2="1.622" transform="translate(0 2.767)" fill="none" stroke="#5893d0" stroke-miterlimit="10" stroke-width="2"/>
          </g>
          <g id="Grupo_151958" data-name="Grupo 151958" transform="translate(261.284 163.608)">
            <line id="Línea_409" data-name="Línea 409" x2="1.623" y2="1.622" fill="none" stroke="#5893d0" stroke-miterlimit="10" stroke-width="2"/>
            <line id="Línea_410" data-name="Línea 410" x2="1.622" y2="1.622" transform="translate(2.767 2.767)" fill="none" stroke="#5893d0" stroke-miterlimit="10" stroke-width="2"/>
            <line id="Línea_411" data-name="Línea 411" x1="1.622" y2="1.622" transform="translate(2.767)" fill="none" stroke="#5893d0" stroke-miterlimit="10" stroke-width="2"/>
            <line id="Línea_412" data-name="Línea 412" x1="1.623" y2="1.622" transform="translate(0 2.767)" fill="none" stroke="#5893d0" stroke-miterlimit="10" stroke-width="2"/>
          </g>
          <path id="Trazado_204838" data-name="Trazado 204838" d="M1787.411,192.631a2.014,2.014,0,1,1-2.014-2.014A2.014,2.014,0,0,1,1787.411,192.631Z" transform="translate(-1549.326 -190.617)" fill="none" stroke="#5893d0" stroke-miterlimit="10" stroke-width="2"/>
          <path id="Trazado_204839" data-name="Trazado 204839" d="M530.792,208.963a2.014,2.014,0,1,1-2.014-2.014A2.014,2.014,0,0,1,530.792,208.963Z" transform="translate(-474.316 -204.589)" fill="none" stroke="#5893d0" stroke-miterlimit="10" stroke-width="2"/>
          <path id="Trazado_204840" data-name="Trazado 204840" d="M624.494,834.97a2.014,2.014,0,1,1-2.014-2.013A2.013,2.013,0,0,1,624.494,834.97Z" transform="translate(-554.477 -740.125)" fill="none" stroke="#5893d0" stroke-miterlimit="10" stroke-width="2"/>
        </g>
      </g>
    </g>
    <g id="Grupo_151984" data-name="Grupo 151984" transform="translate(258.622 140.955)">
      <path id="Trazado_204841" data-name="Trazado 204841" d="M1446.213,1051.255c0,5.22,9.509,9.45,21.239,9.45s21.238-4.23,21.238-9.45-9.509-9.45-21.238-9.45S1446.213,1046.036,1446.213,1051.255Z" transform="translate(-1419.305 -917.063)" fill="#98a7d3"/>
      <g id="Grupo_151983" data-name="Grupo 151983">
        <g id="Grupo_151963" data-name="Grupo 151963" transform="translate(33.53 128.273)">
          <g id="Grupo_151962" data-name="Grupo 151962" transform="translate(0)">
            <path id="Trazado_204842" data-name="Trazado 204842" d="M1499.5,1070.038a11.552,11.552,0,0,1-3.974,2.317,3.391,3.391,0,0,1-3.311-.857.634.634,0,0,1,.1-.97c4.4-3.342,5.712-4.29,5.712-4.29h4.036a9.191,9.191,0,0,1,.087,2.277,3.493,3.493,0,0,1-2.214,1.342c-.083.014-.238-.108-.316-.076Z" transform="translate(-1492.037 -1066.238)" fill="#191818"/>
          </g>
          <path id="Trazado_204843" data-name="Trazado 204843" d="M1492.289,1079.308a1.1,1.1,0,0,0,.084.276,2.21,2.21,0,0,0,2.043,1.023,5.913,5.913,0,0,0,2.513-.853,11.2,11.2,0,0,0,2.081-1.412,6.265,6.265,0,0,1,1.573-.787,7.984,7.984,0,0,0,1.587-1.069c0,.435-.028.8-.028.8a3.494,3.494,0,0,1-2.214,1.342c-.083.014-.238-.108-.316-.076l-.117.256a11.553,11.553,0,0,1-3.974,2.317,3.391,3.391,0,0,1-3.311-.857A.633.633,0,0,1,1492.289,1079.308Z" transform="translate(-1492.034 -1075.005)" fill="#060401"/>
        </g>
        <g id="Grupo_151964" data-name="Grupo 151964" transform="translate(37.158 62.383)">
          <path id="Trazado_204844" data-name="Trazado 204844" d="M1523.98,643.484c-4.489,4.955-6.267-.286-6.267-.286l-.557-30.457c-.058.453-.207-3.072,5.459-2.309,5.65.761,7.08,2.964,7.08,2.964s-3.109,21.037-5.716,30.088" transform="translate(-1517.142 -610.324)" fill="#e28262"/>
          <path id="Trazado_204845" data-name="Trazado 204845" d="M1520.9,820.489s2.277,32.075,2.463,33.2c0,0,2.768.612,2.78-.025.031-1.537,3.192-20.307,3.233-22.72.1-6.113-1.473-7.268-3.045-11.385C1526.328,819.558,1520.885,815.534,1520.9,820.489Z" transform="translate(-1520.354 -788)" fill="#e28262"/>
        </g>
        <g id="Grupo_151966" data-name="Grupo 151966" transform="translate(36.366 62.383)">
          <g id="Grupo_151965" data-name="Grupo 151965">
            <path id="Trazado_204846" data-name="Trazado 204846" d="M1520.639,644.638c2.608-9.051,4.365-31.241,4.365-31.241s-1.431-2.2-7.08-2.964c-5.666-.763-5.517,2.762-5.459,2.309,0,0-1.716,16.515-.145,31.525C1512.32,644.267,1517.16,646.838,1520.639,644.638Z" transform="translate(-1511.657 -610.324)" fill="#00315e"/>
          </g>
        </g>
        <path id="Trazado_204847" data-name="Trazado 204847" d="M1533.847,502.568c.8,2.85,4.1,13.726,4.1,13.726-11.829,14.151-20.74,1.769-20.858.478-.141-1.545,1.583-7.445,1.9-13.807C1518.99,502.965,1522.215,498,1533.847,502.568Z" transform="translate(-1479.936 -454.105)" fill="#f39672"/>
        <path id="Trazado_204848" data-name="Trazado 204848" d="M1516.736,568.678c-.561-3.812.6-7.656,1.2-11.508h17.327c1.109,3.694,2.262,7.488,2.262,7.488s.741,8.737-6.679,9.784C1530.846,574.442,1517.915,576.683,1516.736,568.678Z" transform="translate(-1479.509 -502.469)" fill="#00315e"/>
        <g id="Grupo_151967" data-name="Grupo 151967" transform="translate(44.689 63.233)">
          <path id="Trazado_204849" data-name="Trazado 204849" d="M1581.5,649.183c-3.7,5.566-6.24.646-6.24.646l-6.009-29.671c.009.457.18-3.865,5.9-3.949,5.7-.084,7.441,1.882,7.441,1.882s.149,21.755-1.089,31.092" transform="translate(-1569.25 -616.207)" fill="#f39672"/>
          <path id="Trazado_204850" data-name="Trazado 204850" d="M1609.854,830.046s5.951,33.8,6.3,34.885c0,0,2.828.2,2.746-.437-.2-1.524.313-22.837,0-25.231-.8-6.06-1.644-7.1-3.808-10.942C1615.089,828.321,1609.11,825.147,1609.854,830.046Z" transform="translate(-1603.931 -796.801)" fill="#f39672"/>
        </g>
        <g id="Grupo_151968" data-name="Grupo 151968" transform="translate(54.969 130.017)">
          <path id="Trazado_204851" data-name="Trazado 204851" d="M1642.055,1079l-1.674,5.1s.346,4.57,4.01,1.738l1.092-1.058a1.168,1.168,0,0,0,.394-1.122l-.326-1.956-.389-2.707S1642.866,1077.445,1642.055,1079Z" transform="translate(-1640.381 -1078.311)" fill="#191818"/>
          <path id="Trazado_204852" data-name="Trazado 204852" d="M1644.391,1116.216l1.092-1.057a1.139,1.139,0,0,0,.375-.585l.019.114a1.168,1.168,0,0,1-.394,1.122l-1.092,1.058c-3.665,2.832-4.01-1.738-4.01-1.738l.065-.2C1640.652,1116.01,1641.46,1118.481,1644.391,1116.216Z" transform="translate(-1640.381 -1109.333)" fill="#060401"/>
        </g>
        <g id="Grupo_151970" data-name="Grupo 151970" transform="translate(43.938 60.071)">
          <g id="Grupo_151969" data-name="Grupo 151969">
            <path id="Trazado_204853" data-name="Trazado 204853" d="M1659.477,845.185" transform="translate(-1645.686 -808.931)" fill="#161c29"/>
            <path id="Trazado_204854" data-name="Trazado 204854" d="M1570.078,631.93c-2.088-6.126-6.027-31.465-6.027-31.465.009.457,1.18-6.051,6.9-6.135,5.7-.084,7.182,2.115,7.182,2.115s1.785,24.8.547,34.137C1578.677,630.582,1574.661,635.219,1570.078,631.93Z" transform="translate(-1564.051 -594.328)" fill="#003980"/>
          </g>
        </g>
        <path id="Trazado_204855" data-name="Trazado 204855" d="M1431.985,348.793s-9.68,11.383-14.493,15.154c0,0-3.234-1.2-3.135-3.393,0,0,7.086-10.483,11.536-16.685C1425.893,343.87,1431.909,342.137,1431.985,348.793Z" transform="translate(-1392.052 -319.821)" fill="#e28262"/>
        <path id="Trazado_204856" data-name="Trazado 204856" d="M1325.541,452.549s-12.2.832-17.037.737c0,0-1.249.754-.164,1.421,1.814,1.113,17.227,3.167,18.062,2.289C1330.3,452.9,1325.541,452.549,1325.541,452.549Z" transform="translate(-1300.979 -412.968)" fill="#e28262"/>
        <path id="Trazado_204857" data-name="Trazado 204857" d="M1489.4,339.16a3.945,3.945,0,0,0,5.042,2.334,3.89,3.89,0,0,0,2.288-5.028,3.945,3.945,0,0,0-5.043-2.334A3.89,3.89,0,0,0,1489.4,339.16Z" transform="translate(-1456.032 -311.46)" fill="#e28262"/>
        <path id="Trazado_204858" data-name="Trazado 204858" d="M1439.884,332.809a5.169,5.169,0,0,0-5.822,2.176l-8.442,12.246a13.946,13.946,0,0,0,5.849,6.027S1446.583,339.339,1439.884,332.809Z" transform="translate(-1401.688 -310.353)" fill="#781b3e"/>
        <path id="Trazado_204859" data-name="Trazado 204859" d="M1655.086,863.943" transform="translate(-1597.992 -764.906)" fill="#f39672"/>
        <path id="Trazado_204860" data-name="Trazado 204860" d="M1571.057,219.4s.7-1.34,2.234-3.912c0,0,3.271-3.36,1.438-7.582,0,0-1.006-3.531-7.18-3.018C1567.55,204.89,1566.959,214.608,1571.057,219.4Z" transform="translate(-1523.081 -201.057)" fill="#f3906b"/>
        <path id="Trazado_204861" data-name="Trazado 204861" d="M1552.7,267.529s-1.039,9.686,1.177,10.418l-7.9-.47s1.242-2.927-.2-5.085Z" transform="translate(-1504.479 -254.687)" fill="#f39672"/>
        <path id="Trazado_204862" data-name="Trazado 204862" d="M1546.411,275.785c.131-2.213-.147-2.662-.636-3.393l6.924-4.863a47.127,47.127,0,0,0-.218,5.965A7.494,7.494,0,0,1,1546.411,275.785Z" transform="translate(-1504.479 -254.687)" fill="#db765e"/>
        <path id="Trazado_204863" data-name="Trazado 204863" d="M1498.815,329.216c-1.759,1.285-1.961,4.358-1.333,6.278.721,2.2,1.006,5.018,1.729,8.206.978,4.321,1.641,7.649,2.731,11.939.9,3.548,15.162.689,15.162.689l5.11-17.465s.88-4.559-3.25-6.076a61.739,61.739,0,0,0-7.537-3.428,13.739,13.739,0,0,0-6.719-.865A33.4,33.4,0,0,0,1498.815,329.216Z" transform="translate(-1462.887 -306.779)" fill="#f39672"/>
        <path id="Trazado_204864" data-name="Trazado 204864" d="M1522.755,210.27c-.407,1.858-.87,2.829-.356,4.532.462,1.53.355,3.137,1.023,4.62.953,2.114,2.193,1.838,3.141-.106.97-1.991,1.982-4.682-.209-6.157-1.407-.947-1.914-2.576-3.6-2.888Z" transform="translate(-1484.286 -205.704)" fill="#23140a"/>
        <path id="Trazado_204865" data-name="Trazado 204865" d="M1527.429,219.9l-.329-1.1-.831-4.049a4.1,4.1,0,0,1,.065-1.683,4.132,4.132,0,0,0,.144-1.728,5.019,5.019,0,0,1,1.082-4.415c1.809-2.571,5.78-2.369,5.78-2.369a5.54,5.54,0,0,1,5.074,5.263c.639,3.2-2.009,5.707-2.015,5.712-.211.2-.16,1.246-.236,1.539a4.2,4.2,0,0,1-2.665,2.444,11.821,11.821,0,0,1-3.978,1.135C1529.019,220.671,1527.618,220.526,1527.429,219.9Z" transform="translate(-1487.741 -200.814)" fill="#f3906b"/>
        <path id="Trazado_204866" data-name="Trazado 204866" d="M1526.549,265.976c.644.581,1.52.316,2.205.736a1.157,1.157,0,0,0,1.161.114,1.821,1.821,0,0,1,1.108.038c.409.118,1.151.474,1.547.634a1.463,1.463,0,0,0,1.757-.406,3.471,3.471,0,0,0,.911-1.443,1.6,1.6,0,0,1,2.687-.661,7.915,7.915,0,0,1-1.347,1.843,13.514,13.514,0,0,0-.236,2.4,4.2,4.2,0,0,1-2.665,2.444,13.475,13.475,0,0,1-4.363.655,2.093,2.093,0,0,1-1.706-1.136l-.329-1.1-.831-4.05c-.014-.07-.02-.149-.029-.225A1.277,1.277,0,0,0,1526.549,265.976Z" transform="translate(-1487.921 -252.112)" fill="#23140a"/>
        <path id="Trazado_204867" data-name="Trazado 204867" d="M1515.984,184.968c1.11,0,1.1.929,1.946,1.446,1.822,1.108,4.648-.516,6.116,1.28a3.5,3.5,0,0,1,.372.569,8.4,8.4,0,0,1,.7,2.685c.041.265-.156.942.085,1.145.137.117.377.083.63,0,.049.406-.277.718-.417,1.091s-.36.692-.161,1.07c.512.972.119.811.165,2.764a8.3,8.3,0,0,1,1.342-1.24,9.935,9.935,0,0,0,1.9-2.1,13.269,13.269,0,0,0,1.152-2.53,7.117,7.117,0,0,0,.411-4.447s-.335-3.461-3.231-3.833c0,0,.368-2.229-4.925-2.819,0,0-4.179.065-4.408-1.377a2.052,2.052,0,0,0-.635,1.836,2.053,2.053,0,0,1-2.491-1.442S1513.1,184.247,1515.984,184.968Z" transform="translate(-1477.445 -178.674)" fill="#23140a"/>
        <g id="Grupo_151979" data-name="Grupo 151979" transform="translate(47.632 12.675)">
          <g id="Grupo_151975" data-name="Grupo 151975">
            <g id="Grupo_151974" data-name="Grupo 151974">
              <g id="Grupo_151973" data-name="Grupo 151973">
                <g id="Grupo_151972" data-name="Grupo 151972">
                  <g id="Grupo_151971" data-name="Grupo 151971">
                    <path id="Trazado_204868" data-name="Trazado 204868" d="M1589.884,269.24a.876.876,0,0,0,.556.33c.659.121,1.319-.493,1.474-1.37a1.466,1.466,0,0,0-.91-1.806,1.064,1.064,0,0,0-.884.274,2.224,2.224,0,0,0-.5,1.548A1.665,1.665,0,0,0,1589.884,269.24Z" transform="translate(-1589.615 -266.379)" fill="#f3906b"/>
                  </g>
                </g>
              </g>
            </g>
          </g>
          <g id="Grupo_151978" data-name="Grupo 151978" transform="translate(0.66 0.521)">
            <g id="Grupo_151976" data-name="Grupo 151976" transform="translate(0.31)">
              <path id="Trazado_204869" data-name="Trazado 204869" d="M1596.337,270.258c.1-.46.99.1.816.343a1.445,1.445,0,0,1-.422.322.693.693,0,0,0-.35.474c-.007.027-.021.107,0,.129.112.1.565-.308.665-.393a.786.786,0,0,0,.2-.731.472.472,0,0,0-.476-.412c-.212-.013-.43-.024-.449.24,0,.006,0,.05.009.027Z" transform="translate(-1596.328 -269.986)" fill="#e47a5d"/>
            </g>
            <g id="Grupo_151977" data-name="Grupo 151977" transform="translate(0 0.734)">
              <path id="Trazado_204870" data-name="Trazado 204870" d="M1594.746,275.124c-.086-.111-.189-.04-.3.02a.445.445,0,0,0-.2.254,1.1,1.1,0,0,0,.024.792.592.592,0,0,0,.473.33c.284.025.4-.215.439-.453.011-.064.035-.216-.024-.263s-.124.049-.174.089a.4.4,0,0,1-.251.062.515.515,0,0,1-.4-.239.272.272,0,0,1-.034-.078c-.018.157-.015.193.012.108a.435.435,0,0,1,.067-.1c.078-.1.2-.162.284-.257.041-.043.127-.2.084-.26Z" transform="translate(-1594.185 -275.066)" fill="#e47a5d"/>
            </g>
          </g>
        </g>
        <path id="Trazado_204871" data-name="Trazado 204871" d="M1541.228,261.786l1.335.516s-1.8.112-1.871-.411c0,0,.273-1.021.568-1.989C1541.261,259.9,1541.03,261.71,1541.228,261.786Z" transform="translate(-1500.131 -248.163)" fill="#e47a5d"/>
        <g id="Grupo_151980" data-name="Grupo 151980" transform="translate(38.642 9.72)">
          <path id="Trazado_204872" data-name="Trazado 204872" d="M1560.522,256.881c0,.283.156.51.347.51s.347-.228.347-.51-.155-.51-.347-.51S1560.522,256.6,1560.522,256.881Z" transform="translate(-1555.736 -254.862)" fill="#23140a"/>
          <path id="Trazado_204873" data-name="Trazado 204873" d="M1533.873,253.92c0,.283.156.51.347.51s.346-.228.346-.51-.155-.51-.346-.51S1533.873,253.638,1533.873,253.92Z" transform="translate(-1532.939 -252.329)" fill="#23140a"/>
          <path id="Trazado_204874" data-name="Trazado 204874" d="M1557.013,249.471c-.125.026-.155-.142-.155-.142a.583.583,0,0,1,.009-.3.288.288,0,0,1,.148-.151,4.2,4.2,0,0,1,1.475.193c.293.087.768.3.8.575.009.081.017.22-.075.244A12.018,12.018,0,0,0,1557.013,249.471Z" transform="translate(-1552.588 -248.442)" fill="#23140a"/>
          <path id="Trazado_204875" data-name="Trazado 204875" d="M1527.454,246.521a10.438,10.438,0,0,1,1.722.18c.113.059.187-.094.187-.094a.582.582,0,0,0,.074-.291.286.286,0,0,0-.1-.185,3.134,3.134,0,0,0-1.276-.2,2.5,2.5,0,0,0-.641.087A1.24,1.24,0,0,0,1527.454,246.521Z" transform="translate(-1527.408 -245.931)" fill="#23140a"/>
        </g>
        <g id="Grupo_151981" data-name="Grupo 151981" transform="translate(40.212 15.254)">
          <path id="Trazado_204876" data-name="Trazado 204876" d="M1538.413,284.223c-.109,0-.168.05-.127.129a1.647,1.647,0,0,0,2.849.344c.067-.074.008-.148-.127-.165C1541.008,284.53,1539.556,284.345,1538.413,284.223Z" transform="translate(-1538.273 -284.223)" fill="#fff"/>
        </g>
        <path id="Trazado_204877" data-name="Trazado 204877" d="M1580.215,578.068a10.756,10.756,0,0,1,0,10.387c-3.035,5.49-12.3,3.489-12.327-3.622C1567.861,577.809,1574.254,575.123,1580.215,578.068Z" transform="translate(-1523.396 -519.338)" fill="#003980"/>
        <path id="Trazado_204878" data-name="Trazado 204878" d="M1504.709,328.932a33.4,33.4,0,0,0-5.894.721c-1.759,1.285-1.961,4.358-1.333,6.278.721,2.2,1.006,5.018,1.729,8.206.978,4.321-.255,7.479.835,11.77.9,3.549,19.772,0,19.772,0l2.4-16.606s.88-4.559-3.25-6.076a57.021,57.021,0,0,0-7.339-3.359s.5,3.359-4.979,2.431C1506.647,332.3,1503.3,331.49,1504.709,328.932Z" transform="translate(-1462.887 -307.216)" fill="#781b3e"/>
        <path id="Trazado_204879" data-name="Trazado 204879" d="M1530.649,500.575c.8,2.85,1.434,12.46,1.434,12.46-2.17,9-22.126,2.523-22.245,1.233-.141-1.545.471-8.9.784-15.26C1510.622,499.008,1519.016,496.006,1530.649,500.575Z" transform="translate(-1473.718 -451.884)" fill="#781b3e"/>
        <path id="Trazado_204880" data-name="Trazado 204880" d="M1611.406,370.8c1.3,2.648,6.135,16.015,7.689,18.127.413.562,4.4,3.129,5.293-.37-2.2-13.875-5.517-21.79-5.517-21.79s-3.879-3.234-6.977-.245C1611.893,366.523,1610.487,368.965,1611.406,370.8Z" transform="translate(-1560.358 -338.29)" fill="#f39672"/>
        <path id="Trazado_204881" data-name="Trazado 204881" d="M1609.06,364.2a4.668,4.668,0,1,0,5.379-3.827A4.668,4.668,0,0,0,1609.06,364.2Z" transform="translate(-1558.561 -334.057)" fill="#f39672"/>
        <path id="Trazado_204882" data-name="Trazado 204882" d="M1605.748,355.1s4.012,1.5,4.961,4.76l2.476,8.861s-3.244,4.718-8.081,4.562l-4.778-10.613S1597.113,356.709,1605.748,355.1Z" transform="translate(-1550.646 -329.603)" fill="#781b3e"/>
        <g id="Grupo_151982" data-name="Grupo 151982" transform="translate(54.782 48.925)">
          <path id="Trazado_204883" data-name="Trazado 204883" d="M1665.423,518.914a165.024,165.024,0,0,0,.3,20.06s.878,1.6,1.827.495,3.781-19.669,3.166-20.924C1669.137,515.32,1665.423,518.914,1665.423,518.914Z" transform="translate(-1661.468 -517.201)" fill="#f39672"/>
          <path id="Trazado_204884" data-name="Trazado 204884" d="M1643.339,667.854l-1.729,1.67-2.526,1.455a1.361,1.361,0,0,0,1.769.246,27.961,27.961,0,0,0-.679,3.2c-.23.665.4.626.4.626a13.166,13.166,0,0,0,1.656-2.832,32.153,32.153,0,0,1-1.259,3.278c-.09.581.5.425.5.425,1.212-.69,1.653-3.273,1.653-3.273a18.685,18.685,0,0,1-.944,2.985c.132.4.329.269.329.269,1.044-.4,1.461-2.886,1.461-2.886l-.18.927c-.361,1.248.422.937.422.937l.29-.623a7.571,7.571,0,0,0,.635-3.655l.032-2.256Z" transform="translate(-1639.084 -646.081)" fill="#f39672"/>
        </g>
        <path id="Trazado_204885" data-name="Trazado 204885" d="M1261.794,437.409l1.123.517s-2.276-.48-2.6-1.458c0,0-.115-.186.26-.293a17.168,17.168,0,0,0,2.714.985,12.553,12.553,0,0,1-3.175-1.2s-.333-.568.344-.6c-.324-.353.149-.449.149-.449a7.846,7.846,0,0,1,1.433.13,31.979,31.979,0,0,0,3.29.288s-.789-1.339-.048-1.738l1.33,1.837,1.11,1.851-.328,1.208-2.275.34a11.752,11.752,0,0,1-2.919-.581S1259.57,436.837,1261.794,437.409Z" transform="translate(-1260.03 -396.756)" fill="#e28262"/>
        <path id="Trazado_204886" data-name="Trazado 204886" d="M1605.754,831.382l5.19,32.344s1.719,1.656,5.709,0l.662-15.8s1.172-10.44-2.963-17.888C1614.353,830.034,1606.207,823.46,1605.754,831.382Z" transform="translate(-1555.789 -733.708)" fill="#003980"/>
        <path id="Trazado_204887" data-name="Trazado 204887" d="M1524.187,828.871s2.21,3.2.23,15.193l-2.026,16.384a5.4,5.4,0,0,1-4.953.064l-1.633-32.638S1517.27,822.332,1524.187,828.871Z" transform="translate(-1478.84 -732.174)" fill="#00315e"/>
      </g>
    </g>
    <g id="Grupo_152009" data-name="Grupo 152009" transform="translate(113.576 157.864)">
      <path id="Trazado_204888" data-name="Trazado 204888" d="M368.814,305.385c.408,2.966,1.45,3.741.52,6.834-.859,2.858-3.223,4.954-3.539,8.036-.224,2.188.342,5.75,1.793,7.513,2.106,2.558,6.907,1.119,9.645.676,3.116-.5,10.065-.722,11.985-3.8,1.457-2.331-.391-6.469-.988-8.851-.757-3.023-1.549-6.04-2.248-9.077-.635-2.76-1.437-7.377-3.617-9.425s-4.635-1.472-7.379-1.163C371.7,296.5,368.3,301.681,368.814,305.385Z" transform="translate(-349.945 -295.794)" fill="#351709"/>
      <path id="Trazado_204889" data-name="Trazado 204889" d="M298.881,1101.455c0,5.219-9.509,9.45-21.239,9.45s-21.238-4.231-21.238-9.45,9.509-9.449,21.238-9.449S298.881,1096.236,298.881,1101.455Z" transform="translate(-256.404 -976.918)" fill="#98a7d3"/>
      <g id="Grupo_152008" data-name="Grupo 152008" transform="translate(4.294)">
        <g id="Grupo_151987" data-name="Grupo 151987" transform="translate(21.857 116.452)">
          <path id="Trazado_204890" data-name="Trazado 204890" d="M441.626,1128.907l.349-.065.348-2.924-.915-1.083Z" transform="translate(-440.822 -1121.453)" fill="#401427"/>
          <g id="Grupo_151986" data-name="Grupo 151986">
            <path id="Trazado_204891" data-name="Trazado 204891" d="M437.737,1123.444l.419.238-.065-4.788-.739-.167Z" transform="translate(-437.352 -1116.229)" fill="#161c29"/>
            <g id="Grupo_151985" data-name="Grupo 151985">
              <path id="Trazado_204892" data-name="Trazado 204892" d="M441.2,1102.632l.777,2.567a17.271,17.271,0,0,0,1.93,3.448s1.574,2.158-1.372,2.014c0,0-3.141-.167-3.094-2.182.042-1.733-1.551-3.884-1.551-3.884a1.751,1.751,0,0,1,.2-2.069l.545-.623,2.642-.461Z" transform="translate(-437.601 -1101.441)" fill="#e28262"/>
              <path id="Trazado_204893" data-name="Trazado 204893" d="M443.833,1112.171a3.958,3.958,0,0,1-3.421-1.036,13.766,13.766,0,0,1-1.44-2.771c.128.4-.832-3.175-.576-3.734l-.545.623a1.828,1.828,0,0,0-.26,2.124s1.647,2.1,1.606,3.83c-.048,2.015,3.094,2.182,3.094,2.182,1.768.086,1.907-.656,1.736-1.265C443.965,1112.143,443.9,1112.158,443.833,1112.171Z" transform="translate(-437.351 -1104.17)" fill="#161c29"/>
              <path id="Trazado_204894" data-name="Trazado 204894" d="M455.537,1141.536s.443.838-.963.838c0,0-5.271-.335-5.269-2.6l0-1.824s.414,2.6,3.669,2.61c0,0,1.446,0,.7-.921Z" transform="translate(-447.576 -1132.675)" fill="#161c29"/>
            </g>
          </g>
        </g>
        <g id="Grupo_152007" data-name="Grupo 152007">
          <path id="Trazado_204895" data-name="Trazado 204895" d="M421.041,370.2h6.909c-.314-1.006-.965-3.61.042-5.382l-6.98-4.584S422.253,367.927,421.041,370.2Z" transform="translate(-401.517 -350.905)" fill="#f39672"/>
          <path id="Trazado_204896" data-name="Trazado 204896" d="M421.816,365.861a3.038,3.038,0,0,0,2.175,1.918,7.3,7.3,0,0,0,3.509.26,5.468,5.468,0,0,1,.493-3.219l-6.98-4.584s.378,2.346.513,4.83C421.62,365.33,421.712,365.6,421.816,365.861Z" transform="translate(-401.517 -350.905)" fill="#db765e"/>
          <path id="Trazado_204897" data-name="Trazado 204897" d="M417.782,314.02l.366-1.039.9-3.057a3.079,3.079,0,0,0,.016-1.623,4.911,4.911,0,0,1-.142-2.537,5.108,5.108,0,0,0-.666-4.234c-1.623-2.558-5.455-2.546-5.455-2.546a5.338,5.338,0,0,0-5.124,4.834c-.761,3.052,1.672,5.586,1.676,5.59a3.361,3.361,0,0,1,.49,1.238,3.809,3.809,0,0,0,.695,1.159,8.516,8.516,0,0,0,2.429,1.95,9.382,9.382,0,0,0,3.652.862C417.1,314.61,417.573,314.616,417.782,314.02Z" transform="translate(-389.978 -298.505)" fill="#f39672"/>
          <g id="Grupo_151990" data-name="Grupo 151990" transform="translate(5.37 117.756)">
            <path id="Trazado_204898" data-name="Trazado 204898" d="M325.492,1132.514l.351.05,1.268-2.658-.519-1.32Z" transform="translate(-325.172 -1125.967)" fill="#401427"/>
            <g id="Grupo_151989" data-name="Grupo 151989">
              <path id="Trazado_204899" data-name="Trazado 204899" d="M323.273,1126.09l.321.36,1.474-4.556-.647-.4Z" transform="translate(-323.273 -1119.903)" fill="#161c29"/>
              <g id="Grupo_151988" data-name="Grupo 151988" transform="translate(1.111)">
                <path id="Trazado_204900" data-name="Trazado 204900" d="M335.222,1111.977c-.07,2.139-.228,4.541.635,6.565,0,0,.8,2.549-1.945,1.468,0,0-2.922-1.166-2.23-3.059.595-1.629-.224-4.177-.224-4.177a1.753,1.753,0,0,1,.858-1.893l.716-.416h2.747Z" transform="translate(-331.352 -1110.465)" fill="#f39672"/>
                <path id="Trazado_204901" data-name="Trazado 204901" d="M335.373,1119.351a3.957,3.957,0,0,1-2.908-2.078,13.746,13.746,0,0,1-.475-3.086c-.008.424.23-3.273.652-3.722l-.716.416a1.828,1.828,0,0,0-.926,1.927s.887,2.514.292,4.143c-.692,1.893,2.23,3.059,2.23,3.059,1.646.649,2.017-.01,2.05-.64A1.823,1.823,0,0,1,335.373,1119.351Z" transform="translate(-330.962 -1110.465)" fill="#161c29"/>
                <path id="Trazado_204902" data-name="Trazado 204902" d="M337.235,1148.939s.151.936-1.181.485c0,0-4.885-2.008-4.156-4.152l.583-1.729s-.443,2.6,2.638,3.65c0,0,1.369.464.957-.649Z" transform="translate(-331.699 -1138.762)" fill="#161c29"/>
              </g>
            </g>
          </g>
          <path id="Trazado_204903" data-name="Trazado 204903" d="M346.943,883.757c-3.5,6.469-4.123,9.1-4.746,14.021-.364,2.861-.243,14.912-.618,16.71-.156.746,2.676.336,2.676.336.518-1.261,8.766-28.95,8.766-28.95s.922-2.868.157-3.366C349.331,880,348.47,880.937,346.943,883.757Z" transform="translate(-333.557 -796.452)" fill="#f39672"/>
          <path id="Trazado_204904" data-name="Trazado 204904" d="M382.974,566.366s2.692,11.395,2.331,12.64c-1.041,3.585-11.19,11.942-20,4.605,0,0,1.813-12.779,6.684-18.883C371.991,564.729,373.527,566.316,382.974,566.366Z" transform="translate(-353.862 -525.844)" fill="#f39672"/>
          <path id="Trazado_204905" data-name="Trazado 204905" d="M399.071,414.945s3.523,6.812,5.1,10.549c-.659,4.381-3.039,10.88-4,12.25-2.1,3-11.68.322-11.68.322l-2.763-9.223c8.065-2.9,3.818-11.393,3.818-11.393l1.264-.8s1.29,4.177,6.539,4.027c0,0,1.724-1.122.455-5.886A7.418,7.418,0,0,1,399.071,414.945Z" transform="translate(-371.332 -397.577)" fill="#4c3887"/>
          <path id="Trazado_204906" data-name="Trazado 204906" d="M417.359,646.987s.927,18.383,4.328,28.27c.506,1.474,6.318-.485,6.318-.485s2.932-15.817,2.757-22.37c-.1-3.7-1.425-11.69-1.425-11.69S418.438,639.287,417.359,646.987Z" transform="translate(-398.392 -590.757)" fill="#e28262"/>
          <path id="Trazado_204907" data-name="Trazado 204907" d="M432.306,877.421l6.151-.419s-3.78,31.382-4.122,32.7c0,0-2.645.957-2.591.2.128-1.832-2.078-15.916-2.145-18.8C429.49,886.469,429.672,883.544,432.306,877.421Z" transform="translate(-408.843 -792.987)" fill="#e28262"/>
          <g id="Grupo_151991" data-name="Grupo 151991" transform="translate(25.471 17.514)">
            <path id="Trazado_204908" data-name="Trazado 204908" d="M462.426,420.116a4.052,4.052,0,0,0,3.275,4.7c2.2.394,7.52.606,6.65-1.456-1.677-3.978-3.512-6.042-5.715-6.436S462.82,417.914,462.426,420.116Z" transform="translate(-462.362 -416.86)" fill="#e28262"/>
            <path id="Trazado_204909" data-name="Trazado 204909" d="M475.791,439.613l1.852-3.644,4.2-.078s5.416,9.967,6.431,12.931c1.082,3.157-1.465,1.971-2.537,1.615C485.734,450.437,476.864,441.991,475.791,439.613Z" transform="translate(-473.85 -433.141)" fill="#e28262"/>
            <path id="Trazado_204910" data-name="Trazado 204910" d="M544.59,526.625s3.463,4.375,5.769,5.424c0,0,2.376-1.619-3.068-6.48C547.292,525.569,545.3,523.625,544.59,526.625Z" transform="translate(-532.706 -509.328)" fill="#e28262"/>
          </g>
          <path id="Trazado_204911" data-name="Trazado 204911" d="M365.307,668.126s.071,18.391,2.5,28.56c.361,1.517,5.9,1.052,5.9,1.052s3.615-17.392,4.076-23.931c.261-3.7,1-10.164,1-10.164S365.811,662.357,365.307,668.126Z" transform="translate(-353.862 -610.359)" fill="#f39672"/>
          <path id="Trazado_204912" data-name="Trazado 204912" d="M373.505,419.1a4.253,4.253,0,0,0-1.382,5.174l5.339,12.966s8.658,2.945,10.754-.058c.957-1.37,1.843-5.006,3.006-10.248.79-3.563.843-9.787-1.162-11.63-1.157-1.063-4.9-1.041-4.928-1.167l-6.065,1.953Z" transform="translate(-359.378 -397.02)" fill="#f39672"/>
          <path id="Trazado_204913" data-name="Trazado 204913" d="M384.181,561.977a16.326,16.326,0,0,1,3.28,1s1.994,8.5,2.107,9.788-8.772,7.98-18.7,4.172c0,0,5.012-11.822,5.744-14.293C377.457,559.806,384.181,561.977,384.181,561.977Z" transform="translate(-358.622 -522.811)" fill="#f39672"/>
          <path id="Trazado_204914" data-name="Trazado 204914" d="M486.373,452.209s2.929,3.45,3.175,6.013c.137,1.427-1.665,3.816-2.566,4.7C486.344,463.542,482.56,454.59,486.373,452.209Z" transform="translate(-455.995 -429.586)" fill="#0b2150"/>
          <path id="Trazado_204915" data-name="Trazado 204915" d="M398.983,308.343a8.871,8.871,0,0,1,.031-2.031c.051-.632,1.291.731,1.265-.093-.118-3.769,1.252-5.564,1.788-5.854a6.634,6.634,0,0,1,4.2-.8c1.906.338,1.834,2.876,1.834,2.876,1.624-9.29-8.737-6.321-8.737-6.321a5.742,5.742,0,0,0-4.526,6.08c-.618,5.105,4.219,8.055,4.219,8.055Z" transform="translate(-379.083 -295.672)" fill="#351709"/>
          <g id="Grupo_152000" data-name="Grupo 152000" transform="translate(18.214 9.111)">
            <g id="Grupo_151996" data-name="Grupo 151996">
              <g id="Grupo_151995" data-name="Grupo 151995">
                <g id="Grupo_151994" data-name="Grupo 151994">
                  <g id="Grupo_151993" data-name="Grupo 151993">
                    <g id="Grupo_151992" data-name="Grupo 151992">
                      <path id="Trazado_204916" data-name="Trazado 204916" d="M414.164,361.54a1.015,1.015,0,0,1-.658.2,1.492,1.492,0,0,1-1.36-1.532,1.369,1.369,0,0,1,1.3-1.491,1.286,1.286,0,0,1,.909.415,1.857,1.857,0,0,1,.28,1.517A1.4,1.4,0,0,1,414.164,361.54Z" transform="translate(-412.146 -358.716)" fill="#f3906b"/>
                    </g>
                  </g>
                </g>
              </g>
            </g>
            <g id="Grupo_151999" data-name="Grupo 151999" transform="translate(0.684 0.479)">
              <g id="Grupo_151997" data-name="Grupo 151997">
                <path id="Trazado_204917" data-name="Trazado 204917" d="M417.784,362.329c-.044-.439-.93-.02-.8.227a1.355,1.355,0,0,0,.356.346.643.643,0,0,1,.273.479c0,.025.009.1-.018.119-.114.08-.491-.348-.573-.439a.734.734,0,0,1-.107-.7.439.439,0,0,1,.486-.329c.2.012.4.025.39.273,0,.005-.009.046-.011.024Z" transform="translate(-416.876 -362.031)" fill="#e47a5d"/>
              </g>
              <g id="Grupo_151998" data-name="Grupo 151998" transform="translate(0.113 0.71)">
                <path id="Trazado_204918" data-name="Trazado 204918" d="M418.172,366.989c.093-.092.18-.015.275.052a.421.421,0,0,1,.158.258,1.029,1.029,0,0,1-.11.732.555.555,0,0,1-.476.253c-.267-.007-.346-.243-.357-.469,0-.06-.008-.2.052-.24s.109.059.152.1a.378.378,0,0,0,.227.085.484.484,0,0,0,.4-.177.225.225,0,0,0,.041-.069c0,.148-.009.18-.024.1a.407.407,0,0,0-.05-.1c-.062-.1-.166-.172-.235-.27-.033-.045-.1-.2-.049-.251Z" transform="translate(-417.661 -366.946)" fill="#e47a5d"/>
              </g>
            </g>
          </g>
          <g id="Grupo_152002" data-name="Grupo 152002" transform="translate(22.864 6.61)">
            <path id="Trazado_204919" data-name="Trazado 204919" d="M451.352,353.294c.025.263-.1.489-.277.507s-.343-.182-.368-.444.1-.489.276-.506S451.327,353.032,451.352,353.294Z" transform="translate(-449.781 -351.196)" fill="#341e13"/>
            <path id="Trazado_204920" data-name="Trazado 204920" d="M476.569,349.774c.01.264-.127.482-.307.489s-.331-.2-.341-.465.128-.482.307-.489S476.559,349.51,476.569,349.774Z" transform="translate(-471.354 -348.167)" fill="#341e13"/>
            <path id="Trazado_204921" data-name="Trazado 204921" d="M444.32,346.009a3.629,3.629,0,0,1,2.3-.662s.108-.005.078-.334c0,0-.009-.29-.24-.262C446.454,344.751,444.4,344.615,444.32,346.009Z" transform="translate(-444.32 -344.265)" fill="#351709"/>
            <path id="Trazado_204922" data-name="Trazado 204922" d="M473.781,341.572a3.006,3.006,0,0,0-2.049.077c-.231.034-.164.316-.164.316.058.324.164.3.164.3a3.634,3.634,0,0,1,1.994-.375C473.768,341.672,473.754,341.69,473.781,341.572Z" transform="translate(-467.623 -341.409)" fill="#351709"/>
            <g id="Grupo_152001" data-name="Grupo 152001" transform="translate(2.009 5.426)">
              <path id="Trazado_204923" data-name="Trazado 204923" d="M460.965,378.954l-2.6.48c-.137.026-.191.107-.118.179a1.642,1.642,0,0,0,2.85-.534C461.139,378.994,461.076,378.945,460.965,378.954Z" transform="translate(-458.22 -378.953)" fill="#fff"/>
            </g>
            <path id="Trazado_204924" data-name="Trazado 204924" d="M464.32,362.124c1.36-.1,1.434-.455,1.434-.455l-.714-1.433S465.2,361.669,464.32,362.124Z" transform="translate(-461.43 -357.515)" fill="#e47a5d"/>
          </g>
          <g id="Grupo_152005" data-name="Grupo 152005" transform="translate(34.933 31.811)">
            <g id="Grupo_152004" data-name="Grupo 152004">
              <path id="Trazado_204925" data-name="Trazado 204925" d="M540.74,518.374l-3.281,13.243c0,.245-.165.29-.165.29l-5.8,2.419a.2.2,0,0,1-.263-.231l3.281-13.172c0-.277.182-.318.182-.318l5.777-2.408S540.74,518.082,540.74,518.374Z" transform="translate(-530.737 -517.828)" fill="#192c5b"/>
              <g id="Grupo_152003" data-name="Grupo 152003">
                <path id="Trazado_204926" data-name="Trazado 204926" d="M527.873,548.34l.564.378c-.1-.034-.111-.215-.111-.215l3.277-13.21-.492-.334-3.28,13.278A.115.115,0,0,0,527.873,548.34Z" transform="translate(-527.83 -532.188)" fill="#203c7e"/>
                <path id="Trazado_204927" data-name="Trazado 204927" d="M551.154,533.227a.32.32,0,0,0-.129.3l-.492-.331a.364.364,0,0,1,.137-.3Z" transform="translate(-547.252 -530.424)" fill="#203c7e"/>
                <path id="Trazado_204928" data-name="Trazado 204928" d="M551.453,518.26a.2.2,0,0,1,.041-.027l5.777-2.412a.327.327,0,0,1,.333.017l.351.235a.188.188,0,0,1,.08.182s-.027-.184-.261-.107l-5.833,2.436Z" transform="translate(-548.039 -515.783)" fill="#a4dbf7"/>
              </g>
              <path id="Trazado_204929" data-name="Trazado 204929" d="M540.74,518.374l-3.281,13.243c0,.245-.165.29-.165.29l-5.8,2.419a.2.2,0,0,1-.263-.231l3.281-13.172c0-.277.182-.318.182-.318l5.777-2.408S540.74,518.082,540.74,518.374Z" transform="translate(-530.737 -517.828)" fill="none" stroke="#203c7e" stroke-miterlimit="10" stroke-width="0.59"/>
            </g>
            <path id="Trazado_204930" data-name="Trazado 204930" d="M569.121,553.637a4.611,4.611,0,0,1-1.141,1.483c-.569.45-1.518.313-1.884.642-.638.572-.185,2.117,1.159,3.666,1.166,1.345,2.026-.415,2.418-1.5a3.69,3.69,0,0,0-.12-3.6Z" transform="translate(-560.323 -548.166)" fill="#e28262"/>
          </g>
          <path id="Trazado_204931" data-name="Trazado 204931" d="M421.034,376.654a.449.449,0,1,1-.449-.449A.45.45,0,0,1,421.034,376.654Z" transform="translate(-400.766 -364.566)" fill="#fff"/>
          <path id="Trazado_204932" data-name="Trazado 204932" d="M386.459,587.49a84.9,84.9,0,0,0-.773-8.483c-.123-2.077-2.487-12.64-2.487-12.64-9.447-.051-11.579-1.637-11.579-1.637a46.792,46.792,0,0,0-5.273,14.045,32.882,32.882,0,0,0-.762,7.98c.114,3.658.255,7.311.517,10.962.046.642.392,7.211.693,7.24,0,0,15.845,1.648,18.6-5.518A85.044,85.044,0,0,0,386.459,587.49Z" transform="translate(-354.087 -525.844)" fill="#11505b"/>
          <path id="Trazado_204933" data-name="Trazado 204933" d="M389.551,438.066s9.856,3.037,11.953.034c.956-1.37,3.065-8.225,3.724-12.606-1.573-3.737-5.1-10.549-5.1-10.549a7.417,7.417,0,0,0-1.268-.152c1.269,4.764-.455,5.886-.455,5.886-5.249.149-6.539-4.027-6.539-4.027l-1.264.8s3.91,8.121-3.636,11.835C386.97,429.285,386.788,438,389.551,438.066Z" transform="translate(-372.392 -397.577)" fill="#0b2150"/>
          <g id="Grupo_152006" data-name="Grupo 152006" transform="translate(0 22.126)">
            <path id="Trazado_204934" data-name="Trazado 204934" d="M353.677,452.164a4.051,4.051,0,0,1-3.454,4.572c-2.216.309-8.087-.267-6.832-2.12,2.465-3.643,3.987-5.493,6.2-5.8S353.369,449.947,353.677,452.164Z" transform="translate(-334.964 -448.772)" fill="#f39672"/>
            <path id="Trazado_204935" data-name="Trazado 204935" d="M302.829,470.567l-1.709-3.713-4.191-.24s-9.371,9.624-10.5,12.546c-1.2,3.113,1.388,2.027,2.473,1.711C288.9,480.871,301.666,472.9,302.829,470.567Z" transform="translate(-286.117 -464.035)" fill="#f39672"/>
            <path id="Trazado_204936" data-name="Trazado 204936" d="M287.213,546.812A68.254,68.254,0,0,0,296.12,557.8s2.021-.128,1.422-1.249c-1.017-1.9-5.164-10.8-6.194-12.713C290.77,542.76,287.213,546.812,287.213,546.812Z" transform="translate(-287.055 -529.94)" fill="#f39672"/>
            <path id="Trazado_204937" data-name="Trazado 204937" d="M350.616,629.327l2.288.739,1.057-1.278a6.122,6.122,0,0,0,.372,2.472,28.214,28.214,0,0,1,2.02,2.574c.5.495-.085.738-.085.738a13.174,13.174,0,0,1-2.734-1.813,32.329,32.329,0,0,0,2.573,2.39c.337.48-.257.6-.257.6-1.391-.085-2.925-2.21-2.925-2.21a18.7,18.7,0,0,0,2.163,2.264c.058.419-.177.386-.177.386-1.113.1-2.584-1.948-2.584-1.948l.571.753c.874.961.034,1.028.034,1.028l-.535-.431a7.577,7.577,0,0,1-2.179-3l-1.023-2.011Z" transform="translate(-340.077 -602.771)" fill="#f39672"/>
          </g>
        </g>
      </g>
      <path id="Trazado_204938" data-name="Trazado 204938" d="M377.617,303.013c-3.131,1.716-4.9,3.293-4.084,7.1.733,3.435.982,5.316-.911,8.38-1.777,2.878-1.937,4.521-.406,7.605,1.229,2.477,2.438,4.854-.643,6.342-5.814,2.809-11.219-1.8-9.039-8.1.977-2.822,3.351-4.745,4.481-7.458,1.145-2.748.042-5.089-.2-7.867-.408-4.646,5.935-11.393,9.931-6.891a8.1,8.1,0,0,1,.874,1.29Z" transform="translate(-346.772 -299.928)" fill="#351709"/>
    </g>
    <g id="Grupo_152012" data-name="Grupo 152012" transform="translate(169.414 186.256)">
      <g id="Grupo_152010" data-name="Grupo 152010" transform="translate(0 55.693)">
        <path id="Trazado_204939" data-name="Trazado 204939" d="M642.764,1132.356v14.917c0,20.346,28.927,36.836,64.606,36.836s64.6-16.49,64.6-36.836v-14.917Z" transform="translate(-642.764 -1095.522)" fill="#11505b"/>
        <path id="Trazado_204940" data-name="Trazado 204940" d="M707.37,951.156c-35.679,0-64.606-16.49-64.606-36.836s28.927-36.833,64.606-36.833,64.6,16.493,64.6,36.833S743.051,951.156,707.37,951.156Z" transform="translate(-642.764 -877.488)" fill="#09121a"/>
        <path id="Trazado_204941" data-name="Trazado 204941" d="M788.546,989.62c-28.106,0-50.892-12.989-50.892-29.016s22.786-29.014,50.892-29.014,50.891,12.992,50.891,29.014S816.653,989.62,788.546,989.62Z" transform="translate(-723.94 -923.771)" fill="#fff"/>
        <path id="Trazado_204942" data-name="Trazado 204942" d="M861.68,1024.274c-21.282,0-38.537-9.836-38.537-21.971s17.254-21.971,38.537-21.971,38.536,9.838,38.536,21.971S882.964,1024.274,861.68,1024.274Z" transform="translate(-797.074 -965.469)" fill="#09121a"/>
        <path id="Trazado_204943" data-name="Trazado 204943" d="M940.118,1061.438c-13.965,0-25.286-6.454-25.286-14.417s11.321-14.416,25.286-14.416,25.285,6.455,25.285,14.416S954.083,1061.438,940.118,1061.438Z" transform="translate(-875.512 -1010.187)" fill="#fff"/>
        <path id="Trazado_204944" data-name="Trazado 204944" d="M1014.118,1096.5c-7.06,0-12.784-3.263-12.784-7.289s5.724-7.288,12.784-7.288,12.783,3.263,12.783,7.288S1021.178,1096.5,1014.118,1096.5Z" transform="translate(-949.513 -1052.38)" fill="#09121a"/>
        <path id="Trazado_204945" data-name="Trazado 204945" d="M1064.2,1120.234c-2.388,0-4.323-1.1-4.323-2.464s1.935-2.464,4.323-2.464,4.322,1.1,4.322,2.464S1066.591,1120.234,1064.2,1120.234Z" transform="translate(-999.598 -1080.935)" fill="#11505b"/>
      </g>
      <g id="Grupo_152011" data-name="Grupo 152011" transform="translate(51.624)">
        <path id="Trazado_204946" data-name="Trazado 204946" d="M1089.791,527V498.945l12.981-6.818v26.748Z" transform="translate(-1076.81 -492.127)" fill="#256cb4"/>
        <path id="Trazado_204947" data-name="Trazado 204947" d="M1012.952,527V498.945l-12.981-6.818v26.748Z" transform="translate(-999.971 -492.127)" fill="#2ca1df"/>
        <path id="Trazado_205025" data-name="Trazado 205025" d="M0,0V87.765" transform="translate(12.981 5.376)" fill="none" stroke="#005b9c" stroke-width="4"/>
      </g>
    </g>
    <g id="Grupo_152025" data-name="Grupo 152025" transform="translate(280.232 243.908)">
      <path id="Trazado_204948" data-name="Trazado 204948" d="M1451.2,1148.195" transform="translate(-1445.184 -1111.031)" fill="#f3906b"/>
      <path id="Trazado_204949" data-name="Trazado 204949" d="M1450.252,1137.1s-.552-1.439,1.363-1.961a23.82,23.82,0,0,0,6.787,2.541c4.689,1.575,14.343-.433,18.736-1.346,4.934-1.025,7.219,4.554,2.488,6.38-8.854,3.416-22.892-.3-29.422-5.431" transform="translate(-1444.307 -1099.862)" fill="#f3906b"/>
      <path id="Trazado_204950" data-name="Trazado 204950" d="M1749.542,1353.227c-1.972-9.21-2.562-30.542-2.562-30.542s1.58-2.1,7.27-2.464c5.705-.367,5.311,3.138,5.285,2.683a198.363,198.363,0,0,1-2.618,29.961S1752.86,1355.664,1749.542,1353.227Z" transform="translate(-1698.215 -1258.172)" fill="#002d58"/>
      <path id="Trazado_204951" data-name="Trazado 204951" d="M1710.274,1278.058c.561-3.811-.6-7.655-1.2-11.507h-17.328c-1.109,3.694-2.261,7.488-2.261,7.488s-.741,8.737,6.679,9.784C1696.165,1283.823,1709.1,1286.064,1710.274,1278.058Z" transform="translate(-1649.012 -1212.282)" fill="#006d97"/>
      <path id="Trazado_204952" data-name="Trazado 204952" d="M1549.941,1727.66c0,7.346-13.384,13.3-29.894,13.3s-29.893-5.955-29.893-13.3,13.384-13.3,29.893-13.3S1549.941,1720.314,1549.941,1727.66Z" transform="translate(-1478.506 -1595.371)" fill="#98a7d3"/>
      <g id="Grupo_152013" data-name="Grupo 152013" transform="translate(18.346 127.573)">
        <path id="Trazado_204953" data-name="Trazado 204953" d="M1542.3,1778l.987-.057c.336-.052.334.477.379.5a10.725,10.725,0,0,0,2.338.742s1.826-.237,2.022-.791l-.258-3.389c-2.035-.171-4.159-.564-4.159-.564l-4.474-.629c-2.153-.224-2.544.555-2.544.555S1535.275,1776.328,1542.3,1778Z" transform="translate(-1536.495 -1773.765)" fill="#191818"/>
        <path id="Trazado_204954" data-name="Trazado 204954" d="M1545.017,1779.825a5.353,5.353,0,0,0-1.157-.377c-2.207-.386-4.365-.605-6.2-2.024a1.813,1.813,0,0,1-.8-1.291.789.789,0,0,0-.267.253s-1.318,1.968,5.708,3.639l.987-.057c.336-.052.334.477.379.5a10.725,10.725,0,0,0,2.338.742s1.826-.237,2.022-.791l-.063-.826A3.526,3.526,0,0,1,1545.017,1779.825Z" transform="translate(-1536.495 -1775.791)" fill="#100f0f"/>
      </g>
      <g id="Grupo_152014" data-name="Grupo 152014" transform="translate(48.231 126.734)">
        <path id="Trazado_204955" data-name="Trazado 204955" d="M1749.09,1772.191l.988-.057c.336-.052.334.477.38.495a10.744,10.744,0,0,0,2.337.741s1.826-.237,2.021-.791l-.257-3.388c-2.036-.171-4.16-.564-4.16-.564l-4.474-.629c-2.152-.224-2.544.555-2.544.555S1742.064,1770.521,1749.09,1772.191Z" transform="translate(-1743.284 -1767.957)" fill="#191818"/>
        <path id="Trazado_204956" data-name="Trazado 204956" d="M1751.806,1774.016a5.336,5.336,0,0,0-1.157-.376c-2.207-.387-4.365-.606-6.2-2.024a1.815,1.815,0,0,1-.8-1.291.8.8,0,0,0-.267.253s-1.318,1.968,5.708,3.639l.988-.057c.336-.052.334.477.38.495a10.737,10.737,0,0,0,2.337.741s1.826-.237,2.021-.791l-.062-.825A3.528,3.528,0,0,1,1751.806,1774.016Z" transform="translate(-1743.284 -1769.982)" fill="#100f0f"/>
      </g>
      <path id="Trazado_204957" data-name="Trazado 204957" d="M1767.423,1563.324c-.732-.875-3.138-33.005-3.138-33.005-.4-4.939,7.814-2.865,7.814-2.865,1.2,4.917,1,5.843,1.378,11.944.149,2.41-.235,22.37-.146,23.905C1773.332,1563.3,1769.521,1565.828,1767.423,1563.324Z" transform="translate(-1713.007 -1435.108)" fill="#002d58"/>
      <path id="Trazado_204958" data-name="Trazado 204958" d="M1725.413,1290.8s-4.932,8.4-1.9,13.886,15.821-.485,15.035-6.842C1737.69,1290.873,1731.375,1287.855,1725.413,1290.8Z" transform="translate(-1677.298 -1232.066)" fill="#193c76"/>
      <path id="Trazado_204959" data-name="Trazado 204959" d="M1693.712,1211.947c-.8,2.85-4.1,13.725-4.1,13.725,9.054,8.539,20.739,1.769,20.858.478.141-1.545-1.583-7.444-1.9-13.807C1708.568,1212.343,1705.343,1207.377,1693.712,1211.947Z" transform="translate(-1649.133 -1163.915)" fill="#f39672"/>
      <path id="Trazado_204960" data-name="Trazado 204960" d="M1691.6,1554.565" transform="translate(-1650.835 -1458.671)" fill="#161c29"/>
      <path id="Trazado_204961" data-name="Trazado 204961" d="M1642.631,1335.272c.961-9.37,7.636-33.273,7.636-33.273s1.951-1.8,7.477-.393,6.138,8.618,6.253,8.175a219.543,219.543,0,0,1-14.986,28.46S1644.877,1340.356,1642.631,1335.272Z" transform="translate(-1608.946 -1241.812)" fill="#193c76"/>
      <path id="Trazado_204962" data-name="Trazado 204962" d="M1584.945,1559.753c.162-1.129,8.495-34.7,8.495-34.7,1.962-4.14,7.594.219,7.594.219a35.681,35.681,0,0,1-2.04,12.427c-.766,2.29-7.85,23.023-8.343,24.479C1590.651,1562.176,1586.464,1563.5,1584.945,1559.753Z" transform="translate(-1559.597 -1431.896)" fill="#193c76"/>
      <g id="Grupo_152015" data-name="Grupo 152015" transform="translate(58.125 22.679)">
        <path id="Trazado_204963" data-name="Trazado 204963" d="M1820,1062.337s.9,15.079.325,21.167c0,0,0,2.767-4.873,4.154,0,0-1.772-16.789-3.215-24.284C1812.234,1063.373,1815.112,1057.814,1820,1062.337Z" transform="translate(-1812.163 -1058.744)" fill="#e28262"/>
        <path id="Trazado_204964" data-name="Trazado 204964" d="M1814.138,1055.454a3.944,3.944,0,0,0,5.162-2.055,3.89,3.89,0,0,0-2.077-5.118,3.945,3.945,0,0,0-5.162,2.056A3.889,3.889,0,0,0,1814.138,1055.454Z" transform="translate(-1811.745 -1047.966)" fill="#e28262"/>
      </g>
      <path id="Trazado_204965" data-name="Trazado 204965" d="M1810.637,1043.3a5.167,5.167,0,0,1,3.752,4.954l.576,14.863a13.943,13.943,0,0,1-8.167,1.961S1801.482,1045.228,1810.637,1043.3Z" transform="translate(-1748.075 -1021.295)" fill="#641c0c"/>
      <path id="Trazado_204966" data-name="Trazado 204966" d="M1695.986,1573.32" transform="translate(-1654.59 -1474.716)" fill="#f39672"/>
      <path id="Trazado_204967" data-name="Trazado 204967" d="M1746.47,978.006s-.032,5.309-.5,10.6l7-1.16a5.182,5.182,0,0,1,.418-4.573Z" transform="translate(-1697.355 -965.438)" fill="#f39672"/>
      <path id="Trazado_204968" data-name="Trazado 204968" d="M1703.463,1038.594c1.759,1.285,1.961,4.358,1.333,6.277-.721,2.2-1.007,5.019-1.729,8.207-.978,4.32-1.641,7.648-2.731,11.939-.9,3.549-15.162.689-15.162.689l-5.111-17.464s-.88-4.559,3.251-6.076a61.749,61.749,0,0,1,7.536-3.428,13.739,13.739,0,0,1,6.719-.865A33.387,33.387,0,0,1,1703.463,1038.594Z" transform="translate(-1640.901 -1016.589)" fill="#f39672"/>
      <path id="Trazado_204969" data-name="Trazado 204969" d="M1689.905,1287.448a10.756,10.756,0,0,0,0,10.386c3.035,5.49,12.3,3.489,12.327-3.622C1702.259,1287.188,1695.866,1284.5,1689.905,1287.448Z" transform="translate(-1648.235 -1229.149)" fill="#193c76"/>
      <path id="Trazado_204970" data-name="Trazado 204970" d="M1697.568,1038.31a33.363,33.363,0,0,1,5.895.721c1.83,1.337,1.8,3.963,1.445,5.95-.675,3.8-1.359,7.639-1.712,11.483-.157,1.7-.58,5.169-.707,6.875a3.642,3.642,0,0,1-2.34,3.44c-1.287.664-2.243.137-3.645.175a70.712,70.712,0,0,1-10.619-.729c-.149-.018-5.664,3.7-3.849.964l-1.973-18.511s-.88-4.559,3.251-6.076a33.271,33.271,0,0,1,6.09-2.9S1694.942,1039.846,1697.568,1038.31Z" transform="translate(-1640.901 -1017.027)" fill="#641c0c"/>
      <path id="Trazado_204971" data-name="Trazado 204971" d="M1726.9,927.107l-.3-1.153-.708-4.251a4.285,4.285,0,0,1,.133-1.75,4.314,4.314,0,0,0,.218-1.794,5.229,5.229,0,0,1,1.3-4.557c1.984-2.608,6.112-2.244,6.114-2.243a6.475,6.475,0,0,1,5.076,3.162,7.966,7.966,0,0,1,.918,5.909,11.967,11.967,0,0,1-3.45,5.4c-1.029.984-2.08,1.1-3.426,1.6a13.961,13.961,0,0,1-3.727.549C1728.527,927.975,1727.073,927.77,1726.9,927.107Z" transform="translate(-1680.142 -908.408)" fill="#f3906b"/>
      <path id="Trazado_204972" data-name="Trazado 204972" d="M1733.222,909.978l.658,2.639a1.282,1.282,0,0,1,.948,1.606l-.238,2.18.594.228c-.049-.873,1.161-.885,1.161-.885.885-.051,1.036.7.985,1.43-.131,1.886.556,4.881,2.136,5.408.625.208,1.8.425,2-.421.241-1.034,2.2-3.089,2.2-3.089a8.859,8.859,0,0,0,1.831-9.14,7.19,7.19,0,0,0-1.689-2.5,9.12,9.12,0,0,0-5.263-2.348s-2.683-.327-4.191.732a8.694,8.694,0,0,0-1.948,1.782A2.028,2.028,0,0,0,1733.222,909.978Z" transform="translate(-1685.646 -903.018)" fill="#351709"/>
      <g id="Grupo_152020" data-name="Grupo 152020" transform="translate(49.28 12.497)">
        <g id="Grupo_152019" data-name="Grupo 152019">
          <g id="Grupo_152018" data-name="Grupo 152018">
            <g id="Grupo_152017" data-name="Grupo 152017">
              <g id="Grupo_152016" data-name="Grupo 152016">
                <path id="Trazado_204973" data-name="Trazado 204973" d="M1751,980.48a1.089,1.089,0,0,0,.688.258,1.6,1.6,0,0,0,1.556-1.543,1.464,1.464,0,0,0-1.282-1.68,1.379,1.379,0,0,0-1,.381,1.987,1.987,0,0,0-.4,1.6A1.5,1.5,0,0,0,1751,980.48Z" transform="translate(-1750.54 -977.513)" fill="#f3906b"/>
              </g>
            </g>
          </g>
        </g>
      </g>
      <g id="Grupo_152023" data-name="Grupo 152023" transform="translate(50.076 13.016)">
        <g id="Grupo_152021" data-name="Grupo 152021" transform="translate(0.244)">
          <path id="Trazado_204974" data-name="Trazado 204974" d="M1757.746,981.4c.076-.465.994.043.834.3a1.439,1.439,0,0,1-.4.345.689.689,0,0,0-.323.492c-.005.027-.016.108.011.129.117.093.547-.339.641-.429a.786.786,0,0,0,.162-.741.472.472,0,0,0-.5-.385c-.213,0-.43,0-.435.265,0,.006.007.05.01.026Z" transform="translate(-1757.736 -981.106)" fill="#e47a5d"/>
        </g>
        <g id="Grupo_152022" data-name="Grupo 152022" transform="translate(0 0.744)">
          <path id="Trazado_204975" data-name="Trazado 204975" d="M1756.574,986.309c-.092-.105-.191-.029-.3.037a.444.444,0,0,0-.187.265,1.1,1.1,0,0,0,.068.788.592.592,0,0,0,.491.3c.285.01.386-.237.412-.477.007-.064.023-.218-.038-.261s-.121.056-.169.1a.4.4,0,0,1-.247.075.517.517,0,0,1-.412-.216.265.265,0,0,1-.038-.076c-.01.158,0,.193.018.108a.405.405,0,0,1,.061-.108c.073-.105.189-.173.27-.272.038-.046.115-.211.068-.265Z" transform="translate(-1756.049 -986.256)" fill="#e47a5d"/>
        </g>
      </g>
      <g id="Grupo_152024" data-name="Grupo 152024" transform="translate(1.527 32.635)">
        <path id="Trazado_204976" data-name="Trazado 204976" d="M1421.485,1117.255c.609-.22.517-.633,1.125-.22.693.47,1.542.576,1.992.923.783.6,3.292,3.507.006,3.761-.765.061-3.429.884-3.974-.332-.806-1.8-.548-1.162,0-3.391Z" transform="translate(-1420.122 -1116.858)" fill="#f39672"/>
      </g>
      <path id="Trazado_204977" data-name="Trazado 204977" d="M1680.755,1079.371a4.385,4.385,0,1,1-6.058-1.32A4.385,4.385,0,0,1,1680.755,1079.371Z" transform="translate(-1634.653 -1050.429)" fill="#f39672"/>
      <path id="Trazado_204978" data-name="Trazado 204978" d="M1684.964,1193.56c-.568,5.979-.937,20.62-.937,20.62,2.122,5.662,22.361.883,22.478-.407.141-1.545-.273-12.425-.586-18.788A24.4,24.4,0,0,0,1684.964,1193.56Z" transform="translate(-1644.36 -1148.37)" fill="#641c0c"/>
      <path id="Trazado_204979" data-name="Trazado 204979" d="M1630.349,1066.783c-4.117-1.376-8.131,3.917-8.131,3.917l-8.179,7.152s2.073,7.448,5.854,8.526c0,0,9.377-4.911,12.589-10.589C1632.481,1075.79,1634.84,1072.5,1630.349,1066.783Z" transform="translate(-1584.486 -1041.19)" fill="#641c0c"/>
      <path id="Trazado_204980" data-name="Trazado 204980" d="M1719.254,897.941c.6.486,1.37.167,2.058.007.939,1.1-.185,2.2,1.237,2.735a15.728,15.728,0,0,0,2.7.5c.666.107,1.34-.047,1.816.451.516.539.027,2.216.636,2.538,1.066.562,1.9-2.354,3.26-2.123,1.159.2,1.364,2.035.959,2.94a1.379,1.379,0,0,1,.3-.206c.552-1.44,1.258-1.465,1.867-2.489a4.165,4.165,0,0,0,.972-2.733c0-.014-.186-.667-.188-.675-.443-1.623-1.2-1.9-1.566-2.587a13.643,13.643,0,0,0-1.47-1.876,18.754,18.754,0,0,0-1.2-1.911,5.637,5.637,0,0,0-3.178-1.345c-1.173-.154-2.289.574-3.451.37-.477-.084-.923-.517-1.4-.49-.583.033-.987.612-1.491.838-.937.421-2.414.251-3.215.911a1.935,1.935,0,0,0-.149,2.676c.305.5.925.789,1.2,1.309C1719.027,896.922,1719.235,897.926,1719.254,897.941Z" transform="translate(-1672.814 -891.043)" fill="#351709"/>
      <path id="Trazado_204981" data-name="Trazado 204981" d="M1413.57,1105.378l-3.938-2.146s-.866.81,3.22,3Z" transform="translate(-1409.555 -1072.566)" fill="#f39672"/>
    </g>
    <g id="Grupo_152026" data-name="Grupo 152026" transform="translate(201.454 346.118)">
      <path id="Trazado_204982" data-name="Trazado 204982" d="M864.461,1618.308l19.7-8.292a9.527,9.527,0,0,1,1.541,1.169c.921,1.213-.267,2.868,1.278,3.91,1.9,1.283,6.582,1,10.454-.627q.162-.068.319-.138c3.638-1.622,5.1-3.888,3.248-5.135-1.182-.8-3.219-.747-4.879-1.054a10.839,10.839,0,0,1-2.435-.709,8.544,8.544,0,0,1-1.328-.866l19.728-8.3,37.155,25.07-47.628,20.042-15.371-10.373c.06-.029.124-.058.19-.087a18.488,18.488,0,0,1,2.029-.744c2.292-.5,5.393.107,7.374-.725,2.427-1.081,1.932-3.532-1.055-5.548-3.02-2.038-7.445-2.859-9.883-1.833-1.514.674-1.454,1.736-2.04,2.6a4.492,4.492,0,0,1-1.363,1.3c-.072.044-.35.183-.7.34-.29.129-.63.269-.946.376Z" transform="translate(-864.461 -1598.268)" fill="#98a7d3"/>
    </g>
    <g id="Grupo_152029" data-name="Grupo 152029" transform="translate(205.209 336.78)" style="isolation: isolate">
      <path id="Trazado_204983" data-name="Trazado 204983" d="M1071.665,1588.578a1.422,1.422,0,0,0-.718-1.172,2.466,2.466,0,0,0-.243-.142c-.026-.014-.053-.026-.08-.04-.061-.029-.123-.058-.187-.084l-.046-.021c-.014-.005-.029-.009-.042-.015-.1-.038-.207-.075-.315-.107h-.007c-.11-.032-.224-.06-.339-.087l-.039-.01-.048-.009c-.136-.029-.274-.056-.416-.079l-.011,0-.035-.005c-.146-.024-.294-.045-.443-.065l-.048-.006c-.156-.021-.314-.039-.473-.057l-.028,0-.383-.044c-.15-.017-.3-.035-.449-.054l-.082-.01q-.219-.029-.433-.063l-.22-.037c-.149-.028-.3-.058-.448-.091l-.08-.018c-.109-.025-.218-.05-.325-.077l-.008,0c-.109-.028-.216-.057-.323-.088l-.1-.031c-.074-.021-.147-.045-.219-.069l-.105-.036c-.075-.025-.147-.052-.219-.079l-.082-.031c-.092-.036-.181-.074-.267-.113a7.7,7.7,0,0,1-1.189-.775l.087,9.914a7.665,7.665,0,0,0,1.19.776c.085.039.175.076.266.113a.086.086,0,0,1,.019.008l.063.022c.072.027.146.055.221.081l.1.034.225.071.063.019.032.009c.107.031.216.061.326.09h0c.11.028.221.055.333.079l.031.007.045.009c.15.033.3.065.451.092l.185.032.036.005q.213.034.431.063l.087.011c.145.019.293.036.441.054h0l.291.033.118.014c.16.018.321.037.479.058l.038.005c.151.02.3.041.448.065l.047.007c.141.024.28.051.416.08l.087.019c.116.027.23.055.34.088s.217.069.32.108l.089.034c.064.027.127.055.187.085.027.013.054.025.08.039a2.808,2.808,0,0,1,.243.142,1.423,1.423,0,0,1,.718,1.173Z" transform="translate(-1038.244 -1577.625)" fill="#09121a"/>
      <path id="Trazado_204984" data-name="Trazado 204984" d="M909.5,1672.606l.1-.023.138-.03c.038-.008.076-.014.115-.02l.1-.017.073,8.307,13.757,9.283-.087-9.914-11.4-7.69c.167.02.334.043.5.071l.116.02c.063.011.126.021.189.034l.136.027.18.038.127.028c.1.022.2.046.294.071l.082.021q.183.048.366.1l.071.021c.168.05.336.1.5.16l.025.009c.167.057.333.118.5.182l.04.016q.283.111.561.236l.027.012q.282.127.554.268l.018.009c.184.1.366.2.542.3l.009.005c.18.106.355.216.526.332,1.519,1.025,2.317,2.175,2.326,3.155q-.044-4.958-.087-9.914c-.009-.98-.808-2.13-2.326-3.155-.171-.116-.346-.226-.526-.332l-.01-.006q-.265-.156-.542-.3l-.019-.01c-.181-.094-.365-.184-.553-.268l-.027-.012c-.185-.083-.372-.163-.561-.237l-.011,0-.029-.01c-.166-.065-.334-.127-.5-.184l-.02-.006c-.168-.058-.338-.111-.507-.162l-.039-.012-.025-.008c-.123-.036-.247-.07-.37-.1l-.075-.018c-.1-.026-.2-.05-.3-.073l-.056-.013-.063-.013-.189-.039-.131-.026c-.063-.012-.127-.023-.191-.034l-.092-.017-.023,0q-.256-.041-.508-.072l-.039,0-.03,0q-.22-.024-.438-.04l-.036,0-.047,0q-.4-.025-.787-.016c-.016,0-.031,0-.046,0l-.04,0c-.124,0-.247.011-.367.02h-.008l-.021,0c-.126.011-.249.025-.371.042l-.039,0-.028,0-.148.025-.1.018-.151.033-.08.017-.011,0c-.107.025-.212.056-.313.087l-.069.022c-.1.034-.2.07-.3.11-.076.034-.147.07-.215.105l-.059.034-.073.04-.056.037-.073.047c-.037.025-.073.051-.107.078l-.061.046-.021.017c-.041.034-.08.068-.116.1l-.013.013c-.03.029-.059.058-.085.087l-.023.027-.038.044c-.026.031-.051.062-.074.094l-.033.043-.017.024c-.012.016-.021.033-.032.049s-.04.06-.059.091l-.042.071c-.017.03-.034.06-.049.09-.005.01-.012.021-.017.032s-.012.024-.017.035c-.026.053-.052.106-.076.16l-.016.035-.093.214c-.023.054-.047.109-.071.163l-.028.063c-.029.065-.06.13-.092.194-.017.034-.036.068-.054.1-.009.016-.017.033-.026.048-.028.049-.058.1-.091.146-.02.03-.042.06-.064.09s-.064.087-.1.131l-.044.056c-.046.056-.093.112-.144.168l-.012.014c-.054.058-.11.115-.17.172l-.052.049c-.044.039-.088.08-.134.119l-.069.057c-.046.037-.094.075-.142.111l-.067.05c-.072.051-.146.1-.223.149l-.025.014-.011.006-.031.017-.017.009-.037.019-.026.013-.04.02-.036.018c-.012.007-.027.013-.04.02l-.047.023-.045.021-.051.024-.072.033-.034.016-.113.051c-.26.116-.564.241-.847.337l-13.773-9.294.087,9.914,13.773,9.293c.283-.1.587-.221.846-.337l.213-.1,0,0,.089-.042.007,0,.063-.03.025-.013.046-.023.03-.014.034-.018.029-.014.025-.013.025-.013.016-.009.016-.009,0,0c.078-.047.152-.1.224-.15l.065-.048c.05-.037.1-.074.145-.113l.035-.027c.011-.01.021-.019.032-.028.046-.04.09-.079.133-.119l.055-.051c.059-.056.115-.113.168-.171l0,0,.012-.013q.074-.082.142-.166l.045-.057c.033-.043.066-.086.1-.129l.026-.035.039-.056c.032-.049.062-.1.091-.146l.029-.054c.016-.03.033-.059.048-.089l0,0c.033-.065.064-.13.094-.2l.026-.061.071-.163c.031-.072.061-.145.094-.217,0-.01.01-.02.014-.03.025-.055.051-.11.078-.164l.032-.063c.017-.032.034-.063.052-.094s.026-.046.04-.069.039-.062.06-.093.031-.048.048-.072l.034-.045c.023-.031.048-.061.073-.091.013-.015.025-.031.039-.046.034-.038.069-.075.107-.112l.014-.015c.043-.041.089-.081.137-.12l.059-.045c.035-.026.071-.053.108-.079l.072-.047c.042-.026.085-.052.13-.078l.059-.032c.068-.036.139-.071.215-.106.1-.04.2-.076.3-.11l.069-.023C909.291,1672.662,909.395,1672.632,909.5,1672.606Z" transform="translate(-890.445 -1639.821)" fill="#09121a"/>
      <g id="Grupo_152027" data-name="Grupo 152027" transform="translate(33.251 22.437)">
        <path id="Trazado_204985" data-name="Trazado 204985" d="M1163.146,1688.9l.087,9.914-42.625,17.936-.088-9.914Z" transform="translate(-1120.521 -1688.904)" fill="#09121a"/>
      </g>
      <g id="Grupo_152028" data-name="Grupo 152028">
        <path id="Trazado_204986" data-name="Trazado 204986" d="M890.445,1551.591l17.633-7.42a8.483,8.483,0,0,1,1.379,1.046c.824,1.085-.239,2.567,1.144,3.5,1.7,1.149,5.891.9,9.356-.561q.145-.061.286-.123c3.256-1.452,4.562-3.48,2.907-4.6-1.058-.714-2.881-.669-4.367-.942a9.78,9.78,0,0,1-2.178-.636,7.7,7.7,0,0,1-1.189-.775l17.655-7.428,33.252,22.437L923.7,1574.029l-13.756-9.284c.054-.025.111-.052.17-.078a16.6,16.6,0,0,1,1.816-.666c2.051-.451,4.827.1,6.6-.649,2.172-.968,1.729-3.161-.944-4.965-2.7-1.824-6.662-2.559-8.844-1.64-1.354.6-1.3,1.553-1.826,2.331a4.019,4.019,0,0,1-1.22,1.166c-.065.039-.313.165-.626.3-.26.116-.564.241-.847.337Z" transform="translate(-890.445 -1533.656)" fill="#114e58"/>
      </g>
    </g>
    <g id="Grupo_152032" data-name="Grupo 152032" transform="translate(89.447 314.12)">
      <path id="Trazado_204987" data-name="Trazado 204987" d="M163.145,1479.742c-1.182-.8-3.221-.748-4.878-1.053a10.862,10.862,0,0,1-2.436-.71,8.514,8.514,0,0,1-1.329-.866l19.727-8.3-15.371-10.372c.062-.03.129-.061.2-.092a18.2,18.2,0,0,1,2.021-.741c2.291-.5,5.392.108,7.453-.76,2.346-1.046,1.852-3.5-1.136-5.513-3.02-2.038-7.445-2.859-9.956-1.8-1.438.642-1.381,1.7-1.967,2.572a4.48,4.48,0,0,1-1.364,1.3c-.072.044-.349.184-.7.34-.29.13-.63.269-.946.377l-15.389-10.385-47.628,20.042,37.155,25.071,19.705-8.291a9.573,9.573,0,0,1,1.539,1.169c.921,1.213-.267,2.867,1.278,3.91,1.9,1.283,6.583,1,10.454-.627.109-.045.216-.092.321-.139C163.537,1483.252,164.993,1480.988,163.145,1479.742Z" transform="translate(-89.447 -1434.075)" fill="#98a7d3"/>
      <g id="Grupo_152031" data-name="Grupo 152031" transform="translate(5.818)" style="isolation: isolate">
        <g id="Grupo_152030" data-name="Grupo 152030" transform="translate(62.121 9.971)">
          <path id="Trazado_204988" data-name="Trazado 204988" d="M587.662,1445.856c0,.024,0,.048,0,.072s0,.051,0,.077,0,.042-.007.063-.005.05-.009.075-.008.048-.014.071-.007.036-.011.055-.013.049-.02.073-.009.035-.015.052-.007.021-.011.031a1.651,1.651,0,0,1-.083.2l0,0a1.73,1.73,0,0,1-.11.181l-.019.03a1.974,1.974,0,0,1-.134.167l-.041.045-.047.048c-.018.018-.037.035-.057.053l-.053.047-.05.041c-.03.025-.063.049-.1.073l-.052.037c-.035.024-.072.048-.11.071l-.049.031c-.032.019-.067.037-.1.055l-.057.032c-.055.027-.111.054-.169.08a4.542,4.542,0,0,1-.7.226q-.293.07-.6.114t-.6.068c-.286.023-.578.036-.874.044-.647.019-1.31.013-1.954.031-.291.008-.578.022-.857.044l.087,9.914c.279-.023.566-.037.856-.044.645-.018,1.309-.013,1.955-.031.3-.009.588-.022.874-.045.2-.016.407-.039.6-.067s.408-.068.6-.115a4.387,4.387,0,0,0,.7-.227q.088-.038.17-.081l.047-.026c.038-.02.075-.041.112-.062l.011-.006.032-.021c.039-.024.077-.049.114-.074l.051-.036c.033-.024.065-.048.1-.073l.029-.022.022-.019.053-.047c.019-.017.038-.035.056-.053l.047-.048.03-.03.012-.015a1.775,1.775,0,0,0,.135-.168l.009-.01.011-.018a1.647,1.647,0,0,0,.109-.182h0v0a1.734,1.734,0,0,0,.084-.2c0-.006,0-.01.006-.016l0-.012c.006-.02.012-.04.017-.059s.012-.043.018-.066.009-.04.013-.06.008-.032.01-.049,0-.012,0-.018c0-.026.007-.053.01-.08s0-.038.006-.057,0-.058,0-.088c0-.015,0-.029,0-.043v-.019Z" transform="translate(-577.681 -1445.856)" fill="#641c0c"/>
          <path id="Trazado_204989" data-name="Trazado 204989" d="M561.527,1461.829l-.01,0a16.608,16.608,0,0,0-1.8.661c-.062.028-.121.054-.177.082l.087,9.913c.056-.027.115-.054.177-.082a16.764,16.764,0,0,1,1.8-.661l.011,0c.156-.034.316-.063.48-.087.195-.028.395-.049.6-.066l-.087-9.914q-.306.024-.6.066C561.843,1461.766,561.683,1461.795,561.527,1461.829Z" transform="translate(-559.541 -1459.39)" fill="#641c0c"/>
        </g>
        <path id="Trazado_204990" data-name="Trazado 204990" d="M402.5,1542.031l-.087-9.914-17.655,7.429.072,8.25c-2.05.245-3.892.052-4.886-.618a1.772,1.772,0,0,1-.779-1.612c0-.163,0-.327,0-.49a2.2,2.2,0,0,0-.36-1.4,8.551,8.551,0,0,0-1.377-1.047l-17.636,7.421.087,9.914,17.635-7.42a8.429,8.429,0,0,1,1.377,1.047,2.037,2.037,0,0,1,.358,1.243c0,.163,0,.327,0,.49a1.863,1.863,0,0,0,.782,1.765c1.7,1.148,5.891.9,9.356-.561l.288-.125c2.3-1.028,3.632-2.345,3.622-3.422q-.03-3.528-.062-7.056Z" transform="translate(-326.535 -1509.679)" fill="#641c0c"/>
        <path id="Trazado_204991" data-name="Trazado 204991" d="M568.2,1458.025l.087,9.913c-1.845.778-4.62.23-6.67.681a16.537,16.537,0,0,0-1.809.663l-.177.082-.087-9.913c.056-.028.115-.054.177-.082a16.4,16.4,0,0,1,1.809-.664C563.578,1458.255,566.353,1458.8,568.2,1458.025Z" transform="translate(-497.42 -1446.295)" fill="#641c0c"/>
        <path id="Trazado_204992" data-name="Trazado 204992" d="M162.959,1523.408l-33.252-22.438.087,9.914,33.252,22.437Z" transform="translate(-129.707 -1483.034)" fill="#641c0c"/>
        <path id="Trazado_204993" data-name="Trazado 204993" d="M195.663,1409.083c-1.057-.714-2.882-.669-4.365-.943a9.716,9.716,0,0,1-2.179-.635,7.62,7.62,0,0,1-1.19-.775l17.655-7.429-13.756-9.282c.056-.028.115-.054.177-.082a16.376,16.376,0,0,1,1.809-.664c2.05-.451,4.825.1,6.67-.68,2.1-.936,1.658-3.13-1.016-4.933-2.7-1.824-6.663-2.559-8.91-1.612-1.287.574-1.236,1.523-1.76,2.3a4.018,4.018,0,0,1-1.22,1.166c-.065.04-.313.165-.626.3-.26.116-.564.241-.847.337l-13.772-9.294L129.707,1394.8l33.252,22.438,17.636-7.421a8.552,8.552,0,0,1,1.377,1.047c.824,1.085-.239,2.566,1.144,3.5,1.7,1.148,5.891.9,9.356-.561.1-.041.194-.083.288-.125C196.014,1412.225,197.317,1410.2,195.663,1409.083Z" transform="translate(-129.707 -1376.863)" fill="#ec640a"/>
      </g>
    </g>
    <g id="Grupo_152065" data-name="Grupo 152065" transform="translate(145.736 258.008)">
      <path id="Trazado_204994" data-name="Trazado 204994" d="M478.928,1783.1c0,5.219,9.509,9.45,21.239,9.45s21.238-4.23,21.238-9.45-9.509-9.45-21.238-9.45S478.928,1777.879,478.928,1783.1Z" transform="translate(-478.928 -1660.191)" fill="#98a7d3"/>
      <g id="Grupo_152064" data-name="Grupo 152064" transform="translate(0.855)">
        <g id="Grupo_152034" data-name="Grupo 152034" transform="translate(21.027 120.63)">
          <g id="Grupo_152033" data-name="Grupo 152033" transform="translate(0.587)">
            <path id="Trazado_204995" data-name="Trazado 204995" d="M643.932,1825.271s2.253-.412,1.619,1.426c0,0-5.26,2.259-8.933,1.75a2.3,2.3,0,0,1-2.177-2.888l-.043-2.276,3.464.656-.2,2.164Z" transform="translate(-634.398 -1823.283)" fill="#e28262"/>
          </g>
          <path id="Trazado_204996" data-name="Trazado 204996" d="M630.968,1835.84a1.455,1.455,0,0,0,.346.976c.906,1.045,2.688,1.077,3.943,1a42.556,42.556,0,0,0,6-.839c.429-.091.548-.232.553-.357a1.751,1.751,0,0,0-1.35-1.065l1.918-.245a4.834,4.834,0,0,1,2.986.61c.49,1.4-1.895,2.334-1.895,2.334a38.831,38.831,0,0,1-5.584,1.559s-6.732,1.587-7.546-.483Z" transform="translate(-630.338 -1833.563)" fill="#411323"/>
        </g>
        <g id="Grupo_152036" data-name="Grupo 152036" transform="translate(7.653 117.501)">
          <g id="Grupo_152035" data-name="Grupo 152035" transform="translate(0.587)">
            <path id="Trazado_204997" data-name="Trazado 204997" d="M551.393,1803.621s2.253-.412,1.619,1.426c0,0-5.259,2.259-8.933,1.75a2.3,2.3,0,0,1-2.177-2.888l-.043-2.276,3.464.656-.2,2.163Z" transform="translate(-541.859 -1801.633)" fill="#e28262"/>
          </g>
          <path id="Trazado_204998" data-name="Trazado 204998" d="M538.429,1814.186a1.454,1.454,0,0,0,.346.976c.906,1.045,2.688,1.077,3.943,1a42.634,42.634,0,0,0,6-.839c.43-.091.549-.232.553-.357a1.75,1.75,0,0,0-1.35-1.065l1.918-.246a4.836,4.836,0,0,1,2.986.61c.49,1.4-1.895,2.334-1.895,2.334a38.812,38.812,0,0,1-5.584,1.559s-6.732,1.588-7.546-.483Z" transform="translate(-537.799 -1811.91)" fill="#411323"/>
        </g>
        <g id="Grupo_152040" data-name="Grupo 152040" transform="translate(5.541 45.722)">
          <g id="Grupo_152037" data-name="Grupo 152037" transform="translate(0 6.544)">
            <path id="Trazado_204999" data-name="Trazado 204999" d="M536.039,1356.677a6.429,6.429,0,1,1-6.429-6.429A6.429,6.429,0,0,1,536.039,1356.677Z" transform="translate(-523.182 -1350.248)" fill="#003273"/>
            <path id="Trazado_205000" data-name="Trazado 205000" d="M525.565,1420.472s.089,1.617,2.993,1.656c0,0,2.748.937,3.935-2.641,4.676-14.093,3.44-28.8,3.44-28.8s-6.6-3.677-12.751-1.162C523.182,1389.525,524.177,1408.024,525.565,1420.472Z" transform="translate(-523.182 -1383.096)" fill="#003273"/>
          </g>
          <path id="Trazado_205001" data-name="Trazado 205001" d="M536.333,1602.053s-2.265,30.46-2.476,31.548a3.777,3.777,0,0,1-4.162-.038c.011-1.494-1.618-13.949-1.786-16.289-.289-4.02-.772-9.1,1.768-14.876Z" transform="translate(-527.023 -1559.118)" fill="#003273"/>
          <g id="Grupo_152038" data-name="Grupo 152038" transform="translate(7.802 6.542)">
            <path id="Trazado_205002" data-name="Trazado 205002" d="M592.536,1417.012s.62,1.5,3.372.57c0,0,2.9-.025,2.838-3.795-.257-14.847-6.763-30.233-6.763-30.233s-7.327-.7-12.3,3.71C579.687,1387.264,587.1,1405.726,592.536,1417.012Z" transform="translate(-579.322 -1378.705)" fill="#003d8d"/>
            <path id="Trazado_205003" data-name="Trazado 205003" d="M589.66,1354.537a6.429,6.429,0,1,1-8.2-3.936A6.429,6.429,0,0,1,589.66,1354.537Z" transform="translate(-577.164 -1350.237)" fill="#003d8d"/>
          </g>
          <path id="Trazado_205004" data-name="Trazado 205004" d="M523.182,1317.008c.777-7.149,4.364-10.467,4.364-10.467l12.427-1.57s3.427,5.961,3.784,12.037c-1.486,4.052-6.78,5.233-6.78,5.233l-4.02,1.193S523.846,1322.049,523.182,1317.008Z" transform="translate(-523.182 -1304.971)" fill="#003d8d"/>
          <g id="Grupo_152039" data-name="Grupo 152039" transform="translate(15.842 41.441)">
            <path id="Trazado_205005" data-name="Trazado 205005" d="M643.609,1594.859s-6.164,32-6.535,33.042c.163-.078-2.913,1.414-4.275-.512.232-1.476.362-17.729.542-20.067.309-4.019.266-7.769,3.634-13.107C636.975,1594.215,645.39,1588.19,643.609,1594.859Z" transform="translate(-632.799 -1591.719)" fill="#003d8d"/>
          </g>
        </g>
        <path id="Trazado_205006" data-name="Trazado 205006" d="M632.182,1771.453" transform="translate(-610.888 -1658.314)" fill="#2c130d"/>
        <g id="Grupo_152043" data-name="Grupo 152043" transform="translate(0 17.11)">
          <g id="Grupo_152041" data-name="Grupo 152041" transform="translate(0.438 17.168)">
            <path id="Trazado_205007" data-name="Trazado 205007" d="M492.055,1225.785s2.263,2.667,6.766,9.1l-.778,1.32s-7.712-3.885-10.172-8.245Z" transform="translate(-487.871 -1225.785)" fill="#e28262"/>
          </g>
          <g id="Grupo_152042" data-name="Grupo 152042">
            <path id="Trazado_205008" data-name="Trazado 205008" d="M495.839,1114.625s-5.8,12.667-9.291,12.186c0,0-1.2.075-1.444-.831,0,0-2.462-2.184,7.776-17.935a3.157,3.157,0,0,1,3.05-.993S499.038,1109.106,495.839,1114.625Z" transform="translate(-484.844 -1106.995)" fill="#e28262"/>
          </g>
        </g>
        <g id="Grupo_152044" data-name="Grupo 152044" transform="translate(14.108 14.825)">
          <rect id="Rectángulo_44782" data-name="Rectángulo 44782" width="6.275" height="6.67" fill="#f5ae80"/>
        </g>
        <g id="Grupo_152045" data-name="Grupo 152045" transform="translate(10.73 0.927)">
          <path id="Trazado_205009" data-name="Trazado 205009" d="M572.623,1009.068l.235-1.066s.47-3.905.47-3.906a3.555,3.555,0,0,0-.232-1.586,3.608,3.608,0,0,1-.319-1.623,4.577,4.577,0,0,0-1.564-4.082c-2.142-2.273-6.268-1.729-6.269-1.729-2.133.405-3.961,1.307-4.921,3.14a6.655,6.655,0,0,0-.588,5.427,11.019,11.019,0,0,0,3.771,4.737c1.09.843,2.152.9,3.533,1.278a15.435,15.435,0,0,0,3.774.308C571.039,1009.942,572.488,1009.681,572.623,1009.068Z" transform="translate(-559.088 -995.019)" fill="#f39672"/>
        </g>
        <g id="Grupo_152046" data-name="Grupo 152046" transform="translate(21.407 11.362)">
          <path id="Trazado_205010" data-name="Trazado 205010" d="M632.969,1067.217" transform="translate(-632.969 -1067.217)" fill="#2c130d"/>
        </g>
        <g id="Grupo_152047" data-name="Grupo 152047" transform="translate(10.061)">
          <path id="Trazado_205011" data-name="Trazado 205011" d="M565.807,999.963c-.31-.439-1.437-.71-1.437-.71-1.362,0-1.185,1.818-1.313,2.606-.042.256-.091.52-.149.781-.649,2.312-2.592,2.292-4.252,2.572-.062-.036-.127-.073-.194-.111a6.652,6.652,0,0,0-1.257-2.09,8.912,8.912,0,0,1-2.358-9.079,7.231,7.231,0,0,1,1.556-2.6,9.174,9.174,0,0,1,5.153-2.657c1.931-.363,8.837.574,6.953,4.768,0,0-2.842,3.278-2.7,6.522" transform="translate(-554.461 -988.602)" fill="#2c130d"/>
        </g>
        <g id="Grupo_152055" data-name="Grupo 152055" transform="translate(18.962 10.288)">
          <g id="Grupo_152051" data-name="Grupo 152051">
            <g id="Grupo_152048" data-name="Grupo 152048" transform="translate(0.151 0.127)">
              <path id="Trazado_205012" data-name="Trazado 205012" d="M619.39,1061.614a1.306,1.306,0,0,0-1.538-.9,1.027,1.027,0,0,0-.751,1.109c.01.112.035.222.045.334a2.361,2.361,0,0,0,1.46,1.653" transform="translate(-617.095 -1060.667)" fill="#f7ae80"/>
            </g>
            <g id="Grupo_152049" data-name="Grupo 152049" transform="translate(0.801 0.656)">
              <path id="Trazado_205013" data-name="Trazado 205013" d="M621.829,1064.414a.7.7,0,0,1,.3-.083c.458-.029.827.677.369.8a.261.261,0,0,0,.006.362c.157.171.369.417.322.658-.029.143-.188.22-.331.255-.115.028-.137-.062-.046-.1a.5.5,0,0,0,.174-.143c0-.008.009-.016.013-.024a.075.075,0,0,0,.011-.019.151.151,0,0,0,.005-.1.281.281,0,0,1-.355,0c-.087-.1-.021-.267-.05-.387a.9.9,0,0,0-.105-.237.244.244,0,0,1,.168-.409,1.172,1.172,0,0,1,.139.01c.192-.1-.022-.387-.139-.433a.369.369,0,0,0-.4.07.568.568,0,0,0-.127.4,1.326,1.326,0,0,0,.124.484c.042.087.094.188.136.275s-.067.141-.114.043a2.872,2.872,0,0,1-.327-.8A.6.6,0,0,1,621.829,1064.414Z" transform="translate(-621.596 -1064.33)" fill="#dc9472"/>
            </g>
            <g id="Grupo_152050" data-name="Grupo 152050">
              <path id="Trazado_205014" data-name="Trazado 205014" d="M618.5,1060.862s-.055-.078-.144-.219a1.856,1.856,0,0,0-.19-.219,1.506,1.506,0,0,0-.289-.225,1.19,1.19,0,0,0-.391-.141,1.008,1.008,0,0,0-.446.031,1.242,1.242,0,0,0-.227.1,1.133,1.133,0,0,0-.18.138.861.861,0,0,0-.238.407,1.216,1.216,0,0,0-.008.505l.017.137,0,.018v0c0-.008,0,.02,0-.017v.013l.007.033.014.068a1.482,1.482,0,0,0,.065.242,1.977,1.977,0,0,0,.213.423,2.541,2.541,0,0,0,.274.341,3.12,3.12,0,0,0,.517.429c.137.09.222.136.222.136a1.575,1.575,0,0,1-.25-.082,2.6,2.6,0,0,1-.609-.349,2.087,2.087,0,0,1-.342-.335,1.812,1.812,0,0,1-.283-.466,1.782,1.782,0,0,1-.092-.274l-.017-.066-.009-.034,0-.009,0-.027,0-.018-.02-.137a1.5,1.5,0,0,1,.006-.615,1.182,1.182,0,0,1,.336-.547c.041-.034.08-.07.124-.1l.144-.081a1.343,1.343,0,0,1,.277-.1,1.143,1.143,0,0,1,.565.008,1.236,1.236,0,0,1,.443.222,1.258,1.258,0,0,1,.277.3,1.92,1.92,0,0,1,.155.267C618.465,1060.77,618.5,1060.862,618.5,1060.862Z" transform="translate(-616.05 -1059.788)" fill="#dc9472"/>
            </g>
          </g>
          <g id="Grupo_152054" data-name="Grupo 152054" transform="translate(1.661 2.598)">
            <g id="Grupo_152052" data-name="Grupo 152052">
              <path id="Trazado_205015" data-name="Trazado 205015" d="M627.541,1078.144a.38.38,0,1,0,.38-.38A.381.381,0,0,0,627.541,1078.144Z" transform="translate(-627.541 -1077.764)" fill="#fff"/>
            </g>
            <g id="Grupo_152053" data-name="Grupo 152053">
              <path id="Trazado_205016" data-name="Trazado 205016" d="M627.83,1078.347a.3.3,0,0,0,.3-.3.3.3,0,0,0-.21-.282h0a.38.38,0,1,1-.38.38c0-.009,0-.018,0-.027A.3.3,0,0,0,627.83,1078.347Z" transform="translate(-627.541 -1077.764)" fill="#e8e8e8"/>
            </g>
          </g>
        </g>
        <g id="Grupo_152056" data-name="Grupo 152056" transform="translate(3.962 17.121)">
          <path id="Trazado_205017" data-name="Trazado 205017" d="M512.325,1140.219l6.928-9.94a13.3,13.3,0,0,0-.405-4.367l-2.214-15.232c.262-1.746.383-3.962,2.746-3.566a14.647,14.647,0,0,1,3.023.843c-.3,1.415,2.14,2.324,2.14,2.324,3.359,1.451,4.135.495,4.135.495a50.033,50.033,0,0,1,4.7,2.639,3.461,3.461,0,0,1,1.052,3.473l-2.417,14.437.425,3.586,4.416,11.2a9.494,9.494,0,0,0-4.3-.514c-1.373.164-2.556.974-3.92,1.125a7.578,7.578,0,0,1-5.145-1.5,24.83,24.83,0,0,1-5.955-2.093H517.4c-1.541.008-3.287-.019-4.424-1.225C512.739,1141.641,512.033,1140.638,512.325,1140.219Z" transform="translate(-512.255 -1107.067)" fill="#411323"/>
        </g>
        <g id="Grupo_152057" data-name="Grupo 152057" transform="translate(20.962 23.442)">
          <path id="Trazado_205018" data-name="Trazado 205018" d="M636.864,1173.94l-.04-17.537c-.427-4.806-2.814-5.573-2.814-5.573-4.824-.565-4.081,8.374-4.081,8.374l2.014,15.108" transform="translate(-629.887 -1150.804)" fill="#f39672"/>
        </g>
        <g id="Grupo_152058" data-name="Grupo 152058" transform="translate(29.791 18.331)">
          <path id="Trazado_205019" data-name="Trazado 205019" d="M700.586,1136.685l-9.609-4.144,7.561-17.1,10.316,4.142Z" transform="translate(-690.977 -1115.438)" fill="#c9e9fc"/>
        </g>
        <g id="Grupo_152059" data-name="Grupo 152059" transform="translate(38.318 32.724)">
          <path id="Trazado_205020" data-name="Trazado 205020" d="M754.369,1215.031a4.727,4.727,0,0,1-1.169,1.521c-.582.461-1.556.322-1.931.658-.653.587-2.679,3.319.244,3.327.68,0,3.021.008,3.423-1.1a3.788,3.788,0,0,0-.123-3.7Z" transform="translate(-749.977 -1215.031)" fill="#f39672"/>
        </g>
        <g id="Grupo_152062" data-name="Grupo 152062" transform="translate(22.712 35.882)">
          <g id="Grupo_152060" data-name="Grupo 152060" transform="translate(0 9.465)">
            <path id="Trazado_205021" data-name="Trazado 205021" d="M642,1302.369" transform="translate(-641.996 -1302.369)" fill="#f7ae80"/>
          </g>
          <g id="Grupo_152061" data-name="Grupo 152061" transform="translate(0.095)">
            <path id="Trazado_205022" data-name="Trazado 205022" d="M644.638,1244.39l15.389-7.511c1.85.515,1.58,1.346,1.58,1.346l-9.45,7.559c-3.953,3.285-6.791,3.686-6.791,3.686s-2.482.9-2.709-2.652A2.676,2.676,0,0,1,644.638,1244.39Z" transform="translate(-642.656 -1236.879)" fill="#f39672"/>
          </g>
        </g>
        <g id="Grupo_152063" data-name="Grupo 152063" transform="translate(4.917 0.212)">
          <path id="Trazado_205023" data-name="Trazado 205023" d="M536.693,1000.144c-.39,2.908.049,6.758-1.4,9.937-.645,1.416-1.357,2.117-.97,3.758.316,1.344.952,2.612,1.3,4,.761,3.071-.273,6.071-3.852,4.959a3.727,3.727,0,0,0-3.47.081,4.537,4.537,0,0,1-3.851.015c-2.023-.985-1.414-2.475-2.547-3.967-.864-1.136-2.085-1.108-2.736-2.635-.785-1.844.15-2.828,1.108-4.392a5.752,5.752,0,0,0,.828-4.668c-.275-1.651.132-2.486.679-4,.561-1.555.316-2.91.582-4.47.525-3.084,2.21-7.269,5.441-8.174a9.061,9.061,0,0,1,5.153-.231c2.075.761,4.386,1.572,4.3,4.124A42.137,42.137,0,0,1,536.693,1000.144Z" transform="translate(-518.869 -990.067)" fill="#2c130d"/>
        </g>
        <path id="Trazado_205024" data-name="Trazado 205024" d="M756.98,1214.954s.762,1.056,1.4-.37l-.066-1.884a.591.591,0,0,0-.393-.648s-.311,0-.382.537Z" transform="translate(-717.65 -1179.758)" fill="#f39672"/>
      </g>
    </g>
  </g>
</svg>
