<svg id="Grupo_144735" data-name="Grupo 144735" xmlns="http://www.w3.org/2000/svg" width="275.396" height="260.113" viewBox="0 0 275.396 260.113">
  <g id="Grupo_144740" data-name="Grupo 144740" transform="translate(54.113 140.3)">
    <g id="Grupo_144739" data-name="Grupo 144739" transform="translate(0 0)">
      <g id="Grupo_144735-2" data-name="Grupo 144735-2" transform="translate(35.279)">
        <path id="Trazado_187561" data-name="Trazado 187561" d="M1003.032,822.421l-41.305-17.382L929.5,826.783l17.11,7.2a7.4,7.4,0,0,1-1.153.754,9.467,9.467,0,0,1-2.11.614c-1.44.266-3.2.222-4.231.913-1.6,1.083-.341,3.046,2.814,4.452l.283.122c3.358,1.413,7.418,1.656,9.066.542,1.34-.9.309-2.339,1.109-3.391a8.117,8.117,0,0,1,1.336-1.015l17.088,7.191,13.333-9c-.055-.025-.111-.052-.172-.078a15.828,15.828,0,0,0-1.755-.643c-1.989-.437-4.677.094-6.395-.63-2.105-.937-1.675-3.063.915-4.811,2.619-1.767,6.456-2.479,8.573-1.59,1.312.585,1.261,1.507,1.77,2.261a3.891,3.891,0,0,0,1.181,1.13c.062.039.3.157.6.293.252.113.549.236.826.329Z" transform="translate(-929.503 -805.039)" fill="#98a7d3"/>
      </g>
      <path id="Trazado_187562" data-name="Trazado 187562" d="M828.7,1056.086c-1.042-.7-2.839-.659-4.3-.929a9.547,9.547,0,0,1-2.147-.625,7.5,7.5,0,0,1-1.171-.763l17.39-7.318-13.55-9.138c.055-.027.114-.054.174-.081a16.2,16.2,0,0,1,1.782-.654c2.019-.443,4.753.094,6.57-.67,2.073-.922,1.633-3.083-1-4.86-2.662-1.8-6.563-2.52-8.775-1.588-1.268.565-1.217,1.5-1.734,2.267a3.96,3.96,0,0,1-1.2,1.148c-.063.039-.308.161-.617.3-.255.115-.556.237-.835.333l-13.565-9.154-41.984,17.667,32.752,22.1,17.37-7.308a8.379,8.379,0,0,1,1.357,1.031c.812,1.068-.235,2.526,1.131,3.446,1.678,1.13,5.8.884,9.216-.552l.283-.122C829.049,1059.182,830.333,1057.186,828.7,1056.086Z" transform="translate(-763.738 -977.679)" fill="#98a7d3"/>
      <g id="Grupo_144736" data-name="Grupo 144736" transform="translate(97.44 19.533)">
        <path id="Trazado_187563" data-name="Trazado 187563" d="M1221.576,914.486l17.368-7.309a8.348,8.348,0,0,1,1.358,1.031c.812,1.069-.235,2.528,1.13,3.447,1.678,1.131,5.8.884,9.215-.552l.283-.122c3.2-1.43,4.493-3.427,2.863-4.527-1.042-.7-2.837-.66-4.3-.928a9.571,9.571,0,0,1-2.146-.625,7.611,7.611,0,0,1-1.172-.764l17.389-7.317,32.752,22.1-41.985,17.666-13.55-9.144c.054-.026.109-.052.167-.078a16.391,16.391,0,0,1,1.79-.659c2.021-.444,4.755.094,6.5-.639,2.139-.953,1.7-3.109-.93-4.89-2.662-1.8-6.562-2.52-8.711-1.616-1.334.594-1.282,1.53-1.8,2.3a3.962,3.962,0,0,1-1.2,1.148c-.064.038-.308.161-.617.3-.255.114-.555.238-.834.332Z" transform="translate(-1221.576 -896.82)" fill="#98a7d3"/>
      </g>
      <g id="Grupo_144738" data-name="Grupo 144738" transform="translate(79.852 67.814)">
        <g id="Grupo_144737" data-name="Grupo 144737">
          <path id="Trazado_187564" data-name="Trazado 187564" d="M1212.473,1141.059l-17.09-7.191a8.2,8.2,0,0,0-1.335,1.014c-.8,1.051.232,2.487-1.108,3.391-1.65,1.114-5.709.87-9.066-.543l-.283-.121c-3.155-1.406-4.417-3.372-2.815-4.453,1.025-.692,2.793-.647,4.231-.913a9.408,9.408,0,0,0,2.111-.615,7.4,7.4,0,0,0,1.152-.754l-17.109-7.2-13.346,9.007c-.276-.094-.574-.216-.826-.329-.3-.134-.539-.254-.6-.293a3.9,3.9,0,0,1-1.184-1.13c-.509-.754-.458-1.675-1.705-2.232-2.178-.917-6.015-.205-8.635,1.562-2.591,1.748-3.015,3.874-.984,4.781,1.79.754,4.476.221,6.464.659a15.738,15.738,0,0,1,1.754.643q.09.039.172.079l-13.331,8.995,41.307,17.382Z" transform="translate(-1138.938 -1123.675)" fill="#98a7d3"/>
        </g>
      </g>
    </g>
  </g>
  <g id="Grupo_144852" data-name="Grupo 144852" transform="translate(28.024 15.8)">
    <g id="Grupo_144770" data-name="Grupo 144770" transform="translate(35.117)">
      <path id="Trazado_187565" data-name="Trazado 187565" d="M853.348,832.49c0,5.8-10.563,10.5-23.594,10.5s-23.593-4.7-23.593-10.5,10.563-10.5,23.593-10.5S853.348,826.687,853.348,832.49Z" transform="translate(-806.161 -693.885)" fill="#98a7d3"/>
      <g id="Grupo_144769" data-name="Grupo 144769" transform="translate(11.642)">
        <g id="Grupo_144743" data-name="Grupo 144743" transform="translate(17.407 129.615)">
          <path id="Trazado_187566" data-name="Trazado 187566" d="M945.968,851.256l.387-.071.387-3.249-1.016-1.2Z" transform="translate(-945.072 -842.974)" fill="#401427"/>
          <g id="Grupo_144742" data-name="Grupo 144742">
            <path id="Trazado_187567" data-name="Trazado 187567" d="M943.083,847.357l.466.264-.073-5.318-.822-.188Z" transform="translate(-942.654 -839.34)" fill="#161c29"/>
            <g id="Grupo_144741" data-name="Grupo 144741" transform="translate(0.014)">
              <path id="Trazado_187568" data-name="Trazado 187568" d="M946.874,830.4l.863,2.851a19.206,19.206,0,0,0,2.144,3.83s1.749,2.4-1.523,2.237c0,0-3.486-.188-3.437-2.425.045-1.925-1.724-4.316-1.724-4.316a1.947,1.947,0,0,1,.228-2.3l.6-.692,2.934-.512Z" transform="translate(-942.881 -829.075)" fill="#e28262"/>
              <path id="Trazado_187569" data-name="Trazado 187569" d="M949.906,839.878a4.4,4.4,0,0,1-3.8-1.15c-.907-.894-1.943-4.164-1.6-3.078.142.448-.925-3.526-.641-4.145l-.6.691a2.031,2.031,0,0,0-.288,2.355s1.829,2.329,1.783,4.254c-.053,2.238,3.437,2.425,3.437,2.425,1.964.094,2.119-.73,1.928-1.4A2.054,2.054,0,0,1,949.906,839.878Z" transform="translate(-942.72 -830.988)" fill="#161c29"/>
              <path id="Trazado_187570" data-name="Trazado 187570" d="M958.585,860.608s.493.931-1.07.931c0,0-5.856-.372-5.853-2.888v-2.026s.461,2.893,4.076,2.9c0,0,1.6,0,.776-1.023Z" transform="translate(-949.759 -850.761)" fill="#161c29"/>
            </g>
          </g>
        </g>
        <g id="Grupo_144768" data-name="Grupo 144768">
          <path id="Trazado_187571" data-name="Trazado 187571" d="M911.11,223.954a3.9,3.9,0,1,1-3.9-3.9,3.9,3.9,0,0,1,3.9,3.9Z" transform="translate(-894.282 -220.057)" fill="#151e40"/>
          <path id="Trazado_187572" data-name="Trazado 187572" d="M934.636,281.827h7.678c-.348-1.117-1.072-4.009.047-5.978l-7.754-5.087S935.982,279.3,934.636,281.827Z" transform="translate(-918.912 -259.971)" fill="#f39672"/>
          <path id="Trazado_187573" data-name="Trazado 187573" d="M935.486,276.992a3.372,3.372,0,0,0,2.416,2.131,8.1,8.1,0,0,0,3.9.288,6.069,6.069,0,0,1,.548-3.58l-7.754-5.087s.42,2.607.565,5.365C935.268,276.4,935.371,276.7,935.486,276.992Z" transform="translate(-918.902 -259.957)" fill="#db765e"/>
          <path id="Trazado_187574" data-name="Trazado 187574" d="M935.808,241.26l.407-1.155.994-3.391a3.425,3.425,0,0,0,.017-1.8,5.453,5.453,0,0,1-.158-2.819,5.676,5.676,0,0,0-.74-4.7c-1.8-2.841-6.06-2.826-6.06-2.826a5.93,5.93,0,0,0-5.693,5.37c-.848,3.391,1.859,6.205,1.864,6.211a3.759,3.759,0,0,1,.544,1.374,4.234,4.234,0,0,0,.771,1.288,9.46,9.46,0,0,0,2.7,2.167,10.417,10.417,0,0,0,4.057.957C935.047,241.916,935.574,241.922,935.808,241.26Z" transform="translate(-910.886 -223.604)" fill="#f39672"/>
          <g id="Grupo_144746" data-name="Grupo 144746" transform="translate(0 131.235)">
            <path id="Trazado_187575" data-name="Trazado 187575" d="M862.536,854.742l.39.056,1.413-2.953-.577-1.466Z" transform="translate(-862.18 -847.464)" fill="#401427"/>
            <g id="Grupo_144745" data-name="Grupo 144745">
              <path id="Trazado_187576" data-name="Trazado 187576" d="M860.863,850.111l.356.4,1.637-5.062-.718-.44Z" transform="translate(-860.863 -843.239)" fill="#161c29"/>
              <g id="Grupo_144744" data-name="Grupo 144744" transform="translate(1.245)">
                <path id="Trazado_187577" data-name="Trazado 187577" d="M871.24,838.368c-.077,2.376-.254,5.044.7,7.293,0,0,.887,2.832-2.161,1.631,0,0-3.245-1.3-2.477-3.4.66-1.81-.249-4.641-.249-4.641a1.948,1.948,0,0,1,.953-2.1l.8-.461h3.05Z" transform="translate(-866.95 -836.687)" fill="#f39672"/>
                <path id="Trazado_187578" data-name="Trazado 187578" d="M871.6,846.567a4.4,4.4,0,0,1-3.23-2.308c-.573-1.138-.5-4.568-.527-3.428-.01.471.255-3.637.724-4.134l-.8.461a2.032,2.032,0,0,0-1.03,2.142s.985,2.792.324,4.6c-.768,2.1,2.477,3.4,2.477,3.4,1.83.721,2.24-.011,2.278-.712A1.917,1.917,0,0,1,871.6,846.567Z" transform="translate(-866.711 -836.695)" fill="#161c29"/>
                <path id="Trazado_187579" data-name="Trazado 187579" d="M873.333,867.629s.168,1.036-1.312.539c0,0-5.427-2.231-4.616-4.616l.648-1.921s-.492,2.887,2.931,4.051c0,0,1.521.515,1.064-.721Z" transform="translate(-867.192 -856.322)" fill="#161c29"/>
              </g>
            </g>
          </g>
          <path id="Trazado_187580" data-name="Trazado 187580" d="M880.623,666.633c-3.892,7.186-4.58,10.111-5.275,15.576-.4,3.179-.269,16.566-.687,18.559-.174.828,2.972.377,2.972.377.576-1.4,9.738-32.16,9.738-32.16s1.024-3.186.174-3.74C883.277,662.462,882.32,663.5,880.623,666.633Z" transform="translate(-871.719 -569.225)" fill="#f39672"/>
          <path id="Trazado_187581" data-name="Trazado 187581" d="M874.837,701.789c.576-1.4,9.643-32.8,9.643-32.8s1.024-3.186.174-3.74c-4.272-2.783-5.228-1.745-6.925,1.388-3.892,7.186-4.58,10.111-5.276,15.576-.4,3.179-1.06,16.1-1.476,18.1C870.98,700.312,873.308,703.086,874.837,701.789Z" transform="translate(-868.825 -569.228)" fill="#1d2127"/>
          <path id="Trazado_187582" data-name="Trazado 187582" d="M914.228,426.811s2.991,12.658,2.59,14.037c-1.157,3.983-11.887,9.572-21.667,1.421a72.446,72.446,0,0,1,6.882-17.282S903.734,426.754,914.228,426.811Z" transform="translate(-887.853 -381.373)" fill="#1d2127"/>
          <path id="Trazado_187583" data-name="Trazado 187583" d="M922.813,312.069s3.914,7.567,5.662,11.719c-.732,4.867-3.376,12.086-4.439,13.608-2.329,3.336-12.976.358-12.976.358l-3.064-10.246c8.958-3.217,4.239-12.655,4.239-12.655l1.4-.887s1.433,4.64,7.263,4.474c0,0,1.915-1.247.506-6.539A8.182,8.182,0,0,1,922.813,312.069Z" transform="translate(-897.964 -292.354)" fill="#4c3887"/>
          <path id="Trazado_187584" data-name="Trazado 187584" d="M931.836,489.331s1.031,20.422,4.8,31.405c.565,1.637,7.019-.539,7.019-.539s3.258-17.571,3.063-24.852c-.11-4.114-1.583-12.986-1.583-12.986S933.034,480.777,931.836,489.331Z" transform="translate(-916.731 -426.444)" fill="#e28262"/>
          <path id="Trazado_187585" data-name="Trazado 187585" d="M944.089,661.039l6.834-.466s-4.2,34.862-4.579,36.327c0,0-2.938,1.063-2.878.219.142-2.036-2.309-17.68-2.383-20.884C940.961,671.09,941.163,667.84,944.089,661.039Z" transform="translate(-923.989 -566.82)" fill="#e28262"/>
          <path id="Trazado_187586" data-name="Trazado 187586" d="M931.836,489.331s1.031,20.422,4.8,31.405c.565,1.637,7.019-.539,7.019-.539s3.258-17.571,3.063-24.852c-.11-4.114-1.583-12.986-1.583-12.986S933.034,480.777,931.836,489.331Z" transform="translate(-916.731 -426.444)" fill="#181b21"/>
          <path id="Trazado_187587" data-name="Trazado 187587" d="M947.189,697.119c.693-1.346,3.733-36.545,3.733-36.545l-6.834.466c-2.926,6.8-3.128,10.051-3.007,15.2.074,3.2,1.626,18.848,1.483,20.884C942.565,697.119,946.279,698.887,947.189,697.119Z" transform="translate(-923.989 -566.82)" fill="#181b21"/>
          <g id="Grupo_144753" data-name="Grupo 144753" transform="translate(24.385 20.577)">
            <g id="Grupo_144747" data-name="Grupo 144747">
              <path id="Trazado_187588" data-name="Trazado 187588" d="M988.268,340.671l-5.181-18.781c-1.865-5.024-4.648-5.147-4.648-5.147-5.335.807-1.92,10.168-1.92,10.168l6.584,15.6" transform="translate(-975.442 -316.743)" fill="#e28262"/>
            </g>
            <g id="Grupo_144752" data-name="Grupo 144752" transform="translate(7.085 21.76)">
              <g id="Grupo_144748" data-name="Grupo 144748" transform="translate(17.687 11.187)">
                <path id="Trazado_187589" data-name="Trazado 187589" d="M1094.9,476.562c-2.239-1.662-2.395-2.113-2.732-2.789-1.46-2.9,2.261-2.261,3.174-1.912.522.2.365,1.491,1.809,3.306,0,0,2.406,1.918,3.07,1.9,0,0,.659.2.59.683C1100.811,477.756,1098.8,478.574,1094.9,476.562Z" transform="translate(-1091.836 -471.547)" fill="#e28262"/>
              </g>
              <g id="Grupo_144751" data-name="Grupo 144751">
                <g id="Grupo_144749" data-name="Grupo 144749" transform="translate(2.36)">
                  <path id="Trazado_187590" data-name="Trazado 187590" d="M1019.82,418.985" transform="translate(-1019.82 -418.985)" fill="#e28262"/>
                </g>
                <g id="Grupo_144750" data-name="Grupo 144750" transform="translate(0 0.091)">
                  <path id="Trazado_187591" data-name="Trazado 187591" d="M1014.072,420.4l15.167,11.477c.419,2.091-.54,2.242-.54,2.242l-12.237-5.569c-5.24-2.267-7.065-4.877-7.065-4.877s-2.141-2.005,1.267-4.017A2.986,2.986,0,0,1,1014.072,420.4Z" transform="translate(-1008.733 -419.412)" fill="#e28262"/>
                </g>
              </g>
              <path id="Trazado_187592" data-name="Trazado 187592" d="M1105.833,469.817s-.66,1.284,1.07,1.2l1.835-1.012a.66.66,0,0,0,.444-.714s-.156-.309-.724-.109Z" transform="translate(-1085.07 -458.447)" fill="#e28262"/>
            </g>
          </g>
          <path id="Trazado_187593" data-name="Trazado 187593" d="M892.587,504.653s.079,20.429,2.773,31.728c.4,1.684,6.556,1.168,6.556,1.168s4.017-19.321,4.529-26.584c.289-4.105,1.111-11.292,1.111-11.292S893.144,498.247,892.587,504.653Z" transform="translate(-885.835 -440.057)" fill="#f39672"/>
          <path id="Trazado_187594" data-name="Trazado 187594" d="M899.382,316.914a4.724,4.724,0,0,0-1.535,5.747l5.935,14.405s9.618,3.272,11.947-.065c1.063-1.522,2.047-5.558,3.338-11.385.878-3.957.937-10.871-1.291-12.918-1.285-1.181-5.443-1.157-5.474-1.3l-6.737,2.167Z" transform="translate(-889.653 -291.96)" fill="#f39672"/>
          <path id="Trazado_187595" data-name="Trazado 187595" d="M911.559,423.21a18.2,18.2,0,0,1,3.645,1.112s2.215,9.439,2.341,10.874-9.745,8.864-20.771,4.634c0,0,5.568-13.133,6.382-15.878C904.089,420.8,911.559,423.21,911.559,423.21Z" transform="translate(-889.131 -379.279)" fill="#f39672"/>
          <path id="Trazado_187596" data-name="Trazado 187596" d="M984.5,340.124s3.255,3.832,3.528,6.679c.152,1.586-1.849,4.239-2.851,5.217C984.468,352.714,980.264,342.769,984.5,340.124Z" transform="translate(-956.719 -314.571)" fill="#4c3887"/>
          <path id="Trazado_187597" data-name="Trazado 187597" d="M896.294,487.119s-3.888.864-3.537,7.991c.342,6.96,13.014,8.407,14.641,1.394C909.147,488.956,903.213,484.532,896.294,487.119Z" transform="translate(-885.951 -429.697)" fill="#1d2127"/>
          <path id="Trazado_187598" data-name="Trazado 187598" d="M919.478,236.125a9.74,9.74,0,0,1,.034-2.255c.056-.7,1.434.811,1.405-.1-.131-4.186,1.391-6.181,1.986-6.5a7.367,7.367,0,0,1,4.671-.886c2.118.377,2.037,3.2,2.037,3.2,1.8-10.32-9.7-7.022-9.7-7.022a6.379,6.379,0,0,0-5.028,6.755c-.687,5.672,4.687,8.95,4.687,8.95Z" transform="translate(-903.336 -221.627)" fill="#1b2a59"/>
          <g id="Grupo_144762" data-name="Grupo 144762" transform="translate(14.267 10.543)">
            <g id="Grupo_144758" data-name="Grupo 144758">
              <g id="Grupo_144757" data-name="Grupo 144757">
                <g id="Grupo_144756" data-name="Grupo 144756">
                  <g id="Grupo_144755" data-name="Grupo 144755">
                    <g id="Grupo_144754" data-name="Grupo 144754">
                      <path id="Trazado_187599" data-name="Trazado 187599" d="M930.141,272.734a1.13,1.13,0,0,1-.73.222,1.657,1.657,0,0,1-1.507-1.7,1.522,1.522,0,0,1,1.379-1.653l.059,0a1.433,1.433,0,0,1,1.01.461,2.067,2.067,0,0,1,.311,1.685A1.558,1.558,0,0,1,930.141,272.734Z" transform="translate(-927.898 -269.597)" fill="#f3906b"/>
                    </g>
                  </g>
                </g>
              </g>
            </g>
            <g id="Grupo_144761" data-name="Grupo 144761" transform="translate(0.759 0.529)">
              <g id="Grupo_144759" data-name="Grupo 144759">
                <path id="Trazado_187600" data-name="Trazado 187600" d="M932.474,272.414c-.048-.487-1.036-.023-.884.252a1.5,1.5,0,0,0,.395.384.715.715,0,0,1,.3.532c0,.027.009.112-.02.132-.127.089-.545-.386-.637-.487a.814.814,0,0,1-.119-.778.487.487,0,0,1,.54-.365c.222.013.447.028.434.3,0,0-.01.051-.013.026Z" transform="translate(-931.463 -272.081)" fill="#e47a5d"/>
              </g>
              <g id="Grupo_144760" data-name="Grupo 144760" transform="translate(0.131 0.792)">
                <path id="Trazado_187601" data-name="Trazado 187601" d="M932.643,275.85c.1-.1.2-.017.305.058a.47.47,0,0,1,.176.283A1.145,1.145,0,0,1,933,277a.614.614,0,0,1-.529.283c-.3-.009-.384-.27-.4-.522,0-.067-.008-.225.057-.268s.121.065.17.113a.419.419,0,0,0,.252.094.537.537,0,0,0,.441-.2.24.24,0,0,0,.045-.075c0,.164-.01.2-.026.11a.464.464,0,0,0-.056-.116c-.069-.114-.188-.189-.262-.3-.037-.05-.106-.226-.055-.283Z" transform="translate(-932.077 -275.803)" fill="#e47a5d"/>
              </g>
            </g>
          </g>
          <g id="Grupo_144764" data-name="Grupo 144764" transform="translate(19.435 7.844)">
            <path id="Trazado_187602" data-name="Trazado 187602" d="M957.712,265.655c.029.292-.109.544-.307.565s-.377-.2-.409-.494.109-.544.307-.565S957.684,265.364,957.712,265.655Z" transform="translate(-955.968 -263.406)" fill="#341e13"/>
            <path id="Trazado_187603" data-name="Trazado 187603" d="M976.75,263.018c.01.293-.141.536-.34.542s-.368-.223-.377-.516.141-.536.34-.542S976.739,262.725,976.75,263.018Z" transform="translate(-970.956 -261.313)" fill="#341e13"/>
            <path id="Trazado_187604" data-name="Trazado 187604" d="M952.18,260.456a4.027,4.027,0,0,1,2.55-.736s.12-.007.088-.371c0,0-.01-.323-.268-.291C954.551,259.059,952.274,258.907,952.18,260.456Z" transform="translate(-952.18 -258.599)" fill="#1b2a59"/>
            <path id="Trazado_187605" data-name="Trazado 187605" d="M975.18,257.244c-.794-.643-2.255-.141-2.255-.141-.257.038-.182.351-.182.351.064.36.182.334.182.334a4.943,4.943,0,0,1,2.154-.153C975.113,257.5,975.149,257.372,975.18,257.244Z" transform="translate(-968.358 -256.916)" fill="#1b2a59"/>
            <g id="Grupo_144763" data-name="Grupo 144763" transform="translate(2.232 5.947)">
              <path id="Trazado_187606" data-name="Trazado 187606" d="M965.716,284.861l-2.883.533c-.152.028-.212.118-.13.2a1.824,1.824,0,0,0,3.166-.594C965.909,284.9,965.839,284.852,965.716,284.861Z" transform="translate(-962.666 -284.86)" fill="#fff"/>
            </g>
            <path id="Trazado_187607" data-name="Trazado 187607" d="M967.265,272.837c1.507-.109,1.594-.505,1.594-.505l-.792-1.593S968.249,272.331,967.265,272.837Z" transform="translate(-964.055 -267.797)" fill="#e47a5d"/>
          </g>
          <path id="Trazado_187608" data-name="Trazado 187608" d="M892.587,504.653s.079,20.429,2.773,31.728c.4,1.684,6.556,1.168,6.556,1.168s4.017-19.321,4.529-26.584c.289-4.105,1.111-11.292,1.111-11.292S893.144,498.247,892.587,504.653Z" transform="translate(-885.835 -440.057)" fill="#1d2127"/>
          <path id="Trazado_187609" data-name="Trazado 187609" d="M914.228,426.811s2.991,12.658,2.59,14.037c-1.157,3.983-11.887,9.572-21.667,1.421a72.446,72.446,0,0,1,6.882-17.282S903.734,426.754,914.228,426.811Z" transform="translate(-887.853 -381.373)" fill="#1d2127"/>
          <path id="Trazado_187610" data-name="Trazado 187610" d="M911.785,337.75s10.949,3.374,13.278.038c1.063-1.522,3.4-9.138,4.138-14-1.748-4.151-5.662-11.719-5.662-11.719a8.193,8.193,0,0,0-1.407-.169c1.413,5.293-.506,6.539-.506,6.539-5.83.166-7.263-4.474-7.263-4.474l-1.4.887s4.343,9.021-4.04,13.146C908.917,327.992,908.714,337.673,911.785,337.75Z" transform="translate(-898.688 -292.35)" fill="#f9c852"/>
          <path id="Trazado_187611" data-name="Trazado 187611" d="M934.929,283.287a.5.5,0,1,1-.5-.5.5.5,0,0,1,.5.5Z" transform="translate(-918.379 -269.437)" fill="#fff"/>
          <g id="Grupo_144767" data-name="Grupo 144767" transform="translate(5.096 24.73)">
            <path id="Trazado_187612" data-name="Trazado 187612" d="M899.92,337.8a4.5,4.5,0,0,1-.193,6.361h0c-1.811,1.7-7.5,4.952-7.555,2.465-.1-4.885.086-7.536,1.9-9.243S898.217,335.983,899.92,337.8Z" transform="translate(-890.585 -336.255)" fill="#f39672"/>
            <path id="Trazado_187613" data-name="Trazado 187613" d="M894.348,354.51l-3.933-2.267-3.957,2.474s-2.314,14.741-1.461,18.116c.908,3.595,2.559.947,3.341-.037C888.341,372.794,894.793,357.375,894.348,354.51Z" transform="translate(-884.809 -348.84)" fill="#f39672"/>
            <path id="Trazado_187614" data-name="Trazado 187614" d="M888.51,438a89.583,89.583,0,0,0,13.352,7.8s2.072-.871,1.036-1.829c-1.761-1.628-9.461-9-11.239-10.632C888.51,432.261,888.51,438,888.51,438Z" transform="translate(-887.722 -412.57)" fill="#f39672"/>
            <g id="Grupo_144766" data-name="Grupo 144766" transform="translate(13.803 31.342)">
              <g id="Grupo_144765" data-name="Grupo 144765">
                <path id="Trazado_187615" data-name="Trazado 187615" d="M953.582,488.229c-2.559-1.106-2.814-1.507-3.3-2.09-2.085-2.49,1.687-2.722,2.653-2.587.554.078.7,1.369,2.516,2.805,0,0,2.78,1.319,3.424,1.152,0,0,.688.04.729.53C959.607,488.04,957.837,489.3,953.582,488.229Z" transform="translate(-949.666 -483.521)" fill="#f39672"/>
              </g>
              <path id="Trazado_187616" data-name="Trazado 187616" d="M963.143,483.522s-1.1.942.542,1.516l2.08-.25s.587.023.679-.5c0,0-.028-.345-.63-.372Z" transform="translate(-959.992 -483.522)" fill="#f39672"/>
            </g>
          </g>
        </g>
      </g>
    </g>
    <g id="Grupo_144772" data-name="Grupo 144772" transform="translate(57.983 42.64)">
      <path id="Trazado_187617" data-name="Trazado 187617" d="M1121.518,516.523l-.094-.021c-.047-.01-.094-.022-.142-.031l-.1-.018-.1-.017-.071,8.051-13.332,9,.084-9.609,11.045-7.452q-.243.028-.49.069l-.107.018-.188.034-.126.026-.183.038-.115.026c-.094.023-.193.045-.29.07l-.077.02q-.179.046-.358.1l-.063.019q-.247.073-.492.156l-.017.007q-.247.085-.49.179l-.035.014q-.276.109-.545.231l-.026.011q-.272.124-.537.26l-.018.008c-.178.094-.353.188-.526.29l-.01.006q-.262.154-.51.321c-1.472.993-2.246,2.108-2.254,3.057q.042-4.8.085-9.609c.008-.95.782-2.065,2.254-3.058.165-.112.335-.219.51-.321l.009-.006c.172-.1.347-.2.525-.291l.018-.008c.176-.094.355-.177.536-.26l.027-.011c.179-.081.36-.157.543-.23h.011l.03-.012q.238-.094.48-.176l.022-.009c.162-.056.324-.106.486-.155l.043-.014.027-.007q.177-.051.354-.094l.079-.021c.094-.023.188-.047.283-.069l.057-.014.064-.013.175-.037.134-.026.178-.033.094-.017h.023c.164-.027.327-.05.488-.069l.043-.006h.031q.212-.025.421-.039h.082q.2-.013.39-.017h.458c.119,0,.236.01.351.019h.037c.12.01.236.024.353.04l.04,0h.026l.137.023q.055.008.11.02c.037.007.089.018.132.028s.061.011.094.02h.011c.1.026.2.054.3.084l.068.023c.094.032.195.067.283.105s.142.068.208.1l.058.032.069.04.056.037.07.045c.037.024.071.049.1.075l.058.045.02.015c.04.033.077.067.112.1l.014.014c.028.027.056.054.081.083h0l.023.026.037.042a.89.89,0,0,1,.072.094l.032.042.016.022c.011.016.02.032.031.048a.961.961,0,0,1,.057.094l.039.066c.017.031.034.061.051.094l.015.027.015.032c.027.054.053.107.077.162l.012.026c.032.073.064.148.094.221l.062.143.029.065a2.076,2.076,0,0,0,.094.188c.016.032.033.062.05.094l.027.051c.027.048.056.094.089.141.02.03.042.059.063.094a1.463,1.463,0,0,0,.094.125l.043.055c.044.056.094.11.141.165l.008.01c.052.057.107.112.164.167l.051.047c.041.04.085.077.13.116l.065.055c.045.037.094.073.14.108l.063.047c.07.049.142.094.218.145l.013.007.023.013.014.007.032.018.023.012.038.019.027.014.045.022.037.018.047.023.057.027.035.016.067.031.036.017.108.049c.253.113.549.236.826.329l13.344-9.005-.084,9.609-13.345,9.005c-.276-.094-.574-.215-.827-.328l-.109-.05-.019-.008-.083-.04-.031-.014-.061-.029-.038-.018-.046-.023-.029-.014-.044-.022-.022-.011-.039-.02-.017-.009-.03-.016-.011-.007-.019-.01h0c-.075-.046-.147-.094-.217-.144l-.066-.049c-.047-.035-.094-.07-.137-.106l-.035-.027-.032-.028c-.043-.038-.086-.076-.126-.113l-.054-.05c-.057-.055-.111-.11-.163-.166h0l-.01-.012c-.049-.053-.094-.107-.139-.161l-.042-.055c-.033-.042-.065-.085-.094-.127l-.022-.031-.04-.059c-.031-.046-.06-.094-.087-.141-.013-.022-.025-.044-.037-.066s-.027-.049-.04-.073h0c-.032-.064-.062-.128-.094-.188l-.024-.054-.075-.171c-.028-.066-.057-.133-.087-.2l-.017-.037q-.036-.077-.073-.154c-.01-.021-.021-.042-.032-.062s-.032-.059-.049-.094a.561.561,0,0,0-.04-.069c-.014-.023-.038-.059-.058-.094a.631.631,0,0,0-.046-.068l-.032-.044c-.023-.03-.046-.059-.071-.089l-.039-.044c-.032-.037-.066-.073-.1-.108l-.015-.014c-.041-.04-.086-.078-.133-.116l-.059-.044c-.033-.026-.068-.05-.1-.075l-.07-.046-.125-.075-.057-.032c-.066-.035-.134-.07-.207-.1-.094-.04-.188-.074-.283-.106l-.069-.022A1.271,1.271,0,0,0,1121.518,516.523Z" transform="translate(-1066.371 -484.751)" fill="#0082bc"/>
      <path id="Trazado_187618" data-name="Trazado 187618" d="M913.6,532.176l.084-9.609,17.11,7.2-.07,8h.017l.111.013c.137.015.272.029.407.04h.041c.094.007.2.014.294.02l.11.005.219.01H932c.172,0,.342.006.508,0h.067c.138,0,.275-.009.408-.017h.031c.125-.008.247-.021.367-.033l.094-.01c.1-.012.2-.026.3-.042l.036,0c.106-.018.209-.039.311-.06l.077-.017q.142-.033.276-.072l.04-.01.056-.018.145-.046.073-.027.12-.046.066-.027.113-.051.062-.03.111-.059.051-.028c.052-.03.1-.06.15-.094a1.72,1.72,0,0,0,.754-1.567v-.471a2.135,2.135,0,0,1,.349-1.356,8.113,8.113,0,0,1,1.336-1.015l17.087,7.19-.084,9.609-17.088-7.191a8.078,8.078,0,0,0-1.335,1.014,1.978,1.978,0,0,0-.348,1.211v.466a1.806,1.806,0,0,1-.754,1.713c-.048.032-.094.063-.149.094l-.052.028c-.036.02-.073.04-.11.059l-.063.031-.112.05-.066.028-.037.015-.085.031-.072.026-.142.046-.059.019h-.009l-.026.006c-.094.026-.188.051-.283.073l-.04.01-.034.005c-.1.023-.206.042-.313.061H933.7c-.1.016-.2.03-.309.042l-.044.006h-.042c-.12.013-.242.023-.368.032H932.9c-.134.008-.27.015-.409.018h-.653c-.073,0-.145,0-.219-.009a.875.875,0,0,1-.11,0c-.1-.006-.209-.012-.315-.022h-.019c-.136-.011-.272-.026-.411-.04l-.107-.013c-.122-.014-.243-.03-.366-.048l-.045-.006h-.015l-.341-.054-.058-.011-.287-.051-.128-.026-.219-.044-.144-.032c-.068-.014-.137-.031-.205-.047l-.055-.012-.047-.012c-.188-.045-.37-.094-.556-.145l-.073-.021q-.283-.08-.565-.171l-.057-.019c-.189-.063-.384-.129-.573-.2l-.034-.012c-.2-.073-.393-.151-.585-.232l-.283-.12q-.194-.087-.377-.177l-.124-.061-.236-.121-.136-.073-.209-.116-.128-.074-.078-.045c-.043-.026-.084-.052-.125-.078l-.11-.069c-.075-.048-.149-.094-.22-.147l-.071-.048c-.094-.065-.182-.13-.268-.195l-.064-.051c-.051-.04-.1-.079-.15-.12l-.026-.023c-.062-.053-.122-.105-.179-.158-.025-.024-.053-.047-.078-.071-.08-.077-.157-.153-.228-.23h0c-.062-.068-.12-.135-.173-.2l-.049-.065c-.028-.037-.059-.074-.084-.111l-.02-.03c-.013-.019-.025-.038-.037-.056-.031-.047-.059-.094-.086-.141l-.033-.059-.019-.033a1.433,1.433,0,0,1-.069-.148.074.074,0,0,0-.009-.024c-.014-.034-.027-.069-.04-.1a.518.518,0,0,1-.019-.065c-.006-.022-.007-.023-.01-.033a1.25,1.25,0,0,1-.033-.147v-.061a1.243,1.243,0,0,1-.012-.165v-.017q.03-3.42.06-6.838Z" transform="translate(-913.599 -500.825)" fill="#2ca1df"/>
      <g id="Grupo_144771" data-name="Grupo 144771" transform="translate(0.084)">
        <path id="Trazado_187619" data-name="Trazado 187619" d="M987.523,437.792,946.217,420.41l-32.224,21.744,17.11,7.2a7.389,7.389,0,0,1-1.153.754,9.457,9.457,0,0,1-2.11.614c-1.44.266-3.2.222-4.231.914-1.6,1.082-.341,3.046,2.813,4.452l.283.121c3.359,1.413,7.418,1.656,9.067.543,1.339-.9.309-2.339,1.109-3.391a8.112,8.112,0,0,1,1.336-1.015l17.087,7.19,13.333-9-.172-.078a15.991,15.991,0,0,0-1.755-.643c-1.989-.437-4.677.094-6.395-.63-2.105-.936-1.675-3.063.915-4.811,2.619-1.767,6.456-2.479,8.573-1.59,1.312.585,1.26,1.507,1.77,2.261a3.89,3.89,0,0,0,1.181,1.131c.063.039.3.158.6.293.252.113.549.236.826.329Z" transform="translate(-913.993 -420.41)" fill="#77b5e5"/>
      </g>
    </g>
    <g id="Grupo_144774" data-name="Grupo 144774" transform="translate(22.789 89.315)">
      <g id="Grupo_144773" data-name="Grupo 144773" transform="translate(61.187 9.818)">
        <path id="Trazado_187620" data-name="Trazado 187620" d="M1056.737,685.849V686a.528.528,0,0,1-.007.062c0,.021-.005.048-.009.073s-.009.047-.013.071-.007.036-.011.054-.013.049-.02.071-.009.034-.015.051l-.011.029a1.47,1.47,0,0,1-.082.2h0a1.579,1.579,0,0,1-.107.178l-.019.029a1.686,1.686,0,0,1-.133.164c-.013.015-.026.03-.041.044s-.03.033-.046.047l-.056.052-.052.046-.05.041-.094.072-.052.036c-.035.024-.071.047-.108.07l-.049.031c-.032.02-.066.037-.1.054l-.056.032c-.054.026-.109.054-.167.079a4.545,4.545,0,0,1-.69.222q-.289.07-.594.113c-.193.028-.393.05-.594.067-.283.023-.565.036-.86.043-.637.019-1.291.012-1.926.03-.283.009-.565.022-.848.043l.085,9.765q.414-.033.848-.043c.635-.018,1.289-.011,1.926-.03.291-.008.578-.022.86-.044.2-.016.4-.039.594-.066s.4-.067.594-.113a4.431,4.431,0,0,0,.691-.223c.057-.026.113-.052.168-.08l.045-.024c.038-.02.075-.04.11-.061l.011-.006.031-.02c.039-.024.076-.048.113-.073l.051-.036.094-.072.029-.023.022-.019.052-.046.056-.051.047-.047c.009-.011.02-.021.028-.03l.012-.014a1.747,1.747,0,0,0,.133-.165l.008-.01c0-.006.007-.012.01-.018a1.663,1.663,0,0,0,.107-.179h0a1.6,1.6,0,0,0,.083-.2.118.118,0,0,0,.007-.015v-.011c.007-.02.012-.04.017-.058s.012-.042.018-.065.009-.04.012-.059.007-.032.01-.048V695.9c0-.025.008-.053.009-.078a.229.229,0,0,1,.006-.056.453.453,0,0,0,0-.088v-.061Z" transform="translate(-1046.907 -685.849)" fill="#6d1e3a"/>
        <path id="Trazado_187621" data-name="Trazado 187621" d="M1037.69,696.589h-.01a16.08,16.08,0,0,0-1.772.651c-.06.026-.12.054-.174.081l.084,9.768c.055-.027.113-.054.174-.081a16.741,16.741,0,0,1,1.772-.651h.01c.154-.033.312-.061.471-.086.189-.027.389-.049.59-.065l-.085-9.766c-.2.016-.4.038-.59.066C1038,696.528,1037.843,696.556,1037.69,696.589Z" transform="translate(-1035.733 -694.187)" fill="#6d1e3a"/>
      </g>
      <path id="Trazado_187622" data-name="Trazado 187622" d="M944.217,753.313l-.086-9.766-17.389,7.318.071,8.125a7.7,7.7,0,0,1-4.813-.609,1.748,1.748,0,0,1-.767-1.588v-.483a2.166,2.166,0,0,0-.355-1.374,8.4,8.4,0,0,0-1.357-1.031l-17.37,7.308.086,9.766,17.371-7.31a8.357,8.357,0,0,1,1.357,1.031,2.009,2.009,0,0,1,.352,1.225q0,.242,0,.484a1.831,1.831,0,0,0,.771,1.738c1.677,1.13,5.8.884,9.215-.552q.144-.06.283-.123c2.27-1.011,3.58-2.308,3.568-3.37q-.031-3.476-.061-6.95Z" transform="translate(-869.395 -721.449)" fill="#e6f1ff"/>
      <path id="Trazado_187623" data-name="Trazado 187623" d="M1044.26,693.989l.086,9.764c-1.817.766-4.55.227-6.571.67a16.292,16.292,0,0,0-1.781.654c-.061.027-.12.054-.174.081l-.086-9.764c.055-.027.114-.055.174-.081a16.246,16.246,0,0,1,1.782-.654C1039.709,694.215,1042.443,694.749,1044.26,693.989Z" transform="translate(-974.546 -682.438)" fill="#6d1e3a"/>
      <path id="Trazado_187624" data-name="Trazado 187624" d="M780.99,744.812l-32.753-22.1.086,9.764,32.752,22.1Z" transform="translate(-748.237 -705.049)" fill="#e6f1ff"/>
      <path id="Trazado_187625" data-name="Trazado 187625" d="M813.2,671.449c-1.042-.7-2.838-.659-4.3-.929a9.578,9.578,0,0,1-2.147-.625,7.508,7.508,0,0,1-1.171-.763l17.389-7.318-13.55-9.138c.055-.027.114-.055.174-.081a16.173,16.173,0,0,1,1.782-.654c2.019-.444,4.753.094,6.57-.67,2.073-.922,1.633-3.083-1-4.86-2.662-1.8-6.562-2.52-8.775-1.587-1.268.565-1.217,1.5-1.734,2.268a3.961,3.961,0,0,1-1.2,1.148c-.063.039-.308.161-.617.3-.255.114-.556.237-.835.332l-13.566-9.154-41.983,17.661,32.753,22.1,17.371-7.309a8.4,8.4,0,0,1,1.357,1.031c.812,1.068-.235,2.528,1.131,3.446,1.678,1.13,5.8.884,9.216-.552l.283-.122C813.547,674.545,814.831,672.545,813.2,671.449Z" transform="translate(-748.237 -639.717)" fill="#ff7d00"/>
    </g>
    <g id="Grupo_144796" data-name="Grupo 144796" transform="translate(146.37 9.398)">
      <path id="Trazado_187626" data-name="Trazado 187626" d="M1462.165,925.865c0,5.8,10.563,10.5,23.594,10.5s23.593-4.7,23.593-10.5-10.563-10.5-23.593-10.5S1462.165,920.068,1462.165,925.865Z" transform="translate(-1433.804 -776.786)" fill="#98a7d3"/>
      <g id="Grupo_144795" data-name="Grupo 144795">
        <g id="Grupo_144776" data-name="Grupo 144776" transform="translate(35.714 142.505)">
          <g id="Grupo_144775" data-name="Grupo 144775" transform="translate(0.002)">
            <path id="Trazado_187627" data-name="Trazado 187627" d="M1505.01,938.021a12.843,12.843,0,0,1-4.414,2.574,3.768,3.768,0,0,1-3.674-.952.705.705,0,0,1,.107-1.078c4.884-3.714,6.346-4.766,6.346-4.766h4.483a10.192,10.192,0,0,1,.094,2.529,3.884,3.884,0,0,1-2.46,1.491c-.094.015-.265-.121-.351-.085Z" transform="translate(-1496.719 -933.799)" fill="#191818"/>
          </g>
          <path id="Trazado_187628" data-name="Trazado 187628" d="M1497,944.664a1.247,1.247,0,0,0,.094.306,2.456,2.456,0,0,0,2.269,1.136,6.573,6.573,0,0,0,2.791-.948,12.42,12.42,0,0,0,2.312-1.569,6.955,6.955,0,0,1,1.748-.874,8.936,8.936,0,0,0,1.763-1.188c0,.483-.031.885-.031.885a3.884,3.884,0,0,1-2.46,1.491c-.094.015-.265-.121-.351-.085l-.13.283a12.848,12.848,0,0,1-4.414,2.575,3.768,3.768,0,0,1-3.674-.952.7.7,0,0,1,.005-.994A.69.69,0,0,1,1497,944.664Z" transform="translate(-1496.711 -939.883)" fill="#060401"/>
        </g>
        <g id="Grupo_144777" data-name="Grupo 144777" transform="translate(39.749 69.309)">
          <path id="Trazado_187629" data-name="Trazado 187629" d="M1523.266,626.711c-4.986,5.5-6.962-.317-6.962-.317l-.618-33.834c-.065.5-.231-3.412,6.064-2.564,6.276.848,7.865,3.3,7.865,3.3s-3.454,23.37-6.349,33.424" transform="translate(-1515.67 -589.875)" fill="#e28262"/>
          <path id="Trazado_187630" data-name="Trazado 187630" d="M1518.5,749.294s2.529,35.632,2.732,36.882c0,0,3.075.68,3.089-.028.035-1.707,3.546-22.559,3.591-25.241.115-6.79-1.635-8.074-3.382-12.647C1524.538,748.26,1518.491,743.789,1518.5,749.294Z" transform="translate(-1517.901 -713.203)" fill="#e28262"/>
        </g>
        <g id="Grupo_144779" data-name="Grupo 144779" transform="translate(38.873 69.303)">
          <g id="Grupo_144778" data-name="Grupo 144778">
            <path id="Trazado_187631" data-name="Trazado 187631" d="M1521.531,627.971c2.9-10.055,4.849-34.705,4.849-34.705s-1.589-2.449-7.865-3.3c-6.294-.848-6.128,3.068-6.064,2.564,0,0-1.907,18.346-.161,35.022C1512.285,627.56,1517.662,630.415,1521.531,627.971Z" transform="translate(-1511.553 -589.848)" fill="#00315e"/>
          </g>
        </g>
        <path id="Trazado_187632" data-name="Trazado 187632" d="M1534.231,509.274c.889,3.166,4.56,15.248,4.56,15.248-13.141,15.721-23.04,1.964-23.175.531-.156-1.716,1.759-8.27,2.107-15.339C1517.727,509.714,1521.31,504.2,1534.231,509.274Z" transform="translate(-1475.871 -455.429)" fill="#f39672"/>
        <path id="Trazado_187633" data-name="Trazado 187633" d="M1515.414,562.56c-.623-4.239.668-8.505,1.333-12.784H1536c1.231,4.1,2.512,8.318,2.512,8.318s.823,9.7-7.42,10.869C1531.089,568.963,1516.724,571.453,1515.414,562.56Z" transform="translate(-1475.59 -489.001)" fill="#00315e"/>
        <g id="Grupo_144780" data-name="Grupo 144780" transform="translate(48.115 70.253)">
          <path id="Trazado_187634" data-name="Trazado 187634" d="M1568.589,630.944c-4.116,6.183-6.932.717-6.932.717l-6.676-32.961c.01.508.2-4.293,6.55-4.387,6.333-.094,8.267,2.09,8.267,2.09s.166,24.168-1.21,34.541" transform="translate(-1554.982 -594.31)" fill="#f39672"/>
          <path id="Trazado_187635" data-name="Trazado 187635" d="M1585.633,756.592s6.61,37.549,7,38.754c0,0,3.142.217,3.05-.485-.219-1.7.349-25.371,0-28.029-.893-6.732-1.827-7.89-4.231-12.153C1591.449,754.676,1584.806,751.146,1585.633,756.592Z" transform="translate(-1579.054 -719.661)" fill="#f39672"/>
        </g>
        <g id="Grupo_144781" data-name="Grupo 144781" transform="translate(59.534 144.443)">
          <path id="Trazado_187636" data-name="Trazado 187636" d="M1610.495,943.674l-1.86,5.67s.384,5.077,4.455,1.93l1.212-1.176a1.3,1.3,0,0,0,.438-1.247l-.362-2.172-.432-3.007S1611.4,941.942,1610.495,943.674Z" transform="translate(-1608.635 -942.904)" fill="#191818"/>
          <path id="Trazado_187637" data-name="Trazado 187637" d="M1613.09,972.084l1.212-1.174a1.267,1.267,0,0,0,.417-.65l.022.127a1.3,1.3,0,0,1-.438,1.246l-1.212,1.176c-4.072,3.146-4.455-1.93-4.455-1.93l.073-.22C1608.94,971.855,1609.833,974.6,1613.09,972.084Z" transform="translate(-1608.635 -964.438)" fill="#060401"/>
        </g>
        <g id="Grupo_144783" data-name="Grupo 144783" transform="translate(47.28 66.744)">
          <g id="Grupo_144782" data-name="Grupo 144782">
            <path id="Trazado_187638" data-name="Trazado 187638" d="M1623.043,767.042" transform="translate(-1607.722 -726.771)" fill="#161c29"/>
            <path id="Trazado_187639" data-name="Trazado 187639" d="M1557.751,619.592c-2.319-6.806-6.7-34.95-6.7-34.95.01.507,1.31-6.723,7.661-6.816,6.332-.094,7.978,2.349,7.978,2.349s1.983,27.55.608,37.923C1567.3,618.094,1562.843,623.246,1557.751,619.592Z" transform="translate(-1551.056 -577.823)" fill="#003980"/>
          </g>
        </g>
        <path id="Trazado_187640" data-name="Trazado 187640" d="M1457.7,394.413s-10.753,12.645-16.1,16.835c0,0-3.593-1.328-3.486-3.768,0,0,7.873-11.646,12.812-18.535C1450.936,388.943,1457.618,387.018,1457.7,394.413Z" transform="translate(-1414.872 -362.22)" fill="#e28262"/>
        <path id="Trazado_187641" data-name="Trazado 187641" d="M1383.053,470.722s-11.742,6.834-16.6,9.12c0,0-.873,1.366.535,1.5,2.355.215,18.714-5.326,19.114-6.611C1387.962,468.729,1383.053,470.722,1383.053,470.722Z" transform="translate(-1358.248 -426.522)" fill="#e28262"/>
        <path id="Trazado_187642" data-name="Trazado 187642" d="M1494.816,387.2a4.383,4.383,0,0,0,5.6,2.593,4.322,4.322,0,0,0,2.556-5.552l-.013-.034a4.383,4.383,0,0,0-5.6-2.592,4.322,4.322,0,0,0-2.555,5.553Z" transform="translate(-1459.284 -356.422)" fill="#e28262"/>
        <path id="Trazado_187643" data-name="Trazado 187643" d="M1462.478,380.593a5.747,5.747,0,0,0-6.467,2.418l-9.378,13.6a15.49,15.49,0,0,0,6.5,6.7S1469.922,387.847,1462.478,380.593Z" transform="translate(-1421.577 -355.64)" fill="#781b3e"/>
        <path id="Trazado_187644" data-name="Trazado 187644" d="M1619.727,781.194" transform="translate(-1557.832 -671.167)" fill="#f39672"/>
        <path id="Trazado_187645" data-name="Trazado 187645" d="M1557.606,300.179s.774-1.489,2.481-4.346c0,0,3.635-3.733,1.6-8.423,0,0-1.118-3.922-7.977-3.353C1553.71,284.055,1553.053,294.851,1557.606,300.179Z" transform="translate(-1505.84 -279.79)" fill="#f3906b"/>
        <path id="Trazado_187646" data-name="Trazado 187646" d="M1544.96,331.28s-1.154,10.759,1.308,11.573l-8.775-.523s1.379-3.251-.224-5.652Z" transform="translate(-1492.923 -317.007)" fill="#f39672"/>
        <path id="Trazado_187647" data-name="Trazado 187647" d="M1537.975,340.454c.146-2.458-.163-2.957-.707-3.768l7.692-5.4a52.376,52.376,0,0,0-.242,6.626A8.323,8.323,0,0,1,1537.975,340.454Z" transform="translate(-1492.923 -317.01)" fill="#db765e"/>
        <path id="Trazado_187648" data-name="Trazado 187648" d="M1502.433,377.982c-1.955,1.427-2.179,4.841-1.481,6.971.8,2.449,1.118,5.574,1.92,9.116,1.086,4.8,1.823,8.5,3.034,13.263,1,3.941,16.844.765,16.844.765l5.677-19.4s.978-5.065-3.61-6.75a68.65,68.65,0,0,0-8.372-3.808,15.27,15.27,0,0,0-7.465-.96A37.1,37.1,0,0,0,1502.433,377.982Z" transform="translate(-1464.052 -353.05)" fill="#f39672"/>
        <path id="Trazado_187649" data-name="Trazado 187649" d="M1520.11,288.087c-.452,2.064-.966,3.143-.4,5.034.513,1.7.394,3.486,1.136,5.132,1.059,2.349,2.436,2.043,3.486-.119,1.078-2.212,2.2-5.2-.232-6.839-1.563-1.052-2.126-2.862-4-3.208Z" transform="translate(-1478.906 -283.006)" fill="#23140a"/>
        <path id="Trazado_187650" data-name="Trazado 187650" d="M1523.871,300.818l-.365-1.216-.923-4.5a4.56,4.56,0,0,1,.072-1.869,4.586,4.586,0,0,0,.159-1.92,5.577,5.577,0,0,1,1.2-4.905c2.01-2.856,6.422-2.632,6.422-2.632a6.155,6.155,0,0,1,5.636,5.847c.709,3.555-2.232,6.339-2.237,6.346-.235.221-.179,1.383-.262,1.709-.358,1.387-1.743,2.181-2.961,2.714a13.116,13.116,0,0,1-4.419,1.261C1525.637,301.674,1524.08,301.517,1523.871,300.818Z" transform="translate(-1481.311 -279.611)" fill="#f3906b"/>
        <path id="Trazado_187651" data-name="Trazado 187651" d="M1522.805,330.551c.715.645,1.688.351,2.449.819a1.288,1.288,0,0,0,1.29.126,2.023,2.023,0,0,1,1.23.041c.454.131,1.278.527,1.719.7a1.625,1.625,0,0,0,1.952-.45,3.859,3.859,0,0,0,1.013-1.6,1.776,1.776,0,0,1,2.985-.735,8.835,8.835,0,0,1-1.5,2.048,14.9,14.9,0,0,0-.262,2.67c-.358,1.387-1.743,2.181-2.961,2.714a14.961,14.961,0,0,1-4.847.728,2.328,2.328,0,0,1-1.894-1.263l-.365-1.216-.923-4.5c-.016-.078-.023-.166-.033-.251A1.346,1.346,0,0,0,1522.805,330.551Z" transform="translate(-1481.424 -315.141)" fill="#23140a"/>
        <path id="Trazado_187652" data-name="Trazado 187652" d="M1515.438,271.214c1.232,0,1.218,1.036,2.162,1.6,2.024,1.231,5.163-.574,6.794,1.422a3.89,3.89,0,0,1,.414.632,9.333,9.333,0,0,1,.778,2.983c.045.295-.173,1.046.094,1.272a.76.76,0,0,0,.7,0c.055.45-.308.8-.463,1.211s-.4.769-.179,1.189c.565,1.08.133.9.184,3.07a9.21,9.21,0,0,1,1.491-1.377,11.03,11.03,0,0,0,2.106-2.331,14.753,14.753,0,0,0,1.279-2.81,7.914,7.914,0,0,0,.456-4.94s-.377-3.846-3.59-4.258c0,0,.409-2.477-5.472-3.132,0,0-4.642.073-4.9-1.53a2.28,2.28,0,0,0-.706,2.04,2.281,2.281,0,0,1-2.768-1.6S1512.232,270.414,1515.438,271.214Z" transform="translate(-1474.156 -264.215)" fill="#23140a"/>
        <g id="Grupo_144792" data-name="Grupo 144792" transform="translate(51.375 14.091)">
          <g id="Grupo_144788" data-name="Grupo 144788">
            <g id="Grupo_144787" data-name="Grupo 144787">
              <g id="Grupo_144786" data-name="Grupo 144786">
                <g id="Grupo_144785" data-name="Grupo 144785">
                  <g id="Grupo_144784" data-name="Grupo 144784">
                    <path id="Trazado_187653" data-name="Trazado 187653" d="M1570.605,333.6a.968.968,0,0,0,.617.367c.732.135,1.466-.547,1.638-1.522a1.629,1.629,0,0,0-1.012-2.006,1.182,1.182,0,0,0-.983.3,2.474,2.474,0,0,0-.565,1.72A1.847,1.847,0,0,0,1570.605,333.6Z" transform="translate(-1570.297 -330.425)" fill="#f3906b"/>
                  </g>
                </g>
              </g>
            </g>
          </g>
          <g id="Grupo_144791" data-name="Grupo 144791" transform="translate(0.743 0.572)">
            <g id="Grupo_144789" data-name="Grupo 144789" transform="translate(0.339)">
              <path id="Trazado_187654" data-name="Trazado 187654" d="M1575.4,333.421c.113-.511,1.1.109.906.377a1.586,1.586,0,0,1-.471.357.768.768,0,0,0-.389.527c-.008.03-.024.119,0,.143.124.11.628-.341.74-.436a.872.872,0,0,0,.225-.811.524.524,0,0,0-.529-.458c-.235-.015-.476-.027-.5.268,0,.006,0,.056.01.03Z" transform="translate(-1575.38 -333.113)" fill="#e47a5d"/>
            </g>
            <g id="Grupo_144790" data-name="Grupo 144790" transform="translate(0 0.82)">
              <path id="Trazado_187655" data-name="Trazado 187655" d="M1574.413,337.03c-.094-.122-.21-.044-.331.023a.491.491,0,0,0-.224.283,1.224,1.224,0,0,0,.026.879.66.66,0,0,0,.526.368c.316.028.443-.239.487-.5.012-.071.039-.24-.026-.292s-.138.054-.194.094a.441.441,0,0,1-.283.069.572.572,0,0,1-.444-.266.3.3,0,0,1-.038-.087q-.031.261.014.121a.484.484,0,0,1,.074-.116c.087-.112.221-.18.315-.283.045-.048.141-.227.094-.289Z" transform="translate(-1573.789 -336.966)" fill="#e47a5d"/>
            </g>
          </g>
        </g>
        <path id="Trazado_187656" data-name="Trazado 187656" d="M1534.026,327.618l1.483.573s-2,.125-2.078-.456c0,0,.3-1.13.63-2.21C1534.061,325.525,1533.806,327.533,1534.026,327.618Z" transform="translate(-1489.902 -312.477)" fill="#e47a5d"/>
        <g id="Grupo_144793" data-name="Grupo 144793" transform="translate(41.393 10.801)">
          <path id="Trazado_187657" data-name="Trazado 187657" d="M1548.391,323.43c0,.314.173.565.386.565s.385-.253.385-.565-.172-.565-.385-.565S1548.391,323.117,1548.391,323.43Z" transform="translate(-1543.072 -321.183)" fill="#23140a"/>
          <path id="Trazado_187658" data-name="Trazado 187658" d="M1528.292,321.2c0,.315.173.565.385.565s.385-.253.385-.565-.172-.565-.385-.565S1528.292,320.886,1528.292,321.2Z" transform="translate(-1527.25 -319.427)" fill="#23140a"/>
          <path id="Trazado_187659" data-name="Trazado 187659" d="M1545.8,317.9c-.138.028-.172-.158-.172-.158a.646.646,0,0,1,.01-.332.321.321,0,0,1,.165-.168,4.7,4.7,0,0,1,1.638.214c.325.094.853.338.886.639.01.094.019.244-.083.271A13.364,13.364,0,0,0,1545.8,317.9Z" transform="translate(-1540.886 -316.757)" fill="#23140a"/>
          <path id="Trazado_187660" data-name="Trazado 187660" d="M1523.449,315.623a11.607,11.607,0,0,1,1.912.2c.125.066.208-.1.209-.1a.65.65,0,0,0,.081-.323.318.318,0,0,0-.113-.205,3.468,3.468,0,0,0-1.418-.222,2.782,2.782,0,0,0-.712.094A1.377,1.377,0,0,0,1523.449,315.623Z" transform="translate(-1523.397 -314.963)" fill="#23140a"/>
        </g>
        <g id="Grupo_144794" data-name="Grupo 144794" transform="translate(43.141 16.953)">
          <path id="Trazado_187661" data-name="Trazado 187661" d="M1531.764,343.873c-.121,0-.188.056-.141.143a1.83,1.83,0,0,0,3.165.382c.074-.082.009-.165-.142-.189C1534.647,344.214,1533.034,344.009,1531.764,343.873Z" transform="translate(-1531.608 -343.873)" fill="#fff"/>
        </g>
        <path id="Trazado_187662" data-name="Trazado 187662" d="M1567.649,565.957a11.95,11.95,0,0,1,0,11.539c-3.372,6.1-13.66,3.876-13.694-4.023C1553.925,565.67,1561.026,562.686,1567.649,565.957Z" transform="translate(-1506.059 -500.708)" fill="#003980"/>
        <path id="Trazado_187663" data-name="Trazado 187663" d="M1509,377.6a37.078,37.078,0,0,0-6.547.8c-1.955,1.427-2.179,4.841-1.481,6.971.8,2.449,1.118,5.574,1.92,9.116,1.086,4.8-.283,8.308.928,13.075,1,3.942,21.965,0,21.965,0l2.662-18.447s.978-5.065-3.61-6.75a63.418,63.418,0,0,0-8.154-3.731s.552,3.731-5.531,2.7C1511.148,381.339,1507.431,380.443,1509,377.6Z" transform="translate(-1464.066 -353.47)" fill="#781b3e"/>
        <path id="Trazado_187664" data-name="Trazado 187664" d="M1533.287,507.987c.889,3.166,1.593,13.842,1.593,13.842-2.41,9.994-24.579,2.8-24.711,1.37-.156-1.716.523-9.883.87-16.951C1511.039,506.247,1520.365,502.911,1533.287,507.987Z" transform="translate(-1471.573 -453.889)" fill="#781b3e"/>
        <path id="Trazado_187665" data-name="Trazado 187665" d="M1586.889,411.157c1.446,2.942,6.816,17.791,8.542,20.138.459.624,4.885,3.475,5.88-.412-2.439-15.414-6.129-24.206-6.129-24.206s-4.309-3.593-7.751-.272C1587.432,406.4,1585.869,409.119,1586.889,411.157Z" transform="translate(-1531.711 -375.034)" fill="#f39672"/>
        <path id="Trazado_187666" data-name="Trazado 187666" d="M1585.036,405.589a5.114,5.114,0,1,0,0-.008Z" transform="translate(-1530.468 -372.097)" fill="#f39672"/>
        <path id="Trazado_187667" data-name="Trazado 187667" d="M1584.652,397.339s4.457,1.672,5.512,5.288l2.751,9.843s-3.6,5.242-8.977,5.068l-5.307-11.79S1575.059,399.127,1584.652,397.339Z" transform="translate(-1524.97 -369.007)" fill="#781b3e"/>
        <path id="Trazado_187668" data-name="Trazado 187668" d="M1331.535,509.258l1.373-.038s-2.5.643-3.31-.17c0,0-.206-.128.114-.419a19.03,19.03,0,0,0,3.188-.355,13.907,13.907,0,0,1-3.75.372.408.408,0,0,1,.047-.765c-.5-.188-.073-.521-.073-.521a8.688,8.688,0,0,1,1.491-.576,35.5,35.5,0,0,0,3.418-1.332s-1.445-.942-.9-1.708l2.229,1.176,2.017,1.3.268,1.365-2.1,1.461a13.076,13.076,0,0,1-3.193.858S1329.034,509.783,1331.535,509.258Z" transform="translate(-1328.904 -452.768)" fill="#e28262"/>
        <path id="Trazado_187669" data-name="Trazado 187669" d="M1582.515,758.029l5.765,35.93s1.91,1.841,6.342,0l.736-17.555s1.3-11.6-3.292-19.872C1592.067,756.531,1583.018,749.229,1582.515,758.029Z" transform="translate(-1528.54 -649.516)" fill="#003980"/>
        <path id="Trazado_187670" data-name="Trazado 187670" d="M1523.977,755.872s2.454,3.551.255,16.878l-2.251,18.2a6,6,0,0,1-5.5.07l-1.815-36.257S1516.292,748.608,1523.977,755.872Z" transform="translate(-1475.131 -648.446)" fill="#00315e"/>
      </g>
    </g>
    <g id="Grupo_144799" data-name="Grupo 144799" transform="translate(120.225 62.173)">
      <path id="Trazado_187671" data-name="Trazado 187671" d="M1329.973,550.074a1.4,1.4,0,0,0-.707-1.156,2.566,2.566,0,0,0-.239-.139c-.025-.014-.053-.026-.079-.039-.06-.029-.122-.056-.183-.083l-.046-.021-.042-.014c-.1-.039-.2-.075-.31-.106h0c-.108-.032-.219-.058-.333-.085a.22.22,0,0,1-.038-.01l-.048-.009c-.134-.029-.27-.055-.41-.078h-.01l-.035,0c-.144-.023-.289-.044-.436-.063l-.046-.007c-.155-.021-.31-.038-.465-.056h-.027l-.377-.043c-.149-.017-.3-.034-.443-.053l-.08-.01c-.144-.02-.283-.04-.426-.062l-.218-.038c-.147-.026-.294-.057-.442-.089l-.079-.018c-.107-.024-.214-.05-.32-.076h-.008c-.107-.027-.213-.056-.318-.086l-.1-.031q-.109-.033-.215-.068c-.035-.012-.07-.023-.1-.036-.074-.024-.145-.051-.216-.077-.026-.011-.054-.021-.08-.031-.094-.036-.178-.073-.263-.111a7.567,7.567,0,0,1-1.171-.764l.086,9.764a7.474,7.474,0,0,0,1.172.764c.084.039.172.075.262.112l.02.008.061.022c.072.027.143.054.218.079l.1.034.221.07.061.019.032.008c.105.031.213.06.32.088h0l.328.077.031.007.044.01.444.094.182.033.036,0c.139.022.283.041.424.061l.085.011.435.052h0l.283.032.116.013.471.057.037,0c.149.02.3.04.441.065l.046.007c.139.024.275.05.409.077l.087.02c.114.025.226.054.334.086s.213.069.316.107l.087.034c.063.025.124.054.188.083l.078.039a2.464,2.464,0,0,1,.239.141,1.4,1.4,0,0,1,.707,1.155Z" transform="translate(-1297.051 -539.285)" fill="#2d3a61"/>
      <path id="Trazado_187672" data-name="Trazado 187672" d="M1224.83,609.811l.1-.023.136-.03.113-.02.094-.016.072,8.183,13.55,9.144-.085-9.764-11.224-7.574c.164.02.329.042.495.07l.115.02.188.034c.044.007.089.017.134.026l.178.037.125.028.289.07.081.021q.181.047.361.1l.069.021c.166.05.332.1.5.158l.024.008c.165.057.328.117.49.179l.04.016c.188.073.37.152.553.233l.027.012c.188.083.367.171.546.265l.017.009c.182.094.36.188.534.295l.01,0c.178.105.35.214.518.327,1.5,1.01,2.283,2.143,2.291,3.109q-.043-4.883-.085-9.766c-.009-.964-.8-2.1-2.291-3.109-.168-.113-.341-.222-.518-.327l-.009-.005q-.261-.154-.533-.295l-.019-.009c-.179-.094-.361-.182-.545-.265l-.026-.011q-.273-.125-.553-.234h-.01l-.028-.01c-.163-.064-.329-.125-.495-.182l-.019-.007c-.167-.057-.333-.109-.5-.159l-.038-.013-.025-.007c-.122-.036-.243-.069-.365-.1l-.074-.018q-.149-.039-.3-.072l-.056-.014-.062-.013-.188-.04-.128-.025c-.063-.012-.125-.023-.188-.033-.03-.006-.061-.012-.094-.016h-.023c-.168-.028-.335-.051-.5-.071l-.039,0h-.029c-.145-.015-.288-.029-.431-.039h-.082c-.266-.016-.524-.023-.776-.015h-.084c-.123,0-.244.01-.363.02h-.029c-.124.01-.245.023-.365.041h-.066l-.146.025-.1.019c-.051.009-.1.022-.149.031-.026.006-.053.01-.078.017h-.011c-.106.025-.208.056-.308.086l-.068.024c-.1.033-.2.069-.293.107-.075.033-.145.069-.212.1l-.058.034c-.024.013-.049.025-.071.039l-.056.036-.072.047c-.037.025-.072.05-.105.077l-.059.045-.021.016c-.04.034-.078.067-.113.1l-.013.012c-.029.028-.057.057-.084.087-.009.008-.015.018-.023.026l-.038.043a.988.988,0,0,0-.073.094l-.032.043-.017.023c-.012.016-.021.033-.031.049s-.04.059-.057.094-.027.046-.041.07l-.049.089c-.005.01-.011.02-.016.031s-.011.023-.017.034c-.026.052-.051.1-.075.158l-.016.035c-.031.07-.061.141-.094.21-.022.054-.045.108-.069.161l-.028.061a1.973,1.973,0,0,1-.094.189c-.017.034-.035.067-.054.1l-.025.047c-.028.048-.057.094-.089.143l-.063.089c-.031.042-.064.086-.094.13l-.043.054c-.045.056-.094.11-.142.166l-.011.013c-.053.057-.109.113-.167.17l-.052.049c-.042.04-.086.078-.132.117l-.068.057c-.045.037-.094.073-.14.108l-.066.05c-.07.049-.143.094-.22.147l-.025.013-.01.007-.031.016-.017.01-.036.018-.025.013-.04.02-.036.017-.04.02-.046.023-.044.021-.05.024-.071.032-.033.016-.112.049c-.255.115-.555.238-.834.332l-13.566-9.154.086,9.766,13.566,9.153c.282-.094.578-.219.834-.332l.21-.094h0c.031-.013.059-.027.089-.041h.007l.062-.03.025-.013.045-.023.029-.014.034-.018.029-.014.023-.012.024-.013.016-.008.015-.008h0c.077-.047.15-.094.221-.148l.064-.048c.048-.036.094-.073.143-.111l.035-.026.032-.028.131-.117.054-.049q.087-.084.166-.17h0l.011-.013c.049-.055.094-.108.14-.163l.044-.056c.033-.042.065-.085.094-.127.008-.011.018-.023.025-.034l.039-.055c.032-.048.061-.094.089-.144.01-.017.019-.035.028-.052s.033-.058.047-.089h0c.032-.064.062-.128.094-.188.009-.021.018-.041.026-.059l.07-.16c.03-.072.061-.142.094-.214l.014-.03c.024-.055.051-.107.076-.162l.032-.062c.016-.031.033-.062.051-.094s.025-.046.04-.069l.059-.094c.021-.034.031-.048.047-.072l.033-.043.072-.094c.013-.014.025-.03.039-.044.033-.038.068-.074.106-.11l.014-.015c.041-.041.088-.079.136-.118.019-.015.039-.031.058-.045s.069-.052.106-.077l.071-.046c.04-.025.083-.051.127-.076l.058-.032c.067-.036.136-.071.212-.1.094-.039.188-.074.293-.107l.068-.022A1.827,1.827,0,0,1,1224.83,609.811Z" transform="translate(-1206.055 -577.518)" fill="#2f3672"/>
      <g id="Grupo_144797" data-name="Grupo 144797" transform="translate(32.752 22.101)">
        <path id="Trazado_187673" data-name="Trazado 187673" d="M1401.933,616.031l.086,9.765-41.986,17.667-.086-9.765Z" transform="translate(-1359.946 -616.031)" fill="#3d4794"/>
      </g>
      <g id="Grupo_144798" data-name="Grupo 144798" transform="translate(0.002)">
        <path id="Trazado_187674" data-name="Trazado 187674" d="M1206.066,529.852l17.368-7.308a8.338,8.338,0,0,1,1.359,1.031c.812,1.069-.235,2.528,1.13,3.447,1.678,1.13,5.8.884,9.215-.552l.283-.122c3.2-1.43,4.493-3.427,2.863-4.527-1.042-.7-2.837-.659-4.3-.929a9.568,9.568,0,0,1-2.146-.625,7.577,7.577,0,0,1-1.171-.764l17.389-7.316,32.753,22.1-41.989,17.663-13.55-9.143c.054-.026.109-.052.168-.078a16.26,16.26,0,0,1,1.79-.659c2.021-.444,4.754.094,6.5-.64,2.139-.953,1.7-3.109-.93-4.89-2.662-1.8-6.562-2.52-8.711-1.616-1.334.594-1.282,1.53-1.8,2.3a3.964,3.964,0,0,1-1.2,1.148c-.063.038-.308.161-.617.3-.255.115-.555.238-.834.332Z" transform="translate(-1206.066 -512.187)" fill="#4860a8"/>
      </g>
    </g>
    <g id="Grupo_144812" data-name="Grupo 144812" transform="translate(0 61.444)">
      <path id="Trazado_187675" data-name="Trazado 187675" d="M815.054,737.062s1.437-.932.057-2.652a26.453,26.453,0,0,1-7.757-2.153c-5.242-1.649-12.6-9.762-15.953-13.453-3.763-4.145-9.461-.626-6.406,4.106,5.721,8.855,20.759,14.7,29.981,14.347" transform="translate(-753.7 -672.656)" fill="#f3906b"/>
      <path id="Trazado_187676" data-name="Trazado 187676" d="M704.995,869.21c2.19-10.231,2.846-33.929,2.846-33.929s-1.755-2.33-8.075-2.732c-6.338-.409-5.9,3.485-5.871,2.981a220.327,220.327,0,0,0,2.908,33.283S701.31,871.917,704.995,869.21Z" transform="translate(-682.658 -763.615)" fill="#002d58"/>
      <path id="Trazado_187677" data-name="Trazado 187677" d="M693.641,804.814c-.623-4.234.667-8.5,1.333-12.784h19.249c1.231,4.1,2.512,8.318,2.512,8.318s.823,9.7-7.42,10.87C709.315,811.218,694.949,813.707,693.641,804.814Z" transform="translate(-682.341 -731.743)" fill="#006d97"/>
      <path id="Trazado_187678" data-name="Trazado 187678" d="M641.158,1144.625c0,8.161,14.868,14.776,33.209,14.776s33.208-6.615,33.208-14.776-14.868-14.775-33.208-14.775S641.158,1136.464,641.158,1144.625Z" transform="translate(-641.158 -997.667)" fill="#98a7d3"/>
      <g id="Grupo_144800" data-name="Grupo 144800" transform="translate(46.165 141.715)">
        <path id="Trazado_187679" data-name="Trazado 187679" d="M864.435,1179.343l-1.1-.063c-.377-.059-.371.53-.421.549a11.928,11.928,0,0,1-2.6.823s-2.028-.264-2.246-.878l.283-3.768c2.261-.188,4.616-.627,4.616-.627l4.97-.7c2.392-.25,2.826.615,2.826.615S872.241,1177.491,864.435,1179.343Z" transform="translate(-858.073 -1174.635)" fill="#191818"/>
        <path id="Trazado_187680" data-name="Trazado 187680" d="M861.415,1180.543a5.943,5.943,0,0,1,1.285-.418c2.449-.43,4.85-.673,6.89-2.248a2.02,2.02,0,0,0,.885-1.435.888.888,0,0,1,.3.283s1.465,2.186-6.341,4.043l-1.1-.063c-.377-.059-.371.53-.421.549a11.929,11.929,0,0,1-2.6.823s-2.028-.264-2.246-.878l.07-.918A3.914,3.914,0,0,0,861.415,1180.543Z" transform="translate(-858.07 -1176.058)" fill="#100f0f"/>
      </g>
      <g id="Grupo_144801" data-name="Grupo 144801" transform="translate(12.965 140.782)">
        <path id="Trazado_187681" data-name="Trazado 187681" d="M708.443,1174.959l-1.1-.063c-.377-.058-.371.53-.422.549a11.988,11.988,0,0,1-2.6.823s-2.028-.264-2.245-.879l.283-3.768c2.261-.188,4.622-.627,4.622-.627l4.969-.7c2.391-.25,2.826.616,2.826.616S716.249,1173.1,708.443,1174.959Z" transform="translate(-702.082 -1170.25)" fill="#191818"/>
        <path id="Trazado_187682" data-name="Trazado 187682" d="M705.422,1176.166a6,6,0,0,1,1.285-.418c2.449-.43,4.85-.673,6.891-2.249a2.019,2.019,0,0,0,.885-1.434.891.891,0,0,1,.3.283s1.465,2.187-6.341,4.043l-1.1-.063c-.377-.058-.371.529-.422.549a12,12,0,0,1-2.6.823s-2.028-.264-2.245-.879l.069-.917A3.918,3.918,0,0,0,705.422,1176.166Z" transform="translate(-702.078 -1171.679)" fill="#100f0f"/>
      </g>
      <path id="Trazado_187683" data-name="Trazado 187683" d="M704.973,1028.849c.814-.971,3.486-36.665,3.486-36.665.443-5.486-8.68-3.183-8.68-3.183-1.329,5.464-1.114,6.491-1.531,13.269-.166,2.677.261,24.852.162,26.557C698.409,1028.825,702.644,1031.631,704.973,1028.849Z" transform="translate(-686.067 -886.416)" fill="#002d58"/>
      <path id="Trazado_187684" data-name="Trazado 187684" d="M708.754,810.724s5.478,9.326,2.107,15.425-17.575-.539-16.7-7.6C695.116,810.8,702.131,807.452,708.754,810.724Z" transform="translate(-682.848 -745.476)" fill="#193c76"/>
      <path id="Trazado_187685" data-name="Trazado 187685" d="M712.457,751.52c.89,3.166,4.56,15.248,4.56,15.248-10.058,9.486-23.039,1.965-23.175.531-.156-1.716,1.759-8.27,2.107-15.339C695.954,751.961,699.535,746.443,712.457,751.52Z" transform="translate(-682.623 -698.165)" fill="#f39672"/>
      <path id="Trazado_187686" data-name="Trazado 187686" d="M801.266,1009.3" transform="translate(-767.191 -902.773)" fill="#161c29"/>
      <path id="Trazado_187687" data-name="Trazado 187687" d="M750.429,856.07c-1.067-10.41-8.479-36.963-8.479-36.963s-2.167-2-8.306-.436-6.818,9.572-6.947,9.082a244.014,244.014,0,0,0,16.648,31.615S747.933,861.718,750.429,856.07Z" transform="translate(-708.493 -752.245)" fill="#193c76"/>
      <path id="Trazado_187688" data-name="Trazado 187688" d="M815.6,1026.221c-.18-1.255-9.437-38.551-9.437-38.551-2.179-4.6-8.436.244-8.436.244a39.636,39.636,0,0,0,2.267,13.8c.848,2.543,8.721,25.577,9.268,27.193C809.257,1028.911,813.908,1030.386,815.6,1026.221Z" transform="translate(-764.398 -884.185)" fill="#193c76"/>
      <g id="Grupo_144802" data-name="Grupo 144802" transform="translate(5.511 25.192)">
        <path id="Trazado_187689" data-name="Trazado 187689" d="M667.625,638.611s-.995,16.752-.36,23.515c0,0,0,3.073,5.412,4.616,0,0,1.969-18.653,3.572-26.977C676.248,639.762,673.052,633.588,667.625,638.611Z" transform="translate(-667.053 -634.618)" fill="#e28262"/>
        <path id="Trazado_187690" data-name="Trazado 187690" d="M675.638,635.451a4.381,4.381,0,0,1-5.734-2.283,4.322,4.322,0,0,1,2.275-5.673l.033-.014a4.383,4.383,0,0,1,5.734,2.284,4.321,4.321,0,0,1-2.276,5.672Z" transform="translate(-669.022 -627.131)" fill="#e28262"/>
      </g>
      <path id="Trazado_187691" data-name="Trazado 187691" d="M669.669,623.618a5.746,5.746,0,0,0-4.168,5.5l-.64,16.511a15.49,15.49,0,0,0,9.072,2.178S679.844,625.761,669.669,623.618Z" transform="translate(-659.816 -599.174)" fill="#0ab1cb"/>
      <path id="Trazado_187692" data-name="Trazado 187692" d="M797.955,1023.447" transform="translate(-764.584 -913.909)" fill="#f39672"/>
      <path id="Trazado_187693" data-name="Trazado 187693" d="M729.2,574.365s.035,5.9.55,11.776l-7.78-1.289a5.757,5.757,0,0,0-.464-5.081Z" transform="translate(-704.406 -560.403)" fill="#f39672"/>
      <path id="Trazado_187694" data-name="Trazado 187694" d="M680.662,620.24c-1.954,1.428-2.178,4.842-1.481,6.971.8,2.449,1.119,5.574,1.921,9.116,1.086,4.8,1.823,8.5,3.034,13.263,1,3.941,16.843.766,16.843.766l5.678-19.4s.977-5.065-3.611-6.75a68.6,68.6,0,0,0-8.372-3.808,15.272,15.272,0,0,0-7.464-.96A37.112,37.112,0,0,0,680.662,620.24Z" transform="translate(-670.805 -595.796)" fill="#f39672"/>
      <path id="Trazado_187695" data-name="Trazado 187695" d="M745.871,808.216a11.947,11.947,0,0,1,0,11.538c-3.372,6.1-13.66,3.876-13.694-4.023C732.147,807.928,739.249,804.943,745.871,808.216Z" transform="translate(-712.806 -743.453)" fill="#193c76"/>
      <path id="Trazado_187696" data-name="Trazado 187696" d="M687.307,619.856a37.07,37.07,0,0,0-6.548.8c-2.033,1.486-2,4.4-1.6,6.611.754,4.221,1.508,8.486,1.9,12.757.174,1.892.645,5.747.786,7.636a4.051,4.051,0,0,0,2.6,3.822c1.429.738,2.492.152,4.051.193a78.445,78.445,0,0,0,11.8-.811c.166-.02,6.292,4.113,4.276,1.072l2.191-20.563s.977-5.064-3.611-6.75a36.9,36.9,0,0,0-6.766-3.218S690.224,621.562,687.307,619.856Z" transform="translate(-670.902 -596.213)" fill="#0ab1cb"/>
      <path id="Trazado_187697" data-name="Trazado 187697" d="M716.693,541.59l.332-1.281.787-4.723a4.742,4.742,0,0,0-.148-1.944,4.794,4.794,0,0,1-.242-1.992,5.812,5.812,0,0,0-1.443-5.062c-2.2-2.9-6.79-2.492-6.792-2.491a7.193,7.193,0,0,0-5.639,3.513,8.845,8.845,0,0,0-1.02,6.563,13.3,13.3,0,0,0,3.833,6c1.143,1.093,2.31,1.225,3.806,1.774a15.51,15.51,0,0,0,4.14.611C714.887,542.553,716.5,542.325,716.693,541.59Z" transform="translate(-689.281 -520.817)" fill="#f3906b"/>
      <path id="Trazado_187698" data-name="Trazado 187698" d="M712.972,524.791l-.73,2.932a1.425,1.425,0,0,0-1.075,1.705c.006.027.013.053.02.079l.265,2.421-.659.252c.055-.969-1.291-.983-1.291-.983-.983-.056-1.15.782-1.095,1.588.146,2.1-.617,5.422-2.373,6.008-.694.231-2,.471-2.221-.471-.268-1.15-2.445-3.431-2.445-3.431a9.841,9.841,0,0,1-2.034-10.154,7.991,7.991,0,0,1,1.877-2.773,10.131,10.131,0,0,1,5.846-2.609s2.981-.364,4.656.813a9.69,9.69,0,0,1,2.167,1.978A2.253,2.253,0,0,1,712.972,524.791Z" transform="translate(-686.466 -517.06)" fill="#351709"/>
      <g id="Grupo_144807" data-name="Grupo 144807" transform="translate(21.592 13.884)">
        <g id="Grupo_144806" data-name="Grupo 144806">
          <g id="Grupo_144805" data-name="Grupo 144805">
            <g id="Grupo_144804" data-name="Grupo 144804">
              <g id="Grupo_144803" data-name="Grupo 144803">
                <path id="Trazado_187699" data-name="Trazado 187699" d="M745.124,577.292a1.208,1.208,0,0,1-.764.287,1.774,1.774,0,0,1-1.729-1.715,1.626,1.626,0,0,1,1.356-1.857l.068-.009a1.535,1.535,0,0,1,1.11.423,2.207,2.207,0,0,1,.447,1.778A1.662,1.662,0,0,1,745.124,577.292Z" transform="translate(-742.612 -573.998)" fill="#f3906b"/>
              </g>
            </g>
          </g>
        </g>
      </g>
      <g id="Grupo_144810" data-name="Grupo 144810" transform="translate(22.384 14.459)">
        <g id="Grupo_144808" data-name="Grupo 144808">
          <path id="Trazado_187700" data-name="Trazado 187700" d="M747.4,577.024c-.086-.516-1.1.046-.927.33a1.593,1.593,0,0,0,.447.384.767.767,0,0,1,.359.546c.005.031.017.12-.012.143-.13.1-.608-.377-.713-.476a.875.875,0,0,1-.18-.823.525.525,0,0,1,.553-.427c.236,0,.479,0,.483.295,0,.006-.007.056-.011.029Z" transform="translate(-746.333 -576.7)" fill="#e47a5d"/>
        </g>
        <g id="Grupo_144809" data-name="Grupo 144809" transform="translate(0.209 0.828)">
          <path id="Trazado_187701" data-name="Trazado 187701" d="M747.865,580.647c.1-.118.213-.033.33.041a.494.494,0,0,1,.207.295,1.223,1.223,0,0,1-.075.875.659.659,0,0,1-.546.336c-.316.011-.429-.263-.458-.529-.007-.071-.026-.241.042-.289s.134.061.188.109a.449.449,0,0,0,.275.084.576.576,0,0,0,.459-.24.324.324,0,0,0,.041-.085c.011.175,0,.215-.021.12a.441.441,0,0,0-.068-.12c-.081-.117-.21-.188-.3-.3-.042-.05-.128-.234-.076-.293Z" transform="translate(-747.315 -580.589)" fill="#e47a5d"/>
        </g>
      </g>
      <g id="Grupo_144811" data-name="Grupo 144811" transform="translate(60.179 61.22)">
        <path id="Trazado_187702" data-name="Trazado 187702" d="M930.587,797.819c-.4-.6-.051-.907-.867-.933-.929-.03-1.762-.49-2.393-.471-1.1.031-5.249,1-2.463,3.374.648.554,2.5,3.034,3.788,2.3,1.9-1.087,1.252-.686,2.217-3.047Z" transform="translate(-923.919 -796.414)" fill="#f39672"/>
      </g>
      <path id="Trazado_187703" data-name="Trazado 187703" d="M770.52,651.551a4.87,4.87,0,1,0,6.73-1.466A4.871,4.871,0,0,0,770.52,651.551Z" transform="translate(-742.38 -619.4)" fill="#f39672"/>
      <path id="Trazado_187704" data-name="Trazado 187704" d="M713.44,737.594c.632,6.641,1.036,22.906,1.036,22.906-2.355,6.29-24.841.982-24.971-.452-.157-1.716.3-13.8.651-20.871A27.106,27.106,0,0,1,713.44,737.594Z" transform="translate(-679.19 -687.393)" fill="#0ab1cb"/>
      <path id="Trazado_187705" data-name="Trazado 187705" d="M765.934,639.668c5.922,1.666,6.658,8.834,6.658,8.834l2.674,11.77s-6.728,5.336-10.834,3.835a87.37,87.37,0,0,1-4.384-17.745S760.089,639.861,765.934,639.668Z" transform="translate(-734.744 -611.808)" fill="#0ab1cb"/>
      <path id="Trazado_187706" data-name="Trazado 187706" d="M706.671,516.426c-.669.54-1.52.188-2.285.007-1.043,1.225.205,2.449-1.374,3.039a17.518,17.518,0,0,1-3,.553c-.74.12-1.488-.052-2.018.5-.573.6-.03,2.462-.707,2.818-1.184.625-2.112-2.615-3.621-2.355-1.287.219-1.515,2.261-1.065,3.265a1.589,1.589,0,0,0-.337-.229c-.613-1.6-1.4-1.628-2.073-2.765-1.049-1.763-.871-1.342-1.081-3.035,0-.015.206-.741.209-.754.493-1.8,1.335-2.109,1.74-2.873a15.167,15.167,0,0,1,1.633-2.084,20.882,20.882,0,0,1,1.338-2.124,6.264,6.264,0,0,1,3.53-1.494c1.3-.171,2.544.638,3.833.411.53-.094,1.025-.574,1.556-.544.648.037,1.1.679,1.657.931,1.041.471,2.682.283,3.571,1.012.984.81.772,1.978.167,2.973-.339.557-1.028.877-1.334,1.454C706.918,515.293,706.691,516.406,706.671,516.426Z" transform="translate(-678.904 -508.764)" fill="#351709"/>
    </g>
    <g id="Grupo_144813" data-name="Grupo 144813" transform="translate(195.234 64.003)">
      <path id="Trazado_187707" data-name="Trazado 187707" d="M1595.569,521.157a183.272,183.272,0,0,0-9.663,20.083s.079,2.025,1.57,1.4,13.524-17.669,13.537-19.218C1601.044,519.43,1595.569,521.157,1595.569,521.157Z" transform="translate(-1580.073 -520.785)" fill="#f39672"/>
      <path id="Trazado_187708" data-name="Trazado 187708" d="M1561.454,614.741l1.3-.442s-2.2,1.355-3.213.818c0,0-.236-.062-.015-.434a19.089,19.089,0,0,0,2.94-1.282,13.953,13.953,0,0,1-3.472,1.465s-.7-.2-.182-.745c-.531-.037-.223-.471-.223-.471a8.631,8.631,0,0,1,1.255-.991,35.473,35.473,0,0,0,2.87-2.284s-1.661-.477-1.369-1.364l2.476.463,2.31.641.66,1.225-1.572,2.013a13.11,13.11,0,0,1-2.8,1.766S1559.221,615.978,1561.454,614.741Z" transform="translate(-1558.5 -590.233)" fill="#f39672"/>
    </g>
    <g id="Grupo_144819" data-name="Grupo 144819" transform="translate(102.559 110.452)">
      <path id="Trazado_187709" data-name="Trazado 187709" d="M1316.464,776.313a1.376,1.376,0,0,1,.7-1.137,2.413,2.413,0,0,1,.235-.138l.079-.039c.059-.028.119-.056.18-.081.015-.006.029-.014.045-.02l.042-.014c.094-.038.2-.073.3-.1h0c.106-.031.216-.059.327-.083a.2.2,0,0,0,.039-.01l.05-.009c.13-.028.263-.054.4-.077h.013l.043-.007c.135-.021.27-.041.409-.059l.055-.007c.149-.02.3-.037.448-.054h.025l.1-.012.3-.034.42-.051.085-.01q.209-.028.411-.06l.215-.036q.218-.042.436-.089l.082-.018c.1-.023.208-.048.312-.074h.01c.1-.026.208-.055.312-.086l.094-.028c.072-.021.142-.044.212-.067l.1-.035c.07-.024.138-.049.206-.075l.084-.031c.089-.036.176-.073.26-.11a7.3,7.3,0,0,0,1.153-.754l-.084,9.609a7.293,7.293,0,0,1-1.153.754c-.084.039-.172.075-.261.111l-.02.009-.059.021c-.07.026-.139.052-.212.076l-.1.034c-.07.023-.14.045-.212.067l-.065.021-.033.008c-.1.03-.2.058-.309.086h-.013c-.1.026-.2.05-.308.074l-.034.008-.051.01c-.145.032-.289.061-.434.088l-.179.032-.038.005c-.134.022-.269.041-.406.059l-.094.012-.406.05h-.012l-.289.033-.144.016c-.148.017-.3.034-.443.054l-.053.007c-.139.018-.275.038-.411.059l-.055.008c-.137.023-.27.049-.4.077l-.085.019c-.112.025-.222.053-.329.085h0c-.106.031-.208.067-.307.106l-.087.034c-.062.026-.122.053-.18.081l-.078.038c-.081.043-.161.089-.236.138a1.378,1.378,0,0,0-.7,1.137Z" transform="translate(-1275.236 -765.696)" fill="#003c74"/>
      <path id="Trazado_187710" data-name="Trazado 187710" d="M1140.312,794.435a.279.279,0,0,0-.011-.054c0-.018-.008-.033-.01-.05s0-.011,0-.017a.711.711,0,0,0-.009-.076.254.254,0,0,0-.006-.057.332.332,0,0,1,0-.081v-.065l.085-9.609v.146a.144.144,0,0,0,.007.057.5.5,0,0,1,.009.076c0,.026.008.044.013.067s.006.037.011.056.012.045.019.068.009.035.015.053.007.018.009.027a1.6,1.6,0,0,0,.082.194h0a1.665,1.665,0,0,0,.106.176l.019.028a1.851,1.851,0,0,0,.13.161l.04.043.045.046.055.051.051.045.049.04c.03.024.06.047.094.07l.049.035c.036.025.073.049.111.072l.042.026c.034.021.07.04.106.058l.048.026c.053.026.107.053.165.078.11.046.224.087.339.125l.119.033c.079.023.158.046.24.066l.065.014q.141.033.282.057l.114.019c.089.014.178.027.268.039l.089.01c.117.014.236.026.356.035l.227.015.188.012c.078,0,.157.006.235.009l.188.007c.15,0,.3.007.452.009h.012l.535.005h.51l.289.006h.2l.219.008.2.011.21.013.072,0h0c.078.006.156.013.234.022h.047c.1.011.2.023.3.038l.035.007c.147.021.292.046.432.077h.027l.02,0,.03.008.025.008.041.012.031.009.051.016.032.01.06.02.037.012.067.022.04.013.074.024.041.015.075.026.049.017.071.025.059.022.069.025.062.023.072.026.063.023.072.028.064.024.072.027.064.025.072.029.062.025.075.031.055.023c.042.018.084.036.124.055q.09.04.172.079l-.085,9.609-.171-.079-.125-.054-.042-.017-.089-.038-.051-.021-.082-.033-.057-.023-.077-.031-.06-.023-.075-.029-.062-.024-.072-.027-.061-.021-.073-.026-.057-.02-.07-.025-.062-.022-.058-.021-.061-.022-.054-.019-.054-.019-.053-.017-.048-.016-.049-.015-.042-.014-.04-.013-.038-.011-.034-.01-.029-.008-.027-.008-.021,0-.027-.007c-.141-.032-.283-.057-.434-.078-.109-.016-.219-.032-.332-.043l-.057,0c-.094-.01-.2-.019-.3-.026l-.208-.014-.206-.011-.215-.009-.205-.006-.283,0h-.513c-.147,0-.294,0-.441-.005h-.111c-.149,0-.3,0-.446-.009h-.022l-.188-.007-.22-.009-.2-.013-.22-.014h-.024q-.17-.014-.334-.033l-.084-.01-.166-.022h0l-.106-.018-.113-.019c-.094-.016-.188-.036-.283-.057l-.067-.013h-.019c-.076-.019-.15-.041-.223-.062l-.116-.032c-.117-.038-.23-.078-.339-.125-.057-.025-.111-.052-.165-.078l-.055-.03c-.033-.018-.066-.036-.094-.055l-.012-.006-.035-.023c-.037-.023-.072-.045-.107-.069l-.052-.037-.094-.069-.029-.023h0l-.022-.019-.049-.043-.057-.053-.045-.045-.029-.029-.011-.014a1.821,1.821,0,0,1-.131-.162l-.007-.01c0-.006-.007-.011-.01-.017a1.753,1.753,0,0,1-.106-.176h0a1.5,1.5,0,0,1-.081-.188c0-.006,0-.011-.007-.017h0v-.013c-.006-.016-.01-.033-.015-.051S1140.319,794.457,1140.312,794.435Z" transform="translate(-1136.606 -774.765)" fill="#003c74"/>
      <g id="Grupo_144815" data-name="Grupo 144815" transform="translate(0 21.745)">
        <g id="Grupo_144814" data-name="Grupo 144814">
          <path id="Trazado_187711" data-name="Trazado 187711" d="M1123.133,841.207l-.085,9.609,41.307,17.382.084-9.609Z" transform="translate(-1123.048 -841.207)" fill="#004b8f"/>
        </g>
      </g>
      <g id="Grupo_144816" data-name="Grupo 144816" transform="translate(41.308 17.383)">
        <path id="Trazado_187712" data-name="Trazado 187712" d="M1317.226,842.457l-.084,9.609,32.223-21.744.084-9.609Z" transform="translate(-1317.142 -820.713)" fill="#003c74"/>
      </g>
      <g id="Grupo_144818" data-name="Grupo 144818" transform="translate(0.085)">
        <g id="Grupo_144817" data-name="Grupo 144817">
          <path id="Trazado_187713" data-name="Trazado 187713" d="M1196.978,756.419l-17.089-7.19a8.2,8.2,0,0,0-1.335,1.014c-.8,1.051.231,2.487-1.109,3.391-1.651,1.113-5.709.87-9.066-.542l-.283-.122c-3.154-1.406-4.417-3.371-2.815-4.452,1.025-.692,2.793-.648,4.231-.913a9.377,9.377,0,0,0,2.111-.616,7.321,7.321,0,0,0,1.153-.754l-17.109-7.2-13.346,9.007c-.276-.094-.573-.216-.825-.329-.3-.134-.539-.254-.6-.293a3.9,3.9,0,0,1-1.184-1.131c-.509-.754-.458-1.675-1.705-2.232-2.178-.918-6.015-.205-8.635,1.562-2.591,1.747-3.015,3.874-.984,4.781,1.79.754,4.476.222,6.463.66a15.755,15.755,0,0,1,1.754.642q.09.04.172.079l-13.331,8.995,41.306,17.382Z" transform="translate(-1123.446 -739.036)" fill="#005b9c"/>
        </g>
      </g>
    </g>
    <g id="Grupo_144851" data-name="Grupo 144851" transform="translate(144.972 91.516)">
      <path id="Trazado_187714" data-name="Trazado 187714" d="M1406.544,1252.773c0,5.8-10.563,10.5-23.594,10.5s-23.593-4.7-23.593-10.5,10.563-10.5,23.593-10.5S1406.544,1246.976,1406.544,1252.773Z" transform="translate(-1351.478 -1116.237)" fill="#98a7d3"/>
      <g id="Grupo_144850" data-name="Grupo 144850">
        <g id="Grupo_144821" data-name="Grupo 144821" transform="translate(13.994 134.008)">
          <g id="Grupo_144820" data-name="Grupo 144820" transform="translate(3.597)">
            <path id="Trazado_187715" data-name="Trazado 187715" d="M1406.913,1281.928s-2.5-.458-1.8,1.585c0,0,5.841,2.51,9.924,1.943a2.555,2.555,0,0,0,2.418-3.209l.048-2.528-3.847.729.219,2.4Z" transform="translate(-1404.99 -1279.719)" fill="#e28262"/>
          </g>
          <path id="Trazado_187716" data-name="Trazado 187716" d="M1404.153,1289.271a1.618,1.618,0,0,1-.384,1.084c-1.007,1.161-2.986,1.2-4.38,1.107a47.112,47.112,0,0,1-6.665-.932c-.478-.1-.61-.256-.615-.4a1.944,1.944,0,0,1,1.5-1.182l-2.13-.272a5.37,5.37,0,0,0-3.317.677c-.544,1.555,2.1,2.594,2.1,2.594a43.122,43.122,0,0,0,6.2,1.732s7.479,1.764,8.384-.537Z" transform="translate(-1388.089 -1286.742)" fill="#411323"/>
        </g>
        <g id="Grupo_144823" data-name="Grupo 144823" transform="translate(28.854 130.533)">
          <g id="Grupo_144822" data-name="Grupo 144822" transform="translate(3.594)">
            <path id="Trazado_187717" data-name="Trazado 187717" d="M1476.722,1265.6s-2.5-.458-1.8,1.584c0,0,5.841,2.509,9.924,1.944a2.556,2.556,0,0,0,2.418-3.209l.048-2.528-3.847.728.219,2.4Z" transform="translate(-1474.799 -1263.39)" fill="#e28262"/>
          </g>
          <path id="Trazado_187718" data-name="Trazado 187718" d="M1473.975,1272.937a1.614,1.614,0,0,1-.384,1.084c-1.007,1.162-2.986,1.2-4.38,1.108a47.236,47.236,0,0,1-6.665-.932c-.477-.1-.61-.256-.615-.4a1.945,1.945,0,0,1,1.5-1.183l-2.13-.272a5.37,5.37,0,0,0-3.317.677c-.544,1.555,2.1,2.593,2.1,2.593a43.151,43.151,0,0,0,6.2,1.733s7.479,1.763,8.384-.537Z" transform="translate(-1457.911 -1270.41)" fill="#411323"/>
        </g>
        <g id="Grupo_144827" data-name="Grupo 144827" transform="translate(17.716 50.794)">
          <g id="Grupo_144824" data-name="Grupo 144824" transform="translate(15.918 7.269)">
            <path id="Trazado_187719" data-name="Trazado 187719" d="M1480.592,930.021a7.142,7.142,0,1,0,7.142-7.142A7.142,7.142,0,0,0,1480.592,930.021Z" transform="translate(-1480.545 -922.879)" fill="#003273"/>
            <path id="Trazado_187720" data-name="Trazado 187720" d="M1492.05,987.2s-.1,1.8-3.325,1.84c0,0-3.053,1.041-4.371-2.935-5.194-15.656-3.821-31.994-3.821-31.994s7.334-4.085,14.164-1.291C1494.7,952.821,1493.592,973.372,1492.05,987.2Z" transform="translate(-1480.369 -945.679)" fill="#003273"/>
          </g>
          <path id="Trazado_187721" data-name="Trazado 187721" d="M1499.094,1112.83s2.516,33.837,2.751,35.045a4.2,4.2,0,0,0,4.623-.043c-.012-1.66,1.8-15.5,1.984-18.095.321-4.466.858-10.108-1.965-16.527Z" transform="translate(-1479.191 -1065.135)" fill="#003273"/>
          <g id="Grupo_144825" data-name="Grupo 144825" transform="translate(0 7.267)">
            <path id="Trazado_187722" data-name="Trazado 187722" d="M1412.477,985.19s-.689,1.661-3.747.633c0,0-3.226-.028-3.152-4.215.283-16.492,7.513-33.585,7.513-33.585s8.139-.777,13.66,4.121C1426.751,952.144,1418.514,972.652,1412.477,985.19Z" transform="translate(-1405.577 -942.634)" fill="#003d8d"/>
            <path id="Trazado_187723" data-name="Trazado 187723" d="M1440.243,927.647a7.142,7.142,0,1,0,9.1-4.372h0A7.142,7.142,0,0,0,1440.243,927.647Z" transform="translate(-1432.546 -922.87)" fill="#003d8d"/>
          </g>
          <path id="Trazado_187724" data-name="Trazado 187724" d="M1463.15,902.1c-.863-7.942-4.848-11.628-4.848-11.628l-13.805-1.744s-3.806,6.622-4.2,13.371c1.649,4.5,7.532,5.812,7.532,5.812l4.466,1.326S1462.41,907.7,1463.15,902.1Z" transform="translate(-1432.905 -888.725)" fill="#003d8d"/>
          <g id="Grupo_144826" data-name="Grupo 144826" transform="translate(0.364 46.037)">
            <path id="Trazado_187725" data-name="Trazado 187725" d="M1407.565,1108.527s6.847,35.546,7.258,36.706c-.18-.087,3.236,1.57,4.749-.565-.258-1.639-.4-19.695-.6-22.293-.343-4.465-.3-8.631-4.037-14.561C1414.931,1107.811,1405.585,1101.119,1407.565,1108.527Z" transform="translate(-1407.29 -1105.038)" fill="#003d8d"/>
          </g>
        </g>
        <path id="Trazado_187726" data-name="Trazado 187726" d="M1465.467,1240.621" transform="translate(-1435.005 -1114.934)" fill="#2c130d"/>
        <g id="Grupo_144830" data-name="Grupo 144830" transform="translate(40.295 18.988)">
          <g id="Grupo_144828" data-name="Grupo 144828" transform="translate(1.172 19.093)">
            <path id="Trazado_187727" data-name="Trazado 187727" d="M1524.689,828.99s-2.514,2.962-7.517,10.111l.864,1.465s8.567-4.315,11.3-9.16Z" transform="translate(-1517.172 -828.99)" fill="#e28262"/>
          </g>
          <g id="Grupo_144829" data-name="Grupo 144829">
            <path id="Trazado_187728" data-name="Trazado 187728" d="M1513.273,747.776s6.448,14.072,10.322,13.536c0,0,1.337.084,1.6-.923,0,0,2.732-2.426-8.637-19.924a3.506,3.506,0,0,0-3.391-1.1S1509.72,741.646,1513.273,747.776Z" transform="translate(-1511.666 -739.279)" fill="#e28262"/>
          </g>
        </g>
        <g id="Grupo_144831" data-name="Grupo 144831" transform="translate(31.473 16.47)">
          <rect id="Rectngulo_42814" data-name="Rectngulo 42814" width="6.971" height="7.409" fill="#f5ae80"/>
        </g>
        <g id="Grupo_144832" data-name="Grupo 144832" transform="translate(26.364 1.027)">
          <path id="Trazado_187729" data-name="Trazado 187729" d="M1447.01,670.492l-.262-1.185-.522-4.339a3.955,3.955,0,0,1,.258-1.763,4.011,4.011,0,0,0,.355-1.8,5.088,5.088,0,0,1,1.737-4.535c2.38-2.525,6.964-1.92,6.964-1.92,2.369.45,4.4,1.453,5.464,3.486a7.391,7.391,0,0,1,.653,6.029,12.246,12.246,0,0,1-4.189,5.262c-1.211.936-2.391,1-3.925,1.42a17.14,17.14,0,0,1-4.193.343C1448.769,671.466,1447.16,671.175,1447.01,670.492Z" transform="translate(-1446.213 -654.884)" fill="#f39672"/>
        </g>
        <g id="Grupo_144833" data-name="Grupo 144833" transform="translate(30.335 12.623)">
          <path id="Trazado_187730" data-name="Trazado 187730" d="M1464.87,709.371" transform="translate(-1464.87 -709.371)" fill="#2c130d"/>
        </g>
        <g id="Grupo_144834" data-name="Grupo 144834" transform="translate(26.981)">
          <path id="Trazado_187731" data-name="Trazado 187731" d="M1452.467,662.682c.344-.488,1.6-.789,1.6-.789,1.513,0,1.319,2.02,1.458,2.895.046.283.1.577.166.869.721,2.568,2.879,2.543,4.725,2.856.068-.041.14-.081.216-.123a7.377,7.377,0,0,1,1.4-2.321,9.9,9.9,0,0,0,2.62-10.086,8.02,8.02,0,0,0-1.729-2.892,10.194,10.194,0,0,0-5.725-2.952c-2.145-.4-9.817.637-7.725,5.3,0,0,3.157,3.642,3,7.246" transform="translate(-1449.112 -650.059)" fill="#2c130d"/>
        </g>
        <g id="Grupo_144842" data-name="Grupo 144842" transform="translate(30.335 11.419)">
          <g id="Grupo_144838" data-name="Grupo 144838">
            <g id="Grupo_144835" data-name="Grupo 144835" transform="translate(0 0.169)">
              <path id="Trazado_187732" data-name="Trazado 187732" d="M1464.87,705.544a1.452,1.452,0,0,1,1.708-1,1.143,1.143,0,0,1,.834,1.231c-.011.124-.039.248-.051.372a2.622,2.622,0,0,1-1.621,1.836" transform="translate(-1464.87 -704.509)" fill="#f7ae80"/>
            </g>
            <g id="Grupo_144836" data-name="Grupo 144836" transform="translate(0.448 0.738)">
              <path id="Trazado_187733" data-name="Trazado 187733" d="M1468.095,707.275a.768.768,0,0,0-.337-.094c-.508-.033-.917.754-.41.891a.289.289,0,0,1-.007.4c-.175.188-.41.464-.357.731.032.159.208.244.368.283.128.032.153-.068.052-.116a.576.576,0,0,1-.194-.159c0-.009-.01-.018-.015-.027a.072.072,0,0,1-.012-.02.167.167,0,0,1-.006-.116.314.314,0,0,0,.395,0c.094-.116.023-.3.056-.43a1.017,1.017,0,0,1,.118-.263.271.271,0,0,0-.188-.454,1.149,1.149,0,0,0-.155.011c-.213-.11.025-.431.155-.481a.41.41,0,0,1,.444.078.631.631,0,0,1,.141.448,1.484,1.484,0,0,1-.139.538c-.046.094-.1.208-.151.305s.073.156.127.047a3.194,3.194,0,0,0,.363-.885A.673.673,0,0,0,1468.095,707.275Z" transform="translate(-1466.976 -707.179)" fill="#dc9472"/>
            </g>
            <g id="Grupo_144837" data-name="Grupo 144837">
              <path id="Trazado_187734" data-name="Trazado 187734" d="M1464.87,704.917s.06-.087.16-.244a2,2,0,0,1,.211-.243,1.658,1.658,0,0,1,.321-.25,1.337,1.337,0,0,1,.434-.157,1.12,1.12,0,0,1,.5.034,1.344,1.344,0,0,1,.252.106,1.187,1.187,0,0,1,.2.154.964.964,0,0,1,.265.451,1.361,1.361,0,0,1,.008.565l-.019.153v.02h0v-.019h0v.009l-.008.038-.015.075a1.619,1.619,0,0,1-.072.269,2.155,2.155,0,0,1-.236.471,2.8,2.8,0,0,1-.305.377,3.425,3.425,0,0,1-.574.476c-.153.1-.247.152-.247.152a1.8,1.8,0,0,0,.278-.094,2.879,2.879,0,0,0,.677-.387,2.317,2.317,0,0,0,.377-.372,2,2,0,0,0,.315-.518,1.955,1.955,0,0,0,.1-.3l.019-.073.009-.038v-.01l0-.03v-.02l.023-.153a1.67,1.67,0,0,0-.007-.683,1.31,1.31,0,0,0-.377-.609,1.737,1.737,0,0,0-.137-.112l-.16-.094a1.425,1.425,0,0,0-.307-.108,1.279,1.279,0,0,0-.628.008,1.379,1.379,0,0,0-.493.247,1.409,1.409,0,0,0-.308.332,2.143,2.143,0,0,0-.171.3C1464.9,704.816,1464.87,704.917,1464.87,704.917Z" transform="translate(-1464.87 -703.713)" fill="#dc9472"/>
            </g>
          </g>
          <g id="Grupo_144841" data-name="Grupo 144841" transform="translate(0.027 2.897)">
            <g id="Grupo_144839" data-name="Grupo 144839">
              <path id="Trazado_187735" data-name="Trazado 187735" d="M1465.842,717.748a.422.422,0,1,1-.422-.423.422.422,0,0,1,.422.423Z" transform="translate(-1464.998 -717.325)" fill="#fff"/>
            </g>
            <g id="Grupo_144840" data-name="Grupo 144840" transform="translate(0 0.001)">
              <path id="Trazado_187736" data-name="Trazado 187736" d="M1465.521,717.977a.333.333,0,0,1-.333-.333h0a.33.33,0,0,1,.233-.313h0a.422.422,0,1,0,.422.423v-.03A.33.33,0,0,1,1465.521,717.977Z" transform="translate(-1464.998 -717.33)" fill="#e6f1ff"/>
            </g>
          </g>
        </g>
        <g id="Grupo_144843" data-name="Grupo 144843" transform="translate(22.392 19.024)">
          <path id="Trazado_187737" data-name="Trazado 187737" d="M1454.793,776.269l-7.7-11.042c-.359-1.623.45-4.852.45-4.852l2.46-16.921c-.291-1.939-.426-4.4-3.051-3.957a16.261,16.261,0,0,0-3.358.936c.334,1.571-2.378,2.581-2.378,2.581-3.73,1.612-4.593.55-4.593.55a55.328,55.328,0,0,0-5.223,2.932c-.906.745-1.453,1.9-1.168,3.862l2.686,16.039-.471,3.984-4.905,12.435a10.54,10.54,0,0,1,4.779-.571c1.525.183,2.839,1.081,4.354,1.25a8.419,8.419,0,0,0,5.716-1.669,27.543,27.543,0,0,0,6.616-2.325h.144c1.712.009,3.652-.021,4.915-1.36C1454.333,777.85,1455.117,776.74,1454.793,776.269Z" transform="translate(-1427.546 -739.445)" fill="#411323"/>
        </g>
        <g id="Grupo_144844" data-name="Grupo 144844" transform="translate(23.08 26.042)">
          <path id="Trazado_187738" data-name="Trazado 187738" d="M1430.782,798.126l.045-19.483c.471-5.339,3.126-6.191,3.126-6.191,5.358-.628,4.533,9.3,4.533,9.3l-2.237,16.785" transform="translate(-1430.782 -772.424)" fill="#f39672"/>
        </g>
        <g id="Grupo_144845" data-name="Grupo 144845" transform="translate(0 57.59)">
          <path id="Trazado_187739" data-name="Trazado 187739" d="M1328.356,925.462c2.458-1.319,2.678-1.74,3.109-2.355,1.869-2.655-1.909-2.571-2.86-2.355-.545.124-.579,1.422-2.272,3.007,0,0-2.66,1.544-3.316,1.435,0,0-.682.094-.682.589C1322.337,925.777,1324.2,926.881,1328.356,925.462Z" transform="translate(-1322.335 -920.655)" fill="#f39672"/>
        </g>
        <g id="Grupo_144848" data-name="Grupo 144848" transform="translate(6.521 49.025)">
          <g id="Grupo_144846" data-name="Grupo 144846" transform="translate(20.067 0.038)">
            <path id="Trazado_187740" data-name="Trazado 187740" d="M1447.266,880.589" transform="translate(-1447.266 -880.589)" fill="#f7ae80"/>
          </g>
          <g id="Grupo_144847" data-name="Grupo 144847">
            <path id="Trazado_187741" data-name="Trazado 187741" d="M1369.939,881.078l-16.688,9.138c-.721,2.008.207,2.3.207,2.3l12.919-3.716c5.515-1.477,7.7-3.792,7.7-3.792s2.412-1.671-.666-4.159C1373.411,880.842,1372.012,879.733,1369.939,881.078Z" transform="translate(-1352.977 -880.413)" fill="#f39672"/>
          </g>
        </g>
        <g id="Grupo_144849" data-name="Grupo 144849" transform="translate(28.23 0.246)">
          <path id="Trazado_187742" data-name="Trazado 187742" d="M1455.6,662.4c.432,3.231-.055,7.508,1.555,11.039.716,1.572,1.507,2.355,1.078,4.175-.351,1.492-1.058,2.9-1.44,4.446-.848,3.411.3,6.744,4.279,5.509,1.906-.593,2.12-.583,3.855.094a5.044,5.044,0,0,0,4.278.017c2.248-1.095,1.57-2.749,2.826-4.406.959-1.263,2.316-1.231,3.039-2.928.872-2.048-.167-3.142-1.23-4.879a6.39,6.39,0,0,1-.919-5.181c.306-1.834-.147-2.761-.754-4.447-.623-1.728-.351-3.233-.646-4.966-.583-3.426-2.455-8.075-6.044-9.08-1.759-.493-4.032-.877-5.724-.256-2.305.848-4.872,1.746-4.773,4.58A46.876,46.876,0,0,0,1455.6,662.4Z" transform="translate(-1454.98 -651.214)" fill="#2c130d"/>
        </g>
        <path id="Trazado_187743" data-name="Trazado 187743" d="M1341.833,916.594s.471,1.368-1.234,1.036l-1.667-1.27a.66.66,0,0,1-.335-.771s.2-.283.731,0Z" transform="translate(-1335.116 -858.978)" fill="#f39672"/>
      </g>
    </g>
  </g>
  <g id="Grupo_144853" data-name="Grupo 144853" transform="translate(6.539 0)">
    <path id="Trazado_187744" data-name="Trazado 187744" d="M1489.264,181.891a5.762,5.762,0,1,1-5.761-5.762h0A5.762,5.762,0,0,1,1489.264,181.891Z" transform="translate(-1278.209 -169.678)" fill="#15606c"/>
    <path id="Trazado_187745" data-name="Trazado 187745" d="M644.987,1319.618a5.762,5.762,0,1,1-5.762-5.762h0A5.761,5.761,0,0,1,644.987,1319.618Z" transform="translate(-613.616 -1065.266)" fill="#15606c"/>
    <path id="Trazado_187746" data-name="Trazado 187746" d="M630.01,393.981a4.124,4.124,0,1,1-4.126-4.122h0A4.124,4.124,0,0,1,630.01,393.981Z" transform="translate(-604.404 -337.92)" fill="#15606c"/>
    <path id="Trazado_187747" data-name="Trazado 187747" d="M1746.406,539.435a4.124,4.124,0,1,1-4.124-4.124h0a4.123,4.123,0,0,1,4.123,4.124Z" transform="translate(-1483.201 -452.416)" fill="#15606c"/>
    <circle id="Elipse_4945" data-name="Elipse 4945" cx="4.124" cy="4.124" r="4.124" transform="translate(140.891 43.119)" fill="#93c0e9"/>
    <path id="Trazado_187748" data-name="Trazado 187748" d="M548.451,801.2a4.123,4.123,0,1,1-4.124-4.123h0A4.123,4.123,0,0,1,548.451,801.2Z" transform="translate(-540.204 -658.471)" fill="#a4dbf7"/>
    <path id="Trazado_187749" data-name="Trazado 187749" d="M1761.922,928.61a4.123,4.123,0,1,1-4.124-4.124,4.124,4.124,0,0,1,4.124,4.124Z" transform="translate(-1495.417 -758.765)" fill="#a4dbf7"/>
    <path id="Trazado_187750" data-name="Trazado 187750" d="M1065.081,149.94a4.123,4.123,0,1,1-4.124-4.123,4.123,4.123,0,0,1,4.124,4.123Z" transform="translate(-946.882 -145.817)" fill="#ff7d00"/>
    <path id="Trazado_187751" data-name="Trazado 187751" d="M1672.381,1229.176a4.123,4.123,0,1,1-4.124-4.123h0A4.123,4.123,0,0,1,1672.381,1229.176Z" transform="translate(-1424.932 -995.363)" fill="#ff7d00"/>
  </g>
  <g id="Grupo_144862" data-name="Grupo 144862" transform="translate(0 22.363)">
    <g id="Grupo_144861" data-name="Grupo 144861" transform="translate(0 0)">
      <g id="Grupo_144854" data-name="Grupo 144854" transform="translate(0 152.528)">
        <line id="Lnea_139" data-name="Lnea 139" x2="12.93" fill="none" stroke="#5893d0" stroke-miterlimit="10" stroke-width="12.473"/>
        <line id="Lnea_140" data-name="Lnea 140" x2="6.465" transform="translate(14.857)" fill="none" stroke="#5893d0" stroke-miterlimit="10" stroke-width="12.473"/>
      </g>
      <g id="Grupo_144855" data-name="Grupo 144855" transform="translate(250.557 180.122)">
        <line id="Lnea_141" data-name="Lnea 141" x2="15.062" fill="none" stroke="#5893d0" stroke-miterlimit="10" stroke-width="13.462"/>
        <line id="Lnea_142" data-name="Lnea 142" x2="7.531" transform="translate(17.307)" fill="none" stroke="#5893d0" stroke-miterlimit="10" stroke-width="13.462"/>
      </g>
      <g id="Grupo_144856" data-name="Grupo 144856" transform="translate(107.806 229.209)">
        <line id="Lnea_143" data-name="Lnea 143" x1="12.931" transform="translate(8.391)" fill="none" stroke="#5893d0" stroke-miterlimit="10" stroke-width="12.473"/>
        <line id="Lnea_144" data-name="Lnea 144" x1="6.465" fill="none" stroke="#5893d0" stroke-miterlimit="10" stroke-width="12.473"/>
      </g>
      <g id="Grupo_144857" data-name="Grupo 144857" transform="translate(232.052 5.525)">
        <line id="Lnea_145" data-name="Lnea 145" x2="5.425" transform="translate(6.299)" fill="none" stroke="#5893d0" stroke-miterlimit="10" stroke-width="12.473"/>
        <line id="Lnea_146" data-name="Lnea 146" x2="4.69" transform="translate(13.122)" fill="none" stroke="#5893d0" stroke-miterlimit="10" stroke-width="12.473"/>
        <line id="Lnea_147" data-name="Lnea 147" x2="4.69" fill="none" stroke="#5893d0" stroke-miterlimit="10" stroke-width="12.473"/>
      </g>
      <line id="Lnea_148" data-name="Lnea 148" x2="19.053" transform="translate(256.093 96.768)" fill="none" stroke="#5893d0" stroke-miterlimit="10" stroke-width="12.473"/>
      <g id="Grupo_144858" data-name="Grupo 144858" transform="translate(157.182)">
        <line id="Lnea_149" data-name="Lnea 149" x2="1.802" y2="1.803" fill="none" stroke="#5893d0" stroke-miterlimit="10" stroke-width="12.473"/>
        <line id="Lnea_150" data-name="Lnea 150" x2="1.803" y2="1.802" transform="translate(3.074 3.074)" fill="none" stroke="#5893d0" stroke-miterlimit="10" stroke-width="12.473"/>
        <line id="Lnea_151" data-name="Lnea 151" x1="1.803" y2="1.803" transform="translate(3.074)" fill="none" stroke="#5893d0" stroke-miterlimit="10" stroke-width="12.473"/>
        <line id="Lnea_152" data-name="Lnea 152" x1="1.802" y2="1.802" transform="translate(0 3.074)" fill="none" stroke="#5893d0" stroke-miterlimit="10" stroke-width="12.473"/>
      </g>
      <g id="Grupo_144859" data-name="Grupo 144859" transform="translate(5.784 60.68)">
        <line id="Lnea_153" data-name="Lnea 153" x2="1.802" y2="1.802" fill="none" stroke="#5893d0" stroke-miterlimit="10" stroke-width="12.473"/>
        <line id="Lnea_154" data-name="Lnea 154" x2="1.803" y2="1.803" transform="translate(3.074 3.074)" fill="none" stroke="#5893d0" stroke-miterlimit="10" stroke-width="12.473"/>
        <line id="Lnea_155" data-name="Lnea 155" x1="1.803" y2="1.802" transform="translate(3.074)" fill="none" stroke="#5893d0" stroke-miterlimit="10" stroke-width="12.473"/>
        <line id="Lnea_156" data-name="Lnea 156" x1="1.802" y2="1.803" transform="translate(0 3.074)" fill="none" stroke="#5893d0" stroke-miterlimit="10" stroke-width="12.473"/>
      </g>
      <g id="Grupo_144860" data-name="Grupo 144860" transform="translate(141.562 173.092)">
        <line id="Lnea_157" data-name="Lnea 157" x2="1.803" y2="1.803" fill="none" stroke="#5893d0" stroke-miterlimit="10" stroke-width="12.473"/>
        <line id="Lnea_158" data-name="Lnea 158" x2="1.802" y2="1.802" transform="translate(3.074 3.074)" fill="none" stroke="#5893d0" stroke-miterlimit="10" stroke-width="12.473"/>
        <line id="Lnea_159" data-name="Lnea 159" x1="1.802" y2="1.803" transform="translate(3.074)" fill="none" stroke="#5893d0" stroke-miterlimit="10" stroke-width="12.473"/>
        <line id="Lnea_160" data-name="Lnea 160" x1="1.803" y2="1.802" transform="translate(0 3.074)" fill="none" stroke="#5893d0" stroke-miterlimit="10" stroke-width="12.473"/>
      </g>
      <path id="Trazado_187752" data-name="Trazado 187752" d="M753.447,361.784a2.237,2.237,0,1,1-2.237-2.237h0A2.237,2.237,0,0,1,753.447,361.784Z" transform="translate(-698.002 -336.422)" fill="none" stroke="#5893d0" stroke-miterlimit="10" stroke-width="12.473"/>
      <path id="Trazado_187753" data-name="Trazado 187753" d="M1447.181,411.1a2.237,2.237,0,1,1-2.238-2.237h0A2.237,2.237,0,0,1,1447.181,411.1Z" transform="translate(-1244.091 -375.245)" fill="none" stroke="#5893d0" stroke-miterlimit="10" stroke-width="12.473"/>
    </g>
  </g>
</svg>
