<svg xmlns="http://www.w3.org/2000/svg" width="275.027" height="267.102" viewBox="0 0 275.027 267.102">
  <g id="Grupo_156422" data-name="Grupo 156422" transform="translate(-1092 -3942.898)">
    <g id="Elipse_5438" data-name="Elipse 5438" transform="translate(1092 3950)" fill="#fff" stroke="#707070" stroke-width="1">
      <circle cx="130" cy="130" r="130" stroke="none"/>
      <circle cx="130" cy="130" r="129.5" fill="none"/>
    </g>
    <g id="Grupo_152206" data-name="Grupo 152206" transform="translate(948.424 3855.898)">
      <path id="Trazado_205425" data-name="Trazado 205425" d="M626.873,551.418c-5.536,4.5-13.4,9.494-19.879,11.644l9.624,1.812-39.754,46.877-79.235,22.8-93.768,100,73.863-.025L515.36,674.1l75.4-44.8L620.047,566.9l6.239,7.552C625.038,567.74,625.61,558.44,626.873,551.418Z" transform="translate(-216.621 -401.03)" fill="#8bdae6"/>
      <path id="Trazado_205426" data-name="Trazado 205426" d="M220.492,1175.7s-4.295-7.7-5.339-9.334-3.767-8.139-3.864-8.395,1.874-3.333,1.434-3.439-.927,1.622-1.4,1.416-1.841-4.366-2.109-4.159c-.5.386.739,2.58.473,2.718s-1.075-2.414-1.6-2.339,1,2.339.85,2.539-1.726-1.933-2.011-1.478c-.155.247,1.452,1.862,1.143,2.013s-1.738-.891-1.889-.591,1.322.713,1.762,1.523,1.191,1.161,1.5,2.662.777,6.933,2.373,9.643,5.106,8.708,5.106,8.708Z" transform="translate(-45.915 -919.45)" fill="#f79c8d"/>
      <path id="Trazado_205427" data-name="Trazado 205427" d="M281.053,1308.744s4.75,5.12,5.457,7.183-.688,5.015-2.614,5.144-6.212-9.087-6.212-9.087Z" transform="translate(-107.665 -1054.988)" fill="#355389"/>
      <path id="Trazado_205428" data-name="Trazado 205428" d="M398.83,1441.508c-.346-.289-.764-.158-1.964-.713a7.324,7.324,0,0,0-1.117-.333.138.138,0,0,1-.105-.1c-.365-1.38-1.963-7.761-2.138-9.6-.179-1.882-1.393-9.86-1.578-11.073a.139.139,0,0,0-.175-.113l-3.487.972a.139.139,0,0,0-.1.165c.215.951,1.556,6.922,1.949,9.943.314,2.409,3.9,10.137,3.975,10.632l0,.014a.3.3,0,0,0,.3.259h3.886C398.426,1441.56,398.939,1441.6,398.83,1441.508Z" transform="translate(-203.066 -1150.687)" fill="#f48c7f"/>
      <path id="Trazado_205429" data-name="Trazado 205429" d="M384.565,1361.105c-1.855-5.628-3.93-5.389-3.93-5.389l1.6,11.833c1.146-.313,2.638-1.011,3.782-1.334A51.569,51.569,0,0,0,384.565,1361.105Z" transform="translate(-196.565 -1095.548)" fill="#13375b"/>
      <path id="Trazado_205430" data-name="Trazado 205430" d="M321.8,1255.448c-.568-3.7-3.917-6.363-7.419-4.567a8.31,8.31,0,0,0-2.4,1.922c-1.471,1.888-1.847,4.219-3.366,6.052a15,15,0,0,0,2.037,1.294l.946-1.261-.326,1.574a23.091,23.091,0,0,0,10.214,2.027A19.635,19.635,0,0,0,321.8,1255.448Z" transform="translate(-134.377 -1004.526)" fill="#f7cc7f"/>
      <path id="Trazado_205431" data-name="Trazado 205431" d="M357.905,1564.234a14.978,14.978,0,0,0-2.673-1.482c-.111-.054-.517-.312-.663-.4a5.16,5.16,0,0,1-1.064-.942,5.312,5.312,0,0,1-.521-2.308c.176-1.948,3-33.2,3.595-36.583.615-3.492-.322-8.819-.322-8.819l-2.18-.822-4.138,14.342.326,10.917a29.2,29.2,0,0,0-1.1,5.027c-.123,1.88,1.406,17.144,1.406,17.144h0a7.963,7.963,0,0,1-.082,1.348c-.112.571-.738,1.746-.451,2.283a1.44,1.44,0,0,0,.615.672l7.435.12C358.5,1564.736,358.232,1564.474,357.905,1564.234Z" transform="translate(-169.389 -1231.258)" fill="#f48c7f"/>
      <path id="Trazado_205432" data-name="Trazado 205432" d="M260.142,1503.044a24.376,24.376,0,0,0-3.2,7.119c-.615,3.224.451,13.13-.731,17.354-.64,2.287-3.066,5.818-3.435,8.773s-1.652,11.483-1.652,11.483h0a7.527,7.527,0,0,1-.893,2.518,7.421,7.421,0,0,0-.973,1.283,3.782,3.782,0,0,0,.131,2.933c.171.373-.012.372.377.492a2.387,2.387,0,0,0,2.867-1.349,6.862,6.862,0,0,0,.562-2.479,11.571,11.571,0,0,1,.407-2.621h0l8.253-20.245,5.975-17.472,1.531-9Z" transform="translate(-82.91 -1221.724)" fill="#f79c8d"/>
      <path id="Trazado_205433" data-name="Trazado 205433" d="M251.26,1867.683a3.66,3.66,0,0,1-3.593-1.5,3.957,3.957,0,0,0-.341,2.943c.294.642,1.154.624,1.83.649a1.767,1.767,0,0,0,1.624-1A5.97,5.97,0,0,0,251.26,1867.683Z" transform="translate(-81.312 -1536.338)" fill="#86b1f2"/>
      <path id="Trazado_205434" data-name="Trazado 205434" d="M359.563,1874.29a6.717,6.717,0,0,1-4.233-.167,3.429,3.429,0,0,0-.34,1.774c.18.528.437.647.665.653,1.8.047,6.579.112,7.949.13a.224.224,0,0,0,.174-.369A35.984,35.984,0,0,0,359.563,1874.29Z" transform="translate(-174.385 -1543.199)" fill="#86b1f2"/>
      <path id="Trazado_205435" data-name="Trazado 205435" d="M305.34,1529.518l.466.03h.024l.461.026.028,0,.465.022h.024l.475.018a30.729,30.729,0,0,0,5.336-.2c.712-7.129.977-13.635,1.241-15.075.639-3.492-.557-9-.557-9l-.571-.1.361-2.041L303.5,1504.4s-2.685,3.9-3.324,7.119.469,13.13-.761,17.354C299.419,1528.875,302.157,1529.3,305.34,1529.518Z" transform="translate(-126.434 -1222.897)" fill="#f9c852"/>
      <path id="Trazado_205436" data-name="Trazado 205436" d="M314.017,1348.25s-3.419-.218-4.771,1.259,3,13.165,3.246,15.045-1.254,6.88-1.254,6.88,8.031,1.62,10.326.1c0,0,.246-13.521,0-14.865a39.786,39.786,0,0,0-2.787-7.343C318.285,1348.788,314.017,1348.25,314.017,1348.25Z" transform="translate(-134.696 -1089.093)" fill="#355389"/>
      <path id="Trazado_205437" data-name="Trazado 205437" d="M346.251,1314.3s-.018.1-.05.272a26.036,26.036,0,0,1-1.136,4.308c-.479.908,1.64,3.8,3.681,3.45.607-.1-.513-2.66-.459-2.931.1-.518.243-1.225.386-1.95l.239-1.213c.218-1.107.4-2.013.4-2.013Z" transform="translate(-165.791 -1059.717)" fill="#f7a491"/>
      <path id="Trazado_205438" data-name="Trazado 205438" d="M353.235,1314.569c.032-.171.05-.272.05-.272l3.057-.076s-.178.906-.4,2.013l-.238,1.206a2.865,2.865,0,0,1-1.46-.733,3.865,3.865,0,0,1-1.106-1.648C353.18,1314.864,353.211,1314.7,353.235,1314.569Z" transform="translate(-172.825 -1059.717)" fill="#f47458"/>
      <path id="Trazado_205439" data-name="Trazado 205439" d="M348.056,1263.7a2.752,2.752,0,0,0-2.344,1c-.9,1.171-1.877,4.792.367,6.76s4.461-.26,4.789-2.622S351.325,1263.615,348.056,1263.7Z" transform="translate(-165.539 -1016.085)" fill="#f7a491"/>
      <path id="Trazado_205440" data-name="Trazado 205440" d="M386.947,1293c-.268.522-.717.811-1,.645s-.3-.723-.034-1.244.717-.811,1-.645S387.215,1292.48,386.947,1293Z" transform="translate(-200.954 -1040.28)" fill="#f7a491"/>
      <path id="Trazado_205441" data-name="Trazado 205441" d="M339.691,1260.684s-1.925,3.443-3.3,3.6-1.558,1.989-1.558,1.989.492-4.216,1.856-5.029A5.053,5.053,0,0,1,339.691,1260.684Z" transform="translate(-157.013 -1013.456)" fill="#f7cc7f"/>
      <path id="Trazado_205442" data-name="Trazado 205442" d="M339.778,1287.5c.112.612-.113,1.172-.5,1.253s-.8-.35-.909-.962.113-1.172.5-1.252S339.666,1286.89,339.778,1287.5Z" transform="translate(-160.041 -1035.807)" fill="#f7a491"/>
      <path id="Trazado_205443" data-name="Trazado 205443" d="M361.265,1309.92l2.083.41a.928.928,0,0,1-1.125.628C361.1,1310.77,361.265,1309.92,361.265,1309.92Z" transform="translate(-179.832 -1056.004)" fill="#fff"/>
      <g id="Grupo_152196" data-name="Grupo 152196" transform="translate(310.82 260.8)">
        <rect id="Rectángulo_44832" data-name="Rectángulo 44832" width="0.869" height="19.921" transform="translate(43.09 72.771) rotate(169.264)" fill="#3c8f7c"/>
        <path id="Trazado_205444" data-name="Trazado 205444" d="M1322.652,1769.928h-1.027l3.829-19.827.854.162Z" transform="translate(-1319.939 -1696.904)" fill="#3c8f7c"/>
        <path id="Trazado_205445" data-name="Trazado 205445" d="M1542.4,1769.928h-1.027l3.829-19.827.854.162Z" transform="translate(-1509.696 -1696.904)" fill="#3c8f7c"/>
        <path id="Trazado_205446" data-name="Trazado 205446" d="M1374.387,1770.49l.834.01-3.671-19.748-.854.162Z" transform="translate(-1362.313 -1697.466)" fill="#184655"/>
        <path id="Trazado_205447" data-name="Trazado 205447" d="M1336.132,1434.57c4.56.488,10.462,1,16.387,11.058,6.476,10.989,3.067,27.4-2.044,31.964s-21.8,10.193-35.835,1.762c0,0-8.473-5.109-4.124-13.59,6.692-13.05,5.746-15.771,8.738-20.886S1326.452,1433.533,1336.132,1434.57Z" transform="translate(-1309.274 -1424.341)" fill="#f47458"/>
        <path id="Trazado_205448" data-name="Trazado 205448" d="M1369.935,1451.272c-4.044-6.862-8.077-9.281-11.68-10.28a30.175,30.175,0,0,1,4.221,5.7c6.475,10.989,3.067,27.4-2.044,31.964-4.532,4.045-18.173,8.931-30.989,4.1a13.02,13.02,0,0,0,2.613,2.239c14.032,8.432,30.725,2.8,35.835-1.762S1376.411,1462.26,1369.935,1451.272Z" transform="translate(-1326.69 -1429.986)" fill="#b75742"/>
        <path id="Trazado_205449" data-name="Trazado 205449" d="M1391.365,1557.662l-1.172,3.516,3.572-1.405Z" transform="translate(-1379.149 -1530.731)" fill="#f79c8d"/>
        <path id="Trazado_205450" data-name="Trazado 205450" d="M1395.111,1480.994c-.238.01-.891.227-1.845,2.025-1.219,2.3-3,9.229-3,9.229l5.317,1.973.683-1.447,1.125-11.142S1395.177,1480.991,1395.111,1480.994Z" transform="translate(-1379.211 -1464.528)" fill="#6394db"/>
        <path id="Trazado_205451" data-name="Trazado 205451" d="M1430.656,1473.672a32.584,32.584,0,0,0-7.028,1s-1.283,10.986,1.155,19.334c.546,1.869-.451,7.747-.451,7.747l15.753-.207s-1.866-14.21-1.163-16.505.72-10.295.72-10.295-.108-.017-3.54-.608A35.734,35.734,0,0,0,1430.656,1473.672Z" transform="translate(-1407.729 -1458.205)" fill="#86b1f2"/>
        <path id="Trazado_205452" data-name="Trazado 205452" d="M1482.7,1828.805s-.349,4.009-.989,5.119.034,3,.067,3.256,1.349.629,3.44.407,2.057-.7,1.889-1.48-1.281-1.776-1.349-2.516a19.242,19.242,0,0,1,.641-3.4Z" transform="translate(-1457.938 -1764.866)" fill="#f7a491"/>
        <path id="Trazado_205453" data-name="Trazado 205453" d="M1353.6,1653.61s-10.875-.6-13.3.864.439,4.475.439,4.475,8.853,3.836,23.675,4.689c3.51.2,3.812-9.121,3.156-9.892S1353.6,1653.61,1353.6,1653.61Z" transform="translate(-1335.221 -1613.371)" fill="#f9c852"/>
        <path id="Trazado_205454" data-name="Trazado 205454" d="M1484.047,1871.808c2.153-.229,1.887-1.283,1.713-2.083a7.084,7.084,0,0,0-1.094-1.651,3.592,3.592,0,0,1-1.441.7,5.4,5.4,0,0,1-3.15-.634,10.325,10.325,0,0,0-.288,2.768C1479.822,1871.173,1481.894,1872.037,1484.047,1871.808Z" transform="translate(-1456.505 -1798.776)" fill="#f47458"/>
        <path id="Trazado_205455" data-name="Trazado 205455" d="M1485.995,1662.045c-.435,3.276-2.586,19.588-2.586,19.588l4.992.617s6.138-21.29,5.823-24.546-2.612-3.53-2.612-3.53S1487.145,1653.372,1485.995,1662.045Z" transform="translate(-1459.641 -1614.052)" fill="#f9c852"/>
        <path id="Trazado_205456" data-name="Trazado 205456" d="M1428.562,1490.38c-1.473-.551-2.193,12.676-2.392,18.12a64.456,64.456,0,0,1-8.286-.083c-.533-.04-1.76-.488-2.29-.557a5.328,5.328,0,0,0-1.3-.062,24.63,24.63,0,0,0-3.049,1.368c-.288.3-1.068,1.062-.937,1.39s1.5-.916,1.5-.916l.669-.374c-.832.811-2.42,1.878-2.191,2.266s1.655-.7,2.676-1.442c-.875.788-1.963,2.2-1.713,2.418.225.2,1.463-1.435,2.785-1.905.49-.174.979.308,1.364.367a2.786,2.786,0,0,0,1,.055l1.432-.4c.488.044.5.332.992.436.572.121,1.51.249,2.238.426,4.193,1.021,5.591,1.495,6.874,1.494C1431.818,1512.976,1432.044,1491.682,1428.562,1490.38Z" transform="translate(-1396.478 -1472.619)" fill="#f7a491"/>
        <path id="Trazado_205457" data-name="Trazado 205457" d="M1527.023,1494.979c.276-5.576.236-12.449-2.9-13.622-1.238-.463-3.419,2.319-3.027,13.735A23.652,23.652,0,0,0,1527.023,1494.979Z" transform="translate(-1492.144 -1464.799)" fill="#86b1f2"/>
        <path id="Trazado_205458" data-name="Trazado 205458" d="M1350.968,1853.928a2.7,2.7,0,0,1-.344,2.312c-.78.92-4.021,1.823-4.446,2.322a1.4,1.4,0,0,0-.393.923l9.1-.249-.1-2.737-.419-1.967Z" transform="translate(-1340.801 -1786.56)" fill="#f7a491"/>
        <path id="Trazado_205459" data-name="Trazado 205459" d="M1341.179,1872.908s2.337.942,3.466.384,1.095-.712,1.421-.5.444,3,.444,3l-10.227.069c-.712-.016-1.072-.539-.493-.986a8.347,8.347,0,0,1,1.115-.661A32.049,32.049,0,0,1,1341.179,1872.908Z" transform="translate(-1331.922 -1802.77)" fill="#f47458"/>
        <path id="Trazado_205460" data-name="Trazado 205460" d="M1335.633,1657.589c-.7-1.474-2.3-3.394-5.115-2.238-2.683,1.1-3.4,3.813-2.557,6.588s6.419,19.088,6.614,21.331l4.45.029s-.809-12.917-1.007-16.039A30.151,30.151,0,0,0,1335.633,1657.589Z" transform="translate(-1325.121 -1614.782)" fill="#f9c852"/>
        <path id="Trazado_205461" data-name="Trazado 205461" d="M1327.224,1563.907H1342.1a.97.97,0,0,1,.9.6l4.58,11.17h8.2a.415.415,0,0,1,.415.415h0a.415.415,0,0,1-.415.415h-23.338a1.629,1.629,0,0,1-1.486-.962l-4.611-10.272A.97.97,0,0,1,1327.224,1563.907Z" transform="translate(-1323.936 -1536.124)" fill="#355389"/>
        <path id="Trazado_205462" data-name="Trazado 205462" d="M1391.907,1604.719a.818.818,0,1,0,.614-1.067A.875.875,0,0,0,1391.907,1604.719Z" transform="translate(-1380.61 -1570.432)" fill="#fff"/>
        <path id="Trazado_205463" data-name="Trazado 205463" d="M1463.43,1437.37l.728,4.8s-2.658,5.711-4.244,5.216c-1.331-.416-.512-5.469-.512-5.469a13.847,13.847,0,0,0,.508-4.072C1459.692,1436.484,1463.43,1437.37,1463.43,1437.37Z" transform="translate(-1438.695 -1426.613)" fill="#f7a491"/>
        <path id="Trazado_205464" data-name="Trazado 205464" d="M1464.111,1437.842c-.218-1.358,3.521-.472,3.521-.472l.06.4a2.206,2.206,0,0,1-.405.669,4.921,4.921,0,0,1-3.269,1.479A7.4,7.4,0,0,0,1464.111,1437.842Z" transform="translate(-1442.897 -1426.613)" fill="#f47458" opacity="0.2"/>
        <g id="Grupo_152195" data-name="Grupo 152195" transform="translate(18.965 0)">
          <path id="Trazado_205465" data-name="Trazado 205465" d="M1454.6,1379.972c.106-.038.847,5.463-.56,6.977s-4.147,2.009-5.13.817c-1.087-1.318-1.033-7.231,1.154-8.788S1454.6,1379.972,1454.6,1379.972Z" transform="translate(-1448.218 -1376)" fill="#f7a491"/>
          <path id="Trazado_205466" data-name="Trazado 205466" d="M1455.84,1360.387a6.072,6.072,0,0,1,3.188,1.818c.767.091,1.811.515,2.888,2.3a4.46,4.46,0,0,1-1.2,5.815,3.476,3.476,0,0,0-1.521,2.569l-.244-.712a3.979,3.979,0,0,1-.193-1.678,3.261,3.261,0,0,1,.249-1.009c.371-.8-.8-1.325-1.124-1.988-.252-.51-.264-1.677-.661-2.52l-.474-.644a3.015,3.015,0,0,0-2.165-.611C1453.517,1363.967,1453.671,1359.944,1455.84,1360.387Z" transform="translate(-1453.16 -1360.353)" fill="#f7cc7f"/>
          <path id="Trazado_205467" data-name="Trazado 205467" d="M1483.387,1412.288c-.011.671.294,1.221.681,1.227s.711-.532.722-1.2-.294-1.221-.681-1.227S1483.4,1411.617,1483.387,1412.288Z" transform="translate(-1478.587 -1404.16)" fill="#f7a491"/>
        </g>
        <path id="Trazado_205468" data-name="Trazado 205468" d="M1456.06,1432.838l-2.12-.11a.928.928,0,0,0,.938.883C1456.013,1433.7,1456.06,1432.838,1456.06,1432.838Z" transform="translate(-1434.194 -1422.849)" fill="#fff"/>
      </g>
      <g id="Grupo_152197" data-name="Grupo 152197" transform="translate(374.813 235.499)">
        <path id="Trazado_205469" data-name="Trazado 205469" d="M1778.233,1199.373c.232.951.649,2.453.649,2.453-.033.413-.155,2.132-.3,4.238l3.1-1.239a33.446,33.446,0,0,1,.1-3.642c.117-.178.313.044,1.262-1.314a2.652,2.652,0,0,0,.325-1.092s.057-.862-.137-.943a.4.4,0,0,0-.486.2c-.07.149-.052.5-.122.645a1.072,1.072,0,0,1-.707.319,11.524,11.524,0,0,1,.024-2.55s.105-.72.159-.956c.045-.2.228-.79.228-.79s.215-.855-.051-.921c-.156-.038-.556.656-.829,1.394a14.852,14.852,0,0,1-.546,1.625c-.2-.027-.093-1.42-.093-1.42a4.463,4.463,0,0,0,.192-.939c.186-.369.309-1.053-.018-1.11a5.679,5.679,0,0,0-.492.859s-.17.612-.269.9a16.765,16.765,0,0,0-.292,1.653c-.076.292-.144.172-.176.184a7.4,7.4,0,0,1,.067-.948,5.6,5.6,0,0,1,.07-.919,6.73,6.73,0,0,0,.133-.97c.053-.72-.4-.647-.557.012-.06.251-.123.525-.185.8-.244,1.08-.237,2.121-.353,2.13a7.841,7.841,0,0,1-.052-1.884s-.232-1.049-.463-.075a8.478,8.478,0,0,0-.236,2.091A8.187,8.187,0,0,0,1778.233,1199.373Z" transform="translate(-1778.12 -1190.823)" fill="#f8a492"/>
        <path id="Trazado_205470" data-name="Trazado 205470" d="M1987.195,1181.027c-.231.951-.648,2.453-.648,2.453.033.413.155,2.132.3,4.238l-3.1-1.239a33.445,33.445,0,0,0-.1-3.643c-.117-.178-.313.044-1.262-1.314a2.65,2.65,0,0,1-.325-1.092s-.056-.862.137-.943a.4.4,0,0,1,.486.2c.07.149.052.5.122.645a1.073,1.073,0,0,0,.707.319,11.526,11.526,0,0,0-.024-2.55s-.1-.72-.158-.956c-.046-.2-.229-.79-.229-.79s-.215-.855.051-.921c.156-.038.556.656.829,1.394a14.9,14.9,0,0,0,.545,1.625c.2-.027.093-1.42.093-1.42a4.466,4.466,0,0,1-.192-.939c-.186-.369-.309-1.053.018-1.11a5.671,5.671,0,0,1,.492.859s.17.612.268.9c.175.5.2,1.3.292,1.653.076.292.144.172.175.184a7.357,7.357,0,0,0-.067-.948,5.6,5.6,0,0,0-.07-.919,6.687,6.687,0,0,1-.133-.97c-.053-.721.4-.647.557.012.06.251.123.525.185.8.244,1.08.237,2.121.353,2.13a7.846,7.846,0,0,0,.052-1.884s.232-1.049.463-.075a8.488,8.488,0,0,1,.236,2.091A8.184,8.184,0,0,1,1987.195,1181.027Z" transform="translate(-1954.219 -1174.981)" fill="#f8a492"/>
        <path id="Trazado_205471" data-name="Trazado 205471" d="M1941.871,1810.965a23.654,23.654,0,0,0,2.145,2.39c.428.262-.191,3.354-1.356,3.557-.656.114-1.021-.608-1.021-.608l.188-.891-2.453-2.527Z" transform="translate(-1917.364 -1724.159)" fill="#f7a491"/>
        <path id="Trazado_205472" data-name="Trazado 205472" d="M1875.653,1814.817a23.635,23.635,0,0,0,1.822,2.645c.391.314-.618,3.3-1.8,3.355-.666.03-.935-.734-.935-.734l.3-.859-2.11-2.82Z" transform="translate(-1859.99 -1727.486)" fill="#f7a491"/>
        <path id="Trazado_205473" data-name="Trazado 205473" d="M1876.046,1833.523a18.094,18.094,0,0,1-1.27,1.465,15.133,15.133,0,0,1-1.32,1.065s-.839,1.524-1.069,2.056a8.87,8.87,0,0,0-1,3.166c.027.213.5.438.9.316,1.658-.51,5.9-4.389,6.434-5.43C1879.339,1834.959,1876.046,1833.523,1876.046,1833.523Z" transform="translate(-1858.648 -1743.639)" fill="#13375b"/>
        <path id="Trazado_205474" data-name="Trazado 205474" d="M1806.457,1565.856c.154-.431.3-.83.444-1.2,1.764.385,3.756.808,5.805,1.245l.25,7.511c0-.58-1.541,11.98-1.541,11.98s3.982,8.817,6.706,13.955a9.4,9.4,0,0,1-3.261,2.8c-4.228-5.068-9.76-14.343-9.99-15.885C1804.737,1585.366,1804.618,1571.028,1806.457,1565.856Z" transform="translate(-1801.161 -1511.465)" fill="#13375b"/>
        <path id="Trazado_205475" data-name="Trazado 205475" d="M1872.2,1575.9c-.539,5.853-1.737,17.042-1.637,17.942.3,1.122,5.631,11.476,6.59,12.984a6.463,6.463,0,0,1-3.209,2.73c-.25.068-9.046-12.449-9.525-13.442-.542-1.123-1.445-7.249-1.461-14.834l-.25-7.511C1866.12,1574.5,1869.26,1575.215,1872.2,1575.9Z" transform="translate(-1851.161 -1519.342)" fill="#15616d"/>
        <path id="Trazado_205476" data-name="Trazado 205476" d="M1813.8,1393.921l4.019.552s3.215.058,3.613.058,2.93,14.682,3.661,20.2.165,6.495.165,6.495a35.362,35.362,0,0,1-8.866.812,28.914,28.914,0,0,1-8.331-2.464s3.351-10.6,4.015-13.914S1813.8,1393.921,1813.8,1393.921Z" transform="translate(-1803.972 -1364.038)" fill="#355389"/>
        <path id="Trazado_205477" data-name="Trazado 205477" d="M1778.2,1260.139s-.258,10.931.154,11.768c.6,1.216,7.348,9.84,7.348,9.84s-3.224,13.492-4.579,18.151c-.136.469-.74,3.5-.74,3.8,0,.655,2.852,1.487,3.19,1.437.3-.044,2.792-12.878,4.38-19.158a17.96,17.96,0,0,1,2.725-5.934l1.1-1.57-8.478-8.5s-1.045-9.459-1.045-10.243C1782.259,1259.523,1778.611,1259.369,1778.2,1260.139Z" transform="translate(-1778.12 -1248.017)" fill="#0ab1cb"/>
        <path id="Trazado_205478" data-name="Trazado 205478" d="M1885.593,1259.039l10.573-10.773s1.473-10.187,1.578-10.571,2.729-.581,3.786-.684c.34-.033-.177,10.85-.683,12.674-.6,2.155-8.59,11.975-8.59,11.975a32.664,32.664,0,0,0-1.087,9.22c.573,6.48,2.118,15.393,1.841,15.672-1.718,1.082-8.313,1.2-8.73.526C1879.671,1279.655,1885.593,1259.039,1885.593,1259.039Z" transform="translate(-1868.274 -1228.545)" fill="#0ab1cb"/>
        <path id="Trazado_205479" data-name="Trazado 205479" d="M1949.433,1827.894a18.094,18.094,0,0,1-1.073,1.615,15.079,15.079,0,0,1-1.173,1.225s-.638,1.619-.8,2.176a9.4,9.4,0,0,0-.59,3.382c.054.208.51.6.887.359,1.454-.947,5.339-5.381,5.737-6.482C1952.883,1828.9,1949.433,1827.894,1949.433,1827.894Z" transform="translate(-1922.879 -1738.778)" fill="#13375b"/>
        <path id="Trazado_205480" data-name="Trazado 205480" d="M1859.283,1295.1a10.823,10.823,0,0,0,1.348-.027,6.284,6.284,0,0,1,1.525,0,3.441,3.441,0,0,1,2.436,1.745c.516,1.277,2.36,1.086.175,5.929-2.473,5.482-5.363,3.687-5.4,3.563s-1.429-4.643-1.429-4.643-1.729,1.714-1.7,1.638S1853.882,1294.9,1859.283,1295.1Z" transform="translate(-1845.143 -1278.639)" fill="#0e2e35"/>
        <path id="Trazado_205481" data-name="Trazado 205481" d="M1876.613,1362.013l-.288,2.145s-.645,3.089.185,3.685,3.531-3.773,3.531-3.773l-.285-5.434Z" transform="translate(-1862.714 -1333.568)" fill="#f7a491"/>
        <path id="Trazado_205482" data-name="Trazado 205482" d="M1881.637,1360.4a6.153,6.153,0,0,1-3.479,3.435l.244-1.818,3.142-3.378Z" transform="translate(-1864.504 -1333.568)" fill="#f47458"/>
        <path id="Trazado_205483" data-name="Trazado 205483" d="M1864.407,1311.246a2.86,2.86,0,0,0-4.1,1.543,21.771,21.771,0,0,0-.746,2.659c-.516,2.451.294,5.087,1.408,5.3a5.366,5.366,0,0,0,5.278-4.264A4.736,4.736,0,0,0,1864.407,1311.246Z" transform="translate(-1848.305 -1292.325)" fill="#f7a491"/>
        <path id="Trazado_205484" data-name="Trazado 205484" d="M1903.009,1347.523a.832.832,0,1,0,.99-.83A.921.921,0,0,0,1903.009,1347.523Z" transform="translate(-1885.943 -1323.246)" fill="#f7a491"/>
        <path id="Trazado_205485" data-name="Trazado 205485" d="M1873.8,1311.316s-1.382-.163-1.544-1.152-1.177-3.376-3.582-3.453,2.542-1.06,2.713-1,2.221.822,2.221.822,1.087,1.892,1.091,2.056-.129,1.89-.129,1.89Z" transform="translate(-1855.747 -1287.869)" fill="#0e2e35"/>
        <path id="Trazado_205486" data-name="Trazado 205486" d="M1868.478,1362.507l-2.465-.428a1.094,1.094,0,0,0,.971,1.168C1868.3,1363.515,1868.478,1362.507,1868.478,1362.507Z" transform="translate(-1854.014 -1336.542)" fill="#fff"/>
      </g>
      <g id="Grupo_152200" data-name="Grupo 152200" transform="translate(261.438 243.347)">
        <path id="Trazado_205487" data-name="Trazado 205487" d="M971.352,1429.71a2.514,2.514,0,0,0,.264.641,24.347,24.347,0,0,0,2.531,3.367l1.368-3.082s-.223-.968-.61-2.351A7.917,7.917,0,0,0,971.352,1429.71Z" transform="translate(-968.093 -1401.56)" fill="#f8a492"/>
        <path id="Trazado_205488" data-name="Trazado 205488" d="M958.981,1350.963s-7.63,3.286-7.877,3.223a20.277,20.277,0,0,1-3.161-9.689c-.015-2.16,2.228-4.758,4.731-4.244,1.26.259,1.24.609,3.1,3.318A31.21,31.21,0,0,1,958.981,1350.963Z" transform="translate(-947.879 -1325.486)" fill="#13375b"/>
        <path id="Trazado_205489" data-name="Trazado 205489" d="M1073.3,1850.729s-.181,3-.182,3a16.418,16.418,0,0,0-.328,1.666c0,1.3,6.17-1.1,4.787-1.679-.125-.052-.781-.446-.822-.889-.063-.681-.224-2.06-.224-2.06Z" transform="translate(-1055.686 -1766.345)" fill="#f7a491"/>
        <path id="Trazado_205490" data-name="Trazado 205490" d="M1076.18,1872.209s-1.448.4-2.19.5-1.72-.737-2.245-.511c-.578.249-.555,2.488-.555,2.488s7.768.637,9.952-.022C1082.008,1874.4,1079.142,1873.135,1076.18,1872.209Z" transform="translate(-1054.304 -1784.847)" fill="#dd513a"/>
        <path id="Trazado_205491" data-name="Trazado 205491" d="M980.833,1850.729s-.181,3-.182,3a16.419,16.419,0,0,0-.329,1.666c0,1.3,6.17-1.1,4.787-1.679-.125-.052-.975-.741-1.016-1.183-.063-.682-.03-1.766-.03-1.766Z" transform="translate(-975.838 -1766.345)" fill="#f7a491"/>
        <path id="Trazado_205492" data-name="Trazado 205492" d="M983.424,1872.209s-1.448.4-2.19.5-1.72-.737-2.245-.511c-.578.249-.6,2.488-.6,2.488s7.8.743,10-.022C989.238,1874.364,986.385,1873.135,983.424,1872.209Z" transform="translate(-974.168 -1784.847)" fill="#dd513a"/>
        <g id="Grupo_152198" data-name="Grupo 152198" transform="translate(6.88 6.283)">
          <path id="Trazado_205493" data-name="Trazado 205493" d="M997.879,1302.044l5.434-7.612c.023-.067.072-.2.148-.411.274-.755.843-2.327,1.339-3.891l.005-.017c.156-.547.486-1.5.806-2.422.355-1.025.8-2.3.811-2.514-.014-.037-.039-.1-.073-.192a17.513,17.513,0,0,1-.564-2.285c-.061-.341-.121-1.17.284-1.17.637,0,.334.828.628,1.345a13.054,13.054,0,0,0,.442-1.725l.107-1.618c.021-.122-.109-1.015.338-1.015h.021c.4.029.393.979.56,2.584.053-.185.106-.407.146-.612a5.877,5.877,0,0,1,.136-.847c-.081-.447-.034-1.153.443-1.086.239.033.219,1.018.219,1.018,0,.135-.017,1.176-.009,1.382.049-.349.24-1.839.614-1.839.31,0,.335.4.328.718,0,.188-.2,1.8-.209,1.99.146-.245.319-1.667.464-1.667.6,0,.386,2.023.164,2.55a2.322,2.322,0,0,0-.069.282,4.968,4.968,0,0,1-.518,1.505c-.379.649-.9,1.681-.983,1.839-.059.322-.24,1.482-.469,2.94-.1.624-.205,1.308-.317,2.017h-.006c-.021.153-.134.641-.564,2.471a21.833,21.833,0,0,1-.675,2.659c-.255.452-6.114,8.408-6.363,8.747l-.147.2Z" transform="translate(-997.879 -1278.517)" fill="#f7a491"/>
          <path id="Trazado_205494" data-name="Trazado 205494" d="M1064.169,1313.4s-.441-1.128-1.226-1.13a.9.9,0,0,1,.815.14A1.554,1.554,0,0,1,1064.169,1313.4Z" transform="translate(-1054.062 -1307.627)" fill="#f47458"/>
        </g>
        <g id="Grupo_152199" data-name="Grupo 152199">
          <path id="Trazado_205495" data-name="Trazado 205495" d="M983.835,1303.211l-.7,4.424s2.665,2.14,4.219,1.688c1.3-.379.41-2.083.41-2.083a11.073,11.073,0,0,1-.481-3.6C987.5,1302.4,983.835,1303.211,983.835,1303.211Z" transform="translate(-978.268 -1293.334)" fill="#f7a491"/>
          <path id="Trazado_205496" data-name="Trazado 205496" d="M987.911,1304.551a10.89,10.89,0,0,0,3.017.85,5.863,5.863,0,0,1-.071-1.758c.1-.571-.629-.707-1.44-.687-1.062.091-2.008.257-2.008.257l-.135.85A2.2,2.2,0,0,0,987.911,1304.551Z" transform="translate(-981.841 -1293.336)" fill="#fe875e"/>
          <path id="Trazado_205497" data-name="Trazado 205497" d="M963.571,1252.421c-.11,0,1.054,4.942,2.854,5.792s4.486.407,4.99-.924c.557-1.472-1.476-6.514-4.008-7.154S963.571,1252.421,963.571,1252.421Z" transform="translate(-961.367 -1247.647)" fill="#f7a491"/>
          <path id="Trazado_205498" data-name="Trazado 205498" d="M951.76,1232.717a5.671,5.671,0,0,0-2.321,2.564c-.675.32-1.492,1.013-1.884,2.88a4.049,4.049,0,0,0,3.049,4.6,2.763,2.763,0,0,1,2.1,1.735l.206-1.294a5.124,5.124,0,0,0-1.012-1.691c-.608-.564.288-1.386.367-2.056.061-.516-.32-1.518-.237-2.365a5.847,5.847,0,0,1,2.005-1.909C955.729,1234.534,953.606,1231.653,951.76,1232.717Z" transform="translate(-947.473 -1232.484)" fill="#13375b"/>
          <path id="Trazado_205499" data-name="Trazado 205499" d="M975.565,1284.615c.235.571.139,1.137-.215,1.266s-.832-.23-1.067-.8-.139-1.137.215-1.266S975.329,1284.044,975.565,1284.615Z" transform="translate(-970.512 -1276.785)" fill="#f7a491"/>
        </g>
        <path id="Trazado_205500" data-name="Trazado 205500" d="M1033.634,1421.98l10.481-1.709s-1.193-3-1.619-3-7.925,3.274-7.925,3.274l-.6,1.2Z" transform="translate(-1021.874 -1392.048)" fill="#f8a492"/>
        <path id="Trazado_205501" data-name="Trazado 205501" d="M983,1501.406a34.517,34.517,0,0,0-.62,8.888c.426,3.833.46,17.448.46,17.448l-1.626,21.784,3.858.084s4.575-21.774,4.49-21.215,1.534-15.331,1.534-15.331l-5.454-12.137Z" transform="translate(-976.609 -1464.287)" fill="#184655"/>
        <path id="Trazado_205502" data-name="Trazado 205502" d="M1000.159,1492.074s-.682,4.551.171,6.548,7.309,21.583,7.394,23.18,2.233,19.249,2.233,19.249l4.486-.126.97-19.625-2.032-24.666-1.973-6.236Z" transform="translate(-992.745 -1455.194)" fill="#13375b"/>
        <path id="Trazado_205503" data-name="Trazado 205503" d="M983.135,1328.2a4.032,4.032,0,0,0,2.138.642,7.109,7.109,0,0,0,2.491-1.036l-.2-.687s-2.669-.389-2.737-.347S983.135,1328.2,983.135,1328.2Z" transform="translate(-978.268 -1313.902)" fill="#f7a491"/>
        <path id="Trazado_205504" data-name="Trazado 205504" d="M1069.52,1392.717s3.965,3.741,5.754,3.1,2.53-2.823-1.836-6.017C1069.53,1386.943,1069.52,1392.717,1069.52,1392.717Z" transform="translate(-1052.862 -1367.643)" fill="#f8a492"/>
        <path id="Trazado_205505" data-name="Trazado 205505" d="M974.2,1349.7c-.589-3.2-4.857-13.175-5.2-15.012-.166-.893-2.468-.913-4.661-.8-2.316.123-4.617.416-4.617.416a7.048,7.048,0,0,0-2.953,1.182c-.9.845-1.142,3.184.155,7.622,1.024,3.5,2.293,5.427,2.921,7.979.127.856.236,1.7.38,2.687.231,3.816,0,8.857,0,8.857s11.164,2.316,15.339-1.2C975.565,1361.439,974.8,1352.984,974.2,1349.7Z" transform="translate(-954.857 -1320.008)" fill="#355389"/>
        <path id="Trazado_205506" data-name="Trazado 205506" d="M1031.036,1343.621s-4.38,3.616-4.636,3.616c-.165,0-6.251-4.477-7.656-8.155a3.216,3.216,0,0,1,2.713-4.3c1.29.005,1.863.338,4.419,2.494A32.619,32.619,0,0,1,1031.036,1343.621Z" transform="translate(-1008.845 -1320.818)" fill="#466eb6"/>
      </g>
      <path id="Trazado_205507" data-name="Trazado 205507" d="M964.611,624.145c-1.071-.723-2.169-1.409-3.225-2.152a.936.936,0,0,1-.342-.715c.139-1.491.364-2.973.492-4.465a.792.792,0,0,1,.552-.824c1.467-.573,2.918-1.187,4.375-1.786.236-.1.469-.2.876-.38l-2.088-6.712c-1.875.372-3.585.683-5.279,1.063a1.038,1.038,0,0,1-1.308-.489c-.786-1.132-1.729-2.154-2.576-3.246a.848.848,0,0,1-.11-.7c.576-1.491,1.15-2.985,1.815-4.436a.9.9,0,0,0-.464-1.4,4.335,4.335,0,0,1-.65-.508l-3.232-1.738a2.207,2.207,0,0,1-.4-.084c-1.315-.538-1.061-.527-1.808.57-.91,1.337-1.8,2.689-2.575,3.857l-5.839-.546-2.278-5.53a22.447,22.447,0,0,0-6.69,2.08c.37,1.844.726,3.642,1.095,5.438a.621.621,0,0,1-.269.754c-1.236.925-2.451,1.883-3.621,2.89a.731.731,0,0,1-.916.139c-1.5-.629-3.005-1.223-4.5-1.846a.629.629,0,0,0-.889.221,20.018,20.018,0,0,0-2.771,5.369c-.137.378.045.542.331.728,1.321.859,2.622,1.75,3.948,2.6a.789.789,0,0,1,.423.95c-.264,1.707-.429,3.429-.648,5.284l-5.307,2.186a20.927,20.927,0,0,0,2.034,6.787l5.736-1.179c1.1,1.273,2.1,2.483,3.171,3.623a1,1,0,0,1,.24,1.288c-.63,1.418-1.2,2.861-1.787,4.3-.115.284-.342.615.1.85q2.708,1.43,5.416,2.861c.384.2.626.073.858-.288.864-1.345,1.788-2.653,2.629-4.012.325-.524.674-.544,1.218-.471a36.785,36.785,0,0,0,4.052.366.882.882,0,0,1,.994.684c.633,1.667,1.331,3.309,1.99,4.926a20.059,20.059,0,0,0,6.8-2.116c-.372-1.774-.729-3.572-1.136-5.359a.761.761,0,0,1,.373-.908c1.1-.868,2.145-1.814,3.239-2.693a.926.926,0,0,1,.768-.147c1.335.523,2.652,1.092,3.969,1.661.736.318,1.032.449,1.315.26l3.084-5.735C965.8,624.95,965.478,624.73,964.611,624.145Zm-11.46-2.011a10.538,10.538,0,0,1-14.272,4.291h0a10.539,10.539,0,0,1-4.291-14.273h0a10.538,10.538,0,0,1,14.272-4.291h0a10.539,10.539,0,0,1,4.291,14.273Z" transform="translate(-662.939 -437.737)" fill="#e6f1ff" opacity="0.6"/>
      <path id="Trazado_205508" data-name="Trazado 205508" d="M475.89,861.981c-1.733.169-3.46.4-5.2.533a1.261,1.261,0,0,1-.968-.449c-1.135-1.667-2.175-3.4-3.321-5.058a1.066,1.066,0,0,1-.134-1.33c1.031-1.854,2.011-3.736,3.009-5.609.162-.3.313-.613.584-1.146l-7.928-5.176c-1.627,2-3.136,3.786-4.568,5.635a1.4,1.4,0,0,1-1.777.615c-1.787-.5-3.644-.752-5.46-1.16a1.143,1.143,0,0,1-.716-.633c-.681-2.042-1.368-4.086-1.923-6.164-.267-1-.754-1.25-1.68-1.05a5.879,5.879,0,0,1-1.111.031l-4.847.969a2.982,2.982,0,0,1-.492.26c-1.826.57-1.554.364-1.387,2.144.2,2.168.442,4.334.637,6.214l-6.531,4.445-7.112-3.786a30.244,30.244,0,0,0-5.161,7.9c1.966,1.6,3.879,3.159,5.8,4.706a.836.836,0,0,1,.367,1.013c-.49,2.021-.929,4.059-1.279,6.108a.985.985,0,0,1-.832.931c-2.092.63-4.17,1.31-6.259,1.949a.848.848,0,0,0-.733.992,26.959,26.959,0,0,0,1.732,7.952c.182.51.512.524.968.471,2.109-.242,4.223-.433,6.33-.69a1.063,1.063,0,0,1,1.254.623c1.191,2,2.5,3.929,3.863,6.042l-3.634,6.824a28.19,28.19,0,0,0,7.936,5.3l4.943-6.146c2.239.374,4.312.775,6.4,1.041a1.352,1.352,0,0,1,1.355,1.132c.563,2.013,1.2,4,1.834,6,.124.394.173.932.835.795q4.039-.84,8.078-1.678c.572-.119.713-.461.644-1.036-.257-2.138-.421-4.289-.714-6.421-.113-.823.232-1.143.86-1.534a49.516,49.516,0,0,0,4.521-3.1,1.189,1.189,0,0,1,1.619-.143c2.087,1.188,4.221,2.293,6.293,3.406a27.023,27.023,0,0,0,5.247-8.036c-1.909-1.523-3.823-3.083-5.779-4.589a1.026,1.026,0,0,1-.392-1.263c.4-1.848.67-3.724,1.052-5.576a1.249,1.249,0,0,1,.671-.812c1.835-.6,3.691-1.143,5.547-1.682,1.037-.3,1.457-.419,1.588-.858l-1.72-8.6C477.813,861.8,477.292,861.844,475.89,861.981Zm-13.624,7.747a14.2,14.2,0,0,1-11.136,16.7h0a14.2,14.2,0,0,1-16.7-11.136h0a14.2,14.2,0,0,1,11.136-16.7h0a14.2,14.2,0,0,1,16.7,11.136Z" transform="translate(-227.856 -651.022)" fill="#e6f1ff"/>
      <path id="Trazado_205509" data-name="Trazado 205509" d="M655.655,567.193c-.695-.33-1.4-.635-2.088-.978a.556.556,0,0,1-.265-.39c-.051-.889-.051-1.781-.109-2.669a.471.471,0,0,1,.251-.534c.811-.468,1.61-.958,2.413-1.44.13-.078.258-.161.481-.3l-1.826-3.76c-1.069.386-2.047.721-3.009,1.1a.617.617,0,0,1-.812-.171c-.563-.6-1.209-1.112-1.8-1.679a.5.5,0,0,1-.127-.4c.206-.928.41-1.857.671-2.77.125-.438,0-.644-.4-.779a2.6,2.6,0,0,1-.428-.24l-2.055-.734a1.307,1.307,0,0,1-.246-.013c-.821-.2-.671-.215-1.012.5-.416.867-.817,1.741-1.17,2.5l-3.482.2-1.833-3.048a13.351,13.351,0,0,0-3.748,1.82c.382,1.051.752,2.077,1.129,3.1a.37.37,0,0,1-.091.467c-.645.654-1.273,1.326-1.871,2.022a.435.435,0,0,1-.526.164c-.935-.236-1.876-.451-2.812-.684a.374.374,0,0,0-.5.209,11.9,11.9,0,0,0-1.15,3.4c-.047.234.075.315.259.4.854.387,1.7.795,2.553,1.176a.469.469,0,0,1,.333.521c0,1.027.054,2.055.091,3.165l-2.925,1.759a12.44,12.44,0,0,0,1.8,3.809l3.267-1.2c.763.65,1.456,1.273,2.187,1.848a.6.6,0,0,1,.256.736c-.244.89-.453,1.789-.667,2.687-.042.177-.146.392.136.49l3.439,1.2c.244.085.375-.013.479-.246.388-.868.815-1.719,1.188-2.593.144-.337.347-.38.674-.386a21.864,21.864,0,0,0,2.415-.146.525.525,0,0,1,.645.313c.521.924,1.078,1.827,1.609,2.719a11.931,11.931,0,0,0,3.811-1.851c-.377-1.01-.747-2.035-1.146-3.049a.453.453,0,0,1,.138-.567c.571-.609,1.1-1.258,1.664-1.872a.551.551,0,0,1,.439-.155c.832.188,1.657.406,2.482.623.461.121.647.172.8.036l1.3-3.647C656.425,567.561,656.217,567.46,655.655,567.193Zm-6.917-.16a6.267,6.267,0,0,1-8.009,3.8h0a6.267,6.267,0,0,1-3.8-8.009h0a6.267,6.267,0,0,1,8.009-3.8h0a6.267,6.267,0,0,1,3.8,8.009Z" transform="translate(-411.225 -400.936)" fill="#e6f1ff" opacity="0.3"/>
      <path id="Trazado_205510" data-name="Trazado 205510" d="M728.985,1733.06l-2.063-.008c.272-9,.512-22.669.057-23.435a.336.336,0,0,0,.137.1l1.674-.437c.271.136.434.218.49,4.046.029,1.969.018,4.689-.033,8.084C729.161,1727.192,728.986,1733,728.985,1733.06Z" transform="translate(-495.587 -1400.858)" fill="#355389"/>
      <path id="Trazado_205511" data-name="Trazado 205511" d="M690.93,1882.685H677.015a1.161,1.161,0,0,0-1.161,1.161h0a.2.2,0,0,0,.2.2h15.831a.2.2,0,0,0,.2-.2h0A1.16,1.16,0,0,0,690.93,1882.685Z" transform="translate(-451.49 -1550.592)" fill="#355389"/>
      <path id="Trazado_205512" data-name="Trazado 205512" d="M723.823,1874.3h-1.7a.913.913,0,0,0-.913.913h0a.913.913,0,0,0,.913.913h1.7a.913.913,0,0,0,.913-.913h0A.913.913,0,0,0,723.823,1874.3Z" transform="translate(-490.651 -1543.351)" fill="#355389"/>
      <rect id="Rectángulo_44833" data-name="Rectángulo 44833" width="0.823" height="41.027" transform="translate(183.012 292.402)" fill="#13375b"/>
      <path id="Trazado_205513" data-name="Trazado 205513" d="M682.881,1377.416a11.042,11.042,0,0,1,1.009-5.321,4.512,4.512,0,0,1,4.022-2.291c5.029-.006,5.669,6.638,8.87,9.2.978.783,2.072,1.421,3,2.266,3.418,3.119,1.878,8.891-1.26,11.625-2.178,1.9-5.6,2.975-8.285,1.492a8.439,8.439,0,0,1-3.222-3.471,47.442,47.442,0,0,1-2.534-6.443A24.039,24.039,0,0,1,682.881,1377.416Z" transform="translate(-457.547 -1107.713)" fill="#13375b"/>
      <path id="Trazado_205514" data-name="Trazado 205514" d="M561.935,1500.373l10.944-3.051s2.306-3.1,5.272-7.252c.97.96,1.509,2.435,2.486,3.385l-7.244,8.012a1.383,1.383,0,0,1-1.022.456l-10.057.033-3.441.274v-2.2Z" transform="translate(-350.475 -1211.565)" fill="#f48c7f"/>
      <path id="Trazado_205515" data-name="Trazado 205515" d="M673.633,1488.817a48.1,48.1,0,0,0,4.722-5.524c.967-1.673-.658-.584-2.318-1.024-.628-.167-.469-3.849-1.657-2.652a54.652,54.652,0,0,0-4.4,5.4Z" transform="translate(-446.418 -1202.331)" fill="#96d9c9"/>
      <path id="Trazado_205516" data-name="Trazado 205516" d="M694.1,1467.66s3.371-.665,4.909.62-.329,12.71-.328,14.6a63.441,63.441,0,0,0,1.056,7.245s-10.216,1.788-11.839-1.055c0,0-.462-10.833-.393-12.2a37.765,37.765,0,0,1,2-7.53C689.922,1468.753,694.1,1467.66,694.1,1467.66Z" transform="translate(-461.541 -1192.065)" fill="#50bfa5"/>
      <path id="Trazado_205517" data-name="Trazado 205517" d="M716.617,1430.067s.018.1.049.272a25.918,25.918,0,0,0,1.139,4.3c.481.907-1.645,3.8-3.692,3.446-.609-.105.515-2.657.461-2.927-.1-.518-.244-1.224-.387-1.947l-.24-1.211c-.219-1.106-.4-2.01-.4-2.01Z" transform="translate(-484.041 -1159.686)" fill="#f7a491"/>
      <path id="Trazado_205518" data-name="Trazado 205518" d="M716.667,1430.339c-.032-.172-.049-.272-.049-.272l-3.066-.076s.179.9.4,2.01l.239,1.2a2.874,2.874,0,0,0,1.464-.733,3.858,3.858,0,0,0,1.109-1.646C716.722,1430.634,716.691,1430.467,716.667,1430.339Z" transform="translate(-484.041 -1159.686)" fill="#f47458"/>
      <path id="Trazado_205519" data-name="Trazado 205519" d="M702.039,1379.536a2.767,2.767,0,0,1,2.351,1c.906,1.169,1.883,4.786-.368,6.751s-4.474-.259-4.8-2.619S698.76,1379.451,702.039,1379.536Z" transform="translate(-471.527 -1116.111)" fill="#f7a491"/>
      <path id="Trazado_205520" data-name="Trazado 205520" d="M694.139,1408.8c.269.521.72.81,1.007.645s.3-.722.034-1.243-.72-.81-1.007-.644S693.871,1408.28,694.139,1408.8Z" transform="translate(-467.114 -1140.275)" fill="#f7a491"/>
      <path id="Trazado_205521" data-name="Trazado 205521" d="M719.711,1376.525s1.931,3.439,3.312,3.6,1.563,1.986,1.563,1.986-.494-4.21-1.861-5.022A5.088,5.088,0,0,0,719.711,1376.525Z" transform="translate(-489.361 -1113.486)" fill="#13375b"/>
      <path id="Trazado_205522" data-name="Trazado 205522" d="M741.142,1403.307c-.112.611.114,1.171.5,1.251s.8-.35.911-.961-.114-1.171-.5-1.251S741.254,1402.7,741.142,1403.307Z" transform="translate(-507.841 -1135.806)" fill="#f7a491"/>
      <g id="Grupo_152201" data-name="Grupo 152201" transform="translate(190.429 296.955)">
        <path id="Trazado_205523" data-name="Trazado 205523" d="M646.116,1809.748a47.794,47.794,0,0,1,3.121,4.042c.021.323-.123,3.854-.492,4.178s-1.452.553-1.1.917c.263.275,2.288.216,3.631.142.392-.021.883-3.148,1.038-3.607.226-.667.773-2.17.569-2.635a3.906,3.906,0,0,0-1.25-1.127,37,37,0,0,1-3.416-4.225Z" transform="translate(-616.239 -1782.566)" fill="#f48c7f"/>
        <path id="Trazado_205524" data-name="Trazado 205524" d="M658.509,1838.225s-2.082,5.863-2.9,6.146c-.216.075-1.255.266-1.451.725a1.985,1.985,0,0,0,0,.6h4.34s.549-2.583.766-3.718a16.863,16.863,0,0,0,1.021-3.025C660.16,1838.7,658.509,1838.225,658.509,1838.225Z" transform="translate(-623.163 -1809.156)" fill="#b75742"/>
        <path id="Trazado_205525" data-name="Trazado 205525" d="M442.125,1826.182s-2.532,3.565-2.31,4.693c.119.6.65,1.394.346,1.963a1.528,1.528,0,0,1-.653.71l-7.9.127c-.43.007-.146-.27.2-.524a15.913,15.913,0,0,1,2.84-1.568c.118-.057.549-.331.7-.425a5.469,5.469,0,0,0,1.13-1c.567-.63,3.061-5.766,3.061-5.766Z" transform="translate(-430.822 -1797.214)" fill="#f7a491"/>
        <path id="Trazado_205526" data-name="Trazado 205526" d="M431.755,1872.816a7.164,7.164,0,0,0,4.5-.176,3.615,3.615,0,0,1,.361,1.876c-.192.558-.465.684-.706.69-1.908.05-6.99.118-8.445.137a.237.237,0,0,1-.185-.39A38.282,38.282,0,0,1,431.755,1872.816Z" transform="translate(-427.222 -1838.873)" fill="#b75742"/>
        <path id="Trazado_205527" data-name="Trazado 205527" d="M550.1,1632.22a56.531,56.531,0,0,0,3.935,4.146c.8.567,8.475,14.7,8.475,14.7l-2.734,2s-6.859-8.553-10.081-13.128c-2.724-3.868-1.721-3.623-3.322-5.977a3.145,3.145,0,0,1,.481-4.1q.217-.2.473-.41c2.371-1.976,18.623-4.2,18.623-4.2l10.4,1.018s-8.493,5.956-8.81,6.114-11.729,1.823-11.966,1.823S550.1,1632.22,550.1,1632.22Z" transform="translate(-529.633 -1625.246)" fill="#b75742"/>
        <path id="Trazado_205528" data-name="Trazado 205528" d="M520.712,1630.923s1.783,5.349-.892,7.845-18.564,2.219-23.794,2.219c0,0-2.14,5.864-2.378,6.816s-10.619,13.234-10.619,13.234l-2.853-1.823s11.174-21.714,12.046-22.665,13.314-4.755,16.4-5.626S520.712,1630.923,520.712,1630.923Z" transform="translate(-472.949 -1629.813)" fill="#f47458"/>
      </g>
      <path id="Trazado_205529" data-name="Trazado 205529" d="M606.31,1497.685l9.489-2.1s3.431-4.409,6.727-8.2c.97.96,1.509,2.435,2.486,3.385l-7.244,8.013a1.384,1.384,0,0,1-1.022.455l-10.057.034-3.441.274v-2.2Z" transform="translate(-388.793 -1209.244)" fill="#f7a491"/>
      <path id="Trazado_205530" data-name="Trazado 205530" d="M718.008,1479.669a48.084,48.084,0,0,0,4.722-5.524c.966-1.673.25-4.476-1.41-4.917s-6.965,6.638-6.965,6.638Z" transform="translate(-484.736 -1193.551)" fill="#96d9c9"/>
      <g id="Grupo_152202" data-name="Grupo 152202" transform="translate(197.002 277.64)">
        <path id="Trazado_205531" data-name="Trazado 205531" d="M476.407,1483.733h15.649a1.02,1.02,0,0,1,.944.633l4.818,11.752h8.627a.437.437,0,0,1,.437.436h0a.437.437,0,0,1-.437.437H481.892a1.714,1.714,0,0,1-1.564-1.012l-4.852-10.808A1.02,1.02,0,0,1,476.407,1483.733Z" transform="translate(-475.386 -1483.733)" fill="#b75742"/>
        <path id="Trazado_205532" data-name="Trazado 205532" d="M544.46,1526.672a.861.861,0,1,0,.646-1.123A.921.921,0,0,0,544.46,1526.672Z" transform="translate(-535.013 -1519.829)" fill="#fff"/>
      </g>
      <path id="Trazado_205533" data-name="Trazado 205533" d="M412.978,1582.851H366.226a.991.991,0,0,1-.991-.991h0a.991.991,0,0,1,.991-.991h46.752a.991.991,0,0,1,.991.991h0A.991.991,0,0,1,412.978,1582.851Z" transform="translate(-183.267 -1289.971)" fill="#184655"/>
      <path id="Trazado_205534" data-name="Trazado 205534" d="M714.524,1426.187l2.12-.11a.928.928,0,0,1-.938.883C714.571,1427.052,714.524,1426.187,714.524,1426.187Z" transform="translate(-484.882 -1156.307)" fill="#fff"/>
      <path id="Trazado_205535" data-name="Trazado 205535" d="M658.053,1643.8l.958-3.986a6.466,6.466,0,0,1,6-4.931l12.127-.49.374-1.234-12.55.507a7.69,7.69,0,0,0-7.138,5.864l-1.017,4.235C657.152,1643.783,657.573,1643.795,658.053,1643.8Z" transform="translate(-435.043 -1335.127)" fill="#355389"/>
      <path id="Trazado_205536" data-name="Trazado 205536" d="M655.22,1547.14s-16.661.285-18.4,0-2.489,1.892-1.97,3.033,1.944,1.581,4.044,1.685,19.573.6,20.066.13c.4-.381,5.7-18.491,7.627-25.114a2.5,2.5,0,0,0-1.7-3.095h0a2.5,2.5,0,0,0-3.1,1.673Z" transform="translate(-415.945 -1240.586)" fill="#184655"/>
      <rect id="Rectángulo_44834" data-name="Rectángulo 44834" width="0.823" height="41.027" transform="translate(228.892 292.402)" fill="#13375b"/>
      <rect id="Rectángulo_44835" data-name="Rectángulo 44835" width="46.498" height="0.441" transform="translate(183.012 295.058)" fill="#13375b"/>
      <g id="Grupo_152204" data-name="Grupo 152204" transform="translate(299.191 87)">
        <path id="Trazado_205537" data-name="Trazado 205537" d="M1597.815,145.525s6.041,3.91,20.929,3.378c0,0-15.958,6.026-22.2,6.958l-2.568-10.142Z" transform="translate(-1543.49 -137.537)" fill="#e25a44"/>
        <path id="Trazado_205538" data-name="Trazado 205538" d="M1608.442,166.413a15.379,15.379,0,0,1-4.115,5.229l-1.338-5.285.086-2.557Z" transform="translate(-1551.271 -153.318)" fill="#b75742"/>
        <path id="Trazado_205539" data-name="Trazado 205539" d="M1474.717,99.448s17.444-1.179,20.157-.182l2.8,11.075a55.032,55.032,0,0,0-19.6,2.373Z" transform="translate(-1440.507 -97.246)" fill="#f47458"/>
        <path id="Trazado_205540" data-name="Trazado 205540" d="M1360.681,992.526s-.84,1.372-.764,1.778,1.087,4.707,1.643,4.991,1.967.229,1.651.787c-.239.422-2.76.983-4.441,1.312-.491.1-2.076-3.612-2.411-4.132-.487-.754-1.634-2.439-1.527-3.078a4.978,4.978,0,0,1,1.192-1.784,7.837,7.837,0,0,0,1.25-2.256Z" transform="translate(-1336.979 -866.875)" fill="#f48c7f"/>
        <path id="Trazado_205541" data-name="Trazado 205541" d="M1485.353,998.043s-.284,3.075-.284,3.082c.039.466.026,1.644.129,2.051.386,1.527,6.557-3.039,4.843-3.325a1.682,1.682,0,0,1-.895-.912,3.689,3.689,0,0,1,.123-1.952Z" transform="translate(-1449.445 -872.783)" fill="#f7a491"/>
        <path id="Trazado_205542" data-name="Trazado 205542" d="M1405.158,599.723s1.783,4.931,1.8,5.007c2.072,8.183,7.741,23.756,7.822,25.372.2,3.943-3.055,25.135-3.055,25.135l-4.51.585-.1-24.362-4.435-8.693-7.587-17.482Z" transform="translate(-1371.753 -529.741)" fill="#13375b"/>
        <path id="Trazado_205543" data-name="Trazado 205543" d="M1366.034,614.986l.383,5,2.749,20.3-3.676,21.452s1.914,2.5,3.79,2.446l8.609-23.248,2.047-27.477-1.722-5.553Z" transform="translate(-1346.188 -536.81)" fill="#15616d"/>
        <path id="Trazado_205544" data-name="Trazado 205544" d="M1351.481,1006.373s4.406,6.592,5.5,6.687c.291.025,1.634-.064,2.019.442a6.1,6.1,0,0,1,.362.916l-5.528,1.591s-1.494-3.427-2.117-4.761c0,0-2.287-3.067-2.208-3.418S1351.481,1006.373,1351.481,1006.373Z" transform="translate(-1332.388 -880.888)" fill="#13375b"/>
        <path id="Trazado_205545" data-name="Trazado 205545" d="M1484,1022.012l.168-2.869a7.062,7.062,0,0,0,2.632-.045,25.88,25.88,0,0,0,2.3-1.2c3.58.251,6.421.093,6.15,1.093h0Z" transform="translate(-1448.525 -890.837)" fill="#13375b"/>
        <path id="Trazado_205546" data-name="Trazado 205546" d="M1546.681,445.981l2.384,1.829c.459-.354,1.464-1.845,2.115-2.309L1549,443.124h0a.629.629,0,0,1-.255-.569,1.976,1.976,0,0,1,.06-.366c.068-.188.129-.412.2-.6s-.382-.565-.618-.632-.315.839-.417,1.108a29.387,29.387,0,0,0-.752,3.4Z" transform="translate(-1502.648 -392.642)" fill="#f48c7f"/>
        <path id="Trazado_205547" data-name="Trazado 205547" d="M1404.609,477.737c-.669-.714-1.614-1.115-2.315-1.857l-10.58,7.285s-8.179-9.672-12.621-6.245a73.778,73.778,0,0,0,5.493,7.9c2.716,3.364,6.864,4.968,7.674,4.6C1393.172,489,1404.371,478.025,1404.609,477.737Z" transform="translate(-1357.934 -422.802)" fill="#13375b"/>
        <path id="Trazado_205548" data-name="Trazado 205548" d="M1224.474,271.328c.35.932.955,2.4.955,2.4.017.421.1,2.173.215,4.319l2.977-1.631a34.044,34.044,0,0,1-.343-3.693c.1-.194.322.006,1.115-1.482a2.7,2.7,0,0,0,.2-1.143s-.049-.878-.254-.935a.409.409,0,0,0-.467.259c-.053.159.008.508-.045.667a1.092,1.092,0,0,1-.675.409,11.732,11.732,0,0,1-.288-2.58s.018-.741.044-.986c.021-.209.134-.826.134-.826s.113-.89-.164-.924c-.163-.02-.481.731-.667,1.509a15.1,15.1,0,0,1-.353,1.708c-.2,0-.267-1.423-.267-1.423a4.547,4.547,0,0,0,.079-.973c.143-.4.184-1.1-.154-1.12a5.777,5.777,0,0,0-.392.928s-.1.639-.162.94c-.114.531-.043,1.34-.093,1.706-.041.3-.125.192-.155.208a7.46,7.46,0,0,1-.049-.966,5.7,5.7,0,0,1-.042-.937,6.814,6.814,0,0,0,.015-1c-.034-.735-.484-.6-.562.08-.029.261-.06.545-.089.834-.114,1.121.02,2.172-.1,2.195a7.974,7.974,0,0,1-.282-1.9s-.363-1.031-.477-.02a8.63,8.63,0,0,0,.017,2.142A8.334,8.334,0,0,0,1224.474,271.328Z" transform="translate(-1224.073 -240.604)" fill="#f8a492"/>
        <path id="Trazado_205549" data-name="Trazado 205549" d="M1333.587,374.265a1.725,1.725,0,0,0-2.829.711,1.282,1.282,0,0,0-1.626.636s-1.847-.321-1.958,2.4c0,0-.938-.062-.927,1.043a2.718,2.718,0,0,0,.653,1.765,1.317,1.317,0,0,0-.113,1.423,1.249,1.249,0,0,0,1.023.873s.364,1.413,1.039,1.771a2.047,2.047,0,0,0,1.5.047.968.968,0,0,0,1.038.594c.718-.157,1.535-.958,2.386-.745a8.754,8.754,0,0,0,2.923-.371,2.97,2.97,0,0,0,1.24-3.68,1.785,1.785,0,0,0-.144-2.494,3.107,3.107,0,0,0-1.185-3.263A4.137,4.137,0,0,0,1333.587,374.265Z" transform="translate(-1312.301 -334.632)" fill="#f47458"/>
        <path id="Trazado_205550" data-name="Trazado 205550" d="M1363.28,477.384l-3.653-1.879s-3.246.474-3.648.522-1.161,15.171-1.225,20.835.628,6.582.628,6.582a35.993,35.993,0,0,0,9.057-.264,29.422,29.422,0,0,0,8.116-3.508s-4.682-10.3-5.758-13.567S1363.28,477.384,1363.28,477.384Z" transform="translate(-1336.914 -422.478)" fill="#ff7d00"/>
        <path id="Trazado_205551" data-name="Trazado 205551" d="M1245.629,350.345l-12-9.592s-2.734-10.113-2.887-10.488-2.828-.253-3.909-.228c-.347.008,1.506,10.941,2.24,12.723.868,2.1,10.143,11.049,10.143,11.049s2.1,5.2,2.226,9.183c.213,6.617-.257,15.812.057,16.06,1.868.883,8.545.194,8.885-.536C1254.133,370.452,1245.629,350.345,1245.629,350.345Z" transform="translate(-1226.419 -296.833)" fill="#13375b"/>
        <path id="Trazado_205552" data-name="Trazado 205552" d="M1365.693,442.213l.547,2.1s1.019,3,.26,3.7-3.988-3.335-3.988-3.335l-.37-5.453Z" transform="translate(-1343.297 -391.151)" fill="#f7a491"/>
        <path id="Trazado_205553" data-name="Trazado 205553" d="M1362.262,440.993a6.191,6.191,0,0,0,3.895,3l-.464-1.783-3.551-2.987Z" transform="translate(-1343.297 -391.151)" fill="#f47458"/>
        <path id="Trazado_205554" data-name="Trazado 205554" d="M1326.389,405.875c.1.825.65,1.437,1.229,1.367s.967-.8.868-1.621-.65-1.437-1.229-1.367S1326.289,405.05,1326.389,405.875Z" transform="translate(-1312.411 -360.948)" fill="#f47458"/>
        <path id="Trazado_205555" data-name="Trazado 205555" d="M1346.653,383.349c.057.474.675.79,1.379.7s1.229-.539,1.171-1.013-.675-.79-1.379-.7S1346.6,382.875,1346.653,383.349Z" transform="translate(-1329.918 -342.014)" fill="#f47458"/>
        <path id="Trazado_205556" data-name="Trazado 205556" d="M1356.705,394.011a2.879,2.879,0,0,1,4.015,1.825,21.792,21.792,0,0,1,.564,2.715c.348,2.492-.651,5.079-1.785,5.216a5.39,5.39,0,0,1-5.007-4.632A4.762,4.762,0,0,1,1356.705,394.011Z" transform="translate(-1336.63 -351.86)" fill="#f7a491"/>
        <path id="Trazado_205557" data-name="Trazado 205557" d="M1350.94,428.957a.838.838,0,1,1-.937-.9A.927.927,0,0,1,1350.94,428.957Z" transform="translate(-1332.207 -381.503)" fill="#f7a491"/>
        <path id="Trazado_205558" data-name="Trazado 205558" d="M1383.481,378.954c1.284.786,1.865,2.147,1.3,3.039s-2.067.977-3.351.191-1.865-2.147-1.3-3.038S1382.2,378.168,1383.481,378.954Z" transform="translate(-1358.643 -338.641)" fill="#f47458"/>
        <path id="Trazado_205559" data-name="Trazado 205559" d="M1370.5,386.786c.049.4-.4.789-1,.862s-1.127-.2-1.176-.6.4-.789,1-.862S1370.455,386.383,1370.5,386.786Z" transform="translate(-1348.636 -345.341)" fill="#f47458"/>
        <path id="Trazado_205560" data-name="Trazado 205560" d="M1398.96,405.245a.935.935,0,1,1-1.042-.827A.94.94,0,0,1,1398.96,405.245Z" transform="translate(-1373.48 -361.088)" fill="#f47458"/>
        <path id="Trazado_205561" data-name="Trazado 205561" d="M1398.637,480.512s5.073,11.99,6.877,16.216c.2.457,1.176,3.446,1.212,3.744.08.662-2.7,1.851-3.048,1.842-.312-.008-4.395-12.67-6.768-18.821a18.284,18.284,0,0,0-3.479-5.662l-1.152-.952-.111-.356S1397.319,476.982,1398.637,480.512Z" transform="translate(-1369.225 -423.358)" fill="#13375b"/>
        <rect id="Rectángulo_44836" data-name="Rectángulo 44836" width="0.938" height="84.234" transform="translate(33.227 0.23) rotate(-14.208)" fill="#13375b"/>
        <g id="Grupo_152203" data-name="Grupo 152203" transform="translate(45.806 49.218)">
          <path id="Trazado_205562" data-name="Trazado 205562" d="M1562.84,450.172a2.857,2.857,0,0,0-.165-.55,1.569,1.569,0,0,0-.315-.5.955.955,0,0,1-.16-.333.588.588,0,0,0-.071-.132l0,0a1.334,1.334,0,0,0-.312-.3,1.4,1.4,0,0,1-.336-.365,1.009,1.009,0,0,0-.377-.333c-.15-.073-.266-.075-.32.017-.25.428-1.5,1.8-.992,2.457a15.8,15.8,0,0,1,1.088,1.391c.156.359.7.334,1.032.209A1.249,1.249,0,0,0,1562.84,450.172Z" transform="translate(-1559.67 -447.598)" fill="#f7a491"/>
        </g>
      </g>
      <rect id="Rectángulo_44837" data-name="Rectángulo 44837" width="265.602" height="0.942" transform="translate(153 333.105)" fill="#184655"/>
      <g id="Grupo_152205" data-name="Grupo 152205" transform="translate(312.785 113.763)">
        <path id="Trazado_205563" data-name="Trazado 205563" d="M1441.714,340.43a.193.193,0,0,1,.3-.047c.131.136.265.271.4.406.294.3.3.319.34.312.105-.016.108-.206.1-.276a2.273,2.273,0,0,1-.043-.465.341.341,0,0,1,.572-.258c.23.188.452.39.671.593.017-.334.025-.668.047-1a.132.132,0,0,1,.221-.1l1.014.792c.052.04.271.258.334.218s.053-.268.058-.32c.031-.286.047-.387.17-1.315a.155.155,0,0,1,.257-.076c.714.854.822.765.886,1.021a.073.073,0,0,1-.086.091c-.137-.014-.169-.027-.525-.371q-.138-.134-.27-.274c-.129,1.13-.134,1.418-.417,1.5-.2.059-.229,0-1.378-.905,0,.351-.022.7-.037,1.052a.15.15,0,0,1-.251.111c-.822-.677-.816-.728-.9-.768,0,0,0-.062-.015.026-.025.148.117.469.013.738a.454.454,0,0,1-.6.295c-.146-.072-.186-.143-.625-.566a3.924,3.924,0,0,1-.5.779.608.608,0,0,1-.294.218.161.161,0,0,1-.2-.19C1441.057,341.337,1441.343,341.261,1441.714,340.43Z" transform="translate(-1424.942 -331.24)" fill="#f47458"/>
        <path id="Trazado_205564" data-name="Trazado 205564" d="M1412.252,301.268a5.278,5.278,0,0,0,.934.08c.062,0,.176.013.216-.049.1-.148-.156-.379-.268-.959-.049-.252-.172-.768.167-.871a1.894,1.894,0,0,1,.568-.007c.135,0,.271,0,.407,0-.242-.944-.3-.891-.2-1.1a.119.119,0,0,1,.161-.048c.189.126.135.1.452,1.287a.185.185,0,0,1-.17.236c-.183,0-1.013-.071-1.116-.063.006.01,0,.054,0,.064a3.049,3.049,0,0,0,.276,1.083c.113.294.106.689-.268.772a3.676,3.676,0,0,1-.938-.021c.169.575.342,1.149.507,1.725a.2.2,0,0,1-.188.26c-.371-.033-.742-.054-1.114-.072a3.45,3.45,0,0,0,.457.951c.148.215-.155.479-.49-.09a3.341,3.341,0,0,1-.426-1.018.206.206,0,0,1,.188-.26c.368.007.737.031,1.1.061-.161-.575-.317-1.152-.478-1.726A.189.189,0,0,1,1412.252,301.268Z" transform="translate(-1399.261 -296.223)" fill="#66ccb2"/>
        <path id="Trazado_205565" data-name="Trazado 205565" d="M1354.037,284.921a.19.19,0,0,1-.189-.177,4.389,4.389,0,0,1,0-1.51c.053-.263.435-.164.4.093a5.339,5.339,0,0,0-.055,1.228,4.1,4.1,0,0,0,.885-.112.2.2,0,0,1,.248.179c-.02.325-.13,1.555-.144,1.566a.06.06,0,0,1,.032,0c.128.026.569-.065.769-.053.224.014.3.318.307.5.023.373-.255.783-.125,1.148s.677-.035,1.089.251c.317.221.208.593.077,1.18a.453.453,0,0,1-.208.356.1.1,0,0,1-.115-.013c-.156-.179-.076-.391.029-.928.013-.068.057-.184.009-.245-.159-.205-.625.087-1-.159a.86.86,0,0,1-.288-.884c.038-.249.191-.555.111-.809-.214.011-.429.029-.642.023a.368.368,0,0,1-.4-.366,6.44,6.44,0,0,1,.052-.8c.014-.177.027-.353.042-.529A4.629,4.629,0,0,1,1354.037,284.921Z" transform="translate(-1349.672 -283.079)" fill="#07345a"/>
        <path id="Trazado_205566" data-name="Trazado 205566" d="M1456.96,386.565c.889,1.139.052,1.692-.321,1.361a.312.312,0,0,1,.02-.507c.086-.055.223.032.188.136-.029.087.069.109.109.018.054-.124-.033-.277-.088-.386-.126-.254-.287-.584-.6-.634-.466-.074-.972.393-.716,1.105a1.259,1.259,0,0,0,2.336-.06,1.531,1.531,0,0,0-.544-1.594c-.093-.072.021-.2.114-.156a1.528,1.528,0,0,1,.7,1.917,1.552,1.552,0,0,1-1.747.925,1.477,1.477,0,0,1-1.275-1.587A1.016,1.016,0,0,1,1456.96,386.565Z" transform="translate(-1437.187 -371.816)" fill="#3c8f7c"/>
        <path id="Trazado_205567" data-name="Trazado 205567" d="M1325.092,319.467c.123.186.192.564-.058.681a.206.206,0,0,1-.3-.116c-.04-.132.033-.253-.086-.357a.276.276,0,0,0-.347.037c-.29.236-.215.754-.064,1.047a.7.7,0,0,0,1.219.07,1.582,1.582,0,0,0,.172-.507c.025-.1.179-.14.228-.036a.94.94,0,0,1-.416,1.1,1.117,1.117,0,0,1-1.206-.018,1.442,1.442,0,0,1-.563-1.237C1323.7,319.18,1324.694,318.867,1325.092,319.467Z" transform="translate(-1323.671 -314.236)" fill="#f7cc7f"/>
      </g>
      <path id="Trazado_205568" data-name="Trazado 205568" d="M1003.649,1292.022a.928.928,0,0,0,1.26.272c1.019-.508.613-1.273.613-1.273Z" transform="translate(-734.544 -1039.685)" fill="#fff"/>
      <path id="Trazado_205569" data-name="Trazado 205569" d="M1381.967,446.21a.928.928,0,0,0,1.017.79c1.139-.016,1.1-.882,1.1-.882Z" transform="translate(-1061.225 -310.103)" fill="#fff"/>
    </g>
  </g>
</svg>
