<svg xmlns="http://www.w3.org/2000/svg" xmlns:xlink="http://www.w3.org/1999/xlink" width="338.5" height="228.763" viewBox="0 0 338.5 228.763">
  <defs>
    <linearGradient id="linear-gradient" x1="0.507" y1="-0.634" x2="0.495" y2="1.332" gradientUnits="objectBoundingBox">
      <stop offset="0" stop-color="#4042e2"/>
      <stop offset="1" stop-color="#4f52ff"/>
    </linearGradient>
    <linearGradient id="linear-gradient-2" x1="0.071" y1="-0.477" x2="0.915" y2="1.335" xlink:href="#linear-gradient"/>
    <linearGradient id="linear-gradient-3" x1="0.266" y1="-0.959" x2="0.838" y2="2.607" xlink:href="#linear-gradient"/>
    <linearGradient id="linear-gradient-4" x1="0.322" y1="-0.608" x2="0.895" y2="2.958" xlink:href="#linear-gradient"/>
    <linearGradient id="linear-gradient-5" x1="0.378" y1="-0.257" x2="0.951" y2="3.309" xlink:href="#linear-gradient"/>
    <linearGradient id="linear-gradient-6" x1="0.435" y1="0.094" x2="1.008" y2="3.661" xlink:href="#linear-gradient"/>
    <linearGradient id="linear-gradient-7" x1="0.457" y1="1.875" x2="-0.174" y2="23.659" gradientUnits="objectBoundingBox">
      <stop offset="0" stop-color="#09005d"/>
      <stop offset="1" stop-color="#1a0f91"/>
    </linearGradient>
    <linearGradient id="linear-gradient-8" x1="0.416" y1="2.737" x2="-0.105" y2="17.471" xlink:href="#linear-gradient-7"/>
    <linearGradient id="linear-gradient-9" x1="0.379" y1="3.815" x2="-0.133" y2="18.536" xlink:href="#linear-gradient-7"/>
    <linearGradient id="linear-gradient-10" x1="0.332" y1="5.009" x2="-0.21" y2="19.87" xlink:href="#linear-gradient-7"/>
    <linearGradient id="linear-gradient-11" x1="0.481" y1="-2.743" x2="0.494" y2="-0.523" gradientUnits="objectBoundingBox">
      <stop offset="0" stop-color="#ff928e"/>
      <stop offset="1" stop-color="#feb3b1"/>
    </linearGradient>
    <linearGradient id="linear-gradient-12" x1="2.741" y1="-13.684" x2="1.664" y2="-6.868" xlink:href="#linear-gradient-11"/>
    <linearGradient id="linear-gradient-13" x1="1.854" y1="-1.193" x2="0.866" y2="-0.03" xlink:href="#linear-gradient-11"/>
    <linearGradient id="linear-gradient-14" x1="-50.385" y1="-0.484" x2="-53.22" y2="6.012" xlink:href="#linear-gradient"/>
    <linearGradient id="linear-gradient-15" x1="-206.613" y1="0.5" x2="-205.613" y2="0.5" gradientUnits="objectBoundingBox">
      <stop offset="0" stop-color="#f9b776"/>
      <stop offset="1" stop-color="#f47960"/>
    </linearGradient>
    <linearGradient id="linear-gradient-16" x1="-63.226" y1="0.5" x2="-62.226" y2="0.5" xlink:href="#linear-gradient-7"/>
    <linearGradient id="linear-gradient-17" x1="-130.086" y1="-2.223" x2="-137.103" y2="5.384" xlink:href="#linear-gradient"/>
    <linearGradient id="linear-gradient-18" x1="-247.801" y1="0.5" x2="-246.801" y2="0.5" xlink:href="#linear-gradient-15"/>
    <linearGradient id="linear-gradient-19" x1="-45.161" y1="0.5" x2="-44.161" y2="0.5" xlink:href="#linear-gradient-7"/>
    <linearGradient id="linear-gradient-20" x1="-21.34" y1="0.775" x2="-19.727" y2="-0.237" xlink:href="#linear-gradient"/>
    <linearGradient id="linear-gradient-21" x1="0.007" y1="-0.3" x2="0.563" y2="0.502" xlink:href="#linear-gradient-11"/>
    <linearGradient id="linear-gradient-22" x1="0.334" y1="0.374" x2="1.992" y2="2.022" xlink:href="#linear-gradient-11"/>
    <linearGradient id="linear-gradient-23" x1="-266.406" y1="0.706" x2="-264.387" y2="-1.072" xlink:href="#linear-gradient-11"/>
    <linearGradient id="linear-gradient-24" x1="-56.272" y1="1.066" x2="-52.223" y2="-1.521" xlink:href="#linear-gradient"/>
    <linearGradient id="linear-gradient-25" x1="-33.298" y1="0.5" x2="-32.298" y2="0.5" xlink:href="#linear-gradient-11"/>
    <linearGradient id="linear-gradient-26" x1="-103.15" y1="0.5" x2="-102.15" y2="0.5" xlink:href="#linear-gradient-11"/>
    <linearGradient id="linear-gradient-27" x1="0.49" y1="0.303" x2="0.591" y2="1.744" xlink:href="#linear-gradient-11"/>
    <linearGradient id="linear-gradient-28" x1="0.107" y1="0.529" x2="0.847" y2="0.419" xlink:href="#linear-gradient-11"/>
    <linearGradient id="linear-gradient-29" x1="-145.616" y1="-61.658" x2="-145.411" y2="-60.479" xlink:href="#linear-gradient-7"/>
    <linearGradient id="linear-gradient-30" x1="-1.671" y1="0.993" x2="0.739" y2="0.464" xlink:href="#linear-gradient-11"/>
    <linearGradient id="linear-gradient-31" x1="-34.74" y1="0.5" x2="-33.74" y2="0.5" gradientUnits="objectBoundingBox">
      <stop offset="0" stop-color="#2b3582"/>
      <stop offset="1" stop-color="#150e42"/>
    </linearGradient>
    <linearGradient id="linear-gradient-32" x1="-32.77" y1="-12.946" x2="-36.468" y2="11.134" xlink:href="#linear-gradient"/>
    <linearGradient id="linear-gradient-33" x1="-92.992" y1="-0.843" x2="-93.498" y2="2.39" xlink:href="#linear-gradient-11"/>
    <linearGradient id="linear-gradient-34" x1="-20.489" y1="-5.386" x2="-23.005" y2="17.677" xlink:href="#linear-gradient"/>
    <linearGradient id="linear-gradient-35" x1="-21.712" y1="0.5" x2="-20.712" y2="0.5" xlink:href="#linear-gradient-31"/>
    <linearGradient id="linear-gradient-36" x1="-71.994" y1="-2.115" x2="-72.474" y2="0.6" xlink:href="#linear-gradient-11"/>
    <linearGradient id="linear-gradient-37" x1="0.173" y1="0.703" x2="4.531" y2="-1.332" xlink:href="#linear-gradient-7"/>
    <linearGradient id="linear-gradient-38" x1="-0.096" y1="0.635" x2="0.759" y2="0.409" xlink:href="#linear-gradient-11"/>
    <linearGradient id="linear-gradient-39" x1="-10.502" y1="0.158" x2="-10.439" y2="1.532" xlink:href="#linear-gradient"/>
    <linearGradient id="linear-gradient-40" x1="-33.968" y1="-0.006" x2="-35.198" y2="0.733" xlink:href="#linear-gradient"/>
    <linearGradient id="linear-gradient-41" x1="-31.576" y1="4.541" x2="-32.251" y2="4.673" xlink:href="#linear-gradient-11"/>
    <linearGradient id="linear-gradient-42" x1="-31.199" y1="-1.182" x2="-31.81" y2="0.558" xlink:href="#linear-gradient-11"/>
    <linearGradient id="linear-gradient-43" x1="-52.197" y1="14.08" x2="-53.33" y2="14.51" xlink:href="#linear-gradient-11"/>
    <linearGradient id="linear-gradient-44" x1="-8.726" y1="-0.475" x2="-10.875" y2="0.945" xlink:href="#linear-gradient"/>
    <linearGradient id="linear-gradient-45" x1="0.472" y1="0.44" x2="1.102" y2="1.617" xlink:href="#linear-gradient-11"/>
    <linearGradient id="linear-gradient-46" x1="0.113" y1="0.996" x2="0.598" y2="0.51" xlink:href="#linear-gradient-11"/>
    <linearGradient id="linear-gradient-47" x1="-0.135" y1="0.454" x2="0.502" y2="0.53" xlink:href="#linear-gradient-11"/>
    <linearGradient id="linear-gradient-48" x1="-20.026" y1="0.152" x2="-19.276" y2="1.129" xlink:href="#linear-gradient-7"/>
    <linearGradient id="linear-gradient-49" x1="-3.577" y1="0.12" x2="-0.971" y2="0.369" xlink:href="#linear-gradient-11"/>
    <linearGradient id="linear-gradient-50" x1="-0.259" y1="-1.658" x2="0.369" y2="0.16" xlink:href="#linear-gradient-11"/>
    <linearGradient id="linear-gradient-51" x1="-5.094" y1="0.327" x2="-3.756" y2="0.798" xlink:href="#linear-gradient"/>
    <linearGradient id="linear-gradient-52" x1="-14.465" y1="0.833" x2="-14.744" y2="-0.234" xlink:href="#linear-gradient-11"/>
    <linearGradient id="linear-gradient-53" x1="-9.389" y1="0.098" x2="-6.596" y2="1.033" xlink:href="#linear-gradient"/>
    <linearGradient id="linear-gradient-54" x1="0.312" y1="-0.817" x2="0.428" y2="-0.007" xlink:href="#linear-gradient"/>
    <linearGradient id="linear-gradient-55" x1="0.931" y1="1.346" x2="0.565" y2="0.636" xlink:href="#linear-gradient-11"/>
    <linearGradient id="linear-gradient-56" x1="79.993" y1="79.248" x2="78.921" y2="80.529" xlink:href="#linear-gradient-11"/>
    <linearGradient id="linear-gradient-57" x1="56.234" y1="52.897" x2="57.141" y2="52.897" xlink:href="#linear-gradient-7"/>
    <linearGradient id="linear-gradient-58" x1="224.252" y1="264.426" x2="226.71" y2="261.778" xlink:href="#linear-gradient-11"/>
    <linearGradient id="linear-gradient-59" x1="30.102" y1="0.5" x2="31.102" y2="0.5" xlink:href="#linear-gradient"/>
    <linearGradient id="linear-gradient-60" x1="30.975" y1="0.5" x2="31.975" y2="0.5" xlink:href="#linear-gradient-31"/>
    <linearGradient id="linear-gradient-61" x1="106.863" y1="0.5" x2="107.863" y2="0.5" xlink:href="#linear-gradient-11"/>
    <linearGradient id="linear-gradient-62" x1="78.55" y1="0.5" x2="79.55" y2="0.5" xlink:href="#linear-gradient"/>
    <linearGradient id="linear-gradient-63" x1="53.517" y1="0.5" x2="54.517" y2="0.5" xlink:href="#linear-gradient-31"/>
    <linearGradient id="linear-gradient-64" x1="89.423" y1="0.5" x2="90.423" y2="0.5" xlink:href="#linear-gradient-11"/>
    <linearGradient id="linear-gradient-65" x1="-1.539" y1="1.021" x2="0.408" y2="-0.586" xlink:href="#linear-gradient-7"/>
  </defs>
  <g id="Grupo_153182" data-name="Grupo 153182" transform="translate(-128.438 -154.033)">
    <path id="Trazado_205866" data-name="Trazado 205866" d="M432.594,290.8c-3.782-14.693,7.976-28.2,15.726-41.241,11.473-19.311,14.41-45.349,1.431-63.682-11.856-16.747-34.134-23.316-54.621-22.165s-39.971,8.721-59.483,15.069-40.2,11.587-60.392,7.922c-21.931-3.982-41.24-18.143-63.388-20.645A61.936,61.936,0,0,0,145.385,244.7c2.979,10.373,8.522,22.053,2.687,31.131-3.067,4.772-8.58,7.327-12.58,11.35-7.731,7.775-8.81,20.533-4.687,30.692s12.59,18,21.834,23.892c32.229,20.56,21.016,45.462,59.229,44.37l70.771,4.7c23.256,1.078,46.044-15.078,69.3-14,31.5,1.46,39.652-10.32,69.928-19.125,7.841-2.28,15.673-5.341,21.776-10.766s10.241-13.611,9.056-21.69C450.745,311.952,435.947,303.826,432.594,290.8Z" transform="translate(0 -8.095)" fill="#0ab1cb"/>
    <g id="Grupo_153121" data-name="Grupo 153121" transform="translate(313.909 215.075)" opacity="0.54">
      <path id="Trazado_205867" data-name="Trazado 205867" d="M1455.958,554.081a1.248,1.248,0,0,1,1.2,2.106c-9.115,8.621-32.309,31.975-39.982,53.183-12.494,34.532-43.82,69.609-71.393,66.192C1345.778,675.561,1319.752,592.028,1455.958,554.081Z" transform="translate(-1343.789 -554.031)" fill="#c8eef3"/>
      <path id="Trazado_205868" data-name="Trazado 205868" d="M1506.235,621.228c-.256.175-.54.4-.813.6l-.818.637-1.624,1.294q-1.618,1.3-3.219,2.625-3.2,2.651-6.337,5.373-6.287,5.43-12.363,11.1c-8.082,7.571-15.936,15.389-23.368,23.595-3.7,4.117-7.363,8.267-10.856,12.559s-6.886,8.665-10.095,13.172c-.413.555-.808,1.122-1.2,1.692l-1.18,1.706-1.181,1.706c-.386.573-.757,1.157-1.137,1.735-.748,1.163-1.524,2.309-2.25,3.485l-2.158,3.544a158.7,158.7,0,0,0-7.72,14.686v0a.16.16,0,0,1-.293-.13,146.316,146.316,0,0,1,7.442-14.893l2.124-3.583c.715-1.19,1.48-2.349,2.217-3.526.374-.585.74-1.175,1.121-1.756l1.164-1.727,1.165-1.727c.386-.577.776-1.152,1.184-1.713a269.148,269.148,0,0,1,20.936-25.885c3.73-4.111,7.593-8.1,11.51-12.028s7.925-7.77,12.028-11.506,8.255-7.416,12.5-10.982q3.191-2.67,6.435-5.275c1.086-.863,2.172-1.726,3.27-2.573l1.656-1.26.835-.621c.286-.2.55-.407.873-.613a.159.159,0,0,1,.175.265Z" transform="translate(-1408.04 -610.711)" fill="#c8eef3"/>
    </g>
    <g id="Grupo_153122" data-name="Grupo 153122" transform="translate(320.671 260.253)">
      <path id="Trazado_205869" data-name="Trazado 205869" d="M1403.408,931.644s-26.276-32.125-9.981-53.233c13.1-16.964,6.463,8.929,8,31.965a1.42,1.42,0,0,0,2.836-.071c.3-17.8,2.391-44.712,12.183-47.976,14.782-4.927,9.314,1.178,4.15,22.132s-.529,25.834,4.814,12.452,1.417-36.532,8.908-40.667,21.255-4.948,27.3-6.139,10.391,28.6,1.7,35.179-26.437,10.32-30.875,19.005,11.907,1.074,20.492-3.842,14.65-6.467,11.006,5.376-19.391,16.035-30.621,15.661-18.043,2.97-12.553,3.594,22.535,1.148,28.15-1.971S1444.259,946.717,1403.408,931.644Z" transform="translate(-1388.098 -850.074)" fill="#15616d"/>
    </g>
    <g id="Grupo_153126" data-name="Grupo 153126" transform="translate(335.789 315.718)">
      <g id="Grupo_153124" data-name="Grupo 153124" transform="translate(0 18.349)">
        <g id="Grupo_153123" data-name="Grupo 153123" opacity="0.77">
          <path id="Trazado_205870" data-name="Trazado 205870" d="M1503.971,1375.543H1588.1V1358.7h-84.126C1505.772,1358.7,1505.772,1375.543,1503.971,1375.543Z" transform="translate(-1501.406 -1354.898)" fill="#ff7d00"/>
          <path id="Trazado_205871" data-name="Trazado 205871" d="M1573.853,1350.188v-7.706c0-2.716-1.662-4.918-3.713-4.918h-80.058a2.92,2.92,0,0,1-2.92-2.92h0a.887.887,0,0,1,.887-.887h87.5c2.007,0,5.192,3.155,5.192,7.046v10.762c0,3.669-3.093,6.644-4.985,6.644h-87.245a1.347,1.347,0,0,1-1.347-1.348h0a2.46,2.46,0,0,1,2.46-2.46h81.051C1572.428,1354.4,1573.853,1352.516,1573.853,1350.188Z" transform="translate(-1487.161 -1333.757)" fill="#ff7d00"/>
        </g>
        <path id="Trazado_205872" data-name="Trazado 205872" d="M1600.161,1379.885h-78.88a.32.32,0,1,1,0-.641h78.88a.32.32,0,1,1,0,.641Z" transform="translate(-1515.803 -1372.302)" fill="#0ab1cb"/>
        <path id="Trazado_205873" data-name="Trazado 205873" d="M1600.161,1396.263h-78.88a.32.32,0,0,1,0-.641h78.88a.32.32,0,1,1,0,.641Z" transform="translate(-1515.803 -1386.181)" fill="#0ab1cb"/>
        <path id="Trazado_205874" data-name="Trazado 205874" d="M1600.161,1412.639h-78.88a.321.321,0,0,1,0-.641h78.88a.321.321,0,1,1,0,.641Z" transform="translate(-1515.803 -1400.058)" fill="#0ab1cb"/>
        <path id="Trazado_205875" data-name="Trazado 205875" d="M1600.161,1429.018h-78.88a.32.32,0,1,1,0-.641h78.88a.32.32,0,1,1,0,.641Z" transform="translate(-1515.803 -1413.937)" fill="#0ab1cb"/>
        <path id="Trazado_205876" data-name="Trazado 205876" d="M1600.161,1445.394h-78.88a.32.32,0,0,1,0-.641h78.88a.32.32,0,1,1,0,.641Z" transform="translate(-1515.803 -1427.814)" fill="#0ab1cb"/>
      </g>
      <g id="Grupo_153125" data-name="Grupo 153125" transform="translate(10.875 0)">
        <rect id="Rectángulo_44852" data-name="Rectángulo 44852" width="75.698" height="18.272" rx="9.136" transform="translate(75.698 18.272) rotate(180)" fill="url(#linear-gradient)"/>
        <rect id="Rectángulo_44853" data-name="Rectángulo 44853" width="8.893" height="14.072" rx="4.446" transform="translate(67.143 16.172) rotate(180)" fill="#91b3fa"/>
        <rect id="Rectángulo_44854" data-name="Rectángulo 44854" width="3.337" height="14.072" rx="1.668" transform="translate(56.942 16.172) rotate(180)" fill="#91b3fa"/>
      </g>
    </g>
    <g id="Grupo_153127" data-name="Grupo 153127" transform="translate(173.174 224.963)">
      <path id="Trazado_205877" data-name="Trazado 205877" d="M423.172,618.872a1.248,1.248,0,0,0-1.2,2.106c9.115,8.621,32.309,31.974,39.982,53.183,12.494,34.532,43.821,69.609,71.393,66.192C533.352,740.353,559.379,656.819,423.172,618.872Z" transform="translate(-421.583 -618.823)" fill="#15616d"/>
      <path id="Trazado_205878" data-name="Trazado 205878" d="M523.172,685.735c.323.206.587.409.873.613l.836.621,1.656,1.26c1.1.847,2.185,1.709,3.27,2.573q3.248,2.6,6.435,5.275c4.249,3.566,8.406,7.242,12.5,10.982s8.106,7.58,12.028,11.506,7.781,7.917,11.51,12.028a269.168,269.168,0,0,1,20.936,25.885c.408.562.8,1.136,1.184,1.713l1.165,1.727,1.164,1.727c.381.58.747,1.171,1.121,1.756.738,1.177,1.5,2.335,2.217,3.526l2.124,3.583a146.3,146.3,0,0,1,7.442,14.893.16.16,0,0,1-.293.13v0a158.727,158.727,0,0,0-7.72-14.686l-2.158-3.543c-.726-1.177-1.5-2.323-2.25-3.486-.379-.578-.75-1.162-1.137-1.735l-1.18-1.706-1.18-1.706c-.391-.57-.786-1.138-1.2-1.692-3.209-4.507-6.606-8.878-10.095-13.172s-7.158-8.442-10.856-12.559c-7.432-8.206-15.286-16.024-23.368-23.595q-6.073-5.668-12.363-11.1-3.141-2.719-6.337-5.373-1.6-1.321-3.219-2.625l-1.624-1.294-.818-.638c-.273-.205-.556-.427-.813-.6L523,686a.159.159,0,0,1,.175-.265Z" transform="translate(-507.462 -675.503)" fill="#dce5fe"/>
    </g>
    <g id="Grupo_153128" data-name="Grupo 153128" transform="translate(153.429 297.123)">
      <path id="Trazado_205879" data-name="Trazado 205879" d="M384.148,1128.319s-11.654,3.542-27.18-4.281c-14.406-7.259-48.244-25.616-64.171-27.189a.655.655,0,0,1-.151-1.272,80.327,80.327,0,0,1,47.822-.522C368.961,1103.567,384.148,1128.319,384.148,1128.319Z" transform="translate(-292.2 -1091.676)" fill="#bdd0fb"/>
      <path id="Trazado_205880" data-name="Trazado 205880" d="M389.84,1122.569a27.182,27.182,0,0,1,5.024-.5c.422-.019.843-.018,1.265-.009l1.266.015c.841.053,1.688.073,2.528.158a57.067,57.067,0,0,1,9.969,1.8c.826.19,1.625.468,2.434.714s1.623.482,2.411.791l2.383.872c.4.137.784.317,1.174.48l1.166.5,1.166.5.582.252.57.278,2.279,1.114c.378.189.764.365,1.135.564l1.113.595,2.226,1.189c2.953,1.611,5.9,3.242,8.792,4.953,1.455.844,2.9,1.71,4.34,2.569l4.3,2.631c2.861,1.758,5.721,3.513,8.622,5.181q2.17,1.264,4.422,2.359c.761.338,1.513.7,2.295.99.768.33,1.567.559,2.361.816l.008,0a.16.16,0,0,1-.085.309,29.029,29.029,0,0,1-4.811-1.6q-2.321-1.017-4.558-2.2c-2.981-1.575-5.872-3.294-8.777-4.977l-4.354-2.529c-1.451-.841-2.9-1.692-4.356-2.518q-4.366-2.5-8.785-4.9l-2.219-1.182c-.739-.4-1.478-.791-2.226-1.156l-2.237-1.119-.559-.28-.571-.253-1.144-.5a75.157,75.157,0,0,0-9.366-3.48c-.8-.227-1.6-.468-2.406-.683l-2.434-.577c-.815-.175-1.636-.322-2.454-.485s-1.648-.255-2.473-.385c-.827-.113-1.658-.188-2.489-.286l-1.25-.086c-.417-.032-.834-.057-1.252-.062s-.836-.029-1.254-.027l-1.255.017a24.86,24.86,0,0,0-2.505.182.02.02,0,0,1-.023-.016A.021.021,0,0,1,389.84,1122.569Z" transform="translate(-374.926 -1117.418)" fill="#dce5fe"/>
    </g>
    <g id="Grupo_153129" data-name="Grupo 153129" transform="translate(311.66 311.976)">
      <path id="Trazado_205881" data-name="Trazado 205881" d="M1330.765,1224.567s-6.966-24.221,7.184-32.1c11.372-6.329,1.467,6.531-3.191,19.755a.862.862,0,0,0,1.6.64c4.43-9.86,12.046-24.377,18.292-23.852,9.429.792,4.915,2.889-2.987,13.344s-6.484,14.289-.3,8.1,9.543-20.046,14.714-20.558,13.046,2.331,16.7,3.115-1.054,18.449-7.477,20.038-17.224-.575-21.782,3.208,6.387,3.452,12.355,2.765,9.724-.1,4.854,5.637-14.662,4.3-20.839,1.4-10.779-2.665-7.865-1,12.3,6.039,16.18,5.644S1349.949,1242.765,1330.765,1224.567Z" transform="translate(-1329.05 -1189)" fill="#7d97f4"/>
    </g>
    <g id="Grupo_153131" data-name="Grupo 153131" transform="translate(233.036 154.033)">
      <path id="Trazado_205882" data-name="Trazado 205882" d="M1157.53,1322.51c-.1,6.634-8.612,13.7-18.45,13.7s-17.277-5.185-17.814-11.8c-1.281-15.774,7.976-15.609,17.814-15.609S1157.769,1306.114,1157.53,1322.51Z" transform="translate(-1074.25 -1132.44)" fill="url(#linear-gradient-2)"/>
      <ellipse id="Elipse_5442" data-name="Elipse 5442" cx="24.941" cy="6.519" rx="24.941" ry="6.519" transform="translate(40.266 177.897) rotate(-4.61)" fill="url(#linear-gradient-3)"/>
      <ellipse id="Elipse_5443" data-name="Elipse 5443" cx="24.941" cy="6.519" rx="24.941" ry="6.519" transform="translate(40.266 171.588) rotate(-4.61)" fill="url(#linear-gradient-4)"/>
      <ellipse id="Elipse_5444" data-name="Elipse 5444" cx="24.941" cy="6.519" rx="24.941" ry="6.519" transform="translate(40.266 165.278) rotate(-4.61)" fill="url(#linear-gradient-5)"/>
      <ellipse id="Elipse_5445" data-name="Elipse 5445" cx="24.941" cy="6.519" rx="24.941" ry="6.519" transform="matrix(0.997, -0.08, 0.08, 0.997, 40.266, 158.969)" fill="url(#linear-gradient-6)"/>
      <g id="Grupo_153130" data-name="Grupo 153130" transform="translate(44.452 165.312)">
        <path id="Trazado_205883" data-name="Trazado 205883" d="M1137,1375.946a59.316,59.316,0,0,1-10.891-.891.33.33,0,1,1,.124-.648,71.023,71.023,0,0,0,18.142.573,77.988,77.988,0,0,0,15.215-2.624.33.33,0,1,1,.185.633,78.66,78.66,0,0,1-15.347,2.648C1141.877,1375.844,1139.381,1375.946,1137,1375.946Z" transform="translate(-1122.682 -1351.732)" fill="url(#linear-gradient-7)"/>
        <path id="Trazado_205884" data-name="Trazado 205884" d="M1123.835,1324.993a51.825,51.825,0,0,1-13.372-1.449.33.33,0,0,1,.181-.635c4.759,1.355,12.421,1.775,20.5,1.124,7.989-.644,15.439-2.265,19.93-4.336a.33.33,0,1,1,.276.6c-4.558,2.1-12.092,3.745-20.154,4.395C1128.678,1324.893,1126.2,1324.993,1123.835,1324.993Z" transform="translate(-1109.445 -1307.094)" fill="url(#linear-gradient-8)"/>
        <path id="Trazado_205885" data-name="Trazado 205885" d="M1119.446,1283.652c-5.72,0-10.726-.585-14.1-1.7a.33.33,0,0,1,.206-.626c4.689,1.546,12.638,2.053,21.263,1.358,7.988-.644,15.439-2.265,19.93-4.337a.33.33,0,0,1,.276.6c-4.558,2.1-12.092,3.745-20.153,4.4C1124.318,1283.552,1121.82,1283.652,1119.446,1283.652Z" transform="translate(-1105.124 -1272.059)" fill="url(#linear-gradient-9)"/>
        <path id="Trazado_205886" data-name="Trazado 205886" d="M1131.9,1242.566a56.855,56.855,0,0,1-11.873-1.08.33.33,0,0,1,.143-.644c4.825,1.072,11.772,1.35,19.06.762,7.917-.638,15.33-2.242,19.828-4.29a.33.33,0,0,1,.273.6c-4.565,2.078-12.059,3.7-20.049,4.347C1136.756,1242.466,1134.271,1242.566,1131.9,1242.566Z" transform="translate(-1117.531 -1237.285)" fill="url(#linear-gradient-10)"/>
      </g>
      <path id="Trazado_205887" data-name="Trazado 205887" d="M845.416,289.95a46.431,46.431,0,0,0-8.315-16.234c-8.174-10.3-21.508-31.252-23.149-59.845-2.387-41.59,34.5-62.412,68.157-59.585s66.871,27.888,63.235,66.579c-2.237,23.807-15.562,41.865-25.483,52.235a55.1,55.1,0,0,0-13.226,23.434c-2.977,10.75-10.063,24.146-26.9,24.963C857.937,322.555,848.886,302.242,845.416,289.95Z" transform="translate(-813.842 -154.032)" fill="#f9c852" opacity="0.81"/>
      <path id="Trazado_205888" data-name="Trazado 205888" d="M1281.922,758.294l11.777-76.6c.243-1.582,1.022-2.645,1.74-2.374s1.1,1.774.858,3.357c-.006.042-.015.094-.022.136L1282.86,758.7c-.1.571-.391.931-.647.8S1281.838,758.847,1281.922,758.294Z" transform="translate(-1210.468 -599.123)" fill="#0ab1cb"/>
      <path id="Trazado_205889" data-name="Trazado 205889" d="M1121.733,762.28l-11.777-76.6c-.243-1.582-1.022-2.645-1.74-2.374s-1.1,1.775-.858,3.357c.006.042.015.094.022.136l13.415,75.888c.1.571.391.931.647.805S1121.818,762.832,1121.733,762.28Z" transform="translate(-1062.504 -602.5)" fill="#0ab1cb"/>
      <path id="Trazado_205890" data-name="Trazado 205890" d="M1166.8,600.566a1.235,1.235,0,0,0-1.546-.4l-6.558,3.064-2.276-6.486a1.391,1.391,0,0,0-.8-.8,1.621,1.621,0,0,0-2.015.621l-.011.021-5.393,9.833-5-14-.008-.023a1.6,1.6,0,0,0-.757-.854,1.964,1.964,0,0,0-2.476.488l-7.54,10.379a.909.909,0,0,0,.266,1.31,1.264,1.264,0,0,0,1.6-.174l6.638-7.405,5.977,13.316,0,.01a1.056,1.056,0,0,0,.526.516,1.249,1.249,0,0,0,1.564-.4l5.768-9.256,2.171,4.681.019.042a.944.944,0,0,0,.054.1,1.234,1.234,0,0,0,1.545.4l7.784-3.637A.926.926,0,0,0,1166.8,600.566Z" transform="translate(-1083.652 -524.571)" fill="url(#linear-gradient-11)"/>
      <path id="Trazado_205891" data-name="Trazado 205891" d="M1507.575,810.7a.481.481,0,0,1-.385-.767,87.878,87.878,0,0,0,5.527-8.4.481.481,0,0,1,.832.481,88.88,88.88,0,0,1-5.588,8.488A.48.48,0,0,1,1507.575,810.7Z" transform="translate(-1401.3 -702.516)" fill="url(#linear-gradient-12)"/>
      <path id="Trazado_205892" data-name="Trazado 205892" d="M1571.063,447.8a.481.481,0,0,1-.441-.672,72.981,72.981,0,0,0,5.584-37.9,59.419,59.419,0,0,0-3.99-15.883.481.481,0,0,1,.874-.4,60.338,60.338,0,0,1,4.066,16.127,73.936,73.936,0,0,1-5.651,38.439A.481.481,0,0,1,1571.063,447.8Z" transform="translate(-1455.099 -356.247)" fill="url(#linear-gradient-13)"/>
    </g>
    <g id="Grupo_153163" data-name="Grupo 153163" transform="translate(148.343 159.812)">
      <g id="Grupo_153136" data-name="Grupo 153136" transform="translate(33.159 14.418)">
        <g id="Grupo_153132" data-name="Grupo 153132">
          <path id="Trazado_205893" data-name="Trazado 205893" d="M476.955,604.108h-.005a.8.8,0,0,1-.8-.806q0-.651.025-1.3a.8.8,0,1,1,1.6.051q-.02.631-.024,1.26A.8.8,0,0,1,476.955,604.108Z" transform="translate(-476.154 -553.177)" fill="#91b3fa"/>
          <path id="Trazado_205894" data-name="Trazado 205894" d="M479.179,331.834a.833.833,0,0,1-.095-.006.8.8,0,0,1-.7-.889c.1-.866.229-1.741.377-2.6a.8.8,0,1,1,1.579.271c-.143.835-.266,1.683-.365,2.52A.8.8,0,0,1,479.179,331.834Zm1.258-6.673a.792.792,0,0,1-.2-.026.8.8,0,0,1-.573-.977c.219-.841.465-1.691.729-2.527a.8.8,0,1,1,1.528.483c-.256.809-.494,1.633-.706,2.448A.8.8,0,0,1,480.437,325.161Zm2.152-6.441a.8.8,0,0,1-.741-1.106c.333-.81.69-1.619,1.062-2.406a.8.8,0,1,1,1.448.685c-.36.762-.706,1.546-1.028,2.33A.8.8,0,0,1,482.589,318.721Zm3-6.09a.8.8,0,0,1-.692-1.2c.439-.756.9-1.509,1.38-2.239a.8.8,0,0,1,1.341.876c-.462.707-.911,1.436-1.336,2.168A.8.8,0,0,1,485.59,312.63Zm3.807-5.625a.8.8,0,0,1-.631-1.294c.538-.688,1.1-1.371,1.677-2.031a.8.8,0,0,1,1.208,1.052c-.556.639-1.1,1.3-1.623,1.966A.8.8,0,0,1,489.4,307.006Zm74.312-4.429a.8.8,0,0,1-.568-.236c-.6-.6-1.217-1.191-1.843-1.758a.8.8,0,1,1,1.075-1.188c.647.585,1.287,1.2,1.9,1.816a.8.8,0,0,1-.568,1.366Zm-69.766-.621a.8.8,0,0,1-.557-1.376c.627-.607,1.279-1.206,1.939-1.781a.8.8,0,1,1,1.052,1.208c-.638.556-1.27,1.136-1.877,1.724A.8.8,0,0,1,493.942,301.956ZM558.6,298.1a.8.8,0,0,1-.484-.163c-.675-.513-1.37-1.013-2.067-1.489a.8.8,0,0,1,.9-1.324c.72.491,1.439,1.008,2.135,1.537a.8.8,0,0,1-.485,1.439Zm-59.463-.525a.8.8,0,0,1-.474-1.447c.7-.513,1.429-1.018,2.163-1.5a.8.8,0,0,1,.878,1.34c-.711.466-1.415.954-2.095,1.452A.8.8,0,0,1,499.136,297.577Zm53.787-3.2a.8.8,0,0,1-.392-.1c-.737-.415-1.495-.815-2.252-1.192a.8.8,0,0,1,.712-1.435c.782.388,1.565.8,2.326,1.23a.8.8,0,0,1-.394,1.5Zm-48.046-.425a.8.8,0,0,1-.382-1.506c.77-.416,1.559-.817,2.346-1.191a.8.8,0,0,1,.688,1.447c-.762.362-1.526.75-2.272,1.153A.8.8,0,0,1,504.877,293.948Zm41.914-2.5a.8.8,0,0,1-.293-.056q-.368-.145-.739-.285c-.543-.205-1.1-.4-1.656-.592a.8.8,0,0,1,.512-1.518c.574.194,1.149.4,1.71.611q.381.144.76.293a.8.8,0,0,1-.294,1.547Zm-35.735-.32a.8.8,0,0,1-.282-1.551c.817-.307,1.653-.6,2.485-.861a.8.8,0,1,1,.485,1.527c-.806.256-1.615.536-2.406.834A.8.8,0,0,1,511.056,291.133Zm29.266-1.748a.808.808,0,0,1-.192-.023c-.823-.2-1.66-.386-2.488-.544a.8.8,0,1,1,.3-1.573c.855.163,1.719.352,2.57.562a.8.8,0,0,1-.191,1.579Zm-22.765-.2a.8.8,0,0,1-.177-1.582c.847-.192,1.714-.366,2.578-.515a.8.8,0,1,1,.273,1.578c-.836.145-1.676.313-2.5.5A.793.793,0,0,1,517.557,289.182Zm16.076-.965a.774.774,0,0,1-.084,0c-.843-.088-1.7-.154-2.539-.2a.8.8,0,0,1,.082-1.6c.87.045,1.752.114,2.623.2a.8.8,0,0,1-.082,1.6Zm-9.369-.082a.8.8,0,0,1-.068-1.6c.869-.075,1.751-.129,2.623-.158a.8.8,0,1,1,.055,1.6c-.844.029-1.7.08-2.54.153Q524.3,288.135,524.264,288.135Z" transform="translate(-478.038 -286.377)" fill="#91b3fa"/>
          <path id="Trazado_205895" data-name="Trazado 205895" d="M1052.579,405.1a.8.8,0,0,1-.628-.3q-.391-.493-.8-.976a.8.8,0,0,1,1.228-1.029q.418.5.823,1.009a.8.8,0,0,1-.627,1.3Z" transform="translate(-963.247 -384.782)" fill="#91b3fa"/>
        </g>
        <g id="Grupo_153133" data-name="Grupo 153133" transform="translate(9.422 54.155)">
          <path id="Trazado_205896" data-name="Trazado 205896" d="M1125.7,644.12a.817.817,0,0,1-.095-.006.8.8,0,0,1-.7-.889q.074-.627.131-1.254a.8.8,0,0,1,1.6.147q-.06.647-.136,1.295A.8.8,0,0,1,1125.7,644.12Z" transform="translate(-1035.319 -641.244)" fill="#e9effe"/>
          <path id="Trazado_205897" data-name="Trazado 205897" d="M597.932,717.772c-.467,0-.936-.006-1.406-.019a.8.8,0,0,1-.779-.822.789.789,0,0,1,.823-.779c.454.012.91.022,1.362.018q.573,0,1.144-.014a.793.793,0,0,1,.82.781.8.8,0,0,1-.781.82Q598.524,717.772,597.932,717.772Zm5.292-.289a.8.8,0,0,1-.085-1.6c.826-.09,1.662-.2,2.482-.334a.8.8,0,0,1,.254,1.582c-.848.136-1.71.252-2.564.345A.811.811,0,0,1,603.223,717.484Zm-10.8-.017a.82.82,0,0,1-.09,0c-.853-.1-1.716-.215-2.564-.354a.8.8,0,0,1,.26-1.581c.821.135,1.656.25,2.483.343a.8.8,0,0,1-.088,1.6Zm17.382-1.149a.8.8,0,0,1-.192-1.579c.805-.2,1.618-.423,2.416-.664a.8.8,0,1,1,.464,1.533c-.824.249-1.663.48-2.495.686A.813.813,0,0,1,609.8,716.317Zm-23.958-.041a.819.819,0,0,1-.2-.024c-.832-.21-1.671-.444-2.493-.7a.8.8,0,1,1,.47-1.531c.8.244,1.608.471,2.414.673a.8.8,0,0,1-.195,1.578Zm30.322-2a.8.8,0,0,1-.295-1.546c.774-.307,1.55-.637,2.306-.982a.8.8,0,0,1,.665,1.458c-.781.356-1.582.7-2.382,1.013A.8.8,0,0,1,616.165,714.28Zm-36.682-.064a.8.8,0,0,1-.3-.057c-.8-.318-1.6-.662-2.38-1.02a.8.8,0,0,1,.668-1.456c.757.348,1.533.68,2.305.988a.8.8,0,0,1-.3,1.545ZM622.2,711.41a.8.8,0,0,1-.392-1.5c.728-.408,1.453-.839,2.156-1.281a.8.8,0,0,1,.853,1.356c-.725.456-1.474.9-2.225,1.323A.8.8,0,0,1,622.2,711.41Zm-48.749-.08a.8.8,0,0,1-.393-.1c-.749-.422-1.5-.87-2.223-1.33a.8.8,0,1,1,.858-1.353c.7.446,1.426.879,2.151,1.288a.8.8,0,0,1-.394,1.5Zm54.348-3.57a.8.8,0,0,1-.482-1.441c.664-.5,1.325-1.023,1.964-1.558a.8.8,0,1,1,1.028,1.229c-.661.553-1.344,1.094-2.029,1.61A.8.8,0,0,1,627.8,707.76Zm-59.935-.1a.8.8,0,0,1-.483-.163c-.687-.521-1.367-1.065-2.022-1.619a.8.8,0,0,1,1.034-1.224c.634.535,1.293,1.062,1.957,1.567a.8.8,0,0,1-.485,1.439Zm64.994-4.269a.8.8,0,0,1-.563-1.37c.592-.586,1.177-1.195,1.737-1.81a.8.8,0,0,1,1.184,1.08c-.579.635-1.183,1.264-1.794,1.869A.8.8,0,0,1,632.859,703.39Zm-70.032-.123a.8.8,0,0,1-.566-.234c-.607-.606-1.207-1.237-1.784-1.876a.8.8,0,1,1,1.189-1.074c.559.619,1.141,1.23,1.728,1.817a.8.8,0,0,1-.566,1.368Zm74.455-4.89a.8.8,0,0,1-.634-1.289c.506-.658,1-1.341,1.477-2.029a.8.8,0,1,1,1.319.909c-.49.711-1,1.417-1.526,2.1A.8.8,0,0,1,637.282,698.377Zm3.705-5.567a.8.8,0,0,1-.695-1.2c.412-.721.812-1.463,1.188-2.207a.8.8,0,0,1,1.43.723c-.388.768-.8,1.535-1.227,2.279A.8.8,0,0,1,640.987,692.81Zm2.921-6.01a.8.8,0,0,1-.742-1.1q.232-.571.45-1.15.226-.6.434-1.2a.8.8,0,1,1,1.513.527q-.216.619-.449,1.236-.225.6-.464,1.186A.8.8,0,0,1,643.908,686.8Zm2.1-6.346a.818.818,0,0,1-.2-.026.8.8,0,0,1-.575-.976c.208-.806.4-1.628.564-2.442a.8.8,0,0,1,1.57.32c-.172.841-.368,1.69-.583,2.522A.8.8,0,0,1,646.007,680.454Z" transform="translate(-556.855 -671.009)" fill="#e9effe"/>
          <path id="Trazado_205898" data-name="Trazado 205898" d="M539.46,804.974a.8.8,0,0,1-.638-.316q-.394-.518-.775-1.046a.8.8,0,0,1,1.3-.937q.368.511.75,1.012a.8.8,0,0,1-.637,1.286Z" transform="translate(-537.896 -777.758)" fill="#e9effe"/>
        </g>
        <g id="Grupo_153135" data-name="Grupo 153135" transform="translate(13.61 13.073)">
          <path id="Trazado_205899" data-name="Trazado 205899" d="M568.711,427.688a.6.6,0,0,0,.587.367l7.241-.44a31.6,31.6,0,0,0,7.237,7.242l-.439,7.236a.6.6,0,0,0,.367.587l8.039,3.33a.6.6,0,0,0,.674-.155l4.806-5.427a31.6,31.6,0,0,0,10.238,0l4.809,5.431a.6.6,0,0,0,.674.156l8.039-3.33a.6.6,0,0,0,.367-.587l-.44-7.241a31.6,31.6,0,0,0,7.242-7.237l7.236.439a.6.6,0,0,0,.587-.367l3.33-8.039a.6.6,0,0,0-.156-.674l-5.427-4.806a31.591,31.591,0,0,0,0-10.238l5.431-4.809a.6.6,0,0,0,.156-.674l-3.33-8.039a.6.6,0,0,0-.587-.367l-7.241.44a31.6,31.6,0,0,0-7.237-7.242l.44-7.236a.6.6,0,0,0-.367-.587l-8.039-3.33a.6.6,0,0,0-.674.156l-4.806,5.427a31.6,31.6,0,0,0-10.238,0l-4.809-5.431a.6.6,0,0,0-.674-.156l-8.039,3.33a.6.6,0,0,0-.367.587l.44,7.241a31.6,31.6,0,0,0-7.242,7.237l-7.236-.44a.6.6,0,0,0-.587.367l-3.33,8.039a.6.6,0,0,0,.155.674l5.427,4.806a31.6,31.6,0,0,0,0,10.238l-5.431,4.809a.6.6,0,0,0-.156.674Z" transform="translate(-565.336 -372.042)" fill="#c8eef3" opacity="0.8"/>
          <g id="Grupo_153134" data-name="Grupo 153134" transform="translate(28.638 28.639)">
            <path id="Trazado_205900" data-name="Trazado 205900" d="M761.368,576.443a8.4,8.4,0,0,1-1.218-.089,8.361,8.361,0,1,1,1.218.089Zm-.01-15.454a7.089,7.089,0,1,0,1.031.075A7.1,7.1,0,0,0,761.359,560.99Z" transform="translate(-752.994 -559.708)" fill="#0ab1cb"/>
          </g>
          <path id="Trazado_205901" data-name="Trazado 205901" d="M690.525,516.947a21.287,21.287,0,0,1-8.158-1.634h0q-.707-.293-1.392-.635h0l-.01-.005-.023-.011-.008,0q-.955-.48-1.856-1.052l-.019-.012-.218-.141-.11-.072-.145-.1-.2-.14a.32.32,0,1,1,.365-.527,20.822,20.822,0,0,0,3.867,2.1,20.551,20.551,0,0,0,10.773,1.384,20.8,20.8,0,0,0,5.051-1.383,20.681,20.681,0,1,0-28.369-16.084.341.341,0,0,1,0,.048.32.32,0,0,1-.637.046,21.292,21.292,0,1,1,21.091,18.216Z" transform="translate(-653.354 -458.698)" fill="#0ab1cb"/>
        </g>
      </g>
      <g id="Grupo_153141" data-name="Grupo 153141" transform="translate(141.327 0)">
        <path id="Trazado_205902" data-name="Trazado 205902" d="M1226.518,262.825l4.025-.567a17.709,17.709,0,0,0,4.363,3.723l.076,4.061a.334.334,0,0,0,.231.311l4.638,1.5a.334.334,0,0,0,.37-.117l2.443-3.245a17.7,17.7,0,0,0,5.718-.457l2.927,2.82a.334.334,0,0,0,.383.057l4.342-2.217a.334.334,0,0,0,.179-.344l-.567-4.025a17.716,17.716,0,0,0,3.723-4.363l4.061-.076a.334.334,0,0,0,.311-.231l1.5-4.638a.334.334,0,0,0-.117-.37l-3.245-2.443a17.709,17.709,0,0,0-.456-5.718l2.82-2.927a.333.333,0,0,0,.057-.384l-2.217-4.342a.333.333,0,0,0-.344-.179l-4.025.567a17.7,17.7,0,0,0-4.363-3.723l-.076-4.061a.334.334,0,0,0-.231-.311l-4.638-1.5a.334.334,0,0,0-.37.117l-2.443,3.245a17.7,17.7,0,0,0-5.718.457l-2.927-2.82a.334.334,0,0,0-.383-.057l-4.342,2.217a.334.334,0,0,0-.179.344l.567,4.025a17.7,17.7,0,0,0-3.723,4.363l-4.061.076a.334.334,0,0,0-.311.231l-1.5,4.638a.334.334,0,0,0,.117.37l3.245,2.443a17.706,17.706,0,0,0,.457,5.718l-2.82,2.927a.334.334,0,0,0-.057.384l2.216,4.342A.334.334,0,0,0,1226.518,262.825Z" transform="translate(-1217.194 -223.856)" fill="#c9e5d7"/>
        <g id="Grupo_153137" data-name="Grupo 153137" transform="translate(22.287 22.236)">
          <path id="Trazado_205903" data-name="Trazado 205903" d="M1335.654,346.906q-.157,0-.314-.01h0a4.646,4.646,0,1,1,.314.01Zm-.009-8.658a4.008,4.008,0,0,0-.262,8.008h0a4.008,4.008,0,0,0,.53-8Q1335.777,338.248,1335.644,338.248Z" transform="translate(-1330.997 -337.607)" fill="#0ab1cb"/>
        </g>
        <g id="Grupo_153140" data-name="Grupo 153140">
          <g id="Grupo_153138" data-name="Grupo 153138" opacity="0.64">
            <path id="Trazado_205904" data-name="Trazado 205904" d="M1190.932,406.278a.8.8,0,0,1-.768-.573c-.125-.42-.241-.849-.344-1.275a.8.8,0,0,1,1.557-.379c.1.4.206.8.324,1.2a.8.8,0,0,1-.768,1.029Z" transform="translate(-1189.057 -371.157)" fill="#e9effe"/>
            <path id="Trazado_205905" data-name="Trazado 205905" d="M1185.85,221.865a.8.8,0,0,1-.8-.732c-.066-.767-.1-1.548-.1-2.319v-.2a.8.8,0,0,1,.8-.8h.006a.8.8,0,0,1,.8.807v.188c0,.726.031,1.46.094,2.182a.8.8,0,0,1-.729.867Zm.232-6.4a.772.772,0,0,1-.126-.01.8.8,0,0,1-.666-.916c.131-.827.3-1.658.511-2.469a.8.8,0,1,1,1.552.4c-.2.762-.357,1.544-.481,2.322A.8.8,0,0,1,1186.082,215.461Zm1.775-6.159a.8.8,0,0,1-.736-1.117c.329-.77.7-1.533,1.1-2.269a.8.8,0,0,1,1.407.766c-.377.692-.725,1.409-1.035,2.133A.8.8,0,0,1,1187.857,209.3Zm3.229-5.537a.8.8,0,0,1-.636-1.286c.507-.666,1.052-1.316,1.62-1.932a.8.8,0,0,1,1.178,1.086c-.534.579-1.047,1.191-1.524,1.817A.8.8,0,0,1,1191.085,203.765Zm4.479-4.585a.8.8,0,0,1-.5-1.427c.653-.523,1.339-1.021,2.039-1.482a.8.8,0,0,1,.881,1.338c-.659.434-1.3.9-1.919,1.395A.8.8,0,0,1,1195.564,199.18Zm5.453-3.362a.8.8,0,0,1-.334-1.529c.764-.35,1.551-.667,2.339-.942a.8.8,0,1,1,.527,1.512c-.741.259-1.481.556-2.2.886A.8.8,0,0,1,1201.017,195.818Zm21.1-.287a.8.8,0,0,1-.313-.064c-.725-.308-1.473-.585-2.223-.824a.8.8,0,0,1,.485-1.527c.8.254,1.594.548,2.366.876a.8.8,0,0,1-.314,1.539Zm-14.992-1.646a.8.8,0,0,1-.144-1.589c.823-.152,1.664-.267,2.5-.341a.8.8,0,0,1,.142,1.6c-.784.069-1.575.177-2.349.32A.8.8,0,0,1,1207.125,193.885Zm8.831-.116a.788.788,0,0,1-.125-.01c-.747-.117-1.51-.2-2.268-.252l-.089-.006a.8.8,0,1,1,.1-1.6l.1.006c.8.053,1.613.143,2.407.267a.8.8,0,0,1-.123,1.592Z" transform="translate(-1184.953 -191.902)" fill="#e9effe"/>
            <path id="Trazado_205906" data-name="Trazado 205906" d="M1448.317,219.535a.8.8,0,0,1-.455-.142c-.337-.233-.686-.462-1.037-.68a.8.8,0,0,1,.844-1.362c.374.232.746.476,1.1.724a.8.8,0,0,1-.457,1.46Z" transform="translate(-1406.54 -213.365)" fill="#e9effe"/>
          </g>
          <g id="Grupo_153139" data-name="Grupo 153139" transform="translate(10.315 20.794)" opacity="0.64">
            <path id="Trazado_205907" data-name="Trazado 205907" d="M1525,331.023a.8.8,0,0,1-.791-.678c-.063-.405-.137-.816-.221-1.222a.8.8,0,0,1,1.569-.323c.089.431.168.869.235,1.3a.8.8,0,0,1-.669.914A.828.828,0,0,1,1525,331.023Z" transform="translate(-1482.548 -328.159)" fill="#e9effe"/>
            <path id="Trazado_205908" data-name="Trazado 205908" d="M1294.47,392.306h-.049l-.141-.009c-.877-.058-1.754-.158-2.611-.3a.8.8,0,0,1,.259-1.581c.806.132,1.631.227,2.452.281l.137.009a.8.8,0,0,1-.047,1.6Zm4.359-.1a.8.8,0,0,1-.083-1.6,25.326,25.326,0,0,0,2.571-.407.8.8,0,0,1,.332,1.567,26.939,26.939,0,0,1-2.735.433A.845.845,0,0,1,1298.829,392.21Zm-11.26-1.265a.8.8,0,0,1-.26-.043,26.789,26.789,0,0,1-2.57-1.032.8.8,0,1,1,.673-1.454,25.139,25.139,0,0,0,2.416.97.8.8,0,0,1-.259,1.559Zm18.089-.413a.8.8,0,0,1-.295-1.546,25.5,25.5,0,0,0,2.367-1.081.8.8,0,1,1,.74,1.421,27.1,27.1,0,0,1-2.517,1.15A.8.8,0,0,1,1305.658,390.533Zm6.13-3.444a.8.8,0,0,1-.483-1.44,25.563,25.563,0,0,0,2-1.673.8.8,0,0,1,1.091,1.174,27.246,27.246,0,0,1-2.121,1.778A.8.8,0,0,1,1311.788,387.089Zm5-4.949a.8.8,0,0,1-.634-1.29,25.479,25.479,0,0,0,1.48-2.143.8.8,0,0,1,1.364.842,27.1,27.1,0,0,1-1.573,2.278A.8.8,0,0,1,1316.783,382.139Zm3.5-6.1a.8.8,0,0,1-.742-1.1,25.329,25.329,0,0,0,.851-2.461.8.8,0,0,1,1.539.444,26.928,26.928,0,0,1-.905,2.618A.8.8,0,0,1,1320.282,376.038Zm1.736-6.816a.748.748,0,0,1-.092-.005.8.8,0,0,1-.7-.887c.047-.412.085-.829.112-1.238.03-.452.048-.91.054-1.361a.8.8,0,0,1,.8-.79h.011a.8.8,0,0,1,.79.812c-.006.48-.026.966-.057,1.446-.029.435-.069.877-.119,1.315A.8.8,0,0,1,1322.017,369.222Z" transform="translate(-1279.432 -359.327)" fill="#e9effe"/>
            <path id="Trazado_205909" data-name="Trazado 205909" d="M1254.381,501.514a.8.8,0,0,1-.453-.141c-.362-.249-.722-.509-1.069-.774a.8.8,0,0,1,.971-1.275c.327.249.666.494,1.006.728a.8.8,0,0,1-.454,1.461Z" transform="translate(-1252.543 -473.065)" fill="#e9effe"/>
          </g>
        </g>
        <path id="Trazado_205910" data-name="Trazado 205910" d="M1294.345,313.059a12.036,12.036,0,0,1-3.716-.589h0a12.144,12.144,0,0,1-2.35-1.047.32.32,0,0,1-.16-.278.316.316,0,0,1,.043-.16.321.321,0,0,1,.438-.116,11.507,11.507,0,0,0,2.226.992h0a11.457,11.457,0,0,0,14.3-7.021c.04-.111.079-.225.115-.338a11.443,11.443,0,1,0-22.331-3.52,11.356,11.356,0,0,0,.291,2.554.326.326,0,0,1,.008.072.32.32,0,0,1-.633.072,12.085,12.085,0,1,1,11.77,9.379Z" transform="translate(-1267.417 -274.089)" fill="#0ab1cb"/>
      </g>
      <g id="Grupo_153146" data-name="Grupo 153146" transform="translate(0 55.165)">
        <g id="Grupo_153142" data-name="Grupo 153142">
          <path id="Trazado_205911" data-name="Trazado 205911" d="M259.187,689.742h0a.32.32,0,0,1-.318-.323q0-.4.02-.812a.325.325,0,0,1,.334-.306.32.32,0,0,1,.306.334q-.017.395-.02.789A.32.32,0,0,1,259.187,689.742Z" transform="translate(-258.867 -667.713)" fill="#7d97f4"/>
          <path id="Trazado_205912" data-name="Trazado 205912" d="M260.136,573.066l-.038,0a.32.32,0,0,1-.281-.355c.061-.52.142-1.046.241-1.562a.32.32,0,1,1,.629.121c-.1.5-.175,1.011-.234,1.516A.321.321,0,0,1,260.136,573.066Zm.586-3.057a.32.32,0,0,1-.31-.4c.136-.506.292-1.015.464-1.51a.32.32,0,1,1,.605.21c-.167.481-.318.975-.45,1.467A.32.32,0,0,1,260.721,570.009Zm1.018-2.941a.315.315,0,0,1-.126-.026.32.32,0,0,1-.169-.421c.207-.483.433-.964.674-1.429a.32.32,0,0,1,.569.294c-.233.452-.453.918-.654,1.388A.321.321,0,0,1,261.739,567.068Zm1.427-2.764a.32.32,0,0,1-.273-.488c.274-.449.568-.892.873-1.318a.321.321,0,0,1,.521.374c-.3.413-.581.843-.847,1.278A.32.32,0,0,1,263.166,564.3Zm1.813-2.53a.32.32,0,0,1-.246-.526c.336-.4.691-.8,1.055-1.176a.32.32,0,1,1,.461.445c-.354.367-.7.751-1.024,1.142A.32.32,0,0,1,264.979,561.774Zm31.8-1.4a.32.32,0,0,1-.227-.094c-.36-.362-.736-.715-1.12-1.049a.32.32,0,1,1,.421-.483c.4.344.783.707,1.154,1.08a.32.32,0,0,1-.227.546Zm-29.64-.844a.32.32,0,0,1-.214-.559c.391-.35.8-.69,1.214-1.011a.32.32,0,0,1,.392.507c-.4.312-.8.642-1.179.982A.319.319,0,0,1,267.14,559.534Zm27.291-1.2a.319.319,0,0,1-.192-.064c-.407-.305-.831-.6-1.26-.875a.32.32,0,0,1,.346-.539c.442.284.879.587,1.3.9a.32.32,0,0,1-.193.577Zm-24.829-.7a.32.32,0,0,1-.177-.587c.437-.29.89-.568,1.347-.826a.321.321,0,0,1,.315.558c-.444.251-.884.52-1.308.8A.317.317,0,0,1,269.6,557.631Zm22.209-.976a.319.319,0,0,1-.152-.039c-.448-.243-.91-.473-1.374-.683a.321.321,0,0,1,.265-.584c.478.217.954.454,1.415.7a.32.32,0,0,1-.153.6Zm-19.5-.553a.32.32,0,0,1-.137-.61c.472-.223.961-.433,1.452-.624a.32.32,0,1,1,.232.6c-.477.185-.951.389-1.41.606A.316.316,0,0,1,272.313,556.1Zm16.664-.733a.317.317,0,0,1-.111-.02c-.48-.177-.97-.339-1.457-.48a.32.32,0,1,1,.179-.615c.5.145,1.007.312,1.5.495a.32.32,0,0,1-.111.621Zm-13.763-.392a.32.32,0,0,1-.094-.627c.5-.154,1.016-.292,1.526-.409a.32.32,0,1,1,.144.624c-.5.114-.994.247-1.482.4A.316.316,0,0,1,275.214,554.977Zm10.774-.476a.315.315,0,0,1-.067-.007c-.5-.106-1.007-.2-1.511-.266a.32.32,0,1,1,.088-.635c.519.072,1.042.164,1.556.274a.32.32,0,0,1-.066.634Zm-7.741-.221a.32.32,0,0,1-.048-.637c.518-.08,1.046-.142,1.569-.185a.321.321,0,0,1,.052.639c-.508.041-1.02.1-1.523.179A.346.346,0,0,1,278.247,554.28Zm4.659-.206h-.021c-.454-.029-.914-.044-1.366-.044h-.17a.32.32,0,0,1,0-.641h.17c.467,0,.941.015,1.409.046a.32.32,0,0,1-.02.64Z" transform="translate(-259.67 -553.388)" fill="#7d97f4"/>
          <path id="Trazado_205913" data-name="Trazado 205913" d="M507.759,603.818a.32.32,0,0,1-.251-.121q-.245-.308-.5-.608a.32.32,0,1,1,.487-.417q.265.308.517.627a.32.32,0,0,1-.251.519Z" transform="translate(-469.073 -595.055)" fill="#7d97f4"/>
        </g>
        <g id="Grupo_153143" data-name="Grupo 153143" transform="translate(4.083 23.481)">
          <path id="Trazado_205914" data-name="Trazado 205914" d="M540.131,708.689l-.042,0a.32.32,0,0,1-.277-.359q.051-.392.087-.783a.32.32,0,1,1,.638.058q-.037.4-.089.808A.321.321,0,0,1,540.131,708.689Z" transform="translate(-501.019 -707.252)" fill="#7d97f4"/>
          <path id="Trazado_205915" data-name="Trazado 205915" d="M311.935,740.814c-.535,0-1.071-.02-1.6-.059a.32.32,0,0,1,.047-.639c.512.038,1.032.057,1.548.057h.058a.32.32,0,0,1,0,.641h-.055Zm1.684-.067a.32.32,0,0,1-.025-.64c.532-.042,1.069-.1,1.6-.187a.321.321,0,0,1,.1.633c-.543.085-1.1.15-1.644.193Zm-4.879-.173a.369.369,0,0,1-.048,0c-.542-.082-1.089-.186-1.626-.309a.32.32,0,0,1,.143-.625c.521.12,1.052.22,1.578.3a.321.321,0,0,1-.047.637Zm8.1-.33a.32.32,0,0,1-.073-.632c.517-.121,1.038-.265,1.549-.426a.32.32,0,0,1,.193.611c-.526.166-1.063.314-1.6.439A.336.336,0,0,1,316.839,740.243Zm-11.276-.4a.32.32,0,0,1-.1-.014c-.414-.129-.833-.273-1.244-.428l-.318-.122a.321.321,0,0,1,.235-.6q.154.061.309.12c.4.151.805.29,1.207.415a.32.32,0,0,1-.095.626Zm14.385-.584a.32.32,0,0,1-.119-.618c.495-.2.988-.419,1.467-.654a.32.32,0,1,1,.283.575c-.494.243-1,.469-1.512.674A.316.316,0,0,1,319.948,739.26Zm-17.418-.614a.324.324,0,0,1-.14-.032c-.5-.241-.989-.5-1.462-.778a.32.32,0,0,1,.323-.554c.459.267.936.521,1.419.755a.321.321,0,0,1-.14.609Zm20.343-.824a.32.32,0,0,1-.163-.6c.458-.27.913-.562,1.352-.867a.32.32,0,1,1,.366.526c-.453.315-.921.616-1.393.894A.319.319,0,0,1,322.873,737.822Zm-23.161-.816a.319.319,0,0,1-.181-.057c-.452-.311-.9-.644-1.327-.99a.32.32,0,1,1,.4-.5c.416.336.849.659,1.288.962a.32.32,0,0,1-.182.584Zm25.836-1.046a.32.32,0,0,1-.2-.569c.415-.339.821-.7,1.206-1.061a.32.32,0,1,1,.441.464c-.4.377-.815.745-1.242,1.094A.319.319,0,0,1,325.548,735.96Zm-28.372-1a.319.319,0,0,1-.22-.087c-.4-.377-.791-.775-1.161-1.181a.32.32,0,0,1,.474-.431c.359.394.738.779,1.126,1.146a.321.321,0,0,1-.22.554Zm30.735-1.243a.32.32,0,0,1-.238-.535c.358-.4.705-.811,1.031-1.233a.321.321,0,0,1,.507.392c-.336.434-.693.861-1.062,1.27A.32.32,0,0,1,327.911,733.714Zm1.994-2.578a.32.32,0,0,1-.267-.5c.293-.445.573-.908.831-1.375a.32.32,0,1,1,.561.31c-.266.481-.555.958-.856,1.417A.32.32,0,0,1,329.9,731.136Zm1.58-2.851a.32.32,0,0,1-.291-.454c.206-.45.4-.914.576-1.38l.039-.1a.321.321,0,1,1,.6.223l-.04.106c-.181.481-.381.959-.594,1.422A.32.32,0,0,1,331.484,728.286Zm1.135-3.055a.329.329,0,0,1-.089-.013.321.321,0,0,1-.219-.4c.148-.513.278-1.037.387-1.56a.32.32,0,1,1,.627.131c-.112.538-.246,1.079-.4,1.607A.321.321,0,0,1,332.62,725.23Z" transform="translate(-294.172 -720.602)" fill="#7d97f4"/>
          <path id="Trazado_205916" data-name="Trazado 205916" d="M286.424,778.346a.319.319,0,0,1-.253-.123q-.25-.32-.488-.65a.32.32,0,0,1,.52-.375q.231.319.473.631a.32.32,0,0,1-.252.518Z" transform="translate(-285.623 -766.411)" fill="#7d97f4"/>
        </g>
        <g id="Grupo_153145" data-name="Grupo 153145" transform="translate(5.871 5.651)">
          <path id="Trazado_205917" data-name="Trazado 205917" d="M298.8,614.53a.259.259,0,0,0,.254.159l3.138-.191a13.7,13.7,0,0,0,3.136,3.138l-.19,3.136a.258.258,0,0,0,.159.254l3.484,1.443a.258.258,0,0,0,.292-.067l2.083-2.352a13.7,13.7,0,0,0,4.437,0l2.084,2.353a.258.258,0,0,0,.292.067l3.484-1.443a.258.258,0,0,0,.159-.254l-.19-3.138a13.691,13.691,0,0,0,3.138-3.136l3.136.19a.258.258,0,0,0,.254-.159l1.443-3.484a.258.258,0,0,0-.068-.292l-2.352-2.083a13.687,13.687,0,0,0,0-4.437l2.354-2.084a.259.259,0,0,0,.067-.292l-1.443-3.484a.258.258,0,0,0-.254-.159l-3.138.191a13.689,13.689,0,0,0-3.136-3.138l.19-3.136a.258.258,0,0,0-.159-.254l-3.484-1.443a.258.258,0,0,0-.292.067l-2.083,2.352a13.69,13.69,0,0,0-4.437,0l-2.084-2.354a.258.258,0,0,0-.292-.067l-3.484,1.443a.258.258,0,0,0-.159.254l.19,3.138a13.693,13.693,0,0,0-3.138,3.136l-3.136-.19a.258.258,0,0,0-.254.159l-1.443,3.484a.258.258,0,0,0,.067.292l2.352,2.083a13.7,13.7,0,0,0,0,4.437l-2.354,2.084a.258.258,0,0,0-.067.292Z" transform="translate(-297.339 -590.415)" fill="#8bdae6" opacity="0.8"/>
          <g id="Grupo_153144" data-name="Grupo 153144" transform="translate(12.368 12.368)">
            <path id="Trazado_205918" data-name="Trazado 205918" d="M382.057,678.8a3.7,3.7,0,0,1-.534-.039h0a3.667,3.667,0,1,1,.534.039Zm-.441-.673a3.028,3.028,0,1,0-2.557-3.435,3.032,3.032,0,0,0,2.557,3.435Z" transform="translate(-378.386 -671.458)" fill="#0ab1cb"/>
          </g>
          <path id="Trazado_205919" data-name="Trazado 205919" d="M350.571,652.377a9.364,9.364,0,0,1-3.592-.717,9.472,9.472,0,0,1-1.645-.879l-.116-.079a.32.32,0,1,1,.364-.527,8.863,8.863,0,0,0,1.642.893A8.788,8.788,0,0,0,358.6,646.53l.033-.075c.02-.045.04-.091.059-.138a8.78,8.78,0,1,0-16.8-2.078.339.339,0,0,1,0,.048.32.32,0,0,1-.637.046,9.321,9.321,0,0,1-.1-1.374,9.42,9.42,0,1,1,9.408,9.418Z" transform="translate(-334.475 -626.957)" fill="#0ab1cb"/>
        </g>
      </g>
      <g id="Grupo_153151" data-name="Grupo 153151" transform="translate(193.623 22.669)">
        <g id="Grupo_153147" data-name="Grupo 153147" transform="translate(0)">
          <path id="Trazado_205920" data-name="Trazado 205920" d="M1528.436,551.269h-.005a.8.8,0,0,1-.8-.806c0-.435.014-.876.034-1.312a.8.8,0,0,1,1.6.072c-.019.415-.03.835-.032,1.25A.8.8,0,0,1,1528.436,551.269Z" transform="translate(-1527.635 -516.653)" fill="#91b3fa"/>
          <path id="Trazado_205921" data-name="Trazado 205921" d="M1531.664,369.586a.809.809,0,0,1-.139-.012.8.8,0,0,1-.651-.927c.152-.871.341-1.747.561-2.6a.8.8,0,0,1,1.552.4c-.21.816-.39,1.65-.535,2.48A.8.8,0,0,1,1531.664,369.586Zm1.853-6.557a.8.8,0,0,1-.745-1.1c.326-.823.687-1.642,1.074-2.434a.8.8,0,0,1,1.44.7c-.369.755-.713,1.536-1.024,2.321A.8.8,0,0,1,1533.516,363.029Zm3.138-6.046a.8.8,0,0,1-.669-1.241c.487-.74,1.008-1.469,1.55-2.165a.8.8,0,0,1,1.265.983c-.515.663-1.012,1.357-1.476,2.062A.8.8,0,0,1,1536.655,356.983Zm4.313-5.276a.8.8,0,0,1-.564-1.369c.626-.622,1.285-1.228,1.96-1.8a.8.8,0,1,1,1.037,1.222c-.643.546-1.272,1.123-1.868,1.716A.8.8,0,0,1,1540.967,351.707Zm45.684-1.155a.8.8,0,0,1-.535-.206c-.627-.564-1.284-1.11-1.951-1.621a.8.8,0,0,1,.974-1.272c.7.537,1.39,1.109,2.048,1.7a.8.8,0,0,1-.536,1.4Zm-40.382-3.127a.8.8,0,0,1-.437-1.473c.741-.482,1.511-.941,2.286-1.364a.8.8,0,1,1,.766,1.407c-.739.4-1.472.84-2.179,1.3A.8.8,0,0,1,1546.269,347.425Zm34.873-.883a.8.8,0,0,1-.4-.108c-.726-.422-1.481-.821-2.242-1.187a.8.8,0,0,1,.694-1.444c.8.384,1.591.8,2.353,1.246a.8.8,0,0,1-.4,1.494Zm-28.813-2.23a.8.8,0,0,1-.292-1.547c.823-.322,1.67-.615,2.515-.872a.8.8,0,0,1,.465,1.533c-.806.245-1.612.524-2.4.831A.8.8,0,0,1,1552.328,344.312Zm22.6-.571a.8.8,0,0,1-.254-.042c-.8-.267-1.619-.506-2.435-.71a.8.8,0,0,1,.388-1.554c.857.214,1.716.465,2.555.745a.8.8,0,0,1-.254,1.561Zm-16.039-1.248a.8.8,0,0,1-.133-1.591c.87-.147,1.758-.262,2.64-.342a.8.8,0,0,1,.143,1.6c-.84.076-1.687.185-2.515.326A.783.783,0,0,1,1558.892,342.492Zm9.392-.24a.842.842,0,0,1-.095-.005c-.833-.1-1.684-.165-2.528-.2a.8.8,0,0,1,.062-1.6c.886.034,1.78.1,2.655.208a.8.8,0,0,1-.093,1.6Z" transform="translate(-1530.369 -340.447)" fill="#91b3fa"/>
          <path id="Trazado_205922" data-name="Trazado 205922" d="M1912.224,418.616a.8.8,0,0,1-.628-.3c-.255-.322-.523-.646-.8-.963a.8.8,0,1,1,1.215-1.044c.286.333.567.673.836,1.012a.8.8,0,0,1-.627,1.3Z" transform="translate(-1852.162 -404.493)" fill="#91b3fa"/>
        </g>
        <g id="Grupo_153148" data-name="Grupo 153148" transform="translate(6.307 36.245)">
          <path id="Trazado_205923" data-name="Trazado 205923" d="M1962.347,580.826a.8.8,0,0,1-.8-.905c.054-.411.1-.829.138-1.242a.8.8,0,0,1,1.6.146c-.04.434-.089.872-.146,1.3A.8.8,0,0,1,1962.347,580.826Z" transform="translate(-1901.635 -577.951)" fill="#e9effe"/>
          <path id="Trazado_205924" data-name="Trazado 205924" d="M1617.259,639.485a.8.8,0,0,1-.022-1.6c.829-.023,1.666-.078,2.49-.165a.8.8,0,0,1,.168,1.593c-.865.091-1.744.15-2.614.173Zm-4.15-.147q-.04,0-.08,0c-.863-.085-1.736-.206-2.6-.358a.8.8,0,0,1,.28-1.578c.818.145,1.65.26,2.472.341a.8.8,0,0,1-.077,1.6Zm10.8-.715a.8.8,0,0,1-.182-1.581c.8-.188,1.613-.41,2.406-.662a.8.8,0,0,1,.484,1.528c-.832.263-1.682.5-2.526.694A.793.793,0,0,1,1623.906,638.623Zm-17.368-.615a.8.8,0,0,1-.238-.036c-.658-.2-1.319-.431-1.963-.674q-.255-.1-.507-.2a.8.8,0,1,1,.59-1.489q.24.1.483.187c.615.232,1.245.448,1.873.643a.8.8,0,0,1-.237,1.566Zm23.71-1.56a.8.8,0,0,1-.335-1.529c.754-.347,1.5-.727,2.226-1.129a.8.8,0,1,1,.779,1.4c-.759.422-1.545.821-2.336,1.185A.8.8,0,0,1,1630.248,636.447Zm-29.886-1.054a.8.8,0,0,1-.384-.1c-.764-.418-1.521-.871-2.248-1.346a.8.8,0,1,1,.875-1.342c.693.452,1.414.883,2.142,1.282a.8.8,0,0,1-.385,1.5Zm35.666-2.345a.8.8,0,0,1-.474-1.447c.671-.492,1.329-1.013,1.955-1.551a.8.8,0,0,1,1.043,1.215c-.658.565-1.348,1.113-2.052,1.628A.8.8,0,0,1,1636.027,633.048Zm-41.191-1.452a.8.8,0,0,1-.518-.19c-.663-.563-1.313-1.159-1.93-1.772a.8.8,0,1,1,1.128-1.137c.588.583,1.207,1.151,1.839,1.688a.8.8,0,0,1-.519,1.411Zm46.171-3.037a.8.8,0,0,1-.593-1.339c.555-.613,1.094-1.256,1.6-1.913a.8.8,0,0,1,1.267.98c-.533.689-1.1,1.365-1.682,2.009A.8.8,0,0,1,1641.007,628.559Zm3.972-5.4a.8.8,0,0,1-.689-1.207c.42-.713.818-1.452,1.183-2.2a.8.8,0,1,1,1.439.7c-.383.782-.8,1.558-1.241,2.306A.8.8,0,0,1,1644.979,623.157Zm2.806-6.088a.8.8,0,0,1-.757-1.063c.271-.785.514-1.589.724-2.39a.8.8,0,1,1,1.55.405c-.219.839-.475,1.683-.759,2.507A.8.8,0,0,1,1647.785,617.068Z" transform="translate(-1588.612 -607.666)" fill="#e9effe"/>
          <path id="Trazado_205925" data-name="Trazado 205925" d="M1570.534,688.413a.8.8,0,0,1-.632-.308c-.27-.346-.535-.7-.788-1.049a.8.8,0,0,1,1.3-.937c.24.334.493.67.751,1a.8.8,0,0,1-.63,1.294Z" transform="translate(-1568.964 -669.33)" fill="#e9effe"/>
        </g>
        <g id="Grupo_153150" data-name="Grupo 153150" transform="translate(9.375 9.01)">
          <path id="Trazado_205926" data-name="Trazado 205926" d="M1591.326,436.739a.4.4,0,0,0,.393.246l4.847-.294a21.148,21.148,0,0,0,4.844,4.848l-.294,4.844a.4.4,0,0,0,.245.393l5.381,2.229a.4.4,0,0,0,.451-.1l3.217-3.633a21.155,21.155,0,0,0,6.853,0l3.219,3.635a.4.4,0,0,0,.451.1l5.381-2.229a.4.4,0,0,0,.245-.393l-.294-4.847a21.148,21.148,0,0,0,4.848-4.844l4.844.294a.4.4,0,0,0,.393-.246l2.229-5.381a.4.4,0,0,0-.1-.451l-3.633-3.217a21.146,21.146,0,0,0,0-6.853l3.635-3.219a.4.4,0,0,0,.1-.451l-2.229-5.381a.4.4,0,0,0-.393-.246l-4.847.294a21.149,21.149,0,0,0-4.844-4.847l.294-4.844a.4.4,0,0,0-.245-.393l-5.381-2.229a.4.4,0,0,0-.451.1l-3.217,3.633a21.15,21.15,0,0,0-6.853,0l-3.219-3.635a.4.4,0,0,0-.452-.1l-5.381,2.229a.4.4,0,0,0-.245.393l.294,4.847a21.151,21.151,0,0,0-4.848,4.844l-4.844-.294a.4.4,0,0,0-.393.246l-2.229,5.381a.4.4,0,0,0,.1.451l3.633,3.217a21.154,21.154,0,0,0,0,6.853l-3.635,3.219a.4.4,0,0,0-.1.451Z" transform="translate(-1589.067 -399.491)" fill="#c9e5d7"/>
          <g id="Grupo_153149" data-name="Grupo 153149" transform="translate(18.638 18.638)">
            <path id="Trazado_205927" data-name="Trazado 205927" d="M1717.334,533.888a6.133,6.133,0,1,1,.885-12.2,6.133,6.133,0,0,1-.885,12.2Zm-.007-10.344a4.219,4.219,0,1,0,.613.045A4.217,4.217,0,0,0,1717.328,523.543Z" transform="translate(-1711.197 -521.621)" fill="#0ab1cb"/>
          </g>
          <path id="Trazado_205928" data-name="Trazado 205928" d="M1672.257,496a14.3,14.3,0,0,1-5.482-1.094q-.482-.2-.949-.434a14.477,14.477,0,0,1-1.347-.767l-.008-.005-.015-.01-.117-.076q-.128-.084-.253-.171a.32.32,0,0,1-.138-.264.317.317,0,0,1,.057-.182.32.32,0,0,1,.446-.081,13.814,13.814,0,0,0,2.569,1.4h0a13.748,13.748,0,0,0,17.934-7.409l.01-.023a13.736,13.736,0,1,0-26.277-3.252.349.349,0,0,1,0,.048.32.32,0,0,1-.637.046,14.376,14.376,0,1,1,14.2,12.276Z" transform="translate(-1647.395 -456.907)" fill="#0ab1cb"/>
        </g>
      </g>
      <g id="Grupo_153157" data-name="Grupo 153157" transform="translate(251.001 15.508)">
        <g id="Grupo_153152" data-name="Grupo 153152" transform="translate(0)">
          <path id="Trazado_205929" data-name="Trazado 205929" d="M1904.423,403.7h-.005a.8.8,0,0,1-.8-.806c0-.445.022-.9.057-1.338a.8.8,0,0,1,1.6.126c-.032.4-.05.815-.052,1.222A.8.8,0,0,1,1904.423,403.7Z" transform="translate(-1903.622 -384.446)" fill="#91b3fa"/>
          <path id="Trazado_205930" data-name="Trazado 205930" d="M1909.5,307.706a.8.8,0,0,1-.767-1.035c.118-.388.252-.779.4-1.16s.31-.783.484-1.163a.8.8,0,1,1,1.458.664c-.158.348-.307.706-.442,1.064s-.254.707-.362,1.061A.8.8,0,0,1,1909.5,307.706Zm2.812-5.544a.8.8,0,0,1-.639-1.283A18.608,18.608,0,0,1,1913.3,299a.8.8,0,1,1,1.14,1.126,17.027,17.027,0,0,0-1.484,1.719A.8.8,0,0,1,1912.31,302.162Zm24.459-3.9a.8.8,0,0,1-.457-.144,17.111,17.111,0,0,0-1.947-1.17.8.8,0,1,1,.732-1.425,18.63,18.63,0,0,1,2.13,1.28.8.8,0,0,1-.458,1.458Zm-19.908-.333a.8.8,0,0,1-.436-1.474,18.778,18.778,0,0,1,2.171-1.209.8.8,0,1,1,.685,1.448,17.187,17.187,0,0,0-1.985,1.105A.8.8,0,0,1,1916.861,297.926Zm14.266-2.277a.793.793,0,0,1-.206-.027,17.015,17.015,0,0,0-2.229-.436.8.8,0,1,1,.2-1.589,18.644,18.644,0,0,1,2.44.477.8.8,0,0,1-.205,1.576Zm-8.543-.144a.8.8,0,0,1-.179-1.582,18.694,18.694,0,0,1,2.453-.394.8.8,0,0,1,.148,1.6,17.1,17.1,0,0,0-2.242.36A.8.8,0,0,1,1922.584,295.5Z" transform="translate(-1907.922 -293.524)" fill="#91b3fa"/>
          <path id="Trazado_205931" data-name="Trazado 205931" d="M2108.176,333.341a.8.8,0,0,1-.627-.3c-.253-.318-.52-.631-.8-.931a.8.8,0,1,1,1.18-1.083c.3.327.593.669.87,1.017a.8.8,0,0,1-.627,1.3Z" transform="translate(-2075.575 -325.082)" fill="#91b3fa"/>
        </g>
        <g id="Grupo_153153" data-name="Grupo 153153" transform="translate(3.384 19.386)">
          <path id="Trazado_205932" data-name="Trazado 205932" d="M2136.693,423.43a.817.817,0,0,1-.132-.011.8.8,0,0,1-.659-.921c.066-.4.118-.81.156-1.213a.8.8,0,0,1,1.6.146c-.041.442-.1.89-.171,1.329A.8.8,0,0,1,2136.693,423.43Z" transform="translate(-2103.829 -420.556)" fill="#91b3fa"/>
          <path id="Trazado_205933" data-name="Trazado 205933" d="M1962.609,469.21l-.049,0a18.663,18.663,0,0,1-2.851-.4.8.8,0,0,1,.343-1.565,17.036,17.036,0,0,0,2.606.364.8.8,0,0,1-.048,1.6Zm4.458-.293a.8.8,0,0,1-.151-1.587,17.081,17.081,0,0,0,2.536-.7.8.8,0,0,1,.543,1.508,18.7,18.7,0,0,1-2.775.763A.808.808,0,0,1,1967.066,468.918Zm-11.4-1.583a.8.8,0,0,1-.359-.085,18.652,18.652,0,0,1-2.466-1.487.8.8,0,0,1,.931-1.3,16.982,16.982,0,0,0,2.253,1.358.8.8,0,0,1-.36,1.517Zm18.042-1.174a.8.8,0,0,1-.45-1.464,17.092,17.092,0,0,0,2.058-1.64.8.8,0,1,1,1.092,1.172,18.68,18.68,0,0,1-2.252,1.794A.8.8,0,0,1,1973.708,466.161Zm5.012-5.152a.8.8,0,0,1-.674-1.232,17.107,17.107,0,0,0,1.239-2.321.8.8,0,1,1,1.467.643,18.683,18.683,0,0,1-1.356,2.539A.8.8,0,0,1,1978.72,461.009Z" transform="translate(-1948.431 -451.419)" fill="#91b3fa"/>
          <path id="Trazado_205934" data-name="Trazado 205934" d="M1927.386,481.042a.8.8,0,0,1-.615-.287c-.285-.341-.562-.7-.822-1.057a.8.8,0,0,1,1.3-.937c.237.329.49.654.751.966a.8.8,0,0,1-.614,1.315Z" transform="translate(-1925.799 -469.597)" fill="#91b3fa"/>
        </g>
        <g id="Grupo_153156" data-name="Grupo 153156" transform="translate(5.402 5.144)">
          <g id="Grupo_153154" data-name="Grupo 153154">
            <path id="Trazado_205935" data-name="Trazado 205935" d="M1940.231,347.22a.214.214,0,0,0,.211.132l2.6-.158a11.352,11.352,0,0,0,2.6,2.6l-.158,2.6a.214.214,0,0,0,.132.211l2.887,1.2a.214.214,0,0,0,.242-.056l1.726-1.949a11.352,11.352,0,0,0,3.677,0l1.727,1.951a.214.214,0,0,0,.242.056l2.887-1.2a.214.214,0,0,0,.132-.211l-.158-2.6a11.342,11.342,0,0,0,2.6-2.6l2.6.158a.215.215,0,0,0,.211-.132l1.2-2.887a.214.214,0,0,0-.056-.242l-1.949-1.726a11.353,11.353,0,0,0,0-3.677l1.951-1.727a.214.214,0,0,0,.056-.242l-1.2-2.887a.214.214,0,0,0-.211-.132l-2.6.158a11.349,11.349,0,0,0-2.6-2.6l.158-2.6a.214.214,0,0,0-.132-.211l-2.887-1.2a.213.213,0,0,0-.242.056l-1.726,1.949a11.348,11.348,0,0,0-3.677,0l-1.727-1.951a.214.214,0,0,0-.242-.056l-2.887,1.2a.214.214,0,0,0-.132.211l.158,2.6a11.35,11.35,0,0,0-2.6,2.6l-2.6-.158a.214.214,0,0,0-.21.132l-1.2,2.887a.214.214,0,0,0,.056.242l1.949,1.726a11.352,11.352,0,0,0,0,3.677l-1.951,1.728a.214.214,0,0,0-.056.242Z" transform="translate(-1939.019 -327.232)" fill="#7d97f4"/>
          </g>
          <g id="Grupo_153155" data-name="Grupo 153155" transform="translate(9.555 9.556)">
            <path id="Trazado_205936" data-name="Trazado 205936" d="M2005.378,397.323a3.771,3.771,0,0,1-.549-.04h0a3.722,3.722,0,1,1,.549.04Zm-.009-5.551a1.814,1.814,0,0,0-.262,3.609h0a1.814,1.814,0,1,0,.261-3.609Z" transform="translate(-2001.633 -389.85)" fill="#bdd0fb"/>
          </g>
          <path id="Trazado_205937" data-name="Trazado 205937" d="M1982.845,378.322a7.852,7.852,0,0,1-3.009-.6h0c-.085-.035-.169-.072-.253-.11a7.911,7.911,0,0,1-1.049-.577q-.085-.055-.168-.113a.32.32,0,1,1,.365-.527,7.254,7.254,0,0,0,1.351.735h0q.138.057.278.109a7.172,7.172,0,0,0,3.561.364h0a7.252,7.252,0,0,0,1.685-.472,7.223,7.223,0,1,0-9.908-5.618.3.3,0,0,1,0,.047.32.32,0,0,1-.637.047,7.853,7.853,0,1,1,7.779,6.719Z" transform="translate(-1969.494 -357.193)" fill="#bdd0fb"/>
        </g>
      </g>
      <g id="Grupo_153162" data-name="Grupo 153162" transform="translate(109.036 11.033)">
        <g id="Grupo_153158" data-name="Grupo 153158">
          <path id="Trazado_205938" data-name="Trazado 205938" d="M973.675,362.459h0a.32.32,0,0,1-.318-.323q0-.407.026-.816a.32.32,0,0,1,.64.037q-.023.392-.025.784A.32.32,0,0,1,973.675,362.459Z" transform="translate(-973.355 -346.243)" fill="#e9effe"/>
          <path id="Trazado_205939" data-name="Trazado 205939" d="M974.994,278.014a.315.315,0,0,1-.052,0,.32.32,0,0,1-.265-.368,16,16,0,0,1,.346-1.6.32.32,0,1,1,.619.167,15.418,15.418,0,0,0-.332,1.54A.32.32,0,0,1,974.994,278.014Zm.836-3.1a.32.32,0,0,1-.3-.435,16.206,16.206,0,0,1,.663-1.5.32.32,0,1,1,.572.288,15.7,15.7,0,0,0-.636,1.442A.32.32,0,0,1,975.83,274.913Zm1.445-2.867a.32.32,0,0,1-.269-.493,15.919,15.919,0,0,1,.955-1.335.32.32,0,1,1,.5.4,15.388,15.388,0,0,0-.917,1.281A.32.32,0,0,1,977.275,272.046Zm2-2.513a.32.32,0,0,1-.228-.545,15.938,15.938,0,0,1,1.209-1.111.32.32,0,1,1,.409.494,15.339,15.339,0,0,0-1.16,1.065A.317.317,0,0,1,979.278,269.534Zm21.812-.559a.319.319,0,0,1-.217-.085,15.36,15.36,0,0,0-1.212-1.005.32.32,0,1,1,.383-.514,15.889,15.889,0,0,1,1.263,1.048.32.32,0,0,1-.217.556Zm-19.337-1.49a.32.32,0,0,1-.178-.587,16.068,16.068,0,0,1,1.409-.841.32.32,0,0,1,.3.566,15.539,15.539,0,0,0-1.353.807A.319.319,0,0,1,981.752,267.485Zm16.762-.43a.318.318,0,0,1-.164-.045,15.351,15.351,0,0,0-1.392-.736.321.321,0,0,1,.27-.581,16.158,16.158,0,0,1,1.451.767.321.321,0,0,1-.165.6Zm-13.924-1.073a.32.32,0,0,1-.121-.617,16.073,16.073,0,0,1,1.55-.537.32.32,0,1,1,.179.615,15.538,15.538,0,0,0-1.488.516A.319.319,0,0,1,984.591,265.982ZM995.6,265.7a.324.324,0,0,1-.1-.018,15.447,15.447,0,0,0-1.512-.44.321.321,0,0,1,.147-.624,16.247,16.247,0,0,1,1.575.458.321.321,0,0,1-.1.623Zm-7.929-.614a.32.32,0,0,1-.057-.636,16.144,16.144,0,0,1,1.626-.211.32.32,0,1,1,.05.639,15.5,15.5,0,0,0-1.561.2A.3.3,0,0,1,987.673,265.087Zm4.8-.125-.041,0a15.4,15.4,0,0,0-1.57-.122.32.32,0,0,1-.312-.329.314.314,0,0,1,.329-.312,16.075,16.075,0,0,1,1.636.127.321.321,0,0,1-.041.638Z" transform="translate(-974.472 -264.196)" fill="#e9effe"/>
          <path id="Trazado_205940" data-name="Trazado 205940" d="M1153.948,300.164a.319.319,0,0,1-.251-.121q-.244-.307-.5-.6a.32.32,0,0,1,.481-.424q.27.307.524.626a.32.32,0,0,1-.251.52Z" transform="translate(-1125.682 -293.612)" fill="#e9effe"/>
        </g>
        <g id="Grupo_153159" data-name="Grupo 153159" transform="translate(2.974 17.099)">
          <path id="Trazado_205941" data-name="Trazado 205941" d="M1178.127,377.68a.338.338,0,0,1-.046,0,.321.321,0,0,1-.271-.363q.056-.39.092-.779a.32.32,0,1,1,.638.059q-.037.4-.1.812A.32.32,0,0,1,1178.127,377.68Z" transform="translate(-1149.58 -376.243)" fill="#e9effe"/>
          <path id="Trazado_205942" data-name="Trazado 205942" d="M1014.694,404.177a.32.32,0,0,1-.005-.641,15.437,15.437,0,0,0,1.546-.1.32.32,0,0,1,.075.636,16.031,16.031,0,0,1-1.61.107Zm-1.581-.056h-.028a15.935,15.935,0,0,1-1.6-.22.32.32,0,0,1,.12-.63,15.341,15.341,0,0,0,1.535.212.32.32,0,0,1-.027.64Zm4.717-.314a.32.32,0,0,1-.069-.633,15.371,15.371,0,0,0,1.493-.411.32.32,0,1,1,.2.608,16.114,16.114,0,0,1-1.556.428A.341.341,0,0,1,1017.83,403.807Zm-7.821-.275a.322.322,0,0,1-.091-.013c-.371-.111-.746-.237-1.115-.375q-.206-.077-.407-.16a.32.32,0,1,1,.242-.593q.194.079.391.154c.354.133.714.254,1.071.36a.321.321,0,0,1-.091.628Zm10.821-.715a.32.32,0,0,1-.131-.613,15.466,15.466,0,0,0,1.382-.7.32.32,0,0,1,.318.556,16.1,16.1,0,0,1-1.439.73A.316.316,0,0,1,1020.83,402.817Zm-13.748-.479a.319.319,0,0,1-.15-.037,15.993,15.993,0,0,1-1.386-.828.32.32,0,1,1,.356-.533,15.3,15.3,0,0,0,1.33.794.32.32,0,0,1-.151.6Zm16.49-1.09a.32.32,0,0,1-.187-.581,15.451,15.451,0,0,0,1.214-.963.32.32,0,1,1,.423.481,16.018,16.018,0,0,1-1.265,1A.318.318,0,0,1,1023.573,401.248Zm-19.117-.667a.319.319,0,0,1-.2-.074,16.008,16.008,0,0,1-1.19-1.091.32.32,0,1,1,.456-.45,15.357,15.357,0,0,0,1.142,1.047.32.32,0,0,1-.2.567Zm21.49-1.421a.321.321,0,0,1-.235-.539,15.218,15.218,0,0,0,1-1.188.32.32,0,0,1,.511.386,15.929,15.929,0,0,1-1.037,1.238A.32.32,0,0,1,1025.946,399.161Zm1.9-2.523a.321.321,0,0,1-.274-.486c.266-.44.514-.9.735-1.364a.32.32,0,1,1,.579.275c-.23.484-.488.962-.765,1.421A.321.321,0,0,1,1027.85,396.638Zm1.357-2.853a.32.32,0,0,1-.3-.428c.174-.487.326-.987.45-1.483a.32.32,0,1,1,.622.154c-.129.518-.286,1.038-.468,1.545A.32.32,0,0,1,1029.208,393.785Z" transform="translate(-1001.424 -389.282)" fill="#e9effe"/>
          <path id="Trazado_205943" data-name="Trazado 205943" d="M993.65,428.377a.319.319,0,0,1-.25-.12q-.256-.319-.495-.65a.321.321,0,0,1,.519-.376c.153.212.311.42.475.624a.32.32,0,0,1-.25.521Z" transform="translate(-992.845 -419.338)" fill="#e9effe"/>
        </g>
        <g id="Grupo_153161" data-name="Grupo 153161" transform="translate(4.364 4.199)">
          <path id="Trazado_205944" data-name="Trazado 205944" d="M1003.015,309.274a.188.188,0,0,0,.185.116l2.286-.139a9.973,9.973,0,0,0,2.284,2.286l-.139,2.284a.188.188,0,0,0,.116.185l2.537,1.051a.188.188,0,0,0,.213-.049l1.517-1.713a9.981,9.981,0,0,0,3.232,0l1.518,1.714a.188.188,0,0,0,.213.049l2.537-1.051a.188.188,0,0,0,.116-.185l-.139-2.286a9.976,9.976,0,0,0,2.286-2.284l2.284.139a.189.189,0,0,0,.185-.116l1.051-2.538a.188.188,0,0,0-.049-.213l-1.713-1.517a9.971,9.971,0,0,0,0-3.232l1.715-1.518a.188.188,0,0,0,.049-.213l-1.051-2.538a.189.189,0,0,0-.185-.116l-2.286.139a9.967,9.967,0,0,0-2.284-2.286l.139-2.284a.188.188,0,0,0-.116-.185l-2.538-1.051a.188.188,0,0,0-.213.049l-1.517,1.713a9.972,9.972,0,0,0-3.232,0l-1.518-1.714a.188.188,0,0,0-.213-.049l-2.537,1.051a.188.188,0,0,0-.116.185l.139,2.286a9.975,9.975,0,0,0-2.286,2.284l-2.284-.139a.188.188,0,0,0-.185.116l-1.051,2.538a.188.188,0,0,0,.049.213l1.713,1.517a9.971,9.971,0,0,0,0,3.232l-1.714,1.518a.188.188,0,0,0-.049.213Z" transform="translate(-1001.949 -291.708)" fill="#c9e5d7"/>
          <g id="Grupo_153160" data-name="Grupo 153160" transform="translate(8.922 8.922)">
            <path id="Trazado_205945" data-name="Trazado 205945" d="M1063.175,355.692a2.787,2.787,0,0,1-.4-.029,2.758,2.758,0,1,1,.4.029Zm-.006-4.878a2.119,2.119,0,0,0-.3,4.215h0a2.118,2.118,0,1,0,.3-4.215Z" transform="translate(-1060.413 -350.173)" fill="#0ab1cb"/>
          </g>
          <path id="Trazado_205946" data-name="Trazado 205946" d="M1040.249,336.432a6.935,6.935,0,0,1-2.659-.533h0a7.017,7.017,0,0,1-1.16-.613l-.009-.006-.13-.088a.32.32,0,1,1,.365-.527,6.361,6.361,0,0,0,1.18.642h0a6.265,6.265,0,0,0,3.31.419h0a6.341,6.341,0,0,0,1.41-.376l.022-.009.052-.021.03-.012a6.31,6.31,0,1,0-8.655-4.907.328.328,0,0,1,0,.047.321.321,0,0,1-.638.047,6.94,6.94,0,1,1,6.875,5.938Z" transform="translate(-1028.516 -317.825)" fill="#0ab1cb"/>
        </g>
      </g>
    </g>
    <g id="Grupo_153170" data-name="Grupo 153170" transform="translate(397.286 217.348)">
      <g id="Grupo_153168" data-name="Grupo 153168" transform="translate(0 0)">
        <path id="Trazado_205947" data-name="Trazado 205947" d="M1994.693,1038.828s.264,1.5.394,2.977a1.021,1.021,0,0,1-.976,1.106c-1.972.082-6.192.242-7.706.175a.332.332,0,0,1-.292-.455h0a.741.741,0,0,1,.38-.4l6.969-3.2Z" transform="translate(-1971.447 -967.118)" fill="url(#linear-gradient-14)"/>
        <path id="Trazado_205948" data-name="Trazado 205948" d="M2031.3,1031.532l-.212,1.79a2.221,2.221,0,0,1-2.055-.072l.506-1.994Z" transform="translate(-2007.837 -960.701)" fill="url(#linear-gradient-15)"/>
        <path id="Trazado_205949" data-name="Trazado 205949" d="M2031.954,812.577c.092.467.492,23.323-1.951,33.566a.348.348,0,0,0,.2.4,6.058,6.058,0,0,0,1.99.4.6.6,0,0,0,.594-.43c.7-2.376,4.045-14.283,4.481-25.657.488-12.709,0-.433,0-.433l-.286-7.856Z" transform="translate(-2008.651 -775.393)" fill="url(#linear-gradient-16)"/>
        <path id="Trazado_205950" data-name="Trazado 205950" d="M2079.475,1043.943a10.772,10.772,0,0,1,.828,2.763.623.623,0,0,1-.548.745c-.651.064-1.654.146-2.457.141a.621.621,0,0,1-.614-.692,5.237,5.237,0,0,1,1.222-2.872Z" transform="translate(-2048.213 -971.452)" fill="url(#linear-gradient-17)"/>
        <path id="Trazado_205951" data-name="Trazado 205951" d="M2086.554,1028.274l-.5,2.707a1.75,1.75,0,0,1-1.461.1l.237-2.912Z" transform="translate(-2054.922 -958.085)" fill="url(#linear-gradient-18)"/>
        <path id="Trazado_205952" data-name="Trazado 205952" d="M2051.389,810.153c2,12.059-.433,29.8-1.253,33.278a.542.542,0,0,1-.437.411,3.637,3.637,0,0,1-1.563-.062.5.5,0,0,1-.357-.457c-.11-2.808.088-20.047-1.774-26.859a1.549,1.549,0,0,0-.6-.854l-3.614-2.569-.277-4.153Z" transform="translate(-2018.416 -772.268)" fill="url(#linear-gradient-19)"/>
        <g id="Grupo_153164" data-name="Grupo 153164" transform="translate(2.553 5.762)">
          <path id="Trazado_205953" data-name="Trazado 205953" d="M1974.775,662.015a56.291,56.291,0,0,1,12.6,1.572c1.785,10.415.312,22.428.312,22.428-4.636,1.216-9.865-.743-9.865-.743-.77-4.353-4.365-16.6-4.365-16.6a19.728,19.728,0,0,1-7.321-2.323,12.835,12.835,0,0,0,2.538-5.308A20.1,20.1,0,0,0,1974.775,662.015Z" transform="translate(-1957.087 -652.741)" fill="url(#linear-gradient-20)"/>
          <path id="Trazado_205954" data-name="Trazado 205954" d="M1906.871,607.134a1.146,1.146,0,0,1,1.333-.374c.881,3.722,5.5,6.74,10.248,8.216a12.839,12.839,0,0,1-2.538,5.308C1908.037,615.854,1906.871,607.134,1906.871,607.134Z" transform="translate(-1906.871 -606.68)" fill="url(#linear-gradient-21)"/>
        </g>
        <g id="Grupo_153165" data-name="Grupo 153165">
          <path id="Trazado_205955" data-name="Trazado 205955" d="M1892.838,575.322c-.062.2.651.494,1.071-.307a7.538,7.538,0,0,0,.019-2.339,30.626,30.626,0,0,0-3.587-3.75.563.563,0,0,0-.07.782l1.148,1.2a5.569,5.569,0,0,0-.67,1.325,1.609,1.609,0,0,0,.161,1.184c.2.363.476.835.736,1.2A1.588,1.588,0,0,0,1892.838,575.322Z" transform="translate(-1890.142 -568.926)" fill="url(#linear-gradient-22)"/>
          <path id="Trazado_205956" data-name="Trazado 205956" d="M1900.507,586.974l1.046.887.328.883-.933,1.035a12.039,12.039,0,0,0-.547-2.131C1900.169,587.268,1900.29,587.085,1900.507,586.974Z" transform="translate(-1898.729 -584.22)" fill="url(#linear-gradient-23)"/>
        </g>
        <path id="Trazado_205957" data-name="Trazado 205957" d="M2090.258,683.551l2.3-5.8s5.593,3.8,6.513,8.619a13.235,13.235,0,0,0-4.862,1.3C2093.792,685.4,2090.258,683.551,2090.258,683.551Z" transform="translate(-2059.719 -661.145)" fill="url(#linear-gradient-24)"/>
        <path id="Trazado_205958" data-name="Trazado 205958" d="M2053.614,736.865s6.28,3.549,8.4.519a2.383,2.383,0,0,0,.437-1.851,13.232,13.232,0,0,1,4.862-1.3,6.649,6.649,0,0,1-.723,4.559c-3.712,6.79-13.806-.375-13.806-.375Z" transform="translate(-2027.963 -709.003)" fill="url(#linear-gradient-25)"/>
        <g id="Grupo_153166" data-name="Grupo 153166" transform="translate(10.718 18.226)">
          <path id="Trazado_205959" data-name="Trazado 205959" d="M1976.061,708.938l-3.427-11.969a.349.349,0,0,0-.3-.251c-.621-.072-2.42-.276-4.5-.451a51.042,51.042,0,0,0-7.145-.237.35.35,0,0,0-.286.5c.987,2,5.05,10.125,7.083,12.787a.352.352,0,0,0,.283.139l7.952-.074A.35.35,0,0,0,1976.061,708.938Z" transform="translate(-1960.373 -694.813)" fill="#ff7d00"/>
          <path id="Trazado_205960" data-name="Trazado 205960" d="M1992.027,688.773l-2.485-.414a.179.179,0,0,0-.2.232l.246.745a.179.179,0,0,0,.146.121l2.391.319a.179.179,0,0,0,.2-.217l-.152-.651A.178.178,0,0,0,1992.027,688.773Z" transform="translate(-1984.914 -688.357)" fill="#91b3fa"/>
          <path id="Trazado_205961" data-name="Trazado 205961" d="M1987.452,695.012l-.2-1.066a.247.247,0,0,0-.217-.2l-5.019-.509a.246.246,0,0,0-.265.3l.319,1.329a.247.247,0,0,0,.227.189l4.9.247A.247.247,0,0,0,1987.452,695.012Z" transform="translate(-1978.479 -692.492)" fill="#91b3fa"/>
          <path id="Trazado_205962" data-name="Trazado 205962" d="M2034.229,739.312a8.717,8.717,0,0,0,.285-2.66c-.193-.7-.566-1.592-1.81-1.393a18.218,18.218,0,0,0-2.711.723.712.712,0,0,0,1.019.615l-.586.454s.084.726.882.338l-.545.6a.635.635,0,0,0,.93.214C2032.282,737.822,2032.563,739.548,2034.229,739.312Z" transform="translate(-2019.369 -728.078)" fill="url(#linear-gradient-26)"/>
        </g>
        <path id="Trazado_205963" data-name="Trazado 205963" d="M2040.985,635.595l1.905,5.51a.2.2,0,0,1-.09.239,4.479,4.479,0,0,1-4.646-.312.935.935,0,0,1-.43-.668l-.617-4.769Z" transform="translate(-2014.679 -625.421)" fill="url(#linear-gradient-27)"/>
        <g id="Grupo_153167" data-name="Grupo 153167" transform="translate(20.312 2.208)">
          <path id="Trazado_205964" data-name="Trazado 205964" d="M2025.093,602.159s-2.093,3.938-1.824,5.529,2.861,1.477,5.125.185l1.582-4.253Z" transform="translate(-2023.245 -599.295)" fill="url(#linear-gradient-28)"/>
          <path id="Trazado_205965" data-name="Trazado 205965" d="M2032.607,589.884a.162.162,0,0,1-.071-.237,4.231,4.231,0,0,0,.582-1.236s.376-.241-.957-.56-3.322-.815-3.74-1.95c-.407-1.107.663-3.889,2.371-1.672a.162.162,0,0,0,.257,0,1.674,1.674,0,0,1,2.038-.662,1.536,1.536,0,0,1,1.051,1.483.161.161,0,0,0,.191.165,1.872,1.872,0,0,1,2.186,1.019,1.5,1.5,0,0,1-.108,1.807.162.162,0,0,0,.069.269.974.974,0,0,1,.687,1.111c-.057,1.029-1.208.939-1.536.892a.162.162,0,0,0-.144.051,5.534,5.534,0,0,1-2.917,1.79.164.164,0,0,1-.172-.216l.593-1.724a.163.163,0,0,0-.088-.2Z" transform="translate(-2027.558 -583.395)" fill="url(#linear-gradient-29)"/>
          <path id="Trazado_205966" data-name="Trazado 205966" d="M2052.208,624.709s1.49-1.022,1.6-.161-1.342,1.247-2.06.926Z" transform="translate(-2047.397 -617.975)" fill="url(#linear-gradient-30)"/>
        </g>
      </g>
      <g id="Grupo_153169" data-name="Grupo 153169" transform="translate(10.25 75.759)">
        <path id="Trazado_205967" data-name="Trazado 205967" d="M1965.737,1132.491a.574.574,0,0,0,.608-.532V1068.4a.614.614,0,0,0-1.217,0v63.563A.574.574,0,0,0,1965.737,1132.491Z" transform="translate(-1963.935 -1067.483)" fill="#7d97f4"/>
        <path id="Trazado_205968" data-name="Trazado 205968" d="M2073.771,1132.491a.574.574,0,0,0,.608-.532V1068.4a.614.614,0,0,0-1.217,0v63.563A.574.574,0,0,0,2073.771,1132.491Z" transform="translate(-2055.483 -1067.483)" fill="#7d97f4"/>
        <path id="Trazado_205969" data-name="Trazado 205969" d="M2166.444,1132.893a.686.686,0,0,0,.238-.043.51.51,0,0,0,.322-.7l-31.111-63.965a.644.644,0,0,0-.8-.281.51.51,0,0,0-.322.7l31.111,63.965A.617.617,0,0,0,2166.444,1132.893Z" transform="translate(-2107.65 -1067.482)" fill="#7d97f4"/>
        <path id="Trazado_205970" data-name="Trazado 205970" d="M2040.52,1132.893a.686.686,0,0,0,.238-.043.509.509,0,0,0,.322-.7l-31.111-63.965a.644.644,0,0,0-.8-.281.51.51,0,0,0-.322.7l31.111,63.965A.617.617,0,0,0,2040.52,1132.893Z" transform="translate(-2000.942 -1067.482)" fill="#7d97f4"/>
        <path id="Trazado_205971" data-name="Trazado 205971" d="M1957.89,1066.859h29.049a.682.682,0,0,0,.582-.75h0a.682.682,0,0,0-.582-.749H1957.89a.682.682,0,0,0-.582.749h0A.682.682,0,0,0,1957.89,1066.859Z" transform="translate(-1957.308 -1065.36)" fill="#7d97f4"/>
        <path id="Trazado_205972" data-name="Trazado 205972" d="M2040.208,1133.02h19.274a.537.537,0,1,0,0-1.063h-19.274a.537.537,0,1,0,0,1.063Z" transform="translate(-2027.042 -1121.793)" fill="#7d97f4"/>
        <rect id="Rectángulo_44855" data-name="Rectángulo 44855" width="19.274" height="1.064" transform="translate(19.081 22.261)" fill="#7d97f4"/>
        <rect id="Rectángulo_44856" data-name="Rectángulo 44856" width="19.274" height="1.064" transform="translate(24.806 34.358)" fill="#7d97f4"/>
        <path id="Trazado_205973" data-name="Trazado 205973" d="M2155.818,1370.837h19.274a.537.537,0,1,0,0-1.064h-19.274a.537.537,0,1,0,0,1.064Z" transform="translate(-2125.009 -1323.318)" fill="#7d97f4"/>
        <path id="Trazado_205974" data-name="Trazado 205974" d="M2193.855,1450.11h19.274a.537.537,0,1,0,0-1.063h-19.274a.537.537,0,1,0,0,1.063Z" transform="translate(-2157.241 -1390.494)" fill="#7d97f4"/>
      </g>
    </g>
    <g id="Grupo_153171" data-name="Grupo 153171" transform="translate(212.197 289.264)">
      <path id="Trazado_205975" data-name="Trazado 205975" d="M748.187,1098.891c-7.549-9.038-38.2-44.4-66.8-58.416a2.839,2.839,0,0,0-4.072,2.922c1.942,14.241,12.5,54.458,69.868,57.506A1.227,1.227,0,0,0,748.187,1098.891Z" transform="translate(-677.289 -1040.179)" fill="#91b3fa"/>
      <path id="Trazado_205976" data-name="Trazado 205976" d="M808.85,1169.132a.637.637,0,0,1-.288-.068c-21.873-11.032-36.367-23.026-44.674-31.145-9.022-8.819-12.805-14.936-12.962-15.192a.641.641,0,1,1,1.093-.668c.038.062,3.882,6.27,12.807,14.986,8.238,8.045,22.613,19.932,44.312,30.875a.641.641,0,0,1-.289,1.213Z" transform="translate(-739.609 -1109.303)" fill="#dce5fe"/>
    </g>
    <g id="Grupo_153172" data-name="Grupo 153172" transform="translate(172.759 320.35)">
      <path id="Trazado_205977" data-name="Trazado 205977" d="M529.286,1280.164c1.836-.306,2.778-1.956,1.811-3.147-5.332-6.571-22.648-23.993-57.724-26.179-29.62-1.845-45.3-5.049-52.257-6.894-1.472-.39-2.835.939-2,1.946C428.35,1257.01,462.772,1291.256,529.286,1280.164Z" transform="translate(-418.864 -1243.875)" fill="#f9c852"/>
      <path id="Trazado_205978" data-name="Trazado 205978" d="M699.771,1342.692a.636.636,0,0,1-.272-.061c-.377-.177-38.167-17.721-78.837-21.718a.641.641,0,0,1,.125-1.275c40.9,4.019,78.877,21.655,79.256,21.833a.641.641,0,0,1-.273,1.221Z" transform="translate(-589.377 -1308.073)" fill="#dce5fe"/>
    </g>
    <g id="Grupo_153181" data-name="Grupo 153181" transform="translate(153.241 261.855)">
      <g id="Grupo_153173" data-name="Grupo 153173" transform="translate(70.803 44.136)">
        <path id="Trazado_205979" data-name="Trazado 205979" d="M842.769,1455.5a.59.59,0,0,1,.016-.154c.767-3.041,4.575-4.935,4.575-4.935l1.509.118a10.464,10.464,0,0,1,.617,5.057c0,.02-.01.04-.016.06A35.8,35.8,0,0,1,842.769,1455.5Z" transform="translate(-829.363 -1404.535)" fill="url(#linear-gradient-31)"/>
        <path id="Trazado_205980" data-name="Trazado 205980" d="M849.47,1483.907a.654.654,0,0,1-.479.484,20.688,20.688,0,0,1-5.766-.082.549.549,0,0,1-.456-.547A35.8,35.8,0,0,0,849.47,1483.907Z" transform="translate(-829.363 -1432.795)" fill="url(#linear-gradient-32)"/>
        <path id="Trazado_205981" data-name="Trazado 205981" d="M872.447,1436.462l-.639,3.076a.5.5,0,0,1-.43.414,4.283,4.283,0,0,1-.99-.016.632.632,0,0,1-.5-.743l.444-2.731Z" transform="translate(-852.334 -1392.713)" fill="url(#linear-gradient-33)"/>
        <path id="Trazado_205982" data-name="Trazado 205982" d="M761.791,1482.1a9,9,0,0,0,2.974-.425c0,.166,0,.334-.005.509a.329.329,0,0,1-.314.335l-9.149-.059a.418.418,0,0,1-.336-.608C756.16,1481.95,759.215,1482.172,761.791,1482.1Z" transform="translate(-754.918 -1431.027)" fill="url(#linear-gradient-34)"/>
        <path id="Trazado_205983" data-name="Trazado 205983" d="M755.195,1457.939a.443.443,0,0,1,.036-.069,11.659,11.659,0,0,1,6.932-4.352l1.951-.062a9.362,9.362,0,0,1,.885,4.306,9.007,9.007,0,0,1-2.974.425C759.45,1458.26,756.395,1458.038,755.195,1457.939Z" transform="translate(-755.153 -1407.115)" fill="url(#linear-gradient-35)"/>
        <path id="Trazado_205984" data-name="Trazado 205984" d="M801.517,1431.173c-.031.144-.437,2.333-.594,3.181a.425.425,0,0,1-.381.36,4.471,4.471,0,0,1-1.336-.1.577.577,0,0,1-.4-.605l.218-3.462Z" transform="translate(-792.107 -1387.697)" fill="url(#linear-gradient-36)"/>
        <path id="Trazado_205985" data-name="Trazado 205985" d="M800.6,1152.85s-2.683,18.44-4.62,40.382a.836.836,0,0,0,.691.849,10.136,10.136,0,0,0,2.181.252.808.808,0,0,0,.77-.675c.66-3.869,5.367-24.632,6.6-29.2,0,0,1.419,19.411.966,29.483a.477.477,0,0,0,.421.5,8.015,8.015,0,0,0,1.751,0,.639.639,0,0,0,.569-.542c.47-3.274,3.175-22.764,3.06-36.8-.007-.792-.929-7.3-.929-7.3Z" transform="translate(-789.709 -1149.787)" fill="url(#linear-gradient-37)"/>
      </g>
      <g id="Grupo_153174" data-name="Grupo 153174" transform="translate(36.953 15.226)">
        <path id="Trazado_205986" data-name="Trazado 205986" d="M622.126,1038.551s.751-1.977,1.629-1.8a6,6,0,0,1,1.837.855l1.41,1.906s-3.957,1.559-5.349.666a30.448,30.448,0,0,1-9.146-.139,20.005,20.005,0,0,0,1.438-4.334A21.29,21.29,0,0,0,622.126,1038.551Z" transform="translate(-600.391 -1024.208)" fill="url(#linear-gradient-38)"/>
        <path id="Trazado_205987" data-name="Trazado 205987" d="M533.436,960.344s5.787,7.289,13.229,11.5a20,20,0,0,1-1.438,4.334,23.893,23.893,0,0,1-12.116-5.5Z" transform="translate(-533.111 -960.344)" fill="url(#linear-gradient-39)"/>
      </g>
      <path id="Trazado_205988" data-name="Trazado 205988" d="M785.177,966.66l-.359,9.649a26.538,26.538,0,0,1-2.917.828,29.146,29.146,0,0,0-2.9-5.85A14.3,14.3,0,0,0,785.177,966.66Z" transform="translate(-704.526 -950.471)" fill="url(#linear-gradient-40)"/>
      <path id="Trazado_205989" data-name="Trazado 205989" d="M685.78,965.585c5.259,5.678,9.515,6.012,12.967,4.792a29.145,29.145,0,0,1,2.9,5.85c-14.043,3.1-17.35-9.814-17.35-9.814Z" transform="translate(-624.268 -949.56)" fill="url(#linear-gradient-41)"/>
      <path id="Trazado_205990" data-name="Trazado 205990" d="M656.572,957.935a1.927,1.927,0,0,0-1.727-.446c-1.121.2-2.119.594-2.817,0s-.944.2-.944.2l2.092,1.59Z" transform="translate(-596.127 -942.513)" fill="url(#linear-gradient-42)"/>
      <path id="Trazado_205991" data-name="Trazado 205991" d="M637.84,960.479s-.415-1.736-1.666-1.5-4.091,1.782-4.822,1.5-1.668-.965-2.148-.725l.846,1.051s-2.174-1.254-2.548-.484l3.617,2.036S636.412,961.828,637.84,960.479Z" transform="translate(-576.144 -943.945)" fill="url(#linear-gradient-43)"/>
      <path id="Trazado_205992" data-name="Trazado 205992" d="M809.087,983.986a.759.759,0,0,0,.5-.639c.357-3.462,2.085-24.928-8.823-33.759,0,0-.626-1.637-5.767,2.387s-2.389,8.24-1.158,14.057c1.49,7.038,4.1,12.792,2.947,17.123a.6.6,0,0,0,.368.72A17.031,17.031,0,0,0,809.087,983.986Z" transform="translate(-715.53 -935.725)" fill="url(#linear-gradient-44)"/>
      <path id="Trazado_205993" data-name="Trazado 205993" d="M802.835,909.271c0,.306,4.359,6.492,4.359,6.492s-.782,1.54-4.514,2.79l-3.222-6.624Z" transform="translate(-721.858 -901.839)" fill="url(#linear-gradient-45)"/>
      <path id="Trazado_205994" data-name="Trazado 205994" d="M692.966,1019.511s-8.264,6.921-17.187,3.9a2.126,2.126,0,0,0-1.675.126l-2.565,1.355a2.29,2.29,0,0,1-3.035-.85,4.818,4.818,0,0,1-.721-1.929l5.02-2.032-.37-.616s2.451-.208,3.092,1.549c0,0,4.668,1.942,12.541-6.718A30.547,30.547,0,0,1,692.966,1019.511Z" transform="translate(-610.277 -990.838)" fill="url(#linear-gradient-46)"/>
      <path id="Trazado_205995" data-name="Trazado 205995" d="M834.94,1012.427a.139.139,0,0,0,.079-.024,15.9,15.9,0,0,0,5.133-6.184.141.141,0,0,0-.26-.11,15.6,15.6,0,0,1-5.031,6.06.141.141,0,0,0,.079.259Z" transform="translate(-751.806 -983.826)" fill="#7d97f4"/>
      <path id="Trazado_205996" data-name="Trazado 205996" d="M800.979,969.782a.142.142,0,0,0,.119-.065c.01-.016,1.073-1.671,3.1-5.3a4.082,4.082,0,0,1,2.432-2.1,4.75,4.75,0,0,1,3.239.43.141.141,0,1,0,.14-.246,4.938,4.938,0,0,0-3.452-.457,4.35,4.35,0,0,0-2.605,2.233c-2.02,3.616-3.079,5.265-3.089,5.282a.141.141,0,0,0,.042.2A.14.14,0,0,0,800.979,969.782Z" transform="translate(-723.027 -946.441)" fill="#7d97f4"/>
      <g id="Grupo_153175" data-name="Grupo 153175" transform="translate(75.539 0)">
        <path id="Trazado_205997" data-name="Trazado 205997" d="M789.387,886.041a22.826,22.826,0,0,0-1.654,5.429c-.1,1.869-.507,3.081,1.654,3.457a4.593,4.593,0,0,0,4.967-2.561s1.545-2.868,1.2-4.043S789.387,886.041,789.387,886.041Z" transform="translate(-787.379 -882.155)" fill="url(#linear-gradient-47)"/>
        <path id="Trazado_205998" data-name="Trazado 205998" d="M792.193,869.447l-.123-.054a.3.3,0,0,1-.145-.407c.3-.589.9-1.938.131-2.252-.989-.406-4.906-1.2-5.751-2.594a2.586,2.586,0,0,1,.989-3.551.149.149,0,0,1,.195.064l.09.17a.147.147,0,0,0,.271-.028h0a.146.146,0,0,1,.264-.038c.26.416.961,1.09,2.837,1.436,2.665.492,4.428,1.571,4.472,3.413a.147.147,0,0,0,.227.121c.2-.12.512-.176.933.178.732.615.432,2.212-1.172,3.526a.146.146,0,0,0,.007.235c.291.189.725.64-.4,1.241a3.784,3.784,0,0,1-2.365.515.146.146,0,0,1-.119-.177l.357-1.619a.147.147,0,0,0-.143-.178Z" transform="translate(-785.956 -860.574)" fill="url(#linear-gradient-48)"/>
        <path id="Trazado_205999" data-name="Trazado 205999" d="M826.384,911.242s.591-2.274,1.611-1.637-.529,2.548-1.349,2.633Z" transform="translate(-820.214 -902.027)" fill="url(#linear-gradient-49)"/>
      </g>
      <path id="Trazado_206000" data-name="Trazado 206000" d="M689.373,1065.675s-2.1,2.054-2.505,1.755a7.382,7.382,0,0,1-.861-.923.9.9,0,0,1-.061-1.062l.5-.764a1.432,1.432,0,0,1,2.137-.311A2.6,2.6,0,0,1,689.373,1065.675Z" transform="translate(-625.546 -1032.975)" fill="url(#linear-gradient-50)"/>
      <path id="Trazado_206001" data-name="Trazado 206001" d="M407.346,986.323c1.132-5.376,2.264-8.488,6.053-18.677,1.192-3.206,2.275-6.451,1.752-9.831l-.588-3.8a28.436,28.436,0,0,0-15.527-.1s-11.137,4.838-3.573,28.732C398.873,986.46,402.864,987.547,407.346,986.323Z" transform="translate(-377.284 -938.792)" fill="url(#linear-gradient-51)"/>
      <path id="Trazado_206002" data-name="Trazado 206002" d="M480.877,921.82l-1.91,4.587a.914.914,0,0,1-.691.549c-1.1.189-3.764.484-5.512-.666a.444.444,0,0,1-.119-.625l3.528-5.065Z" transform="translate(-444.851 -911.441)" fill="url(#linear-gradient-52)"/>
      <g id="Grupo_153176" data-name="Grupo 153176" transform="translate(7.165 25.931)">
        <path id="Trazado_206003" data-name="Trazado 206003" d="M362.195,1039.8a.424.424,0,0,1,.268.606L356.938,1051a.424.424,0,0,1-.494.211l-18.07-5.217a.424.424,0,0,1-.29-.525l3.113-10.776a.424.424,0,0,1,.515-.292Z" transform="translate(-338.044 -1033.79)" fill="#bdd0fb"/>
        <path id="Trazado_206004" data-name="Trazado 206004" d="M360.9,1035.26a.444.444,0,0,1,.314.585l-4.422,12.012a.444.444,0,0,1-.54.273l-18.016-5.2a.444.444,0,0,1-.311-.52l2.5-11.561a.444.444,0,0,1,.537-.338Z" transform="translate(-337.913 -1030.497)" fill="#91b3fa"/>
        <path id="Trazado_206005" data-name="Trazado 206005" d="M359.541,1038.509a.549.549,0,0,1,.452.666l-3,12.968a.549.549,0,0,1-.687.4l-17.743-5.123a.549.549,0,0,1-.379-.664l2.729-10.585a.549.549,0,0,1,.614-.406Z" transform="translate(-338.125 -1034.959)" fill="#ff7d00"/>
      </g>
      <path id="Trazado_206006" data-name="Trazado 206006" d="M383.247,983.986c-1.377-10.4,6.639-18.4,6.639-18.4l4.77,5.56a30.574,30.574,0,0,0-6.129,11.9C387.484,982.74,384.973,982.26,383.247,983.986Z" transform="translate(-369.029 -949.56)" fill="url(#linear-gradient-53)"/>
      <path id="Trazado_206007" data-name="Trazado 206007" d="M416.951,1012.464a.321.321,0,0,1-.312-.4,31.017,31.017,0,0,1,6.19-12.023.32.32,0,1,1,.5.4,30.383,30.383,0,0,0-6.067,11.773A.32.32,0,0,1,416.951,1012.464Z" transform="translate(-397.453 -978.659)" fill="url(#linear-gradient-54)"/>
      <path id="Trazado_206008" data-name="Trazado 206008" d="M389.41,1078.321a19.109,19.109,0,0,0-.543,6.348.838.838,0,0,0,.774.751c.462.032,1.091.075,1.652.107a3.084,3.084,0,0,0,1.761-.681.276.276,0,0,1,.406.349,4.873,4.873,0,0,1-1.809,1.615.285.285,0,0,0,.066.521l2.559.726c-4.205,3.962-6.981-.471-6.981-.471a20.055,20.055,0,0,1-3.167-8.322C385.857,1077.537,388.368,1078.017,389.41,1078.321Z" transform="translate(-369.912 -1044.837)" fill="url(#linear-gradient-55)"/>
      <g id="Grupo_153177" data-name="Grupo 153177" transform="translate(27.468 0.427)">
        <path id="Trazado_206009" data-name="Trazado 206009" d="M489.621,881.212c.08.076,3.385,6.564,3.385,6.564l-3.745,1.808-4.046-5.685S488.279,879.948,489.621,881.212Z" transform="translate(-483.038 -878.277)" fill="url(#linear-gradient-56)"/>
        <path id="Trazado_206010" data-name="Trazado 206010" d="M474.831,869.674l1.868,3.114a.583.583,0,0,0,.1.128.98.98,0,0,0,1.571-.011,5.27,5.27,0,0,1,1.476-1.6.6.6,0,0,1,.806.265,22.3,22.3,0,0,1,1.278,3.032.6.6,0,0,1-.346.729A16.575,16.575,0,0,1,478,876.382a.6.6,0,0,1-.565-.24c-.572-.784-2.185-2.975-2.735-3.523-.512-.51-1.455-.317-1.881-.2a.6.6,0,0,1-.477-.063,1.316,1.316,0,0,1-.5-2,.6.6,0,0,0-.185-.812,1.322,1.322,0,0,1-.506-1.875,1.864,1.864,0,0,1,2.018-.988.62.62,0,0,0,.651-.362.4.4,0,0,1,.308-.243.58.58,0,0,0,.469-.681,1.53,1.53,0,0,1,.854-1.753c1.616-.888,3.031.559,3.392,1.781s-1.447,2.086-2.583,2.23c-.835.106-1.293,1.017-1.477,1.493A.6.6,0,0,0,474.831,869.674Z" transform="translate(-470.953 -863.37)" fill="url(#linear-gradient-57)"/>
        <path id="Trazado_206011" data-name="Trazado 206011" d="M484.96,920.213s-.719-2.1-1.638-2.025-1.644.994-.5,2.024C484.236,921.492,484.96,920.213,484.96,920.213Z" transform="translate(-480.512 -909.82)" fill="url(#linear-gradient-58)"/>
      </g>
      <g id="Grupo_153178" data-name="Grupo 153178" transform="translate(20.697 88.756)">
        <path id="Trazado_206012" data-name="Trazado 206012" d="M436.68,1482.475c-1.779.154-4.866.4-7.3.51a7.026,7.026,0,0,1-2.79-.273c0,.055,0,.106,0,.154a.5.5,0,0,0,.478.475,85.452,85.452,0,0,0,9.557.01.358.358,0,0,0,.292-.538A2.91,2.91,0,0,0,436.68,1482.475Z" transform="translate(-426.59 -1476.325)" fill="url(#linear-gradient-59)"/>
        <path id="Trazado_206013" data-name="Trazado 206013" d="M429.378,1463.044c2.434-.107,5.52-.357,7.3-.51-1.749-2.146-7.3-3.591-7.3-3.591H427.81a6.573,6.573,0,0,0-1.223,3.829A7.028,7.028,0,0,0,429.378,1463.044Z" transform="translate(-426.587 -1456.383)" fill="url(#linear-gradient-60)"/>
        <path id="Trazado_206014" data-name="Trazado 206014" d="M432.872,1442.172l.147,2.9a.663.663,0,0,0,.566.624,2.577,2.577,0,0,0,1.178-.1.785.785,0,0,0,.527-.6l.507-2.826Z" transform="translate(-431.913 -1442.172)" fill="url(#linear-gradient-61)"/>
      </g>
      <g id="Grupo_153180" data-name="Grupo 153180" transform="translate(0 86.043)">
        <g id="Grupo_153179" data-name="Grupo 153179" transform="translate(0 2.694)">
          <path id="Trazado_206015" data-name="Trazado 206015" d="M292.258,1480.478a1.408,1.408,0,0,1-1.266-.937l0,.012a1,1,0,0,0,.676,1.143,4.412,4.412,0,0,0,1.87.293,1.859,1.859,0,0,0,1.4-.647l0-.006A4.71,4.71,0,0,1,292.258,1480.478Z" transform="translate(-290.962 -1473.819)" fill="url(#linear-gradient-62)"/>
          <path id="Trazado_206016" data-name="Trazado 206016" d="M296.056,1442.048h-1.293c-1.969-.04-3.206,4.113-3.61,5.721a1.407,1.407,0,0,0,1.266.937,4.71,4.71,0,0,0,2.683-.142,12.349,12.349,0,0,0,1.845-4.647A1.631,1.631,0,0,0,296.056,1442.048Z" transform="translate(-291.124 -1442.048)" fill="url(#linear-gradient-63)"/>
        </g>
        <path id="Trazado_206017" data-name="Trazado 206017" d="M311.785,1424.394l-.718,2.855a.775.775,0,0,0,.4.878,2.75,2.75,0,0,0,1.487.36.648.648,0,0,0,.528-.432l1.054-3Z" transform="translate(-307.979 -1424.394)" fill="url(#linear-gradient-64)"/>
      </g>
      <path id="Trazado_206018" data-name="Trazado 206018" d="M310.289,1191.821c.893.792,3.8.9,3.8.9,10.464-25.115,14.827-32.029,14.827-32.029-1.511,9.479-.326,33.812-.326,33.812a6.279,6.279,0,0,0,3.953,0c.14-15.519,2.325-32.2,5.143-42.866-7.073-.159-10.916-1.7-12.144-2.672C319.645,1158.468,310.289,1191.821,310.289,1191.821Z" transform="translate(-307.34 -1104.953)" fill="url(#linear-gradient-65)"/>
    </g>
  </g>
</svg>
