<svg xmlns="http://www.w3.org/2000/svg" width="261.982" height="201.827" viewBox="0 0 261.982 201.827">
  <g id="Grupo_153401" data-name="Grupo 153401" transform="translate(-25.107 -33.805)">
    <path id="Trazado_206520" data-name="Trazado 206520" d="M281.471,89.558a10.9,10.9,0,0,0-10.634-11.15H256.559a11.163,11.163,0,0,1,0-22.3h14.278a10.9,10.9,0,0,0,10.634-11.15,10.9,10.9,0,0,0-10.634-11.151H49.881A10.9,10.9,0,0,0,39.246,44.956a10.9,10.9,0,0,0,10.635,11.15,11.163,11.163,0,0,0,0,22.3H72.553a11.163,11.163,0,0,1,0,22.3H49.881a11.163,11.163,0,0,0,0,22.3h65.462a11.164,11.164,0,0,1,0,22.3H49.881a11.163,11.163,0,0,0,0,22.3,11.163,11.163,0,0,0,0,22.3H69.949c-4.805,0-8.7,4.993-8.7,11.151s3.9,11.15,8.7,11.15H250.768c4.807,0,8.7-4.993,8.7-11.15s-3.9-11.151-8.7-11.151h20.069a11.163,11.163,0,0,0,0-22.3,11.163,11.163,0,0,0,0-22.3h-31.46a11.164,11.164,0,0,1,0-22.3h31.46a11.163,11.163,0,0,0,0-22.3A10.9,10.9,0,0,0,281.471,89.558Zm-42.92,89.206a10.9,10.9,0,0,1-10.635,11.15H191.048a11.163,11.163,0,0,1,0-22.3h36.869A10.9,10.9,0,0,1,238.552,178.764Z" transform="translate(-4.261)" fill="#11505b"/>
    <path id="Trazado_206521" data-name="Trazado 206521" d="M287.089,299.7a12.341,12.341,0,0,1-12.341,12.341H37.449A12.342,12.342,0,0,1,25.107,299.7h0a12.342,12.342,0,0,1,12.342-12.341h237.3A12.341,12.341,0,0,1,287.089,299.7Z" transform="translate(0 -76.407)" fill="#09121a"/>
    <g id="Grupo_153387" data-name="Grupo 153387" transform="translate(46.253 82.288)">
      <g id="Grupo_153385" data-name="Grupo 153385" transform="translate(0 113.323)">
        <path id="Trazado_206522" data-name="Trazado 206522" d="M259.862,272.539c0,3.947-3.875,7.141-8.65,7.141H64.024c-4.777,0-8.65-3.194-8.65-7.141h0c0-3.942,3.873-7.137,8.65-7.137H251.212c4.775,0,8.65,3.2,8.65,7.137Z" transform="translate(-55.374 -265.402)" fill="#262c30"/>
        <path id="Trazado_206523" data-name="Trazado 206523" d="M55.476,274.417a5.772,5.772,0,0,0-.1.839c0,3.947,3.873,7.141,8.65,7.141H251.212c4.775,0,8.65-3.194,8.65-7.141a5.871,5.871,0,0,0-.1-.839Z" transform="translate(-55.374 -268.119)" fill="#d2d1d1"/>
        <rect id="Rectángulo_44883" data-name="Rectángulo 44883" width="204.488" height="7.137" transform="translate(0 0)" fill="#b1b1b0"/>
      </g>
      <g id="Grupo_153386" data-name="Grupo 153386" transform="translate(14.664)">
        <path id="Trazado_206524" data-name="Trazado 206524" d="M244.952,103.2c5.276,0,6.571.568,6.571,4.949V212.1c0,4.38-1.295,4.949-6.571,4.949H82.93c-5.276,0-6.568-.569-6.568-4.949V108.149c0-4.381,1.293-4.949,6.568-4.949Z" transform="translate(-76.362 -103.2)" fill="#d2d1d1"/>
        <path id="Trazado_206525" data-name="Trazado 206525" d="M76.362,108.149V212.1c0,2.575.454,3.827,1.894,4.427a8.033,8.033,0,0,1-.4-2.93V109.643c0-4.38,1.292-4.949,6.568-4.949H246.445a13.13,13.13,0,0,1,4.676.524c-.7-1.726-2.429-2.018-6.168-2.018H82.93C77.655,103.2,76.362,103.768,76.362,108.149Z" transform="translate(-76.362 -103.2)" fill="#e4e3e3"/>
        <path id="Trazado_206526" data-name="Trazado 206526" d="M210.87,109.094c0,1.029-.538,1.863-1.2,1.863H198.506c-.662,0-1.2-.834-1.2-1.863h0c0-1.026.539-1.859,1.2-1.859H209.67c.662,0,1.2.833,1.2,1.859Z" transform="translate(-112.808 -104.416)" fill="#a3a3a3"/>
        <path id="Trazado_206527" data-name="Trazado 206527" d="M222.043,109.1a1.861,1.861,0,1,1-1.861-1.861A1.861,1.861,0,0,1,222.043,109.1Z" transform="translate(-119.141 -104.416)" fill="#a3a3a3"/>
        <rect id="Rectángulo_44884" data-name="Rectángulo 44884" width="162.709" height="99.149" transform="translate(5.518 8.543)" fill="#11505b"/>
        <path id="Trazado_206528" data-name="Trazado 206528" d="M88.163,118.346H246.97v-2.918H84.26v99.149h3.9Z" transform="translate(-78.742 -106.885)" fill="#d2d1d1" style="mix-blend-mode: multiply;isolation: isolate"/>
      </g>
    </g>
    <g id="Grupo_153390" data-name="Grupo 153390" transform="translate(84.739 63.054)">
      <rect id="Rectángulo_44885" data-name="Rectángulo 44885" width="167.86" height="113.418" fill="#fff"/>
      <rect id="Rectángulo_44886" data-name="Rectángulo 44886" width="167.86" height="9.639" transform="translate(0 8.507)" fill="#006b99"/>
      <rect id="Rectángulo_44887" data-name="Rectángulo 44887" width="167.86" height="14.179" transform="translate(0 18.146)" fill="#4aadd1"/>
      <rect id="Rectángulo_44888" data-name="Rectángulo 44888" width="74.855" height="5.672" transform="translate(9.074 22.681)" fill="#fff"/>
      <rect id="Rectángulo_44889" data-name="Rectángulo 44889" width="20.415" height="5.672" transform="translate(89.601 22.681)" fill="#353e44"/>
      <rect id="Rectángulo_44890" data-name="Rectángulo 44890" width="33.459" height="23.818" transform="translate(13.043 40.121)" fill="#d2d1d1"/>
      <g id="Grupo_153388" data-name="Grupo 153388" transform="translate(53.307 42.671)">
        <line id="Línea_415" data-name="Línea 415" x2="36.294" fill="#ec640a" stroke="#e64e2a" stroke-miterlimit="10" stroke-width="3"/>
        <line id="Línea_416" data-name="Línea 416" x2="100.376" transform="translate(0 8.507)" fill="none" stroke="#bababa" stroke-miterlimit="10" stroke-width="3.247"/>
        <line id="Línea_417" data-name="Línea 417" x2="100.376" transform="translate(0 13.611)" fill="none" stroke="#bababa" stroke-miterlimit="10" stroke-width="3.247"/>
        <line id="Línea_418" data-name="Línea 418" x2="46.502" transform="translate(0 18.715)" fill="none" stroke="#bababa" stroke-miterlimit="10" stroke-width="3.247"/>
      </g>
      <rect id="Rectángulo_44891" data-name="Rectángulo 44891" width="33.459" height="23.82" transform="translate(13.043 69.987)" fill="#d2d1d1"/>
      <g id="Grupo_153389" data-name="Grupo 153389" transform="translate(53.307 72.538)">
        <line id="Línea_419" data-name="Línea 419" x2="36.294" transform="translate(0 0)" fill="#e13510" stroke="#e64e2a" stroke-miterlimit="10" stroke-width="3.247"/>
        <line id="Línea_420" data-name="Línea 420" x2="100.376" transform="translate(0 8.509)" fill="none" stroke="#bababa" stroke-miterlimit="10" stroke-width="3.247"/>
        <line id="Línea_421" data-name="Línea 421" x2="100.376" transform="translate(0 13.61)" fill="none" stroke="#bababa" stroke-miterlimit="10" stroke-width="3.247"/>
        <line id="Línea_422" data-name="Línea 422" x2="46.502" transform="translate(0 18.716)" fill="none" stroke="#bababa" stroke-miterlimit="10" stroke-width="3.247"/>
      </g>
      <path id="Trazado_206529" data-name="Trazado 206529" d="M319.9,80.145a3.185,3.185,0,1,1-3.184-3.184A3.184,3.184,0,0,1,319.9,80.145Z" transform="translate(-171.656 -76.059)" fill="#cdcdcd"/>
      <path id="Trazado_206530" data-name="Trazado 206530" d="M332.242,80.145a3.185,3.185,0,1,1-3.184-3.184A3.184,3.184,0,0,1,332.242,80.145Z" transform="translate(-175.374 -76.059)" fill="#cdcdcd"/>
      <path id="Trazado_206531" data-name="Trazado 206531" d="M307.73,80.145a3.185,3.185,0,1,1-3.186-3.184A3.184,3.184,0,0,1,307.73,80.145Z" transform="translate(-167.987 -76.059)" fill="#cdcdcd"/>
    </g>
    <g id="Grupo_153391" data-name="Grupo 153391" transform="translate(46.107 84.338)">
      <path id="Trazado_206532" data-name="Trazado 206532" d="M131.24,157.807a39.074,39.074,0,1,1-24.4-49.578A39.073,39.073,0,0,1,131.24,157.807Z" transform="translate(-55.165 -106.134)" fill="#002d48"/>
      <path id="Trazado_206533" data-name="Trazado 206533" d="M128.45,158.4a33.66,33.66,0,1,1-21.02-42.711A33.656,33.656,0,0,1,128.45,158.4Z" transform="translate(-57.5 -108.469)" fill="#4aadd1"/>
      <path id="Trazado_206534" data-name="Trazado 206534" d="M91.26,179.538a33.661,33.661,0,0,1,8.745-65.462,33.659,33.659,0,1,0-1.318,67.08A33.669,33.669,0,0,1,91.26,179.538Z" transform="translate(-57.5 -108.474)" fill="#1885a6"/>
      <line id="Línea_423" data-name="Línea 423" x1="3.916" y2="11.509" transform="translate(22.579 76.076)" fill="none" stroke="#002d48" stroke-miterlimit="10" stroke-width="10.165"/>
      <line id="Línea_424" data-name="Línea 424" x1="14.686" y2="43.149" transform="translate(8.671 85.69)" fill="none" stroke="#002d48" stroke-linecap="round" stroke-miterlimit="10" stroke-width="16.942"/>
      <path id="Trazado_206535" data-name="Trazado 206535" d="M143.129,163.281c-4.574,1.253-10.238-4.866-12.648-13.671s-.653-16.951,3.922-18.2,10.239,4.865,12.648,13.669S147.7,162.029,143.129,163.281Z" transform="translate(-77.536 -113.701)" fill="#79bbd5"/>
    </g>
    <g id="Grupo_153400" data-name="Grupo 153400" transform="translate(227.562 76.427)">
      <path id="Trazado_206536" data-name="Trazado 206536" d="M318.132,158.341l-1.163-1.788s-2.126-1.708-1.929-2.725a4.213,4.213,0,0,1,2.38-2.433c.987-.463,1.861.737,1.861.737s1.019-.931,1.661-.737.67.81.864,1.847a25.638,25.638,0,0,1-.4,4.686Z" transform="translate(-314.929 -111.831)" fill="#ce8e6d"/>
      <g id="Grupo_153393" data-name="Grupo 153393" transform="translate(2.832 42.429)">
        <g id="Grupo_153392" data-name="Grupo 153392">
          <path id="Trazado_206537" data-name="Trazado 206537" d="M339.465,156.848l-.5,1.492c-.321.941-.787,2.279-1.383,3.876s-1.317,3.454-2.2,5.436c-.444.991-.925,2.012-1.5,3.057a18.291,18.291,0,0,1-.984,1.6,9.557,9.557,0,0,1-.667.847,4.575,4.575,0,0,1-1.124.942,2.979,2.979,0,0,1-1.194.391,2.641,2.641,0,0,1-1.61-.385,2.791,2.791,0,0,1-.516-.418l-.1-.108-.05-.055-.082-.1-.008-.011-.061-.085-.242-.341c-.322-.454-.645-.893-.961-1.416l-.936-1.49-.824-1.393c-1.081-1.828-2.045-3.539-2.869-5.01l-2.715-4.918,2.983-1.668,2.828,4.794c.857,1.432,1.863,3.1,2.967,4.855l.84,1.332.837,1.258c.258.418.6.865.941,1.309l.252.334.063.084.008.01c.064.08-.077-.1-.066-.082l-.013-.017-.028-.033a1.159,1.159,0,0,0-.195-.153,1.307,1.307,0,0,0-.81-.191,1.016,1.016,0,0,0-.41.111c-.082.053.034-.032.131-.158a5.9,5.9,0,0,0,.351-.48,14.275,14.275,0,0,0,.718-1.254c.461-.9.88-1.849,1.266-2.783.771-1.874,1.416-3.688,1.949-5.248s.948-2.878,1.233-3.8l.435-1.438Z" transform="translate(-318.941 -155.542)" fill="#ce8e6d"/>
        </g>
      </g>
      <path id="Trazado_206538" data-name="Trazado 206538" d="M329.423,287.458a33.271,33.271,0,0,1-10.538,3.591c-2.514.355-3.115,2.116-2.072,2.568,3.2.606,18,1.359,18.658-.113.88-1.966-1.25-5.611-1.054-6.652C334.712,285.3,329.423,287.458,329.423,287.458Z" transform="translate(-315.32 -152.513)" fill="#181a24"/>
      <path id="Trazado_206539" data-name="Trazado 206539" d="M371.441,286.9a9.484,9.484,0,0,0,7.348,5.592,1.914,1.914,0,0,1,1.1,3.434c-1.4.28-7,.908-7,.908s-8.942-3.535-9.279-4.3c-.826-1.877,2.492-4.566,2.315-5.561C365.662,285.483,371.441,286.9,371.441,286.9Z" transform="translate(-329.531 -152.514)" fill="#181a24"/>
      <path id="Trazado_206540" data-name="Trazado 206540" d="M335.372,201.984c-.488,4.778-.762,20.528-.659,30.91.064,6.678.245,28.059.245,28.059l7.5,1.1c.328-3.527,2.206-28.045,2.206-28.045s1.919-19.388,1.953-24.875C346.632,198.4,336.083,195.01,335.372,201.984Z" transform="translate(-320.855 -126.01)" fill="#1f222e"/>
      <path id="Trazado_206541" data-name="Trazado 206541" d="M334.728,194.587c-.425-6.979,17.584-6.611,19.909,0,3.366,9.563,9.054,63.938,9.054,63.938l-7.761-.134c-.975-3.406-6.49-38.232-10.133-46.75C340.128,208.681,335.376,205.189,334.728,194.587Z" transform="translate(-320.864 -123.343)" fill="#282d3d"/>
      <path id="Trazado_206542" data-name="Trazado 206542" d="M334.044,161.943c.81-10.2,3.009-18.572,5.828-19.773,1.339-.572,5.031-.407,6.483-.309,1.837.124,5.291,1.373,6.655,3.653,2.62,4.377.79,16.615,1.164,21.3.62,7.822.815,15.3.815,15.3H334.265S333.423,169.766,334.044,161.943Z" transform="translate(-320.591 -108.96)" fill="#fff"/>
      <path id="Trazado_206543" data-name="Trazado 206543" d="M343.687,136.744c0-1.967,5.088-2.643,4.856-.889a11.183,11.183,0,0,0,.418,3.921,4.941,4.941,0,0,1-4.086,2.478c-2.761,0-2.4-2.169-2.4-2.169l1.268-.786S343.687,137.729,343.687,136.744Z" transform="translate(-323.197 -106.875)" fill="#f7a880"/>
      <g id="Grupo_153396" data-name="Grupo 153396" transform="translate(11.643)">
        <path id="Trazado_206544" data-name="Trazado 206544" d="M333.929,110.427c0,9.315,2.969,11.033,9.56,12.831,4.409,1.2,12.223-1.5,12.752-14.867.158-3.947-.423-9.525-3.458-9.125-1.94-5.38-4.58-4.383-8.513-4.383C336.137,94.885,327.176,99.772,333.929,110.427Z" transform="translate(-331.552 -94.812)" fill="#1f222e"/>
        <path id="Trazado_206545" data-name="Trazado 206545" d="M333.283,113.461c0,9.572,3.431,13.476,7.638,13.476,4.81,0,11.307-5.7,11.307-13.476,0-9.571-4.24-14.842-9.473-14.842S333.283,103.89,333.283,113.461Z" transform="translate(-332.073 -95.959)" fill="#de9072"/>
        <path id="Trazado_206546" data-name="Trazado 206546" d="M333.949,112.939c0,9.235,1.94,13.131,6.913,13.131s11.1-3.18,11.566-13.232c.428-9.225-4.5-14.219-9.473-14.219S333.949,103.7,333.949,112.939Z" transform="translate(-332.274 -95.959)" fill="#f7a880"/>
        <g id="Grupo_153394" data-name="Grupo 153394" transform="translate(0.288 2.233)">
          <path id="Trazado_206547" data-name="Trazado 206547" d="M341.665,98.008c4.207,0,9.223,2.338,9.7,6.46a13.365,13.365,0,0,1-5.965,3.278c-1.445.379-3.535-2-5.135-2-2.212,0-3.91,2.429-5.589,1.8a3.674,3.674,0,0,1-2.711-3.2C334.685,101.37,337.55,98.008,341.665,98.008Z" transform="translate(-331.964 -98.008)" fill="#1f222e"/>
        </g>
        <path id="Trazado_206548" data-name="Trazado 206548" d="M361.905,119.948c2.2.882.205,5.1-2.053,4.729-.966-.159-2.381-.207-2.381-1.735s1.784-1.583,1.784-1.583S359.89,119.142,361.905,119.948Z" transform="translate(-339.362 -102.333)" fill="#f7a880"/>
        <path id="Trazado_206549" data-name="Trazado 206549" d="M361.674,120.927s1.123-.432,1.585.46c.578,1.123-1.154,2.881-1.154,2.881s1.145-1.724.606-2.794A.984.984,0,0,0,361.674,120.927Z" transform="translate(-340.629 -102.65)" fill="#b3969a" style="mix-blend-mode: multiply;isolation: isolate"/>
        <path id="Trazado_206550" data-name="Trazado 206550" d="M342.809,123.875a1.977,1.977,0,0,1,.952.234.976.976,0,0,0-1.9,0A1.974,1.974,0,0,1,342.809,123.875Z" transform="translate(-334.658 -103.413)" fill="#b3969a" style="mix-blend-mode: multiply;isolation: isolate"/>
        <path id="Trazado_206551" data-name="Trazado 206551" d="M345.989,128.6s-.567,3.341-3.771,3.341-3.769-3.341-3.769-3.341Z" transform="translate(-333.63 -104.994)" fill="#fcfcfd"/>
        <path id="Trazado_206552" data-name="Trazado 206552" d="M352.2,115.282c-.66-.937-2.059-.862-3.487-.467-.476.133-.24.806.245.727a2.547,2.547,0,0,1,2.646.8C351.914,116.735,352.491,115.687,352.2,115.282Z" transform="translate(-336.647 -100.756)" fill="#1f222e"/>
        <g id="Grupo_153395" data-name="Grupo 153395" transform="translate(16.347 7.426)">
          <path id="Trazado_206553" data-name="Trazado 206553" d="M358.189,114.024c1.458-5.733-3.24-5-3.24-5s2.771-5.206,3.843-3.069c.4.8,2.621,7.511.544,9.83,0,1.416-1.236,2.491-1.677,2.352S357.747,115.764,358.189,114.024Z" transform="translate(-354.949 -105.441)" fill="#1f222e"/>
        </g>
        <path id="Trazado_206554" data-name="Trazado 206554" d="M349.8,119.953a.376.376,0,0,0,.376.375h0a.376.376,0,0,0,.377-.375v-1.205a.376.376,0,0,0-.377-.376h0a.376.376,0,0,0-.376.376Z" transform="translate(-337.051 -101.912)" fill="#1f222e"/>
        <path id="Trazado_206555" data-name="Trazado 206555" d="M334.925,115.282c.662-.937,2.059-.862,3.488-.467.476.133.24.806-.245.727a2.548,2.548,0,0,0-2.646.8C335.217,116.735,334.64,115.687,334.925,115.282Z" transform="translate(-332.545 -100.756)" fill="#1f222e"/>
        <path id="Trazado_206556" data-name="Trazado 206556" d="M338.654,119.953a.376.376,0,0,1-.376.375h0a.376.376,0,0,1-.377-.375v-1.205a.376.376,0,0,1,.377-.376h0a.376.376,0,0,1,.376.376Z" transform="translate(-333.465 -101.912)" fill="#1f222e"/>
      </g>
      <g id="Grupo_153398" data-name="Grupo 153398" transform="translate(11.287 47.625)">
        <g id="Grupo_153397" data-name="Grupo 153397">
          <path id="Trazado_206557" data-name="Trazado 206557" d="M351.566,164.284l-.5,1.492c-.321.941-.787,2.278-1.383,3.876s-1.317,3.454-2.2,5.436c-.444.991-.926,2.012-1.5,3.058a18.27,18.27,0,0,1-.984,1.6,9.5,9.5,0,0,1-.667.847,4.546,4.546,0,0,1-1.124.942,2.976,2.976,0,0,1-1.193.391,2.651,2.651,0,0,1-1.61-.384,2.817,2.817,0,0,1-.516-.419l-.1-.106-.05-.054-.082-.1-.008-.01-.061-.086-.242-.341c-.323-.453-.645-.892-.961-1.415l-.937-1.491-.824-1.393c-1.081-1.827-2.045-3.539-2.87-5.009l-2.714-4.918,2.983-1.669,2.827,4.795c.858,1.431,1.863,3.1,2.968,4.854l.84,1.332.836,1.258c.259.417.605.865.941,1.309l.251.333.064.084.008.01-.066-.082-.013-.017-.028-.032a1.124,1.124,0,0,0-.195-.153,1.307,1.307,0,0,0-.81-.192,1.018,1.018,0,0,0-.409.112c-.082.052.034-.032.131-.159s.229-.3.351-.479c.245-.377.488-.807.718-1.254.461-.9.88-1.85,1.267-2.784.77-1.873,1.415-3.687,1.949-5.248s.948-2.878,1.233-3.8l.435-1.439Z" transform="translate(-331.043 -162.978)" fill="#f7a880"/>
        </g>
      </g>
      <path id="Trazado_206558" data-name="Trazado 206558" d="M355.05,170.032l-6.968-.532s1.121-24.811,7.435-24.583C364.836,145.253,355.05,170.032,355.05,170.032Z" transform="translate(-324.89 -109.91)" fill="#d1edfd"/>
      <g id="Grupo_153399" data-name="Grupo 153399" transform="translate(0 41.704)">
        <rect id="Rectángulo_44892" data-name="Rectángulo 44892" width="8.947" height="1.378" fill="#353e44"/>
        <path id="Trazado_206559" data-name="Trazado 206559" d="M323.834,156.477h-8.947l8.669,6.326h6.45Z" transform="translate(-314.887 -155.098)" fill="#2f373b"/>
        <path id="Trazado_206560" data-name="Trazado 206560" d="M327.693,155.882l6.173,6.326v-1.377l-6.173-6.327Z" transform="translate(-318.746 -154.504)" fill="#272e32"/>
      </g>
      <path id="Trazado_206561" data-name="Trazado 206561" d="M329.863,165.24l-1.629-1.377-2.774-1.047,1.87-4.266,1.842.414-.073-1.521a5.311,5.311,0,0,1,1.425-.254c.671,0,.751.806,1.237,1.741a31.774,31.774,0,0,1,1.12,4.969Z" transform="translate(-318.073 -113.609)" fill="#f7a880"/>
      <path id="Trazado_206562" data-name="Trazado 206562" d="M323.811,164.284s-3.156-1.137-3.537-1.415-.388-.916.035-.8l4.578,1.282Z" transform="translate(-316.425 -115.076)" fill="#f7a880"/>
      <path id="Trazado_206563" data-name="Trazado 206563" d="M323.83,162.739s-4.713-1.631-5.095-1.908-.389-.916.034-.8l5.653,1.6Z" transform="translate(-315.961 -114.462)" fill="#f7a880"/>
      <path id="Trazado_206564" data-name="Trazado 206564" d="M324.967,161.152s-4.713-1.633-5.095-1.91-.387-.915.035-.8l5.652,1.6Z" transform="translate(-316.304 -113.983)" fill="#f7a880"/>
      <path id="Trazado_206565" data-name="Trazado 206565" d="M326.564,159.911s-4.715-1.632-5.1-1.91-.387-.915.034-.8,5.652,1.6,5.652,1.6Z" transform="translate(-316.785 -113.609)" fill="#f7a880"/>
    </g>
  </g>
</svg>
