<svg xmlns="http://www.w3.org/2000/svg" xmlns:xlink="http://www.w3.org/1999/xlink" width="315.175" height="243.748" viewBox="0 0 315.175 243.748">
  <defs>
    <linearGradient id="linear-gradient" x1="0.249" y1="0.19" x2="-0.337" y2="-0.532" gradientUnits="objectBoundingBox">
      <stop offset="0" stop-color="#fff"/>
      <stop offset="1"/>
    </linearGradient>
    <linearGradient id="linear-gradient-3" x1="0.528" y1="0.552" x2="0.072" y2="-0.312" gradientUnits="objectBoundingBox">
      <stop offset="0" stop-color="#fff"/>
      <stop offset="0.087" stop-color="#f7f7f7"/>
      <stop offset="0.217" stop-color="#e3e3e3"/>
      <stop offset="0.375" stop-color="#c1c1c1"/>
      <stop offset="0.553" stop-color="#929292"/>
      <stop offset="0.75" stop-color="#565656"/>
      <stop offset="0.959" stop-color="#0f0f0f"/>
      <stop offset="1"/>
    </linearGradient>
    <linearGradient id="linear-gradient-4" x1="0.542" y1="0.576" x2="0.174" y2="-0.114" xlink:href="#linear-gradient-3"/>
    <linearGradient id="linear-gradient-5" x1="1.048" y1="1.107" x2="-0.729" y2="-0.867" gradientUnits="objectBoundingBox">
      <stop offset="0" stop-color="#fff"/>
      <stop offset="0.09" stop-color="#f2f2f2"/>
      <stop offset="0.256" stop-color="#cfcfcf"/>
      <stop offset="0.48" stop-color="#979797"/>
      <stop offset="0.751" stop-color="#4c4c4c"/>
      <stop offset="1"/>
    </linearGradient>
    <linearGradient id="linear-gradient-6" x1="0.762" y1="0.79" x2="-0.474" y2="-0.583" xlink:href="#linear-gradient-5"/>
    <linearGradient id="linear-gradient-7" x1="0.729" y1="0.659" x2="-0.311" y2="-1.073" xlink:href="#linear-gradient-5"/>
  </defs>
  <g id="Grupo_153727" data-name="Grupo 153727" transform="translate(-28.777 -49.857)">
    <g id="Grupo_153726" data-name="Grupo 153726" transform="translate(28.777 49.858)">
      <g id="Grupo_153591" data-name="Grupo 153591" transform="translate(0 73.891)">
        <path id="Trazado_206676" data-name="Trazado 206676" d="M343.952,247.477c0,1.371-1.012,2.742-3.049,3.791l-2.842,1.466h-.007l-17.089,8.815L299.608,272.8l-14.753,7.766-89.229,47.006a18.2,18.2,0,0,1-14.817.006L51.946,262.567l-17.267-8.84-2.8-1.434c-2.066-1.055-3.1-2.439-3.1-3.829a3.921,3.921,0,0,1,1.888-3.071,8.217,8.217,0,0,1,1.161-.714l145.276-76.3a18.145,18.145,0,0,1,14.824,0L340.86,243.654a9.808,9.808,0,0,1,1.175.714A3.983,3.983,0,0,1,343.952,247.477Z" transform="translate(-28.778 -166.795)" fill="#efefef"/>
        <path id="Trazado_206677" data-name="Trazado 206677" d="M340.9,298.272l-2.839,1.464h-.006l-15.676,8.086-1.416.732L195.625,374.577a18.154,18.154,0,0,1-14.816.006L53.658,310.431l-1.712-.859-17.27-8.843-2.8-1.433c-2.063-1.049-3.1-2.44-3.1-3.824v7.5a3.75,3.75,0,0,0,1.554,2.818,7.386,7.386,0,0,0,1.113.768h.007c.131.085.275.164.427.244l148.931,75.282a18.2,18.2,0,0,0,14.816,0L340.9,305.776c.152-.079.3-.159.433-.238a7.76,7.76,0,0,0,1.148-.8,4.9,4.9,0,0,0,1-1.165,3.085,3.085,0,0,0,.474-1.586v-7.5C343.952,295.857,342.934,297.223,340.9,298.272Z" transform="translate(-28.777 -213.8)" fill="#dcdcdc"/>
      </g>
      <g id="Grupo_153725" data-name="Grupo 153725" transform="translate(15.694)">
        <g id="Grupo_153592" data-name="Grupo 153592" transform="translate(23.94 119.655)">
          <path id="Trazado_206678" data-name="Trazado 206678" d="M123.094,296.5,91.5,315.141,199,375.76c.3-.136.59-.279.865-.439L230.556,357.1Z" transform="translate(-91.5 -260.306)" fill="url(#linear-gradient)" style="mix-blend-mode: multiply;isolation: isolate"/>
          <path id="Trazado_206679" data-name="Trazado 206679" d="M190.063,251.3l-31.9,18.819,108.529,61.2a9.663,9.663,0,0,0,.874-.444l30.981-18.4Z" transform="translate(-96.926 -243.668)" fill="url(#linear-gradient)" style="mix-blend-mode: multiply;isolation: isolate"/>
          <path id="Trazado_206680" data-name="Trazado 206680" d="M252.752,375.3l72.808-33.438-84.007-36.633L168.5,338.564Z" transform="translate(-119.845 -263.52)" fill="url(#linear-gradient-3)" style="mix-blend-mode: multiply;isolation: isolate"/>
          <path id="Trazado_206681" data-name="Trazado 206681" d="M317.845,359.578,302.3,350.81a6.393,6.393,0,0,1,.4,2.458c.006-.076.013-.158.013-.234l-.019,5.036v.164a1.331,1.331,0,0,1-.013.158c-.006.095-.013.183-.019.272s-.019.164-.032.24c-.013.095-.025.183-.038.272-.006.032-.013.063-.019.1s-.025.095-.032.139c-.025.089-.044.177-.069.265s-.044.164-.07.24-.057.177-.088.265c-.013.038-.019.07-.032.107s-.038.082-.057.126a2.484,2.484,0,0,1-.114.272c-.032.082-.07.158-.107.234s-.088.183-.139.272c-.025.044-.044.089-.069.133-.019.025-.038.057-.057.089-.057.107-.126.215-.2.322-.044.063-.082.126-.126.2-.082.114-.171.234-.259.348-.032.044-.057.088-.095.133l-.019.019a6.412,6.412,0,0,1-.474.55c-.038.051-.088.095-.126.139-.133.139-.272.278-.417.411a1.173,1.173,0,0,1-.088.088c-.038.032-.076.063-.107.095-.088.082-.177.158-.265.234l-.246.209c-.095.069-.19.145-.291.221s-.177.133-.265.2-.209.145-.31.215-.19.133-.291.2-.221.139-.329.209c-.069.044-.133.088-.2.126s-.145.088-.221.133c-.36.209-.733.4-1.112.594-.114.057-.234.107-.354.164-.278.133-.556.253-.847.373-.133.057-.259.107-.392.158-.322.126-.645.246-.979.354-.088.032-.177.069-.272.1a.356.356,0,0,0-.076.025c-.114.038-.234.063-.354.1q-.559.171-1.137.322c-.2.051-.392.088-.588.139-.341.076-.682.152-1.03.215-.088.019-.177.044-.272.057-.2.038-.4.07-.613.1-.126.019-.253.044-.379.063-.442.063-.885.12-1.333.164h-.038c-.6.063-1.207.1-1.82.12a1.227,1.227,0,0,1-.152.013c-.145.006-.284,0-.423,0-.385.013-.771.013-1.15.006-.095,0-.2.006-.291,0-.126,0-.253-.013-.373-.019-.348-.013-.689-.032-1.03-.057-.126-.006-.259-.006-.385-.019-.095-.006-.19-.019-.284-.032-.348-.032-.7-.07-1.036-.114-.152-.019-.3-.032-.442-.051-.063-.006-.12-.025-.183-.032-.436-.063-.866-.139-1.3-.227-.107-.019-.215-.032-.316-.051a.2.2,0,0,0-.051-.013c-.581-.126-1.156-.265-1.719-.423-.044-.013-.095-.019-.139-.032-.348-.1-.7-.209-1.036-.322-.025-.013-.044-.013-.07-.025-.366-.12-.733-.253-1.087-.4-.088-.032-.177-.069-.265-.107l-5.3,2.982v.013c0,.025-.006.057-.006.082a.99.99,0,0,1-.025.145.187.187,0,0,1-.013.063.08.08,0,0,1-.006.038.119.119,0,0,1-.013.051c-.013.057-.025.107-.038.164a.091.091,0,0,0-.013.044.307.307,0,0,0-.019.044.358.358,0,0,1-.025.076,1.544,1.544,0,0,1-.063.152.023.023,0,0,0-.006.019l-.006.006a2.312,2.312,0,0,1-.114.215c-.006,0-.006,0-.006.006s-.019.019-.025.032a.975.975,0,0,1-.12.152c-.013.019-.032.038-.044.057-.038.038-.076.076-.12.114a.362.362,0,0,1-.051.044,1.336,1.336,0,0,1-.183.126l-18.514,10.786a1.026,1.026,0,0,0,.107-.069,1.6,1.6,0,0,1-.954.278l15.988,9.015Z" transform="translate(-125.681 -280.298)" fill="url(#linear-gradient-4)" style="mix-blend-mode: multiply;isolation: isolate"/>
          <path id="Trazado_206682" data-name="Trazado 206682" d="M339.613,299.464l-13.086,7.766L220.56,246.777l13.465-7.557Z" transform="translate(-103.409 -239.22)" fill="url(#linear-gradient-5)" style="mix-blend-mode: multiply;isolation: isolate"/>
          <path id="Trazado_206683" data-name="Trazado 206683" d="M409.841,308.76l4.853-2.883L379.978,286.07l-5,2.8Z" transform="translate(-160.254 -256.466)" fill="url(#linear-gradient-6)" style="mix-blend-mode: multiply;isolation: isolate"/>
        </g>
        <g id="Grupo_153648" data-name="Grupo 153648" transform="translate(141.103)">
          <g id="Grupo_153594" data-name="Grupo 153594" transform="translate(0 6.695)">
            <path id="Trazado_206684" data-name="Trazado 206684" d="M415.038,177.728l-.234,82.393a3.448,3.448,0,0,1-.062.659l0,.018a2.416,2.416,0,0,1-.174.54l0,.008a1.783,1.783,0,0,1-.23.356c-.028.035-.055.073-.085.1a1.492,1.492,0,0,1-.334.276l2.644-1.537a1.474,1.474,0,0,0,.335-.276c.03-.032.057-.07.085-.105a1.606,1.606,0,0,0,.111-.138,1.832,1.832,0,0,0,.115-.209l0-.008,0-.008c.024-.051.046-.1.066-.157s.037-.105.054-.16.028-.1.04-.156c.005-.021.009-.044.013-.066l0-.018c0-.022.01-.044.013-.066.008-.047.015-.1.021-.146s.011-.1.015-.147.007-.095.009-.143,0-.1,0-.148v-.009l.234-82.394Z" transform="translate(-291.747 -103.058)" fill="#c5c5c5"/>
            <g id="Grupo_153593" data-name="Grupo 153593">
              <path id="Trazado_206685" data-name="Trazado 206685" d="M220.822,60.453l-.01,3.623,123.057,71.047-.234,82.393c-.006,1.944-1.385,2.725-3.077,1.748L223.631,151.757a6.726,6.726,0,0,1-3.052-5.287Z" transform="translate(-220.579 -60.453)" fill="#f7f9f9"/>
            </g>
          </g>
          <g id="Grupo_153611" data-name="Grupo 153611" transform="translate(83.665 67.727)">
            <g id="Grupo_153595" data-name="Grupo 153595" transform="translate(1.858 44.531)">
              <path id="Trazado_206686" data-name="Trazado 206686" d="M371.112,236.279l-.006,2.04-15.181-8.765.006-2.04Z" transform="translate(-355.925 -227.514)" fill="#c9c9c9"/>
            </g>
            <g id="Grupo_153596" data-name="Grupo 153596" transform="translate(1.803 64.052)">
              <path id="Trazado_206687" data-name="Trazado 206687" d="M382.1,273.568l-.006,2.04-26.259-15.161.006-2.04Z" transform="translate(-355.838 -258.407)" fill="#c9c9c9"/>
            </g>
            <g id="Grupo_153597" data-name="Grupo 153597" transform="translate(1.82 57.716)">
              <path id="Trazado_206688" data-name="Trazado 206688" d="M382.13,263.541l-.006,2.04-26.259-15.16.006-2.04Z" transform="translate(-355.866 -248.381)" fill="#c9c9c9"/>
            </g>
            <g id="Grupo_153598" data-name="Grupo 153598" transform="translate(1.838 51.522)">
              <path id="Trazado_206689" data-name="Trazado 206689" d="M371.081,247.343l-.006,2.04-15.181-8.765.006-2.04Z" transform="translate(-355.894 -238.578)" fill="#c9c9c9"/>
            </g>
            <g id="Grupo_153609" data-name="Grupo 153609">
              <g id="Grupo_153599" data-name="Grupo 153599" transform="translate(15.818 33.664)">
                <path id="Trazado_206690" data-name="Trazado 206690" d="M389.049,223.079c.206,2.364.335,4.772.422,5.42l-10.343-5.972-1.11-8.269,1.064-1.141,1.07,1.438,1.05-4.237.286.255q.108.1.22.2l.3.28a38.591,38.591,0,0,1,3.454,3.664,18.554,18.554,0,0,1,2.859,4.569,8.137,8.137,0,0,1,.565,2.126C388.946,221.947,389,222.512,389.049,223.079Z" transform="translate(-378.018 -210.317)" fill="#fff"/>
              </g>
              <g id="Grupo_153600" data-name="Grupo 153600">
                <path id="Trazado_206691" data-name="Trazado 206691" d="M384.375,175.105l-.1,35.953-4.035-2.329c-.083-.818-.208-3.056-.4-5.262-.049-.567-.1-1.131-.162-1.668a8.137,8.137,0,0,0-.565-2.126,18.434,18.434,0,0,0-2.859-4.569,38.5,38.5,0,0,0-3.454-3.664c-.105-.1-.205-.193-.3-.28q-.112-.1-.22-.2c-.358-.325-.672-.6-.924-.817-.389-.335-.631-.528-.655-.546v-.86c2.727,1,4.181-.2,4.257-.265.018-.157.361-3.143-.968-10.036-1.07-5.556-3.315-8.02-5.2-9.107a5.516,5.516,0,0,0-3.093-.844,4.218,4.218,0,0,0-.794-.6c-1.044-.6-2.749-.877-2.749,3.758,0,6.32-1.11,8.958-1.169,9.1a18.509,18.509,0,0,0,4.521,5.041l0,.815-.119-.041c-.144-.049-.408-.135-.756-.233-.274-.079-.6-.167-.965-.253a16.969,16.969,0,0,0-1.949-.331,9.89,9.89,0,0,0-1.817-.041c-1.542.111-2.9.7-3.3,2.294a3.975,3.975,0,0,0-.082.427c-.3,2.286-.5,5.353-.608,6.258l-2.912-1.681.1-35.953Z" transform="translate(-352.985 -157.041)" fill="#51b6f4"/>
              </g>
              <g id="Grupo_153601" data-name="Grupo 153601" transform="translate(2.898 28.631)">
                <path id="Trazado_206692" data-name="Trazado 206692" d="M368.055,208.164l1.049,2.36-1.194,6.938-10.338-5.969c.1-.681.3-3.977.622-6.392a3.721,3.721,0,0,1,.074-.4c.41-1.623,1.771-2.214,3.312-2.325a9.945,9.945,0,0,1,1.817.041,16.969,16.969,0,0,1,1.949.331c.205.051.4.1.576.148l1.013,5.439,1.177-.234Z" transform="translate(-357.571 -202.352)" fill="#fff"/>
              </g>
              <g id="Grupo_153608" data-name="Grupo 153608" transform="translate(7.994 10.516)">
                <g id="Grupo_153602" data-name="Grupo 153602" transform="translate(3.254 18.661)">
                  <path id="Trazado_206693" data-name="Trazado 206693" d="M372.05,203.595l2.066,3.561.428.738.109.186-1.678.34-1.177.234-1.013-5.439c.139.035.269.071.389.1.349.1.612.184.756.233Z" transform="translate(-370.785 -203.215)" fill="#e2e5e8"/>
                </g>
                <g id="Grupo_153603" data-name="Grupo 153603" transform="translate(5.242 23.531)">
                  <path id="Trazado_206694" data-name="Trazado 206694" d="M377.624,222.749l-3.693-2.132,1.195-6.938-1.049-2.36.056-.062,1.678-.334,1.747,2.372.02.045-1.064,1.14Z" transform="translate(-373.932 -210.922)" fill="#18181a"/>
                </g>
                <g id="Grupo_153604" data-name="Grupo 153604" transform="translate(7.126 22.049)">
                  <path id="Trazado_206695" data-name="Trazado 206695" d="M379.5,208.577c.026.009.268.2.657.537.183.157.4.346.638.562l-1.05,4.237-1.091-1.482-1.742-2.37Z" transform="translate(-376.913 -208.577)" fill="#e2e5e8"/>
                </g>
                <g id="Grupo_153605" data-name="Grupo 153605" transform="translate(4.521 16.267)">
                  <path id="Trazado_206696" data-name="Trazado 206696" d="M372.8,199.426a8.393,8.393,0,0,0,2.512,2.358l.2.116a3.593,3.593,0,0,0,2.481.554l-.006,1.886,0,.858-2.587,1.5-.113-.195-.428-.738-2.061-3.549,0-.828Z" transform="translate(-372.791 -199.426)" fill="#fcd695"/>
                </g>
                <g id="Grupo_153606" data-name="Grupo 153606">
                  <path id="Trazado_206697" data-name="Trazado 206697" d="M373.441,175.454c1.884,1.087,4.129,3.552,5.2,9.107,1.329,6.893.986,9.879.968,10.036-.076.063-1.53,1.268-4.257.265l.006-1.886c1.16-.238,1.928-1.318,1.947-3.036.717.21,1.182-.967,1.184-1.706a2.308,2.308,0,0,0-1.114-2.093l-.055-.026,0-.667a52.331,52.331,0,0,1-6.386-6.466c-1.314,1.962-2.542,1.311-2.644,1.252l-.009.662-.055-.037c-.812-.469-1.12,0-1.122.8a5.158,5.158,0,0,0,1.171,3.066,9.461,9.461,0,0,0,1.887,5.221l-.006,1.958a18.508,18.508,0,0,1-4.521-5.041c.059-.138,1.169-2.776,1.169-9.1,0-4.635,1.7-4.361,2.749-3.758a4.218,4.218,0,0,1,.794.6A5.516,5.516,0,0,1,373.441,175.454Z" transform="translate(-365.636 -173.682)" fill="#c95c12"/>
                </g>
                <g id="Grupo_153607" data-name="Grupo 153607" transform="translate(1.469 5.301)">
                  <path id="Trazado_206698" data-name="Trazado 206698" d="M371.79,182.071a52.326,52.326,0,0,0,6.386,6.466l0,.667.055.026a2.308,2.308,0,0,1,1.114,2.093c0,.739-.467,1.916-1.184,1.706-.019,1.718-.787,2.8-1.947,3.036a3.592,3.592,0,0,1-2.481-.554l-.2-.116a8.393,8.393,0,0,1-2.512-2.358,9.461,9.461,0,0,1-1.887-5.221,5.158,5.158,0,0,1-1.171-3.066c0-.8.31-1.271,1.122-.8l.055.037,0-.666C369.248,183.382,370.476,184.033,371.79,182.071Z" transform="translate(-367.96 -182.071)" fill="#fcd695"/>
                </g>
              </g>
            </g>
            <g id="Grupo_153610" data-name="Grupo 153610" transform="translate(20.789 55.252)">
              <path id="Trazado_206699" data-name="Trazado 206699" d="M385.911,244.481l7.422,4.285-.027,9.472-7.422-4.285Z" transform="translate(-385.884 -244.481)" fill="#fc5454"/>
              <path id="Trazado_206700" data-name="Trazado 206700" d="M393.118,256.511l-1.438-2.49,1.447-.825-.855-1.481-1.447.825-1.438-2.49-.865.488,1.438,2.49-1.447.825.86,1.489,1.447-.825,1.438,2.49.861-.5" transform="translate(-386.852 -246.531)" fill="#fff"/>
            </g>
          </g>
          <g id="Grupo_153630" data-name="Grupo 153630" transform="translate(7.788 23.919)">
            <g id="Grupo_153616" data-name="Grupo 153616" transform="translate(0.789 54.667)" style="isolation: isolate">
              <g id="Grupo_153612" data-name="Grupo 153612" transform="translate(0 8.8)">
                <path id="Trazado_206701" data-name="Trazado 206701" d="M260.417,203.313l-.006,2.04-26.259-15.16.006-2.04Z" transform="translate(-234.153 -188.152)" fill="#c9c9c9"/>
              </g>
              <g id="Grupo_153613" data-name="Grupo 153613" transform="translate(0.018 2.464)">
                <path id="Trazado_206702" data-name="Trazado 206702" d="M260.446,193.286l-.006,2.04-26.259-15.16.006-2.04Z" transform="translate(-234.181 -178.126)" fill="#c9c9c9"/>
              </g>
              <g id="Grupo_153614" data-name="Grupo 153614" transform="translate(18.986)">
                <path id="Trazado_206703" data-name="Trazado 206703" d="M264.226,174.226l7.421,4.285-.027,9.472L264.2,183.7Z" transform="translate(-264.199 -174.226)" fill="#a0daf9"/>
              </g>
              <g id="Grupo_153615" data-name="Grupo 153615" transform="translate(19.948 4.93)">
                <path id="Trazado_206704" data-name="Trazado 206704" d="M270.184,182.767l.86,1.484-3.251,1.853-2.07-3.58.861-.5,1.215,2.1Z" transform="translate(-265.722 -182.028)" fill="#fff"/>
              </g>
            </g>
            <g id="Grupo_153617" data-name="Grupo 153617" transform="translate(0.825 50.937)">
              <path id="Trazado_206705" data-name="Trazado 206705" d="M249.4,177.091l-.006,2.04-15.186-8.767.006-2.04Z" transform="translate(-234.209 -168.323)" fill="#c9c9c9"/>
            </g>
            <g id="Grupo_153618" data-name="Grupo 153618" transform="translate(0.845 43.946)">
              <path id="Trazado_206706" data-name="Trazado 206706" d="M249.432,166.026l-.006,2.04L234.24,159.3l.006-2.04Z" transform="translate(-234.24 -157.259)" fill="#c9c9c9"/>
            </g>
            <g id="Grupo_153629" data-name="Grupo 153629">
              <path id="Trazado_206707" data-name="Trazado 206707" d="M233.005,87.712l-.1,35.953,31.289,18.064.1-35.953Z" transform="translate(-232.903 -87.712)" fill="#51b6f4"/>
              <g id="Grupo_153628" data-name="Grupo 153628" transform="translate(2.793 11.626)">
                <g id="Grupo_153619" data-name="Grupo 153619" transform="translate(10.877 23.52)">
                  <path id="Trazado_206708" data-name="Trazado 206708" d="M256.165,143.333l1.6,2.256-.58,1.153-2.081-1.2-.567-1.8Z" transform="translate(-254.538 -143.333)" fill="#18181a"/>
                </g>
                <g id="Grupo_153620" data-name="Grupo 153620" transform="translate(17.213 12.266)">
                  <path id="Trazado_206709" data-name="Trazado 206709" d="M264.635,125.555a2.194,2.194,0,0,1,.866.906,2.726,2.726,0,0,1,.284,1.256c0,.769-.482,1.99-1.222,1.775,0-.016,0-.032,0-.047l.011-3.921Z" transform="translate(-264.564 -125.523)" fill="#f4bc69"/>
                </g>
                <g id="Grupo_153621" data-name="Grupo 153621" transform="translate(12.504 22.229)">
                  <path id="Trazado_206710" data-name="Trazado 206710" d="M259.793,141.3c0-.01.008,0,.024.009.1.082.464.375.993.835a14.6,14.6,0,0,1-1.141,4.043l-.955-1.346-1.6-2.256Z" transform="translate(-257.113 -141.29)" fill="#e2e5e8"/>
                </g>
                <g id="Grupo_153622" data-name="Grupo 153622" transform="translate(13.526 23.081)">
                  <path id="Trazado_206711" data-name="Trazado 206711" d="M269.688,154.411c.205,1.841.354,3.982.46,5.508l-10.53-6.079-.889-7.353.58-1.153.955,1.346a14.6,14.6,0,0,0,1.141-4.042C263.713,144.655,269.186,149.874,269.688,154.411Z" transform="translate(-258.729 -142.638)" fill="#fff"/>
                </g>
                <g id="Grupo_153623" data-name="Grupo 153623" transform="translate(6.468)">
                  <path id="Trazado_206712" data-name="Trazado 206712" d="M253.607,107.193a12.9,12.9,0,0,1,2.651,2.076c.72.721,1.166,1.257,1.189,1.286,1.062,1.112,1.963,4.421,2.136,5.9a7.767,7.767,0,0,1-.341,2.856,2.193,2.193,0,0,0-.866-.906l-.059-.032,0-.666a5.621,5.621,0,0,0-.4-2.164,15.434,15.434,0,0,1-4.27-1.62,13.181,13.181,0,0,1-3.151-2.665,5.9,5.9,0,0,1-1.539,1.039l0,.673-.059-.035c-.465-.269-.771-.239-.952-.019a11.848,11.848,0,0,1-.355-3.384c.182-1.276,1.1-3.537,2.163-3.421a6.573,6.573,0,0,1,1.2.092A7.633,7.633,0,0,1,253.607,107.193Z" transform="translate(-247.559 -106.111)" fill="#c95c12"/>
                </g>
                <g id="Grupo_153624" data-name="Grupo 153624" transform="translate(10.521 25.727)">
                  <path id="Trazado_206713" data-name="Trazado 206713" d="M256.979,148.028l.889,7.353-3.893-2.248.923-6.307Z" transform="translate(-253.974 -146.826)" fill="#18181a"/>
                </g>
                <g id="Grupo_153625" data-name="Grupo 153625" transform="translate(8.831 18.814)">
                  <path id="Trazado_206714" data-name="Trazado 206714" d="M252.277,136.191l2.7,4.4-1.627.416-.933.236a32.756,32.756,0,0,1-1.114-5.355C251.9,136.053,252.258,136.184,252.277,136.191Z" transform="translate(-251.299 -135.885)" fill="#e2e5e8"/>
                </g>
                <g id="Grupo_153626" data-name="Grupo 153626" transform="translate(0 18.154)">
                  <path id="Trazado_206715" data-name="Trazado 206715" d="M248.2,140.619l.567,1.8-.923,6.307-10.521-6.074c.119-1.4.275-3.362.49-4.96.529-3.965,6.058-2.831,8.341-2.186a32.754,32.754,0,0,0,1.114,5.355Z" transform="translate(-237.324 -134.841)" fill="#fff"/>
                </g>
                <path id="Trazado_206716" data-name="Trazado 206716" d="M249.766,116.6l-.009,3.3c0,.016,0,.032,0,.048a9.79,9.79,0,0,0,1.959,5.416l-.008,2.881,2.7,4.39,2.679-1.3.008-2.842c1.2-.245,2-1.364,2.02-3.147,0-.016,0-.032,0-.047l.011-3.921,0-.666h0a5.562,5.562,0,0,0-.4-2.164,15.435,15.435,0,0,1-4.27-1.62,13.181,13.181,0,0,1-3.151-2.665,5.9,5.9,0,0,1-1.539,1.039l0,.614h0l0,.682m4.686,3.215-.251-.051.251.051.251.239Z" transform="translate(-241.901 -109.112)" fill="#fcd695"/>
                <g id="Grupo_153627" data-name="Grupo 153627" transform="translate(6.645 6.635)">
                  <path id="Trazado_206717" data-name="Trazado 206717" d="M249,116.8l.059.035-.011,3.922c0,.016,0,.032,0,.048a5.356,5.356,0,0,1-1.212-3.18,1.361,1.361,0,0,1,.212-.844C248.232,116.566,248.538,116.536,249,116.8Z" transform="translate(-247.84 -116.612)" fill="#f4bc69"/>
                </g>
              </g>
            </g>
          </g>
          <g id="Grupo_153643" data-name="Grupo 153643" transform="translate(45.316 45.586)">
            <g id="Grupo_153631" data-name="Grupo 153631" transform="translate(1.296 63.759)">
              <path id="Trazado_206718" data-name="Trazado 206718" d="M320.609,238.065l-.006,2.04-26.259-15.16.006-2.04Z" transform="translate(-294.345 -222.904)" fill="#c9c9c9"/>
            </g>
            <g id="Grupo_153632" data-name="Grupo 153632" transform="translate(1.314 57.424)">
              <path id="Trazado_206719" data-name="Trazado 206719" d="M320.638,228.038l-.006,2.04-26.259-15.16.006-2.04Z" transform="translate(-294.373 -212.878)" fill="#c9c9c9"/>
            </g>
            <g id="Grupo_153633" data-name="Grupo 153633" transform="translate(1.331 51.23)">
              <path id="Trazado_206720" data-name="Trazado 206720" d="M309.593,211.843l-.006,2.04L294.4,205.116l.006-2.04Z" transform="translate(-294.401 -203.075)" fill="#c9c9c9"/>
            </g>
            <g id="Grupo_153634" data-name="Grupo 153634" transform="translate(1.351 44.238)">
              <path id="Trazado_206721" data-name="Trazado 206721" d="M309.624,200.779l-.006,2.04-15.186-8.767.006-2.04Z" transform="translate(-294.433 -192.011)" fill="#c9c9c9"/>
            </g>
            <g id="Grupo_153641" data-name="Grupo 153641">
              <g id="Grupo_153640" data-name="Grupo 153640" transform="translate(3.714 11.954)">
                <g id="Grupo_153635" data-name="Grupo 153635" transform="translate(5.296)">
                  <path id="Trazado_206722" data-name="Trazado 206722" d="M314.38,142.478a11.138,11.138,0,0,1,4.862,8.812,15.26,15.26,0,0,0,.636,4.622c.693,2.394,1.505,8.086-1.671,8.318-.071-.068-.1-.1-.134-.126l-.206-.191c-1.058-.974-1.764-1.531-1.8-1.561l.008-2.743c1.161-.237,1.931-1.318,1.948-3.041.717.209,1.182-.967,1.184-1.707a2.3,2.3,0,0,0-1.114-2.088l-.055-.027,0-.666a17.45,17.45,0,0,1-4.443-5.181c-1.965,1.161-4.459.026-4.59-.033l0,.666-.059-.04c-.813-.469-1.12,0-1.122.8a5.158,5.158,0,0,0,1.171,3.066,9.466,9.466,0,0,0,1.891,5.231l-.008,2.77a16.76,16.76,0,0,0-1.841-.527c-.081-.023-.162-.039-.243-.057a10.545,10.545,0,0,1-1.58-10.173,9.875,9.875,0,0,0,.656-3.877c.009-3.3,2.212-4.727,4.9-3.178Z" transform="translate(-306.552 -140.92)" fill="#c95c12"/>
                </g>
                <g id="Grupo_153636" data-name="Grupo 153636" transform="translate(0 17.505)">
                  <path id="Trazado_206723" data-name="Trazado 206723" d="M322.493,191.3c.019.234.036.418.052.54L298.171,177.77c.016-.1.035-.267.055-.478.114-1.182.293-3.867.567-5.919.257-1.911,1.717-2.6,3.386-2.725a12.505,12.505,0,0,1,3.5.318l-.473,2.583,1.784,1.03-.681,1.378,4.051,6.52,4.074-1.829-.675-2.16,1.789,1.033-.462-3.128a38.874,38.874,0,0,1,3.455,3.663c1.695,2.077,3.174,4.465,3.424,6.694C322.222,187.111,322.386,189.993,322.493,191.3Z" transform="translate(-298.171 -168.623)" fill="#fff"/>
                </g>
                <g id="Grupo_153637" data-name="Grupo 153637" transform="translate(6.565 5.947)">
                  <path id="Trazado_206724" data-name="Trazado 206724" d="M314.335,150.364a17.451,17.451,0,0,0,4.443,5.181l0,.666.055.027a2.3,2.3,0,0,1,1.114,2.088c0,.739-.467,1.916-1.184,1.707-.016,1.723-.786,2.8-1.947,3.041a3.594,3.594,0,0,1-2.481-.555l-.2-.113a8.421,8.421,0,0,1-2.512-2.355,9.466,9.466,0,0,1-1.891-5.231,5.158,5.158,0,0,1-1.171-3.066c0-.8.31-1.266,1.122-.8l.059.04,0-.666C309.876,150.39,312.37,151.526,314.335,150.364Z" transform="translate(-308.561 -150.331)" fill="#fcd695"/>
                </g>
                <g id="Grupo_153638" data-name="Grupo 153638" transform="translate(9.62 15.667)">
                  <path id="Trazado_206725" data-name="Trazado 206725" d="M313.4,165.714a8.422,8.422,0,0,0,2.512,2.355l.2.113a3.6,3.6,0,0,0,2.481.555l-.008,2.743-2.605,7.863-2.584-10.848Z" transform="translate(-313.395 -165.714)" fill="#fcd695"/>
                </g>
                <g id="Grupo_153639" data-name="Grupo 153639" transform="translate(7.031 17.848)">
                  <path id="Trazado_206726" data-name="Trazado 206726" d="M317.077,172.761c.037.019.744.576,1.8,1.55.066.064.135.126.206.191l.095.087.462,3.13-1.789-1.033.675,2.16-4.074,1.829-4.051-6.52.681-1.378-1.784-1.03.473-2.583a.179.179,0,0,1,.032.005c.081.018.162.033.243.057a16.766,16.766,0,0,1,1.841.527l2.584,10.858Z" transform="translate(-309.298 -169.166)" fill="#e2e5e8"/>
                </g>
              </g>
              <path id="Trazado_206727" data-name="Trazado 206727" d="M323.684,140.065l-.1,35.953-3.253-1.878c-.107-1.309-.27-4.192-.531-6.553-.25-2.23-1.729-4.617-3.424-6.694a38.653,38.653,0,0,0-3.416-3.626c3.176-.233,2.365-5.925,1.671-8.318a15.262,15.262,0,0,1-.636-4.622,11.138,11.138,0,0,0-4.862-8.812l-1.616-.933c-2.684-1.549-4.886-.121-4.9,3.178a9.875,9.875,0,0,1-.656,3.877,10.545,10.545,0,0,0,1.58,10.173,12.656,12.656,0,0,0-3.528-.324c-1.669.129-3.129.815-3.386,2.725-.274,2.052-.453,4.737-.567,5.919l-3.769-2.176L292.4,122Z" transform="translate(-292.294 -122.001)" fill="#4cd6d2"/>
            </g>
            <path id="Trazado_206728" data-name="Trazado 206728" d="M324.419,208.978l-.027,9.472,7.422,4.285.027-9.472Z" transform="translate(-304.11 -154.019)" fill="#a0daf9"/>
            <g id="Grupo_153642" data-name="Grupo 153642" transform="translate(21.477 60.026)">
              <path id="Trazado_206729" data-name="Trazado 206729" d="M330.749,217.736l.86,1.484-3.256,1.85-2.07-3.58.865-.493,1.21,2.1Z" transform="translate(-326.283 -216.997)" fill="#fff"/>
            </g>
          </g>
          <g id="Grupo_153647" data-name="Grupo 153647" transform="translate(0.233)">
            <path id="Trazado_206730" data-name="Trazado 206730" d="M347.9,125.735c0-.116-.009-.233-.016-.351,0-.054-.009-.107-.013-.161,0-.023,0-.046-.005-.07,0-.041-.006-.082-.01-.123q-.017-.177-.039-.356c-.016-.121-.033-.243-.052-.365l0-.011,0-.015c-.018-.113-.037-.227-.059-.341s-.049-.253-.077-.379c-.01-.045-.021-.09-.032-.136l-.019-.08c-.013-.055-.025-.11-.039-.166-.032-.128-.066-.257-.1-.386-.027-.095-.055-.189-.083-.284-.005-.017-.009-.033-.015-.051l-.015-.05c-.039-.126-.078-.251-.121-.376s-.085-.248-.129-.372c-.009-.023-.018-.045-.026-.069l-.021-.056c-.028-.077-.057-.155-.087-.232-.046-.118-.094-.236-.142-.353-.035-.085-.073-.169-.109-.254l-.018-.044c-.008-.016-.014-.033-.021-.049q-.078-.176-.16-.351-.09-.192-.186-.384c-.009-.02-.02-.039-.03-.058l-.039-.075c-.052-.1-.1-.2-.157-.3-.068-.126-.14-.25-.21-.374-.036-.063-.07-.127-.106-.19-.015-.025-.028-.051-.043-.076-.064-.109-.135-.214-.2-.321-.1-.155-.19-.312-.291-.464-.016-.024-.031-.05-.047-.075-.148-.221-.3-.439-.457-.652l0,0h0q-.158-.215-.324-.425c-.088-.112-.178-.223-.269-.333l-.008-.009,0-.005q-.138-.167-.281-.329c-.093-.106-.188-.211-.283-.314l-.046-.048c-.016-.018-.034-.035-.051-.053-.066-.071-.133-.142-.2-.211q-.152-.155-.307-.3c-.031-.03-.063-.059-.095-.088l-.072-.067c-.051-.047-.1-.1-.152-.142q-.16-.144-.324-.282c-.047-.04-.1-.078-.143-.116l-.073-.059-.108-.088q-.158-.125-.319-.243c-.077-.057-.155-.111-.233-.165l-.043-.031-.04-.028q-.154-.105-.308-.2t-.308-.188l-.071-.042L232.139,50.854c-.077-.045-.154-.088-.231-.13-.1-.054-.2-.106-.3-.154-.064-.032-.128-.061-.192-.09l-.045-.021-.057-.027c-.1-.044-.194-.085-.291-.123s-.2-.076-.293-.111l-.05-.016-.044-.015c-.066-.022-.131-.044-.2-.064-.1-.03-.2-.058-.3-.083-.049-.012-.1-.021-.144-.032l-.061-.014-.092-.02c-.107-.021-.214-.039-.318-.052-.065-.009-.128-.014-.193-.02l-.066-.006-.064-.007c-.116-.008-.229-.011-.342-.011-.049,0-.1.005-.147.007l-.113.005c-.039,0-.079,0-.117.006a4.074,4.074,0,0,0-.419.061l-.008,0c-.031.006-.059.018-.09.025a3.629,3.629,0,0,0-.41.112c-.011,0-.02.011-.032.015a3.539,3.539,0,0,0-.557.258l-2.644,1.537a3.454,3.454,0,0,1,.557-.258,3.672,3.672,0,0,1,.442-.128c.031-.007.059-.018.09-.025a3.978,3.978,0,0,1,.543-.068l.113-.006a4.636,4.636,0,0,1,.552.011l.067.007a5.392,5.392,0,0,1,.6.093l.061.013a6.278,6.278,0,0,1,.641.179l.044.015q.34.117.691.276l.046.021c.238.11.478.234.721.374l108.512,62.65q.369.212.729.463l.042.03q.335.234.66.5l.073.06q.314.258.618.54l.071.066q.309.29.6.6l.049.051c.21.225.416.457.615.7l.006.008q.306.369.595.76l0,0c.174.236.342.48.5.727.1.153.2.31.293.466.081.131.164.261.242.395.037.063.071.127.107.191.126.223.249.448.365.675.013.026.027.051.04.077q.21.417.4.842l.018.044q.182.417.338.839l.021.057q.158.432.29.866c.006.017.01.033.015.051q.125.418.223.835c.006.027.012.053.018.08q.1.429.167.856l0,.015c.046.287.08.572.1.855,0,.023,0,.046.005.069.023.283.035.564.034.841l-.01,3.623,2.645-1.537.01-3.623C347.9,125.954,347.9,125.845,347.9,125.735Z" transform="translate(-222.191 -49.858)" fill="#2b313d"/>
            <g id="Grupo_153646" data-name="Grupo 153646" transform="translate(0 1.537)">
              <g id="Grupo_153644" data-name="Grupo 153644">
                <path id="Trazado_206731" data-name="Trazado 206731" d="M336.764,115.937a15.986,15.986,0,0,1,7.251,12.559l-.01,3.623L220.948,61.071l.01-3.623c.013-4.614,3.278-6.48,7.294-4.162Z" transform="translate(-220.948 -52.29)" fill="#434751"/>
              </g>
              <g id="Grupo_153645" data-name="Grupo 153645" transform="translate(95.266 56.179)">
                <path id="Trazado_206732" data-name="Trazado 206732" d="M374.163,141.531a5.372,5.372,0,0,1,2.437,4.221c0,1.547-1.1,2.174-2.452,1.394a5.368,5.368,0,0,1-2.434-4.215C371.717,141.38,372.816,140.754,374.163,141.531Z" transform="translate(-371.713 -141.198)" fill="#20e5e5"/>
                <path id="Trazado_206733" data-name="Trazado 206733" d="M386.341,148.563a5.373,5.373,0,0,1,2.437,4.221c0,1.547-1.1,2.174-2.452,1.394a5.369,5.369,0,0,1-2.434-4.215C383.9,148.412,384.994,147.785,386.341,148.563Z" transform="translate(-376.196 -143.786)" fill="#fcb72b"/>
                <path id="Trazado_206734" data-name="Trazado 206734" d="M398.7,155.7a5.369,5.369,0,0,1,2.434,4.218c0,1.547-1.1,2.174-2.45,1.4a5.372,5.372,0,0,1-2.437-4.217C396.251,155.545,397.35,154.919,398.7,155.7Z" transform="translate(-380.744 -146.412)" fill="#fc5454"/>
              </g>
            </g>
          </g>
        </g>
        <g id="Grupo_153676" data-name="Grupo 153676" transform="translate(49.434 105.602)">
          <g id="Grupo_153657" data-name="Grupo 153657" transform="translate(16.492)">
            <g id="Grupo_153651" data-name="Grupo 153651">
              <g id="Grupo_153650" data-name="Grupo 153650">
                <path id="Trazado_206735" data-name="Trazado 206735" d="M146.519,219.134a.591.591,0,0,1,.15-.056.009.009,0,0,0,.008,0,.617.617,0,0,1,.168-.008.032.032,0,0,1,.015,0,.847.847,0,0,1,.171.035.381.381,0,0,0,.036.013,1.161,1.161,0,0,1,.193.089l12.176,7.028,1.016-.591,1.555-.9,1.016-.591-12.174-7.028c-.051-.028-.1-.053-.147-.074l-.046-.015c-.013-.005-.025-.008-.035-.013s-.028-.01-.041-.013a.582.582,0,0,0-.092-.02.192.192,0,0,0-.038,0,.026.026,0,0,0-.015,0l-.026,0h-.068l-.061.008c-.005,0-.008,0-.013,0l-.008,0-.039.008c-.018.008-.038.013-.056.02a.428.428,0,0,0-.051.025l-.005,0Z" transform="translate(-146.177 -216.98)" fill="#f47811"/>
                <path id="Trazado_206736" data-name="Trazado 206736" d="M167.106,230.489a1.32,1.32,0,0,1-.147-.073l3.588-2.086a1.181,1.181,0,0,0,.188.087l.037.013a.858.858,0,0,0,.169.037l.016,0a.621.621,0,0,0,.169-.007l.007,0a.488.488,0,0,0,.154-.057l-3.588,2.085-.006,0c-.016.009-.034.018-.052.025l-.054.019-.042.009-.006,0-.009,0a.49.49,0,0,1-.063.008c-.022,0-.045,0-.068,0l-.029,0h-.016l-.033,0a.7.7,0,0,1-.092-.02c-.015,0-.029-.01-.044-.015l-.037-.013Z" transform="translate(-153.701 -221.158)" fill="#f7a40f"/>
                <path id="Trazado_206737" data-name="Trazado 206737" d="M173.117,225.946a.871.871,0,0,0-.169-.037l-.016,0a.625.625,0,0,0-.169.008l-.008,0a.531.531,0,0,0-.155.057l3.588-2.085.006,0a.444.444,0,0,1,.052-.025.439.439,0,0,1,.055-.02.328.328,0,0,1,.042-.009l.008,0,.009,0c.021,0,.042-.006.063-.007a.51.51,0,0,1,.07,0l.027,0,.016,0,.035,0a.892.892,0,0,1,.092.02l.042.015.036.013c.014.005.028.008.042.015a1.2,1.2,0,0,1,.146.072l7.006,4.045-3.588,2.085-7.007-4.045a1.155,1.155,0,0,0-.188-.087Z" transform="translate(-155.778 -219.497)" fill="#f47811"/>
                <path id="Trazado_206738" data-name="Trazado 206738" d="M185.845,253.221l.053-18.895a1.544,1.544,0,0,0-.019-.238c0-.013,0-.025-.006-.038a2.134,2.134,0,0,0-.052-.227l-.007-.021a2.3,2.3,0,0,0-.09-.245l0,0a2.579,2.579,0,0,0-.123-.243l0-.006a2.442,2.442,0,0,0-.145-.222l-.015-.02a2.227,2.227,0,0,0-.152-.182l-.035-.037c-.042-.044-.086-.083-.131-.122-.02-.018-.04-.037-.06-.053a1.672,1.672,0,0,0-.2-.136l3.588-2.085a1.616,1.616,0,0,1,.2.135l.06.053c.031.027.062.052.092.081l.039.042.035.037c.013.014.027.027.04.042.029.033.057.068.085.1l.027.037.015.02.027.037c.021.03.041.059.061.09s.036.059.054.088l0,.007,0,.006.041.074c.016.03.03.059.045.088s.025.054.037.08l0,.005,0,.005c.014.031.027.062.039.094s.024.065.035.1c.006.016.01.033.015.049l.006.021.011.036c.011.04.021.08.029.119s.008.048.012.072.005.025.007.038,0,.023.006.035a1.6,1.6,0,0,1,.013.2l-.054,18.895a.725.725,0,0,1-.3.665l-3.588,2.085A.726.726,0,0,0,185.845,253.221Z" transform="translate(-160.292 -221.937)" fill="#f7a40f"/>
                <path id="Trazado_206739" data-name="Trazado 206739" d="M173.139,227.124h-.015a.073.073,0,0,1,.033,0Z" transform="translate(-155.971 -220.714)" fill="#c5c5c5"/>
                <g id="Grupo_153649" data-name="Grupo 153649" transform="translate(0 2.085)">
                  <path id="Trazado_206740" data-name="Trazado 206740" d="M163.541,224.743a.674.674,0,0,0-.848.012l-2.61,2.684a.668.668,0,0,1-.848.014l-12.175-7.03c-.576-.332-1.042-.066-1.044.595l-.039,13.708a2.281,2.281,0,0,0,1.037,1.795l23.473,13.552c.574.331,1.042.066,1.044-.593l.053-18.895a2.287,2.287,0,0,0-1.036-1.8Z" transform="translate(-145.978 -220.279)" fill="#fcb72b"/>
                </g>
              </g>
            </g>
            <g id="Grupo_153656" data-name="Grupo 153656" transform="translate(16.352 10.334)">
              <g id="Grupo_153652" data-name="Grupo 153652" transform="translate(0.611)">
                <path id="Trazado_206741" data-name="Trazado 206741" d="M176.541,240.009v-.587c.249-.051.415-.282.419-.651.153.046.252-.208.252-.367a.569.569,0,0,0-.059-.259,1.6,1.6,0,0,0,.071-.591,2.882,2.882,0,0,0-.442-1.22c-.005-.007-.1-.118-.246-.266a2.618,2.618,0,0,0-.548-.43,1.553,1.553,0,0,0-.548-.2,1.387,1.387,0,0,0-.248-.02c-.219-.023-.409.444-.446.708a2.435,2.435,0,0,0,.073.7.273.273,0,0,0-.044.173,1.114,1.114,0,0,0,.251.659,2.045,2.045,0,0,0,.405,1.12v.593s-.077-.028-.2-.062c-.471-.134-1.615-.368-1.725.452-.044.329-.076.733-.1,1.021l-.577-.334.018-6.663a.448.448,0,0,1,.672-.387l5.144,2.971a1.311,1.311,0,0,1,.655,1.139l-.019,6.676-.734-.424c-.022-.316-.052-.756-.095-1.135a4.983,4.983,0,0,0-1.713-2.435c-.109-.095-.185-.155-.205-.173,0,0-.005,0-.005,0" transform="translate(-172.824 -233.334)" fill="#fff"/>
                <path id="Trazado_206742" data-name="Trazado 206742" d="M176.627,242.783" transform="translate(-174.224 -236.812)" fill="#fff"/>
                <path id="Trazado_206743" data-name="Trazado 206743" d="M179.371,241.922" transform="translate(-175.234 -236.495)" fill="#fff"/>
              </g>
              <g id="Grupo_153653" data-name="Grupo 153653" transform="translate(0 9.249)">
                <path id="Trazado_206744" data-name="Trazado 206744" d="M178.9,252.039l-7.046-4.067v.431l7.046,4.067Z" transform="translate(-171.856 -247.971)" fill="#fff"/>
              </g>
              <g id="Grupo_153654" data-name="Grupo 153654" transform="translate(2.465 12.742)">
                <path id="Trazado_206745" data-name="Trazado 206745" d="M180.34,256.144l-4.582-2.645v.432l4.58,2.645Z" transform="translate(-175.758 -253.499)" fill="#fff"/>
              </g>
              <g id="Grupo_153655" data-name="Grupo 153655" transform="translate(2.465 14.702)">
                <path id="Trazado_206746" data-name="Trazado 206746" d="M180.34,259.246l-4.582-2.645v.432l4.58,2.645Z" transform="translate(-175.758 -256.601)" fill="#fff"/>
              </g>
            </g>
          </g>
          <g id="Grupo_153666" data-name="Grupo 153666" transform="translate(8.597 4.824)">
            <g id="Grupo_153660" data-name="Grupo 153660">
              <g id="Grupo_153659" data-name="Grupo 153659">
                <path id="Trazado_206747" data-name="Trazado 206747" d="M134.025,226.767a.59.59,0,0,1,.15-.056.009.009,0,0,0,.008,0,.592.592,0,0,1,.168-.008.026.026,0,0,1,.015,0,.844.844,0,0,1,.171.035.361.361,0,0,0,.036.013,1.189,1.189,0,0,1,.193.089l12.176,7.028,1.016-.59,1.555-.9,1.016-.591-12.174-7.028a1.46,1.46,0,0,0-.147-.074l-.046-.015c-.013-.005-.025-.008-.035-.013s-.028-.011-.041-.013a.578.578,0,0,0-.092-.02.191.191,0,0,0-.038,0,.032.032,0,0,0-.015,0l-.026,0h-.068l-.061.008c-.005,0-.008,0-.013,0l-.008,0-.039.008c-.018.008-.038.013-.056.021a.483.483,0,0,0-.051.025l-.005,0Z" transform="translate(-133.683 -224.614)" fill="#f47811"/>
                <path id="Trazado_206748" data-name="Trazado 206748" d="M154.612,238.122a1.209,1.209,0,0,1-.147-.073l3.588-2.085a1.174,1.174,0,0,0,.188.087l.037.013a.815.815,0,0,0,.169.038l.016,0a.645.645,0,0,0,.169-.008h.007a.521.521,0,0,0,.154-.057l-3.588,2.085-.006,0a.437.437,0,0,1-.052.025.392.392,0,0,1-.054.019c-.014,0-.028.007-.042.01h-.006l-.009,0c-.02,0-.041.006-.063.007a.61.61,0,0,1-.068,0l-.029,0-.016,0-.033,0a.835.835,0,0,1-.092-.02c-.015,0-.029-.01-.044-.015l-.036-.012Z" transform="translate(-141.207 -228.792)" fill="#f7a40f"/>
                <path id="Trazado_206749" data-name="Trazado 206749" d="M160.623,233.58a.83.83,0,0,0-.169-.038h-.016a.6.6,0,0,0-.169.008h-.008a.515.515,0,0,0-.155.058l3.588-2.085.006,0a.445.445,0,0,1,.052-.026.56.56,0,0,1,.055-.02l.042-.009h.008l.009,0a.525.525,0,0,1,.063-.008c.023,0,.046,0,.07,0l.027,0h.016l.035,0a.754.754,0,0,1,.092.02l.042.015.036.012.042.015a1.3,1.3,0,0,1,.146.073l7.006,4.045-3.588,2.085-7.007-4.045a1.161,1.161,0,0,0-.188-.087Z" transform="translate(-143.284 -227.131)" fill="#f47811"/>
                <path id="Trazado_206750" data-name="Trazado 206750" d="M173.351,260.855l.053-18.895a1.552,1.552,0,0,0-.019-.239c0-.012,0-.025-.006-.037a2.127,2.127,0,0,0-.052-.227l-.007-.021a2.351,2.351,0,0,0-.09-.246l0,0a2.589,2.589,0,0,0-.123-.243l0-.006a2.354,2.354,0,0,0-.145-.222l-.015-.02a2.13,2.13,0,0,0-.152-.183l-.035-.037c-.042-.044-.086-.083-.131-.123-.02-.018-.039-.037-.06-.053a1.616,1.616,0,0,0-.2-.135l3.588-2.085a1.625,1.625,0,0,1,.2.135c.02.016.04.035.06.053s.063.051.092.081c.014.013.026.028.039.041l.035.037c.013.015.027.028.04.042.029.033.058.068.085.1l.027.037.015.02.028.037c.02.029.04.059.06.09l.054.088,0,.007,0,.007c.014.025.028.049.041.074s.03.059.045.088.025.053.037.08l0,.005,0,.005c.014.031.027.062.039.093s.024.066.035.1c.006.016.01.033.015.049l.006.021.011.036c.011.04.021.08.029.119.005.024.008.048.012.072s.005.025.007.037,0,.023.006.035a1.493,1.493,0,0,1,.013.2l-.054,18.895a.726.726,0,0,1-.3.665l-3.588,2.085A.728.728,0,0,0,173.351,260.855Z" transform="translate(-147.798 -229.571)" fill="#f7a40f"/>
                <path id="Trazado_206751" data-name="Trazado 206751" d="M160.645,234.757h-.015a.073.073,0,0,1,.033,0Z" transform="translate(-143.477 -228.348)" fill="#c5c5c5"/>
                <g id="Grupo_153658" data-name="Grupo 153658" transform="translate(0 2.085)">
                  <path id="Trazado_206752" data-name="Trazado 206752" d="M151.047,232.377a.674.674,0,0,0-.848.011l-2.61,2.684a.668.668,0,0,1-.848.013l-12.175-7.029c-.576-.332-1.042-.067-1.044.595l-.039,13.708a2.281,2.281,0,0,0,1.037,1.794l23.473,13.552c.574.331,1.042.066,1.044-.593l.053-18.895a2.284,2.284,0,0,0-1.036-1.8Z" transform="translate(-133.484 -227.913)" fill="#fcb72b"/>
                </g>
              </g>
            </g>
            <g id="Grupo_153665" data-name="Grupo 153665" transform="translate(16.352 10.293)">
              <g id="Grupo_153661" data-name="Grupo 153661" transform="translate(0 9.29)">
                <path id="Trazado_206753" data-name="Trazado 206753" d="M166.409,259.672l-7.046-4.068v.431l7.046,4.068Z" transform="translate(-159.362 -255.605)" fill="#fff"/>
              </g>
              <g id="Grupo_153662" data-name="Grupo 153662" transform="translate(2.465 12.783)">
                <path id="Trazado_206754" data-name="Trazado 206754" d="M167.846,263.778l-4.582-2.645v.432l4.58,2.645Z" transform="translate(-163.264 -261.133)" fill="#fff"/>
              </g>
              <g id="Grupo_153663" data-name="Grupo 153663" transform="translate(2.465 14.743)">
                <path id="Trazado_206755" data-name="Trazado 206755" d="M167.846,266.88l-4.582-2.645v.432l4.58,2.645Z" transform="translate(-163.264 -264.234)" fill="#fff"/>
              </g>
              <g id="Grupo_153664" data-name="Grupo 153664" transform="translate(0.452)">
                <path id="Trazado_206756" data-name="Trazado 206756" d="M166.694,244.966l-.02,7-.851-.491c-.018-.173-.044-.645-.085-1.11-.01-.119-.021-.238-.034-.351a1.714,1.714,0,0,0-.119-.448,3.875,3.875,0,0,0-.6-.963,8.061,8.061,0,0,0-.728-.773l-.064-.059-.046-.042c-.076-.069-.142-.127-.2-.173-.082-.07-.133-.111-.138-.115v-.181a.9.9,0,0,0,.9-.056,7.663,7.663,0,0,0-.2-2.116,2.612,2.612,0,0,0-1.1-1.92,1.166,1.166,0,0,0-.652-.178.914.914,0,0,0-.167-.126c-.221-.127-.579-.185-.579.792a5.3,5.3,0,0,1-.246,1.917,3.889,3.889,0,0,0,.953,1.063v.172l-.025-.009c-.03-.01-.086-.028-.159-.049-.057-.017-.127-.035-.2-.054a3.6,3.6,0,0,0-.411-.07,2.046,2.046,0,0,0-.383-.009.683.683,0,0,0-.7.483.749.749,0,0,0-.017.09c-.064.481-.1,1.129-.128,1.319l-.614-.354.019-6.8a.452.452,0,0,1,.678-.39l5.415,3.127A1.008,1.008,0,0,1,166.694,244.966Z" transform="translate(-160.078 -240.903)" fill="#fff"/>
              </g>
            </g>
          </g>
          <g id="Grupo_153675" data-name="Grupo 153675" transform="translate(0 9.697)">
            <g id="Grupo_153669" data-name="Grupo 153669">
              <g id="Grupo_153668" data-name="Grupo 153668">
                <path id="Trazado_206757" data-name="Trazado 206757" d="M120.418,234.48a.581.581,0,0,1,.15-.056.009.009,0,0,0,.008,0,.616.616,0,0,1,.168-.008.032.032,0,0,1,.015,0,.846.846,0,0,1,.171.035.317.317,0,0,0,.036.013,1.272,1.272,0,0,1,.193.089l12.176,7.029,1.015-.591,1.556-.9,1.015-.591-12.173-7.028a1.46,1.46,0,0,0-.147-.074l-.046-.015c-.013-.005-.025-.008-.035-.013s-.028-.01-.041-.013a.518.518,0,0,0-.092-.021.191.191,0,0,0-.038,0,.032.032,0,0,0-.015,0l-.026,0h-.068l-.061.008c-.005,0-.008,0-.013,0l-.008,0-.039.008c-.018.008-.038.013-.056.02a.425.425,0,0,0-.051.025l-.005,0Z" transform="translate(-120.077 -232.326)" fill="#f47811"/>
                <path id="Trazado_206758" data-name="Trazado 206758" d="M141.006,245.834a1.213,1.213,0,0,1-.147-.073l3.588-2.085a1.238,1.238,0,0,0,.188.087l.037.012a.809.809,0,0,0,.168.038l.016,0a.62.62,0,0,0,.169-.007l.007,0a.5.5,0,0,0,.154-.058l-3.588,2.085-.006,0a.394.394,0,0,1-.052.025.557.557,0,0,1-.054.02l-.042.009-.007,0-.009,0a.5.5,0,0,1-.063.007.49.49,0,0,1-.068,0l-.029,0-.016,0-.033,0a.7.7,0,0,1-.092-.02c-.015,0-.029-.01-.044-.015l-.037-.012C141.033,245.843,141.02,245.84,141.006,245.834Z" transform="translate(-127.601 -236.504)" fill="#f7a40f"/>
                <path id="Trazado_206759" data-name="Trazado 206759" d="M147.017,241.292a.873.873,0,0,0-.169-.038h-.016a.625.625,0,0,0-.169.008l-.008,0a.491.491,0,0,0-.155.058l3.588-2.085.006,0a.5.5,0,0,1,.107-.045l.042-.009h.007l.01,0a.525.525,0,0,1,.063-.008c.023,0,.045,0,.07,0l.027,0h.016l.035,0a.741.741,0,0,1,.093.02l.042.015.036.012.042.015a1.3,1.3,0,0,1,.146.073l7.006,4.045-3.588,2.085-7.006-4.045a1.155,1.155,0,0,0-.188-.087Z" transform="translate(-129.678 -234.843)" fill="#f47811"/>
                <path id="Trazado_206760" data-name="Trazado 206760" d="M159.744,268.567l.054-18.895a1.536,1.536,0,0,0-.019-.238c0-.013,0-.025-.007-.038a1.865,1.865,0,0,0-.052-.227l-.006-.021a2.3,2.3,0,0,0-.09-.245l0,0a2.432,2.432,0,0,0-.123-.243l0-.006a2.487,2.487,0,0,0-.145-.222l-.015-.02a2.348,2.348,0,0,0-.152-.183l-.035-.037c-.042-.044-.086-.083-.131-.123-.02-.017-.04-.036-.06-.052a1.624,1.624,0,0,0-.2-.136l3.588-2.085a1.564,1.564,0,0,1,.2.135c.021.016.04.035.061.053s.062.052.092.081l.039.042.035.037c.013.015.027.028.04.043.029.033.058.068.085.1l.027.037.015.02.027.037c.021.03.041.059.061.09s.036.058.054.088l0,.006,0,.007.041.074c.016.029.03.059.045.088s.025.053.037.08l0,.005,0,.005c.013.031.027.062.039.093s.024.066.035.1c.006.016.01.032.015.049l.006.021.011.035c.011.04.02.08.029.119.005.024.008.048.012.072s.005.025.007.038,0,.023.006.034a1.61,1.61,0,0,1,.013.2l-.054,18.895a.725.725,0,0,1-.3.665l-3.588,2.085A.725.725,0,0,0,159.744,268.567Z" transform="translate(-134.191 -237.283)" fill="#f7a40f"/>
                <path id="Trazado_206761" data-name="Trazado 206761" d="M147.039,242.47h-.015a.073.073,0,0,1,.033,0Z" transform="translate(-129.871 -236.06)" fill="#c5c5c5"/>
                <g id="Grupo_153667" data-name="Grupo 153667" transform="translate(0 2.085)">
                  <path id="Trazado_206762" data-name="Trazado 206762" d="M137.441,240.089a.676.676,0,0,0-.849.011l-2.609,2.684a.668.668,0,0,1-.848.013l-12.175-7.029c-.576-.332-1.042-.066-1.044.595l-.039,13.708a2.279,2.279,0,0,0,1.037,1.794l23.473,13.552c.574.332,1.042.067,1.043-.593l.054-18.895a2.285,2.285,0,0,0-1.037-1.8Z" transform="translate(-119.878 -235.625)" fill="#fcb72b"/>
                </g>
              </g>
            </g>
            <g id="Grupo_153674" data-name="Grupo 153674" transform="translate(16.352 10.293)">
              <g id="Grupo_153670" data-name="Grupo 153670" transform="translate(0 9.29)">
                <path id="Trazado_206763" data-name="Trazado 206763" d="M152.8,267.385l-7.046-4.067v.431l7.046,4.067Z" transform="translate(-145.756 -263.317)" fill="#fff"/>
              </g>
              <g id="Grupo_153671" data-name="Grupo 153671" transform="translate(2.465 12.783)">
                <path id="Trazado_206764" data-name="Trazado 206764" d="M154.24,271.49l-4.582-2.645v.432l4.58,2.645Z" transform="translate(-149.658 -268.845)" fill="#fff"/>
              </g>
              <g id="Grupo_153672" data-name="Grupo 153672" transform="translate(2.465 14.743)">
                <path id="Trazado_206765" data-name="Trazado 206765" d="M154.24,274.592l-4.582-2.645v.432l4.58,2.645Z" transform="translate(-149.658 -271.947)" fill="#fff"/>
              </g>
              <g id="Grupo_153673" data-name="Grupo 153673" transform="translate(0.452)">
                <path id="Trazado_206766" data-name="Trazado 206766" d="M153.087,252.679l-.02,6.995-.851-.491c-.018-.172-.044-.644-.085-1.109-.01-.119-.021-.239-.034-.352a1.715,1.715,0,0,0-.119-.448,3.876,3.876,0,0,0-.6-.963,8.059,8.059,0,0,0-.729-.773l-.063-.059-.046-.042c-.076-.068-.142-.126-.2-.172-.082-.071-.133-.112-.138-.116v-.181a.9.9,0,0,0,.9-.056,7.691,7.691,0,0,0-.2-2.116,2.611,2.611,0,0,0-1.1-1.92,1.153,1.153,0,0,0-.652-.178.856.856,0,0,0-.167-.126c-.221-.127-.579-.185-.58.792a5.292,5.292,0,0,1-.246,1.918,3.891,3.891,0,0,0,.953,1.062v.172l-.025-.008c-.03-.011-.086-.028-.159-.049-.058-.016-.127-.035-.2-.054a3.627,3.627,0,0,0-.411-.069,2.05,2.05,0,0,0-.384-.009.683.683,0,0,0-.7.483.8.8,0,0,0-.017.09c-.064.482-.1,1.129-.128,1.319l-.614-.354.019-6.8a.452.452,0,0,1,.677-.39l5.415,3.127A1.006,1.006,0,0,1,153.087,252.679Z" transform="translate(-146.472 -248.615)" fill="#fff"/>
              </g>
            </g>
          </g>
        </g>
        <g id="Grupo_153686" data-name="Grupo 153686" transform="translate(140.051 181.814)">
          <g id="Grupo_153683" data-name="Grupo 153683" transform="translate(19.548)">
            <path id="Trazado_206767" data-name="Trazado 206767" d="M311.083,349.185a5,5,0,0,0-.236-1.292c-.042-.126-.105-.25-.157-.375a6.608,6.608,0,0,0-1.222-1.9A10.613,10.613,0,0,0,306.9,343.6c-.336-.194-.686-.375-1.046-.545-.12-.057-.247-.107-.369-.161-.213-.095-.423-.193-.642-.279-.038-.015-.077-.028-.115-.042-.082-.032-.165-.06-.248-.09q-.427-.157-.866-.3c-.1-.032-.2-.064-.3-.094-.068-.02-.133-.044-.2-.063-.119-.034-.244-.057-.365-.089-.293-.078-.587-.152-.887-.217-.08-.018-.156-.041-.236-.058-.117-.024-.238-.039-.355-.061-.25-.048-.5-.092-.755-.131-.1-.016-.2-.039-.3-.053s-.224-.023-.335-.037c-.237-.03-.473-.056-.711-.08-.114-.011-.226-.028-.34-.038s-.213-.009-.319-.017c-.241-.016-.481-.029-.722-.039-.121-.005-.242-.016-.363-.02-.1,0-.193,0-.29,0-.261,0-.521,0-.782,0-.13,0-.259,0-.389,0-.076,0-.152.012-.229.015-.322.014-.643.038-.963.064-.13.011-.26.013-.389.026-.04,0-.078.012-.119.016-.546.057-1.087.131-1.621.226-.026.005-.053.006-.079.011-.155.028-.306.067-.461.1-.263.054-.528.106-.787.169-.19.046-.374.1-.56.151-.246.067-.493.133-.734.209-.052.016-.107.028-.158.045q-.441.143-.866.306c-.041.016-.081.034-.122.05-.312.121-.615.252-.912.389l-.262.123c-.33.16-.653.325-.962.506-.059.033-.116.068-.174.1s-.1.07-.156.1q-.351.218-.67.447c-.082.059-.164.118-.243.178-.236.179-.459.362-.667.55-.021.02-.047.037-.068.057l-.016.016c-.044.04-.082.083-.124.124-.13.125-.256.251-.373.378-.057.063-.108.126-.162.189-.069.081-.144.161-.209.243-.025.032-.046.064-.07.1-.039.052-.076.1-.114.156q-.132.184-.248.37c-.032.051-.064.1-.094.151-.016.027-.034.052-.049.079-.08.14-.152.282-.217.425-.011.023-.019.046-.029.069-.047.106-.094.21-.133.317-.011.028-.014.056-.024.083s-.036.085-.05.128v.047a5.262,5.262,0,0,0-.156.545l-.705,1.336.691,3.7a5.184,5.184,0,0,1,.206-.72c.048-.134.1-.267.157-.4.011-.023.018-.046.029-.069.078-.169.169-.337.266-.5.03-.051.062-.1.094-.151.078-.124.16-.248.248-.37.038-.052.075-.1.114-.156.087-.114.181-.226.277-.338.054-.063.1-.126.162-.188.117-.128.244-.254.373-.379.042-.041.08-.083.124-.124.027-.025.058-.048.084-.072.207-.188.431-.371.667-.551.079-.059.161-.118.243-.178.212-.152.437-.3.67-.447.111-.069.214-.14.329-.207.31-.179.633-.346.962-.505l.262-.123c.3-.137.6-.268.912-.389.042-.016.082-.034.123-.05.333-.127.676-.242,1.023-.351.241-.076.488-.143.735-.21.186-.051.371-.1.56-.15.26-.063.525-.115.79-.169.179-.036.356-.077.536-.109.533-.095,1.075-.169,1.621-.226.168-.018.337-.028.506-.042.321-.027.642-.05.965-.064.2-.009.41-.013.616-.017.261,0,.522-.007.783,0,.218,0,.435.009.653.018q.362.014.722.039c.221.015.44.034.659.054q.357.035.712.08.32.04.637.09c.254.039.505.084.756.131.2.038.395.077.591.119.3.066.593.14.886.217.19.05.38.1.567.152.1.03.2.062.3.094q.44.138.866.3c.082.03.167.059.248.091.258.1.507.21.756.321.123.054.25.1.37.161.36.171.71.351,1.046.546a12.038,12.038,0,0,1,1.22.814,9.591,9.591,0,0,1,1.316,1.167c.009.011.021.02.031.03.109.119.195.243.293.365s.21.246.3.373a5.68,5.68,0,0,1,.946,2.181c.01.051.029.1.037.151.024.147.025.294.035.442.009.118.029.236.028.354l.015-5.041h0C311.107,349.381,311.089,349.283,311.083,349.185Z" transform="translate(-274.435 -338.916)" fill="#cccece"/>
            <g id="Grupo_153677" data-name="Grupo 153677" transform="translate(7.682 16.305)">
              <path id="Trazado_206768" data-name="Trazado 206768" d="M282.829,363.394l-.014,5.041-.622.361.014-5.041Z" transform="translate(-282.193 -363.394)" fill="#3f2e26"/>
            </g>
            <g id="Grupo_153678" data-name="Grupo 153678" transform="translate(8.304 16.305)">
              <path id="Trazado_206769" data-name="Trazado 206769" d="M287.455,365.856l-.014,5.041-4.264-2.462.014-5.041Z" transform="translate(-283.176 -363.394)" fill="#2c201a"/>
            </g>
            <g id="Grupo_153679" data-name="Grupo 153679" transform="translate(11.962 18.767)">
              <path id="Trazado_206770" data-name="Trazado 206770" d="M289.586,367.29l-.014,5.041-.606.352.014-5.041Z" transform="translate(-288.966 -367.29)" fill="#3f2e26"/>
            </g>
            <path id="Trazado_206771" data-name="Trazado 206771" d="M307.256,343.6c5.583,3.223,5.612,8.452.062,11.678s-14.574,3.223-20.156,0-5.616-8.454-.069-11.677S301.67,340.373,307.256,343.6Z" transform="translate(-274.79 -338.912)" fill="#fff" opacity="0.29" style="mix-blend-mode: overlay;isolation: isolate"/>
            <g id="Grupo_153680" data-name="Grupo 153680" transform="translate(4.233 10.471)">
              <path id="Trazado_206772" data-name="Trazado 206772" d="M276.749,354.162l-.014,5.041a6.882,6.882,0,0,0,1.343,4,10.81,10.81,0,0,0,2.105,2.2l.015-5.041C277.893,358.513,276.743,356.336,276.749,354.162Z" transform="translate(-276.735 -354.162)" fill="#08afaa"/>
              <path id="Trazado_206773" data-name="Trazado 206773" d="M317.576,354.647c-.005.091-.011.182-.02.273s-.019.16-.03.24-.026.181-.042.27-.032.161-.051.241-.04.176-.064.264-.045.161-.07.241-.056.175-.087.262-.057.157-.088.235-.075.183-.116.275-.069.154-.107.23-.091.181-.14.272c-.04.074-.08.148-.123.221-.063.107-.13.214-.2.321-.042.065-.083.131-.127.2-.081.118-.167.234-.256.351-.039.051-.075.1-.116.154-.147.185-.3.368-.471.55-.043.047-.089.092-.133.138q-.2.207-.412.41c-.065.061-.131.123-.2.185-.085.076-.174.153-.263.229s-.165.14-.251.209-.188.148-.284.222-.179.136-.272.2-.2.144-.306.215-.192.132-.291.2-.219.14-.33.209c-.139.086-.276.173-.421.257-.359.209-.732.4-1.113.591-.117.057-.237.112-.356.167q-.415.193-.844.372c-.131.054-.262.108-.394.16q-.48.187-.975.354c-.092.031-.181.065-.273.095-.141.046-.288.083-.43.127-.377.115-.755.226-1.141.324-.194.049-.391.092-.587.136-.34.079-.681.154-1.027.22-.294.056-.588.109-.885.155-.127.02-.253.043-.381.061-.453.066-.909.123-1.368.167-.6.059-1.21.1-1.819.121-.194.008-.388.008-.582.013-.382.008-.765.011-1.147.005-.222,0-.444-.011-.665-.019q-.514-.019-1.026-.054c-.224-.016-.448-.032-.671-.052-.348-.032-.693-.073-1.038-.116-.208-.027-.416-.05-.622-.081-.437-.064-.869-.142-1.3-.226-.122-.023-.246-.042-.368-.067-.582-.122-1.154-.264-1.717-.421-.4-.111-.79-.228-1.175-.356l-.069-.021q-.692-.233-1.355-.5h0l-.014,5.041.267.107q.535.21,1.089.4l.068.022c.341.114.687.222,1.038.322.046.013.094.021.139.034.563.157,1.135.3,1.717.421l.049.012c.1.021.214.035.319.056.429.083.861.161,1.3.226.06.009.118.022.178.031.147.021.3.031.444.049.346.044.691.085,1.039.116.095.009.188.024.282.032.128.011.258.011.387.021.341.023.683.042,1.026.055.125,0,.25.017.375.02.1,0,.194,0,.291,0,.383.006.765,0,1.148-.005.141,0,.282,0,.423,0,.052,0,.1-.008.157-.011.609-.023,1.216-.062,1.819-.121l.037,0c.446-.045.889-.1,1.33-.166.128-.018.254-.04.381-.061.205-.033.411-.062.615-.1.092-.016.179-.04.27-.057.346-.066.688-.141,1.028-.22.2-.045.392-.087.585-.137.387-.1.766-.209,1.143-.324.116-.035.238-.063.353-.1l.075-.026c.093-.03.182-.064.274-.1q.495-.168.974-.354c.133-.052.264-.106.395-.16q.429-.177.844-.372c.119-.056.238-.109.355-.167.381-.187.754-.382,1.114-.591l.222-.131c.068-.041.131-.083.2-.125.112-.07.224-.14.332-.21s.193-.13.289-.2.208-.144.308-.217.181-.135.269-.2.193-.148.286-.224.167-.138.25-.208.178-.152.263-.229c.035-.032.074-.063.108-.095s.059-.06.09-.09q.215-.2.413-.411c.044-.046.089-.091.131-.137.167-.181.325-.365.472-.55l.02-.024c.033-.042.062-.086.094-.129.088-.117.176-.234.257-.352.044-.064.085-.13.127-.195.069-.107.137-.214.2-.322.018-.029.038-.058.055-.088s.044-.088.068-.131c.049-.091.1-.182.141-.273s.073-.153.107-.229q.062-.137.116-.275c.016-.041.037-.082.052-.124s.023-.074.037-.111c.031-.087.059-.174.087-.262s.049-.16.07-.24.045-.176.065-.265c.011-.048.025-.1.035-.144.006-.032.009-.064.015-.1.016-.09.03-.181.042-.271s.023-.16.03-.24.015-.182.02-.273c0-.054.01-.107.011-.161s0-.106,0-.159l.015-5.041C317.59,354.434,317.582,354.541,317.576,354.647Z" transform="translate(-281.237 -354.223)" fill="#08afaa"/>
            </g>
            <path id="Trazado_206774" data-name="Trazado 206774" d="M305.267,340.675c-7.123-4.112-18.621-4.112-25.7,0-6.367,3.7-6.971,9.468-1.831,13.582l-7.682,4.33,4.264,2.462,7.7-4.339h0c7.109,2.913,16.993,2.529,23.327-1.152C312.423,351.445,312.385,344.785,305.267,340.675Zm-2.7,13.28c-5.546,3.223-14.574,3.223-20.156,0s-5.616-8.454-.07-11.677,14.578-3.226,20.164,0S308.121,350.729,302.572,353.955Z" transform="translate(-270.044 -337.591)" fill="#4cd6d2"/>
            <g id="Grupo_153681" data-name="Grupo 153681" transform="translate(4.264 19.119)">
              <path id="Trazado_206775" data-name="Trazado 206775" d="M284.5,367.848l-.014,5.041-7.7,4.339.014-5.041Z" transform="translate(-276.783 -367.848)" fill="#08afaa"/>
            </g>
            <g id="Grupo_153682" data-name="Grupo 153682" transform="translate(0 20.996)">
              <path id="Trazado_206776" data-name="Trazado 206776" d="M274.314,373.28l-.014,5.041-4.264-2.462.014-5.041Z" transform="translate(-270.035 -370.818)" fill="#08afaa"/>
            </g>
          </g>
          <g id="Grupo_153685" data-name="Grupo 153685" transform="translate(0 20.108)">
            <path id="Trazado_206777" data-name="Trazado 206777" d="M265.867,375.945c0-.049,0-.1-.007-.15,0-.023,0-.047-.006-.071l0-.029c0-.017,0-.034,0-.051,0-.051-.01-.1-.016-.152s-.015-.1-.023-.157v-.016c-.008-.047-.016-.094-.025-.142s-.021-.108-.033-.162c0-.021-.009-.042-.015-.062l-.008-.034c-.006-.023-.01-.045-.016-.068-.014-.055-.028-.111-.044-.166s-.025-.085-.037-.128l-.006-.019-.006-.019c-.016-.054-.033-.108-.052-.162s-.036-.107-.056-.161l-.012-.032-.009-.025-.036-.1c-.02-.051-.04-.1-.062-.152s-.032-.075-.047-.112l-.008-.018-.008-.021c-.023-.051-.046-.1-.07-.152s-.052-.111-.08-.166l-.013-.025-.016-.032-.068-.131c-.029-.054-.059-.106-.089-.159l-.047-.085-.019-.033c-.027-.046-.057-.09-.085-.135-.042-.068-.083-.137-.128-.2-.007-.011-.013-.023-.021-.034-.059-.088-.12-.174-.182-.26l-.015-.021,0,0c-.046-.061-.092-.123-.14-.183s-.072-.09-.109-.135l-.008-.009,0-.006c-.04-.048-.08-.095-.121-.142s-.081-.09-.122-.135l-.016-.017-.02-.02c-.03-.033-.061-.065-.092-.1s-.087-.088-.131-.13l-.037-.034-.03-.028-.069-.064c-.045-.041-.092-.082-.138-.121l-.058-.047-.031-.025-.049-.04c-.045-.035-.09-.07-.136-.1s-.064-.046-.1-.069l-.019-.014-.019-.013c-.044-.03-.087-.059-.131-.087s-.087-.054-.131-.08l-.031-.018-1.471-.849-.1-.055c-.042-.023-.085-.045-.127-.066l-.084-.04-.019-.009-.022-.011-.124-.052q-.063-.026-.125-.047l-.025-.008-.02-.007-.08-.026c-.044-.013-.086-.025-.129-.035l-.066-.015-.026-.006-.036-.008c-.046-.009-.092-.016-.137-.023l-.087-.009-.027,0-.024,0c-.05,0-.1-.005-.148-.005-.022,0-.044,0-.066,0l-.049,0-.047,0a1.692,1.692,0,0,0-.181.027h0c-.017,0-.032.01-.049.013a1.559,1.559,0,0,0-.166.046l-.015.007a1.51,1.51,0,0,0-.241.111l-18.514,10.788a1.513,1.513,0,0,1,.241-.111,1.557,1.557,0,0,1,.18-.052c.017,0,.032-.01.049-.013a1.644,1.644,0,0,1,.233-.03l.049,0a1.883,1.883,0,0,1,.238,0l.027,0a2.268,2.268,0,0,1,.26.04l.026.006a2.684,2.684,0,0,1,.275.076l.02.007a3.151,3.151,0,0,1,.3.118l.019.009c.1.047.2.1.309.161l1.471.849q.158.091.312.2l.019.013c.1.066.19.138.282.212l.032.027q.135.111.265.232l.03.028q.133.125.261.261l.019.02c.09.1.178.2.263.3l.008.009q.129.155.25.32l.016.023c.07.095.137.192.2.291.044.067.085.135.128.2s.07.112.1.169l.047.083q.081.143.157.29l.017.033c.061.119.118.241.171.363l.008.018c.052.119.1.24.145.361l.009.025q.068.186.125.372l.006.021q.054.18.1.36l.008.035c.028.122.052.244.072.365l0,.01q.028.184.044.365l0,.03c.01.121.015.241.015.36s-.006.232-.016.341l0,.03c-.01.1-.025.2-.043.29l-.008.037a2.576,2.576,0,0,1-.067.258l-.015.046a2.325,2.325,0,0,1-.09.228l-.008.018a2.005,2.005,0,0,1-.126.228l-.023.032a1.689,1.689,0,0,1-.118.155c-.016.019-.032.036-.049.054a1.528,1.528,0,0,1-.118.113c-.016.015-.034.03-.051.044a1.519,1.519,0,0,1-.181.126l18.514-10.788a1.518,1.518,0,0,0,.181-.126c.017-.014.034-.03.051-.044a1.511,1.511,0,0,0,.118-.113l.049-.054a1.716,1.716,0,0,0,.118-.155c.008-.011.016-.021.023-.033l.006-.008a1.924,1.924,0,0,0,.118-.214l0-.005.008-.018c.023-.05.046-.1.065-.155.009-.023.016-.049.025-.073l.015-.046c.005-.015.01-.029.015-.044.015-.052.029-.1.042-.159,0-.018.007-.037.011-.056l.008-.037c0-.02.009-.039.012-.059.008-.049.016-.1.022-.148,0-.027.006-.054.009-.082l0-.03c0-.013,0-.025,0-.037,0-.047.007-.1.009-.146s0-.1,0-.149v-.009C265.87,376.039,265.869,375.992,265.867,375.945Z" transform="translate(-239.633 -369.413)" fill="#434751"/>
            <g id="Grupo_153684" data-name="Grupo 153684" transform="translate(0 10.788)">
              <path id="Trazado_206778" data-name="Trazado 206778" d="M243.708,387.761a6.887,6.887,0,0,1,3.115,5.4c-.005,1.974-1.415,2.78-3.135,1.786l-1.471-.849a6.892,6.892,0,0,1-3.116-5.4c.006-1.977,1.417-2.781,3.137-1.788Z" transform="translate(-239.1 -386.486)" fill="#2b313d"/>
            </g>
          </g>
        </g>
        <g id="Grupo_153707" data-name="Grupo 153707" transform="translate(119.193 107.473)">
          <g id="Grupo_153690" data-name="Grupo 153690">
            <g id="Grupo_153688" data-name="Grupo 153688">
              <g id="Grupo_153687" data-name="Grupo 153687" transform="translate(0.013)">
                <path id="Trazado_206779" data-name="Trazado 206779" d="M226.758,225.786c1.525.881,1.534,2.306.018,3.187l-8.922,5.185a6.056,6.056,0,0,1-5.5,0l-8.985-5.187c-1.522-.879-1.53-2.3-.014-3.184l8.922-5.186a6.056,6.056,0,0,1,5.5,0Z" transform="translate(-202.221 -219.94)" fill="#fc5454"/>
              </g>
              <path id="Trazado_206780" data-name="Trazado 206780" d="M227.9,231.719c0,.039-.006.076-.009.114s-.007.082-.014.122-.016.066-.025.1-.02.077-.034.116-.026.063-.04.095-.035.081-.057.121-.034.058-.052.087c-.028.046-.058.091-.092.136-.02.026-.041.052-.063.078a2.115,2.115,0,0,1-.164.176c-.022.021-.042.044-.066.064s-.079.066-.119.1-.07.058-.109.086-.094.063-.142.094-.095.064-.147.095l-8.922,5.185a4.3,4.3,0,0,1-.543.258c-.05.02-.1.039-.152.058-.118.042-.242.077-.365.112s-.257.07-.389.1c-.155.032-.312.061-.473.082l-.114.016c-.216.023-.435.034-.654.036h-.1c-.216,0-.432-.013-.646-.036l-.1-.011a6.308,6.308,0,0,1-.626-.107l-.111-.028a5.253,5.253,0,0,1-.54-.164c-.031-.011-.064-.02-.094-.032a4.27,4.27,0,0,1-.594-.28l-8.985-5.187a2.248,2.248,0,0,1-1.075-1.169,1.367,1.367,0,0,1-.071-.432h0l-.013,4.773a1.942,1.942,0,0,0,1.146,1.6l8.985,5.188a4.123,4.123,0,0,0,.562.269l.031.011c.031.012.063.021.094.032.114.042.228.083.348.118.063.018.129.032.193.047.037.009.073.019.111.027l.1.025q.191.039.385.067c.046.006.092.009.138.015l.1.011c.047.005.095.012.143.016q.191.016.382.021h.224c.058,0,.116,0,.174,0q.217-.008.431-.029l.049-.006c.039,0,.076-.011.116-.016.111-.014.222-.027.33-.046.049-.009.093-.025.141-.035.133-.028.262-.061.39-.1.068-.019.14-.03.206-.051s.105-.041.159-.06l.152-.057a4.248,4.248,0,0,0,.543-.258l8.923-5.185.047-.028c.035-.021.066-.044.1-.066s.1-.062.141-.094.073-.057.109-.086.082-.065.119-.1l.025-.02c.015-.015.026-.03.04-.044a2.234,2.234,0,0,0,.164-.176c.011-.013.026-.026.037-.039s.016-.027.027-.04c.033-.044.063-.09.091-.135.012-.02.028-.038.039-.057s.009-.02.014-.029c.021-.04.039-.08.057-.121.01-.023.024-.047.033-.071,0-.008,0-.016.007-.023.014-.039.023-.078.033-.117s.017-.052.022-.078c0-.007,0-.014,0-.021.008-.041.01-.082.014-.123s.008-.053.009-.08v-.034h0Z" transform="translate(-202.2 -224.269)" fill="#bf1919"/>
            </g>
            <g id="Grupo_153689" data-name="Grupo 153689" transform="translate(6.703 4.504)">
              <path id="Trazado_206781" data-name="Trazado 206781" d="M222.319,227.5a4.006,4.006,0,0,0-3.63,0c-.715.415-.912,1.015-.605,1.535a7.856,7.856,0,0,0-5.276.811l5.494,3.172c1.534-.939,2.045-2.171,1.384-3.058a4.012,4.012,0,0,0,2.649-.356,1.113,1.113,0,0,0-.016-2.1" transform="translate(-212.808 -227.068)" fill="#fff"/>
            </g>
          </g>
          <g id="Grupo_153694" data-name="Grupo 153694" transform="translate(21.391 12.349)">
            <g id="Grupo_153692" data-name="Grupo 153692">
              <g id="Grupo_153691" data-name="Grupo 153691" transform="translate(0.013)">
                <path id="Trazado_206782" data-name="Trazado 206782" d="M260.611,245.329c1.525.881,1.534,2.306.018,3.186l-8.923,5.186a6.06,6.06,0,0,1-5.5,0l-8.985-5.188c-1.522-.878-1.53-2.3-.014-3.184l8.923-5.185a6.053,6.053,0,0,1,5.5,0Z" transform="translate(-236.074 -239.483)" fill="#fcb72b"/>
              </g>
              <path id="Trazado_206783" data-name="Trazado 206783" d="M261.752,251.261c0,.038-.006.076-.009.114s-.006.081-.014.121-.016.067-.025.1-.02.077-.033.115-.027.063-.04.1-.035.081-.057.121-.034.057-.052.086c-.028.046-.058.091-.092.136-.02.027-.041.052-.063.078a2.237,2.237,0,0,1-.164.177c-.022.021-.042.043-.066.064s-.079.066-.119.1-.07.058-.109.086-.094.063-.142.094-.095.064-.147.094l-8.923,5.186a4.257,4.257,0,0,1-.543.258l-.151.057c-.118.043-.242.077-.366.112s-.257.07-.389.1c-.155.032-.312.061-.473.081-.039.005-.076.012-.114.016-.216.023-.435.035-.654.037h-.1q-.325,0-.646-.036l-.1-.011a6.076,6.076,0,0,1-.625-.107c-.038-.008-.075-.018-.111-.027a5.272,5.272,0,0,1-.541-.165c-.031-.011-.064-.02-.094-.032a4.231,4.231,0,0,1-.593-.28l-8.985-5.188a2.245,2.245,0,0,1-1.075-1.168,1.335,1.335,0,0,1-.071-.433h0l-.014,4.774a1.944,1.944,0,0,0,1.146,1.6l8.985,5.187a4.273,4.273,0,0,0,.562.27l.031.011c.031.012.063.02.095.032.114.042.228.083.347.118.063.018.129.032.193.047l.111.027c.034.008.067.018.1.025.127.027.256.049.385.067.046.006.092.01.138.016l.1.011c.048.005.095.012.143.016.127.011.255.017.382.02.04,0,.08,0,.12,0h.1c.057,0,.116,0,.174,0q.216-.007.43-.028c.016,0,.033-.005.049-.007.039,0,.077-.011.116-.016.111-.014.222-.027.331-.046.048-.009.093-.025.141-.035.133-.027.261-.061.389-.1.068-.019.14-.03.206-.051s.105-.041.159-.061.1-.037.152-.057a4.132,4.132,0,0,0,.543-.258l8.923-5.185.048-.028c.035-.021.066-.045.1-.066s.1-.062.142-.095.073-.057.109-.085.082-.065.119-.1c.008-.008.017-.014.025-.021s.026-.029.04-.044a2.127,2.127,0,0,0,.164-.177c.011-.013.026-.025.037-.039s.017-.026.027-.039c.033-.045.063-.09.092-.136.011-.019.027-.038.039-.057s.008-.02.013-.029c.021-.04.039-.081.057-.121.01-.023.024-.047.033-.071,0-.008,0-.016.007-.024.014-.039.023-.077.033-.116s.017-.052.023-.078c0-.007,0-.014,0-.021.008-.04.011-.081.015-.122s.008-.053.009-.08v-.034h0Z" transform="translate(-236.053 -243.811)" fill="#f9762d"/>
            </g>
            <g id="Grupo_153693" data-name="Grupo 153693" transform="translate(6.297 4.107)">
              <path id="Trazado_206784" data-name="Trazado 206784" d="M250.112,248.321a.341.341,0,0,1,0-.645,1.229,1.229,0,0,1,1.115,0,.341.341,0,0,1,0,.645,1.229,1.229,0,0,1-1.115,0m1.935,1.118a.341.341,0,0,1,0-.646,1.229,1.229,0,0,1,1.115,0,.342.342,0,0,1,0,.646,1.232,1.232,0,0,1-1.114,0m1.867,1.078a.342.342,0,0,1,0-.646,1.229,1.229,0,0,1,1.115,0,.342.342,0,0,1,0,.646,1.233,1.233,0,0,1-1.115,0m2.355-3.64a8.211,8.211,0,0,0-7.451,0c-1.285.747-1.758,1.786-1.427,2.747l-1.372.5,1.8.227a3.762,3.762,0,0,0,1.022.838,8.213,8.213,0,0,0,7.452,0c2.05-1.192,2.04-3.124-.025-4.316" transform="translate(-246.018 -245.983)" fill="#fff"/>
            </g>
          </g>
          <g id="Grupo_153698" data-name="Grupo 153698" transform="translate(84.982 48.52)">
            <g id="Grupo_153696" data-name="Grupo 153696">
              <g id="Grupo_153695" data-name="Grupo 153695" transform="translate(0.013)">
                <path id="Trazado_206785" data-name="Trazado 206785" d="M361.248,302.572c1.525.881,1.534,2.305.018,3.186l-8.922,5.185a6.057,6.057,0,0,1-5.5,0l-8.985-5.187c-1.522-.878-1.53-2.3-.014-3.184l8.922-5.185a6.056,6.056,0,0,1,5.5,0Z" transform="translate(-336.711 -296.726)" fill="#51b6f4"/>
              </g>
              <path id="Trazado_206786" data-name="Trazado 206786" d="M362.389,308.5c0,.038-.006.076-.009.114s-.007.081-.014.121-.016.067-.025.1-.02.078-.034.116-.026.063-.04.095-.035.082-.057.121-.034.057-.052.086c-.028.046-.058.091-.092.136-.02.027-.041.052-.063.078a2.227,2.227,0,0,1-.164.177c-.022.021-.042.043-.066.064s-.079.066-.119.1-.07.057-.109.085-.094.063-.142.095-.095.064-.147.094l-8.922,5.185a4.133,4.133,0,0,1-.543.258c-.05.02-.1.039-.152.057-.118.043-.242.077-.365.112s-.257.07-.389.1c-.155.032-.313.061-.473.082-.039.005-.076.012-.114.016-.216.023-.435.035-.654.037h-.1c-.216,0-.432-.014-.646-.036l-.1-.011a6.118,6.118,0,0,1-.626-.107l-.111-.027a5.265,5.265,0,0,1-.54-.165c-.031-.011-.064-.02-.094-.032a4.284,4.284,0,0,1-.594-.281l-8.985-5.187a2.245,2.245,0,0,1-1.075-1.169,1.363,1.363,0,0,1-.071-.432h0l-.013,4.774a1.942,1.942,0,0,0,1.146,1.6l8.985,5.187a4.207,4.207,0,0,0,.562.27l.031.011c.031.011.063.02.094.032.114.042.228.083.348.118.063.018.129.032.193.047l.111.027c.034.008.067.018.1.025q.191.04.385.067c.046.006.092.01.138.015l.1.011c.047,0,.095.012.143.016.127.011.255.017.382.02.04,0,.08,0,.12,0h.1c.058,0,.116,0,.174,0,.145,0,.288-.015.431-.028l.049-.007c.039,0,.076-.011.116-.016.111-.014.222-.026.331-.046.049-.009.093-.025.141-.035.133-.027.262-.061.39-.1.068-.019.14-.03.206-.051s.106-.041.159-.061.1-.037.152-.057a4.172,4.172,0,0,0,.543-.258l8.923-5.185.047-.028c.035-.021.066-.045.1-.067s.1-.062.141-.094.073-.057.109-.086.082-.064.119-.1l.025-.02c.015-.014.026-.03.04-.044a2.371,2.371,0,0,0,.164-.177c.011-.013.026-.026.037-.039s.016-.027.026-.039c.034-.045.063-.09.091-.136.012-.019.028-.038.039-.057s.009-.02.014-.029c.021-.04.039-.081.057-.121.01-.024.024-.047.033-.071,0-.008,0-.016.007-.024.014-.039.023-.077.033-.116s.017-.052.022-.078c0-.007,0-.014,0-.021.008-.04.01-.082.014-.122s.008-.054.009-.08v-.034h0Z" transform="translate(-336.69 -301.054)" fill="#128ac6"/>
            </g>
            <g id="Grupo_153697" data-name="Grupo 153697" transform="translate(6.201 3.503)">
              <path id="Trazado_206787" data-name="Trazado 206787" d="M351.138,307.185a1.182,1.182,0,0,1-.016-2.237,4.261,4.261,0,0,1,3.865,0,1.182,1.182,0,0,1,.009,2.237,4.257,4.257,0,0,1-3.858,0m7.424-3.295-1.764-1.018-.772.449a8.217,8.217,0,0,0-1.741-.418l0-.633H351.8l0,.633a8.114,8.114,0,0,0-1.736.418l-.777-.449-1.752,1.018.777.449a2.711,2.711,0,0,0-.716,1.007H346.5l.008,1.439H347.6a2.767,2.767,0,0,0,.727,1.007l-.772.449,1.764,1.019.772-.449a8.109,8.109,0,0,0,1.741.418l0,.633h2.483l0-.633a8.093,8.093,0,0,0,1.736-.418l.777.449,1.752-1.019-.777-.449a2.694,2.694,0,0,0,.716-1.007h1.094l-.008-1.439h-1.094a2.726,2.726,0,0,0-.727-1.007l.772-.449" transform="translate(-346.503 -302.27)" fill="#fff"/>
            </g>
          </g>
          <g id="Grupo_153702" data-name="Grupo 153702" transform="translate(42.199 24.308)">
            <g id="Grupo_153700" data-name="Grupo 153700">
              <g id="Grupo_153699" data-name="Grupo 153699" transform="translate(0.014)">
                <path id="Trazado_206788" data-name="Trazado 206788" d="M293.541,264.256c1.525.881,1.534,2.306.018,3.186l-8.923,5.186a6.057,6.057,0,0,1-5.5,0l-8.985-5.188c-1.522-.878-1.529-2.3-.014-3.184l8.923-5.185a6.053,6.053,0,0,1,5.5,0Z" transform="translate(-269.005 -258.41)" fill="#4cd6d2"/>
              </g>
              <path id="Trazado_206789" data-name="Trazado 206789" d="M294.682,270.188c0,.038-.006.076-.009.114s-.006.081-.014.121-.016.067-.025.1-.02.077-.033.115-.027.064-.04.1-.035.081-.057.121-.034.057-.052.087c-.028.046-.058.091-.092.135-.02.027-.041.052-.063.079a2.359,2.359,0,0,1-.164.176c-.022.021-.042.044-.066.064s-.079.066-.119.1-.07.058-.109.086-.094.063-.142.094-.095.064-.147.094l-8.923,5.185a4.175,4.175,0,0,1-.543.258l-.151.057c-.118.043-.242.077-.366.112s-.257.07-.389.1c-.155.032-.312.061-.473.082-.038.005-.076.012-.114.016-.216.023-.435.035-.654.037h-.1q-.325,0-.646-.036l-.1-.011a6.077,6.077,0,0,1-.625-.107c-.038-.008-.075-.018-.111-.027a5.266,5.266,0,0,1-.541-.165c-.031-.011-.064-.02-.094-.032a4.3,4.3,0,0,1-.593-.28l-8.985-5.188a2.244,2.244,0,0,1-1.075-1.168,1.336,1.336,0,0,1-.071-.433h0l-.014,4.774a1.944,1.944,0,0,0,1.146,1.6l8.985,5.187a4.276,4.276,0,0,0,.562.27l.031.011c.031.012.063.02.095.032.114.042.228.083.347.118.063.018.13.032.194.047l.111.027c.034.008.067.018.1.025.127.027.256.049.385.067.046.006.092.01.138.016l.1.011c.048.005.095.012.143.016.127.011.255.017.382.02.04,0,.08,0,.12,0h.1c.057,0,.116,0,.174,0q.216-.008.43-.029c.016,0,.033-.005.049-.007.039,0,.077-.011.116-.016.111-.014.222-.027.331-.046.048-.009.093-.025.141-.035.133-.027.261-.061.389-.1.068-.019.14-.03.206-.051s.105-.041.159-.061.1-.037.152-.057a4.17,4.17,0,0,0,.543-.258l8.922-5.185.048-.028c.035-.021.066-.045.1-.066s.1-.062.142-.095.073-.057.109-.085.082-.065.119-.1l.025-.02c.015-.014.026-.029.041-.044a2.233,2.233,0,0,0,.164-.177c.011-.013.026-.025.037-.039s.017-.027.027-.04c.034-.045.063-.09.092-.136.011-.019.027-.037.039-.057s.008-.02.013-.029c.021-.04.039-.081.057-.121.01-.023.024-.047.033-.071,0-.008,0-.016.007-.024.014-.039.023-.077.034-.116s.017-.052.023-.078c0-.007,0-.014,0-.021.008-.04.011-.082.015-.122s.008-.053.009-.08v-.033h0Z" transform="translate(-268.983 -262.738)" fill="#08afaa"/>
            </g>
            <g id="Grupo_153701" data-name="Grupo 153701" transform="translate(6.27 2.783)">
              <path id="Trazado_206790" data-name="Trazado 206790" d="M283.7,268.417c-.167-.1-.172-.254-.006-.351a.669.669,0,0,1,.609,0,.185.185,0,0,1,0,.351.667.667,0,0,1-.6,0m-2.467-2.757,3.453-2.007,7.235,4.177-3.453,2.007-7.235-4.177m12.131,2.168-8.682-5.013-5.772,3.354,8.682,5.013,5.772-3.354" transform="translate(-278.906 -262.815)" fill="#fff"/>
              <path id="Trazado_206791" data-name="Trazado 206791" d="M284.217,272.739l-2.088-1.205-.869.5-.759-.438-.621.361,3.606,2.082.621-.361-.759-.438.869-.5" transform="translate(-279.264 -266.024)" fill="#fff"/>
            </g>
          </g>
          <g id="Grupo_153706" data-name="Grupo 153706" transform="translate(63.591 36.657)">
            <g id="Grupo_153704" data-name="Grupo 153704">
              <g id="Grupo_153703" data-name="Grupo 153703" transform="translate(0.013)">
                <path id="Trazado_206792" data-name="Trazado 206792" d="M327.395,283.8c1.525.881,1.533,2.305.018,3.186l-8.923,5.185a6.055,6.055,0,0,1-5.5,0L304,286.983c-1.522-.879-1.53-2.3-.015-3.184l8.923-5.185a6.056,6.056,0,0,1,5.5,0Z" transform="translate(-302.858 -277.953)" fill="#57c461"/>
              </g>
              <path id="Trazado_206793" data-name="Trazado 206793" d="M328.536,289.731c0,.039-.006.076-.01.114s-.006.082-.014.122-.016.066-.025.1-.019.077-.033.116-.027.063-.04.095-.035.081-.057.121-.035.057-.052.086c-.028.046-.057.091-.091.136-.02.027-.042.052-.063.078a2.37,2.37,0,0,1-.164.177c-.022.021-.042.043-.065.064s-.079.066-.12.1-.07.057-.109.085-.093.063-.141.094-.095.064-.147.095l-8.923,5.185a4.139,4.139,0,0,1-.543.258c-.049.02-.1.039-.151.057-.118.043-.242.077-.366.112s-.257.07-.389.1c-.156.032-.313.061-.473.082-.039,0-.076.012-.115.016-.216.023-.435.035-.654.037h-.1c-.216,0-.432-.013-.646-.035l-.1-.011a6.319,6.319,0,0,1-.625-.107l-.111-.027a5.431,5.431,0,0,1-.541-.165c-.031-.011-.064-.02-.094-.032a4.237,4.237,0,0,1-.593-.281L304,291.311a2.245,2.245,0,0,1-1.076-1.169,1.349,1.349,0,0,1-.071-.432h0l-.013,4.773a1.942,1.942,0,0,0,1.146,1.6l8.985,5.187a4.245,4.245,0,0,0,.563.27l.031.01c.03.012.063.021.094.032.114.041.228.083.348.117.063.018.129.032.193.048l.111.027c.034.008.067.018.1.025.126.026.255.049.385.067.046.006.092.01.138.015l.1.011c.047.005.095.012.142.016q.191.015.383.02c.04,0,.08,0,.12,0h.1c.058,0,.116,0,.174,0,.144-.005.288-.015.431-.028l.049-.007c.039,0,.077-.011.116-.016.111-.014.222-.026.33-.046.049-.008.093-.025.141-.035.133-.027.261-.061.389-.1.068-.019.14-.03.206-.051s.106-.04.159-.06.1-.037.152-.057a4.286,4.286,0,0,0,.543-.258l8.923-5.185.047-.028c.035-.021.066-.044.1-.066s.1-.062.142-.094.073-.057.109-.086.082-.065.119-.1l.025-.02c.016-.015.026-.03.041-.044a2.246,2.246,0,0,0,.164-.176c.011-.013.026-.026.036-.039s.017-.027.027-.039c.033-.045.063-.09.092-.136.012-.02.028-.038.039-.057s.008-.019.013-.029c.022-.04.039-.08.057-.121.011-.024.025-.047.033-.071,0-.008,0-.016.007-.024.013-.039.023-.078.033-.116s.018-.052.023-.078c0-.007,0-.014,0-.021.008-.04.01-.082.014-.123s.008-.053.009-.08V294.5h0Z" transform="translate(-302.837 -282.281)" fill="#149120"/>
            </g>
            <g id="Grupo_153705" data-name="Grupo 153705" transform="translate(7.446 3.789)">
              <path id="Trazado_206794" data-name="Trazado 206794" d="M324.813,284.828l-7.838-.878,1.546,4.535,7.83.878-1.538-4.535" transform="translate(-315.488 -283.95)" fill="#fff"/>
              <path id="Trazado_206795" data-name="Trazado 206795" d="M316.016,287.368l-1.395.81.946,2.778,4.8.538h0c-.016-.009.761-.456,1.383-.813l-4.787-.536-.946-2.778" transform="translate(-314.621 -285.208)" fill="#fff"/>
              <path id="Trazado_206796" data-name="Trazado 206796" d="M328.419,292.767l-.809-.1-3.031,1.762.491.283,3.35-1.947" transform="translate(-318.287 -287.159)" fill="#fff"/>
              <path id="Trazado_206797" data-name="Trazado 206797" d="M323.729,296.066l-.491-.283-1.338.129,1.611.93.218-.775" transform="translate(-317.301 -288.306)" fill="#fff"/>
            </g>
          </g>
        </g>
        <g id="Grupo_153718" data-name="Grupo 153718" transform="translate(0 121.928)">
          <g id="Grupo_153712" data-name="Grupo 153712" transform="translate(0 11.119)">
            <path id="Trazado_206798" data-name="Trazado 206798" d="M59.226,291.671l-.011,5.678L79.8,309.23l28.574-16.664c.023-2.083.074-4.217.12-5.729L79.816,303.558l-1.153-.668Z" transform="translate(-55.676 -270.141)" fill="#f0f2f2"/>
            <path id="Trazado_206799" data-name="Trazado 206799" d="M79.784,312.034,59.215,300.165l.011-5.678,19.437,11.22,1.12.649Z" transform="translate(-55.676 -272.957)" fill="#dcdcdc"/>
            <g id="Grupo_153711" data-name="Grupo 153711">
              <g id="Grupo_153708" data-name="Grupo 153708" transform="translate(24.122 20.897)">
                <path id="Trazado_206800" data-name="Trazado 206800" d="M91.793,311.68l31.2-18.2,0,2.069-31.2,18.2Z" transform="translate(-91.789 -293.485)" fill="#08afaa"/>
              </g>
              <g id="Grupo_153709" data-name="Grupo 153709" transform="translate(0 18.196)">
                <path id="Trazado_206801" data-name="Trazado 206801" d="M77.758,302.47l0,1.961-1.154-.665L57.166,292.545l-.013,5.676,20.587,11.886,0,2.069L55.13,299.124a3.341,3.341,0,0,1-1.516-2.627l.012-6.209c0-.965.686-1.355,1.526-.87Z" transform="translate(-53.614 -289.21)" fill="#08afaa"/>
              </g>
              <g id="Grupo_153710" data-name="Grupo 153710" transform="translate(24.14 13.26)">
                <path id="Trazado_206802" data-name="Trazado 206802" d="M91.822,299.595l31.2-18.2,0,1.962-31.2,18.2Z" transform="translate(-91.817 -281.4)" fill="#08afaa"/>
              </g>
              <path id="Trazado_206803" data-name="Trazado 206803" d="M86.621,260.622l-.048-.027-.063-.032-.04-.019-.009,0-.012-.006-.061-.025-.061-.023-.011,0-.009,0-.041-.013-.063-.018-.03-.006-.013,0-.02,0-.066-.011-.04,0h-.027c-.024,0-.048,0-.071,0l-.031,0h-.048a.787.787,0,0,0-.087.013h0l-.02.006a.655.655,0,0,0-.085.023l-.006,0a.723.723,0,0,0-.117.054l-31.2,18.2a.717.717,0,0,1,.116-.054.739.739,0,0,1,.092-.027l.02-.005a.821.821,0,0,1,.114-.015H54.7a.883.883,0,0,1,.116,0h.014a1.159,1.159,0,0,1,.126.019l.013,0c.044.01.088.022.134.037l.009,0a1.434,1.434,0,0,1,.145.058l.009,0c.05.023.1.049.151.078L78.024,291.87l31.2-18.2Z" transform="translate(-53.88 -260.414)" fill="#4cd6d2"/>
            </g>
          </g>
          <g id="Grupo_153717" data-name="Grupo 153717">
            <path id="Trazado_206804" data-name="Trazado 206804" d="M59.226,274.073l-.011,5.679L79.8,291.633l28.574-16.664c.023-2.083.074-4.217.12-5.729L79.816,285.961l-1.153-.668Z" transform="translate(-55.676 -252.544)" fill="#f0f2f2"/>
            <path id="Trazado_206805" data-name="Trazado 206805" d="M79.784,294.437,59.215,282.568l.011-5.678,19.437,11.219,1.12.649Z" transform="translate(-55.676 -255.36)" fill="#dcdcdc"/>
            <g id="Grupo_153716" data-name="Grupo 153716">
              <g id="Grupo_153713" data-name="Grupo 153713" transform="translate(24.122 20.897)">
                <path id="Trazado_206806" data-name="Trazado 206806" d="M91.793,294.083l31.2-18.2,0,2.069-31.2,18.2Z" transform="translate(-91.789 -275.888)" fill="#bf1919"/>
              </g>
              <g id="Grupo_153714" data-name="Grupo 153714" transform="translate(0 18.195)">
                <path id="Trazado_206807" data-name="Trazado 206807" d="M77.758,284.873l0,1.961-1.154-.666-19.434-11.22-.013,5.675,20.587,11.886,0,2.069L55.13,281.526a3.339,3.339,0,0,1-1.516-2.626l.012-6.209c0-.965.686-1.355,1.526-.871Z" transform="translate(-53.614 -271.613)" fill="#bf1919"/>
              </g>
              <g id="Grupo_153715" data-name="Grupo 153715" transform="translate(24.14 13.26)">
                <path id="Trazado_206808" data-name="Trazado 206808" d="M91.822,282l31.2-18.2,0,1.962-31.2,18.2Z" transform="translate(-91.817 -263.802)" fill="#bf1919"/>
              </g>
              <path id="Trazado_206809" data-name="Trazado 206809" d="M86.621,243.026,86.573,243l-.063-.032-.04-.019-.009,0-.012-.006-.061-.026-.061-.023-.011,0-.009,0-.041-.013-.063-.017-.03-.007-.013,0-.02,0c-.022,0-.044-.008-.066-.011l-.04,0h-.027c-.024,0-.048,0-.071,0h-.079a.783.783,0,0,0-.087.013h0l-.02.005c-.029.007-.058.014-.085.023l-.006,0a.786.786,0,0,0-.117.054l-31.2,18.2a.72.72,0,0,1,.116-.054.734.734,0,0,1,.092-.027l.02-.006a.932.932,0,0,1,.114-.014H54.7a1.008,1.008,0,0,1,.116,0l.014,0a1.152,1.152,0,0,1,.126.019l.013,0a1.307,1.307,0,0,1,.134.037l.009,0a1.427,1.427,0,0,1,.145.057l.009,0c.05.023.1.049.151.078l22.606,13.052,31.2-18.2Z" transform="translate(-53.88 -242.817)" fill="#fc5454"/>
            </g>
          </g>
        </g>
        <g id="Grupo_153724" data-name="Grupo 153724" transform="translate(69.108 62.553)">
          <g id="Grupo_153723" data-name="Grupo 153723">
            <g id="Grupo_153720" data-name="Grupo 153720" transform="translate(0 82.131)">
              <path id="Trazado_206810" data-name="Trazado 206810" d="M222.123,301.672v12.02c0,5.808-3.806,11.608-11.42,16.031-15.307,8.891-40.2,8.891-55.607,0-7.738-4.468-11.608-10.321-11.608-16.174v-12.02c0-5.809,3.806-11.608,11.429-16.031,15.307-8.891,40.2-8.891,55.607,0C218.254,289.966,222.123,295.819,222.123,301.672Z" transform="translate(-143.489 -278.83)" fill="#bbbebf"/>
              <g id="Grupo_153719" data-name="Grupo 153719">
                <path id="Trazado_206811" data-name="Trazado 206811" d="M222.123,301.672c0,5.808-3.806,11.607-11.42,16.039-15.307,8.891-40.2,8.891-55.607,0-7.738-4.468-11.608-10.329-11.608-16.182,0-5.809,3.806-11.608,11.429-16.031,15.307-8.891,40.2-8.891,55.607,0C218.254,289.966,222.123,295.819,222.123,301.672Z" transform="translate(-143.489 -278.83)" fill="#dcdcdc"/>
              </g>
            </g>
            <g id="Grupo_153722" data-name="Grupo 153722" transform="translate(23.491)">
              <g id="Grupo_153721" data-name="Grupo 153721" transform="translate(0.278 51.661)">
                <path id="Trazado_206812" data-name="Trazado 206812" d="M200.616,321.271c.2,1.306-2.679,2.006-4.759,3.086a4.823,4.823,0,0,1-4.306.1,3.765,3.765,0,0,1-1.422-.906c-.5-.72.164-3.057.164-3.057,1.91-.317,3.635-.662,4.807-.95C195.717,319.4,200.285,319.138,200.616,321.271Z" transform="translate(-184.358 -263.313)" fill="#2b313d"/>
                <path id="Trazado_206813" data-name="Trazado 206813" d="M217.559,321.809c.2,1.306-2.679,2.006-4.759,3.085a4.823,4.823,0,0,1-4.306.1,3.765,3.765,0,0,1-1.422-.906c-.5-.72.164-3.057.164-3.057,1.91-.317,3.635-.662,4.807-.95C212.66,319.938,217.228,319.676,217.559,321.809Z" transform="translate(-190.595 -263.511)" fill="#2b313d"/>
                <path id="Trazado_206814" data-name="Trazado 206814" d="M186.788,288.412h5.919l5.392-57.431-16.826,2.554s-1.052,4.206,2.1,11.869C185.949,251.649,186.625,279.515,186.788,288.412Z" transform="translate(-181.105 -230.746)" fill="#2b313d"/>
                <path id="Trazado_206815" data-name="Trazado 206815" d="M200.721,288.275h5.911c.14-11.03.574-51.585.062-55.1-.6-4.131-16.526-2.028-16.526-2.028s4.206,10.366,6.16,15.774C198.087,251.792,200.3,282.816,200.721,288.275Z" transform="translate(-184.442 -230.61)" fill="#434751"/>
              </g>
              <path id="Trazado_206816" data-name="Trazado 206816" d="M242.458,172.717l-4.806-2.433c.2-1.693.639-4.677,1.251-4.7,1.094-.055,1.02,2.3,1.02,2.3s3.208-6.961,4.235-6.492c.734.333-.537,3.012-1.257,4.392a.673.673,0,0,0,.449.958c.612.164,1.339.517,1.434,1.278A5.708,5.708,0,0,1,242.458,172.717Z" transform="translate(-201.643 -153.458)" fill="#ffcaa8"/>
              <path id="Trazado_206817" data-name="Trazado 206817" d="M183.419,180.1a9.743,9.743,0,0,0-.981,7.857c1.381,4.516,3.128,11.823,1.627,16.178-2.29,6.641-2.977,9.16-2.977,9.16s18.548,4.809,22.441-.229l-.916-14.51-.25-3.952,6.06,4.3a2.981,2.981,0,0,0,4.5-1.348l8.71-19.712L216.6,175.3l-7.307,12.986a.827.827,0,0,1-1.336.133c-2.016-2.291-7.466-8.631-10.643-9.584l-12.1-1.715Z" transform="translate(-180.822 -158.587)" fill="#ccdeea"/>
              <path id="Trazado_206818" data-name="Trazado 206818" d="M190.55,171.082l.043.03Z" transform="translate(-184.304 -157.036)" fill="#fbb77a"/>
              <path id="Trazado_206819" data-name="Trazado 206819" d="M192.523,172.325l.069.039Z" transform="translate(-185.031 -157.493)" fill="#fbb77a"/>
              <path id="Trazado_206820" data-name="Trazado 206820" d="M197.11,174.175l.1.021Z" transform="translate(-186.719 -158.174)" fill="#fbb77a"/>
              <path id="Trazado_206821" data-name="Trazado 206821" d="M190.014,170.7l.1.074Z" transform="translate(-184.107 -156.894)" fill="#fbb77a"/>
              <path id="Trazado_206822" data-name="Trazado 206822" d="M189.631,170.409l.087.067Z" transform="translate(-183.966 -156.788)" fill="#fbb77a"/>
              <path id="Trazado_206823" data-name="Trazado 206823" d="M189.424,170.246l.054.044Z" transform="translate(-183.89 -156.728)" fill="#fbb77a"/>
              <path id="Trazado_206824" data-name="Trazado 206824" d="M193.383,172.789l.073.037Z" transform="translate(-185.347 -157.664)" fill="#fbb77a"/>
              <path id="Trazado_206825" data-name="Trazado 206825" d="M199.229,174.378c-.02,0-.039,0-.057.005C199.191,174.382,199.21,174.379,199.229,174.378Z" transform="translate(-187.478 -158.249)" fill="#fbb77a"/>
              <path id="Trazado_206826" data-name="Trazado 206826" d="M198.109,174.337c.046.005.092.008.138.012C198.2,174.345,198.155,174.342,198.109,174.337Z" transform="translate(-187.087 -158.234)" fill="#fbb77a"/>
              <path id="Trazado_206827" data-name="Trazado 206827" d="M189.51,170.315l.076.059Z" transform="translate(-183.922 -156.753)" fill="#fbb77a"/>
              <path id="Trazado_206828" data-name="Trazado 206828" d="M189.769,170.515l.155.116Z" transform="translate(-184.017 -156.827)" fill="#fbb77a"/>
              <path id="Trazado_206829" data-name="Trazado 206829" d="M190.176,170.815c.073.054.148.107.236.169C190.324,170.923,190.249,170.868,190.176,170.815Z" transform="translate(-184.167 -156.937)" fill="#fbb77a"/>
              <path id="Trazado_206830" data-name="Trazado 206830" d="M192.632,172.387c.153.087.31.17.475.254C192.943,172.558,192.784,172.472,192.632,172.387Z" transform="translate(-185.071 -157.516)" fill="#fbb77a"/>
              <path id="Trazado_206831" data-name="Trazado 206831" d="M200.413,174.03a3.727,3.727,0,0,1-1.15.22,3.708,3.708,0,0,0,1.15-.22Z" transform="translate(-187.512 -158.121)" fill="#fbb77a"/>
              <path id="Trazado_206832" data-name="Trazado 206832" d="M197.261,174.208c.179.037.356.062.536.082C197.618,174.271,197.439,174.244,197.261,174.208Z" transform="translate(-186.775 -158.186)" fill="#fbb77a"/>
              <path id="Trazado_206833" data-name="Trazado 206833" d="M193.5,172.847a9.682,9.682,0,0,0,2.282.839A9.692,9.692,0,0,1,193.5,172.847Z" transform="translate(-185.39 -157.685)" fill="#fbb77a"/>
              <path id="Trazado_206834" data-name="Trazado 206834" d="M198.861,174.375a4.726,4.726,0,0,1-.533-.019A4.721,4.721,0,0,0,198.861,174.375Z" transform="translate(-187.168 -158.241)" fill="#fbb77a"/>
              <path id="Trazado_206835" data-name="Trazado 206835" d="M190.618,171.129c.322.224.733.487,1.2.756C191.352,171.618,190.941,171.351,190.618,171.129Z" transform="translate(-184.329 -157.053)" fill="#fbb77a"/>
              <path id="Trazado_206836" data-name="Trazado 206836" d="M207.02,158.761l-1.131,1.7-1.075-.452c-.018-.112-1.78-5.643-1.414-2.319.149,1.354,1.023,2.909.045,3.173s-1.483,1.544-1.128,2.86a2.825,2.825,0,0,0,1.177,1.676l-.446.415a3.671,3.671,0,0,1-1.965,1.812l.569,3.163.238.194c-.211-.076-.238-.194-.238-.194s-.969-.814,1.917-.768C207.133,170.074,207.344,161.524,207.02,158.761Z" transform="translate(-188.182 -151.713)" fill="#fbb77a"/>
              <path id="Trazado_206837" data-name="Trazado 206837" d="M197.861,176.166,197.293,173a3.708,3.708,0,0,1-1.15.22c-.02,0-.039,0-.057.005a4.718,4.718,0,0,1-.533-.019c-.046,0-.092-.007-.138-.012-.179-.02-.357-.045-.536-.082l-.1-.021a9.682,9.682,0,0,1-2.282-.839l-.073-.037c-.164-.084-.322-.167-.475-.254l-.069-.039c-.425-.243-.792-.477-1.1-.686v5.555c2.347,1.087,5,1.858,7.289.714Z" transform="translate(-184.391 -157.093)" fill="#fbb77a"/>
              <path id="Trazado_206838" data-name="Trazado 206838" d="M200.031,154.966s-.274,2.948-1.851,4.387-2.88,3.908-1.371,8.5a30.625,30.625,0,0,1,.965,3.609,9.41,9.41,0,0,1-9.241,11.368,7.776,7.776,0,0,1-1.021-.09,6.7,6.7,0,0,1-1.739-.589,9.166,9.166,0,0,1-4.189-12.272,17.219,17.219,0,0,0,1.855-6.74c.1-4.824.961-14.94,9.051-14.255C201.421,149.643,200.031,154.966,200.031,154.966Z" transform="translate(-180.666 -148.853)" fill="#c95c12"/>
            </g>
          </g>
          <path id="Trazado_206839" data-name="Trazado 206839" d="M211.43,322.87l-21.193,1.94,22.225,14.633a49.319,49.319,0,0,0,15.45-5.52,30.386,30.386,0,0,0,5.823-4.329Z" transform="translate(-160.698 -212.911)" fill="url(#linear-gradient-7)" style="mix-blend-mode: multiply;isolation: isolate"/>
        </g>
      </g>
    </g>
  </g>
</svg>
