<svg xmlns="http://www.w3.org/2000/svg" xmlns:xlink="http://www.w3.org/1999/xlink" width="376" height="251" viewBox="0 0 376 251">
  <defs>
    <clipPath id="clip-path">
      <rect id="Rectángulo_43664" data-name="Rectángulo 43664" width="376" height="251" transform="translate(-0.008 0)" fill="none"/>
    </clipPath>
    <clipPath id="clip-path-2">
      <circle id="Elipse_4957" data-name="Elipse 4957" cx="15.739" cy="15.739" r="15.739" transform="matrix(0.599, -0.801, 0.801, 0.599, 0, 25.205)" fill="none"/>
    </clipPath>
    <clipPath id="clip-path-3">
      <circle id="Elipse_4959" data-name="Elipse 4959" cx="15.739" cy="15.739" r="15.739" transform="matrix(0.454, -0.891, 0.891, 0.454, 0, 28.04)" fill="none"/>
    </clipPath>
    <clipPath id="clip-path-4">
      <circle id="Elipse_4961" data-name="Elipse 4961" cx="15.739" cy="15.739" r="15.739" fill="none"/>
    </clipPath>
    <clipPath id="clip-path-5">
      <circle id="Elipse_4963" data-name="Elipse 4963" cx="15.739" cy="15.739" r="15.739" transform="matrix(0.466, -0.885, 0.885, 0.466, 0, 27.855)" fill="none"/>
    </clipPath>
  </defs>
  <g id="Grupo_146029" data-name="Grupo 146029" transform="translate(-766.252 0.037)">
    <g id="Grupo_146030" data-name="Grupo 146030" transform="translate(781.969 12.639)">
      <g id="Grupo_146029-2" data-name="Grupo 146029">
        <path id="Trazado_190359" data-name="Trazado 190359" d="M1087.367,56.083a68.542,68.542,0,0,0-34.541,1.379,21.1,21.1,0,0,1-19.574-3.927A107.4,107.4,0,0,0,875.855,77,20.926,20.926,0,0,1,862.6,85.867,80.816,80.816,0,1,0,912.89,238.3a20.919,20.919,0,0,1,15.944-.6A107.519,107.519,0,0,0,1053.2,198.2a21.243,21.243,0,0,1,17.916-9.007q.74.016,1.483.016c42.08,0,75.146-38.593,65.735-82.315A66.36,66.36,0,0,0,1087.367,56.083Z" transform="translate(-797.894 -27.205)" fill="#d1f4f5"/>
        <path id="Trazado_190360" data-name="Trazado 190360" d="M888.812,88.527c-6.278,4.236-13.876,5.936-21.274,7.554-5.295,1.157-10.694,2.322-16.088,1.8s-10.883-3.007-13.676-7.651c-3.948-6.567-1.218-15.558,4.383-20.786s13.335-7.452,20.863-8.878c6.095-1.155,12.346-1.9,18.5-1.109,5.866.756,16.15,3.607,17.422,10.56C900.238,77.116,894.272,84.842,888.812,88.527Z" transform="translate(-816.86 -42.13)" fill="#d1f4f5"/>
        <path id="Trazado_190361" data-name="Trazado 190361" d="M1271.949,40.746a11.624,11.624,0,0,0,22.558-3.56,12,12,0,0,0-9.082-11.712C1276.782,23.542,1268.95,32.394,1271.949,40.746Z" transform="translate(-1034.077 -25.206)" fill="#d1f4f5"/>
        <path id="Trazado_190362" data-name="Trazado 190362" d="M1322.279,366.006c-8.834,2.1-17.844,6.007-22.863,13.573-6.693,10.089-3.989,24.682,4.618,33.2s21.814,11.306,33.722,9.118c9.466-1.739,18.5-6.5,24.624-13.924s9.1-17.579,7.1-26.994c-1.791-8.43-8.625-17.754-17.354-20.027-3.98-1.036-8.091.717-11.956,1.572C1334.235,363.836,1328.194,364.6,1322.279,366.006Z" transform="translate(-1046.234 -192.551)" fill="#d1f4f5"/>
      </g>
    </g>
    <g id="Grupo_146152" data-name="Grupo 146152" transform="translate(766.26 -0.037)">
      <g id="Grupo_146151" data-name="Grupo 146151" transform="translate(0 0)" clip-path="url(#clip-path)">
        <g id="Grupo_146150" data-name="Grupo 146150" transform="translate(37.102 7.129)">
          <g id="Grupo_146117" data-name="Grupo 146117" transform="translate(28.981)">
            <g id="Grupo_146033" data-name="Grupo 146033">
              <path id="Trazado_190363" data-name="Trazado 190363" d="M1128.067,229.591,980.028,283.473a5.011,5.011,0,0,1-6.423-3L898.725,74.744a5.011,5.011,0,0,1,2.995-6.423l148.04-53.882a5.011,5.011,0,0,1,6.423,3l74.88,205.733A5.01,5.01,0,0,1,1128.067,229.591Z" transform="translate(-898.421 -14.136)" fill="#495375"/>
              <rect id="Rectángulo_43619" data-name="Rectángulo 43619" width="208.916" height="147.518" transform="translate(150.057 11.435) rotate(70)" fill="#65b2ff"/>
              <g id="Grupo_146032" data-name="Grupo 146032" transform="translate(38.401 6.916)">
                <rect id="Rectángulo_43620" data-name="Rectángulo 43620" width="81.177" height="19.815" transform="translate(0 32.079) rotate(-20)" fill="#e4e4e0"/>
                <g id="Grupo_146031" data-name="Grupo 146031" transform="translate(7.397)">
                  <path id="Trazado_190364" data-name="Trazado 190364" d="M1026.168,40.3l1.236-.45-2.278-6.259A8.581,8.581,0,0,0,1009,39.457l2.278,6.259-21.459,7.811,4.609,12.664L1053.473,44.7l-3.9-10.726-24.4,8.882Zm-7.656.208a4.238,4.238,0,1,1,2.533-5.431A4.238,4.238,0,0,1,1018.512,40.5Z" transform="translate(-989.817 -27.939)" fill="#99a3b0"/>
                  <rect id="Rectángulo_43621" data-name="Rectángulo 43621" width="62.837" height="5.89" transform="translate(4.609 38.252) rotate(-20)" fill="#c7d2d7"/>
                  <path id="Trazado_190365" data-name="Trazado 190365" d="M1062.6,43.925l-1.236.45-1,2.559,24.4-8.882-.705-1.938Z" transform="translate(-1025.012 -32.017)" fill="#808d9b"/>
                  <path id="Trazado_190366" data-name="Trazado 190366" d="M1019.4,59.284l-28.876,10.51-.705-1.938,30.759-11.2Z" transform="translate(-989.817 -42.268)" fill="#808d9b"/>
                </g>
                <path id="Trazado_190367" data-name="Trazado 190367" d="M988.361,85.7l5.4,14.844-9.311-13.422Z" transform="translate(-979.744 -56.754)" fill="#d4cfbe"/>
              </g>
            </g>
            <g id="Grupo_146116" data-name="Grupo 146116" transform="translate(27.727 37.897)">
              <text id="List_of_Applicants" data-name="List of Applicants" transform="translate(83.892 8.934) rotate(-20)" fill="#fff" font-size="9" font-family="Montserrat-Black, Montserrat" font-weight="800"><tspan x="-85.599" y="0">List of Applicants</tspan></text>
              <g id="Grupo_146037" data-name="Grupo 146037" transform="translate(5.246 1.927)">
                <g id="Grupo_146034" data-name="Grupo 146034" transform="translate(0.707 1.942)">
                  <rect id="Rectángulo_43622" data-name="Rectángulo 43622" width="120.028" height="1.503" transform="translate(0 41.052) rotate(-20)" fill="#b9f3ff"/>
                </g>
                <g id="Grupo_146035" data-name="Grupo 146035" transform="translate(70.325 0)">
                  <rect id="Rectángulo_43623" data-name="Rectángulo 43623" width="45.19" height="0.501" transform="matrix(0.94, -0.342, 0.342, 0.94, 0, 15.456)" fill="#b9f3ff"/>
                </g>
                <g id="Grupo_146036" data-name="Grupo 146036" transform="translate(0 21.169)">
                  <rect id="Rectángulo_43624" data-name="Rectángulo 43624" width="58.135" height="0.501" transform="translate(0 19.883) rotate(-20)" fill="#b9f3ff"/>
                </g>
              </g>
              <g id="Grupo_146054" data-name="Grupo 146054" transform="translate(7.393 28.044)">
                <g id="Grupo_146038" data-name="Grupo 146038" transform="translate(12.54 18.996)">
                  <rect id="Rectángulo_43625" data-name="Rectángulo 43625" width="120.028" height="0.501" transform="translate(0 41.052) rotate(-20)" fill="#fff"/>
                </g>
                <path id="Trazado_190368" data-name="Trazado 190368" d="M1000.876,215.276a17.744,17.744,0,1,1,10.6-22.742A17.764,17.764,0,0,1,1000.876,215.276Z" transform="translate(-972.776 -163.257)" fill="#fff"/>
                <circle id="Elipse_4956" data-name="Elipse 4956" cx="15.739" cy="15.739" r="15.739" transform="matrix(0.599, -0.801, 0.801, 0.599, 0, 38.52)" fill="#4987e5"/>
                <rect id="Rectángulo_43626" data-name="Rectángulo 43626" width="14.031" height="3.201" transform="translate(39.938 14.187) rotate(-20)" fill="#fff"/>
                <rect id="Rectángulo_43627" data-name="Rectángulo 43627" width="19.543" height="3.201" transform="translate(56.419 8.189) rotate(-20)" fill="#fff"/>
                <g id="Grupo_146039" data-name="Grupo 146039" transform="translate(42.219 0)">
                  <rect id="Rectángulo_43628" data-name="Rectángulo 43628" width="59.797" height="1.879" transform="translate(0 20.452) rotate(-20)" fill="#96e4ff"/>
                  <rect id="Rectángulo_43629" data-name="Rectángulo 43629" width="59.797" height="1.879" transform="translate(1.461 24.467) rotate(-20)" fill="#96e4ff"/>
                  <rect id="Rectángulo_43630" data-name="Rectángulo 43630" width="59.797" height="1.879" transform="translate(2.923 28.483) rotate(-20)" fill="#96e4ff"/>
                  <rect id="Rectángulo_43631" data-name="Rectángulo 43631" width="59.797" height="1.879" transform="translate(4.384 32.498) rotate(-20)" fill="#96e4ff"/>
                </g>
                <rect id="Rectángulo_43632" data-name="Rectángulo 43632" width="11.254" height="1.879" transform="translate(57.155 35.3) rotate(-20)" fill="#fff"/>
                <rect id="Rectángulo_43633" data-name="Rectángulo 43633" width="11.254" height="1.879" transform="translate(82.111 26.217) rotate(-20)" fill="#fff"/>
                <g id="Grupo_146040" data-name="Grupo 146040" transform="translate(109.52 3.638)">
                  <path id="Trazado_190369" data-name="Trazado 190369" d="M1201.735,163.745l-10.753,3.914-3.914-10.753,10.753-3.914Zm-10.154,2.629,8.87-3.228-3.229-8.87-8.869,3.228Z" transform="translate(-1187.068 -152.991)" fill="#fff"/>
                </g>
                <g id="Grupo_146041" data-name="Grupo 146041" transform="translate(48.431 35.288)">
                  <rect id="Rectángulo_43634" data-name="Rectángulo 43634" width="6.527" height="3.675" transform="translate(0 2.232) rotate(-20)" fill="#fff"/>
                  <path id="Trazado_190370" data-name="Trazado 190370" d="M1071.291,216.153,1068.853,219l-3.695-.61,3.974,1.376Z" transform="translate(-1065.158 -216.153)" fill="#96e4ff"/>
                </g>
                <path id="Trazado_190371" data-name="Trazado 190371" d="M1124.984,199.842a2.13,2.13,0,1,1-2.729-1.273A2.129,2.129,0,0,1,1124.984,199.842Z" transform="translate(-1044.513 -172.028)" fill="#96e4ff"/>
                <g id="Grupo_146053" data-name="Grupo 146053" transform="translate(0 13.315)">
                  <g id="Grupo_146052" data-name="Grupo 146052" transform="translate(0 0)" clip-path="url(#clip-path-2)">
                    <g id="Grupo_146051" data-name="Grupo 146051" transform="translate(12.199 8.1)">
                      <g id="Grupo_146044" data-name="Grupo 146044" transform="translate(1.712 12.95)">
                        <path id="Trazado_190372" data-name="Trazado 190372" d="M1012.252,221.665a6.182,6.182,0,0,0-2.349,1.519l.6,1.659,2.562-.933,2.562-.933-.6-1.659A6.186,6.186,0,0,0,1012.252,221.665Z" transform="translate(-1003.07 -217.771)" fill="#e4e4e0"/>
                        <g id="Grupo_146042" data-name="Grupo 146042" transform="translate(0 4.549)">
                          <path id="Trazado_190373" data-name="Trazado 190373" d="M998.613,232.089a6.985,6.985,0,0,0-2.3,5.986l.42,3.814,11.578-4.214-5.611-9.215Z" transform="translate(-996.267 -225.919)" fill="#495375"/>
                          <path id="Trazado_190374" data-name="Trazado 190374" d="M1015.2,223.39l-.105.395a3.279,3.279,0,0,1-5.053,1.84l-.334-.235-.609.541,5.611,9.215,1.465-.533,1.465-.533-1.624-10.666Z" transform="translate(-1002.667 -223.39)" fill="#e4e4e0"/>
                          <path id="Trazado_190375" data-name="Trazado 190375" d="M1033.97,226.7a6.985,6.985,0,0,0-5.612-3.105l-5.459-.155,1.624,10.666,11.578-4.214Z" transform="translate(-1009.554 -223.413)" fill="#495375"/>
                        </g>
                        <g id="Grupo_146043" data-name="Grupo 146043" transform="translate(5.844)">
                          <path id="Trazado_190376" data-name="Trazado 190376" d="M1014.161,219.715a2.642,2.642,0,0,1-1.55,1.864l-.1.038-.1.038a2.644,2.644,0,0,1-2.385-.431l-.214-.144.709,1.948-.456.406.334.235a3.279,3.279,0,0,0,5.053-1.839l.105-.395-.61-.018-.709-1.948Z" transform="translate(-1008.866 -216.883)" fill="#f0bf9c"/>
                          <path id="Trazado_190377" data-name="Trazado 190377" d="M1011.469,219.081l.1-.038.1-.038a2.642,2.642,0,0,0,1.55-1.864l.072-.248-.941-2.584-2.213.806-2.213.805.94,2.584.214.144A2.644,2.644,0,0,0,1011.469,219.081Z" transform="translate(-1007.929 -214.311)" fill="#3c3247"/>
                        </g>
                        <path id="Trazado_190378" data-name="Trazado 190378" d="M1008.219,228.46l-.856,3.743a.961.961,0,0,0,.861,1.172l.891.07-.615,2.016a.962.962,0,0,0,.443,1.115l3.077,1.758,1.812-.659Z" transform="translate(-1001.791 -221.37)" fill="#9ea7b3"/>
                        <path id="Trazado_190379" data-name="Trazado 190379" d="M1013.045,226.883s-2.621-.5-3.545-1.769l-.405,1.677a6.757,6.757,0,0,0,3.583,3.121Z" transform="translate(-1002.667 -219.701)" fill="#fff"/>
                        <path id="Trazado_190380" data-name="Trazado 190380" d="M1016.729,228.644l-.25,2.059.662.516.463-.169.463-.169.176-.821Z" transform="translate(-1006.351 -221.462)" fill="#a34262"/>
                        <path id="Trazado_190381" data-name="Trazado 190381" d="M1018.728,233.11l-.463.169-.463.169,1.433,6.481,1.281-.466L1021.8,239Z" transform="translate(-1007.011 -223.69)" fill="#cc6164"/>
                        <path id="Trazado_190382" data-name="Trazado 190382" d="M1022.9,223.436l3.061,2.317a.961.961,0,0,1,.094,1.451l-.637.627,1.767,1.149a.961.961,0,0,1,.378,1.138l-1.227,3.325-1.811.659Z" transform="translate(-1009.554 -218.864)" fill="#9ea7b3"/>
                        <path id="Trazado_190383" data-name="Trazado 190383" d="M1016.978,225.026s1.69-2.064,1.579-3.634l1.388,1.024a6.76,6.76,0,0,1-.739,4.694Z" transform="translate(-1006.6 -217.844)" fill="#fff"/>
                      </g>
                      <g id="Grupo_146050" data-name="Grupo 146050">
                        <g id="Grupo_146045" data-name="Grupo 146045" transform="translate(2.083 12.801)">
                          <path id="Trazado_190384" data-name="Trazado 190384" d="M1000.485,215.192a1.792,1.792,0,1,1-2.3-1.071A1.792,1.792,0,0,1,1000.485,215.192Z" transform="translate(-997.009 -214.012)" fill="#f0bf9c"/>
                          <path id="Trazado_190385" data-name="Trazado 190385" d="M1000.533,216.327a.943.943,0,1,1-1.209-.564A.943.943,0,0,1,1000.533,216.327Z" transform="translate(-997.854 -214.857)" fill="#eba588"/>
                        </g>
                        <g id="Grupo_146046" data-name="Grupo 146046" transform="translate(13.029 8.817)">
                          <path id="Trazado_190386" data-name="Trazado 190386" d="M1018.961,208.467a1.792,1.792,0,1,0,1.071-2.3A1.792,1.792,0,0,0,1018.961,208.467Z" transform="translate(-1018.852 -206.062)" fill="#f0bf9c"/>
                          <path id="Trazado_190387" data-name="Trazado 190387" d="M1020.6,209.022a.943.943,0,1,0,.564-1.209A.943.943,0,0,0,1020.6,209.022Z" transform="translate(-1019.697 -206.907)" fill="#eba588"/>
                        </g>
                        <path id="Trazado_190388" data-name="Trazado 190388" d="M1000.621,194.038h0a5.938,5.938,0,0,0-3.549,7.611l.1.281a5.97,5.97,0,0,0,.609,1.217l2.073,3.172a4.272,4.272,0,0,0,2.66,1.836l.757.166a4.473,4.473,0,0,0,2.487-.166h0a4.468,4.468,0,0,0,2.011-1.472l.474-.614a4.273,4.273,0,0,0,.857-3.116l-.452-3.762a5.922,5.922,0,0,0-.315-1.324l-.1-.28A5.938,5.938,0,0,0,1000.621,194.038Z" transform="translate(-994.778 -191.067)" fill="#f0bf9c"/>
                        <path id="Trazado_190389" data-name="Trazado 190389" d="M1011.348,212.539l-1.711.623-.015.005a2.736,2.736,0,0,0,.55.158.95.95,0,0,0,.571-.061A1.627,1.627,0,0,0,1011.348,212.539Z" transform="translate(-1001.219 -200.477)" fill="#eba588"/>
                        <path id="Trazado_190390" data-name="Trazado 190390" d="M1012.11,213.9a4.5,4.5,0,0,1-3.92,1.355,2.948,2.948,0,0,0,2.276.283A3.017,3.017,0,0,0,1012.11,213.9Z" transform="translate(-1000.504 -201.153)" fill="#fff"/>
                        <path id="Trazado_190391" data-name="Trazado 190391" d="M1013.013,217.13l-1.678.611a1.46,1.46,0,0,0,.946.022A1.524,1.524,0,0,0,1013.013,217.13Z" transform="translate(-1002.073 -202.767)" fill="#eba588"/>
                        <path id="Trazado_190392" data-name="Trazado 190392" d="M1007.53,195.925a9,9,0,0,0-2.918-6.145,6.305,6.305,0,0,0-9.79,2.807,3.4,3.4,0,0,0-1.933,2.7,5.589,5.589,0,0,0,.735,3.344,18.013,18.013,0,0,0,2.11,2.934l2.2,2.15-1.841-2.835a6.016,6.016,0,0,0,.107-4.747,5.265,5.265,0,0,1,1.226.741,1.563,1.563,0,0,0-.8-1.566,4.286,4.286,0,0,0,2.751.536,10.318,10.318,0,0,0,2.733-.793c-.9-.077-1.783-.109-2.684-.122a47.743,47.743,0,0,1,5.132-.938,5.031,5.031,0,0,0,2.222,3l.4,3.357Z" transform="translate(-992.852 -188.467)" fill="#8e5a61"/>
                        <g id="Grupo_146049" data-name="Grupo 146049" transform="translate(4.217 7.626)">
                          <g id="Grupo_146047" data-name="Grupo 146047" transform="translate(0 1.648)">
                            <path id="Trazado_190393" data-name="Trazado 190393" d="M1002.577,207.1a2.111,2.111,0,0,0-1.309,1.348l3.174-1.118A2.111,2.111,0,0,0,1002.577,207.1Z" transform="translate(-1001.268 -206.975)" fill="#8e5a61"/>
                          </g>
                          <path id="Trazado_190394" data-name="Trazado 190394" d="M1005.2,210.326a.529.529,0,1,1-.674-.323A.529.529,0,0,1,1005.2,210.326Z" transform="translate(-1002.715 -206.822)" fill="#422c4f"/>
                          <g id="Grupo_146048" data-name="Grupo 146048" transform="translate(4.68)">
                            <path id="Trazado_190395" data-name="Trazado 190395" d="M1011.916,203.806a2.111,2.111,0,0,0-1.309,1.348l3.174-1.118A2.11,2.11,0,0,0,1011.916,203.806Z" transform="translate(-1010.607 -203.686)" fill="#8e5a61"/>
                          </g>
                          <path id="Trazado_190396" data-name="Trazado 190396" d="M1014.535,207.036a.529.529,0,1,1-.674-.323A.529.529,0,0,1,1014.535,207.036Z" transform="translate(-1007.375 -205.181)" fill="#422c4f"/>
                        </g>
                      </g>
                    </g>
                  </g>
                </g>
              </g>
              <g id="Grupo_146071" data-name="Grupo 146071" transform="translate(22.603 67.474)">
                <g id="Grupo_146055" data-name="Grupo 146055" transform="translate(11.681 18.996)">
                  <rect id="Rectángulo_43635" data-name="Rectángulo 43635" width="120.028" height="0.501" transform="matrix(0.94, -0.342, 0.342, 0.94, 0, 41.052)" fill="#fff"/>
                </g>
                <path id="Trazado_190397" data-name="Trazado 190397" d="M1029.515,293.962a17.744,17.744,0,1,1,10.605-22.742A17.764,17.764,0,0,1,1029.515,293.962Z" transform="translate(-1002.273 -241.943)" fill="#fff"/>
                <circle id="Elipse_4958" data-name="Elipse 4958" cx="15.739" cy="15.739" r="15.739" transform="matrix(0.454, -0.891, 0.891, 0.454, 0, 42.214)" fill="#f4d071"/>
                <rect id="Rectángulo_43636" data-name="Rectángulo 43636" width="14.031" height="3.201" transform="translate(39.08 14.187) rotate(-20)" fill="#fff"/>
                <rect id="Rectángulo_43637" data-name="Rectángulo 43637" width="19.543" height="3.201" transform="translate(55.561 8.189) rotate(-20)" fill="#fff"/>
                <g id="Grupo_146056" data-name="Grupo 146056" transform="translate(41.36 0)">
                  <rect id="Rectángulo_43638" data-name="Rectángulo 43638" width="59.797" height="1.879" transform="translate(0 20.452) rotate(-20)" fill="#96e4ff"/>
                  <rect id="Rectángulo_43639" data-name="Rectángulo 43639" width="59.797" height="1.879" transform="translate(1.461 24.467) rotate(-20)" fill="#96e4ff"/>
                  <rect id="Rectángulo_43640" data-name="Rectángulo 43640" width="59.797" height="1.879" transform="translate(2.923 28.483) rotate(-20)" fill="#96e4ff"/>
                  <rect id="Rectángulo_43641" data-name="Rectángulo 43641" width="59.797" height="1.879" transform="translate(4.384 32.498) rotate(-20)" fill="#96e4ff"/>
                </g>
                <rect id="Rectángulo_43642" data-name="Rectángulo 43642" width="11.254" height="1.879" transform="matrix(0.94, -0.342, 0.342, 0.94, 56.296, 35.3)" fill="#fff"/>
                <rect id="Rectángulo_43643" data-name="Rectángulo 43643" width="11.254" height="1.879" transform="matrix(0.94, -0.342, 0.342, 0.94, 81.253, 26.217)" fill="#fff"/>
                <g id="Grupo_146057" data-name="Grupo 146057" transform="translate(108.661 3.637)">
                  <path id="Trazado_190398" data-name="Trazado 190398" d="M1230.374,242.43l-10.753,3.914-3.914-10.753,10.753-3.914Zm-10.154,2.629,8.87-3.228-3.228-8.87-8.869,3.228Z" transform="translate(-1215.707 -231.677)" fill="#fff"/>
                </g>
                <g id="Grupo_146058" data-name="Grupo 146058" transform="translate(47.572 35.288)">
                  <rect id="Rectángulo_43644" data-name="Rectángulo 43644" width="6.527" height="3.675" transform="translate(0 2.232) rotate(-20)" fill="#fff"/>
                  <path id="Trazado_190399" data-name="Trazado 190399" d="M1099.93,294.839l-2.438,2.843-3.7-.61,3.974,1.376Z" transform="translate(-1093.797 -294.839)" fill="#96e4ff"/>
                </g>
                <path id="Trazado_190400" data-name="Trazado 190400" d="M1153.624,278.528a2.13,2.13,0,1,1-2.73-1.273A2.13,2.13,0,0,1,1153.624,278.528Z" transform="translate(-1074.011 -250.714)" fill="#96e4ff"/>
                <g id="Grupo_146070" data-name="Grupo 146070" transform="translate(0 14.173)">
                  <g id="Grupo_146069" data-name="Grupo 146069" transform="translate(0 0)" clip-path="url(#clip-path-3)">
                    <g id="Grupo_146068" data-name="Grupo 146068" transform="translate(11.275 7.569)">
                      <g id="Grupo_146061" data-name="Grupo 146061" transform="translate(1.777 12.622)">
                        <path id="Trazado_190401" data-name="Trazado 190401" d="M1040.891,300.352a6.176,6.176,0,0,0-2.348,1.519l.6,1.659,2.561-.932,2.562-.933-.6-1.659A6.177,6.177,0,0,0,1040.891,300.352Z" transform="translate(-1031.71 -296.458)" fill="#3e4870"/>
                        <g id="Grupo_146059" data-name="Grupo 146059" transform="translate(0 4.549)">
                          <path id="Trazado_190402" data-name="Trazado 190402" d="M1027.252,310.775a6.987,6.987,0,0,0-2.3,5.986l.42,3.814,11.578-4.214-5.612-9.215Z" transform="translate(-1024.907 -304.606)" fill="#96e4ff"/>
                          <path id="Trazado_190403" data-name="Trazado 190403" d="M1043.837,302.076l-.1.395a3.279,3.279,0,0,1-5.054,1.839l-.334-.235-.609.542,5.612,9.215,1.465-.533,1.465-.533-1.625-10.666Z" transform="translate(-1031.307 -302.076)" fill="#3e4870"/>
                          <path id="Trazado_190404" data-name="Trazado 190404" d="M1062.61,305.383a6.986,6.986,0,0,0-5.612-3.1l-5.46-.155,1.625,10.666,11.578-4.214Z" transform="translate(-1038.193 -302.099)" fill="#96e4ff"/>
                        </g>
                        <g id="Grupo_146060" data-name="Grupo 146060" transform="translate(5.844)">
                          <path id="Trazado_190405" data-name="Trazado 190405" d="M1042.8,298.4a2.645,2.645,0,0,1-1.55,1.864l-.1.037-.1.038a2.643,2.643,0,0,1-2.385-.431l-.215-.144.709,1.948-.456.405.334.235a3.279,3.279,0,0,0,5.054-1.84l.1-.395-.61-.017-.709-1.948Z" transform="translate(-1037.505 -295.57)" fill="#bd6c67"/>
                          <path id="Trazado_190406" data-name="Trazado 190406" d="M1040.109,297.768l.1-.038.1-.037a2.644,2.644,0,0,0,1.55-1.864l.071-.248L1041,293l-2.214.805-2.213.806.94,2.584.214.144A2.643,2.643,0,0,0,1040.109,297.768Z" transform="translate(-1036.569 -292.998)" fill="#3c3247"/>
                        </g>
                        <path id="Trazado_190407" data-name="Trazado 190407" d="M1036.858,307.147,1036,310.89a.96.96,0,0,0,.86,1.172l.891.071-.615,2.016a.961.961,0,0,0,.442,1.114l3.077,1.758,1.811-.659Z" transform="translate(-1030.431 -300.057)" fill="#b9f3ff"/>
                        <path id="Trazado_190408" data-name="Trazado 190408" d="M1041.684,305.569s-2.621-.5-3.545-1.769l-.406,1.677a6.76,6.76,0,0,0,3.583,3.121Z" transform="translate(-1031.307 -298.387)" fill="#4a5882"/>
                        <path id="Trazado_190409" data-name="Trazado 190409" d="M1045.369,307.33l-.25,2.059.662.516.463-.168.463-.169.176-.821Z" transform="translate(-1034.991 -300.148)" fill="#6bc5ff"/>
                        <path id="Trazado_190410" data-name="Trazado 190410" d="M1047.367,311.8l-.463.169-.463.169,1.433,6.481,1.281-.466,1.281-.466Z" transform="translate(-1035.651 -302.376)" fill="#6bc5ff"/>
                        <path id="Trazado_190411" data-name="Trazado 190411" d="M1051.538,302.123l3.061,2.317a.96.96,0,0,1,.094,1.451l-.637.627,1.768,1.149a.961.961,0,0,1,.377,1.138l-1.226,3.325-1.812.659Z" transform="translate(-1038.193 -297.551)" fill="#b9f3ff"/>
                        <path id="Trazado_190412" data-name="Trazado 190412" d="M1045.617,303.712s1.69-2.064,1.578-3.633l1.389,1.024a6.758,6.758,0,0,1-.738,4.694Z" transform="translate(-1035.239 -296.531)" fill="#4a5882"/>
                      </g>
                      <g id="Grupo_146067" data-name="Grupo 146067">
                        <g id="Grupo_146062" data-name="Grupo 146062" transform="translate(2.149 12.472)">
                          <path id="Trazado_190413" data-name="Trazado 190413" d="M1029.125,293.878a1.792,1.792,0,1,1-2.3-1.071A1.792,1.792,0,0,1,1029.125,293.878Z" transform="translate(-1025.648 -292.699)" fill="#bd6c67"/>
                          <path id="Trazado_190414" data-name="Trazado 190414" d="M1029.172,295.014a.943.943,0,1,1-1.209-.564A.943.943,0,0,1,1029.172,295.014Z" transform="translate(-1026.493 -293.544)" fill="#a64f5a"/>
                        </g>
                        <g id="Grupo_146063" data-name="Grupo 146063" transform="translate(13.094 8.489)">
                          <path id="Trazado_190415" data-name="Trazado 190415" d="M1047.6,287.154a1.792,1.792,0,1,0,1.072-2.3A1.792,1.792,0,0,0,1047.6,287.154Z" transform="translate(-1047.492 -284.749)" fill="#bd6c67"/>
                          <path id="Trazado_190416" data-name="Trazado 190416" d="M1049.243,287.709a.943.943,0,1,0,.564-1.21A.943.943,0,0,0,1049.243,287.709Z" transform="translate(-1048.337 -285.594)" fill="#a64f5a"/>
                        </g>
                        <path id="Trazado_190417" data-name="Trazado 190417" d="M1029.26,272.725h0a5.939,5.939,0,0,0-3.549,7.612l.1.28a5.946,5.946,0,0,0,.609,1.217l2.073,3.172a4.272,4.272,0,0,0,2.66,1.836l.757.166a4.47,4.47,0,0,0,2.487-.165h0a4.472,4.472,0,0,0,2.012-1.472l.473-.614a4.27,4.27,0,0,0,.858-3.116l-.451-3.762a5.951,5.951,0,0,0-.316-1.323l-.1-.281A5.939,5.939,0,0,0,1029.26,272.725Z" transform="translate(-1023.351 -270.082)" fill="#bd6c67"/>
                        <path id="Trazado_190418" data-name="Trazado 190418" d="M1039.988,291.226l-1.711.623-.016.006a2.768,2.768,0,0,0,.551.158.958.958,0,0,0,.571-.061A1.633,1.633,0,0,0,1039.988,291.226Z" transform="translate(-1029.792 -279.492)" fill="#a64f5a"/>
                        <path id="Trazado_190419" data-name="Trazado 190419" d="M1041.652,295.817l-1.678.61a1.459,1.459,0,0,0,.946.022A1.527,1.527,0,0,0,1041.652,295.817Z" transform="translate(-1030.646 -281.782)" fill="#a64f5a"/>
                        <path id="Trazado_190420" data-name="Trazado 190420" d="M1040.8,292.262l-4.979,1.812a4.327,4.327,0,0,0,2.806.064A4.527,4.527,0,0,0,1040.8,292.262Z" transform="translate(-1028.576 -280.008)" fill="#fff"/>
                        <path id="Trazado_190421" data-name="Trazado 190421" d="M1030.94,267.827a16.031,16.031,0,0,0-8.169,2.973,3.18,3.18,0,0,0-1.218,3.733l.21.575a19.719,19.719,0,0,0,3.3,5.786l1.152,1.4-1.95-3.886a9.943,9.943,0,0,0-.209-4.362s2.875-.646,4.12-1.1h0c1.245-.453,3.863-1.806,3.863-1.806a9.938,9.938,0,0,0,2.643,3.476l1,4.231-.018-1.814a19.727,19.727,0,0,0-1.189-6.555l-.209-.575A3.18,3.18,0,0,0,1030.94,267.827Z" transform="translate(-1021.36 -267.808)" fill="#422c4f"/>
                        <g id="Grupo_146066" data-name="Grupo 146066" transform="translate(4.213 6.961)">
                          <g id="Grupo_146064" data-name="Grupo 146064" transform="translate(0 1.648)">
                            <path id="Trazado_190422" data-name="Trazado 190422" d="M1031.078,285.11a2.109,2.109,0,0,0-1.31,1.348l3.174-1.118A2.109,2.109,0,0,0,1031.078,285.11Z" transform="translate(-1029.768 -284.99)" fill="#422c4f"/>
                          </g>
                          <path id="Trazado_190423" data-name="Trazado 190423" d="M1033.7,288.34a.528.528,0,1,1-.674-.323A.528.528,0,0,1,1033.7,288.34Z" transform="translate(-1031.215 -284.837)" fill="#422c4f"/>
                          <g id="Grupo_146065" data-name="Grupo 146065" transform="translate(4.68)">
                            <path id="Trazado_190424" data-name="Trazado 190424" d="M1040.417,281.821a2.113,2.113,0,0,0-1.31,1.348l3.175-1.118A2.111,2.111,0,0,0,1040.417,281.821Z" transform="translate(-1039.107 -281.7)" fill="#422c4f"/>
                          </g>
                          <path id="Trazado_190425" data-name="Trazado 190425" d="M1043.035,285.051a.529.529,0,1,1-.674-.323A.528.528,0,0,1,1043.035,285.051Z" transform="translate(-1035.875 -283.196)" fill="#422c4f"/>
                        </g>
                      </g>
                    </g>
                  </g>
                </g>
              </g>
              <g id="Grupo_146098" data-name="Grupo 146098" transform="translate(40.383 106.903)">
                <g id="Grupo_146072" data-name="Grupo 146072" transform="translate(8.253 18.996)">
                  <rect id="Rectángulo_43645" data-name="Rectángulo 43645" width="120.028" height="0.501" transform="translate(0 41.052) rotate(-20)" fill="#fff"/>
                </g>
                <path id="Trazado_190426" data-name="Trazado 190426" d="M1058.155,372.649a17.744,17.744,0,1,1,10.605-22.742A17.763,17.763,0,0,1,1058.155,372.649Z" transform="translate(-1034.342 -320.629)" fill="#fff"/>
                <circle id="Elipse_4960" data-name="Elipse 4960" cx="15.739" cy="15.739" r="15.739" transform="translate(2.005 19.607)" fill="#cc6164"/>
                <rect id="Rectángulo_43646" data-name="Rectángulo 43646" width="14.031" height="3.201" transform="translate(35.652 14.187) rotate(-20)" fill="#fff"/>
                <rect id="Rectángulo_43647" data-name="Rectángulo 43647" width="19.543" height="3.201" transform="translate(52.132 8.189) rotate(-20)" fill="#fff"/>
                <g id="Grupo_146073" data-name="Grupo 146073" transform="translate(37.932 0)">
                  <rect id="Rectángulo_43648" data-name="Rectángulo 43648" width="59.797" height="1.879" transform="translate(0 20.452) rotate(-20)" fill="#96e4ff"/>
                  <rect id="Rectángulo_43649" data-name="Rectángulo 43649" width="59.797" height="1.879" transform="translate(1.461 24.467) rotate(-20)" fill="#96e4ff"/>
                  <rect id="Rectángulo_43650" data-name="Rectángulo 43650" width="59.797" height="1.879" transform="translate(2.923 28.483) rotate(-20)" fill="#96e4ff"/>
                  <rect id="Rectángulo_43651" data-name="Rectángulo 43651" width="59.797" height="1.879" transform="translate(4.384 32.498) rotate(-20)" fill="#96e4ff"/>
                </g>
                <rect id="Rectángulo_43652" data-name="Rectángulo 43652" width="11.254" height="1.879" transform="matrix(0.94, -0.342, 0.342, 0.94, 52.868, 35.3)" fill="#fff"/>
                <rect id="Rectángulo_43653" data-name="Rectángulo 43653" width="11.254" height="1.879" transform="translate(77.825 26.217) rotate(-20)" fill="#fff"/>
                <g id="Grupo_146074" data-name="Grupo 146074" transform="translate(105.233 3.638)">
                  <path id="Trazado_190427" data-name="Trazado 190427" d="M1259.014,321.117l-10.753,3.914-3.914-10.753,10.753-3.914Zm-10.154,2.629,8.869-3.228-3.228-8.869-8.87,3.228Z" transform="translate(-1244.347 -310.365)" fill="#fff"/>
                </g>
                <g id="Grupo_146075" data-name="Grupo 146075" transform="translate(44.144 35.288)">
                  <rect id="Rectángulo_43654" data-name="Rectángulo 43654" width="6.527" height="3.675" transform="matrix(0.94, -0.342, 0.342, 0.94, 0, 2.232)" fill="#fff"/>
                  <path id="Trazado_190428" data-name="Trazado 190428" d="M1128.57,373.526l-2.438,2.843-3.695-.61,3.973,1.376Z" transform="translate(-1122.437 -373.526)" fill="#96e4ff"/>
                </g>
                <path id="Trazado_190429" data-name="Trazado 190429" d="M1182.263,357.214a2.13,2.13,0,1,1-2.73-1.273A2.13,2.13,0,0,1,1182.263,357.214Z" transform="translate(-1106.079 -329.401)" fill="#96e4ff"/>
                <g id="Grupo_146097" data-name="Grupo 146097" transform="translate(2.005 19.607)">
                  <g id="Grupo_146096" data-name="Grupo 146096" clip-path="url(#clip-path-4)">
                    <g id="Grupo_146095" data-name="Grupo 146095" transform="translate(6.662 2.505)">
                      <g id="Grupo_146085" data-name="Grupo 146085">
                        <path id="Trazado_190430" data-name="Trazado 190430" d="M1068.563,358.747l-1.8-2.355a14.817,14.817,0,0,1-2.153-3.932l-.57-1.565a5.563,5.563,0,0,0-7.13-3.325l-.8.293-.8.293a5.563,5.563,0,0,0-3.325,7.13l.57,1.566a14.829,14.829,0,0,1,.878,4.4l.134,2.962a14.807,14.807,0,0,0,2.865,8.1h0l7.578-2.758,7.579-2.758h0A14.811,14.811,0,0,0,1068.563,358.747Z" transform="translate(-1051.639 -347.233)" fill="#6a3649"/>
                        <g id="Grupo_146076" data-name="Grupo 146076" transform="translate(2.16 2.816)">
                          <path id="Trazado_190431" data-name="Trazado 190431" d="M1060.571,352.852c-.6.822-1.357,1.88-2.191,2.877s-1.731,1.937-2.43,2.678a10.518,10.518,0,0,0,4.621-5.555Z" transform="translate(-1055.95 -352.852)" fill="#8e5a61"/>
                        </g>
                        <g id="Grupo_146077" data-name="Grupo 146077" transform="translate(1.761 2.686)">
                          <path id="Trazado_190432" data-name="Trazado 190432" d="M1059.933,352.592c-.647.456-1.466,1.046-2.327,1.573s-1.755,1-2.453,1.366a8.163,8.163,0,0,0,4.78-2.939Z" transform="translate(-1055.153 -352.592)" fill="#8e5a61"/>
                        </g>
                        <g id="Grupo_146078" data-name="Grupo 146078" transform="translate(7.424 2.96)">
                          <path id="Trazado_190433" data-name="Trazado 190433" d="M1071.375,355.22a14.706,14.706,0,0,1-4.92-2.08,6.192,6.192,0,0,0,4.92,2.08Z" transform="translate(-1066.455 -353.14)" fill="#8e5a61"/>
                        </g>
                        <g id="Grupo_146079" data-name="Grupo 146079" transform="translate(7.277 2.506)">
                          <path id="Trazado_190434" data-name="Trazado 190434" d="M1069.99,352.647c-.543-.017-1.236-.035-1.924-.111s-1.37-.2-1.9-.3a5.393,5.393,0,0,0,3.828.414Z" transform="translate(-1066.162 -352.233)" fill="#8e5a61"/>
                        </g>
                        <g id="Grupo_146080" data-name="Grupo 146080" transform="translate(2.059 1.876)">
                          <path id="Trazado_190435" data-name="Trazado 190435" d="M1060.219,350.977c-.623.225-1.412.532-2.216.8s-1.62.489-2.254.678a7.556,7.556,0,0,0,4.471-1.474Z" transform="translate(-1055.748 -350.977)" fill="#8e5a61"/>
                        </g>
                        <g id="Grupo_146081" data-name="Grupo 146081" transform="translate(3.11 16.184)">
                          <path id="Trazado_190436" data-name="Trazado 190436" d="M1060.373,386.37a13.529,13.529,0,0,1-2.376-6.84,6.245,6.245,0,0,0-.14,1.76,7.371,7.371,0,0,0,1.316,3.787A6.258,6.258,0,0,0,1060.373,386.37Z" transform="translate(-1057.846 -379.53)" fill="#8e5a61"/>
                        </g>
                        <g id="Grupo_146082" data-name="Grupo 146082" transform="translate(4.682 17.793)">
                          <path id="Trazado_190437" data-name="Trazado 190437" d="M1063.181,386.913a18.665,18.665,0,0,1-2.2-4.172,6.19,6.19,0,0,0,2.2,4.172Z" transform="translate(-1060.983 -382.741)" fill="#8e5a61"/>
                        </g>
                        <g id="Grupo_146083" data-name="Grupo 146083" transform="translate(13.575 13.398)">
                          <path id="Trazado_190438" data-name="Trazado 190438" d="M1080.619,379.66a10.374,10.374,0,0,0-1.89-5.69c.269.8.647,1.808.985,2.832S1080.357,378.86,1080.619,379.66Z" transform="translate(-1078.729 -373.97)" fill="#8e5a61"/>
                        </g>
                        <g id="Grupo_146084" data-name="Grupo 146084" transform="translate(14.194 11.647)">
                          <path id="Trazado_190439" data-name="Trazado 190439" d="M1083.136,377.459a8.914,8.914,0,0,0-3.172-6.984,21.257,21.257,0,0,1,3.172,6.984Z" transform="translate(-1079.964 -370.475)" fill="#8e5a61"/>
                        </g>
                      </g>
                      <g id="Grupo_146088" data-name="Grupo 146088" transform="translate(0.956 12.253)">
                        <path id="Trazado_190440" data-name="Trazado 190440" d="M1069.531,379.038a6.181,6.181,0,0,0-2.349,1.519l.6,1.659,2.562-.933,2.562-.933-.6-1.659A6.183,6.183,0,0,0,1069.531,379.038Z" transform="translate(-1060.349 -375.144)" fill="#e4e4e0"/>
                        <g id="Grupo_146086" data-name="Grupo 146086" transform="translate(0 4.549)">
                          <path id="Trazado_190441" data-name="Trazado 190441" d="M1055.892,389.462a6.984,6.984,0,0,0-2.3,5.986l.42,3.814,11.577-4.214-5.611-9.215Z" transform="translate(-1053.546 -383.292)" fill="#504099"/>
                          <path id="Trazado_190442" data-name="Trazado 190442" d="M1072.476,380.763l-.105.395a3.279,3.279,0,0,1-5.053,1.839l-.334-.234-.609.541,5.611,9.215,1.465-.533,1.465-.533-1.624-10.666Z" transform="translate(-1059.946 -380.763)" fill="#e4e4e0"/>
                          <path id="Trazado_190443" data-name="Trazado 190443" d="M1091.249,384.069a6.985,6.985,0,0,0-5.612-3.1l-5.459-.155,1.624,10.666,11.578-4.214Z" transform="translate(-1066.833 -380.786)" fill="#504099"/>
                        </g>
                        <g id="Grupo_146087" data-name="Grupo 146087" transform="translate(5.844)">
                          <path id="Trazado_190444" data-name="Trazado 190444" d="M1071.44,377.088a2.642,2.642,0,0,1-1.55,1.864l-.1.038-.1.038a2.644,2.644,0,0,1-2.385-.431l-.214-.144.709,1.948-.456.406.334.235a3.279,3.279,0,0,0,5.054-1.839l.105-.395-.61-.018-.709-1.948Z" transform="translate(-1066.144 -374.256)" fill="#f0bf9c"/>
                          <path id="Trazado_190445" data-name="Trazado 190445" d="M1068.748,376.454l.1-.038.1-.038a2.642,2.642,0,0,0,1.55-1.864l.072-.248-.941-2.584-2.213.806-2.213.805.94,2.584.214.144A2.644,2.644,0,0,0,1068.748,376.454Z" transform="translate(-1065.208 -371.684)" fill="#3c3247"/>
                        </g>
                        <path id="Trazado_190446" data-name="Trazado 190446" d="M1065.5,385.833l-.856,3.743a.961.961,0,0,0,.861,1.172l.891.07-.615,2.016a.961.961,0,0,0,.442,1.114l3.077,1.758,1.812-.659Z" transform="translate(-1059.07 -378.743)" fill="#7565c7"/>
                        <path id="Trazado_190447" data-name="Trazado 190447" d="M1070.324,384.255s-2.621-.495-3.545-1.768l-.405,1.677c.5.851,1.134,1.894,1.75,2.9a1.222,1.222,0,0,0,2.264-.673Z" transform="translate(-1059.946 -377.074)" fill="#fff"/>
                        <path id="Trazado_190448" data-name="Trazado 190448" d="M1074.257,382.4s1.69-2.064,1.578-3.633l1.389,1.024c.161.976.348,2.179.527,3.35a1.222,1.222,0,0,1-2.167.94Z" transform="translate(-1063.879 -375.217)" fill="#fff"/>
                        <path id="Trazado_190449" data-name="Trazado 190449" d="M1080.178,380.809l3.061,2.317a.96.96,0,0,1,.094,1.451l-.637.627,1.767,1.149a.961.961,0,0,1,.378,1.138l-1.227,3.325-1.811.659Z" transform="translate(-1066.833 -376.236)" fill="#7565c7"/>
                        <path id="Trazado_190450" data-name="Trazado 190450" d="M1074.257,386.017l2.233,7.628.48-.175.48-.175Z" transform="translate(-1063.879 -378.835)" fill="#504099"/>
                        <path id="Trazado_190451" data-name="Trazado 190451" d="M1074.214,386.026l.71,6.923.462-.1.462-.1Z" transform="translate(-1063.857 -378.839)" fill="#504099"/>
                        <path id="Trazado_190452" data-name="Trazado 190452" d="M1074.214,386.026l3.907,5.76-.416.222-.417.222Z" transform="translate(-1063.857 -378.839)" fill="#504099"/>
                      </g>
                      <g id="Grupo_146094" data-name="Grupo 146094" transform="translate(0.347 3.519)">
                        <g id="Grupo_146089" data-name="Grupo 146089" transform="translate(0 7.439)">
                          <path id="Trazado_190453" data-name="Trazado 190453" d="M1055.525,370.184a1.646,1.646,0,1,1-2.11-.984A1.645,1.645,0,0,1,1055.525,370.184Z" transform="translate(-1052.332 -369.101)" fill="#eba588"/>
                          <path id="Trazado_190454" data-name="Trazado 190454" d="M1055.567,371.168a.911.911,0,1,1-1.167-.545A.91.91,0,0,1,1055.567,371.168Z" transform="translate(-1053.064 -369.833)" fill="#e78882"/>
                        </g>
                        <g id="Grupo_146090" data-name="Grupo 146090" transform="translate(12.063 3.048)">
                          <path id="Trazado_190455" data-name="Trazado 190455" d="M1076.506,362.548a1.646,1.646,0,1,0,.984-2.11A1.647,1.647,0,0,0,1076.506,362.548Z" transform="translate(-1076.406 -360.338)" fill="#eba588"/>
                          <path id="Trazado_190456" data-name="Trazado 190456" d="M1077.929,363.029a.911.911,0,1,0,.544-1.168A.911.911,0,0,0,1077.929,363.029Z" transform="translate(-1077.139 -361.071)" fill="#e78882"/>
                        </g>
                        <path id="Trazado_190457" data-name="Trazado 190457" d="M1060.541,354.256a12.656,12.656,0,0,1-4.974,7.474,8.971,8.971,0,0,0,4.708,5.094,4.578,4.578,0,0,0,6.033-2.2,8.971,8.971,0,0,0,.332-6.929C1064.442,357.569,1061.612,356.18,1060.541,354.256Z" transform="translate(-1053.946 -354.256)" fill="#f0bf9c"/>
                        <path id="Trazado_190458" data-name="Trazado 190458" d="M1056.961,374.751a1.753,1.753,0,0,1-.193.14.79.79,0,0,1,.05.108c.086.235.043.427-.022.451s-.221-.1-.307-.331a.822.822,0,0,1-.025-.084.572.572,0,0,1-.007-.292.118.118,0,1,0-.225-.072.794.794,0,0,0,0,.425,1.014,1.014,0,0,0,.03.1c.127.35.389.553.61.473s.291-.4.164-.754A1.087,1.087,0,0,0,1056.961,374.751Z" transform="translate(-1054.264 -364.4)" fill="#f6dcc5"/>
                        <path id="Trazado_190459" data-name="Trazado 190459" d="M1079.71,366.36a1.651,1.651,0,0,0,.238-.017.8.8,0,0,0,.032.115c.085.235.241.355.307.331s.108-.216.023-.451a.837.837,0,0,0-.035-.08.568.568,0,0,0-.182-.228.118.118,0,0,1,.126-.2.793.793,0,0,1,.27.329c.016.032.031.064.044.1.126.35.056.674-.164.754s-.483-.123-.61-.472A1.051,1.051,0,0,1,1079.71,366.36Z" transform="translate(-1065.991 -360.021)" fill="#f6dcc5"/>
                        <path id="Trazado_190460" data-name="Trazado 190460" d="M1068.355,369.22a3.342,3.342,0,0,0-1.583.623.947.947,0,0,0,.951.2A1.073,1.073,0,0,0,1068.355,369.22Z" transform="translate(-1059.537 -361.722)" fill="#eba588"/>
                        <path id="Trazado_190461" data-name="Trazado 190461" d="M1069.169,371.092a8.485,8.485,0,0,1-3.735,1.519,2.368,2.368,0,0,0,2.4.5A2.326,2.326,0,0,0,1069.169,371.092Z" transform="translate(-1058.869 -362.656)" fill="#fff"/>
                        <g id="Grupo_146093" data-name="Grupo 146093" transform="translate(2.838 2.974)">
                          <g id="Grupo_146091" data-name="Grupo 146091" transform="translate(0 1.648)">
                            <path id="Trazado_190462" data-name="Trazado 190462" d="M1059.305,363.6A2.11,2.11,0,0,0,1058,364.95l3.174-1.118A2.112,2.112,0,0,0,1059.305,363.6Z" transform="translate(-1057.996 -363.482)" fill="#8e5a61"/>
                          </g>
                          <path id="Trazado_190463" data-name="Trazado 190463" d="M1061.924,366.832a.528.528,0,1,1-.674-.323A.529.529,0,0,1,1061.924,366.832Z" transform="translate(-1059.443 -363.329)" fill="#422c4f"/>
                          <g id="Grupo_146092" data-name="Grupo 146092" transform="translate(4.68)">
                            <path id="Trazado_190464" data-name="Trazado 190464" d="M1068.645,360.312a2.112,2.112,0,0,0-1.309,1.348l3.174-1.118A2.11,2.11,0,0,0,1068.645,360.312Z" transform="translate(-1067.336 -360.192)" fill="#8e5a61"/>
                          </g>
                          <path id="Trazado_190465" data-name="Trazado 190465" d="M1071.263,363.543a.529.529,0,1,1-.674-.323A.528.528,0,0,1,1071.263,363.543Z" transform="translate(-1064.103 -361.688)" fill="#422c4f"/>
                        </g>
                      </g>
                    </g>
                  </g>
                </g>
              </g>
              <g id="Grupo_146115" data-name="Grupo 146115" transform="translate(51.219 146.333)">
                <path id="Trazado_190466" data-name="Trazado 190466" d="M1086.794,451.336a17.744,17.744,0,1,1,10.605-22.742A17.764,17.764,0,0,1,1086.794,451.336Z" transform="translate(-1059.466 -399.316)" fill="#fff"/>
                <circle id="Elipse_4962" data-name="Elipse 4962" cx="15.739" cy="15.739" r="15.739" transform="matrix(0.466, -0.885, 0.885, 0.466, 0, 41.942)" fill="#87d38c"/>
                <g id="Grupo_146111" data-name="Grupo 146111" transform="translate(0 14.087)">
                  <g id="Grupo_146110" data-name="Grupo 146110" transform="translate(0 0)" clip-path="url(#clip-path-5)">
                    <g id="Grupo_146109" data-name="Grupo 146109" transform="translate(8.544 6.197)">
                      <path id="Trazado_190467" data-name="Trazado 190467" d="M1082.165,449.665a2.587,2.587,0,0,1-2.161.15,2.557,2.557,0,0,1-1.529-1.514,2.055,2.055,0,0,1-2.3-2.862,2.426,2.426,0,0,1-1.408-1.875,2.638,2.638,0,0,1,.836-2.3,1.238,1.238,0,0,1,.182-2.333,2.654,2.654,0,0,1-.973-1.656,3,3,0,0,1,.413-2,2.779,2.779,0,0,1-1.3-4.777,1.695,1.695,0,0,1,.827-2.707,2.532,2.532,0,0,1,.674-2.321,2.706,2.706,0,0,1,2.4-.716,2.31,2.31,0,0,1,1.882-1.766,4.286,4.286,0,0,1,2.658.486,2.115,2.115,0,0,1,1.75-1.194,1.857,1.857,0,0,1,1.71.99,2.175,2.175,0,0,1,3.406,2.426,2.7,2.7,0,0,1,1.705,3.053,1.831,1.831,0,0,1,2.157,1.841,2.859,2.859,0,0,1,2.248.731,2.654,2.654,0,0,1,.906,2.087,2.764,2.764,0,0,1,1.971,1.694,2.471,2.471,0,0,1-.438,2.41,2.216,2.216,0,0,1,.1,3.374,3.23,3.23,0,0,1-.64,2.321,6.224,6.224,0,0,1-2.326,1.677,64.389,64.389,0,0,1-9.99,3.966A17.677,17.677,0,0,0,1082.165,449.665Z" transform="translate(-1073.018 -422.271)" fill="#472948"/>
                      <g id="Grupo_146101" data-name="Grupo 146101" transform="translate(4.524 13.89)">
                        <path id="Trazado_190468" data-name="Trazado 190468" d="M1098.031,457.343a6.189,6.189,0,0,0-2.348,1.519l.6,1.659,2.562-.933,2.562-.932-.6-1.659A6.18,6.18,0,0,0,1098.031,457.343Z" transform="translate(-1088.85 -453.449)" fill="#495375"/>
                        <g id="Grupo_146099" data-name="Grupo 146099" transform="translate(0 4.549)">
                          <path id="Trazado_190469" data-name="Trazado 190469" d="M1084.392,467.766a6.987,6.987,0,0,0-2.3,5.986l.419,3.814,11.578-4.214-5.611-9.215Z" transform="translate(-1082.047 -461.597)" fill="#c7d2d7"/>
                          <path id="Trazado_190470" data-name="Trazado 190470" d="M1100.977,459.068l-.1.394a3.279,3.279,0,0,1-5.054,1.84l-.334-.235-.609.541,5.611,9.215,1.465-.533,1.465-.533-1.625-10.666Z" transform="translate(-1088.447 -459.068)" fill="#495375"/>
                          <path id="Trazado_190471" data-name="Trazado 190471" d="M1119.75,462.374a6.986,6.986,0,0,0-5.612-3.1l-5.46-.155,1.625,10.666,11.578-4.214Z" transform="translate(-1095.333 -459.091)" fill="#c7d2d7"/>
                        </g>
                        <g id="Grupo_146100" data-name="Grupo 146100" transform="translate(5.844)">
                          <path id="Trazado_190472" data-name="Trazado 190472" d="M1099.941,455.393a2.644,2.644,0,0,1-1.55,1.864l-.1.038-.1.037a2.642,2.642,0,0,1-2.385-.431l-.214-.144.709,1.948-.456.406.334.235a3.279,3.279,0,0,0,5.054-1.839l.1-.394-.61-.018-.709-1.948Z" transform="translate(-1094.646 -452.561)" fill="#bd6c67"/>
                          <path id="Trazado_190473" data-name="Trazado 190473" d="M1097.249,454.759l.1-.037.1-.038a2.644,2.644,0,0,0,1.55-1.863l.071-.248-.94-2.584-2.213.806-2.213.805.941,2.584.214.144A2.642,2.642,0,0,0,1097.249,454.759Z" transform="translate(-1093.709 -449.989)" fill="#3c3247"/>
                        </g>
                        <path id="Trazado_190474" data-name="Trazado 190474" d="M1094,464.138l-.856,3.743a.961.961,0,0,0,.86,1.172l.891.07-.615,2.016a.96.96,0,0,0,.442,1.114l3.077,1.758,1.812-.659Z" transform="translate(-1087.57 -457.048)" fill="#e4e4e0"/>
                        <path id="Trazado_190475" data-name="Trazado 190475" d="M1098.824,462.56s-2.621-.495-3.545-1.769l-.4,1.677c.5.851,1.134,1.893,1.749,2.9a1.221,1.221,0,0,0,2.264-.672Z" transform="translate(-1088.447 -455.378)" fill="#797c99"/>
                        <path id="Trazado_190476" data-name="Trazado 190476" d="M1102.757,460.7s1.69-2.064,1.579-3.633l1.388,1.024c.161.976.349,2.179.527,3.35a1.221,1.221,0,0,1-2.166.94Z" transform="translate(-1092.379 -453.522)" fill="#797c99"/>
                        <path id="Trazado_190477" data-name="Trazado 190477" d="M1108.678,459.114l3.062,2.317a.961.961,0,0,1,.094,1.451l-.637.627,1.767,1.15a.96.96,0,0,1,.377,1.138l-1.227,3.324-1.811.659Z" transform="translate(-1095.333 -454.542)" fill="#e4e4e0"/>
                        <path id="Trazado_190478" data-name="Trazado 190478" d="M1102.758,464.321l2.233,7.628.479-.175.48-.175Z" transform="translate(-1092.38 -457.139)" fill="#c7d2d7"/>
                        <path id="Trazado_190479" data-name="Trazado 190479" d="M1102.714,464.33l.709,6.923.462-.1.462-.1Z" transform="translate(-1092.358 -457.144)" fill="#c7d2d7"/>
                        <path id="Trazado_190480" data-name="Trazado 190480" d="M1102.714,464.33l3.907,5.76-.417.222-.417.222Z" transform="translate(-1092.358 -457.144)" fill="#c7d2d7"/>
                      </g>
                      <g id="Grupo_146108" data-name="Grupo 146108" transform="translate(4.218 5.29)">
                        <g id="Grupo_146103" data-name="Grupo 146103" transform="translate(0 7.588)">
                          <g id="Grupo_146102" data-name="Grupo 146102">
                            <path id="Trazado_190481" data-name="Trazado 190481" d="M1084.54,449.023a1.6,1.6,0,1,1-2.051-.956A1.6,1.6,0,0,1,1084.54,449.023Z" transform="translate(-1081.437 -447.97)" fill="#a64f5a"/>
                            <path id="Trazado_190482" data-name="Trazado 190482" d="M1084.58,449.979a.885.885,0,1,1-1.135-.529A.885.885,0,0,1,1084.58,449.979Z" transform="translate(-1082.148 -448.681)" fill="#8c404c"/>
                          </g>
                          <path id="Trazado_190483" data-name="Trazado 190483" d="M1085.583,453.825a.281.281,0,1,1-.36-.168A.281.281,0,0,1,1085.583,453.825Z" transform="translate(-1083.233 -450.799)" fill="#fff"/>
                        </g>
                        <g id="Grupo_146105" data-name="Grupo 146105" transform="translate(11.724 3.321)">
                          <g id="Grupo_146104" data-name="Grupo 146104">
                            <path id="Trazado_190484" data-name="Trazado 190484" d="M1104.93,441.6a1.6,1.6,0,1,0,.956-2.051A1.6,1.6,0,0,0,1104.93,441.6Z" transform="translate(-1104.833 -439.454)" fill="#a64f5a"/>
                            <path id="Trazado_190485" data-name="Trazado 190485" d="M1106.313,442.069a.885.885,0,1,0,.529-1.135A.885.885,0,0,0,1106.313,442.069Z" transform="translate(-1105.545 -440.166)" fill="#8c404c"/>
                          </g>
                          <path id="Trazado_190486" data-name="Trazado 190486" d="M1108.693,445.413a.281.281,0,1,0,.168-.36A.281.281,0,0,0,1108.693,445.413Z" transform="translate(-1106.75 -442.239)" fill="#fff"/>
                        </g>
                        <path id="Trazado_190487" data-name="Trazado 190487" d="M1087.4,433.631c-2.972,1.081-5.207,2.434-4.126,5.406l.514,1.413a8.719,8.719,0,0,0,4.576,4.951,4.45,4.45,0,0,0,5.863-2.134,8.719,8.719,0,0,0,.322-6.734l-.514-1.413C1092.958,432.148,1090.376,432.549,1087.4,433.631Z" transform="translate(-1082.217 -432.827)" fill="#bd6c67"/>
                        <path id="Trazado_190488" data-name="Trazado 190488" d="M1090.634,445.815a.484.484,0,1,1-.62-.289A.484.484,0,0,1,1090.634,445.815Z" transform="translate(-1085.557 -439.148)" fill="#422c4f"/>
                        <path id="Trazado_190489" data-name="Trazado 190489" d="M1099.448,442.607a.484.484,0,1,0,.289-.62A.484.484,0,0,0,1099.448,442.607Z" transform="translate(-1090.408 -437.382)" fill="#422c4f"/>
                        <path id="Trazado_190490" data-name="Trazado 190490" d="M1097.047,447.8a5.96,5.96,0,0,0-2.542.993,1.545,1.545,0,0,0,1.5.244A1.747,1.747,0,0,0,1097.047,447.8Z" transform="translate(-1087.956 -440.296)" fill="#a64f5a"/>
                        <g id="Grupo_146106" data-name="Grupo 146106" transform="translate(2.83 4.517)">
                          <path id="Trazado_190491" data-name="Trazado 190491" d="M1088.033,441.955a1.6,1.6,0,0,0-.948,1.059l2.364-.942A1.6,1.6,0,0,0,1088.033,441.955Z" transform="translate(-1087.085 -441.842)" fill="#472948"/>
                        </g>
                        <g id="Grupo_146107" data-name="Grupo 146107" transform="translate(7.716 2.75)">
                          <path id="Trazado_190492" data-name="Trazado 190492" d="M1097.844,438.395a1.6,1.6,0,0,1,1.407.2l-2.416.8A1.6,1.6,0,0,1,1097.844,438.395Z" transform="translate(-1096.835 -438.314)" fill="#472948"/>
                        </g>
                        <path id="Trazado_190493" data-name="Trazado 190493" d="M1098.042,450.1a7.874,7.874,0,0,1-3.243,1.152,2.547,2.547,0,0,0,1.073,1.006,1.558,1.558,0,0,0,1.426-.1,1.592,1.592,0,0,0,.617-.891A4.008,4.008,0,0,0,1098.042,450.1Z" transform="translate(-1088.103 -441.446)" fill="#fff"/>
                        <path id="Trazado_190494" data-name="Trazado 190494" d="M1099.349,454.705l-1.408.451a1.147,1.147,0,0,0,.845.093A.98.98,0,0,0,1099.349,454.705Z" transform="translate(-1089.671 -443.742)" fill="#a64f5a"/>
                      </g>
                    </g>
                  </g>
                </g>
                <rect id="Rectángulo_43655" data-name="Rectángulo 43655" width="14.031" height="3.201" transform="translate(39.166 14.187) rotate(-20)" fill="#fff"/>
                <rect id="Rectángulo_43656" data-name="Rectángulo 43656" width="19.543" height="3.201" transform="translate(55.647 8.189) rotate(-20)" fill="#fff"/>
                <g id="Grupo_146112" data-name="Grupo 146112" transform="translate(41.447 0)">
                  <rect id="Rectángulo_43657" data-name="Rectángulo 43657" width="59.797" height="1.879" transform="translate(0 20.452) rotate(-20)" fill="#96e4ff"/>
                  <rect id="Rectángulo_43658" data-name="Rectángulo 43658" width="59.797" height="1.879" transform="translate(1.461 24.467) rotate(-20)" fill="#96e4ff"/>
                  <rect id="Rectángulo_43659" data-name="Rectángulo 43659" width="59.797" height="1.879" transform="translate(2.923 28.483) rotate(-20)" fill="#96e4ff"/>
                  <rect id="Rectángulo_43660" data-name="Rectángulo 43660" width="59.797" height="1.879" transform="translate(4.384 32.498) rotate(-20)" fill="#96e4ff"/>
                </g>
                <rect id="Rectángulo_43661" data-name="Rectángulo 43661" width="11.254" height="1.879" transform="translate(56.383 35.3) rotate(-20)" fill="#fff"/>
                <rect id="Rectángulo_43662" data-name="Rectángulo 43662" width="11.254" height="1.879" transform="translate(81.339 26.217) rotate(-20)" fill="#fff"/>
                <g id="Grupo_146113" data-name="Grupo 146113" transform="translate(108.748 3.638)">
                  <path id="Trazado_190495" data-name="Trazado 190495" d="M1287.654,399.8l-10.753,3.914-3.914-10.753,10.752-3.914Zm-10.154,2.629,8.869-3.229-3.228-8.869-8.869,3.229Z" transform="translate(-1272.987 -389.051)" fill="#fff"/>
                </g>
                <g id="Grupo_146114" data-name="Grupo 146114" transform="translate(47.659 35.288)">
                  <rect id="Rectángulo_43663" data-name="Rectángulo 43663" width="6.527" height="3.675" transform="translate(0 2.232) rotate(-20)" fill="#fff"/>
                  <path id="Trazado_190496" data-name="Trazado 190496" d="M1157.209,452.212l-2.438,2.843-3.695-.61,3.974,1.376Z" transform="translate(-1151.076 -452.212)" fill="#96e4ff"/>
                </g>
                <path id="Trazado_190497" data-name="Trazado 190497" d="M1210.9,435.9a2.13,2.13,0,1,1-2.73-1.273A2.13,2.13,0,0,1,1210.9,435.9Z" transform="translate(-1131.204 -408.087)" fill="#96e4ff"/>
              </g>
            </g>
          </g>
          <g id="Grupo_146129" data-name="Grupo 146129" transform="translate(0 116.186)">
            <g id="Grupo_146121" data-name="Grupo 146121" transform="translate(46.06)">
              <path id="Trazado_190498" data-name="Trazado 190498" d="M937.44,299.923l-2.9-8.181a30.067,30.067,0,0,1-.374-18.948L942.484,246h0a17.392,17.392,0,0,1,7.879,19.235l-3.066,11.92,19.467,53.485-1.3.706a23.9,23.9,0,0,0-5.323,3.934l-3.289,3.223-24.347-18.6,3.995-7.48A15.533,15.533,0,0,0,937.44,299.923Z" transform="translate(-932.505 -246)" fill="#f0bf9c"/>
              <path id="Trazado_190499" data-name="Trazado 190499" d="M962.025,308.174l6.335,35.277a21.547,21.547,0,0,0,6.4,11.849l6.727,6.359Z" transform="translate(-947.233 -277.019)" fill="#eba588"/>
              <path id="Trazado_190500" data-name="Trazado 190500" d="M947.659,252.916h0A10,10,0,0,1,951.8,263.7l-.248.971-6.519-3.3Z" transform="translate(-938.756 -249.45)" fill="#ffdec7"/>
              <g id="Grupo_146118" data-name="Grupo 146118" transform="translate(4.649 20.559)">
                <path id="Trazado_190501" data-name="Trazado 190501" d="M946.915,289.481a.255.255,0,0,1-.093-.018l-4.882-1.951a.25.25,0,1,1,.186-.465L947.007,289a.25.25,0,0,1-.093.483Z" transform="translate(-941.782 -287.029)" fill="#eba588"/>
              </g>
              <g id="Grupo_146119" data-name="Grupo 146119" transform="translate(5.183 19.56)">
                <path id="Trazado_190502" data-name="Trazado 190502" d="M947.146,286.638a.273.273,0,0,1-.066-.008l-4.046-1.1a.251.251,0,0,1,.132-.484l4.046,1.1a.25.25,0,0,1-.066.492Z" transform="translate(-942.849 -285.034)" fill="#eba588"/>
              </g>
              <g id="Grupo_146120" data-name="Grupo 146120" transform="translate(18.28 60.049)">
                <path id="Trazado_190503" data-name="Trazado 190503" d="M969.1,385.244a.251.251,0,1,0,.274.419,15.99,15.99,0,0,0,3.071-2.632c-.058-.189-.11-.381-.163-.572A15.52,15.52,0,0,1,969.1,385.244Z" transform="translate(-968.985 -374.129)" fill="#eba588"/>
                <path id="Trazado_190504" data-name="Trazado 190504" d="M983.368,366.813l-.356-.978h0l.356.978Z" transform="translate(-975.983 -365.835)" fill="#222221"/>
                <path id="Trazado_190505" data-name="Trazado 190505" d="M979.651,366.813l-.356-.978a15.173,15.173,0,0,1-3.734,8.331c.053.191.105.382.163.572a16.116,16.116,0,0,0,3.085-4.917A15.875,15.875,0,0,0,979.651,366.813Z" transform="translate(-972.266 -365.835)" fill="#e78882"/>
              </g>
              <path id="Trazado_190506" data-name="Trazado 190506" d="M932.505,392.625l.464-.869L960.141,408l-3.289,3.223Z" transform="translate(-932.505 -318.719)" fill="#eba588"/>
            </g>
            <g id="Grupo_146125" data-name="Grupo 146125" transform="translate(32.962 72.546)">
              <path id="Trazado_190507" data-name="Trazado 190507" d="M917.683,390.774l29.12,22.241-11.316,16.5-29.12-22.241Z" transform="translate(-906.366 -390.774)" fill="#fff"/>
              <path id="Trazado_190508" data-name="Trazado 190508" d="M906.366,423.017l29.12,22.241,2.258-3.291-30.912-19.63Z" transform="translate(-906.366 -406.521)" fill="#e4e4e0"/>
              <g id="Grupo_146122" data-name="Grupo 146122" transform="translate(22.523 18.069)">
                <path id="Trazado_190509" data-name="Trazado 190509" d="M962.871,426.833l-8.083,12.859,1.86,1.181Z" transform="translate(-953.047 -426.833)" fill="#e4e4e0"/>
                <path id="Trazado_190510" data-name="Trazado 190510" d="M953.478,456.919l1.437-3.242-1.86-1.181-1.741,2.77Z" transform="translate(-951.313 -439.636)" fill="#d4cfbe"/>
              </g>
              <g id="Grupo_146124" data-name="Grupo 146124" transform="translate(19.591 17.425)">
                <path id="Trazado_190511" data-name="Trazado 190511" d="M946.549,431.7l.716.491.1-.138a3.768,3.768,0,0,0,3.744-5.456l.095-.138-.716-.491c-1.29-.885-3.217-.32-4.3,1.263S945.258,430.813,946.549,431.7Z" transform="translate(-945.461 -425.547)" fill="#99a3b0"/>
                <path id="Trazado_190512" data-name="Trazado 190512" d="M947.607,428.209c1.086-1.583,3.013-2.149,4.3-1.263s1.456,2.887.369,4.47-3.013,2.149-4.3,1.263S946.521,429.792,947.607,428.209Z" transform="translate(-946.174 -426.036)" fill="#c7d2d7"/>
                <path id="Trazado_190513" data-name="Trazado 190513" d="M950.007,430.384a1.6,1.6,0,1,1,.2,2.475A1.774,1.774,0,0,1,950.007,430.384Z" transform="translate(-947.531 -427.495)" fill="#99a3b0"/>
                <g id="Grupo_146123" data-name="Grupo 146123" transform="translate(3.004 2.884)">
                  <path id="Trazado_190514" data-name="Trazado 190514" d="M951.534,433.778a.313.313,0,1,1,.04.483A.347.347,0,0,1,951.534,433.778Z" transform="translate(-951.456 -432.447)" fill="#797c99"/>
                  <path id="Trazado_190515" data-name="Trazado 190515" d="M953.107,431.485a.313.313,0,1,1,.04.483A.347.347,0,0,1,953.107,431.485Z" transform="translate(-952.241 -431.303)" fill="#797c99"/>
                </g>
              </g>
            </g>
            <g id="Grupo_146128" data-name="Grupo 146128" transform="translate(0 86.275)">
              <path id="Trazado_190516" data-name="Trazado 190516" d="M840.586,459.176l29.34-41,36.364,27.774-6.408,13.229Z" transform="translate(-840.586 -418.173)" fill="#454f6b"/>
              <g id="Grupo_146127" data-name="Grupo 146127" transform="translate(36.953 28.729)">
                <path id="Trazado_190517" data-name="Trazado 190517" d="M915.653,482.994l.871.6.116-.168a4.586,4.586,0,0,0,4.558-6.642l.115-.168-.871-.6c-1.571-1.078-3.916-.389-5.238,1.538S914.082,481.916,915.653,482.994Z" transform="translate(-914.329 -475.505)" fill="#676a87"/>
                <path id="Trazado_190518" data-name="Trazado 190518" d="M916.942,478.746c1.322-1.927,3.668-2.616,5.239-1.538s1.772,3.514.45,5.441-3.668,2.615-5.239,1.537S915.62,480.672,916.942,478.746Z" transform="translate(-915.197 -476.101)" fill="#797c99"/>
                <path id="Trazado_190519" data-name="Trazado 190519" d="M919.863,481.393a1.95,1.95,0,1,1,.249,3.013A2.16,2.16,0,0,1,919.863,481.393Z" transform="translate(-916.849 -477.877)" fill="#676a87"/>
                <g id="Grupo_146126" data-name="Grupo 146126" transform="translate(3.657 3.511)">
                  <path id="Trazado_190520" data-name="Trazado 190520" d="M921.722,485.525a.381.381,0,1,1,.049.588A.421.421,0,0,1,921.722,485.525Z" transform="translate(-921.627 -483.905)" fill="#454f6b"/>
                  <path id="Trazado_190521" data-name="Trazado 190521" d="M923.637,482.734a.381.381,0,1,1,.049.588A.423.423,0,0,1,923.637,482.734Z" transform="translate(-922.583 -482.512)" fill="#454f6b"/>
                </g>
              </g>
              <path id="Trazado_190522" data-name="Trazado 190522" d="M943.428,461.322,931.169,480.7h4.385l9.311-18.284Z" transform="translate(-885.778 -439.7)" fill="#422c4f"/>
            </g>
          </g>
          <g id="Grupo_146149" data-name="Grupo 146149" transform="translate(189.021 79.223)">
            <g id="Grupo_146132" data-name="Grupo 146132" transform="translate(16.85 30.553)">
              <path id="Trazado_190523" data-name="Trazado 190523" d="M1259.095,255.933l3.717-10.551,10.085-4.913-9.1-7.261-9.175,7.469-3.2,10.218Z" transform="translate(-1251.427 -233.208)" fill="#eba588"/>
              <path id="Trazado_190524" data-name="Trazado 190524" d="M1266.73,263.163l8.14,2.812,1.882-10.022,9.511-3.679-5.731-4.575-10.085,4.913Z" transform="translate(-1259.061 -240.437)" fill="#eba588"/>
              <path id="Trazado_190525" data-name="Trazado 190525" d="M1282.974,270.529l8.564,3.012V265.4l4.318-1.98a1,1,0,0,1,1.254.358l1.213,1.834a11.055,11.055,0,0,1,1.833,5.911l.087,5.121,2.212-13.363-8.087-6.455-9.511,3.679Z" transform="translate(-1267.166 -244.992)" fill="#eba588"/>
              <g id="Grupo_146130" data-name="Grupo 146130" transform="translate(7.7 5.963)">
                <path id="Trazado_190526" data-name="Trazado 190526" d="M1267.295,260.9a.491.491,0,0,1-.166-.029.5.5,0,0,1-.307-.638l3.252-9.275,11.907-5.8a.5.5,0,1,1,.438.9l-11.536,5.62-3.116,8.886A.5.5,0,0,1,1267.295,260.9Z" transform="translate(-1266.794 -245.107)" fill="#e78882"/>
              </g>
              <g id="Grupo_146131" data-name="Grupo 146131" transform="translate(15.307 10.539)">
                <path id="Trazado_190527" data-name="Trazado 190527" d="M1282.476,269.739a.486.486,0,0,1-.093-.009.5.5,0,0,1-.4-.585l1.933-10.3,11.83-4.576a.5.5,0,1,1,.361.935l-11.309,4.374-1.831,9.748A.5.5,0,0,1,1282.476,269.739Z" transform="translate(-1281.975 -254.239)" fill="#e78882"/>
              </g>
            </g>
            <g id="Grupo_146137" data-name="Grupo 146137" transform="translate(4.05 16.92)">
              <path id="Trazado_190528" data-name="Trazado 190528" d="M1271.76,251.289l1.252-7.562a10.023,10.023,0,0,0-3.636-9.469l-16.39-13.083-8.752,8-2.636,4.7a11.942,11.942,0,0,1-15.715,4.856h0l7.693-16.587,12.04-13.652a7.341,7.341,0,0,1,8.219-1.966l34.685,13.8a7.34,7.34,0,0,1,4.055,3.979l17.535,41.766,5.176,4.047-19.1,23.339L1284.2,281.787Z" transform="translate(-1225.883 -206.001)" fill="#f0bf9c"/>
              <path id="Trazado_190529" data-name="Trazado 190529" d="M1227.912,258.834l3.772-8.132a14.369,14.369,0,0,1,5.5,1.715l-.688,1.281a9.744,9.744,0,0,1-8.585,5.135Z" transform="translate(-1226.895 -228.303)" fill="#ffdec7"/>
              <g id="Grupo_146133" data-name="Grupo 146133" transform="translate(24.091 0.379)">
                <path id="Trazado_190530" data-name="Trazado 190530" d="M1275.3,212.554a.5.5,0,0,1-.494-.415l-.839-4.794a.5.5,0,0,1,.987-.173l.839,4.794a.5.5,0,0,1-.407.58A.525.525,0,0,1,1275.3,212.554Z" transform="translate(-1273.959 -206.757)" fill="#eba588"/>
              </g>
              <g id="Grupo_146134" data-name="Grupo 146134" transform="translate(25.203 0.509)">
                <path id="Trazado_190531" data-name="Trazado 190531" d="M1277.553,210.7a.5.5,0,0,1-.476-.346l-.872-2.685a.5.5,0,1,1,.953-.31l.872,2.684a.5.5,0,0,1-.476.656Z" transform="translate(-1276.18 -207.016)" fill="#eba588"/>
              </g>
              <g id="Grupo_146135" data-name="Grupo 146135" transform="translate(8.356 15.858)">
                <path id="Trazado_190532" data-name="Trazado 190532" d="M1247.361,240.427a.5.5,0,0,1-.3-.1,8.5,8.5,0,0,0-4.063-1.678.5.5,0,1,1,.129-.994,9.5,9.5,0,0,1,4.544,1.876.5.5,0,0,1-.306.9Z" transform="translate(-1242.558 -237.648)" fill="#eba588"/>
              </g>
              <g id="Grupo_146136" data-name="Grupo 146136" transform="translate(8.944 14.958)">
                <path id="Trazado_190533" data-name="Trazado 190533" d="M1247.738,237.283a.508.508,0,0,1-.138-.02,10.678,10.678,0,0,0-3.348-.4.5.5,0,1,1-.04-1,11.6,11.6,0,0,1,3.663.437.5.5,0,0,1-.137.984Z" transform="translate(-1243.731 -235.852)" fill="#eba588"/>
              </g>
              <path id="Trazado_190534" data-name="Trazado 190534" d="M1355.818,352.228c3.308-8.821,15.544-18.069,24.292-18.289l-19.1,23.339Z" transform="translate(-1290.708 -269.83)" fill="#eba588"/>
            </g>
            <g id="Grupo_146140" data-name="Grupo 146140">
              <path id="Trazado_190535" data-name="Trazado 190535" d="M1219.9,288.152c2.556-.975,6.163-2.635,8.432-4.9l-2.761-2.761-2.762-2.762c-2.269,2.27-3.93,5.876-4.9,8.433A1.544,1.544,0,0,0,1219.9,288.152Z" transform="translate(-1217.801 -224.865)" fill="#808d9b"/>
              <path id="Trazado_190536" data-name="Trazado 190536" d="M1272.1,182.059,1227.072,230c-1.179,1.18-.9,3.372.626,4.9s3.718,1.805,4.9.626l47.938-45.025Z" transform="translate(-1222.062 -177.137)" fill="#99a3b0"/>
              <ellipse id="Elipse_4964" data-name="Elipse 4964" cx="4.613" cy="5.965" rx="4.613" ry="5.965" transform="translate(46.772 8.184) rotate(-45)" fill="#808d9b"/>
              <g id="Grupo_146138" data-name="Grupo 146138" transform="translate(33.467 15.529)">
                <path id="Trazado_190537" data-name="Trazado 190537" d="M1288.92,217.793a6.326,6.326,0,0,1-1.972-5.545l-2.3,2.448a6.911,6.911,0,0,0,7.367,7.368l2.448-2.3A6.323,6.323,0,0,1,1288.92,217.793Z" transform="translate(-1284.59 -207.727)" fill="#c7d2d7"/>
                <path id="Trazado_190538" data-name="Trazado 190538" d="M1297.221,209.133a6.177,6.177,0,0,1-1.884-5.907l-2.312,2.462a6.8,6.8,0,0,0,7.641,7.641l2.462-2.313A6.177,6.177,0,0,1,1297.221,209.133Z" transform="translate(-1288.732 -203.226)" fill="#c7d2d7"/>
              </g>
              <g id="Grupo_146139" data-name="Grupo 146139" transform="translate(51.181)">
                <path id="Trazado_190539" data-name="Trazado 190539" d="M1330.625,173.235a3.693,3.693,0,0,0-5.22.169l-5.015,5.351c-.788.788-.589,2.742.955,4.286a4.475,4.475,0,0,0,3.01,1.409,1.788,1.788,0,0,0,1.276-.453l5.171-5.55A3.693,3.693,0,0,0,1330.625,173.235Z" transform="translate(-1319.938 -172.236)" fill="#c7d2d7"/>
                <path id="Trazado_190540" data-name="Trazado 190540" d="M1336.061,175.015a1.319,1.319,0,1,1-1.319-1.319A1.319,1.319,0,0,1,1336.061,175.015Z" transform="translate(-1326.666 -172.964)" fill="#fff"/>
              </g>
            </g>
            <g id="Grupo_146145" data-name="Grupo 146145" transform="translate(9.233 46.278)">
              <path id="Trazado_190541" data-name="Trazado 190541" d="M1237.925,267.258h0a7.376,7.376,0,0,1,9-1.877l29.995,15.138,12.438,30.5-2.991-.311a31.155,31.155,0,0,1-23.971-15.785l-2.133-3.815-20.576-12.891A7.375,7.375,0,0,1,1237.925,267.258Z" transform="translate(-1236.227 -264.59)" fill="#f0bf9c"/>
              <path id="Trazado_190542" data-name="Trazado 190542" d="M1250.937,271.165c-2.494-1.945-4.406-2.318-6.074-1.843a5.69,5.69,0,0,0-3.7,3.39,4.785,4.785,0,0,0-.22,2.811,5.535,5.535,0,0,0,1.618,2.615,16.516,16.516,0,0,0,2.5,1.856A23.354,23.354,0,0,0,1250.937,271.165Z" transform="translate(-1238.522 -266.858)" fill="#ffdec7"/>
              <g id="Grupo_146144" data-name="Grupo 146144" transform="translate(16.733 10.416)">
                <g id="Grupo_146141" data-name="Grupo 146141" transform="translate(0 0.119)">
                  <path id="Trazado_190543" data-name="Trazado 190543" d="M1270.121,291.523a.5.5,0,0,1-.294-.1.5.5,0,0,1-.11-.7,22.2,22.2,0,0,0,2.65-4.8.5.5,0,0,1,.931.373,23.266,23.266,0,0,1-2.771,5.016A.5.5,0,0,1,1270.121,291.523Z" transform="translate(-1269.62 -285.613)" fill="#eba588"/>
                </g>
                <g id="Grupo_146142" data-name="Grupo 146142" transform="translate(0.537)">
                  <path id="Trazado_190544" data-name="Trazado 190544" d="M1271.192,293.642a.5.5,0,0,1-.377-.831,24.516,24.516,0,0,0,4.352-7.119.5.5,0,1,1,.932.37,25.511,25.511,0,0,1-4.53,7.409A.5.5,0,0,1,1271.192,293.642Z" transform="translate(-1270.691 -285.376)" fill="#eba588"/>
                </g>
                <g id="Grupo_146143" data-name="Grupo 146143" transform="translate(3.671 2.464)">
                  <path id="Trazado_190545" data-name="Trazado 190545" d="M1277.446,295.318a.5.5,0,0,1-.4-.8,12.116,12.116,0,0,0,1.946-3.863.5.5,0,1,1,.961.284,13.094,13.094,0,0,1-2.107,4.182A.5.5,0,0,1,1277.446,295.318Z" transform="translate(-1276.946 -290.294)" fill="#eba588"/>
                </g>
              </g>
            </g>
            <g id="Grupo_146148" data-name="Grupo 146148" transform="translate(72.473 79.61)">
              <g id="Grupo_146147" data-name="Grupo 146147">
                <path id="Trazado_190546" data-name="Trazado 190546" d="M1383.408,331.108a32.527,32.527,0,0,0-20.979,26.365l16.781,13.543,22.606-27.492Z" transform="translate(-1362.43 -331.108)" fill="#fff"/>
                <g id="Grupo_146146" data-name="Grupo 146146" transform="translate(11.621 12.177)">
                  <path id="Trazado_190547" data-name="Trazado 190547" d="M1404.294,357.767a32.246,32.246,0,0,0-18.672,21.209l5.16,4.164,22.606-27.492-.356-.24A41.172,41.172,0,0,0,1404.294,357.767Z" transform="translate(-1385.622 -355.408)" fill="#e4e4e0"/>
                </g>
              </g>
              <path id="Trazado_190548" data-name="Trazado 190548" d="M1440.027,424.822l-52.454-40.942a42.647,42.647,0,0,1,27.5-34.567l36.809,22.727v52.782Z" transform="translate(-1374.974 -340.191)" fill="#454f6b"/>
              <path id="Trazado_190549" data-name="Trazado 190549" d="M1387.573,410.917l52.454,40.942h4.175l-55.036-48.353A39.43,39.43,0,0,0,1387.573,410.917Z" transform="translate(-1374.974 -367.228)" fill="#422c4f"/>
            </g>
          </g>
        </g>
      </g>
    </g>
  </g>
</svg>
