<svg xmlns="http://www.w3.org/2000/svg" width="504" height="316.984" viewBox="0 0 504 316.984">
  <g id="Grupo_156422" data-name="Grupo 156422" transform="translate(-181 -13725.705)">
    <rect id="Rectángulo_44951" data-name="Rectángulo 44951" width="504" height="316.984" transform="translate(181 13725.705)" fill="#8bdae6"/>
    <g id="Grupo_154000" data-name="Grupo 154000" transform="translate(158.132 13542.363)">
      <g id="Grupo_151759" data-name="Grupo 151759">
        <circle id="Elipse_5358" data-name="Elipse 5358" cx="2.186" cy="2.186" r="2.186" transform="translate(45.924 446.637)" fill="#12263f"/>
        <circle id="Elipse_5359" data-name="Elipse 5359" cx="2.186" cy="2.186" r="2.186" transform="translate(45.868 454.251)" fill="#12263f"/>
        <circle id="Elipse_5360" data-name="Elipse 5360" cx="2.186" cy="2.186" r="2.186" transform="translate(45.868 461.584)" fill="#12263f"/>
        <circle id="Elipse_5361" data-name="Elipse 5361" cx="2.186" cy="2.186" r="2.186" transform="translate(45.868 468.918)" fill="#12263f"/>
        <circle id="Elipse_5362" data-name="Elipse 5362" cx="2.186" cy="2.186" r="2.186" transform="translate(45.868 476.252)" fill="#12263f"/>
        <circle id="Elipse_5363" data-name="Elipse 5363" cx="2.186" cy="2.186" r="2.186" transform="translate(53.202 446.917)" fill="#12263f"/>
        <circle id="Elipse_5364" data-name="Elipse 5364" cx="2.186" cy="2.186" r="2.186" transform="translate(53.202 454.251)" fill="#12263f"/>
        <circle id="Elipse_5365" data-name="Elipse 5365" cx="2.186" cy="2.186" r="2.186" transform="translate(53.202 461.584)" fill="#12263f"/>
        <circle id="Elipse_5366" data-name="Elipse 5366" cx="2.186" cy="2.186" r="2.186" transform="translate(53.202 468.918)" fill="#12263f"/>
        <circle id="Elipse_5367" data-name="Elipse 5367" cx="2.186" cy="2.186" r="2.186" transform="translate(53.202 476.252)" fill="#12263f"/>
        <circle id="Elipse_5368" data-name="Elipse 5368" cx="2.186" cy="2.186" r="2.186" transform="translate(45.868 446.917)" fill="#12263f"/>
        <circle id="Elipse_5369" data-name="Elipse 5369" cx="2.186" cy="2.186" r="2.186" transform="translate(60.535 454.251)" fill="#12263f"/>
        <circle id="Elipse_5370" data-name="Elipse 5370" cx="2.186" cy="2.186" r="2.186" transform="translate(60.535 461.584)" fill="#12263f"/>
        <circle id="Elipse_5371" data-name="Elipse 5371" cx="2.186" cy="2.186" r="2.186" transform="translate(60.535 468.918)" fill="#12263f"/>
        <circle id="Elipse_5372" data-name="Elipse 5372" cx="2.186" cy="2.186" r="2.186" transform="translate(60.535 476.252)" fill="#12263f"/>
        <circle id="Elipse_5373" data-name="Elipse 5373" cx="2.186" cy="2.186" r="2.186" transform="translate(67.869 446.917)" fill="#12263f"/>
        <circle id="Elipse_5374" data-name="Elipse 5374" cx="2.186" cy="2.186" r="2.186" transform="translate(67.869 454.251)" fill="#12263f"/>
        <circle id="Elipse_5375" data-name="Elipse 5375" cx="2.186" cy="2.186" r="2.186" transform="translate(67.869 461.584)" fill="#12263f"/>
        <circle id="Elipse_5376" data-name="Elipse 5376" cx="2.186" cy="2.186" r="2.186" transform="translate(67.869 468.918)" fill="#12263f"/>
        <circle id="Elipse_5377" data-name="Elipse 5377" cx="2.186" cy="2.186" r="2.186" transform="translate(67.869 476.252)" fill="#12263f"/>
        <circle id="Elipse_5378" data-name="Elipse 5378" cx="2.186" cy="2.186" r="2.186" transform="translate(60.535 446.917)" fill="#12263f"/>
        <circle id="Elipse_5379" data-name="Elipse 5379" cx="2.186" cy="2.186" r="2.186" transform="translate(75.202 446.917)" fill="#12263f"/>
        <circle id="Elipse_5380" data-name="Elipse 5380" cx="2.186" cy="2.186" r="2.186" transform="translate(75.202 454.251)" fill="#12263f"/>
        <circle id="Elipse_5381" data-name="Elipse 5381" cx="2.186" cy="2.186" r="2.186" transform="translate(75.202 461.584)" fill="#12263f"/>
        <circle id="Elipse_5382" data-name="Elipse 5382" cx="2.186" cy="2.186" r="2.186" transform="translate(75.202 476.252)" fill="#12263f"/>
        <circle id="Elipse_5383" data-name="Elipse 5383" cx="2.186" cy="2.186" r="2.186" transform="translate(75.202 468.918)" fill="#12263f"/>
      </g>
    </g>
    <g id="Grupo_154029" data-name="Grupo 154029" transform="translate(636.836 13744.707)">
      <g id="Elipse_4862" data-name="Elipse 4862" transform="translate(0)" fill="none" stroke="#12263f" stroke-width="2">
        <circle cx="15.213" cy="15.213" r="15.213" stroke="none"/>
        <circle cx="15.213" cy="15.213" r="14.213" fill="none"/>
      </g>
      <g id="Elipse_4863" data-name="Elipse 4863" transform="translate(4.27 4.27)" fill="none" stroke="#12263f" stroke-width="2">
        <circle cx="10.676" cy="10.676" r="10.676" stroke="none"/>
        <circle cx="10.676" cy="10.676" r="9.676" fill="none"/>
      </g>
      <g id="Elipse_4864" data-name="Elipse 4864" transform="translate(9.075 9.075)" fill="none" stroke="#12263f" stroke-width="2">
        <circle cx="6.139" cy="6.139" r="6.139" stroke="none"/>
        <circle cx="6.139" cy="6.139" r="5.139" fill="none"/>
      </g>
    </g>
  </g>
</svg>
