<svg xmlns="http://www.w3.org/2000/svg" width="70" height="70" viewBox="0 0 70 70">
  <g id="Grupo_156429" data-name="Grupo 156429" transform="translate(-283.839 -3590)">
    <circle id="Elipse_5549" data-name="Elipse 5549" cx="35" cy="35" r="35" transform="translate(283.839 3590)" fill="#ff7d00"/>
    <path id="Trazado_220910" data-name="Trazado 220910" d="M28.023,23.778a7.789,7.789,0,0,1-1.2,3.933,7.249,7.249,0,0,1-3.083,2.644,10.5,10.5,0,0,1-4.534.938,8.375,8.375,0,0,1-6.621-2.739q-2.417-2.739-2.417-7.734V19.765a12.91,12.91,0,0,1,1.091-5.486A8.269,8.269,0,0,1,14.4,10.646a8.767,8.767,0,0,1,4.746-1.282,9.193,9.193,0,0,1,6.24,2.043,8.074,8.074,0,0,1,2.681,5.632H22.94a3.82,3.82,0,0,0-.981-2.8,4.037,4.037,0,0,0-2.812-.85,3.071,3.071,0,0,0-2.812,1.436,9.226,9.226,0,0,0-.937,4.585v1.509a10.209,10.209,0,0,0,.857,4.878,3.136,3.136,0,0,0,2.952,1.465,3.948,3.948,0,0,0,2.71-.835,3.544,3.544,0,0,0,1-2.651Z" transform="translate(299.839 3604)" fill="#12263f"/>
  </g>
</svg>
