<svg xmlns="http://www.w3.org/2000/svg" width="70" height="70" viewBox="0 0 70 70">
  <g id="Grupo_156432" data-name="Grupo 156432" transform="translate(-800.839 -3796)">
    <circle id="Elipse_5551" data-name="Elipse 5551" cx="35" cy="35" r="35" transform="translate(800.839 3796)" fill="#ff7d00"/>
    <path id="Trazado_220913" data-name="Trazado 220913" d="M25.348,28.363a8.267,8.267,0,0,1-3.472,2.124,14.974,14.974,0,0,1-5.01.806,8.933,8.933,0,0,1-6.694-2.563A10.377,10.377,0,0,1,7.491,21.6L7.477,19.75a12.728,12.728,0,0,1,1.113-5.5,8.267,8.267,0,0,1,3.186-3.618,9.012,9.012,0,0,1,4.8-1.267,9.448,9.448,0,0,1,6.189,1.824,7.728,7.728,0,0,1,2.571,5.442H20.382a4.044,4.044,0,0,0-1.143-2.549,3.687,3.687,0,0,0-2.49-.762,3.355,3.355,0,0,0-2.988,1.641,8.76,8.76,0,0,0-1.069,4.688v1.289a8.576,8.576,0,0,0,1.091,4.8,3.86,3.86,0,0,0,3.435,1.6,4.32,4.32,0,0,0,2.988-.894V23.134H16.632V19.6h8.716Z" transform="translate(820.839 3813)" fill="#12263f"/>
  </g>
</svg>
