<svg xmlns="http://www.w3.org/2000/svg" width="70" height="70" viewBox="0 0 70 70">
  <g id="Grupo_156442" data-name="Grupo 156442" transform="translate(-809.67 -14161.961)">
    <circle id="Elipse_5545" data-name="Elipse 5545" cx="35" cy="35" r="35" transform="translate(809.67 14161.961)" fill="#ff7d00"/>
    <path id="Trazado_220928" data-name="Trazado 220928" d="M18.177,9.672H23.3V24.306a7,7,0,0,1-.945,3.633,6.45,6.45,0,0,1-2.637,2.476,8.058,8.058,0,0,1-3.772.879,7.768,7.768,0,0,1-5.42-1.758A6.388,6.388,0,0,1,8.6,24.555h5.156a3.521,3.521,0,0,0,.505,2.124,2,2,0,0,0,1.692.659,1.914,1.914,0,0,0,1.648-.8,3.752,3.752,0,0,0,.579-2.234Z" transform="translate(828.67 14177.961)" fill="#12263f"/>
  </g>
</svg>
