<svg xmlns="http://www.w3.org/2000/svg" width="70" height="70" viewBox="0 0 70 70">
  <g id="Grupo_156428" data-name="Grupo 156428" transform="translate(-801.839 -3404)">
    <circle id="Elipse_5552" data-name="Elipse 5552" cx="35" cy="35" r="35" transform="translate(801.839 3404)" fill="#ff7d00"/>
    <path id="Trazado_220909" data-name="Trazado 220909" d="M8.436,31V9.672H16.1a10.849,10.849,0,0,1,6.262,1.509,5.02,5.02,0,0,1,2.146,4.38,5.075,5.075,0,0,1-.762,2.827A4.439,4.439,0,0,1,21.5,20.116a4.5,4.5,0,0,1,2.563,1.641,4.77,4.77,0,0,1,.894,2.93A5.647,5.647,0,0,1,22.975,29.4,9.446,9.446,0,0,1,17.093,31Zm5.142-9.067v5.112h3.369a3.2,3.2,0,0,0,2.139-.637,2.23,2.23,0,0,0,.747-1.794,2.364,2.364,0,0,0-2.651-2.681Zm0-3.369h2.681a3.808,3.808,0,0,0,2.4-.617,2.189,2.189,0,0,0,.718-1.778,2.3,2.3,0,0,0-.776-1.947,4.156,4.156,0,0,0-2.5-.595h-2.52Z" transform="translate(820.839 3421)" fill="#12263f"/>
  </g>
</svg>
