<svg xmlns="http://www.w3.org/2000/svg" width="559.523" height="313.974" viewBox="0 0 559.523 313.974">
  <g id="Grupo_154751" data-name="Grupo 154751" transform="translate(-827.252 -237.327)">
    <g id="Grupo_154750" data-name="Grupo 154750">
      <g id="Grupo_154675" data-name="Grupo 154675" transform="translate(296.356 -160.443)">
        <g id="Grupo_154633" data-name="Grupo 154633" transform="translate(1040.678 468.762)">
          <ellipse id="Elipse_5413" data-name="Elipse 5413" cx="10.425" cy="10.687" rx="10.425" ry="10.687" fill="#0956bb"/>
          <path id="Trazado_204533" data-name="Trazado 204533" d="M957.051,431.594c.319-.011.638,0,.958,0h.132v-1.66c-.171-.017-.349-.042-.528-.05-.327-.015-.655-.031-.983-.023a2.4,2.4,0,0,0-1.387.429,2.074,2.074,0,0,0-.834,1.386,4.856,4.856,0,0,0-.057.713c-.01.373,0,.745,0,1.118v.14h-1.589V435.5h1.58v4.662h1.93V435.5h1.574c.081-.617.159-1.227.242-1.863h-.354c-.447,0-1.475,0-1.475,0s0-.919.015-1.318C956.289,431.777,956.613,431.61,957.051,431.594Z" transform="translate(-945.025 -424.32)" fill="#fff" fill-rule="evenodd"/>
        </g>
      </g>
      <g id="Grupo_154749" data-name="Grupo 154749">
        <g id="Grupo_154674" data-name="Grupo 154674" transform="translate(1193.445 245.267)">
          <circle id="Elipse_5547" data-name="Elipse 5547" cx="33.5" cy="33.5" r="33.5" transform="translate(-0.411 -0.271)" fill="#15616d"/>
          <g id="Grupo_154550" data-name="Grupo 154550" transform="translate(16.479 19.605)">
            <path id="Trazado_204534" data-name="Trazado 204534" d="M1203.979,197.176a6.92,6.92,0,0,1-6.422-4.789,6.863,6.863,0,0,0,2.958-.088.825.825,0,0,0,.1-.046,6.879,6.879,0,0,1-4.483-3.167,6.69,6.69,0,0,1-1.01-3.668,6.784,6.784,0,0,0,3.071.835,6.933,6.933,0,0,1-2.842-4.186,6.836,6.836,0,0,1,.741-5,19.745,19.745,0,0,0,14.233,7.211c-.04-.274-.082-.514-.111-.756a6.9,6.9,0,0,1,11.731-5.708.346.346,0,0,0,.365.111,13.982,13.982,0,0,0,4.015-1.543.557.557,0,0,1,.092-.048c.006-.006.017,0,.046,0a7.075,7.075,0,0,1-2.954,3.756,13.243,13.243,0,0,0,3.842-1.033l.029.029c-.265.347-.52.7-.794,1.036a13.508,13.508,0,0,1-2.509,2.384.229.229,0,0,0-.113.217,19.033,19.033,0,0,1-.13,3.065,20.3,20.3,0,0,1-1.779,6.144,19.844,19.844,0,0,1-3.731,5.439,18.443,18.443,0,0,1-9.482,5.286,20.524,20.524,0,0,1-3.844.455,19.469,19.469,0,0,1-11.044-2.963c-.042-.025-.085-.056-.161-.106a13.937,13.937,0,0,0,6.9-.95A13.654,13.654,0,0,0,1203.979,197.176Z" transform="translate(-1193.795 -175.789)" fill="#66b7c4" fill-rule="evenodd"/>
          </g>
        </g>
        <g id="Grupo_154677" data-name="Grupo 154677" transform="translate(127.701 39.996)">
          <ellipse id="Elipse_5547-2" data-name="Elipse 5547" cx="13" cy="13.5" rx="13" ry="13.5" transform="translate(1180.333 248)" fill="#eb7937"/>
          <g id="Grupo_151771" data-name="Grupo 151771" transform="translate(1186.795 254.761)">
            <g id="Grupo_151770" data-name="Grupo 151770" transform="translate(0 0)">
              <path id="Trazado_204535" data-name="Trazado 204535" d="M1116.756,170.5a3.487,3.487,0,0,0-1.062-2.243,3.649,3.649,0,0,0-2.411-.979,47.268,47.268,0,0,0-6.5.073,3.316,3.316,0,0,0-2.844,2.552,36.728,36.728,0,0,0-.068,7.378,3.327,3.327,0,0,0,2.64,2.866,38.967,38.967,0,0,0,7.276.049,3.333,3.333,0,0,0,2.879-2.629A41.31,41.31,0,0,0,1116.756,170.5Zm-1.21,6.568a2.225,2.225,0,0,1-2.092,1.986,39.155,39.155,0,0,1-6.778-.095,2.155,2.155,0,0,1-1.635-1.857,44.07,44.07,0,0,1,0-6.633,2.222,2.222,0,0,1,2.083-1.976,46.348,46.348,0,0,1,6.47.026,2.225,2.225,0,0,1,1.982,2.1A47.166,47.166,0,0,1,1115.546,177.069Zm-5.254-6.664a3.37,3.37,0,1,0,3.368,3.373A3.37,3.37,0,0,0,1110.292,170.405Zm-.023,5.548a2.18,2.18,0,1,1,2.2-2.16A2.179,2.179,0,0,1,1110.269,175.953Zm4.314-5.675a.789.789,0,1,1-.787-.791A.788.788,0,0,1,1114.582,170.278Z" transform="translate(-1103.718 -167.205)" fill="#ecc2aa"/>
              <path id="Trazado_204536" data-name="Trazado 204536" d="M1116.756,170.5a3.487,3.487,0,0,0-1.062-2.243,3.649,3.649,0,0,0-2.411-.979,47.268,47.268,0,0,0-6.5.073,3.316,3.316,0,0,0-2.844,2.552,36.728,36.728,0,0,0-.068,7.378,3.327,3.327,0,0,0,2.64,2.866,38.967,38.967,0,0,0,7.276.049,3.333,3.333,0,0,0,2.879-2.629A41.31,41.31,0,0,0,1116.756,170.5Zm-1.21,6.568a2.225,2.225,0,0,1-2.092,1.986,39.155,39.155,0,0,1-6.778-.095,2.155,2.155,0,0,1-1.635-1.857,44.07,44.07,0,0,1,0-6.633,2.222,2.222,0,0,1,2.083-1.976,46.348,46.348,0,0,1,6.47.026,2.225,2.225,0,0,1,1.982,2.1A47.166,47.166,0,0,1,1115.546,177.069Zm-5.254-6.664a3.37,3.37,0,1,0,3.368,3.373A3.37,3.37,0,0,0,1110.292,170.405Zm-.023,5.548a2.18,2.18,0,1,1,2.2-2.16A2.179,2.179,0,0,1,1110.269,175.953Zm4.314-5.675a.789.789,0,1,1-.787-.791A.788.788,0,0,1,1114.582,170.278Z" transform="translate(-1103.718 -167.205)" fill="#ecc2aa"/>
            </g>
          </g>
        </g>
        <g id="Grupo_154678" data-name="Grupo 154678" transform="translate(380.877 -184.547)">
          <path id="Trazado_208801" data-name="Trazado 208801" d="M8.96,0A8.96,8.96,0,1,1,0,8.96,8.96,8.96,0,0,1,8.96,0Z" transform="translate(971.157 517.122)" fill="#9cd499"/>
          <g id="Grupo_151773" data-name="Grupo 151773" transform="translate(975.967 521.91)">
            <path id="Trazado_204537" data-name="Trazado 204537" d="M895.506,386.022c.047-.18.087-.336.13-.493.137-.5.278-1,.408-1.5a.366.366,0,0,0-.025-.242,4.136,4.136,0,1,1,1.788,1.742.4.4,0,0,0-.255-.027C896.456,385.772,895.728,385.979,895.506,386.022Zm.964-.95c.412-.107.792-.2,1.168-.308a.34.34,0,0,1,.283.041,3.393,3.393,0,0,0,2.292.433,3.459,3.459,0,1,0-3.564-1.748.72.72,0,0,1,.077.657C896.623,384.438,896.56,384.741,896.47,385.071Z" transform="translate(-895.506 -377.677)" fill="#fff" fill-rule="evenodd"/>
            <path id="Trazado_204538" data-name="Trazado 204538" d="M902.748,385.961a4.008,4.008,0,0,1-2.977-2.2,1.244,1.244,0,0,1,.191-1.591.575.575,0,0,1,.531-.078c.045.007.091.075.114.126.118.267.233.534.335.808.054.144-.045.28-.255.521a.179.179,0,0,0-.028.235,2.822,2.822,0,0,0,1.436,1.233.174.174,0,0,0,.218-.058c.33-.4.364-.521.537-.438.836.4.9.416.905.511A.911.911,0,0,1,902.748,385.961Z" transform="translate(-897.506 -379.837)" fill="#fff" fill-rule="evenodd"/>
          </g>
        </g>
        <g id="Grupo_154679" data-name="Grupo 154679" transform="translate(182.956 98.274)">
          <g id="Grupo_154632" data-name="Grupo 154632" transform="translate(1178.341 259.5)">
            <g id="Grupo_154569" data-name="Grupo 154569" transform="translate(0 0)">
              <g id="Grupo_151775" data-name="Grupo 151775" transform="translate(0 0)">
                <circle id="Elipse_5425" data-name="Elipse 5425" cx="6.807" cy="6.807" r="6.807" transform="translate(0 5.316) rotate(-22.985)" fill="#007ab5"/>
              </g>
            </g>
            <g id="Grupo_151776" data-name="Grupo 151776" transform="translate(6.203 5.724)">
              <path id="Trazado_204539" data-name="Trazado 204539" d="M1050.457,93.658h1.129v3.628h-1.129Zm.565-1.8a.654.654,0,1,1-.654.653.654.654,0,0,1,.654-.653" transform="translate(-1050.367 -91.855)" fill="#fff"/>
              <path id="Trazado_204540" data-name="Trazado 204540" d="M1055.36,96.384h1.082v.5h.015a1.185,1.185,0,0,1,1.068-.586c1.142,0,1.352.751,1.352,1.728v1.99h-1.127V98.248c0-.421-.008-.962-.586-.962s-.677.458-.677.932v1.794h-1.127Z" transform="translate(-1053.433 -94.581)" fill="#fff"/>
            </g>
          </g>
        </g>
        <g id="Grupo_154680" data-name="Grupo 154680" transform="translate(-57.446 6.996)">
          <g id="Grupo_151780" data-name="Grupo 151780" transform="translate(541.016 -123.038)">
            <g id="Grupo_151778" data-name="Grupo 151778">
              <circle id="Elipse_5428" data-name="Elipse 5428" cx="17.64" cy="17.64" r="17.64" transform="matrix(0.921, -0.39, 0.39, 0.921, 778.465, 398.315)" fill="#f5d286"/>
            </g>
            <g id="Grupo_151779" data-name="Grupo 151779" transform="translate(0.588 2.021)">
              <path id="Trazado_204541" data-name="Trazado 204541" d="M801.08,398.155a3.974,3.974,0,0,1,3.974,3.973v2.382a1.375,1.375,0,0,0,.367.05,1.034,1.034,0,0,0,.48-.109,1.377,1.377,0,0,1,.608-.2.646.646,0,0,1,.473.219c.335.341-.016.661-.559.874-.5.2-1.28.4-1.3,1.048a4.326,4.326,0,0,0,1.716,2.414,2.657,2.657,0,0,0,1.652.689h.124c.057,0,.087.005.094.031.032.128.133.64-.826.885s-1.155.08-1.347.58-.12.717-.36.717c-.164,0-.887-.139-1.522-.139a1.948,1.948,0,0,0-.755.115c-.589.263-1.516,1.384-2.9,1.451-1.382-.067-2.309-1.188-2.9-1.451a1.95,1.95,0,0,0-.756-.115c-.634,0-1.357.139-1.522.139-.239,0-.167-.216-.359-.717s-.389-.335-1.348-.58-.857-.757-.825-.885c.006-.026.037-.031.093-.031h.125a2.661,2.661,0,0,0,1.651-.689,4.324,4.324,0,0,0,1.717-2.414c-.017-.651-.8-.852-1.3-1.048-.543-.213-.9-.533-.559-.874a.644.644,0,0,1,.473-.219,1.377,1.377,0,0,1,.608.2,1.034,1.034,0,0,0,.48.109,1.388,1.388,0,0,0,.367-.05v-2.382a3.973,3.973,0,0,1,3.974-3.973h.151m0-.576h-.151a4.555,4.555,0,0,0-4.55,4.549v1.815l-.005,0a1.9,1.9,0,0,0-.874-.263,1.211,1.211,0,0,0-.884.391.917.917,0,0,0-.277.855c.085.4.434.722,1.037.959l.2.074c.281.1.657.243.723.407a3.792,3.792,0,0,1-1.48,1.987,2.093,2.093,0,0,1-1.3.571h-.125a.628.628,0,0,0-.652.468c-.144.574.107,1.292,1.242,1.582.308.078.546.118.72.148.074.012.161.027.215.039l.017.041a2.848,2.848,0,0,1,.107.353.816.816,0,0,0,.79.734,3.469,3.469,0,0,0,.408-.042,8.911,8.911,0,0,1,1.114-.1,1.386,1.386,0,0,1,.52.064,3.721,3.721,0,0,1,.516.353,4.638,4.638,0,0,0,2.59,1.148h.056a4.638,4.638,0,0,0,2.591-1.148,3.669,3.669,0,0,1,.515-.353,1.4,1.4,0,0,1,.52-.064,8.875,8.875,0,0,1,1.114.1,3.51,3.51,0,0,0,.408.042.815.815,0,0,0,.79-.734,2.866,2.866,0,0,1,.108-.353l.016-.041c.054-.012.142-.027.216-.039.174-.03.412-.07.72-.148,1.135-.29,1.385-1.008,1.242-1.582a.629.629,0,0,0-.653-.468h-.124a2.091,2.091,0,0,1-1.3-.571,3.786,3.786,0,0,1-1.48-1.987c.065-.164.442-.3.723-.407l.2-.074c.6-.237.952-.559,1.037-.959a.918.918,0,0,0-.278-.855,1.211,1.211,0,0,0-.883-.391,1.9,1.9,0,0,0-.874.263l-.006,0v-1.815a4.555,4.555,0,0,0-4.549-4.549Z" style="mix-blend-mode: multiply;isolation: isolate"/>
              <path id="Trazado_204542" data-name="Trazado 204542" d="M801,413.136c1.383-.067,2.31-1.188,2.9-1.451a6.229,6.229,0,0,1,2.277.024c.24,0,.168-.216.36-.717s.389-.335,1.347-.58.858-.757.826-.885a2.936,2.936,0,0,1-1.87-.719,4.326,4.326,0,0,1-1.716-2.414c.016-.651.8-.852,1.3-1.048.543-.213.894-.533.559-.874s-.671-.234-1.081-.021a1.218,1.218,0,0,1-.847.059v-2.382a3.974,3.974,0,0,0-3.974-3.973h-.151a3.973,3.973,0,0,0-3.974,3.973v2.382a1.218,1.218,0,0,1-.847-.059c-.41-.213-.746-.32-1.081.021s.016.661.559.874c.5.2,1.279.4,1.3,1.048a4.324,4.324,0,0,1-1.717,2.414,2.935,2.935,0,0,1-1.869.719c-.032.128-.134.64.825.885s1.156.08,1.348.58.12.717.359.717a6.234,6.234,0,0,1,2.278-.024C798.7,411.948,799.622,413.069,801,413.136Z" fill="#fff"/>
            </g>
          </g>
        </g>
        <path id="Trazado_204396" data-name="Trazado 204396" d="M750.661,113.534c76.425-28.372,154.1-3.289,206.783,51.344,18.965,19.668,74.45,15.542,74.45,15.542s109.9-33.614,147.426,1.294c40.015,37.223,21.687,132.927-33.181,174.378-74.58,56.342-301.384,27.753-350.445,18.165-56.523-11.047-97.845-44.562-114.634-85.24C640.606,191,716.888,126.073,750.661,113.534Z" transform="translate(157.73 152.898)" fill="#15616d"/>
        <g id="Grupo_151716" data-name="Grupo 151716" transform="translate(1044.535 237.327)">
          <path id="Trazado_204397" data-name="Trazado 204397" d="M1032.969,151.27a63.258,63.258,0,0,0,.4-7.044c0-1.256-.042-2.5-.115-3.742l-11.64-3.766a51.142,51.142,0,0,0-4.121-13.947l7.718-9.5a62.893,62.893,0,0,0-6.114-8.888l-11.641,3.8a51.692,51.692,0,0,0-11.524-8.858l.663-12.231a62.3,62.3,0,0,0-10.162-3.6l-7.189,9.919a51.8,51.8,0,0,0-14.532-.38l-6.655-10.287a62.164,62.164,0,0,0-10.34,3.056l.016,12.249a51.62,51.62,0,0,0-11.977,8.239l-11.421-4.406a63.008,63.008,0,0,0-6.577,8.551l7.208,9.894a51.12,51.12,0,0,0-4.859,13.707l-11.821,3.146a63.286,63.286,0,0,0-.4,7.044c0,1.257.042,2.5.115,3.743l11.639,3.766a51.132,51.132,0,0,0,4.122,13.946l-7.718,9.5a62.877,62.877,0,0,0,6.114,8.888l11.641-3.8a51.716,51.716,0,0,0,11.524,8.858l-.663,12.23a62.3,62.3,0,0,0,10.162,3.6l7.188-9.92a51.757,51.757,0,0,0,14.532.381L983.2,205.7a62.238,62.238,0,0,0,10.339-3.056l-.015-12.249a51.647,51.647,0,0,0,11.977-8.239l11.42,4.406a62.94,62.94,0,0,0,6.578-8.551l-7.208-9.894a51.159,51.159,0,0,0,4.859-13.707Zm-62.343,17.564a24.608,24.608,0,1,1,24.607-24.608A24.608,24.608,0,0,1,970.626,168.834Z" transform="translate(-907.887 -82.748)" fill="#eb7937"/>
          <g id="Grupo_151711" data-name="Grupo 151711" transform="translate(95.382 46.718)">
            <g id="Grupo_151710" data-name="Grupo 151710">
              <path id="Trazado_204398" data-name="Trazado 204398" d="M1013.444,176.825a.921.921,0,0,1-.707-1.509,41.625,41.625,0,0,0,7.335-40.1.92.92,0,0,1,1.739-.6,43.468,43.468,0,0,1-7.66,41.874A.917.917,0,0,1,1013.444,176.825Z" transform="translate(-1012.524 -133.999)" fill="#f9e6cc"/>
            </g>
          </g>
          <g id="Grupo_151713" data-name="Grupo 151713" transform="translate(77.195 20.613)">
            <g id="Grupo_151712" data-name="Grupo 151712">
              <path id="Trazado_204399" data-name="Trazado 204399" d="M1008.117,116.211a.918.918,0,0,1-.631-.25,41.3,41.3,0,0,0-14.308-8.816.92.92,0,1,1,.627-1.729,43.143,43.143,0,0,1,14.941,9.206.919.919,0,0,1-.63,1.589Z" transform="translate(-992.572 -105.361)" fill="#15616d"/>
            </g>
          </g>
          <g id="Grupo_151715" data-name="Grupo 151715" transform="translate(52.276 18.078)">
            <g id="Grupo_151714" data-name="Grupo 151714">
              <path id="Trazado_204400" data-name="Trazado 204400" d="M966.154,105.709a.92.92,0,0,1-.224-1.811,43.534,43.534,0,0,1,10.654-1.318.92.92,0,0,1,0,1.84,41.747,41.747,0,0,0-10.2,1.262A.921.921,0,0,1,966.154,105.709Z" transform="translate(-965.235 -102.58)" fill="#15616d"/>
            </g>
          </g>
        </g>
        <g id="Grupo_151723" data-name="Grupo 151723" transform="translate(885.202 414.198)">
          <path id="Trazado_204401" data-name="Trazado 204401" d="M819.731,324.242a43.763,43.763,0,0,0,.274-4.879c0-.871-.028-1.734-.079-2.592l-8.062-2.608a35.419,35.419,0,0,0-2.855-9.66l5.346-6.578a43.578,43.578,0,0,0-4.235-6.156l-8.063,2.631a35.828,35.828,0,0,0-7.982-6.136l.458-8.471A43.151,43.151,0,0,0,787.5,277.3l-4.979,6.871a35.864,35.864,0,0,0-10.065-.264l-4.61-7.125a43.16,43.16,0,0,0-7.161,2.116l.01,8.485a35.739,35.739,0,0,0-8.3,5.706l-7.91-3.053a43.671,43.671,0,0,0-4.556,5.923l4.993,6.853a35.433,35.433,0,0,0-3.365,9.494l-8.188,2.18a43.985,43.985,0,0,0-.273,4.879c0,.871.028,1.735.078,2.592l8.063,2.608a35.416,35.416,0,0,0,2.854,9.66l-5.345,6.578a43.572,43.572,0,0,0,4.234,6.156l8.064-2.631a35.815,35.815,0,0,0,7.982,6.136l-.458,8.471a43.1,43.1,0,0,0,7.039,2.495l4.979-6.87a35.9,35.9,0,0,0,10.065.263l4.61,7.125a43.159,43.159,0,0,0,7.161-2.116l-.011-8.485a35.727,35.727,0,0,0,8.3-5.706l7.91,3.053a43.6,43.6,0,0,0,4.555-5.923l-4.992-6.853a35.431,35.431,0,0,0,3.365-9.494ZM776.55,336.407a17.044,17.044,0,1,1,17.044-17.044A17.044,17.044,0,0,1,776.55,336.407Z" transform="translate(-733.094 -276.781)" fill="#c68c6a"/>
          <g id="Grupo_151718" data-name="Grupo 151718" transform="translate(65.782 32.076)">
            <g id="Grupo_151717" data-name="Grupo 151717">
              <path id="Trazado_204402" data-name="Trazado 204402" d="M806.179,342.2a.919.919,0,0,1-.707-1.508,28.558,28.558,0,0,0,5.031-27.5.92.92,0,1,1,1.739-.6,30.4,30.4,0,0,1-5.356,29.276A.919.919,0,0,1,806.179,342.2Z" transform="translate(-805.259 -311.969)" fill="#c68c6a"/>
            </g>
          </g>
          <g id="Grupo_151720" data-name="Grupo 151720" transform="translate(53.185 13.994)">
            <g id="Grupo_151719" data-name="Grupo 151719">
              <path id="Trazado_204403" data-name="Trazado 204403" d="M802.489,300.214a.912.912,0,0,1-.63-.25,28.348,28.348,0,0,0-9.813-6.046.92.92,0,1,1,.627-1.729,30.177,30.177,0,0,1,10.446,6.436.919.919,0,0,1-.631,1.589Z" transform="translate(-791.439 -292.133)" fill="#c68c6a"/>
            </g>
          </g>
          <g id="Grupo_151722" data-name="Grupo 151722" transform="translate(35.925 12.238)">
            <g id="Grupo_151721" data-name="Grupo 151721">
              <path id="Trazado_204404" data-name="Trazado 204404" d="M773.424,292.94a.92.92,0,0,1-.224-1.811,30.444,30.444,0,0,1,7.449-.922.92.92,0,0,1,0,1.84,28.61,28.61,0,0,0-7,.866A.964.964,0,0,1,773.424,292.94Z" transform="translate(-772.505 -290.207)" fill="#c68c6a"/>
            </g>
          </g>
        </g>
        <path id="Trazado_204405" data-name="Trazado 204405" d="M1080.676,206.283q0-.714-.039-1.417l6.04-4.849a32.148,32.148,0,0,0-2.194-6.94l-7.8-.59a25.949,25.949,0,0,0-6.751-7.164l-.026-7.772a32.2,32.2,0,0,0-6.916-2.668l-5.33,5.737a25.906,25.906,0,0,0-9.586.751l-6.112-4.841a32.429,32.429,0,0,0-6.466,3.75l1.156,7.705a25.837,25.837,0,0,0-5.444,7.946l-7.605,1.762a32.383,32.383,0,0,0-1.123,7.331l6.7,3.872a25.638,25.638,0,0,0,2.865,9.464l-3.354,7.024a32.584,32.584,0,0,0,4.928,5.362l7.182-2.813a25.653,25.653,0,0,0,9.469,3.757l3.385,6.97c.4.015.809.025,1.215.025a32.6,32.6,0,0,0,5.939-.544l2.283-7.383a25.765,25.765,0,0,0,8.911-5.173l7.549,1.7a32.493,32.493,0,0,0,4.021-5.939l-4.375-6.426A25.782,25.782,0,0,0,1080.676,206.283Zm-26.1,11.373a10.873,10.873,0,1,1,10.872-10.873A10.873,10.873,0,0,1,1054.579,217.657Z" transform="translate(126.513 146.43)" fill="#c88c69"/>
        <g id="Grupo_151731" data-name="Grupo 151731" transform="translate(983.222 454.941)">
          <g id="Grupo_151727" data-name="Grupo 151727" transform="translate(43.97 2.736)">
            <g id="Grupo_151726" data-name="Grupo 151726">
              <path id="Trazado_204406" data-name="Trazado 204406" d="M904.75,346.912h-9.345a6.552,6.552,0,0,1-6.544-6.544v-9.345a6.552,6.552,0,0,1,6.544-6.544h9.345a6.552,6.552,0,0,1,6.544,6.544v9.345A6.552,6.552,0,0,1,904.75,346.912Zm-9.345-19.858a3.974,3.974,0,0,0-3.969,3.969v9.345a3.973,3.973,0,0,0,3.969,3.968h9.345a3.973,3.973,0,0,0,3.968-3.968v-9.345a3.974,3.974,0,0,0-3.968-3.969Z" transform="translate(-888.861 -324.479)" fill="#f9c852"/>
            </g>
          </g>
          <g id="Grupo_151729" data-name="Grupo 151729" transform="translate(0 2.736)">
            <g id="Grupo_151728" data-name="Grupo 151728">
              <path id="Trazado_204407" data-name="Trazado 204407" d="M856.513,346.912h-9.344a6.551,6.551,0,0,1-6.544-6.544v-9.345a6.551,6.551,0,0,1,6.544-6.544h9.344a6.552,6.552,0,0,1,6.544,6.544v9.345A6.551,6.551,0,0,1,856.513,346.912Zm-9.344-19.858a3.974,3.974,0,0,0-3.969,3.969v9.345a3.973,3.973,0,0,0,3.969,3.968h9.344a3.973,3.973,0,0,0,3.969-3.968v-9.345a3.974,3.974,0,0,0-3.969-3.969Z" transform="translate(-840.625 -324.479)" fill="#f9c852"/>
            </g>
          </g>
          <g id="Grupo_151730" data-name="Grupo 151730" transform="translate(3.98)">
            <path id="Trazado_204408" data-name="Trazado 204408" d="M852.811,341.206h-.053a1.1,1.1,0,0,1-.823-.431l-6.716-8.76a1.1,1.1,0,0,1,1.752-1.344l5.923,7.726,15.464-16.568a1.1,1.1,0,0,1,1.613,1.506l-16.353,17.522A1.1,1.1,0,0,1,852.811,341.206Z" transform="translate(-844.991 -321.477)" fill="#f37168"/>
          </g>
        </g>
        <path id="Trazado_204409" data-name="Trazado 204409" d="M1184.561,404.887c-38.256-1.87-168.4,1.3-207.977,2.533s-85.523-1.63-109.387-5.842-161.814.358-155.554,11.685,61.462,5.067,124.062,9.62,203.39-.569,235.148,0,60.88-1.138,101.806-3.415S1206.735,405.971,1184.561,404.887Z" transform="translate(154.023 126.516)" fill="#ff7d00" opacity="0.4"/>
        <g id="Grupo_151736" data-name="Grupo 151736" transform="translate(867.589 294.541)">
          <rect id="Rectángulo_44741" data-name="Rectángulo 44741" width="79.97" height="131.076" fill="#001520"/>
          <rect id="Rectángulo_44742" data-name="Rectángulo 44742" width="73.153" height="123.409" transform="translate(4.188 2.671)" fill="#fff"/>
          <g id="Grupo_151735" data-name="Grupo 151735" transform="translate(8.427 7.687)">
            <g id="Grupo_151732" data-name="Grupo 151732" transform="translate(17.641 7.577)">
              <path id="Trazado_204410" data-name="Trazado 204410" d="M742.37,201.973c2.754-5.923,7.414-7.82,15.066-7.82,9.111,0,13.842,3.3,15.184,8.106C756.3,202.483,742.37,201.973,742.37,201.973Z" transform="translate(-742.37 -165.079)" fill="#9bd6e8"/>
              <path id="Trazado_204411" data-name="Trazado 204411" d="M754.29,162.523c-3.858,1.083-3.688,3.25-4.973,5.261s-4.079,3.353-4.415,4.694.861,4.135-.559,5.7-1.9,2.347-1.341,3.912,1.788,4.023,1.9,4.358,1.676,2.683,3.576,3.017a40.331,40.331,0,0,1,7.265,1.676c1.788.783,7.538-1,10.729-.89s5.365-2.24,5.14-3.8,2.354-4.694,2.347-7.376c-.006-2.881-3.353-5.029-4.247-6.929s.112-5.253-3.241-7.239c-2.119-1.255-3.577-1.143-5.253-1.7S756.748,161.833,754.29,162.523Z" transform="translate(-742.406 -162.258)" fill="#3a384d"/>
              <path id="Trazado_204412" data-name="Trazado 204412" d="M760.1,197.475c-.872,1.288-1.511,1.341-2.458,0-.753-1.067-2.235-3.489-2.235-4.718v-12.27a2.242,2.242,0,0,1,2.235-2.235H760.1a2.242,2.242,0,0,1,2.235,2.235v12.27C762.336,193.985,760.883,196.32,760.1,197.475Z" transform="translate(-743.523 -163.673)" fill="#f09959"/>
              <path id="Trazado_204413" data-name="Trazado 204413" d="M760.1,178.252h-2.458a2.242,2.242,0,0,0-2.235,2.235v10.947c2.76.879,5.281-.868,6.929-2.837v-8.11A2.242,2.242,0,0,0,760.1,178.252Z" transform="translate(-743.523 -163.673)" fill="#e38540"/>
              <ellipse id="Elipse_5354" data-name="Elipse 5354" cx="7.432" cy="10.127" rx="7.432" ry="10.127" transform="translate(7.916 4.577)" fill="#f09959"/>
              <path id="Trazado_204414" data-name="Trazado 204414" d="M761.88,169.159c-4.694,7.935-11.622,7.153-11.622,7.153s.167-10.506,5.672-11.064,8.745,1.65,9.862,5.3a8.993,8.993,0,0,1,0,6.047,9.648,9.648,0,0,1-2.682-3.632A26.086,26.086,0,0,1,761.88,169.159Z" transform="translate(-743.068 -162.515)" fill="#3a384d"/>
              <ellipse id="Elipse_5355" data-name="Elipse 5355" cx="1.956" cy="2.934" rx="1.956" ry="2.934" transform="translate(3.885 13.576) rotate(-25.405)" fill="#f09959"/>
              <path id="Trazado_204415" data-name="Trazado 204415" d="M766.119,178.029c-.695,1.464-.468,3.025.509,3.489s2.33-.347,3.025-1.811.468-3.025-.508-3.489S766.815,176.566,766.119,178.029Z" transform="translate(-744.435 -163.481)" fill="#f09959"/>
              <path id="Trazado_204416" data-name="Trazado 204416" d="M761.731,184.414a3.218,3.218,0,0,1-5.588,0Z" transform="translate(-743.588 -164.218)" fill="#fff"/>
            </g>
            <path id="Trazado_204417" data-name="Trazado 204417" d="M766.88,219.932H748.111a2.182,2.182,0,0,1,0-4.365H766.88a2.182,2.182,0,0,1,0,4.365Z" transform="translate(-725.044 -159.396)" fill="#001520"/>
            <path id="Trazado_204418" data-name="Trazado 204418" d="M769.983,227.288H744.342a2.182,2.182,0,1,1,0-4.365h25.641a2.182,2.182,0,1,1,0,4.365Z" transform="translate(-724.71 -160.047)" fill="#001520"/>
            <path id="Trazado_204419" data-name="Trazado 204419" d="M786.655,253.92H724.283a1.267,1.267,0,0,1,0-2.533h62.372a1.267,1.267,0,1,1,0,2.533Z" transform="translate(-723.017 -162.564)" fill="#001520"/>
            <path id="Trazado_204420" data-name="Trazado 204420" d="M786.655,260.376H724.283a1.266,1.266,0,0,1,0-2.532h62.372a1.266,1.266,0,1,1,0,2.532Z" transform="translate(-723.017 -163.136)" fill="#001520"/>
            <path id="Trazado_204421" data-name="Trazado 204421" d="M786.655,266.833H724.283a1.266,1.266,0,0,1,0-2.532h62.372a1.266,1.266,0,1,1,0,2.532Z" transform="translate(-723.017 -163.707)" fill="#001520"/>
            <g id="Grupo_151733" data-name="Grupo 151733" transform="translate(7.729)">
              <path id="Trazado_204422" data-name="Trazado 204422" d="M778.682,199.873H733.757a2.264,2.264,0,0,1-2.261-2.261v-41.4a2.264,2.264,0,0,1,2.261-2.262h44.925a2.264,2.264,0,0,1,2.262,2.262v41.4A2.264,2.264,0,0,1,778.682,199.873Zm-44.925-44.087a.428.428,0,0,0-.421.422v41.4a.427.427,0,0,0,.421.421h44.925a.428.428,0,0,0,.422-.421v-41.4a.428.428,0,0,0-.422-.422Z" transform="translate(-731.496 -153.946)" fill="#001520"/>
            </g>
            <g id="Grupo_151734" data-name="Grupo 151734" transform="translate(12.264 72.934)">
              <path id="Trazado_204423" data-name="Trazado 204423" d="M740.68,233.957l1.3,2.635,2.908.423-2.1,2.051.5,2.9-2.6-1.368-2.6,1.368.5-2.9-2.1-2.051,2.908-.423Z" transform="translate(-736.471 -233.957)" fill="#001520"/>
              <path id="Trazado_204424" data-name="Trazado 204424" d="M752.366,233.957l1.3,2.635,2.908.423-2.1,2.051.5,2.9-2.6-1.368-2.6,1.368.5-2.9-2.1-2.051,2.908-.423Z" transform="translate(-737.504 -233.957)" fill="#001520"/>
              <path id="Trazado_204425" data-name="Trazado 204425" d="M764.053,233.957l1.3,2.635,2.908.423-2.1,2.051.5,2.9-2.6-1.368-2.6,1.368.5-2.9-2.1-2.051,2.908-.423Z" transform="translate(-738.538 -233.957)" fill="#001520"/>
              <path id="Trazado_204426" data-name="Trazado 204426" d="M775.74,233.957l1.3,2.635,2.908.423-2.1,2.051.5,2.9-2.6-1.368-2.6,1.368.5-2.9-2.1-2.051,2.908-.423Z" transform="translate(-739.572 -233.957)" fill="#001520"/>
            </g>
          </g>
        </g>
        <g id="Grupo_151741" data-name="Grupo 151741" transform="translate(1045.873 294.541)">
          <rect id="Rectángulo_44743" data-name="Rectángulo 44743" width="79.97" height="131.076" fill="#001520"/>
          <rect id="Rectángulo_44744" data-name="Rectángulo 44744" width="73.153" height="123.409" transform="translate(4.188 2.671)" fill="#fff"/>
          <g id="Grupo_151740" data-name="Grupo 151740" transform="translate(8.427 7.687)">
            <g id="Grupo_151737" data-name="Grupo 151737" transform="translate(17.641 8.364)">
              <path id="Trazado_204427" data-name="Trazado 204427" d="M941.765,177.655c0,5.871,3.535,15.344,11.874,15.04s10.183-9.333,10.506-11.881S941.765,177.655,941.765,177.655Z" transform="translate(-938.29 -164.407)" fill="#7a4e34"/>
              <path id="Trazado_204428" data-name="Trazado 204428" d="M937.953,201.973c2.754-5.923,7.414-7.82,15.066-7.82,9.111,0,13.843,3.3,15.184,8.106C951.886,202.483,937.953,201.973,937.953,201.973Z" transform="translate(-937.953 -165.867)" fill="#d54a41"/>
              <path id="Trazado_204429" data-name="Trazado 204429" d="M955.684,197.475c-.872,1.288-1.511,1.341-2.458,0-.753-1.067-2.235-3.489-2.235-4.718v-12.27a2.242,2.242,0,0,1,2.235-2.235h2.458a2.242,2.242,0,0,1,2.235,2.235v12.27C957.919,193.985,956.467,196.32,955.684,197.475Z" transform="translate(-939.106 -164.46)" fill="#f09959"/>
              <path id="Trazado_204430" data-name="Trazado 204430" d="M955.684,178.252h-2.458a2.242,2.242,0,0,0-2.235,2.235v10.947c2.76.879,5.281-.868,6.929-2.837v-8.11A2.242,2.242,0,0,0,955.684,178.252Z" transform="translate(-939.106 -164.46)" fill="#e38540"/>
              <ellipse id="Elipse_5356" data-name="Elipse 5356" cx="7.432" cy="10.127" rx="7.432" ry="10.127" transform="translate(7.916 3.789)" fill="#f09959"/>
              <path id="Trazado_204431" data-name="Trazado 204431" d="M957.721,169.341c-.883,3.115-2.818,3.078-5.517,4.1s-3.989,2.052-4.872,4.045c-1.126,2.54.511,9.947.511,9.947s-6.833-5.113-6.043-13.155,5.531-11.156,9.994-11.156,6.158,2.72,6.158,2.72a6.685,6.685,0,0,1,4.625,2.673c3.022,3.579,2.092,12.271,0,15.386s-3.486,4.09-3.439,3.951,1.953-7.292.93-11.713A28.246,28.246,0,0,0,957.721,169.341Z" transform="translate(-938.288 -163.122)" fill="#7a4e34"/>
              <path id="Trazado_204432" data-name="Trazado 204432" d="M957.314,184.414a3.218,3.218,0,0,1-5.588,0Z" transform="translate(-939.171 -165.005)" fill="#fff"/>
            </g>
            <path id="Trazado_204433" data-name="Trazado 204433" d="M962.463,219.932H943.7a2.182,2.182,0,1,1,0-4.365h18.768a2.182,2.182,0,1,1,0,4.365Z" transform="translate(-920.626 -159.396)" fill="#001520"/>
            <path id="Trazado_204434" data-name="Trazado 204434" d="M965.566,227.288H939.925a2.182,2.182,0,1,1,0-4.365h25.641a2.182,2.182,0,0,1,0,4.365Z" transform="translate(-920.293 -160.047)" fill="#001520"/>
            <path id="Trazado_204435" data-name="Trazado 204435" d="M982.239,253.92H919.866a1.267,1.267,0,0,1,0-2.533h62.373a1.267,1.267,0,0,1,0,2.533Z" transform="translate(-918.6 -162.564)" fill="#001520"/>
            <path id="Trazado_204436" data-name="Trazado 204436" d="M982.239,260.376H919.866a1.266,1.266,0,1,1,0-2.532h62.373a1.266,1.266,0,0,1,0,2.532Z" transform="translate(-918.6 -163.136)" fill="#001520"/>
            <path id="Trazado_204437" data-name="Trazado 204437" d="M982.239,266.833H919.866a1.266,1.266,0,1,1,0-2.532h62.373a1.266,1.266,0,0,1,0,2.532Z" transform="translate(-918.6 -163.707)" fill="#001520"/>
            <g id="Grupo_151738" data-name="Grupo 151738" transform="translate(7.729)">
              <path id="Trazado_204438" data-name="Trazado 204438" d="M974.265,199.873H929.34a2.264,2.264,0,0,1-2.261-2.261v-41.4a2.264,2.264,0,0,1,2.261-2.262h44.925a2.264,2.264,0,0,1,2.262,2.262v41.4A2.264,2.264,0,0,1,974.265,199.873ZM929.34,155.786a.428.428,0,0,0-.421.422v41.4a.427.427,0,0,0,.421.421h44.925a.428.428,0,0,0,.422-.421v-41.4a.428.428,0,0,0-.422-.422Z" transform="translate(-927.079 -153.946)" fill="#001520"/>
            </g>
            <g id="Grupo_151739" data-name="Grupo 151739" transform="translate(12.264 72.934)">
              <path id="Trazado_204439" data-name="Trazado 204439" d="M936.263,233.957l1.3,2.635,2.908.423-2.1,2.051.5,2.9-2.6-1.368-2.6,1.368.5-2.9-2.1-2.051,2.908-.423Z" transform="translate(-932.054 -233.957)" fill="#001520"/>
              <path id="Trazado_204440" data-name="Trazado 204440" d="M947.949,233.957l1.3,2.635,2.908.423-2.1,2.051.5,2.9-2.6-1.368-2.6,1.368.5-2.9-2.1-2.051,2.908-.423Z" transform="translate(-933.087 -233.957)" fill="#001520"/>
              <path id="Trazado_204441" data-name="Trazado 204441" d="M959.636,233.957l1.3,2.635,2.908.423-2.1,2.051.5,2.9-2.6-1.368-2.6,1.368.5-2.9-2.1-2.051,2.908-.423Z" transform="translate(-934.121 -233.957)" fill="#001520"/>
              <path id="Trazado_204442" data-name="Trazado 204442" d="M971.323,233.957l1.3,2.635,2.908.423-2.1,2.051.5,2.9-2.6-1.368-2.6,1.368.5-2.9-2.1-2.051,2.908-.423Z" transform="translate(-935.155 -233.957)" fill="#001520"/>
            </g>
          </g>
        </g>
        <path id="Trazado_204443" data-name="Trazado 204443" d="M906.971,275.324H780.766l8.927-129.277H911.521Z" transform="translate(147.892 148.98)" fill="#99bbeb" opacity="0.2"/>
        <g id="Grupo_151746" data-name="Grupo 151746" transform="translate(941.914 270.564)">
          <rect id="Rectángulo_44745" data-name="Rectángulo 44745" width="109.227" height="179.029" fill="#001520"/>
          <rect id="Rectángulo_44746" data-name="Rectángulo 44746" width="99.916" height="168.558" transform="translate(5.72 3.648)" fill="#fff"/>
          <g id="Grupo_151745" data-name="Grupo 151745" transform="translate(11.51 10.836)">
            <g id="Grupo_151742" data-name="Grupo 151742" transform="translate(22.834 7.788)">
              <path id="Trazado_204444" data-name="Trazado 204444" d="M845.978,160.07c-.07-.21-1.819-10.249-2.028-14.155s6.275-4.462,6.275-4.462,5.3-2.86,9.134-1.395a15.463,15.463,0,0,1,8.188,7c1.743,3.068-1.534,12.63-1.534,12.63Z" transform="translate(-833.954 -139.641)" fill="#2e2d3d"/>
              <path id="Trazado_204445" data-name="Trazado 204445" d="M832.986,195.992c-.024-.164.448-4.116.465-4.276.883-8.321,11.139-10.661,21.374-10.661,12.024,0,20.183,2.2,21.484,10.847.037.253.731,4.215.7,4.481C854.72,196.688,832.986,195.992,832.986,195.992Z" transform="translate(-832.985 -143.304)" fill="#d5e1e8"/>
              <path id="Trazado_204446" data-name="Trazado 204446" d="M858.45,185.592c-1.191,1.758-2.065,1.831-3.358,0-1.028-1.457-4.462-4.779-4.462-6.458l1.409-16.744a3.062,3.062,0,0,1,3.053-3.053h3.358a3.062,3.062,0,0,1,3.053,3.053l.655,16.744C862.158,180.813,859.519,184.015,858.45,185.592Z" transform="translate(-834.546 -141.383)" fill="#f09959"/>
              <path id="Trazado_204447" data-name="Trazado 204447" d="M858.468,159.337H855.11a3.062,3.062,0,0,0-3.053,3.053l-1.223,14.855c3.771,1.2,8.863-1.24,11.115-3.929l-.427-10.926A3.062,3.062,0,0,0,858.468,159.337Z" transform="translate(-834.564 -141.383)" fill="#e38540"/>
              <path id="Trazado_204448" data-name="Trazado 204448" d="M844.724,182.363l5.384,9.951s2.882-2.371,3.161-1.906-.511,6.331-.511,6.331,6.415.088,6.694-.191-1.3-6.372-.651-6.372,2.608,1.767,2.608,1.767l6.012-9.58-1.322-.322-9.849,5.3-10.534-5.183Z" transform="translate(-834.023 -143.391)" fill="#bdccd4"/>
              <path id="Trazado_204449" data-name="Trazado 204449" d="M851.479,187.282l4,2.683-1.239,7.121,5.392-.3-1.347-6.477,3.314-3.026-1.557-1.467h-7Z" transform="translate(-834.621 -143.725)" fill="#d54a41"/>
              <path id="Trazado_204450" data-name="Trazado 204450" d="M850.456,177l-4.945,4.705s5.038,8.961,5.317,8.961,4.275-4.941,4.275-4.941l2.56-.045,4.043,4.241,4.7-8.31-4.79-5.077s-4.091,7.9-4.835,8.088-.748.279-1.35-.186S850.456,177,850.456,177Z" transform="translate(-834.093 -142.904)" fill="#d5e1e8"/>
              <ellipse id="Elipse_5357" data-name="Elipse 5357" cx="10.151" cy="13.832" rx="10.151" ry="13.832" transform="translate(12.075 4.292)" fill="#f09959"/>
              <path id="Trazado_204451" data-name="Trazado 204451" d="M846.849,159.032c.95,2,.639,4.133-.694,4.766s-3.182-.474-4.132-2.473-.639-4.133.694-4.766S845.9,157.033,846.849,159.032Z" transform="translate(-833.736 -141.121)" fill="#f09959"/>
              <path id="Trazado_204452" data-name="Trazado 204452" d="M866.808,159.032c-.95,2-.639,4.133.694,4.766s3.183-.474,4.132-2.473.639-4.133-.694-4.766S867.757,157.033,866.808,159.032Z" transform="translate(-835.928 -141.121)" fill="#f09959"/>
              <path id="Trazado_204453" data-name="Trazado 204453" d="M861.434,165.749s-2.016,3.266-4.5,3.266-4.5-3.266-4.5-3.266Z" transform="translate(-834.705 -141.95)" fill="#fff"/>
              <path id="Trazado_204454" data-name="Trazado 204454" d="M850.422,148.649c4.184-2.928,6.066-2.44,9.2,2.371s6.9,4.9,6.9,4.9l.489-4.989s-4.674-9.041-10.948-7.856-9.843,6.833-9.843,6.833-.305,10.586.571,10.947.975-3.417,1.6-4.183-.628-4.393.209-6.066S850.422,148.649,850.422,148.649Z" transform="translate(-834.152 -139.935)" fill="#2e2d3d"/>
              <path id="Trazado_204455" data-name="Trazado 204455" d="M865.6,155.168c1.46,1.6.906,7.948,1.674,7.879s1.046-6.066.837-6.694S865.6,155.168,865.6,155.168Z" transform="translate(-835.87 -141.014)" fill="#2e2d3d"/>
            </g>
            <path id="Trazado_204456" data-name="Trazado 204456" d="M877.325,220.855H830.7a2.981,2.981,0,0,1,0-5.962h46.627a2.981,2.981,0,1,1,0,5.962Z" transform="translate(-809.686 -138.509)" fill="#001520"/>
            <path id="Trazado_204457" data-name="Trazado 204457" d="M872.086,230.9H837.063a2.981,2.981,0,1,1,0-5.962h35.023a2.981,2.981,0,0,1,0,5.962Z" transform="translate(-810.249 -139.397)" fill="#001520"/>
            <path id="Trazado_204458" data-name="Trazado 204458" d="M894.857,267.277H809.666a1.73,1.73,0,1,1,0-3.459h85.191a1.73,1.73,0,0,1,0,3.459Z" transform="translate(-807.936 -142.836)" fill="#001520"/>
            <path id="Trazado_204459" data-name="Trazado 204459" d="M894.857,276.1H809.666a1.729,1.729,0,1,1,0-3.458h85.191a1.729,1.729,0,0,1,0,3.458Z" transform="translate(-807.936 -143.616)" fill="#001520"/>
            <path id="Trazado_204460" data-name="Trazado 204460" d="M894.857,284.914H809.666a1.73,1.73,0,1,1,0-3.459h85.191a1.73,1.73,0,0,1,0,3.459Z" transform="translate(-807.936 -144.396)" fill="#001520"/>
            <g id="Grupo_151743" data-name="Grupo 151743" transform="translate(10.894)">
              <path id="Trazado_204461" data-name="Trazado 204461" d="M884,193.153H822.638a2.754,2.754,0,0,1-2.751-2.751V133.849a2.755,2.755,0,0,1,2.751-2.752H884a2.755,2.755,0,0,1,2.751,2.752V190.4A2.754,2.754,0,0,1,884,193.153Zm-61.361-60.216a.913.913,0,0,0-.912.912V190.4a.912.912,0,0,0,.912.912H884a.912.912,0,0,0,.912-.912V133.849a.913.913,0,0,0-.912-.912Z" transform="translate(-819.887 -131.097)" fill="#001520"/>
            </g>
            <g id="Grupo_151744" data-name="Grupo 151744" transform="translate(9.36 99.281)">
              <path id="Trazado_204462" data-name="Trazado 204462" d="M823.953,240.011l1.777,3.6,3.972.577-2.874,2.8.679,3.956-3.553-1.868-3.553,1.868.679-3.956-2.874-2.8,3.972-.577Z" transform="translate(-818.204 -240.011)" fill="#001520"/>
              <path id="Trazado_204463" data-name="Trazado 204463" d="M839.915,240.011l1.776,3.6,3.972.577-2.874,2.8.679,3.956-3.553-1.868-3.553,1.868.679-3.956-2.874-2.8,3.972-.577Z" transform="translate(-819.616 -240.011)" fill="#001520"/>
              <path id="Trazado_204464" data-name="Trazado 204464" d="M855.878,240.011l1.776,3.6,3.972.577-2.875,2.8.679,3.956-3.553-1.868-3.553,1.868.679-3.956-2.874-2.8,3.972-.577Z" transform="translate(-821.028 -240.011)" fill="#001520"/>
              <path id="Trazado_204465" data-name="Trazado 204465" d="M871.84,240.011l1.776,3.6,3.972.577-2.874,2.8.679,3.956-3.553-1.868-3.553,1.868.679-3.956-2.875-2.8,3.972-.577Z" transform="translate(-822.44 -240.011)" fill="#001520"/>
              <path id="Trazado_204466" data-name="Trazado 204466" d="M888.056,240.011l1.777,3.6,3.972.577-2.874,2.8.678,3.956-3.553-1.868-3.553,1.868.678-3.956-2.874-2.8,3.972-.577Z" transform="translate(-823.874 -240.011)" fill="#001520"/>
            </g>
          </g>
        </g>
        <rect id="Rectángulo_44747" data-name="Rectángulo 44747" width="143.212" height="5.337" rx="2.668" transform="translate(1084.877 438.502)" fill="#f9c852"/>
        <g id="Grupo_151752" data-name="Grupo 151752" transform="translate(1141.452 347.318)">
          <path id="Trazado_204467" data-name="Trazado 204467" d="M1145.314,224.033c1.9,6.7-2.739,13.595-7.849,15.044s-8.755-3.1-10.654-9.8.7-13.3,5.812-14.747S1143.415,217.338,1145.314,224.033Z" transform="translate(-1024.113 -204.37)" fill="#f09959"/>
          <path id="Trazado_204468" data-name="Trazado 204468" d="M1115.168,367.309s13.1,20.339,14.864,21.224,6.19,1.1,4.532,4.421-2.321,16.36-3.869,17.023-14.812,2.21-12.823,0,3.214-1.106,4.218-5.086,2.415-11.5.536-13.043-13.375-15.475-13.375-15.475Z" transform="translate(-1022.614 -217.908)" fill="#f09959"/>
          <path id="Trazado_204469" data-name="Trazado 204469" d="M1040.854,376.891s-15.918,26.235-18.865,28.594-12.676,5.9-4.717,6.486,11.792-2.654,16.8-4.128,11.2-2.358,8.844-6.19-1.379-12.2,3.7-17.5S1040.854,376.891,1040.854,376.891Z" transform="translate(-1014.208 -218.755)" fill="#f09959"/>
          <path id="Trazado_204470" data-name="Trazado 204470" d="M1124.016,310.149s-39.405-1.03-55.029,11.792c-9.137,13.855-31.244,54.733-32.964,59.238,1.18,1.179,7.812,3.306,10.76,3.012,8.7-10.369,20.19-19.333,24.761-27.466,5.633-10.023,7.37-15.034,16.508-15.918s29.772-3.832,35.963-3.832S1124.016,310.149,1124.016,310.149Z" transform="translate(-1016.138 -212.85)" fill="#6791c9"/>
          <path id="Trazado_204471" data-name="Trazado 204471" d="M1168.613,409.455h-2.066l-14.812-61.8h4.544Z" transform="translate(-1026.372 -216.169)" fill="#15616d"/>
          <path id="Trazado_204472" data-name="Trazado 204472" d="M1102.371,409.243h2.066l17-63.983h-4.544Z" transform="translate(-1022.006 -215.958)" fill="#15616d"/>
          <path id="Trazado_204473" data-name="Trazado 204473" d="M1149.663,307.19l-22.91,3.954s-30.444.28-44.361,2.872c-12.661,2.358-14.526,16.743,0,36.552,8.252,11.253,15.229,20.229,29.5,30.35,3.63-2.665,5.018-3.673,6.021-10.085-1.033-1.416-3.705-10.278-4.535-12.012-7.892-16.5-18.426-22.5-18.572-24.119,1.768-2.874,46.848,14.98,55.812,4.478C1159.173,329.154,1149.663,307.19,1149.663,307.19Z" transform="translate(-1019.336 -212.59)" fill="#75a1de"/>
          <path id="Trazado_204474" data-name="Trazado 204474" d="M1155.389,250.267a23.972,23.972,0,0,0-17.927,4.46c-5.022,5.119-10.7,13.562-10.356,27.488.442,17.686-2.737,18.822.579,23.685,13.831,5.712,37.486,30.251,31.915,3.943-4.034-19.05,8.847-33.248-1.544-54.379C1157.211,253.745,1156.153,252.077,1155.389,250.267Z" transform="translate(-1024.11 -207.532)" fill="#f37168"/>
          <path id="Trazado_204475" data-name="Trazado 204475" d="M1127.1,289.3c-.269,9.22-1.572,11.937-.576,14.827,5.639.576,15.953,2.832,18.53,6.44,2.948,4.128,5.9,4.716,4.52,1.671s-5.012-7.37.589-22.207,8.254-24.86,2.752-35.177Z" transform="translate(-1024.11 -207.961)" fill="#d54a41"/>
          <path id="Trazado_204476" data-name="Trazado 204476" d="M1156.486,248.48a71.961,71.961,0,0,1-4.628-18.678l-9.727,2.873s5.527,12.381.221,16.8a51.069,51.069,0,0,0-3.792,3.463A23.972,23.972,0,0,1,1156.486,248.48Z" transform="translate(-1025.207 -205.745)" fill="#f09959"/>
          <path id="Trazado_204477" data-name="Trazado 204477" d="M1152.5,232.194c-.576-.512-1.3-1.152-2.056-1.821l-7.934,2.344-.016.043a32.414,32.414,0,0,1,2.479,9.691,27.989,27.989,0,0,0,7.913-7.859C1152.724,233.685,1152.6,232.876,1152.5,232.194Z" transform="translate(-1025.555 -205.796)" fill="#e38540"/>
          <path id="Trazado_204478" data-name="Trazado 204478" d="M1144.989,253.3c-10.019,3.5-8.908,14.058-18.128,29.624-4.772,8.055-9.2,7.936-9.2,7.936a213.492,213.492,0,0,1-24.728-1.566c-8.477-1.036-9.014,1.487-3.12,3.6,11.89,4.251,24.228,8.826,34.177,7.721s26.964-26.489,27.841-33.1C1153.041,258.375,1150.034,251.535,1144.989,253.3Z" transform="translate(-1020.548 -207.799)" fill="#f09959"/>
          <g id="Grupo_151748" data-name="Grupo 151748" transform="translate(84.061 67.306)">
            <g id="Grupo_151747" data-name="Grupo 151747">
              <path id="Trazado_204479" data-name="Trazado 204479" d="M1141.645,344.005q-.934,0-1.914-.025a95.289,95.289,0,0,1-18.189-2.239c-5.215-1.06-8.087-1.644-11.43-.046a2.575,2.575,0,0,1-2.221-4.647c4.9-2.341,9-1.508,14.676-.354a90.741,90.741,0,0,0,17.29,2.137c8.631.215,13.893-1.065,16.56-4.023,2.376-2.635,3.071-7.063,2.188-13.935-.3-2.351-.6-4.307-.871-6.034-.753-4.869-1.25-8.085-.635-13.057.573-4.617,2.1-10.767,5.643-22.693a2.575,2.575,0,1,1,4.937,1.466c-6.6,22.224-6.263,24.388-4.855,33.5.272,1.757.58,3.746.89,6.164,1.09,8.474-.014,14.206-3.471,18.041C1156.682,342.207,1150.9,344.005,1141.645,344.005Z" transform="translate(-1106.425 -277.247)" fill="#15616d"/>
            </g>
          </g>
          <path id="Trazado_204480" data-name="Trazado 204480" d="M1041.936,401.149c-10.562,5.165-16.247,8.126-19.633,7.843-.8-.067-1.461-.148-2.017-.234-3.767,2.226-9.779,4.857-3.015,5.358,7.96.589,11.792-2.654,16.8-4.128s11.2-2.358,8.844-6.19A8.052,8.052,0,0,1,1041.936,401.149Z" transform="translate(-1014.208 -220.901)" fill="#d54a41"/>
          <path id="Trazado_204481" data-name="Trazado 204481" d="M1132,391.065c-.258,8.363-1.407,16.65-6.522,18.215a8.591,8.591,0,0,1-3.684.328c-.8,1-1.786,1.006-3.1,2.47-1.989,2.21,11.275.663,12.823,0s2.211-13.707,3.869-17.023C1136.743,392.331,1134,391.695,1132,391.065Z" transform="translate(-1023.431 -220.009)" fill="#d54a41"/>
          <g id="Grupo_151749" data-name="Grupo 151749" transform="translate(18.194 57.581)">
            <path id="Trazado_204482" data-name="Trazado 204482" d="M1083.859,300.914H1050.3a2.577,2.577,0,0,1-2.335-1.49l-13.559-29.182a2.575,2.575,0,1,1,4.671-2.17l12.868,27.693h31.912a2.575,2.575,0,0,1,0,5.15Z" transform="translate(-1034.168 -266.58)" fill="#75a1de"/>
          </g>
          <path id="Trazado_204483" data-name="Trazado 204483" d="M1093.486,292.784c-6.78-.1-13.5-4.14-16.845-3.551s-14.248,8.156-12.872,8.451,10.023-4.188,10.317-4.256,2.162,3.1,6.78,4.27.033-3.461,14.348.862C1104.523,301.372,1093.486,292.784,1093.486,292.784Z" transform="translate(-1018.581 -210.997)" fill="#f09959"/>
          <path id="Trazado_204484" data-name="Trazado 204484" d="M1154.9,241.486l1,8.027s-8.774.521-13.139,2.978-10.809,9.554-10.809,9.554l5.264-9.063.757-5.8Z" transform="translate(-1024.622 -206.779)" fill="#f2e5de"/>
          <path id="Trazado_204485" data-name="Trazado 204485" d="M1148.075,252.25c-6.517-1.221-9.531,4.618-13.756,14.149s-11.438,21.108-12.872,22.6-24.172,0-24.172,0-.688,6.583,0,7.369,4.618.688,4.618.688,1.572,1.255,3.046,2.249,13.952,2.86,19.75,2.566,11.1-.786,11.889-1.671,16.607-25.253,17.589-34S1151.4,252.873,1148.075,252.25Z" transform="translate(-1021.528 -207.717)" fill="#f2e5de"/>
          <path id="Trazado_204486" data-name="Trazado 204486" d="M1130.934,207.855c-12.325.589-10.392,19.13-10.392,19.13s3.2.988,9.908-.117c-.516-1.99-.3-7.075-.3-7.075a46.4,46.4,0,0,0,1.768,6.632c1.418.65,3.022.074,5.749-.585,1.4,5.891,5.356,8.38,8.065,9.232,2.994.941,6.162,2.063,9.7.294s1.593-19.848-.285-23.484c-2.819-5.457-7.506-10.342-15.612-7.763A60.172,60.172,0,0,0,1130.934,207.855Z" transform="translate(-1023.604 -203.411)"/>
          <path id="Trazado_204487" data-name="Trazado 204487" d="M1155.465,232.313l5.039,7.36s-5.584,13.953,10.658,20.275c12.72,4.951,11.221,13.674,5.473,22.447s3.439,16.433,3.439,16.433,1.4-9.718,13.76-11.553c16.852-2.5,21.624-25.125,9.037-36.438-10.416-9.362-13.585-1.609-20.635-10.01s-20.36-2.726-20.36-2.726L1157,230.987Z" transform="translate(-1026.702 -205.85)"/>
          <g id="Grupo_151750" data-name="Grupo 151750" transform="translate(134.726 29.045)">
            <path id="Trazado_204488" data-name="Trazado 204488" d="M1209.246,274.008a.449.449,0,0,1-.393-.664c4.237-7.744.779-17.125-.959-19.667-.184-.27-.359-.542-.544-.831-1.709-2.667-3.836-5.986-15.182-8.029-2.733-.492-4.945-2.117-7.288-3.836-4.839-3.552-10.322-7.578-22.238-2.094a.448.448,0,1,1-.375-.814c12.394-5.705,18.105-1.513,23.143,2.185,2.256,1.657,4.387,3.221,6.916,3.676,11.732,2.112,13.975,5.614,15.778,8.427.181.283.352.551.529.809,1.822,2.663,5.445,12.491,1.006,20.6A.45.45,0,0,1,1209.246,274.008Z" transform="translate(-1162.007 -235.274)" fill="#0ab1cb"/>
          </g>
          <g id="Grupo_151751" data-name="Grupo 151751" transform="translate(112.905 16.474)">
            <path id="Trazado_204489" data-name="Trazado 204489" d="M1151.235,239.014a17.648,17.648,0,0,1-2.617-.211c-4.312-.645-10.1-3.1-10.55-16.856a.448.448,0,0,1,.9-.03c.187,5.673,1.312,9.869,3.344,12.474a9.4,9.4,0,0,0,6.443,3.527c3.99.6,6.635-.139,7.86-2.19a.449.449,0,0,1,.77.46C1156.258,238.068,1154.2,239.014,1151.235,239.014Z" transform="translate(-1138.068 -221.484)" fill="#0ab1cb"/>
          </g>
        </g>
        <path id="Trazado_204490" data-name="Trazado 204490" d="M968.626,405.9h3.311l12.882-98.467h-7.285Z" transform="translate(131.275 134.706)" fill="#f9c852"/>
        <path id="Trazado_204491" data-name="Trazado 204491" d="M1090.322,405.9h-3.311l-12.882-98.467h7.285Z" transform="translate(121.944 134.706)" fill="#f9c852"/>
        <g id="Grupo_151753" data-name="Grupo 151753" transform="translate(1302.103 434.55)">
          <path id="Trazado_204492" data-name="Trazado 204492" d="M1233.771,324.271c5.729,5.23,3.238,10.461-1,20.175s-4.983,45.584-4.983,45.584l3.488-.5s-.5-36.865,4.234-46.828,6.725-14.946,10.96-11.707S1233.771,324.271,1233.771,324.271Z" transform="translate(-1193.75 -301.333)" fill="#74b570"/>
          <path id="Trazado_204493" data-name="Trazado 204493" d="M1230.868,315.273c.7-3.1,4.828-6.455,10.353-9.3-.822,4.572-3.456,12.048-.73,13.581,3.677,2.067.359-8.37,1.778-14.106a68.224,68.224,0,0,1,17.176-5.635c-.008.022-.015.042-.023.063-3.238,8.22-7.473,11.458-5.729,12.7,1.312.936,5.585-8.559,11.227-13.425,4.235-.226,7.817.348,9.937,2.026,3.276,2.593,5.475,4.894,2.18,12.792a14.809,14.809,0,0,1-7.153,2.592c-7.473.747-10.959,1-5.729,3.488,2.561,1.22,6.855-.069,10.336-.854-1.129,2.081-2.518,4.437-4.2,7.118a26.432,26.432,0,0,1-3.5,4.456c-2.408.461-4.508.467-5.62-.009-3.488-1.495-12.454-6.228-14.7-4.235-2.194,1.951,16.607,3.186,15.3,8.142-9.113,5.251-19.541,2.752-21.385-2.069C1237.914,326.127,1228.773,324.6,1230.868,315.273Z" transform="translate(-1193.995 -299.107)" fill="#9cd499"/>
          <path id="Trazado_204494" data-name="Trazado 204494" d="M1248.83,355.386c-9.963-7.473-20.176-.5-25.407,7.473s-1.495,25.905-1.495,25.905,1.993,0,1.993-.747-5.48-21.173,7.473-30.388c8.1-5.766,13.949-2.989,14.7-.25s-3.238,7.722-3.238,7.722Z" transform="translate(-1193.117 -303.803)" fill="#74b570"/>
          <path id="Trazado_204495" data-name="Trazado 204495" d="M1226.383,338.844c9.963,0,13.2,15.444,10.462,24.411s-6.477,25.656-6.477,25.656l-2.49-2.491s9.465-23.414,7.223-33.876-7.722-12.2-8.718-12.2S1226.383,338.844,1226.383,338.844Z" transform="translate(-1193.586 -302.622)" fill="#9cd499"/>
          <path id="Trazado_204496" data-name="Trazado 204496" d="M1235.351,365.486a7.2,7.2,0,0,1,2.623-2.2,19.725,19.725,0,0,1-.518,2.135c-1.249,4.086-2.7,9.774-3.918,14.756-.11-.638-.281-1.621-.543-3.139-.062-.358-.11-.747-.144-1.159A96.821,96.821,0,0,0,1235.351,365.486Z" transform="translate(-1194.198 -304.783)" fill="#74b570"/>
          <path id="Trazado_204497" data-name="Trazado 204497" d="M1238.082,364.419c18.931-7.971,8.957-18.909,25.647-11.685a12.388,12.388,0,0,1,4.042,3.561,12.42,12.42,0,0,1-5.288.425c-4.982-.747-3.238,3.238,4.982,4.234a18.436,18.436,0,0,1,3.852.813c3.916,7.521,5.681,17.418-2.606,20.858a18.77,18.77,0,0,1-5.9,1.21c-2.557-2.032.624-13.794-3.318-12.17-3.785,1.559,1.186,10.083.505,12.23a54.609,54.609,0,0,1-11.826-1.658,5.887,5.887,0,0,1-3.126-3.6c-1.245-5.23,6.974-8.468,7.224-12.952.229-4.122-3.013,9.068-11.6,11.009C1232.9,373.068,1229.233,368.145,1238.082,364.419Z" transform="translate(-1194.205 -303.642)" fill="#9cd499"/>
          <path id="Trazado_204498" data-name="Trazado 204498" d="M1220.836,348.569c1.993-4.234-3.239-5.23-2.99-1.993.222,2.87.245,9.844-2.7,11.744a46.186,46.186,0,0,1-17.2-5.713,2.118,2.118,0,0,1,.22-1.3c2.242-4.484,16.689-8.22,12.206-9.714-3.572-1.19-9.828,5.835-14.87,9.374-3.028-2.3-5.057-5.037-5.057-8.095,0-4.138,5.028-8.822,11.53-11.061,2.927.294,5.645,1.894,9.891,4.3,6.272,3.554,4.822-2.192-1.109-5.6a17.866,17.866,0,0,1,13.99,7.679s-.356,2.233,2.007,5.689c6.45,9.426-.994,14.928-9.891,14.572C1217.369,355.966,1219.459,351.495,1220.836,348.569Z" transform="translate(-1190.447 -301.885)" fill="#9cd499"/>
          <path id="Trazado_204499" data-name="Trazado 204499" d="M1250.692,355.226c4.871,3.764,10.282,8.165,16.926,11.154s5.313,12.733,5.313,12.733,1-8.415-4.539-11.293-9.189-6.311-13.4-6.974a60.936,60.936,0,0,1-6.532-1.329s1.329-2.657.553-3.654S1250.692,355.226,1250.692,355.226Z" transform="translate(-1195.578 -304.065)" fill="#74b570"/>
          <path id="Trazado_204500" data-name="Trazado 204500" d="M1273.779,306.741c-17.825,4.761-30.889,16.165-33.325,18.932s-2.436,3.542-2.436,3.542l1.882,3.543.885-.443s-1.439-2.989,2.325-6.864c6.491-6.683,14.393-11.957,19.817-14.282S1273.779,306.741,1273.779,306.741Z" transform="translate(-1194.655 -299.783)" fill="#74b570"/>
          <path id="Rectángulo_44748" data-name="Rectángulo 44748" d="M12.173,0h0A12.173,12.173,0,0,1,24.346,12.173V24.415a0,0,0,0,1,0,0H0a0,0,0,0,1,0,0V12.173A12.173,12.173,0,0,1,12.173,0Z" transform="translate(45.501 105.622) rotate(-180)" fill="#75a1de"/>
          <rect id="Rectángulo_44749" data-name="Rectángulo 44749" width="24.346" height="1.714" transform="translate(21.154 84.004)" fill="#fff"/>
          <rect id="Rectángulo_44750" data-name="Rectángulo 44750" width="24.346" height="1.008" transform="translate(21.154 87.129)" fill="#fff"/>
        </g>
        <g id="Grupo_151755" data-name="Grupo 151755" transform="translate(848.41 509.645)">
          <g id="Grupo_151754" data-name="Grupo 151754">
            <rect id="Rectángulo_44751" data-name="Rectángulo 44751" width="10.252" height="9.226" rx="4.613" transform="translate(37.279)" fill="#0ab1cb"/>
            <rect id="Rectángulo_44752" data-name="Rectángulo 44752" width="10.252" height="9.226" rx="4.613" transform="translate(18.639)" fill="#0ab1cb"/>
            <rect id="Rectángulo_44753" data-name="Rectángulo 44753" width="10.252" height="9.226" rx="4.613" fill="#0ab1cb"/>
          </g>
        </g>
        <g id="Grupo_151757" data-name="Grupo 151757" transform="translate(1367.854 389.466)">
          <g id="Grupo_151756" data-name="Grupo 151756">
            <path id="Rectángulo_44754" data-name="Rectángulo 44754" d="M3.2,0h0A3.2,3.2,0,0,1,6.4,3.2v.711a3.2,3.2,0,0,1-3.2,3.2h0A3.2,3.2,0,0,1,0,3.911V3.2A3.2,3.2,0,0,1,3.2,0Z" fill="#0ab1cb"/>
            <path id="Rectángulo_44755" data-name="Rectángulo 44755" d="M3.2,0h0A3.2,3.2,0,0,1,6.4,3.2v.711a3.2,3.2,0,0,1-3.2,3.2h0A3.2,3.2,0,0,1,0,3.911V3.2A3.2,3.2,0,0,1,3.2,0Z" transform="translate(0 12.928)" fill="#0ab1cb"/>
            <path id="Rectángulo_44756" data-name="Rectángulo 44756" d="M3.2,0h0A3.2,3.2,0,0,1,6.4,3.2v.711a3.2,3.2,0,0,1-3.2,3.2h0A3.2,3.2,0,0,1,0,3.911V3.2A3.2,3.2,0,0,1,3.2,0Z" transform="translate(0 25.856)" fill="#0ab1cb"/>
          </g>
        </g>
      </g>
    </g>
    <g id="Grupo_154652" data-name="Grupo 154652" transform="translate(1013.829 377.538) rotate(39)" opacity="0.06">
      <g id="Grupo_154646" data-name="Grupo 154646" transform="translate(204.163 -228.331)">
        <path id="Trazado_204397-2" data-name="Trazado 204397" d="M939,99.79a15.741,15.741,0,0,0,.1-1.752c0-.312-.01-.623-.029-.931l-2.895-.937a12.719,12.719,0,0,0-1.025-3.469l1.92-2.362a15.641,15.641,0,0,0-1.521-2.21l-2.9.945a12.857,12.857,0,0,0-2.866-2.2l.165-3.042a15.494,15.494,0,0,0-2.527-.9L925.634,85.4a12.883,12.883,0,0,0-3.614-.095l-1.655-2.558a15.461,15.461,0,0,0-2.572.76l0,3.046a12.84,12.84,0,0,0-2.979,2.049l-2.841-1.1a15.67,15.67,0,0,0-1.636,2.127l1.793,2.461a12.714,12.714,0,0,0-1.208,3.409l-2.94.782a15.737,15.737,0,0,0-.1,1.752c0,.313.01.623.029.931l2.895.937a12.716,12.716,0,0,0,1.025,3.469l-1.92,2.362a15.641,15.641,0,0,0,1.521,2.21l2.9-.945a12.864,12.864,0,0,0,2.866,2.2l-.165,3.042a15.5,15.5,0,0,0,2.527.9l1.788-2.467a12.873,12.873,0,0,0,3.614.095l1.655,2.558a15.477,15.477,0,0,0,2.571-.76l0-3.046a12.847,12.847,0,0,0,2.979-2.049l2.84,1.1a15.653,15.653,0,0,0,1.636-2.127l-1.793-2.461a12.723,12.723,0,0,0,1.208-3.409Zm-15.505,4.368a6.12,6.12,0,1,1,6.12-6.12A6.12,6.12,0,0,1,923.491,104.159Z" transform="translate(-907.887 -82.748)" fill="#e6f1ff"/>
        <g id="Grupo_151711-2" data-name="Grupo 151711" transform="translate(23.723 11.619)">
          <g id="Grupo_151710-2" data-name="Grupo 151710">
            <path id="Trazado_204398-2" data-name="Trazado 204398" d="M1012.753,144.65a.229.229,0,0,1-.176-.375,10.352,10.352,0,0,0,1.824-9.973.229.229,0,0,1,.432-.149,10.81,10.81,0,0,1-1.905,10.415A.228.228,0,0,1,1012.753,144.65Z" transform="translate(-1012.524 -133.999)" fill="#e6f1ff"/>
          </g>
        </g>
        <g id="Grupo_151713-2" data-name="Grupo 151713" transform="translate(19.199 5.127)">
          <g id="Grupo_151712-2" data-name="Grupo 151712">
            <path id="Trazado_204399-2" data-name="Trazado 204399" d="M996.438,108.06a.228.228,0,0,1-.157-.062,10.272,10.272,0,0,0-3.559-2.193.229.229,0,1,1,.156-.43,10.731,10.731,0,0,1,3.716,2.29.229.229,0,0,1-.157.4Z" transform="translate(-992.572 -105.361)" fill="#e6f1ff"/>
          </g>
        </g>
        <g id="Grupo_151715-2" data-name="Grupo 151715" transform="translate(13.002 4.496)">
          <g id="Grupo_151714-2" data-name="Grupo 151714">
            <path id="Trazado_204400-2" data-name="Trazado 204400" d="M965.463,103.358a.229.229,0,0,1-.056-.45,10.828,10.828,0,0,1,2.65-.328.229.229,0,0,1,0,.458,10.384,10.384,0,0,0-2.538.314A.229.229,0,0,1,965.463,103.358Z" transform="translate(-965.235 -102.58)" fill="#e6f1ff"/>
          </g>
        </g>
      </g>
      <g id="Grupo_154647" data-name="Grupo 154647" transform="matrix(0.946, 0.326, -0.326, 0.946, 192.331, -212.544)">
        <path id="Trazado_204401-2" data-name="Trazado 204401" d="M21.548,11.8a10.883,10.883,0,0,0,.068-1.213c0-.217-.007-.431-.02-.645L19.591,9.3a8.81,8.81,0,0,0-.71-2.4l1.33-1.636a10.837,10.837,0,0,0-1.053-1.531l-2.005.654a8.911,8.911,0,0,0-1.985-1.526L15.281.749A10.732,10.732,0,0,0,13.53.129L12.292,1.838a8.92,8.92,0,0,0-2.5-.066L8.642,0A10.735,10.735,0,0,0,6.861.526l0,2.11A8.889,8.889,0,0,0,4.8,4.056L2.833,3.3A10.862,10.862,0,0,0,1.7,4.77l1.242,1.7A8.813,8.813,0,0,0,2.1,8.835L.068,9.377A10.936,10.936,0,0,0,0,10.591c0,.217.007.431.02.645l2.005.649a8.808,8.808,0,0,0,.71,2.4L1.405,15.923a10.838,10.838,0,0,0,1.053,1.531L4.464,16.8a8.908,8.908,0,0,0,1.985,1.526l-.114,2.107a10.719,10.719,0,0,0,1.751.621l1.238-1.709a8.929,8.929,0,0,0,2.5.066l1.146,1.772a10.734,10.734,0,0,0,1.781-.526l0-2.11a8.885,8.885,0,0,0,2.063-1.419l1.967.759a10.844,10.844,0,0,0,1.133-1.473l-1.241-1.7a8.812,8.812,0,0,0,.837-2.361ZM10.808,14.83a4.239,4.239,0,1,1,4.239-4.239A4.239,4.239,0,0,1,10.808,14.83Z" transform="translate(0 0)" fill="#e6f1ff"/>
        <g id="Grupo_151718-2" data-name="Grupo 151718" transform="translate(16.361 7.978)">
          <g id="Grupo_151717-2" data-name="Grupo 151717" transform="translate(0 0)">
            <path id="Trazado_204402-2" data-name="Trazado 204402" d="M.229,7.518a.229.229,0,0,1-.176-.375,7.1,7.1,0,0,0,1.636-4.53A7.077,7.077,0,0,0,1.3.3.229.229,0,1,1,1.737.154a7.538,7.538,0,0,1,.409,2.459A7.557,7.557,0,0,1,.4,7.436.229.229,0,0,1,.229,7.518Z" fill="#e6f1ff"/>
          </g>
        </g>
        <g id="Grupo_151720-2" data-name="Grupo 151720" transform="translate(13.228 3.481)">
          <g id="Grupo_151719-2" data-name="Grupo 151719" transform="translate(0 0)">
            <path id="Trazado_204403-2" data-name="Trazado 204403" d="M2.748,2.01a.227.227,0,0,1-.157-.062A7.051,7.051,0,0,0,.151.444.229.229,0,1,1,.307.014a7.506,7.506,0,0,1,2.6,1.6.229.229,0,0,1-.157.4Z" fill="#e6f1ff"/>
          </g>
        </g>
        <g id="Grupo_151722-2" data-name="Grupo 151722" transform="translate(8.935 3.044)">
          <g id="Grupo_151721-2" data-name="Grupo 151721" transform="translate(0 0)">
            <path id="Trazado_204404-2" data-name="Trazado 204404" d="M.229.68A.229.229,0,0,1,.173.229,7.572,7.572,0,0,1,2.026,0a.229.229,0,0,1,0,.458A7.116,7.116,0,0,0,.285.673.239.239,0,0,1,.229.68Z" fill="#e6f1ff"/>
          </g>
        </g>
      </g>
      <path id="Trazado_218042" data-name="Trazado 218042" d="M1036.955,182.693c0-.118,0-.236-.01-.353l1.5-1.206a7.992,7.992,0,0,0-.546-1.726l-1.94-.147a6.452,6.452,0,0,0-1.679-1.782l-.006-1.933a8.012,8.012,0,0,0-1.72-.664l-1.326,1.427a6.443,6.443,0,0,0-2.384.187l-1.52-1.2a8.064,8.064,0,0,0-1.608.933l.287,1.916a6.426,6.426,0,0,0-1.354,1.976l-1.892.438a8.063,8.063,0,0,0-.279,1.823l1.666.963a6.375,6.375,0,0,0,.713,2.354l-.834,1.747a8.107,8.107,0,0,0,1.226,1.334l1.786-.7a6.381,6.381,0,0,0,2.355.935l.842,1.733c.1,0,.2.006.3.006a8.107,8.107,0,0,0,1.477-.135l.568-1.836a6.407,6.407,0,0,0,2.216-1.287l1.877.422a8.076,8.076,0,0,0,1-1.477l-1.088-1.6A6.413,6.413,0,0,0,1036.955,182.693Zm-6.491,2.829a2.7,2.7,0,1,1,2.7-2.7A2.7,2.7,0,0,1,1030.464,185.521Z" transform="translate(-792.337 -382.326)" fill="#e6f1ff"/>
    </g>
  </g>
</svg>
