<svg xmlns="http://www.w3.org/2000/svg" width="70" height="70" viewBox="0 0 70 70">
  <g id="Grupo_156430" data-name="Grupo 156430" transform="translate(-800.839 -3596)">
    <circle id="Elipse_5553" data-name="Elipse 5553" cx="35" cy="35" r="35" transform="translate(800.839 3596)" fill="#ff7d00"/>
    <path id="Trazado_220911" data-name="Trazado 220911" d="M-8.086,0V-21.328h6.87a10.106,10.106,0,0,1,5.083,1.282A9.009,9.009,0,0,1,7.39-16.428a10.924,10.924,0,0,1,1.282,5.237v.981A10.987,10.987,0,0,1,7.434-4.958,9.048,9.048,0,0,1,3.948-1.326,9.884,9.884,0,0,1-1.069,0Zm5.142-17.358v13.4h1.787a4,4,0,0,0,3.4-1.575,7.717,7.717,0,0,0,1.187-4.68v-.923a7.653,7.653,0,0,0-1.187-4.658,4.069,4.069,0,0,0-3.457-1.567Z" transform="translate(835.839 3642)" fill="#12263f"/>
  </g>
</svg>
