<svg xmlns="http://www.w3.org/2000/svg" xmlns:xlink="http://www.w3.org/1999/xlink" width="309.929" height="302.323" viewBox="0 0 309.929 302.323">
  <defs>
    <linearGradient id="linear-gradient" x1="1.13" y1="1.295" x2="0.236" y2="0.19" gradientUnits="objectBoundingBox">
      <stop offset="0" stop-color="#dae3fe"/>
      <stop offset="1" stop-color="#e9effd"/>
    </linearGradient>
    <linearGradient id="linear-gradient-2" x1="0.936" y1="-0.078" x2="-0.19" y2="1.416" gradientUnits="objectBoundingBox">
      <stop offset="0" stop-color="#4f52ff"/>
      <stop offset="1" stop-color="#4042e2"/>
    </linearGradient>
    <linearGradient id="linear-gradient-3" x1="1.214" y1="-0.449" x2="-0.632" y2="2.003" xlink:href="#linear-gradient-2"/>
    <linearGradient id="linear-gradient-4" x1="-63.915" y1="2.654" x2="-71.915" y2="3.512" gradientUnits="objectBoundingBox">
      <stop offset="0" stop-color="#09005d"/>
      <stop offset="1" stop-color="#1a0f91"/>
    </linearGradient>
    <linearGradient id="linear-gradient-5" x1="-6.881" y1="10.137" x2="-7.203" y2="13.584" xlink:href="#linear-gradient-4"/>
    <linearGradient id="linear-gradient-6" x1="74.698" y1="-1.308" x2="71.861" y2="5.08" xlink:href="#linear-gradient-4"/>
    <linearGradient id="linear-gradient-7" x1="294.732" y1="-1.081" x2="295.739" y2="-1.081" gradientUnits="objectBoundingBox">
      <stop offset="0" stop-color="#febbba"/>
      <stop offset="1" stop-color="#ff928e"/>
    </linearGradient>
    <linearGradient id="linear-gradient-8" x1="94.278" y1="-0.073" x2="91.261" y2="0.782" xlink:href="#linear-gradient-4"/>
    <linearGradient id="linear-gradient-9" x1="185.543" y1="-3.175" x2="178.523" y2="4.39" xlink:href="#linear-gradient-4"/>
    <linearGradient id="linear-gradient-10" x1="343.594" y1="-0.682" x2="344.608" y2="-0.682" xlink:href="#linear-gradient-7"/>
    <linearGradient id="linear-gradient-11" x1="63.163" y1="-0.139" x2="61.145" y2="0.704" xlink:href="#linear-gradient-4"/>
    <linearGradient id="linear-gradient-12" x1="57.231" y1="0.231" x2="58.231" y2="0.231" xlink:href="#linear-gradient-7"/>
    <linearGradient id="linear-gradient-13" x1="-70.452" y1="1.023" x2="-68.471" y2="3.707" xlink:href="#linear-gradient-7"/>
    <linearGradient id="linear-gradient-14" x1="409.415" y1="-0.657" x2="411.416" y2="-2.437" xlink:href="#linear-gradient-7"/>
    <linearGradient id="linear-gradient-15" x1="45.312" y1="0.037" x2="46.314" y2="0.037" xlink:href="#linear-gradient-7"/>
    <linearGradient id="linear-gradient-16" x1="-0.103" y1="1.691" x2="0.844" y2="-0.028" xlink:href="#linear-gradient-7"/>
    <linearGradient id="linear-gradient-17" x1="33.139" y1="46.635" x2="32.815" y2="45.569" xlink:href="#linear-gradient-7"/>
    <linearGradient id="linear-gradient-18" x1="25.118" y1="34.692" x2="25.322" y2="35.875" xlink:href="#linear-gradient-4"/>
    <linearGradient id="linear-gradient-19" x1="106.616" y1="221.975" x2="105.67" y2="217.362" xlink:href="#linear-gradient-7"/>
    <linearGradient id="linear-gradient-20" x1="41.57" y1="-0.062" x2="42.084" y2="2.428" xlink:href="#linear-gradient-4"/>
    <linearGradient id="linear-gradient-21" x1="141.633" y1="0.5" x2="142.633" y2="0.5" xlink:href="#linear-gradient-7"/>
    <linearGradient id="linear-gradient-22" x1="9.972" y1="-0.407" x2="8.878" y2="0.795" xlink:href="#linear-gradient-7"/>
    <linearGradient id="linear-gradient-23" x1="-24.57" y1="1.893" x2="-25.182" y2="2.513" xlink:href="#linear-gradient-4"/>
    <linearGradient id="linear-gradient-24" x1="-115.067" y1="7.711" x2="-114.842" y2="6.801" xlink:href="#linear-gradient-7"/>
    <linearGradient id="linear-gradient-25" x1="-66.571" y1="5.644" x2="-65.362" y2="6.807" xlink:href="#linear-gradient-7"/>
    <linearGradient id="linear-gradient-26" x1="-76.739" y1="5.01" x2="-78.62" y2="6.915" xlink:href="#linear-gradient-4"/>
    <linearGradient id="linear-gradient-27" x1="-187.299" y1="18.446" x2="-183.923" y2="22.765" xlink:href="#linear-gradient-7"/>
    <linearGradient id="linear-gradient-28" x1="7.286" y1="1.272" x2="8.687" y2="0.135" xlink:href="#linear-gradient-7"/>
    <linearGradient id="linear-gradient-29" x1="16.645" y1="0.43" x2="17.64" y2="0.43" xlink:href="#linear-gradient-4"/>
    <linearGradient id="linear-gradient-30" x1="15.83" y1="0.377" x2="11.933" y2="0.708" xlink:href="#linear-gradient-7"/>
    <linearGradient id="linear-gradient-31" x1="15.631" y1="0.421" x2="16.624" y2="0.421" xlink:href="#linear-gradient-4"/>
    <linearGradient id="linear-gradient-32" x1="1.968" y1="-0.231" x2="0.935" y2="0.314" xlink:href="#linear-gradient-4"/>
    <linearGradient id="linear-gradient-33" x1="8.911" y1="0.789" x2="11.881" y2="-1.387" xlink:href="#linear-gradient-7"/>
    <linearGradient id="linear-gradient-34" x1="-9.604" y1="-1.469" x2="-10.014" y2="-0.35" xlink:href="#linear-gradient-4"/>
    <linearGradient id="linear-gradient-35" x1="-30.264" y1="-0.93" x2="-29.136" y2="-0.93" xlink:href="#linear-gradient-7"/>
    <linearGradient id="linear-gradient-36" x1="-4.436" y1="0.383" x2="-3.744" y2="-0.528" xlink:href="#linear-gradient-4"/>
    <linearGradient id="linear-gradient-37" x1="-8.486" y1="-1.105" x2="-9.728" y2="2.367" xlink:href="#linear-gradient-4"/>
    <linearGradient id="linear-gradient-38" x1="-8.81" y1="-1.332" x2="-7.877" y2="-1.332" xlink:href="#linear-gradient-2"/>
    <linearGradient id="linear-gradient-39" x1="-26.908" y1="-1.077" x2="-26.006" y2="-1.077" xlink:href="#linear-gradient-7"/>
    <linearGradient id="linear-gradient-40" x1="-3.986" y1="0.705" x2="-3.955" y2="-0.272" xlink:href="#linear-gradient-4"/>
    <linearGradient id="linear-gradient-41" x1="-6.41" y1="0.002" x2="-5.417" y2="0.002" xlink:href="#linear-gradient-7"/>
    <linearGradient id="linear-gradient-42" x1="-15.914" y1="-0.516" x2="-14.795" y2="-0.516" xlink:href="#linear-gradient-7"/>
    <linearGradient id="linear-gradient-43" x1="-4.698" y1="0.781" x2="-5.941" y2="7.598" xlink:href="#linear-gradient-7"/>
    <linearGradient id="linear-gradient-44" x1="-9.537" y1="-10.969" x2="-10.634" y2="-9.655" xlink:href="#linear-gradient-7"/>
    <linearGradient id="linear-gradient-45" x1="-11.662" y1="-10.689" x2="-10.387" y2="-10.689" xlink:href="#linear-gradient-4"/>
    <linearGradient id="linear-gradient-46" x1="-36.21" y1="-39.653" x2="-33.79" y2="-42.329" xlink:href="#linear-gradient-7"/>
    <linearGradient id="linear-gradient-47" x1="31.102" y1="22.046" x2="30.362" y2="24.483" xlink:href="#linear-gradient-4"/>
    <linearGradient id="linear-gradient-48" x1="23.832" y1="0.134" x2="23.432" y2="0.8" xlink:href="#linear-gradient-4"/>
  </defs>
  <g id="Grupo_152101" data-name="Grupo 152101" transform="translate(-141.413 -305.622)">
    <path id="Trazado_205026" data-name="Trazado 205026" d="M697.67,693.342A99.806,99.806,0,0,1,682.4,706.2c-49.814,35.742-108.758,25.324-121.285,22.779-18.5-3.757-54.256-11.02-80.108-41.421-39.112-45.995-33.022-118.458-2.684-166.293,5.549-8.75,34.862-57.313,94.44-65.1,36.056-4.713,78.086,4.793,108.523,30.293C745.176,539.983,740.628,648.117,697.67,693.342Z" transform="translate(-281.131 -134.516)" fill="url(#linear-gradient)"/>
    <g id="Grupo_152072" data-name="Grupo 152072" transform="translate(141.413 305.622)">
      <g id="Grupo_152070" data-name="Grupo 152070" transform="translate(0 0)">
        <circle id="Elipse_5430" data-name="Elipse 5430" cx="106.888" cy="106.888" r="106.888" transform="translate(0 151.162) rotate(-45)" fill="#15616c"/>
        <g id="Grupo_152067" data-name="Grupo 152067" transform="translate(55.368 55.368)">
          <circle id="Elipse_5431" data-name="Elipse 5431" cx="91.224" cy="91.224" r="91.224" transform="translate(4.569 4.569)" fill="url(#linear-gradient-2)"/>
          <path id="Trazado_205027" data-name="Trazado 205027" d="M793.693,1053.692A95.794,95.794,0,1,1,889.487,957.9,95.9,95.9,0,0,1,793.693,1053.692Zm0-187.018A91.224,91.224,0,1,0,884.917,957.9,91.327,91.327,0,0,0,793.693,866.674Z" transform="translate(-697.9 -862.105)" fill="#fff"/>
        </g>
        <g id="Grupo_152068" data-name="Grupo 152068" transform="translate(72.511 72.511)">
          <circle id="Elipse_5432" data-name="Elipse 5432" cx="55.615" cy="55.615" r="55.615" transform="translate(0 78.651) rotate(-45)" fill="url(#linear-gradient-3)"/>
          <path id="Trazado_205028" data-name="Trazado 205028" d="M1115.983,1340.38a60.184,60.184,0,1,1,60.184-60.184A60.253,60.253,0,0,1,1115.983,1340.38Zm0-111.23a51.046,51.046,0,1,0,51.046,51.045A51.1,51.1,0,0,0,1115.983,1229.15Z" transform="translate(-1037.332 -1201.544)" fill="#fff"/>
        </g>
        <g id="Grupo_152069" data-name="Grupo 152069" transform="translate(120.69 120.69)">
          <circle id="Elipse_5433" data-name="Elipse 5433" cx="21.547" cy="21.547" r="21.547" transform="translate(0 30.472) rotate(-45)" fill="#16626e"/>
          <path id="Trazado_205029" data-name="Trazado 205029" d="M1424.32,1614.642a26.116,26.116,0,1,1,26.116-26.116A26.145,26.145,0,0,1,1424.32,1614.642Zm0-43.094a16.978,16.978,0,1,0,16.978,16.978A17,17,0,0,0,1424.32,1571.548Z" transform="translate(-1393.848 -1558.054)" fill="#fff"/>
        </g>
      </g>
      <g id="Grupo_152071" data-name="Grupo 152071" transform="translate(150.718 37.935)">
        <rect id="Rectángulo_44783" data-name="Rectángulo 44783" width="3.21" height="121.537" transform="matrix(-0.707, -0.707, 0.707, -0.707, 18.764, 99.722)" fill="url(#linear-gradient-4)"/>
        <path id="Trazado_205030" data-name="Trazado 205030" d="M1674.329,1609.681c1.3-1.3,7.44,4.836,6.138,6.138l-22.766,17.9a.9.9,0,0,1-1.27-1.27Z" transform="translate(-1656.228 -1517.705)" fill="url(#linear-gradient-5)"/>
        <path id="Trazado_205031" data-name="Trazado 205031" d="M2490.056,825.905l11.562,1.149-15.872,15.872a24.538,24.538,0,0,1-19.777,7.066h0Z" transform="translate(-2385.402 -812.074)" fill="#91b3fa"/>
        <path id="Trazado_205032" data-name="Trazado 205032" d="M2466.156,698.457l-1.149-11.562-15.872,15.872a24.536,24.536,0,0,0-7.067,19.777h0Z" transform="translate(-2363.772 -686.895)" fill="#91b3fa"/>
      </g>
    </g>
    <g id="Grupo_152083" data-name="Grupo 152083" transform="translate(179.509 320.714)">
      <g id="Grupo_152077" data-name="Grupo 152077" transform="translate(0 7.537)">
        <g id="Grupo_152073" data-name="Grupo 152073" opacity="0.3">
          <path id="Trazado_205033" data-name="Trazado 205033" d="M589.23,543.92a.827.827,0,0,1-1.17,0c-.628-.628-1.291-1.237-1.974-1.812a.827.827,0,0,1-.109-1.153l.01-.013a.827.827,0,0,1,1.166-.1c.718.605,1.417,1.247,2.077,1.908a.827.827,0,0,1,.058,1.1A.809.809,0,0,1,589.23,543.92Zm-6.655-4.383c-.754-.476-1.535-.925-2.323-1.334a.827.827,0,1,1,.762-1.468c.829.43,1.651.9,2.445,1.4a.827.827,0,0,1,.257,1.141.857.857,0,0,1-.057.08A.827.827,0,0,1,582.575,539.537Zm-6.314-3.064c-.838-.3-1.7-.559-2.561-.781a.827.827,0,0,1,.414-1.6c.907.235,1.814.512,2.7.823a.827.827,0,1,1-.55,1.56ZM569.42,534.9c-.885-.1-1.784-.165-2.673-.19a.827.827,0,1,1,.046-1.654c.936.026,1.883.094,2.814.2a.827.827,0,0,1-.187,1.643Zm-7.021-.011c-.883.1-1.774.235-2.649.407a.827.827,0,1,1-.32-1.623c.92-.182,1.858-.326,2.787-.428a.827.827,0,0,1,.182,1.644Zm-6.848,1.543c-.841.291-1.679.621-2.492.983a.827.827,0,0,1-.672-1.511c.856-.38,1.738-.728,2.623-1.035a.827.827,0,0,1,.541,1.563Zm-21.1,22.32a.827.827,0,0,1-.592-1.009c.236-.906.515-1.813.828-2.7a.827.827,0,1,1,1.559.553c-.3.839-.562,1.7-.786,2.561a.826.826,0,0,1-1.009.592Zm14.763-19.3c-.754.47-1.5.979-2.209,1.513a.827.827,0,1,1-.992-1.323c.749-.562,1.532-1.1,2.326-1.593a.827.827,0,1,1,.875,1.4ZM536.872,551.96a.827.827,0,0,1-.351-1.116c.433-.83.907-1.651,1.409-2.443a.827.827,0,1,1,1.4.886c-.477.752-.928,1.533-1.339,2.322a.827.827,0,0,1-1.116.351Zm6.849-8.15c-.63.627-1.241,1.289-1.816,1.969a.827.827,0,0,1-1.274-1.055l.011-.013c.605-.716,1.249-1.413,1.911-2.073a.827.827,0,0,1,1.227,1.106C543.761,543.767,543.741,543.789,543.721,543.811Z" transform="translate(-532.886 -533.056)" fill="#91b3fa"/>
          <path id="Trazado_205034" data-name="Trazado 205034" d="M525.768,821.973a.822.822,0,0,0,.182-.459c.031-.425.072-.857.121-1.283a.827.827,0,1,0-1.643-.188c-.051.448-.094.9-.128,1.35a.827.827,0,0,0,1.468.581Z" transform="translate(-524.298 -790.828)" fill="#91b3fa"/>
        </g>
        <g id="Grupo_152074" data-name="Grupo 152074" transform="translate(7.249 33.103)" opacity="0.3">
          <path id="Trazado_205035" data-name="Trazado 205035" d="M599.491,1064.762a.827.827,0,0,0-.027-1.072c-.284-.317-.567-.646-.84-.977a.827.827,0,0,0-1.276,1.052c.287.348.585.695.885,1.029a.827.827,0,0,0,1.168.064A.807.807,0,0,0,599.491,1064.762Z" transform="translate(-597.158 -1042.847)" fill="#91b3fa"/>
          <path id="Trazado_205036" data-name="Trazado 205036" d="M683.724,939.3a.827.827,0,1,1-1.232-1.1c.58-.648,1.142-1.331,1.676-2.036a.827.827,0,0,1,1.319,1q-.347.459-.707.9C684.438,938.479,684.083,938.9,683.724,939.3Zm3.106-5.6a.827.827,0,0,1-.316-1.126c.429-.765.831-1.555,1.194-2.351a.827.827,0,1,1,1.5.686c-.382.838-.805,1.67-1.257,2.474a.8.8,0,0,1-.079.117A.827.827,0,0,1,686.829,933.7Zm-6.335,8.74c-.7.6-1.439,1.169-2.19,1.7a.827.827,0,1,1-.96-1.347c.714-.508,1.414-1.052,2.08-1.618a.827.827,0,1,1,1.07,1.261Zm9.275-15.2a.827.827,0,0,1-.555-1.029c.251-.839.469-1.7.648-2.555a.827.827,0,0,1,1.619.338c-.189.9-.418,1.807-.682,2.69a.826.826,0,0,1-1.029.555Zm-15.3,19.254c-.815.426-1.66.823-2.51,1.18a.827.827,0,1,1-.64-1.525c.808-.339,1.611-.716,2.384-1.121a.827.827,0,1,1,.766,1.466Zm-6.773,2.637c-.891.238-1.8.441-2.707.6a.827.827,0,1,1-.293-1.628c.861-.155,1.727-.348,2.573-.574a.827.827,0,1,1,.427,1.6Zm-7.187,1.1c-.922.039-1.855.039-2.775,0a.827.827,0,1,1,.069-1.653c.874.036,1.761.036,2.637,0a.827.827,0,1,1,.069,1.653Zm-7.256-.5c-.908-.164-1.819-.369-2.709-.608a.827.827,0,1,1,.431-1.6c.844.228,1.71.422,2.572.578a.827.827,0,1,1-.294,1.628Zm-6.973-2.079c-.847-.359-1.69-.759-2.506-1.189a.827.827,0,1,1,.771-1.463c.775.409,1.576.789,2.38,1.13a.827.827,0,1,1-.646,1.523Zm-6.34-3.556c-.552-.394-1.1-.81-1.624-1.236q-.286-.231-.565-.468a.817.817,0,0,1-.1-1.165.827.827,0,0,1,1.166-.1q.265.225.537.445c.5.405,1.019.8,1.544,1.175a.827.827,0,0,1,.192,1.154c-.01.014-.02.028-.031.041A.827.827,0,0,1,639.935,944.1Z" transform="translate(-633.441 -917.308)" fill="#91b3fa"/>
          <path id="Trazado_205037" data-name="Trazado 205037" d="M1171.572,868.433a.824.824,0,0,0,.182-.464c.031-.447.052-.9.065-1.355a.827.827,0,0,0-1.653-.045c-.012.43-.033.863-.062,1.287a.827.827,0,0,0,1.468.577Z" transform="translate(-1113.096 -865.765)" fill="#91b3fa"/>
        </g>
        <g id="Grupo_152076" data-name="Grupo 152076" transform="translate(7.897 8.039)">
          <path id="Trazado_205038" data-name="Trazado 205038" d="M652.191,630.885a.387.387,0,0,0-.329-.3l-4.667-.6a20.5,20.5,0,0,0-3.735-5.49l1.155-4.557a.387.387,0,0,0-.163-.418l-4.719-3.094a.387.387,0,0,0-.448.017l-3.719,2.877a20.5,20.5,0,0,0-6.524-1.236l-2.407-4.042a.387.387,0,0,0-.411-.181l-5.525,1.149a.387.387,0,0,0-.3.33l-.6,4.667a20.482,20.482,0,0,0-5.49,3.735l-4.558-1.156a.387.387,0,0,0-.418.163l-3.094,4.719a.386.386,0,0,0,.018.448l2.877,3.719a20.489,20.489,0,0,0-1.236,6.524l-4.042,2.407a.387.387,0,0,0-.181.411l1.149,5.525a.387.387,0,0,0,.329.3l4.667.6a20.5,20.5,0,0,0,3.735,5.49l-1.155,4.557a.387.387,0,0,0,.163.418l4.719,3.094a.386.386,0,0,0,.448-.018l3.719-2.877a20.488,20.488,0,0,0,6.524,1.236l2.407,4.042a.386.386,0,0,0,.411.181l5.525-1.149a.387.387,0,0,0,.3-.33l.6-4.667a20.5,20.5,0,0,0,5.49-3.735l4.557,1.155a.387.387,0,0,0,.418-.163l3.094-4.719a.386.386,0,0,0-.017-.448l-2.877-3.719a20.5,20.5,0,0,0,1.236-6.523l4.042-2.407a.387.387,0,0,0,.181-.411Z" transform="translate(-603.666 -613.852)" fill="#e6f1ff"/>
          <g id="Grupo_152075" data-name="Grupo 152075" transform="translate(19.168 19.171)">
            <path id="Trazado_205039" data-name="Trazado 205039" d="M805.83,816.381a5.668,5.668,0,1,1,.571-.607A5.679,5.679,0,0,1,805.83,816.381Zm-8.183-4.36a4.349,4.349,0,1,0,1.4-3.019,4.39,4.39,0,0,0-.442.47A4.317,4.317,0,0,0,797.647,812.021Z" transform="translate(-796.32 -806.535)" fill="#bdd0fb"/>
          </g>
          <path id="Trazado_205040" data-name="Trazado 205040" d="M736.68,746.276a14.208,14.208,0,0,0,.845-1.158h0q.125-.19.243-.384a14.029,14.029,0,0,0,1.009-1.993l.012-.028.032-.08c.021-.052.041-.1.061-.156a.331.331,0,1,0-.617-.238,13.3,13.3,0,0,1-12.6,8.513,13.2,13.2,0,0,1-7.093-2.17,13.394,13.394,0,0,1-1.1-.806,13.287,13.287,0,1,1,20.346-16.1.331.331,0,0,0,.6-.288,13.949,13.949,0,1,0-21.36,16.9,14.33,14.33,0,0,0,1.159.846,13.951,13.951,0,0,0,18.467-2.859Z" transform="translate(-701.139 -712.616)" fill="#bdd0fb"/>
        </g>
      </g>
      <g id="Grupo_152082" data-name="Grupo 152082" transform="translate(53.595 0)">
        <g id="Grupo_152078" data-name="Grupo 152078" opacity="0.3">
          <path id="Trazado_205041" data-name="Trazado 205041" d="M1424.912,542.378a.51.51,0,0,0,.023-.612c-.246-.357-.507-.711-.774-1.053a.511.511,0,0,0-.8.63c.255.326.5.663.738,1a.51.51,0,0,0,.817.031Z" transform="translate(-1387.401 -532.238)" fill="#91b3fa"/>
          <path id="Trazado_205042" data-name="Trazado 205042" d="M1097.919,464.468a.511.511,0,0,1-.723,0,21.241,21.241,0,0,0-1.594-1.433q-.175-.142-.354-.281a.511.511,0,0,1-.09-.717.529.529,0,0,1,.717-.09q.187.146.37.294a22.16,22.16,0,0,1,1.671,1.5.511.511,0,0,1,.037.683Zm-4.813-3.175a21.147,21.147,0,0,0-2.3-1.191.511.511,0,1,1,.412-.935,22.14,22.14,0,0,1,2.415,1.248.511.511,0,0,1,.177.7.5.5,0,0,1-.042.06A.511.511,0,0,1,1093.106,461.293Zm-4.738-2.088a20.937,20.937,0,0,0-2.527-.588.511.511,0,0,1,.17-1.008,22.048,22.048,0,0,1,2.65.617.511.511,0,1,1-.293.979Zm-5.107-.86a21.1,21.1,0,0,0-2.593.048.511.511,0,0,1-.082-1.018,22.17,22.17,0,0,1,2.719-.05.511.511,0,0,1-.044,1.021Zm-5.162.413a21.284,21.284,0,0,0-2.5.676.511.511,0,0,1-.326-.968,22.365,22.365,0,0,1,2.624-.709.511.511,0,0,1,.206,1Zm-4.905,1.654a20.939,20.939,0,0,0-2.261,1.265.511.511,0,0,1-.553-.859,22.005,22.005,0,0,1,2.372-1.327.511.511,0,0,1,.442.921Zm-4.35,2.8a21.028,21.028,0,0,0-1.883,1.783.511.511,0,0,1-.747-.7,22.163,22.163,0,0,1,1.974-1.87.511.511,0,0,1,.725.713A.5.5,0,0,1,1068.845,463.214Zm-5.62,6.174a.511.511,0,0,1-.2-.694,22.28,22.28,0,0,1,1.253-2c.068-.1.138-.2.208-.292a.511.511,0,1,1,.826.6c-.066.09-.131.182-.2.276a21.189,21.189,0,0,0-1.2,1.912.533.533,0,0,1-.05.075A.511.511,0,0,1,1063.225,469.388Z" transform="translate(-1062.962 -457.305)" fill="#91b3fa"/>
        </g>
        <g id="Grupo_152079" data-name="Grupo 152079" transform="translate(14.239 22.16)" opacity="0.3">
          <path id="Trazado_205043" data-name="Trazado 205043" d="M1228.147,729.2a22.279,22.279,0,0,1-1.832,1.948.511.511,0,1,1-.7-.744,21.168,21.168,0,0,0,1.747-1.858.511.511,0,0,1,.79.648Zm.879-2a.511.511,0,0,1-.151-.706,21.272,21.272,0,0,0,1.255-2.222.511.511,0,0,1,.919.448,22.4,22.4,0,0,1-1.316,2.329c-.01.016-.021.031-.033.045A.511.511,0,0,1,1229.025,727.195Zm-4.767,5.664a22.2,22.2,0,0,1-2.249,1.448.511.511,0,0,1-.5-.891,21.246,21.246,0,0,0,2.146-1.381.511.511,0,0,1,.6.824Zm7.165-10.3a.511.511,0,0,1-.317-.649,21.015,21.015,0,0,0,.682-2.459.511.511,0,1,1,1,.212,21.965,21.965,0,0,1-.715,2.579.505.505,0,0,1-.086.155A.511.511,0,0,1,1231.423,722.559ZM1219.6,735.47a22.259,22.259,0,0,1-2.531.864.511.511,0,0,1-.271-.985,20.993,20.993,0,0,0,2.414-.824.511.511,0,0,1,.388.945Zm-5.147,1.418a22.34,22.34,0,0,1-2.665.234.511.511,0,0,1-.027-1.021,21.325,21.325,0,0,0,2.542-.224.511.511,0,0,1,.15,1.011Zm-5.339.145a22.072,22.072,0,0,1-2.644-.412.511.511,0,1,1,.218-1,20.858,20.858,0,0,0,2.521.393.511.511,0,0,1-.1,1.018Z" transform="translate(-1206.069 -715.163)" fill="#91b3fa"/>
          <path id="Trazado_205044" data-name="Trazado 205044" d="M1469.254,682.13a.506.506,0,0,0,.112-.277c.038-.436.063-.874.075-1.3a.511.511,0,0,0-1.021-.028c-.011.41-.035.828-.071,1.244a.511.511,0,0,0,.906.365Z" transform="translate(-1442.251 -680.023)" fill="#91b3fa"/>
        </g>
        <g id="Grupo_152081" data-name="Grupo 152081" transform="translate(2.609 5.345)">
          <path id="Trazado_205045" data-name="Trazado 205045" d="M1121.659,522.423a.259.259,0,0,0-.22-.2l-3.123-.4a13.711,13.711,0,0,0-2.5-3.673l.773-3.05a.259.259,0,0,0-.109-.28l-3.158-2.07a.258.258,0,0,0-.3.012l-2.488,1.925a13.713,13.713,0,0,0-4.365-.827l-1.611-2.7a.259.259,0,0,0-.275-.121l-3.7.769a.258.258,0,0,0-.2.221l-.4,3.123a13.719,13.719,0,0,0-3.674,2.5l-3.049-.773a.259.259,0,0,0-.28.109l-2.071,3.158a.259.259,0,0,0,.012.3l1.925,2.489a13.7,13.7,0,0,0-.827,4.365l-2.705,1.611a.258.258,0,0,0-.121.275l.769,3.7a.259.259,0,0,0,.22.2l3.123.4a13.693,13.693,0,0,0,2.5,3.674l-.773,3.05a.259.259,0,0,0,.109.28l3.158,2.071a.259.259,0,0,0,.3-.012l2.489-1.925a13.714,13.714,0,0,0,4.365.827l1.611,2.7a.259.259,0,0,0,.275.121l3.7-.769a.258.258,0,0,0,.2-.22l.4-3.123a13.712,13.712,0,0,0,3.674-2.5l3.05.773a.259.259,0,0,0,.28-.109l2.07-3.158a.258.258,0,0,0-.012-.3l-1.925-2.488a13.719,13.719,0,0,0,.827-4.365l2.7-1.611a.259.259,0,0,0,.121-.275Z" transform="translate(-1089.188 -511.026)" fill="#e6f1ff"/>
          <g id="Grupo_152080" data-name="Grupo 152080" transform="translate(12.761 12.76)">
            <path id="Trazado_205046" data-name="Trazado 205046" d="M1223.917,645.983a3.853,3.853,0,1,1,.392-.417A3.921,3.921,0,0,1,1223.917,645.983Zm-4.707-.922a2.842,2.842,0,0,0,4.016.17h0a2.842,2.842,0,0,0-3.846-4.186,2.841,2.841,0,0,0-.17,4.016Z" transform="translate(-1217.441 -639.276)" fill="#bdd0fb"/>
          </g>
          <path id="Trazado_205047" data-name="Trazado 205047" d="M1175.805,597.137q.305-.377.577-.79a9.7,9.7,0,0,0,.9-1.74l.032-.082a.511.511,0,0,0-.154-.58.518.518,0,0,0-.139-.08.512.512,0,0,0-.66.293,8.623,8.623,0,0,1-.837,1.629h0l-.056.084a8.515,8.515,0,0,1-3.132,2.817,8.654,8.654,0,0,1-2.177.789l-.019,0-.057.012a8.545,8.545,0,0,1-6.467-1.228,8.679,8.679,0,0,1-.715-.522,8.6,8.6,0,0,1,10.147-13.864,8.658,8.658,0,0,1,.705.515,8.57,8.57,0,0,1,2.319,2.925.511.511,0,1,0,.92-.445,9.623,9.623,0,1,0-14.736,11.66,9.853,9.853,0,0,0,.8.584A9.637,9.637,0,0,0,1175.805,597.137Z" transform="translate(-1151.792 -574.439)" fill="#bdd0fb"/>
        </g>
      </g>
    </g>
    <g id="Grupo_152089" data-name="Grupo 152089" transform="translate(175.668 442.432)">
      <path id="Trazado_205048" data-name="Trazado 205048" d="M805.593,3164.231s-.575,3.085-.872,6.14a2.107,2.107,0,0,0,1.994,2.3c4.071.208,12.779.621,15.907.512a.686.686,0,0,0,.612-.933,1.536,1.536,0,0,0-.777-.835l-14.327-6.75Z" transform="translate(-772.97 -3016.621)" fill="url(#linear-gradient-6)"/>
      <path id="Trazado_205049" data-name="Trazado 205049" d="M809.255,3141.093l.4,3.7s2.509,1.2,4.243-.108l-1-4.128Z" transform="translate(-777.062 -2995.302)" fill="url(#linear-gradient-7)"/>
      <path id="Trazado_205050" data-name="Trazado 205050" d="M715.344,2446.8c-.2.963-1.476,48.147,3.367,69.344a.718.718,0,0,1-.429.831,12.5,12.5,0,0,1-4.116.8,1.236,1.236,0,0,1-1.218-.9c-1.4-4.921-8.07-29.571-8.747-53.064-.757-26.251.009-.894.009-.894l.745-16.215Z" transform="translate(-682.158 -2370.483)" fill="url(#linear-gradient-8)"/>
      <path id="Trazado_205051" data-name="Trazado 205051" d="M630.824,3178.843a22.232,22.232,0,0,0-1.764,5.688,1.285,1.285,0,0,0,1.116,1.55c1.344.145,3.412.335,5.071.339a1.281,1.281,0,0,0,1.283-1.417,10.81,10.81,0,0,0-2.467-5.953Z" transform="translate(-614.77 -3029.779)" fill="url(#linear-gradient-9)"/>
      <path id="Trazado_205052" data-name="Trazado 205052" d="M639.839,3129.34l.971,5.6a3.615,3.615,0,0,0,3.015.236l-.432-6.018Z" transform="translate(-624.502 -2985.036)" fill="url(#linear-gradient-10)"/>
      <path id="Trazado_205053" data-name="Trazado 205053" d="M602,2438.479c-4.363,24.86.308,61.549,1.933,68.736a1.118,1.118,0,0,0,.895.857,7.511,7.511,0,0,0,3.228-.1,1.025,1.025,0,0,0,.746-.937c.283-5.8.213-41.393,4.192-55.423a3.2,3.2,0,0,1,1.249-1.751l7.512-5.233.654-8.569Z" transform="translate(-588.794 -2360.902)" fill="url(#linear-gradient-11)"/>
      <g id="Grupo_152084" data-name="Grupo 152084" transform="translate(11.964 11.541)">
        <path id="Trazado_205054" data-name="Trazado 205054" d="M633.776,1970.822c-12.364-.2-26.007,3.246-26.007,3.246-3.686,21.505-.645,46.31-.645,46.31,9.572,2.51,20.37-1.535,20.37-1.535,1.591-8.989,9.014-34.286,9.014-34.286a40.73,40.73,0,0,0,15.116-4.8,26.511,26.511,0,0,1-5.24-10.96A41.5,41.5,0,0,1,633.776,1970.822Z" transform="translate(-605.946 -1951.673)" fill="#ef7c1a"/>
        <path id="Trazado_205055" data-name="Trazado 205055" d="M1036.3,1797.591a2.366,2.366,0,0,0-2.752-.773c-1.819,7.686-11.36,13.918-21.162,16.964a26.512,26.512,0,0,0,5.24,10.96C1033.9,1815.6,1036.3,1797.591,1036.3,1797.591Z" transform="translate(-971.951 -1796.653)" fill="url(#linear-gradient-12)"/>
      </g>
      <g id="Grupo_152085" data-name="Grupo 152085" transform="translate(73.923 0)">
        <path id="Trazado_205056" data-name="Trazado 205056" d="M1231.083,1693.813c.123.405-1.354,1.007-2.2-.654-.023-.792-.472-4.19.007-4.83a63.206,63.206,0,0,1,7.48-7.672,1.163,1.163,0,0,1,.13,1.617l-2.394,2.447a11.49,11.49,0,0,1,1.358,2.749,3.324,3.324,0,0,1-.355,2.442c-.423.746-1,1.715-1.544,2.472A3.28,3.28,0,0,1,1231.083,1693.813Z" transform="translate(-1228.666 -1680.656)" fill="url(#linear-gradient-13)"/>
        <path id="Trazado_205057" data-name="Trazado 205057" d="M1246.731,1737.5l-2.177,1.81-.7,1.817,1.906,2.155a24.861,24.861,0,0,1,1.171-4.39C1247.423,1738.115,1247.177,1737.734,1246.731,1737.5Z" transform="translate(-1242.346 -1731.845)" fill="url(#linear-gradient-14)"/>
      </g>
      <path id="Trazado_205058" data-name="Trazado 205058" d="M506.854,2030.858l-4.628-12.017s-11.624,7.737-13.618,17.667a27.326,27.326,0,0,1,10.014,2.787C499.521,2034.605,506.854,2030.858,506.854,2030.858Z" transform="translate(-488.318 -1985.193)" fill="#ef7c1a"/>
      <path id="Trazado_205059" data-name="Trazado 205059" d="M514.215,2202.119s-13.036,7.2-17.351.905a4.918,4.918,0,0,1-.865-3.83,27.32,27.32,0,0,0-10.014-2.786,13.732,13.732,0,0,0,1.4,9.427c7.53,14.092,28.513-.5,28.513-.5Z" transform="translate(-485.695 -2145.093)" fill="url(#linear-gradient-15)"/>
      <path id="Trazado_205060" data-name="Trazado 205060" d="M725.447,1886.621,721.4,1897.96a.41.41,0,0,0,.182.5,9.248,9.248,0,0,0,9.6-.554,1.93,1.93,0,0,0,.9-1.37l1.368-9.834Z" transform="translate(-697.931 -1866.128)" fill="url(#linear-gradient-16)"/>
      <g id="Grupo_152086" data-name="Grupo 152086" transform="translate(20.09 4.123)">
        <path id="Trazado_205061" data-name="Trazado 205061" d="M757.773,1781.556s4.242,8.173,3.657,11.453-5.937,2.992-10.586.28l-3.183-8.812Z" transform="translate(-741.687 -1775.64)" fill="url(#linear-gradient-17)"/>
        <path id="Trazado_205062" data-name="Trazado 205062" d="M697.02,1735.437a.335.335,0,0,0,.151-.489,8.762,8.762,0,0,1-1.178-2.564s-.772-.5,1.988-1.137,6.875-1.616,7.76-3.952c.863-2.277-1.293-8.044-4.863-3.5a.335.335,0,0,1-.531,0,3.455,3.455,0,0,0-4.2-1.408,3.169,3.169,0,0,0-2.2,3.042.333.333,0,0,1-.4.337,3.865,3.865,0,0,0-4.533,2.061c-.94,2.016-.353,3.167.187,3.733a.334.334,0,0,1-.148.553,2.011,2.011,0,0,0-1.441,2.281c.1,2.127,2.475,1.962,3.153,1.872a.335.335,0,0,1,.3.108c.574.647,3.162,3.4,5.988,3.754a.338.338,0,0,0,.359-.443l-1.19-3.571a.336.336,0,0,1,.186-.415Z" transform="translate(-687.614 -1722.098)" fill="url(#linear-gradient-18)"/>
        <path id="Trazado_205063" data-name="Trazado 205063" d="M757.073,1851.607s-3.056-2.139-3.3-.365,2.745,2.6,4.235,1.952Z" transform="translate(-747.181 -1837.759)" fill="url(#linear-gradient-19)"/>
      </g>
      <g id="Grupo_152088" data-name="Grupo 152088" transform="translate(25.828 41.552)">
        <g id="Grupo_152087" data-name="Grupo 152087">
          <path id="Trazado_205064" data-name="Trazado 205064" d="M745.307,2125.142l7.1-24.8a.723.723,0,0,1,.612-.521c1.287-.15,5.015-.572,9.319-.936a105.789,105.789,0,0,1,14.8-.492.726.726,0,0,1,.593,1.044c-2.046,4.139-10.462,20.978-14.677,26.494a.728.728,0,0,1-.586.288L746,2126.067A.725.725,0,0,1,745.307,2125.142Z" transform="translate(-745.279 -2098.282)" fill="url(#linear-gradient-20)"/>
          <path id="Trazado_205065" data-name="Trazado 205065" d="M756.609,2231.5s-.989-4.068-.59-5.511,1.172-3.3,3.749-2.886a37.686,37.686,0,0,1,5.617,1.5,1.475,1.475,0,0,1-2.112,1.273l1.214.94s-.174,1.5-1.828.7l1.13,1.246a1.316,1.316,0,0,1-1.927.444C760.644,2228.407,760.06,2231.985,756.609,2231.5Z" transform="translate(-754.865 -2210.627)" fill="url(#linear-gradient-21)"/>
        </g>
        <path id="Trazado_205066" data-name="Trazado 205066" d="M911.991,2159.893a2.084,2.084,0,1,0,2.084-2.084A2.085,2.085,0,0,0,911.991,2159.893Z" transform="translate(-895.404 -2151.886)" fill="#91b3fa"/>
        <path id="Trazado_205067" data-name="Trazado 205067" d="M820.2,2122.094l1.446-4.9a1.681,1.681,0,0,1,1.264-1.18c4.532-.945,16.935-1.146,17.06-1.148l-.008-.554c-.511.008-12.581.2-17.165,1.16a2.235,2.235,0,0,0-1.682,1.566l-1.446,4.9Z" transform="translate(-812.267 -2112.712)" fill="#bdd0fb"/>
      </g>
    </g>
    <g id="Grupo_152100" data-name="Grupo 152100" transform="translate(297.017 441.536)">
      <g id="Grupo_152090" data-name="Grupo 152090" transform="translate(96.238 0)">
        <path id="Trazado_205068" data-name="Trazado 205068" d="M2673.317,1819.618a.47.47,0,0,1,.868.092c.421,1.516,1.44,4.161,3.579,5.1.108.047.21.095.309.143a1.087,1.087,0,0,0-.134-.983c-.665-1.016.535-2.4.535-2.4a3.093,3.093,0,0,0,1.009,1.992,2.975,2.975,0,0,1,.638,3.348c-1.158,4.5-2.891,10.443,3.861,14.787s16.26-8.2,16.26-8.2l-4.719,14.961s-7.285,5.376-15.758-2.183-2.857-18.558-2.857-18.558S2670.446,1825.108,2673.317,1819.618Z" transform="translate(-2672.582 -1804.67)" fill="url(#linear-gradient-22)"/>
        <path id="Trazado_205069" data-name="Trazado 205069" d="M2933.684,1678.493s-1.956-8.774,8.094-6.452c0,0,4.879-.8,5.127,3.807,0,0,3.145,2.073.842,6.058,0,0,9.347-3.61,13.419,4.582s.329,12.7-3.595,13.874a3.908,3.908,0,0,1,1.675,5.2c-1.505,3.6-9.126,6.145-13.628,1.762,0,0-12.81,1.693-12.553-7.355,0,0-5.958-3.847.3-11.325S2933.684,1678.493,2933.684,1678.493Z" transform="translate(-2904.841 -1671.65)" fill="url(#linear-gradient-23)"/>
        <path id="Trazado_205070" data-name="Trazado 205070" d="M2885.918,1939.96a13.787,13.787,0,0,1,13.494,3.439,3.465,3.465,0,0,1,1,3.452c-1.5,5.531-5.467,21.873-1.99,28.943,0,0-6.125,6.752-12.807,1.31,0,0-3-13.067-6.925-18.8-2.711-3.96,4.323-14.872,6.1-17.508A2.086,2.086,0,0,1,2885.918,1939.96Z" transform="translate(-2857.628 -1912.779)" fill="#ef7c19"/>
        <path id="Trazado_205071" data-name="Trazado 205071" d="M2976.783,1834.4s2.987,8.449,3.212,12.176a6.39,6.39,0,0,1-6.412-1.032s-.327-8.439-.8-9.95Z" transform="translate(-2942.916 -1818.205)" fill="url(#linear-gradient-24)"/>
        <path id="Trazado_205072" data-name="Trazado 205072" d="M2929.357,1718.052s-7.812,10.934-3.142,14.109,10.231-4.594,10.231-4.594,1.813-5.984-.083-8.015S2929.357,1718.052,2929.357,1718.052Z" transform="translate(-2899.639 -1713.379)" fill="url(#linear-gradient-25)"/>
        <path id="Trazado_205073" data-name="Trazado 205073" d="M2970.291,1691.035s-3.589.85-4.093,2.474,5.09,3.13,6.657,3.2l1.262,6.553s3.733-6.165,2.254-9.725S2970.291,1691.035,2970.291,1691.035Z" transform="translate(-2936.956 -1688.975)" fill="url(#linear-gradient-26)"/>
        <path id="Trazado_205074" data-name="Trazado 205074" d="M3027.3,1788.033s3.041-3.522,4.25-1.226-2.737,4.02-4.1,2.893Z" transform="translate(-2992.007 -1774.65)" fill="url(#linear-gradient-27)"/>
        <path id="Trazado_205075" data-name="Trazado 205075" d="M2860.178,2593.9c.022.593-1.019,5.3-1.586,7.809a4.133,4.133,0,0,0,.445,2.965l19.63,33.038a4.507,4.507,0,0,1,.515,1.286,28.358,28.358,0,0,1,.717,8.807l-1.016,2.109,4.392-1,.956-11.795-1.244-.758a5.911,5.911,0,0,1-2.389-2.8c-1.775-4.312-6.183-15.287-7.32-20.636-1.292-6.079-8.042-11.016-8.042-11.016l1.186-2.8Z" transform="translate(-2839.993 -2502.141)" fill="url(#linear-gradient-28)"/>
        <path id="Trazado_205076" data-name="Trazado 205076" d="M3060.774,3027.888s-2.372-3.761-2.65-5.224-1.056-4.048-2.518-3.271a85.941,85.941,0,0,0-.451,9.888c.237,2.778-3.141,2.688-3.141,2.688a3.152,3.152,0,0,0-1.613.813.791.791,0,0,0,.53,1.33,19.028,19.028,0,0,0,4.7-.267,1.439,1.439,0,0,0,1.162-1.328l.487-8.183,2.992,3.777Z" transform="translate(-3012.611 -2885.17)" fill="url(#linear-gradient-29)"/>
        <path id="Trazado_205077" data-name="Trazado 205077" d="M2956.343,2639.592s.693,29.553.786,33.75-.663,13.5-4.87,16.279l1.831,1.355a24.468,24.468,0,0,0,4.523-5.687,34.6,34.6,0,0,1,3.271-4.973l-.833-1.706a3.752,3.752,0,0,1-.3-2.406c.908-4.4,3.942-19.039,4.769-22.191.976-3.721,1.046-8.69-2.352-12.849S2956.343,2639.592,2956.343,2639.592Z" transform="translate(-2924.432 -2542.57)" fill="url(#linear-gradient-30)"/>
        <path id="Trazado_205078" data-name="Trazado 205078" d="M2941.558,3061.69a.259.259,0,0,0,.26-.222,38.119,38.119,0,0,1,1.2-5.958c.546-1.171,2.331-6.1,0-6.52,0,0-5.8,8.471-6.911,9.613a2.182,2.182,0,0,1-2.518.4,4.19,4.19,0,0,0-1.9,1.366.767.767,0,0,0,.6,1.233l3.905.038a2.748,2.748,0,0,0,2.576-1.731c.687-1.717,1.868-4.235,3.244-5.352l-.715,6.847a.261.261,0,0,0,.256.288Z" transform="translate(-2905.761 -2911.95)" fill="url(#linear-gradient-31)"/>
        <path id="Trazado_205079" data-name="Trazado 205079" d="M2864.062,2268.628s.88,2.8-.472,7.425l-8.387,29.288a.907.907,0,0,0,.567,1.1,55.939,55.939,0,0,0,22.013,2.67,1.279,1.279,0,0,0,1.165-1c.742-3.339,3.272-14.73,3.794-17.072,1.986-8.919,4.2-18.537-5.551-24.353C2872.7,2268.618,2868.5,2269.753,2864.062,2268.628Z" transform="translate(-2837.001 -2207.488)" fill="url(#linear-gradient-32)"/>
        <path id="Trazado_205080" data-name="Trazado 205080" d="M3028.212,1984.308s9.542,7.93,11.91,18.766-13.944,11.988-13.944,11.988-2.215-2.473-4.844-1.591-.2-4.316,2.873-4.3,1.651,2.446,6,.475c4.239-1.92,6.859-7.858-3.956-16.86a4.889,4.889,0,0,1-1.428-1.945C3022.723,1985.551,3024.39,1982.085,3028.212,1984.308Z" transform="translate(-2985.626 -1952.584)" fill="url(#linear-gradient-33)"/>
      </g>
      <g id="Grupo_152099" data-name="Grupo 152099" transform="translate(0 26.878)">
        <g id="Grupo_152093" data-name="Grupo 152093" transform="translate(58.117 77.046)">
          <g id="Grupo_152091" data-name="Grupo 152091" transform="translate(17.59 8.765)">
            <rect id="Rectángulo_44784" data-name="Rectángulo 44784" width="3.404" height="36.809" fill="#7d97f4"/>
          </g>
          <g id="Grupo_152092" data-name="Grupo 152092" transform="translate(4.386 44.069)">
            <path id="Trazado_205081" data-name="Trazado 205081" d="M2363.337,3161.278h-29.812v-1.969a.246.246,0,0,1,.246-.246h29.32a.246.246,0,0,1,.246.246Z" transform="translate(-2333.526 -3159.063)" fill="#7d97f4"/>
          </g>
          <rect id="Rectángulo_44785" data-name="Rectángulo 44785" width="39.835" height="11.298" rx="5.649" fill="#7d97f4"/>
        </g>
        <g id="Grupo_152095" data-name="Grupo 152095" transform="translate(26.975)">
          <path id="Trazado_205082" data-name="Trazado 205082" d="M2085.962,3054s-11,4.74-10.373,9.7c0,0,11.374-2.182,13.41-5.433s.914-5.135.914-5.135Z" transform="translate(-2065.7 -2942.555)" fill="url(#linear-gradient-34)"/>
          <path id="Trazado_205083" data-name="Trazado 205083" d="M2164.31,3007.4l.559,4.83a1.6,1.6,0,0,1-1.01,1.7,4.158,4.158,0,0,1-1.394.213,1.86,1.86,0,0,1-1.807-1.356l-1.083-3.906Z" transform="translate(-2141.353 -2901.379)" fill="url(#linear-gradient-35)"/>
          <path id="Trazado_205084" data-name="Trazado 205084" d="M2135.1,2634.69s-20.239-.937-30.311,4.937.511,34.061.511,34.061,2.63.565,6.418-1.459c0,0-5.406-20.635,3.985-24.224a54.062,54.062,0,0,1,21.476-3.054l-2.023-9.623Z" transform="translate(-2088.104 -2565.7)" fill="url(#linear-gradient-36)"/>
          <path id="Trazado_205085" data-name="Trazado 205085" d="M2061.175,3107.642c2.3-.5,9.126-3.332,10.162-3.293s2.5,1.591,2.5,1.591a2.759,2.759,0,0,1-.488,2.067c-1.759,1.372-5.546,3.889-9.951,4.165a7.388,7.388,0,0,1-6.3-2.336A9.011,9.011,0,0,1,2061.175,3107.642Z" transform="translate(-2049.075 -2988.678)" fill="url(#linear-gradient-37)"/>
          <path id="Trazado_205086" data-name="Trazado 205086" d="M2054.492,3145.289c4.4-.276,8.192-2.793,9.95-4.165a8.594,8.594,0,0,1-3.25,2.83c-4.45,2.515-11.806,2.148-13.264,1.582-1.168-.454-.807-1.545.26-2.584A7.39,7.39,0,0,0,2054.492,3145.289Z" transform="translate(-2040.163 -3021.794)" fill="url(#linear-gradient-38)"/>
          <path id="Trazado_205087" data-name="Trazado 205087" d="M2193.27,3071.547a16.421,16.421,0,0,1-2.695,3.236,1.834,1.834,0,0,1-1.705.513,4.73,4.73,0,0,1-1.22-.428,1.19,1.19,0,0,1-.461-1.619l2.357-4.286Z" transform="translate(-2166.086 -2956.813)" fill="url(#linear-gradient-39)"/>
          <path id="Trazado_205088" data-name="Trazado 205088" d="M2240.7,2618.126s1.767,12.533-3.342,15.094-16.312,4.239-20.171,10.74-10.79,19.259-17.1,22.924c0,0-3.6-1.171-4.655-2.943,0,0,7.486-19.68,10.61-24.464,2.7-4.142,6.66-10.11,12.279-12.692,1.608-.739,1.734-2.445,1.451-4.192l-.516-3.182Z" transform="translate(-2173.65 -2550.833)" fill="url(#linear-gradient-40)"/>
          <path id="Trazado_205089" data-name="Trazado 205089" d="M2160.862,2306.99c7.162,2.045,10.366-18.11,10.338-18.6l10.98,12.838s-6.542,11.512-16.421,12.737a11.657,11.657,0,0,1-6.408-.94A10.261,10.261,0,0,0,2160.862,2306.99Z" transform="translate(-2141.152 -2253.905)" fill="#ef7c19"/>
          <path id="Trazado_205090" data-name="Trazado 205090" d="M1982.891,2405.778c3.121-1.283,5.769,1.277,5.769,1.277,3.093,3.166,5.546,4.764,7.493,5.32a10.266,10.266,0,0,1-1.512,6.035,15.97,15.97,0,0,1-7.035-7.125,1.34,1.34,0,0,0-1.767-.6c-.661.32-1.343.808-1.386,1.47-.084,1.308-1.64,1.385-1.649.9a19.361,19.361,0,0,1,1.2-3.065s-3.586,2.3-4.982,3.181a2.055,2.055,0,0,1-2.585-.572S1979.77,2407.061,1982.891,2405.778Z" transform="translate(-1976.442 -2359.289)" fill="url(#linear-gradient-41)"/>
          <path id="Trazado_205091" data-name="Trazado 205091" d="M2310.961,2188.651s-9.624-6.565-32.866,5.309c0,0-2.394,3.034-1.272,6.455s14.921,21.933,15.458,30.623c0,0,9.434,5.553,21.679.047C2313.96,2231.085,2318.066,2208.138,2310.961,2188.651Z" transform="translate(-2246.667 -2162.459)" fill="#ef7c19"/>
          <path id="Trazado_205092" data-name="Trazado 205092" d="M2352.634,2120.674l3.8,7.452a2.118,2.118,0,0,1-.22,2.285,6.051,6.051,0,0,1-6.964,1.939,3.267,3.267,0,0,1-2.227-2.37l-1.972-8.318Z" transform="translate(-2308.379 -2102.875)" fill="url(#linear-gradient-42)"/>
          <path id="Trazado_205093" data-name="Trazado 205093" d="M2591.821,2231.06c.651-4.531-11.319-13.31-11.319-13.31l4.193-12.712s22.843,16.3,18.039,29.613a9.3,9.3,0,0,1-2.968,4.284C2597.345,2233.974,2594.065,2231.912,2591.821,2231.06Z" transform="translate(-2520.4 -2178.845)" fill="#ef7c19"/>
          <path id="Trazado_205094" data-name="Trazado 205094" d="M2434.54,2467.836s13.541,3.782,16.35-.34a2.157,2.157,0,0,0,.35-.917c2.244.852,5.525,2.914,7.944,7.875-6.429,5.058-18.825-.612-22.193-2.311a2.377,2.377,0,0,0-1.784-.149,16.255,16.255,0,0,1-4.431.891c-1.692-.093-3.508,6.022-6.388,4.474C2424.388,2477.358,2425.7,2466.91,2434.54,2467.836Z" transform="translate(-2379.819 -2414.364)" fill="url(#linear-gradient-43)"/>
          <g id="Grupo_152094" data-name="Grupo 152094" transform="translate(31.342)">
            <path id="Trazado_205095" data-name="Trazado 205095" d="M2299.491,1995.412c-.12.1-5.137,8.866-7.691,13.332a2.627,2.627,0,0,0,1.248,3.718l1.106.474c1.512.648,4.762,1.191,6.041.157l8.065-8.513S2302.2,1993.064,2299.491,1995.412Z" transform="translate(-2291.453 -1989.792)" fill="url(#linear-gradient-44)"/>
            <path id="Trazado_205096" data-name="Trazado 205096" d="M2359.792,1954.254a2.6,2.6,0,0,0,1.253-3.671,3.668,3.668,0,0,0-4-2.069,1,1,0,0,1-1.063-.722.792.792,0,0,0-.7-.567.987.987,0,0,1-.778-1.235,2.99,2.99,0,0,0-1.491-3.583c-3.07-1.858-5.939.841-6.738,3.188s2.643,4.172,4.841,4.545c1.671.283,2.486,2.211,2.781,3.118a.993.993,0,0,1-.117.853l-2.451,3.726c.674.848,1.271,1.745,1.86,2.652.221-.238.414-.436.565-.574,1.065-.976,2.959-.472,3.738-.2a.983.983,0,0,0,.774-.057,2.6,2.6,0,0,0,1.159-4A1,1,0,0,1,2359.792,1954.254Z" transform="translate(-2340.713 -1941.787)" fill="url(#linear-gradient-45)"/>
            <path id="Trazado_205097" data-name="Trazado 205097" d="M2407.861,2111.227s1.567-4.029,3.349-3.8,3.115,2.065.815,3.975C2409.165,2113.773,2407.861,2111.227,2407.861,2111.227Z" transform="translate(-2396.279 -2090.935)" fill="url(#linear-gradient-46)"/>
          </g>
        </g>
        <g id="Grupo_152096" data-name="Grupo 152096" transform="translate(2.153 33.371)">
          <path id="Trazado_205098" data-name="Trazado 205098" d="M2052.865,2539.938l-.073,0-31.635-.035a1.416,1.416,0,1,1,0-2.832l31.635.035a1.416,1.416,0,0,1,.07,2.83Z" transform="translate(-1990.613 -2511.215)" fill="url(#linear-gradient-47)"/>
          <path id="Trazado_205099" data-name="Trazado 205099" d="M1729.076,2277.188h26.345a5.02,5.02,0,0,1,4.542,2.88l12.179,25.826H1739.4a3.053,3.053,0,0,1-2.838-1.93l-9.445-23.9A2.1,2.1,0,0,1,1729.076,2277.188Z" transform="translate(-1726.97 -2277.188)" fill="url(#linear-gradient-48)"/>
          <path id="Trazado_205100" data-name="Trazado 205100" d="M1896.617,2386.395c.571,1.774.149,3.5-.942,3.847s-2.439-.8-3.01-2.575-.149-3.5.942-3.848S1896.046,2384.621,1896.617,2386.395Z" transform="translate(-1875.95 -2373.153)" fill="#91b3fa"/>
        </g>
        <g id="Grupo_152098" data-name="Grupo 152098" transform="translate(0 61.793)">
          <g id="Grupo_152097" data-name="Grupo 152097" transform="translate(7.201 2.83)">
            <path id="Trazado_205101" data-name="Trazado 205101" d="M1779.036,2656.607a1.374,1.374,0,0,1-.525-.1,1.273,1.273,0,0,1-.7-1.691l27.88-62.747a1.346,1.346,0,0,1,1.746-.674,1.272,1.272,0,0,1,.7,1.691l-27.88,62.747A1.333,1.333,0,0,1,1779.036,2656.607Z" transform="translate(-1777.707 -2591.285)" fill="#91b3fa"/>
            <path id="Trazado_205102" data-name="Trazado 205102" d="M1842.364,2656.6a1.331,1.331,0,0,1-1.222-.779l-27.88-62.747a1.271,1.271,0,0,1,.7-1.69,1.345,1.345,0,0,1,1.746.673l27.88,62.747a1.272,1.272,0,0,1-.7,1.691A1.362,1.362,0,0,1,1842.364,2656.6Z" transform="translate(-1809.626 -2591.283)" fill="#91b3fa"/>
            <path id="Trazado_205103" data-name="Trazado 205103" d="M2646.419,2656.607a1.373,1.373,0,0,1-.525-.1,1.271,1.271,0,0,1-.7-1.691l27.88-62.747a1.346,1.346,0,0,1,1.747-.674,1.272,1.272,0,0,1,.7,1.691l-27.88,62.747A1.333,1.333,0,0,1,2646.419,2656.607Z" transform="translate(-2558.789 -2591.285)" fill="#91b3fa"/>
            <path id="Trazado_205104" data-name="Trazado 205104" d="M2709.744,2656.6a1.331,1.331,0,0,1-1.221-.779l-27.88-62.747a1.271,1.271,0,0,1,.7-1.69,1.345,1.345,0,0,1,1.746.673l27.88,62.747a1.272,1.272,0,0,1-.7,1.691A1.364,1.364,0,0,1,2709.744,2656.6Z" transform="translate(-2590.706 -2591.283)" fill="#91b3fa"/>
          </g>
          <path id="Trazado_205105" data-name="Trazado 205105" d="M1834.84,2564.515a1.53,1.53,0,0,0-.264-1.16,1.207,1.207,0,0,0-.968-.511H1706.773a1.414,1.414,0,0,0-1.216.746,1.784,1.784,0,0,0-.094,1.549l1.375,3.33a1.924,1.924,0,0,0,1.747,1.251h124.153a1.511,1.511,0,0,0,1.431-1.321Z" transform="translate(-1705.33 -2562.844)" fill="#91b3fa"/>
        </g>
      </g>
    </g>
  </g>
</svg>
