<svg xmlns="http://www.w3.org/2000/svg" xmlns:xlink="http://www.w3.org/1999/xlink" width="263.332" height="260.017" viewBox="0 0 263.332 260.017">
  <defs>
    <linearGradient id="linear-gradient" x1="2.193" y1="0.142" x2="6.638" y2="-0.798" gradientUnits="objectBoundingBox">
      <stop offset="0" stop-color="#4f52ff"/>
      <stop offset="1" stop-color="#4042e2"/>
    </linearGradient>
    <linearGradient id="linear-gradient-2" x1="2.489" y1="-0.141" x2="6.934" y2="-1.573" xlink:href="#linear-gradient"/>
    <linearGradient id="linear-gradient-3" x1="0.551" y1="0.493" x2="4.996" y2="-0.131" xlink:href="#linear-gradient"/>
    <linearGradient id="linear-gradient-4" x1="2.346" y1="-0.579" x2="6.791" y2="-3.177" xlink:href="#linear-gradient"/>
    <linearGradient id="linear-gradient-5" x1="0.233" y1="0.543" x2="4.678" y2="-0.177" xlink:href="#linear-gradient"/>
    <linearGradient id="linear-gradient-6" x1="0.309" y1="0.537" x2="4.754" y2="-0.334" xlink:href="#linear-gradient"/>
    <linearGradient id="linear-gradient-7" x1="0.421" y1="0.52" x2="4.866" y2="-0.608" xlink:href="#linear-gradient"/>
    <clipPath id="clip-path">
      <path id="Trazado_205132" data-name="Trazado 205132" d="M670.692,1268.51a14.469,14.469,0,1,0,14.469,14.469A14.469,14.469,0,0,0,670.692,1268.51Zm0,22.713a8.243,8.243,0,1,1,8.243-8.243A8.243,8.243,0,0,1,670.692,1291.223Z" transform="translate(-656.223 -1268.51)" fill="#fff" opacity="0.57"/>
    </clipPath>
    <clipPath id="clip-path-2">
      <path id="Trazado_205134" data-name="Trazado 205134" d="M1050.516,1268.51a14.469,14.469,0,1,0,14.469,14.469A14.469,14.469,0,0,0,1050.516,1268.51Zm0,22.713a8.243,8.243,0,1,1,8.243-8.243A8.243,8.243,0,0,1,1050.516,1291.223Z" transform="translate(-1036.047 -1268.51)" fill="#fff" opacity="0.57"/>
    </clipPath>
    <clipPath id="clip-path-3">
      <path id="Trazado_205136" data-name="Trazado 205136" d="M1430.339,1268.51a14.469,14.469,0,1,0,14.469,14.469A14.469,14.469,0,0,0,1430.339,1268.51Zm0,22.713a8.243,8.243,0,1,1,8.244-8.243A8.243,8.243,0,0,1,1430.339,1291.223Z" transform="translate(-1415.87 -1268.51)" fill="#fff" opacity="0.57"/>
    </clipPath>
    <linearGradient id="linear-gradient-8" x1="0.918" y1="-0.764" x2="-1.18" y2="5.578" xlink:href="#linear-gradient"/>
    <linearGradient id="linear-gradient-9" y1="0.5" x2="1" y2="0.5" gradientUnits="objectBoundingBox">
      <stop offset="0" stop-color="#dae3fe"/>
      <stop offset="1" stop-color="#e9effd"/>
    </linearGradient>
    <linearGradient id="linear-gradient-11" x1="1.327" y1="-0.174" x2="-0.781" y2="1.65" gradientUnits="objectBoundingBox">
      <stop offset="0" stop-color="#fdf53f"/>
      <stop offset="1" stop-color="#d93c65"/>
    </linearGradient>
    <linearGradient id="linear-gradient-12" x1="-12.545" y1="-0.484" x2="-15.38" y2="6.012" gradientUnits="objectBoundingBox">
      <stop offset="0" stop-color="#09005d"/>
      <stop offset="1" stop-color="#1a0f91"/>
    </linearGradient>
    <linearGradient id="linear-gradient-13" x1="-56.359" y1="0.5" x2="-55.359" y2="0.5" gradientUnits="objectBoundingBox">
      <stop offset="0" stop-color="#febbba"/>
      <stop offset="1" stop-color="#ff928e"/>
    </linearGradient>
    <linearGradient id="linear-gradient-14" x1="-17.781" y1="0.5" x2="-16.781" y2="0.5" xlink:href="#linear-gradient"/>
    <linearGradient id="linear-gradient-15" x1="-36.426" y1="-2.223" x2="-43.443" y2="5.384" xlink:href="#linear-gradient-12"/>
    <linearGradient id="linear-gradient-16" x1="-73.782" y1="0.5" x2="-72.782" y2="0.5" xlink:href="#linear-gradient-13"/>
    <linearGradient id="linear-gradient-17" x1="-13.151" y1="0.5" x2="-12.151" y2="0.5" xlink:href="#linear-gradient"/>
    <linearGradient id="linear-gradient-18" x1="-8.616" y1="0.5" x2="-7.616" y2="0.5" xlink:href="#linear-gradient-13"/>
    <linearGradient id="linear-gradient-19" x1="92.205" y1="1.605" x2="94.205" y2="4.278" xlink:href="#linear-gradient-13"/>
    <linearGradient id="linear-gradient-20" x1="-54.331" y1="0.706" x2="-52.312" y2="-1.072" xlink:href="#linear-gradient-13"/>
    <linearGradient id="linear-gradient-21" x1="-10.057" y1="0.5" x2="-9.057" y2="0.5" xlink:href="#linear-gradient-13"/>
    <linearGradient id="linear-gradient-22" x1="-7.273" y1="-0.062" x2="-6.76" y2="2.428" xlink:href="#linear-gradient-12"/>
    <linearGradient id="linear-gradient-23" x1="-37.934" y1="-3.497" x2="-38.507" y2="1.805" xlink:href="#linear-gradient"/>
    <linearGradient id="linear-gradient-24" x1="-19.823" y1="-1.235" x2="-19.966" y2="1.146" xlink:href="#linear-gradient"/>
    <linearGradient id="linear-gradient-25" x1="-28.548" y1="0.5" x2="-27.548" y2="0.5" xlink:href="#linear-gradient-13"/>
    <linearGradient id="linear-gradient-26" x1="-23.082" y1="0.5" x2="-22.082" y2="0.5" xlink:href="#linear-gradient-13"/>
    <linearGradient id="linear-gradient-27" x1="-25.897" y1="-15.502" x2="-27.106" y2="-14.208" xlink:href="#linear-gradient-13"/>
    <linearGradient id="linear-gradient-28" x1="-19.186" y1="-9.685" x2="-18.149" y2="-9.685" xlink:href="#linear-gradient-12"/>
    <linearGradient id="linear-gradient-29" x1="-78.929" y1="-47.58" x2="-76.241" y2="-50.122" xlink:href="#linear-gradient-13"/>
  </defs>
  <g id="Grupo_152147" data-name="Grupo 152147" transform="translate(-437.146 -455)">
    <path id="Trazado_205107" data-name="Trazado 205107" d="M739.386,668.439a114.354,114.354,0,0,1-61.6,33.645c-57.615,11.3-135.493-5.925-153.031-69.45-10.689-38.717-3.2-84,18.752-117.548,24.133-36.873,67.7-61.754,112.292-60,43.628,1.717,86.39,36.061,104.464,74.259C783.059,577.515,772.934,633.05,739.386,668.439Z" transform="translate(-75.11 0)" fill="#0ab1cb"/>
    <g id="Grupo_152119" data-name="Grupo 152119" transform="translate(443.892 462.568)">
      <g id="Grupo_152113" data-name="Grupo 152113" transform="translate(0 0)">
        <g id="Grupo_152109" data-name="Grupo 152109" opacity="0.3">
          <path id="Trazado_205108" data-name="Trazado 205108" d="M603,555.949a.942.942,0,0,1-1.294-.319c-.523-.865-1.091-1.72-1.689-2.542a.942.942,0,0,1,.193-1.305l.015-.011a.942.942,0,0,1,1.316.208c.629.865,1.228,1.765,1.778,2.676a.942.942,0,0,1-.237,1.238A.925.925,0,0,1,603,555.949Zm-6.167-6.66c-.7-.732-1.446-1.441-2.206-2.108a.942.942,0,1,1,1.242-1.416c.8.7,1.581,1.447,2.322,2.218a.942.942,0,0,1-.026,1.332.986.986,0,0,1-.085.073A.942.942,0,0,1,596.837,549.289Zm-6.15-5.107c-.847-.555-1.728-1.081-2.62-1.562a.942.942,0,1,1,.894-1.658c.939.506,1.868,1.06,2.759,1.645a.942.942,0,1,1-1.033,1.575Zm-7.137-3.6c-.951-.353-1.928-.668-2.9-.937a.942.942,0,0,1,.5-1.816c1.028.284,2.057.616,3.058.987a.942.942,0,0,1-.655,1.767Zm-7.762-1.924c-1-.132-2.026-.224-3.04-.271a.942.942,0,1,1,.088-1.882c1.067.05,2.143.146,3.2.285a.942.942,0,1,1-.246,1.868Zm-7.994-.158c-1.009.093-2.026.23-3.024.409a.942.942,0,0,1-.331-1.855c1.05-.188,2.121-.332,3.183-.43a.942.942,0,0,1,.173,1.876Zm-29.41,18.942a.942.942,0,0,1-.38-1.277c.507-.937,1.063-1.865,1.65-2.757a.942.942,0,0,1,1.573,1.036c-.558.847-1.085,1.728-1.567,2.618a.941.941,0,0,1-1.277.38Zm21.583-17.326c-.962.315-1.923.675-2.855,1.071a.942.942,0,1,1-.737-1.734c.981-.417,1.993-.8,3.006-1.128a.942.942,0,1,1,.586,1.791Zm-17.061,10.473a.942.942,0,0,1-.084-1.33c.7-.8,1.453-1.58,2.223-2.318a.942.942,0,0,1,1.3,1.361c-.733.7-1.444,1.443-2.113,2.2a.943.943,0,0,1-1.33.084Zm9.794-7.149c-.867.522-1.723,1.088-2.544,1.683a.942.942,0,0,1-1.122-1.513l.016-.012c.864-.627,1.766-1.223,2.678-1.772a.942.942,0,0,1,1.056,1.558C552.757,543.4,552.729,543.419,552.7,543.437Z" transform="translate(-535.28 -536.5)" fill="#91b3fa"/>
          <path id="Trazado_205109" data-name="Trazado 205109" d="M511.3,796.158a.937.937,0,0,0,.326-.458c.15-.462.313-.928.483-1.386a.942.942,0,1,0-1.766-.656c-.179.482-.35.972-.508,1.458a.942.942,0,0,0,1.465,1.042Z" transform="translate(-509.785 -769.22)" fill="#91b3fa"/>
        </g>
        <g id="Grupo_152110" data-name="Grupo 152110" transform="translate(1.791 46.414)" opacity="0.3">
          <path id="Trazado_205110" data-name="Trazado 205110" d="M531.261,1105.052a.942.942,0,0,0,.262-1.193c-.228-.429-.451-.869-.663-1.31a.942.942,0,0,0-1.7.816c.223.463.458.928.7,1.379a.942.942,0,0,0,1.274.389A.977.977,0,0,0,531.261,1105.052Z" transform="translate(-529.068 -1095.914)" fill="#91b3fa"/>
          <path id="Trazado_205111" data-name="Trazado 205111" d="M616.782,1118.345a.942.942,0,1,1-1.062-1.556c.818-.559,1.625-1.161,2.408-1.8a.942.942,0,0,1,1.188,1.463q-.509.413-1.027.805C617.794,1117.635,617.288,1118,616.782,1118.345Zm4.959-5.344a.942.942,0,0,1-.042-1.331c.683-.729,1.343-1.494,1.961-2.275a.942.942,0,1,1,1.477,1.169c-.651.822-1.345,1.628-2.064,2.394a.955.955,0,0,1-.119.107A.942.942,0,0,1,621.741,1113Zm-9.386,7.942c-.938.467-1.909.9-2.886,1.288a.942.942,0,1,1-.694-1.751c.928-.368,1.85-.779,2.741-1.223a.942.942,0,0,1,.99,1.594A.954.954,0,0,1,612.354,1120.943Zm14.4-14.281a.942.942,0,0,1-.334-1.29c.506-.859.981-1.751,1.412-2.649a.942.942,0,0,1,1.7.815c-.454.946-.954,1.885-1.487,2.79a.941.941,0,0,1-1.29.334Zm-22.169,17.128c-1.017.249-2.06.458-3.1.622a.942.942,0,1,1-.293-1.861c.986-.155,1.976-.354,2.942-.591a.942.942,0,1,1,.448,1.83Zm-8.209,1.072c-1.05.021-2.113,0-3.159-.069a.942.942,0,1,1,.12-1.88c.994.063,2,.085,3,.066a.942.942,0,1,1,.037,1.883Zm-8.248-.742c-1.03-.208-2.063-.463-3.069-.755a.942.942,0,0,1,.526-1.809c.956.278,1.937.52,2.916.718a.942.942,0,1,1-.374,1.847Zm-7.89-2.524c-.959-.428-1.911-.9-2.83-1.41a.942.942,0,1,1,.911-1.649c.872.482,1.776.932,2.688,1.339a.942.942,0,0,1-.768,1.72Zm-7.146-4.2c-.839-.628-1.663-1.3-2.448-2a.942.942,0,1,1,1.251-1.408c.746.663,1.528,1.3,2.325,1.9a.942.942,0,1,1-1.129,1.508Zm-6.044-5.659c-.5-.586-.994-1.2-1.459-1.81q-.253-.334-.5-.672a.931.931,0,0,1,.211-1.315.942.942,0,0,1,1.315.211q.232.32.472.638c.443.584.909,1.163,1.387,1.72a.942.942,0,0,1-.1,1.328l-.045.037A.942.942,0,0,1,567.042,1111.739Z" transform="translate(-561.576 -1096.07)" fill="#91b3fa"/>
          <path id="Trazado_205112" data-name="Trazado 205112" d="M1263.017,1039.448a.938.938,0,0,0,.328-.463c.156-.486.3-.984.441-1.481a.942.942,0,0,0-1.816-.5c-.13.472-.271.945-.418,1.406a.942.942,0,0,0,1.466,1.038Z" transform="translate(-1193.489 -1036.312)" fill="#91b3fa"/>
        </g>
        <g id="Grupo_152112" data-name="Grupo 152112" transform="translate(7.301 9.05)">
          <path id="Trazado_205113" data-name="Trazado 205113" d="M645.05,660.088a.44.44,0,0,0-.281-.427l-5-1.93a23.348,23.348,0,0,0-2.636-7.089l2.519-4.726a.441.441,0,0,0-.066-.507l-4.377-4.707a.44.44,0,0,0-.5-.1l-4.9,2.169a23.342,23.342,0,0,0-6.879-3.144l-1.562-5.126a.44.44,0,0,0-.405-.312l-6.423-.233a.44.44,0,0,0-.427.282l-1.93,5a23.34,23.34,0,0,0-7.089,2.636l-4.726-2.519a.441.441,0,0,0-.507.066l-4.707,4.377a.441.441,0,0,0-.1.5l2.169,4.9a23.338,23.338,0,0,0-3.144,6.879l-5.126,1.562a.44.44,0,0,0-.312.405l-.233,6.424a.44.44,0,0,0,.281.427l5,1.93a23.339,23.339,0,0,0,2.636,7.089l-2.519,4.726a.44.44,0,0,0,.066.507l4.377,4.707a.44.44,0,0,0,.5.1l4.9-2.169a23.341,23.341,0,0,0,6.879,3.144l1.562,5.126a.44.44,0,0,0,.405.312l6.423.233a.44.44,0,0,0,.427-.281l1.93-5a23.342,23.342,0,0,0,7.089-2.636l4.726,2.519a.441.441,0,0,0,.507-.066l4.707-4.377a.44.44,0,0,0,.1-.5l-2.169-4.9a23.346,23.346,0,0,0,3.143-6.879l5.126-1.562a.44.44,0,0,0,.312-.405Z" transform="translate(-588.409 -633.955)" fill="#91b3fa"/>
          <g id="Grupo_152111" data-name="Grupo 152111" transform="translate(21.856 21.861)">
            <path id="Trazado_205114" data-name="Trazado 205114" d="M833.343,881.488a6.457,6.457,0,1,1,.8-.516A6.468,6.468,0,0,1,833.343,881.488Zm-7.864-7.051a4.954,4.954,0,1,0,2.373-2.957,5.033,5.033,0,0,0-.617.4A4.917,4.917,0,0,0,825.479,874.437Z" transform="translate(-823.771 -869.363)" fill="#bdd0fb"/>
          </g>
          <path id="Trazado_205115" data-name="Trazado 205115" d="M746.295,796.324a16.2,16.2,0,0,0,1.25-1.05h0q.19-.176.373-.359a15.979,15.979,0,0,0,1.659-1.929l.021-.028.057-.08.11-.156a.377.377,0,1,0-.618-.431,15.15,15.15,0,0,1-16.248,5.986,15.039,15.039,0,0,1-7.254-4.332,15.383,15.383,0,0,1-1-1.192,15.134,15.134,0,1,1,26.887-12.267.377.377,0,1,0,.737-.157,15.84,15.84,0,0,0-2.868-6.271,15.889,15.889,0,0,0-23.49-2.052,15.891,15.891,0,0,0-1.867,21.2,16.246,16.246,0,0,0,1.052,1.252,15.89,15.89,0,0,0,21.2,1.866Z" transform="translate(-708.542 -755.335)" fill="#bdd0fb"/>
        </g>
      </g>
      <g id="Grupo_152118" data-name="Grupo 152118" transform="translate(66.033 2.897)">
        <g id="Grupo_152114" data-name="Grupo 152114" transform="translate(0.476)" opacity="0.3">
          <path id="Trazado_205116" data-name="Trazado 205116" d="M1662.775,726.13a.582.582,0,0,0,.193-.67c-.175-.462-.367-.925-.569-1.376a.582.582,0,0,0-1.061.477c.193.43.376.871.543,1.312a.582.582,0,0,0,.75.338A.589.589,0,0,0,1662.775,726.13Z" transform="translate(-1620.863 -709.25)" fill="#91b3fa"/>
          <path id="Trazado_205117" data-name="Trazado 205117" d="M1265.893,580.584a.582.582,0,0,1-.8-.2,24.162,24.162,0,0,0-1.373-2.018c-.1-.136-.208-.272-.315-.407a.582.582,0,0,1,.1-.817.6.6,0,0,1,.818.1q.167.212.33.426a25.193,25.193,0,0,1,1.439,2.117.582.582,0,0,1-.145.766Zm-4.459-4.822a24.123,24.123,0,0,0-2.224-1.944.582.582,0,1,1,.71-.922,25.247,25.247,0,0,1,2.332,2.038.582.582,0,0,1,0,.823.594.594,0,0,1-.063.055A.582.582,0,0,1,1261.435,575.762Zm-4.672-3.6a23.852,23.852,0,0,0-2.634-1.339.582.582,0,0,1,.462-1.068,25.081,25.081,0,0,1,2.763,1.4.582.582,0,0,1-.59,1Zm-5.414-2.341a23.989,23.989,0,0,0-2.881-.653.582.582,0,0,1,.186-1.149,25.222,25.222,0,0,1,3.021.685.582.582,0,0,1-.327,1.117Zm-5.821-.948a24.239,24.239,0,0,0-2.953.066.582.582,0,1,1-.1-1.16,25.447,25.447,0,0,1,3.1-.07.582.582,0,0,1-.045,1.163Zm-5.875.493a23.875,23.875,0,0,0-2.845.784.582.582,0,0,1-.378-1.1,25.05,25.05,0,0,1,2.984-.822.582.582,0,0,1,.239,1.139Zm-5.574,1.914a23.9,23.9,0,0,0-2.568,1.46.582.582,0,0,1-.636-.975,25.247,25.247,0,0,1,2.693-1.53.582.582,0,0,1,.512,1.045Zm-7.9,5.3a.581.581,0,0,1-.032-.822,25.305,25.305,0,0,1,1.931-1.874c.1-.09.205-.179.309-.266a.582.582,0,0,1,.75.89c-.1.082-.195.165-.292.251a24.167,24.167,0,0,0-1.844,1.789.556.556,0,0,1-.076.069A.582.582,0,0,1,1226.182,576.579Z" transform="translate(-1225.996 -567.692)" fill="#91b3fa"/>
        </g>
        <g id="Grupo_152115" data-name="Grupo 152115" transform="translate(7.653 31.085)" opacity="0.3">
          <path id="Trazado_205118" data-name="Trazado 205118" d="M1329.593,957.438a25.368,25.368,0,0,1-2.556,1.656.582.582,0,0,1-.572-1.014,24.052,24.052,0,0,0,2.438-1.579.582.582,0,0,1,.7.932Zm1.518-1.977a.582.582,0,0,1,.025-.822,24.292,24.292,0,0,0,1.993-2.116.582.582,0,0,1,.894.746,25.431,25.431,0,0,1-2.089,2.217.54.54,0,0,1-.048.041A.582.582,0,0,1,1331.111,955.46Zm-6.815,4.967a25.264,25.264,0,0,1-2.882.989.582.582,0,0,1-.311-1.122,24.114,24.114,0,0,0,2.749-.943.582.582,0,0,1,.443,1.076Zm10.729-9.442a.582.582,0,0,1-.174-.8,23.9,23.9,0,0,0,1.423-2.534.582.582,0,1,1,1.047.507,24.921,24.921,0,0,1-1.493,2.658.582.582,0,0,1-.8.174Zm-16.589,11.062a25.308,25.308,0,0,1-3.035.267.582.582,0,0,1-.032-1.163,23.952,23.952,0,0,0,2.894-.255.582.582,0,0,1,.172,1.151Zm-6.079.167a25.429,25.429,0,0,1-3.011-.467.582.582,0,1,1,.248-1.137,24.357,24.357,0,0,0,2.872.445.582.582,0,0,1-.109,1.159Zm-5.945-1.294a25.108,25.108,0,0,1-2.812-1.176.582.582,0,0,1,.513-1.044,23.792,23.792,0,0,0,2.682,1.121.582.582,0,0,1,.358.741.575.575,0,0,1-.2.272A.582.582,0,0,1,1306.412,960.92Z" transform="translate(-1303.274 -943.15)" fill="#91b3fa"/>
          <path id="Trazado_205119" data-name="Trazado 205119" d="M1671.224,904.864a.579.579,0,0,0,.2-.276c.16-.471.307-.95.438-1.422a.582.582,0,0,0-1.122-.309c-.124.45-.264.906-.417,1.356a.582.582,0,0,0,.9.651Z" transform="translate(-1636.208 -902.429)" fill="#91b3fa"/>
        </g>
        <g id="Grupo_152117" data-name="Grupo 152117" transform="translate(0 6.033)">
          <path id="Trazado_205120" data-name="Trazado 205120" d="M1258.768,650.15a.3.3,0,0,0-.188-.286l-3.345-1.291a15.619,15.619,0,0,0-1.764-4.743l1.685-3.163a.294.294,0,0,0-.044-.339l-2.929-3.15a.3.3,0,0,0-.335-.069l-3.276,1.452a15.617,15.617,0,0,0-4.6-2.1l-1.045-3.43a.3.3,0,0,0-.271-.208l-4.3-.156a.3.3,0,0,0-.286.188l-1.291,3.345a15.613,15.613,0,0,0-4.743,1.764l-3.163-1.685a.294.294,0,0,0-.339.044l-3.15,2.929a.294.294,0,0,0-.069.335l1.452,3.276a15.618,15.618,0,0,0-2.1,4.6l-3.43,1.045a.3.3,0,0,0-.209.271l-.156,4.3a.3.3,0,0,0,.188.286l3.345,1.291a15.613,15.613,0,0,0,1.764,4.743l-1.686,3.162a.294.294,0,0,0,.044.339l2.929,3.15a.294.294,0,0,0,.335.069l3.276-1.452a15.615,15.615,0,0,0,4.6,2.1l1.045,3.43a.294.294,0,0,0,.271.208l4.3.156a.3.3,0,0,0,.286-.188l1.291-3.345a15.614,15.614,0,0,0,4.743-1.764l3.163,1.685a.294.294,0,0,0,.339-.044l3.15-2.929a.294.294,0,0,0,.069-.335l-1.451-3.276a15.62,15.62,0,0,0,2.1-4.6l3.43-1.045a.294.294,0,0,0,.209-.271Z" transform="translate(-1220.867 -632.663)" fill="#91b3fa"/>
          <g id="Grupo_152116" data-name="Grupo 152116" transform="translate(14.55 14.551)">
            <path id="Trazado_205121" data-name="Trazado 205121" d="M1384.071,797.61a4.386,4.386,0,1,1,.548-.355A4.5,4.5,0,0,1,1384.071,797.61Zm-4.955-2.3a3.237,3.237,0,0,0,4.4,1.281h0a3.238,3.238,0,0,0-3.114-5.677,3.288,3.288,0,0,0-.4.259A3.243,3.243,0,0,0,1379.116,795.309Z" transform="translate(-1377.554 -789.352)" fill="#bdd0fb"/>
          </g>
          <path id="Trazado_205122" data-name="Trazado 205122" d="M1323.505,738.294q.44-.333.853-.717a11.017,11.017,0,0,0,1.474-1.678l.057-.082a.582.582,0,1,0-.954-.666,9.829,9.829,0,0,1-1.369,1.574h0l-.085.078a9.7,9.7,0,0,1-4.231,2.263,9.854,9.854,0,0,1-2.623.279h-.022l-.067,0a9.734,9.734,0,0,1-6.819-3.119,9.928,9.928,0,0,1-.648-.772,9.8,9.8,0,1,1,17.406-7.942.582.582,0,1,0,1.138-.242,10.961,10.961,0,1,0-19.473,8.884,11.226,11.226,0,0,0,.725.863A10.976,10.976,0,0,0,1323.505,738.294Z" transform="translate(-1298.035 -710.611)" fill="#bdd0fb"/>
        </g>
      </g>
    </g>
    <g id="Grupo_152141" data-name="Grupo 152141" transform="translate(437.146 515.134)">
      <g id="Grupo_152120" data-name="Grupo 152120" transform="translate(0 0)">
        <path id="Trazado_205123" data-name="Trazado 205123" d="M1574.945,2595.8l-5.686,39.24h65.97l-8.593-39.24Z" transform="translate(-1464.128 -2457.136)" fill="#15616d"/>
        <path id="Trazado_205124" data-name="Trazado 205124" d="M437.146,1115.584v116.8a17.718,17.718,0,0,0,17.261,17.713c42.659,1.1,191.861,3.767,232.469,3.169a13.037,13.037,0,0,0,12.835-12.666c.783-27.133,2.055-92.379-2.651-122.67a13.416,13.416,0,0,0-12.828-11.355c-35.743-1.143-193.906-4.774-234.5-3.863A12.878,12.878,0,0,0,437.146,1115.584Z" transform="translate(-437.146 -1102.561)" fill="#15616d"/>
        <path id="Trazado_205125" data-name="Trazado 205125" d="M516.063,1159.341V1270.3a10.265,10.265,0,0,0,10.112,10.264l226.448,2.8a9.991,9.991,0,0,0,10.14-9.953l.379-109.972a7.306,7.306,0,0,0-7.129-7.332l-231.84-4.684A7.917,7.917,0,0,0,516.063,1159.341Z" transform="translate(-508.734 -1146.886)" fill="#91b3fa"/>
        <path id="Trazado_205126" data-name="Trazado 205126" d="M761.4,2573.741h-.005l-248.4-4.232a.314.314,0,0,1-.309-.319.319.319,0,0,1,.319-.309l248.4,4.232a.314.314,0,0,1-.005.628Z" transform="translate(-505.667 -2432.714)" fill="#91b3fa"/>
        <path id="Trazado_205127" data-name="Trazado 205127" d="M1851.613,2620.255a2.9,2.9,0,1,1,2.9-2.9A2.9,2.9,0,0,1,1851.613,2620.255Zm0-5.169a2.271,2.271,0,1,0,2.271,2.271A2.273,2.273,0,0,0,1851.613,2615.086Z" transform="translate(-1717.632 -2474.059)" fill="#91b3fa"/>
        <path id="Trazado_205128" data-name="Trazado 205128" d="M1448.821,2991.077h-96.551c-2.623,0-4.593-1.867-4.086-3.873l1.239-4.9a4,4,0,0,1,3.919-2.615l93.079-2.9c2.012-.063,3.793,1,4.231,2.536l2.233,7.8C1453.465,2989.152,1451.486,2991.077,1448.821,2991.077Z" transform="translate(-1263.51 -2802.736)" fill="#15616d"/>
        <path id="Trazado_205129" data-name="Trazado 205129" d="M1949.594,3015.668a.314.314,0,0,1,0-.628l3.989-.058a.321.321,0,0,1,.319.309.313.313,0,0,1-.31.318l-3.989.059Z" transform="translate(-1808.858 -2837.389)" fill="#91b3fa"/>
        <path id="Trazado_205130" data-name="Trazado 205130" d="M1384.386,3024.459a.289.289,0,0,1-.05,0,.314.314,0,0,1-.26-.359l.569-3.564a3.975,3.975,0,0,1,3.873-3.354l42.3-.619h0a.314.314,0,0,1,0,.628l-42.3.619a3.348,3.348,0,0,0-3.263,2.824l-.569,3.564A.314.314,0,0,1,1384.386,3024.459Z" transform="translate(-1296.137 -2838.82)" fill="#91b3fa"/>
      </g>
      <g id="Grupo_152122" data-name="Grupo 152122" transform="translate(133.044 20.211)">
        <g id="Grupo_152121" data-name="Grupo 152121" opacity="0.53">
          <rect id="Rectángulo_44806" data-name="Rectángulo 44806" width="5.956" height="105.053" fill="#fff"/>
          <rect id="Rectángulo_44807" data-name="Rectángulo 44807" width="5.956" height="105.053" transform="translate(9.952)" fill="#fff"/>
          <rect id="Rectángulo_44808" data-name="Rectángulo 44808" width="5.956" height="105.053" transform="translate(19.904)" fill="#fff"/>
          <rect id="Rectángulo_44809" data-name="Rectángulo 44809" width="5.956" height="105.053" transform="translate(29.856)" fill="#fff"/>
          <rect id="Rectángulo_44810" data-name="Rectángulo 44810" width="5.956" height="105.053" transform="translate(39.807)" fill="#fff"/>
          <rect id="Rectángulo_44811" data-name="Rectángulo 44811" width="5.956" height="105.053" transform="translate(49.759)" fill="#fff"/>
          <rect id="Rectángulo_44812" data-name="Rectángulo 44812" width="5.956" height="105.053" transform="translate(59.711)" fill="#fff"/>
        </g>
        <rect id="Rectángulo_44813" data-name="Rectángulo 44813" width="5.956" height="54.978" transform="translate(0 50.075)" fill="url(#linear-gradient)"/>
        <rect id="Rectángulo_44814" data-name="Rectángulo 44814" width="5.956" height="36.083" transform="translate(9.952 68.97)" fill="url(#linear-gradient-2)"/>
        <rect id="Rectángulo_44815" data-name="Rectángulo 44815" width="5.956" height="82.781" transform="translate(19.904 22.272)" fill="url(#linear-gradient-3)"/>
        <rect id="Rectángulo_44816" data-name="Rectángulo 44816" width="5.956" height="19.887" transform="translate(29.856 85.165)" fill="url(#linear-gradient-4)"/>
        <rect id="Rectángulo_44817" data-name="Rectángulo 44817" width="5.956" height="71.714" transform="translate(39.807 33.339)" fill="url(#linear-gradient-5)"/>
        <rect id="Rectángulo_44818" data-name="Rectángulo 44818" width="5.956" height="59.297" transform="translate(49.759 45.756)" fill="url(#linear-gradient-6)"/>
        <rect id="Rectángulo_44819" data-name="Rectángulo 44819" width="5.956" height="45.8" transform="translate(59.711 59.252)" fill="url(#linear-gradient-7)"/>
      </g>
      <g id="Grupo_152132" data-name="Grupo 152132" transform="translate(20.344 15.411)">
        <g id="Grupo_152125" data-name="Grupo 152125">
          <g id="Grupo_152124" data-name="Grupo 152124">
            <path id="Trazado_205131" data-name="Trazado 205131" d="M670.692,1268.51a14.469,14.469,0,1,0,14.469,14.469A14.469,14.469,0,0,0,670.692,1268.51Zm0,22.713a8.243,8.243,0,1,1,8.243-8.243A8.243,8.243,0,0,1,670.692,1291.223Z" transform="translate(-656.223 -1268.51)" fill="#fff" opacity="0.57"/>
            <g id="Grupo_152123" data-name="Grupo 152123" clip-path="url(#clip-path)">
              <rect id="Rectángulo_44820" data-name="Rectángulo 44820" width="42.98" height="18.189" transform="translate(-5.737 11.287)" fill="#ff7d00"/>
            </g>
          </g>
        </g>
        <g id="Grupo_152128" data-name="Grupo 152128" transform="translate(35.272)">
          <g id="Grupo_152127" data-name="Grupo 152127">
            <path id="Trazado_205133" data-name="Trazado 205133" d="M1050.516,1268.51a14.469,14.469,0,1,0,14.469,14.469A14.469,14.469,0,0,0,1050.516,1268.51Zm0,22.713a8.243,8.243,0,1,1,8.243-8.243A8.243,8.243,0,0,1,1050.516,1291.223Z" transform="translate(-1036.047 -1268.51)" fill="#fff" opacity="0.57"/>
            <g id="Grupo_152126" data-name="Grupo 152126" clip-path="url(#clip-path-2)">
              <rect id="Rectángulo_44821" data-name="Rectángulo 44821" width="42.981" height="25.22" transform="translate(-5.737 4.256)" fill="#ff7d00"/>
            </g>
          </g>
        </g>
        <g id="Grupo_152131" data-name="Grupo 152131" transform="translate(70.543)">
          <g id="Grupo_152130" data-name="Grupo 152130">
            <path id="Trazado_205135" data-name="Trazado 205135" d="M1430.339,1268.51a14.469,14.469,0,1,0,14.469,14.469A14.469,14.469,0,0,0,1430.339,1268.51Zm0,22.713a8.243,8.243,0,1,1,8.244-8.243A8.243,8.243,0,0,1,1430.339,1291.223Z" transform="translate(-1415.87 -1268.51)" fill="#fff" opacity="0.57"/>
            <g id="Grupo_152129" data-name="Grupo 152129" clip-path="url(#clip-path-3)">
              <rect id="Rectángulo_44822" data-name="Rectángulo 44822" width="42.98" height="9.095" transform="translate(-5.737 20.382)" fill="#ff7d00"/>
            </g>
          </g>
        </g>
      </g>
      <g id="Grupo_152133" data-name="Grupo 152133" transform="translate(20.344 70.794)">
        <path id="Trazado_205137" data-name="Trazado 205137" d="M752.346,1919.962l-92.815-.7a3.333,3.333,0,0,1-3.308-3.333v-47.687a3.333,3.333,0,0,1,3.333-3.333h92.815a3.333,3.333,0,0,1,3.333,3.333v48.384A3.334,3.334,0,0,1,752.346,1919.962Z" transform="translate(-656.223 -1864.912)" fill="#fff" opacity="0.44"/>
        <path id="Trazado_205138" data-name="Trazado 205138" d="M771.929,1973.5l-11.935-12.619-17.113,18.613-12.075-13.029-11.325,12.8-8.685-10.551-17.115,17.819v12.885a3.1,3.1,0,0,0,3.077,3.1l86.324.649a3.1,3.1,0,0,0,3.124-3.1v-35.055Z" transform="translate(-690.203 -1951.969)" fill="#fff" opacity="0.44"/>
        <rect id="Rectángulo_44823" data-name="Rectángulo 44823" width="0.314" height="30.021" transform="translate(81.8 21.18)" fill="#fff"/>
        <rect id="Rectángulo_44824" data-name="Rectángulo 44824" width="0.314" height="42.115" transform="translate(69.635 8.912)" fill="#fff"/>
        <rect id="Rectángulo_44825" data-name="Rectángulo 44825" width="0.314" height="23.6" transform="translate(52.522 27.298)" fill="#fff"/>
        <rect id="Rectángulo_44826" data-name="Rectángulo 44826" width="0.314" height="35.941" transform="translate(40.767 14.957)" fill="#fff"/>
        <rect id="Rectángulo_44827" data-name="Rectángulo 44827" width="0.314" height="23.983" transform="translate(29.121 26.916)" fill="#fff"/>
        <rect id="Rectángulo_44828" data-name="Rectángulo 44828" width="0.314" height="34.816" transform="translate(20.621 15.852)" fill="#fff"/>
        <circle id="Elipse_5434" data-name="Elipse 5434" cx="2.623" cy="2.623" r="2.623" transform="translate(17.351 17.272) rotate(-67.5)" fill="#ff7d00"/>
        <path id="Trazado_205139" data-name="Trazado 205139" d="M956.358,2137.877a1.728,1.728,0,1,1-1.728-1.728A1.728,1.728,0,0,1,956.358,2137.877Z" transform="translate(-925.352 -2110.962)" fill="#ff7d00"/>
        <path id="Trazado_205140" data-name="Trazado 205140" d="M1081.766,2009.107a1.728,1.728,0,1,1-1.728-1.728A1.728,1.728,0,0,1,1081.766,2009.107Z" transform="translate(-1039.115 -1994.149)" fill="#ff7d00"/>
        <path id="Trazado_205141" data-name="Trazado 205141" d="M1208.346,2142a1.728,1.728,0,1,1-1.728-1.728A1.728,1.728,0,0,1,1208.346,2142Z" transform="translate(-1153.94 -2114.698)" fill="#ff7d00"/>
        <path id="Trazado_205142" data-name="Trazado 205142" d="M1392.63,1944a1.728,1.728,0,1,1-1.728-1.728A1.728,1.728,0,0,1,1392.63,1944Z" transform="translate(-1321.111 -1935.093)" fill="#ff7d00"/>
        <path id="Trazado_205143" data-name="Trazado 205143" d="M1523.629,2076.11a1.728,1.728,0,1,1-1.728-1.728A1.728,1.728,0,0,1,1523.629,2076.11Z" transform="translate(-1439.945 -2054.93)" fill="url(#linear-gradient-8)"/>
      </g>
      <g id="Grupo_152134" data-name="Grupo 152134" transform="translate(19.793 50.97)" opacity="0.48">
        <path id="Trazado_205144" data-name="Trazado 205144" d="M677.656,1779.418H652.213c-1.064,0-1.927.6-1.927,1.342s.863,1.342,1.927,1.342h25.443c1.064,0,1.927-.6,1.927-1.342S678.721,1779.418,677.656,1779.418Z" transform="translate(-650.286 -1767.533)" fill="#fff"/>
        <path id="Trazado_205145" data-name="Trazado 205145" d="M677.656,1715.424H652.213c-1.064,0-1.927.6-1.927,1.342s.863,1.342,1.927,1.342h25.443c1.064,0,1.927-.6,1.927-1.342S678.721,1715.424,677.656,1715.424Z" transform="translate(-650.286 -1709.481)" fill="#fff"/>
        <path id="Trazado_205146" data-name="Trazado 205146" d="M677.656,1651.431H652.213c-1.064,0-1.927.6-1.927,1.342s.863,1.342,1.927,1.342h25.443c1.064,0,1.927-.6,1.927-1.342S678.721,1651.431,677.656,1651.431Z" transform="translate(-650.286 -1651.431)" fill="#fff"/>
      </g>
      <g id="Grupo_152135" data-name="Grupo 152135" transform="translate(55.16 50.97)" opacity="0.48">
        <path id="Trazado_205147" data-name="Trazado 205147" d="M1058.514,1779.418h-25.443c-1.064,0-1.927.6-1.927,1.342s.863,1.342,1.927,1.342h25.443c1.064,0,1.927-.6,1.927-1.342S1059.579,1779.418,1058.514,1779.418Z" transform="translate(-1031.144 -1767.533)" fill="#fff"/>
        <path id="Trazado_205148" data-name="Trazado 205148" d="M1058.514,1715.424h-25.443c-1.064,0-1.927.6-1.927,1.342s.863,1.342,1.927,1.342h25.443c1.064,0,1.927-.6,1.927-1.342S1059.579,1715.424,1058.514,1715.424Z" transform="translate(-1031.144 -1709.481)" fill="#fff"/>
        <path id="Trazado_205149" data-name="Trazado 205149" d="M1058.514,1651.431h-25.443c-1.064,0-1.927.6-1.927,1.342s.863,1.342,1.927,1.342h25.443c1.064,0,1.927-.6,1.927-1.342S1059.579,1651.431,1058.514,1651.431Z" transform="translate(-1031.144 -1651.431)" fill="#fff"/>
      </g>
      <g id="Grupo_152136" data-name="Grupo 152136" transform="translate(90.528 50.97)" opacity="0.48">
        <path id="Trazado_205150" data-name="Trazado 205150" d="M1439.373,1779.418H1413.93c-1.064,0-1.927.6-1.927,1.342s.863,1.342,1.927,1.342h25.443c1.064,0,1.927-.6,1.927-1.342S1440.438,1779.418,1439.373,1779.418Z" transform="translate(-1412.003 -1767.533)" fill="#fff"/>
        <path id="Trazado_205151" data-name="Trazado 205151" d="M1439.373,1715.424H1413.93c-1.064,0-1.927.6-1.927,1.342s.863,1.342,1.927,1.342h25.443c1.064,0,1.927-.6,1.927-1.342S1440.438,1715.424,1439.373,1715.424Z" transform="translate(-1412.003 -1709.481)" fill="#fff"/>
        <path id="Trazado_205152" data-name="Trazado 205152" d="M1439.373,1651.431H1413.93c-1.064,0-1.927.6-1.927,1.342s.863,1.342,1.927,1.342h25.443c1.064,0,1.927-.6,1.927-1.342S1440.438,1651.431,1439.373,1651.431Z" transform="translate(-1412.003 -1651.431)" fill="#fff"/>
      </g>
      <g id="Grupo_152140" data-name="Grupo 152140" transform="translate(208.847 13.951)">
        <g id="Grupo_152137" data-name="Grupo 152137" transform="translate(0.051 37.839)">
          <circle id="Elipse_5435" data-name="Elipse 5435" cx="11.773" cy="11.773" r="11.773" transform="translate(0 16.649) rotate(-45)" fill="url(#linear-gradient-9)"/>
          <path id="Trazado_205153" data-name="Trazado 205153" d="M2780.372,1748.25a7.562,7.562,0,1,1-7-4.688c.128,0,.255,0,.381.01v-1.917c-.126,0-.253-.008-.381-.008a9.47,9.47,0,1,0,8.754,5.84Z" transform="translate(-2756.727 -1734.089)" fill="#91b3fa"/>
          <path id="Trazado_205154" data-name="Trazado 205154" d="M2761.452,2020.035h-19.185a2.181,2.181,0,0,0,0,4.361h19.185a2.181,2.181,0,0,0,0-4.361Z" transform="translate(-2735.126 -1986.626)" fill="#fff" opacity="0.5"/>
        </g>
        <g id="Grupo_152138" data-name="Grupo 152138" transform="translate(0 0)">
          <circle id="Elipse_5436" data-name="Elipse 5436" cx="11.773" cy="11.773" r="11.773" transform="translate(0 16.649) rotate(-45)" fill="url(#linear-gradient-9)"/>
          <path id="Trazado_205155" data-name="Trazado 205155" d="M2776.568,1350.052a7.562,7.562,0,1,1-4.029-13.96c.128,0,.255,0,.381.01v-1.917c-.126-.005-.253-.008-.381-.008a9.478,9.478,0,1,0,4.979,17.542Z" transform="translate(-2755.917 -1326.619)" fill="#91b3fa"/>
          <path id="Trazado_205156" data-name="Trazado 205156" d="M2762,1612.565h-19.185a2.18,2.18,0,0,0,0,4.361H2762a2.18,2.18,0,1,0,0-4.361Z" transform="translate(-2735.571 -1579.156)" fill="#fff" opacity="0.5"/>
        </g>
        <g id="Grupo_152139" data-name="Grupo 152139" transform="translate(0.093 75.871)">
          <circle id="Elipse_5437" data-name="Elipse 5437" cx="11.773" cy="11.773" r="11.773" transform="translate(0 16.649) rotate(-45)" fill="#fff" opacity="0.91"/>
          <path id="Trazado_205157" data-name="Trazado 205157" d="M2781.782,2160.771a7.562,7.562,0,1,1-6.254-11.814c.128,0,.255,0,.381.01v-1.917c-.127,0-.254-.008-.381-.008a9.477,9.477,0,1,0,7.806,14.853Z" transform="translate(-2758.721 -2139.87)" fill="url(#linear-gradient-11)"/>
          <path id="Trazado_205158" data-name="Trazado 205158" d="M2741.815,2429.79H2761a2.18,2.18,0,1,0,0-4.361h-19.185a2.18,2.18,0,0,0,0,4.361Z" transform="translate(-2734.758 -2392.406)" fill="#fff" opacity="0.5"/>
        </g>
      </g>
    </g>
    <g id="Grupo_152146" data-name="Grupo 152146" transform="translate(622.109 568.647)">
      <path id="Trazado_205159" data-name="Trazado 205159" d="M2748.575,3163.3s.508,2.876.757,5.723a1.961,1.961,0,0,1-1.877,2.125c-3.792.158-11.9.465-14.813.335a.638.638,0,0,1-.562-.874,1.43,1.43,0,0,1,.731-.77l13.4-6.157Z" transform="translate(-2703.888 -3025.443)" fill="url(#linear-gradient-12)"/>
      <path id="Trazado_205160" data-name="Trazado 205160" d="M2872.058,3139.907l-.408,3.441s-2.347,1.092-3.95-.138l.972-3.834Z" transform="translate(-2826.954 -3003.744)" fill="url(#linear-gradient-13)"/>
      <path id="Trazado_205161" data-name="Trazado 205161" d="M2874.506,2448.54c.176.9.947,44.836-3.75,64.526a.668.668,0,0,0,.392.777,11.639,11.639,0,0,0,3.825.778,1.152,1.152,0,0,0,1.142-.826c1.343-4.568,7.775-27.457,8.615-49.322.938-24.432,0-.832,0-.832l-.55-15.1Z" transform="translate(-2829.71 -2377.06)" fill="url(#linear-gradient-14)"/>
      <path id="Trazado_205162" data-name="Trazado 205162" d="M3023.6,3179.455a20.692,20.692,0,0,1,1.592,5.311,1.2,1.2,0,0,1-1.053,1.433c-1.252.123-3.179.281-4.723.271a1.194,1.194,0,0,1-1.182-1.332,10.064,10.064,0,0,1,2.35-5.52Z" transform="translate(-2963.5 -3040.102)" fill="url(#linear-gradient-15)"/>
      <path id="Trazado_205163" data-name="Trazado 205163" d="M3047,3129.826l-.954,5.2a3.364,3.364,0,0,1-2.809.193l.455-5.6Z" transform="translate(-2986.189 -2994.898)" fill="url(#linear-gradient-16)"/>
      <path id="Trazado_205164" data-name="Trazado 205164" d="M2926.117,2439.323c3.841,23.182-.833,57.3-2.409,63.972a1.041,1.041,0,0,1-.841.791,6.991,6.991,0,0,1-3-.12.954.954,0,0,1-.686-.879c-.211-5.4.169-38.537-3.41-51.634a2.977,2.977,0,0,0-1.147-1.641l-6.947-4.938-.532-7.983Z" transform="translate(-2862.732 -2366.494)" fill="url(#linear-gradient-17)"/>
      <g id="Grupo_152142" data-name="Grupo 152142" transform="translate(4.908 11.076)">
        <path id="Trazado_205165" data-name="Trazado 205165" d="M2685.605,1971.688c11.511-.19,24.213,3.022,24.213,3.022,3.431,20.021.6,43.115.6,43.115-8.912,2.337-18.964-1.429-18.964-1.429-1.482-8.368-8.392-31.92-8.392-31.92a37.92,37.92,0,0,1-14.073-4.466,24.682,24.682,0,0,0,4.878-10.2A38.622,38.622,0,0,0,2685.605,1971.688Z" transform="translate(-2651.603 -1953.861)" fill="#e6f1ff"/>
        <path id="Trazado_205166" data-name="Trazado 205166" d="M2481.777,1798.963a2.2,2.2,0,0,1,2.562-.719c1.694,7.156,10.576,12.957,19.7,15.793a24.684,24.684,0,0,1-4.878,10.2C2484.018,1815.726,2481.777,1798.963,2481.777,1798.963Z" transform="translate(-2481.777 -1798.091)" fill="url(#linear-gradient-18)"/>
      </g>
      <g id="Grupo_152143" data-name="Grupo 152143">
        <path id="Trazado_205167" data-name="Trazado 205167" d="M2434.112,1691.116c-.118.376,1.252.949,2.059-.59.028-.737.477-3.9.036-4.5a58.818,58.818,0,0,0-6.9-7.209,1.082,1.082,0,0,0-.135,1.5l2.207,2.3a10.682,10.682,0,0,0-1.289,2.547,3.09,3.09,0,0,0,.308,2.276c.387.7.916,1.605,1.416,2.315A3.054,3.054,0,0,0,2434.112,1691.116Z" transform="translate(-2428.93 -1678.821)" fill="url(#linear-gradient-19)"/>
        <path id="Trazado_205168" data-name="Trazado 205168" d="M2461.387,1735.837l2.011,1.7.631,1.7-1.793,1.989a23.119,23.119,0,0,0-1.051-4.1C2460.738,1736.4,2460.97,1736.05,2461.387,1735.837Z" transform="translate(-2457.97 -1730.542)" fill="url(#linear-gradient-20)"/>
      </g>
      <path id="Trazado_205169" data-name="Trazado 205169" d="M3061.119,2033.765l4.416-11.146s10.752,7.306,12.52,16.568a25.446,25.446,0,0,0-9.347,2.505C3067.912,2037.319,3061.119,2033.765,3061.119,2033.765Z" transform="translate(-3002.412 -1990.693)" fill="#e6f1ff"/>
      <path id="Trazado_205170" data-name="Trazado 205170" d="M2944.33,2206.1s12.072,6.823,16.145,1a4.578,4.578,0,0,0,.839-3.558,25.436,25.436,0,0,1,9.347-2.505,12.782,12.782,0,0,1-1.39,8.764c-7.135,13.052-26.54-.721-26.54-.721Z" transform="translate(-2895.019 -2152.542)" fill="url(#linear-gradient-21)"/>
      <g id="Grupo_152144" data-name="Grupo 152144" transform="translate(20.603 35.037)">
        <path id="Trazado_205171" data-name="Trazado 205171" d="M2680.957,2105.1l-6.589-23.009a.671.671,0,0,0-.567-.483c-1.194-.139-4.653-.53-8.646-.868a98.131,98.131,0,0,0-13.735-.456.673.673,0,0,0-.55.969c1.9,3.841,9.707,19.463,13.617,24.581a.675.675,0,0,0,.543.267l15.286-.142A.673.673,0,0,0,2680.957,2105.1Z" transform="translate(-2650.799 -2077.95)" fill="url(#linear-gradient-22)"/>
        <path id="Trazado_205172" data-name="Trazado 205172" d="M2747.465,2056.918l-4.777-.8a.343.343,0,0,0-.382.446l.473,1.433a.342.342,0,0,0,.28.232l4.6.614a.342.342,0,0,0,.379-.418l-.292-1.251A.343.343,0,0,0,2747.465,2056.918Z" transform="translate(-2733.793 -2056.117)" fill="url(#linear-gradient-23)"/>
        <path id="Trazado_205173" data-name="Trazado 205173" d="M2729.281,2074.944l-.394-2.05a.473.473,0,0,0-.417-.382l-9.648-.979a.474.474,0,0,0-.508.582l.613,2.554a.475.475,0,0,0,.437.363l9.428.475A.474.474,0,0,0,2729.281,2074.944Z" transform="translate(-2712.031 -2070.1)" fill="url(#linear-gradient-24)"/>
        <path id="Trazado_205174" data-name="Trazado 205174" d="M2878.879,2212.044s.918-3.774.547-5.113-1.087-3.06-3.478-2.677a34.959,34.959,0,0,0-5.211,1.39,1.369,1.369,0,0,0,1.959,1.181l-1.126.872s.161,1.4,1.7.65l-1.048,1.156a1.221,1.221,0,0,0,1.788.411C2875.135,2209.179,2875.676,2212.5,2878.879,2212.044Z" transform="translate(-2850.313 -2190.448)" fill="url(#linear-gradient-25)"/>
      </g>
      <path id="Trazado_205175" data-name="Trazado 205175" d="M2900.664,1889.436l3.663,10.592a.381.381,0,0,1-.174.459,8.609,8.609,0,0,1-8.93-.6,1.8,1.8,0,0,1-.828-1.283l-1.186-9.167Z" transform="translate(-2850.095 -1869.878)" fill="url(#linear-gradient-26)"/>
      <g id="Grupo_152145" data-name="Grupo 152145" transform="translate(37.674 3.271)">
        <path id="Trazado_205176" data-name="Trazado 205176" d="M2850.49,1765.091c-.11.153-3.552,12.151-3.552,12.151l6.892,1.82,4.952-10.886S2852.336,1762.526,2850.49,1765.091Z" transform="translate(-2845.793 -1759.745)" fill="url(#linear-gradient-27)"/>
        <path id="Trazado_205177" data-name="Trazado 205177" d="M2844.872,1723.285a1.027,1.027,0,0,1,.1.9l-2.127,5.849a.978.978,0,0,1-.131.248c-.306.421-1.39,1.682-2.647.495a9.039,9.039,0,0,0-3-2.2,1.023,1.023,0,0,0-1.27.71,38.247,38.247,0,0,0-1.161,5.52,1.019,1.019,0,0,0,.821,1.114,28.4,28.4,0,0,0,6.377.59,1.023,1.023,0,0,0,.872-.589c.707-1.506,2.706-5.718,3.453-6.821.694-1.024,2.345-1.009,3.1-.942a1.03,1.03,0,0,0,.783-.261,2.256,2.256,0,0,0,.18-3.532,1.025,1.025,0,0,1,.046-1.427,2.266,2.266,0,0,0,.24-3.32,3.194,3.194,0,0,0-3.718-1,1.063,1.063,0,0,1-1.213-.4.676.676,0,0,0-.6-.308.994.994,0,0,1-1.012-.993,2.623,2.623,0,0,0-2.01-2.671c-3.009-.968-4.918,1.93-5.125,4.1s3.115,3.037,5.074,2.909C2843.339,1721.16,2844.406,1722.544,2844.872,1723.285Z" transform="translate(-2834.621 -1714.049)" fill="url(#linear-gradient-28)"/>
        <path id="Trazado_205178" data-name="Trazado 205178" d="M2950.086,1860.6s.523-3.772,2.1-3.943,3.09,1.135,1.508,3.24C2951.722,1862.515,2950.086,1860.6,2950.086,1860.6Z" transform="translate(-2939.364 -1843.399)" fill="url(#linear-gradient-29)"/>
      </g>
    </g>
  </g>
</svg>
