<svg xmlns="http://www.w3.org/2000/svg" xmlns:xlink="http://www.w3.org/1999/xlink" width="344.564" height="236.747" viewBox="0 0 344.564 236.747">
  <defs>
    <linearGradient id="linear-gradient" x1="0.688" y1="-0.348" x2="0.877" y2="-1.468" gradientUnits="objectBoundingBox">
      <stop offset="0" stop-color="#4042e2"/>
      <stop offset="1" stop-color="#4f52ff"/>
    </linearGradient>
    <linearGradient id="linear-gradient-2" x1="-0.117" y1="2.313" x2="0.431" y2="0.946" xlink:href="#linear-gradient"/>
    <linearGradient id="linear-gradient-3" x1="1.001" y1="-5.077" x2="0.814" y2="-3.048" gradientUnits="objectBoundingBox">
      <stop offset="0" stop-color="#09005d"/>
      <stop offset="1" stop-color="#1a0f91"/>
    </linearGradient>
    <linearGradient id="linear-gradient-4" x1="0.464" y1="0.304" x2="0.798" y2="2.219" gradientUnits="objectBoundingBox">
      <stop offset="0" stop-color="#e1473d"/>
      <stop offset="1" stop-color="#e9605a"/>
    </linearGradient>
    <linearGradient id="linear-gradient-5" x1="0.464" y1="0.307" x2="0.799" y2="2.221" xlink:href="#linear-gradient-4"/>
    <linearGradient id="linear-gradient-6" x1="0.883" y1="-0.025" x2="0.347" y2="0.708" xlink:href="#linear-gradient-3"/>
    <linearGradient id="linear-gradient-7" x1="0.405" y1="0.78" x2="-0.227" y2="1.866" xlink:href="#linear-gradient"/>
    <linearGradient id="linear-gradient-8" x1="0.638" y1="-2.493" x2="0.576" y2="-1.171" xlink:href="#linear-gradient"/>
    <linearGradient id="linear-gradient-9" x1="0.721" y1="0.212" x2="0.27" y2="0.899" gradientUnits="objectBoundingBox">
      <stop offset="0" stop-color="#ff928e"/>
      <stop offset="1" stop-color="#feb3b1"/>
    </linearGradient>
    <linearGradient id="linear-gradient-10" x1="1.002" y1="-0.401" x2="0.571" y2="0.489" xlink:href="#linear-gradient-9"/>
    <linearGradient id="linear-gradient-11" x1="0.918" y1="-0.234" x2="-1.113" y2="3.878" xlink:href="#linear-gradient-9"/>
    <linearGradient id="linear-gradient-12" x1="0.354" y1="-0.696" x2="0.52" y2="0.621" xlink:href="#linear-gradient-9"/>
    <linearGradient id="linear-gradient-13" x1="0.39" y1="-0.467" x2="0.567" y2="0.954" xlink:href="#linear-gradient-3"/>
    <linearGradient id="linear-gradient-14" x1="-0.132" y1="-2.901" x2="0.651" y2="1.264" xlink:href="#linear-gradient-9"/>
    <linearGradient id="linear-gradient-15" x1="0.858" y1="1.126" x2="0.373" y2="0.286" xlink:href="#linear-gradient-3"/>
    <linearGradient id="linear-gradient-16" x1="0.862" y1="-5.121" x2="0.85" y2="-4.94" xlink:href="#linear-gradient-3"/>
    <linearGradient id="linear-gradient-17" x1="-0.178" y1="-6.61" x2="0.195" y2="-2.702" xlink:href="#linear-gradient-4"/>
    <linearGradient id="linear-gradient-18" x1="0.274" y1="-7.138" x2="0.395" y2="-3.055" xlink:href="#linear-gradient-4"/>
    <linearGradient id="linear-gradient-19" x1="0.362" y1="-7.211" x2="0.429" y2="-3.482" xlink:href="#linear-gradient-4"/>
    <linearGradient id="linear-gradient-20" x1="0.247" y1="-0.355" x2="0.782" y2="1.542" xlink:href="#linear-gradient-3"/>
    <linearGradient id="linear-gradient-21" x1="-60.545" y1="0.5" x2="-59.545" y2="0.5" xlink:href="#linear-gradient-9"/>
    <linearGradient id="linear-gradient-22" x1="0.937" y1="0.697" x2="0.007" y2="0.175" xlink:href="#linear-gradient-3"/>
    <linearGradient id="linear-gradient-23" x1="0.879" y1="-2.018" x2="0.626" y2="-0.299" xlink:href="#linear-gradient-3"/>
    <linearGradient id="linear-gradient-24" x1="0.467" y1="2.02" x2="0.549" y2="-1.942" xlink:href="#linear-gradient"/>
    <linearGradient id="linear-gradient-25" x1="-66.119" y1="0.5" x2="-65.119" y2="0.5" xlink:href="#linear-gradient-9"/>
    <linearGradient id="linear-gradient-26" x1="-10.609" y1="1.035" x2="-10.571" y2="0.189" xlink:href="#linear-gradient-3"/>
    <linearGradient id="linear-gradient-27" x1="-16.489" y1="0.5" x2="-15.489" y2="0.5" xlink:href="#linear-gradient-9"/>
    <linearGradient id="linear-gradient-28" x1="-28.234" y1="0.5" x2="-27.234" y2="0.5" xlink:href="#linear-gradient-9"/>
    <linearGradient id="linear-gradient-29" x1="1.807" y1="-2.708" x2="1.117" y2="-1.019" xlink:href="#linear-gradient-4"/>
    <linearGradient id="linear-gradient-30" x1="0.712" y1="-3.379" x2="0.646" y2="-2.065" xlink:href="#linear-gradient-9"/>
    <linearGradient id="linear-gradient-31" x1="-28.294" y1="-21.12" x2="-29.912" y2="-19.768" xlink:href="#linear-gradient-9"/>
    <linearGradient id="linear-gradient-32" x1="-15.832" y1="-12.695" x2="-14.784" y2="-12.695" xlink:href="#linear-gradient-3"/>
    <linearGradient id="linear-gradient-33" x1="-79.551" y1="-58.048" x2="-76.299" y2="-60.436" xlink:href="#linear-gradient-9"/>
    <linearGradient id="linear-gradient-34" x1="67.69" y1="51.486" x2="66.951" y2="53.922" xlink:href="#linear-gradient-3"/>
    <linearGradient id="linear-gradient-35" x1="0.142" y1="1.208" x2="0.715" y2="0.111" xlink:href="#linear-gradient-3"/>
    <linearGradient id="linear-gradient-36" x1="0" y1="0.5" x2="1" y2="0.5" xlink:href="#linear-gradient-3"/>
    <linearGradient id="linear-gradient-37" x1="0.152" y1="1.133" x2="1.116" y2="-1.146" xlink:href="#linear-gradient-9"/>
    <linearGradient id="linear-gradient-38" x1="-0.263" y1="1.647" x2="1.246" y2="-0.283" xlink:href="#linear-gradient-9"/>
    <linearGradient id="linear-gradient-39" x1="1.119" y1="-0.598" x2="0.029" y2="0.869" xlink:href="#linear-gradient-9"/>
    <linearGradient id="linear-gradient-40" x1="0.986" y1="0.153" x2="-1.224" y2="2.844" xlink:href="#linear-gradient-9"/>
    <linearGradient id="linear-gradient-41" x1="0" y1="0.5" x2="1" y2="0.5" xlink:href="#linear-gradient-9"/>
    <linearGradient id="linear-gradient-42" x1="1.44" y1="-0.93" x2="0.268" y2="0.668" xlink:href="#linear-gradient-9"/>
    <linearGradient id="linear-gradient-43" x1="-26.419" y1="-6.233" x2="-26.434" y2="-7.549" xlink:href="#linear-gradient-9"/>
    <linearGradient id="linear-gradient-44" x1="0.334" y1="0.258" x2="-0.501" y2="-1.677" xlink:href="#linear-gradient-4"/>
    <linearGradient id="linear-gradient-45" x1="-112.097" y1="-20.512" x2="-112.16" y2="-24.729" xlink:href="#linear-gradient-9"/>
    <linearGradient id="linear-gradient-46" x1="0.605" y1="0.828" x2="0.154" y2="-0.614" xlink:href="#linear-gradient-4"/>
    <linearGradient id="linear-gradient-47" x1="0.991" y1="-0.014" x2="0.193" y2="0.821" xlink:href="#linear-gradient-3"/>
    <linearGradient id="linear-gradient-48" x1="0.061" y1="-0.206" x2="1.123" y2="2.239" xlink:href="#linear-gradient-9"/>
    <linearGradient id="linear-gradient-49" x1="80.093" y1="15.71" x2="80.619" y2="14.413" xlink:href="#linear-gradient-9"/>
    <linearGradient id="linear-gradient-50" x1="62.123" y1="0.154" x2="62.852" y2="1.105" xlink:href="#linear-gradient-4"/>
    <linearGradient id="linear-gradient-51" x1="323.397" y1="49.623" x2="325.547" y2="45.389" xlink:href="#linear-gradient-9"/>
    <linearGradient id="linear-gradient-52" x1="1.004" y1="-1.553" x2="0.832" y2="-0.785" xlink:href="#linear-gradient-9"/>
    <linearGradient id="linear-gradient-53" x1="1.391" y1="-4.208" x2="1.03" y2="-2.118" xlink:href="#linear-gradient-9"/>
    <linearGradient id="linear-gradient-54" x1="1.201" y1="-1.825" x2="0.068" y2="2.268" xlink:href="#linear-gradient"/>
    <linearGradient id="linear-gradient-55" x1="0.992" y1="-1.488" x2="0.426" y2="0.798" gradientUnits="objectBoundingBox">
      <stop offset="0" stop-color="#53d8ff"/>
      <stop offset="1" stop-color="#3840f7"/>
    </linearGradient>
    <linearGradient id="linear-gradient-56" x1="1" y1="1.086" x2="0.433" y2="0.422" xlink:href="#linear-gradient"/>
    <linearGradient id="linear-gradient-57" x1="0.689" y1="0.128" x2="0.39" y2="1.264" xlink:href="#linear-gradient"/>
    <linearGradient id="linear-gradient-58" x1="0.059" y1="0.814" x2="0.72" y2="0.586" xlink:href="#linear-gradient"/>
  </defs>
  <g id="Grupo_156423" data-name="Grupo 156423" transform="translate(-627.718 -3956)">
    <path id="Trazado_205179" data-name="Trazado 205179" d="M549.532,240.251a24.408,24.408,0,0,0,22.52,5.945A31.613,31.613,0,0,1,598,251.317c17.9,12.334,27.861,28.213,19.827,41.8-4.169,7.049,1.3,24.583-9.154,32.583,1.852,6.914-20.247,33.4-59.137,45.158-36.41,10.942-118.41,7.542-141.81,0s-98.972-54.114-54.2-77.741c0,0-77.612-83.777-28.5-128.959,44.461-40.9,90.822-17.906,112.052-3.061a45.491,45.491,0,0,0,27.308,8.2c24.838-.676,70.789,4.606,68.934,53.272a14.349,14.349,0,0,0,10.122,14.278A15.073,15.073,0,0,1,549.532,240.251Z" transform="translate(338.878 3814.903)" fill="#0ab1cb"/>
    <g id="Grupo_152148" data-name="Grupo 152148" transform="translate(892.523 4070.701)">
      <path id="Trazado_205180" data-name="Trazado 205180" d="M1936.234,907.292c4.247-1.012,12.192,10.24,20.616,6.379l2.762-8.926s-11.564,1.635-15.968-1.092-1.761-4.786,1.376-4.448,11.089,4.784,14.406,2.747c0,0,2.616-1.633-.127-4.552s-.724-9.643,1.431-11.825c0,0-1.793.164-6.021-1.375s-8.374-3.391-10.058.307-1.94,9.21-4.441,9.264-4.13-10.076,3.162-13.567c0,0-6.538-2.961-8.642-2.186s-4.146,4.7-2.453,10.606.7,9.12-1.178,9.161-4.218-17.823,1.93-20.293c0,0-13.372-.283-14.865.526s-1.016,8.64,1.089,13.214.615,9.387-.972,10.5-.851-5.281-2.039-8.134-.778-15.555-.778-15.555-.9,1.557-5.423,2.134-11.645,4.172-10.834,6.908,7.192,14.9,7.73,19.187.059,7.841-1.643,5.98-2.478-7.384-4.2-11.178-7.369-12.995-5.794-15.406c0,0-11.361,4.594-11.607,16.1a23.994,23.994,0,0,0,8.621,7.607c5.243,2.464,7.335,3.732,7.128,5.739s-3.811.27-7.037-1.349-10.805-5.233-11.43-7.9c0,0,.642,17.335,12.367,18.924,11,1.49,12.267.275,12.383.118-.387.614-11.948,19.276,12.134,24.38,0,0-5.169-2.7-5-6.6s-3.372-9.847-.606-10.087,2.109,13.931,7.615,16.213,13.9-1.24,15.721-7.556a11.241,11.241,0,0,1-9.163-4.271c-3.713-4.73-7.434-12.114-2.872-10.8s11.9,15.311,15.9,15.657,10.664-12.086,10.664-12.086-2.1-.029-8.675-2.684-13.5-7.03-11.765-7.965,6.061,2.239,10.031,4.93,10.1,3.806,11.631,1.772,4.653-9.374,4.653-9.374-9.091-1.725-13.281-2.1S1931.987,908.3,1936.234,907.292Zm-21.7,16.63c-4.449-3.66.412-3.924,3.733-3.395C1920.786,920.929,1918.981,927.582,1914.532,923.922Zm8.531-6.856c-3-2.354-2.722-4.309-.605-4.232C1927.322,913.009,1926.063,919.419,1923.063,917.066Zm8.156-8.29c-1.708-1.172-2.053-2.063.1-3S1932.927,909.947,1931.219,908.776Z" transform="translate(-1880.972 -877.445)" fill="#e6f1ff"/>
    </g>
    <g id="Grupo_152149" data-name="Grupo 152149" transform="translate(627.718 4019.642)">
      <path id="Trazado_205181" data-name="Trazado 205181" d="M216.61,576.417c-2.993-4.474,6.6-18.484-1.479-26.56l-11.5.64s6.853,12.661,5.593,18.921-4.774,4.089-5.73.319.768-14.867-3.01-17.827c0,0-3.01-2.322-5.206,2.1s-10.832,4.976-14.279,3.422c0,0,.96,2,1,7.548s-.323,11.132,4.672,11.49,11.475-1.712,12.611,1.156-9.87,9.1-17.035,2.17c0,0-.614,8.826,1.184,10.924s7.209,2.773,13.309-1.718,10.239-4.722,11.091-2.571-18.785,12.525-24.278,6.481c0,0,5.413,15.573,6.989,16.951s10.42-2.534,14.8-6.93,10.583-4.741,12.555-3.386-5.737,3.25-8.524,5.848-17.641,7.576-17.641,7.576,2.184.367,4.794,5.35,9.82,11.664,12.633,9.554,14.132-14.708,18.853-17.169,9.035-3.434,7.615-.668-7.468,6.033-11.112,9.655S212.665,633.787,209.2,633c0,0,10.185,11.156,23.583,6.5,0,0,4.494-6.112,5.09-13.228s1.164-10.078,3.572-10.7,1.948,4.288,1.462,8.711-1.409,14.732-4.22,16.6c0,0,19.757-8.183,16.559-22.414-3-13.347-4.948-14.293-5.179-14.359.875.184,27.4,5.532,22.964-24.487,0,0-.9,7.133-5.485,8.609s-9.931,8.124-11.4,5.031,15.192-8.417,15.465-15.759-7.4-15.528-15.48-14.924a13.857,13.857,0,0,1-1,12.422c-3.872,6.321-10.807,13.79-11.242,7.953s12.582-20.328,11.266-25.1-18.544-7.135-18.544-7.135.868,2.439.622,11.177-2.326,18.622-4.153,17.015-.014-7.964,1.391-13.707.064-13.3-2.945-14.2-12.829-1.353-12.829-1.353,1.909,11.245,3.269,16.251S219.6,580.891,216.61,576.417Zm28.533,17.938c-2.319,6.712-4.712,1.209-5.525-2.856C239,588.414,247.462,587.644,245.143,594.356Zm-11.585-6.915c-1.432,4.476-3.81,5-4.631,2.516C227.042,584.261,234.99,582.965,233.558,587.441Zm-13.08-5.866c-.62,2.477-1.5,3.259-3.515,1.173S221.1,579.1,220.478,581.575Z" transform="translate(-181 -549.658)" fill="#e6f1ff"/>
    </g>
    <path id="Trazado_205182" data-name="Trazado 205182" d="M494.91,385.92a1.9,1.9,0,0,1-1.853-1.861c-.19-10.421-3.44-62.163-49.008-72.976-50.731-12.038-73.947,39.553-73.947,39.553S307.334,326.56,295.3,391.049c-39.357,9.446-49.583,60.845-23.984,85.961a22,22,0,0,0,15.217,6.3l246.48,2.22a16.228,16.228,0,0,0,15.7-11.606C556.412,447.935,566.5,387.6,494.91,385.92Z" transform="translate(382.327 3672.934)" fill="url(#linear-gradient)"/>
    <path id="Trazado_205183" data-name="Trazado 205183" d="M528.32,420.49a1.9,1.9,0,0,1-1.852-1.857c-.2-9.995-3.42-57.973-46.338-68.031-47.97-11.242-69.922,36.936-69.922,36.936s-59.352-22.483-70.735,37.739c-36.858,8.736-46.7,55.9-23.366,79.592,4.09,4.153,42.846,20.01,48.674,20.062h176l23.2-5.333c16.359-9.9,13.316-10.79,15.356-17.748C586.575,477.172,595.162,422.09,528.32,420.49Z" transform="translate(343.284 3639.468)" fill="url(#linear-gradient-2)"/>
    <g id="Grupo_152152" data-name="Grupo 152152" transform="translate(750.877 4043.467)">
      <path id="Trazado_205184" data-name="Trazado 205184" d="M1138.137,1245.993c-.047-.582-.641-1.085-1.647-1.489,1.093-.6,1.7-1.249,1.647-1.883-.155-1.918-6.228-2.993-13.565-2.4s-13.16,2.626-13.005,4.544c.047.582.641,1.085,1.647,1.489-1.094.6-1.7,1.249-1.647,1.883.047.582.641,1.085,1.647,1.489-1.094.6-1.7,1.249-1.647,1.883.047.582.641,1.085,1.647,1.489-1.094.6-1.7,1.249-1.647,1.883.068.848,1.3,1.531,3.277,1.978a17,17,0,0,0,.05,2.073c.287,3.534,4.262,6.3,9.519,6.3s9.808-3.778,9.859-7.323a17.867,17.867,0,0,0-.1-2.313c2.516-.84,4.048-1.866,3.967-2.861-.047-.582-.641-1.085-1.647-1.489,1.093-.6,1.7-1.249,1.647-1.883-.047-.582-.641-1.085-1.647-1.489C1137.584,1247.273,1138.188,1246.626,1138.137,1245.993Z" transform="translate(-1089.769 -1156.339)" fill="url(#linear-gradient-3)"/>
      <g id="Grupo_152151" data-name="Grupo 152151" transform="translate(23.755 88.342)">
        <path id="Trazado_205185" data-name="Trazado 205185" d="M1140.958,1342.372a31.694,31.694,0,0,1-5.82-.476.176.176,0,0,1,.066-.346,37.946,37.946,0,0,0,9.7.306,41.671,41.671,0,0,0,8.131-1.4.176.176,0,0,1,.1.339,42.034,42.034,0,0,1-8.2,1.415C1143.562,1342.317,1142.229,1342.372,1140.958,1342.372Z" transform="translate(-1133.305 -1329.432)" fill="#7d97f4"/>
        <path id="Trazado_205186" data-name="Trazado 205186" d="M1134.09,1315.714a27.685,27.685,0,0,1-7.146-.775.176.176,0,1,1,.1-.339,40.766,40.766,0,0,0,21.6-1.717.176.176,0,0,1,.148.32,34.774,34.774,0,0,1-10.77,2.349C1136.678,1315.661,1135.354,1315.714,1134.09,1315.714Z" transform="translate(-1126.4 -1306.149)" fill="#7d97f4"/>
        <path id="Trazado_205187" data-name="Trazado 205187" d="M1131.8,1294.07a25.738,25.738,0,0,1-7.532-.906.176.176,0,0,1,.11-.335c2.506.826,6.753,1.1,11.363.726a34.417,34.417,0,0,0,10.651-2.318.176.176,0,0,1,.148.32,34.785,34.785,0,0,1-10.77,2.349C1134.4,1294.017,1133.069,1294.07,1131.8,1294.07Z" transform="translate(-1124.146 -1287.875)" fill="#7d97f4"/>
        <path id="Trazado_205188" data-name="Trazado 205188" d="M1138.3,1272.56a30.381,30.381,0,0,1-6.345-.577.176.176,0,0,1,.076-.344,36.751,36.751,0,0,0,10.186.407,34.681,34.681,0,0,0,10.6-2.292.176.176,0,1,1,.146.321,35.025,35.025,0,0,1-10.714,2.323C1140.892,1272.506,1139.564,1272.56,1138.3,1272.56Z" transform="translate(-1130.619 -1269.738)" fill="#7d97f4"/>
      </g>
      <path id="Trazado_205189" data-name="Trazado 205189" d="M988.521,775.243a24.813,24.813,0,0,0-4.443-8.675,57.428,57.428,0,0,1-12.371-31.981c-1.276-22.225,18.436-33.353,36.423-31.842s35.736,14.9,33.793,35.58c-1.2,12.722-8.316,22.372-13.618,27.914a29.443,29.443,0,0,0-7.068,12.523c-1.591,5.745-5.378,12.9-14.378,13.34C995.212,792.666,990.375,781.811,988.521,775.243Z" transform="translate(-971.647 -702.609)" fill="#ccc368"/>
      <path id="Trazado_205190" data-name="Trazado 205190" d="M1216.708,1019.823,1223,978.889c.13-.846.546-1.414.93-1.268s.589.948.459,1.794l-.012.072-7.169,40.554c-.054.3-.209.5-.346.43S1216.663,1020.118,1216.708,1019.823Z" transform="translate(-1178.523 -934.762)" fill="url(#linear-gradient-4)"/>
      <path id="Trazado_205191" data-name="Trazado 205191" d="M1133,1021.909l-6.294-40.934c-.13-.846-.546-1.414-.93-1.268s-.589.948-.458,1.794c0,.023.008.05.012.073l7.169,40.554c.054.3.209.5.346.43S1133.044,1022.2,1133,1021.909Z" transform="translate(-1101.347 -936.524)" fill="url(#linear-gradient-5)"/>
      <path id="Trazado_205192" data-name="Trazado 205192" d="M1156.812,936.488a.66.66,0,0,0-.826-.214l-3.5,1.637-1.216-3.466a.743.743,0,0,0-.426-.429.866.866,0,0,0-1.077.332l-.006.011-2.882,5.255-2.674-7.48,0-.012a.854.854,0,0,0-.4-.456,1.05,1.05,0,0,0-1.323.261l-4.029,5.547a.486.486,0,0,0,.142.7.676.676,0,0,0,.857-.093l3.547-3.957,3.194,7.116,0,.006a.566.566,0,0,0,.281.276.668.668,0,0,0,.836-.216l3.082-4.946,1.16,2.5.01.022a.477.477,0,0,0,.029.053.659.659,0,0,0,.825.214l4.16-1.944A.5.5,0,0,0,1156.812,936.488Z" transform="translate(-1112.378 -895.877)" fill="#fff" opacity="0.75"/>
      <path id="Trazado_205193" data-name="Trazado 205193" d="M1333.431,1045.344a.519.519,0,0,1-.417-.828,46.771,46.771,0,0,0,2.938-4.461.519.519,0,1,1,.9.519,47.767,47.767,0,0,1-3,4.561A.518.518,0,0,1,1333.431,1045.344Z" transform="translate(-1276.638 -987.271)" fill="#fff" opacity="0.54"/>
      <path id="Trazado_205194" data-name="Trazado 205194" d="M1366.669,855.847a.519.519,0,0,1-.476-.726,37.6,37.6,0,0,0,.854-28.528.519.519,0,0,1,.944-.432,38.73,38.73,0,0,1-.845,29.374A.519.519,0,0,1,1366.669,855.847Z" transform="translate(-1304.699 -806.66)" fill="#fff" opacity="0.54"/>
    </g>
    <g id="Grupo_152154" data-name="Grupo 152154" transform="translate(641.881 4079.94)">
      <path id="Trazado_205195" data-name="Trazado 205195" d="M281.434,1024.564s-8.623,4.777-9.337,12.861-.059,41.64,17.232,49.9,40.179,6.356,48.94,5.453,13.619-6.857,14.7-10.957,2.838-19.371-6.378-24.3-18.9-12.473-28.569-19.822S291.777,1018.357,281.434,1024.564Z" transform="translate(-271.92 -1009.431)" fill="url(#linear-gradient-6)"/>
      <path id="Trazado_205196" data-name="Trazado 205196" d="M719.7,1263.387s-2.327.123-2.613,4.911a27.653,27.653,0,0,0,12.686,5.989c.547.086-.765-3.736-.962-4.254C727.875,1267.57,724.919,1265.984,719.7,1263.387Z" transform="translate(-647.746 -1212.508)" fill="url(#linear-gradient-7)"/>
      <path id="Trazado_205197" data-name="Trazado 205197" d="M563.186,1127.916H568.1s15.074-16.648,24.96-18.327c0,0,6.882,8.785-.367,25.2a2.4,2.4,0,0,1-3.431,1.13,1.964,1.964,0,0,1-.784-.935l.583-14.015s-12.858,11.246-15.093,13.416S560.371,1135.232,563.186,1127.916Z" transform="translate(-517.439 -1082.667)" fill="#7d97f4"/>
      <path id="Trazado_205198" data-name="Trazado 205198" d="M807.154,1427.743a18.465,18.465,0,0,0-10.071-4.407l-1.6.979a17.456,17.456,0,0,0,2.886,3.1,20.153,20.153,0,0,0,6.555,2.636C807.056,1430.332,807.371,1429.043,807.154,1427.743Z" transform="translate(-713.927 -1347.542)" fill="url(#linear-gradient-8)"/>
      <path id="Trazado_205199" data-name="Trazado 205199" d="M728.814,1292.686c-1.268.41-1.825,2.207-5.043,1.019a28.478,28.478,0,0,1-6.617-3.486c-.027.232-.049.474-.064.731,0,0,5.69,5.413,12.98,6.564a.726.726,0,0,0,.784-.978A18.312,18.312,0,0,0,728.814,1292.686Z" transform="translate(-647.746 -1235.16)" fill="#91b3fa"/>
      <path id="Trazado_205200" data-name="Trazado 205200" d="M824.345,1451.372a17,17,0,0,0-1.55-1.54c.217,1.3-.1,2.589-2.231,2.3a20.156,20.156,0,0,1-6.555-2.636,14.171,14.171,0,0,0,9.543,3.663A1.082,1.082,0,0,0,824.345,1451.372Z" transform="translate(-729.567 -1369.631)" fill="#91b3fa"/>
      <path id="Trazado_205201" data-name="Trazado 205201" d="M513.209,1250.057l23,.249s13.134,10.867,15.516,27.436c0,0,.4,1.219-1.979,1.427a45.591,45.591,0,0,1-13.118-14.355c-6.349-11.243-18.926-6.182-18.926-6.182-4.133-2.979-9.972-3.586-14.372-4.579Z" transform="translate(-467.282 -1201.254)" fill="#7d97f4"/>
      <path id="Trazado_205202" data-name="Trazado 205202" d="M548.217,1131.121s2.476,12.408,14.607,17.317l4.315-.509,1.018,1.624-10.122.323A27.685,27.685,0,0,1,544.8,1137.11C544.647,1136.8,542.123,1131.589,548.217,1131.121Z" transform="translate(-501.747 -1100.845)" fill="url(#linear-gradient-9)"/>
      <path id="Trazado_205203" data-name="Trazado 205203" d="M435.787,1084.917a66.263,66.263,0,0,1-3.421-15.09,32.508,32.508,0,0,1,3.347-2.534.931.931,0,0,0,.364-1.207c-.947-1.961-6.671-9.66-7.1-9.767-2.331-.582-11.889-5.126-18.62,4.082-2.889,3.952.573,16.116,13.68,28.715l2.7.517Z" transform="translate(-387.991 -1036.318)" fill="#ff7d00"/>
      <path id="Trazado_205204" data-name="Trazado 205204" d="M486.548,1162.649s7.822,9.262,17.823,10.616c0,0,2.584-2.356,4.507-1.515s4.557,4.555,4.557,4.555H500.594s-12.142-.428-18.209-7.791C482.873,1165.938,484.335,1164.4,486.548,1162.649Z" transform="translate(-449.601 -1127.462)" fill="url(#linear-gradient-10)"/>
      <path id="Trazado_205205" data-name="Trazado 205205" d="M470.394,1023.462l-1.712,5.708a.628.628,0,0,0,.244.7,6.377,6.377,0,0,0,5.932.6.931.931,0,0,0,.6-.8l.406-4.973Z" transform="translate(-438.01 -1009.956)" fill="url(#linear-gradient-11)"/>
      <g id="Grupo_152153" data-name="Grupo 152153" transform="translate(27.752)">
        <path id="Trazado_205206" data-name="Trazado 205206" d="M482.845,972.638s-.841,5.917-3.115,7.737-6.7.45-8.2-4.011l2.98-7.627Z" transform="translate(-468.191 -963.755)" fill="url(#linear-gradient-12)"/>
        <path id="Trazado_205207" data-name="Trazado 205207" d="M456.064,946.675a.293.293,0,0,0,.381-.235,7.65,7.65,0,0,1,.7-2.364s-.217-.776,1.962.4,5.452,2.9,7.378,1.87c1.879-1,3.781-6.034-1.183-5.1a.293.293,0,0,1-.348-.307,3.02,3.02,0,0,0-1.949-3.342,2.77,2.77,0,0,0-3.2.734.291.291,0,0,1-.456-.007,3.378,3.378,0,0,0-4.168-1.255c-1.779.784-2.056,1.88-2.027,2.563a.292.292,0,0,1-.416.279,1.758,1.758,0,0,0-2.261.671c-1.161,1.454.5,2.715,1,3.046a.293.293,0,0,1,.133.242c0,.756.122,4.055,1.776,5.916a.3.3,0,0,0,.491-.085l1.273-3.033a.294.294,0,0,1,.362-.166Z" transform="translate(-450.077 -936.758)" fill="url(#linear-gradient-13)"/>
        <path id="Trazado_205208" data-name="Trazado 205208" d="M475.744,991.673s-.777-3.167-1.958-2.138.308,3.291,1.661,3.722Z" transform="translate(-469.73 -981.141)" fill="url(#linear-gradient-14)"/>
      </g>
      <path id="Trazado_205209" data-name="Trazado 205209" d="M677.566,1140.248l5.766-19.228a1.966,1.966,0,0,1,1.749-1.4l7.784-.533a1.1,1.1,0,0,1,1.117,1.467l-6.445,18.362a1.616,1.616,0,0,1-1.363,1.073l-7.665.851Z" transform="translate(-614.378 -1090.686)" fill="url(#linear-gradient-15)"/>
      <path id="Trazado_205210" data-name="Trazado 205210" d="M734.68,1162.111c-.43.869-1.174,1.378-1.66,1.137s-.532-1.141-.1-2.01,1.174-1.378,1.66-1.137S735.11,1161.242,734.68,1162.111Z" transform="translate(-660.859 -1125.261)" fill="#7d97f4"/>
      <path id="Trazado_205211" data-name="Trazado 205211" d="M591.124,1246.342h-.038l-16.333-.825a.732.732,0,0,1,.074-1.462l16.334.826a.732.732,0,0,1-.036,1.463Z" transform="translate(-526.994 -1196.184)" fill="url(#linear-gradient-16)"/>
      <path id="Trazado_205212" data-name="Trazado 205212" d="M548.683,1107.626h0a.173.173,0,0,1-.172-.174,34.621,34.621,0,0,0-1.317-7.975.173.173,0,0,1,.332-.1,34.988,34.988,0,0,1,1.331,8.074A.173.173,0,0,1,548.683,1107.626Z" transform="translate(-504.308 -1073.943)" fill="url(#linear-gradient-17)"/>
      <path id="Trazado_205213" data-name="Trazado 205213" d="M482.063,1120.335a.173.173,0,0,1-.136-.066c-.036-.046-3.612-4.592-4.843-7.71a.173.173,0,0,1,.322-.127c1.212,3.071,4.757,7.578,4.792,7.623a.173.173,0,0,1-.136.28Z" transform="translate(-445.116 -1084.975)" fill="url(#linear-gradient-18)"/>
      <path id="Trazado_205214" data-name="Trazado 205214" d="M430.537,1160.859l-.129-.055c-5.183-2.219-8.382-8.4-8.414-8.465a.173.173,0,0,1,.308-.157c.031.061,3.123,6.033,8.114,8.249l.512-.724a.173.173,0,1,1,.282.2Z" transform="translate(-398.602 -1118.545)" fill="url(#linear-gradient-19)"/>
    </g>
    <g id="Grupo_152159" data-name="Grupo 152159" transform="translate(695.149 3976.828)">
      <g id="Grupo_152155" data-name="Grupo 152155" transform="translate(12.136 12.524)">
        <path id="Trazado_205215" data-name="Trazado 205215" d="M709.47,418.323H695.529l2.458-20.559-6.187-.751L702,382,712.167,397.6h-5Zm-12.864-.957h11.8l-2.3-20.725h4.3l-8.415-12.911-8.513,12.523,5.576.677Z" transform="translate(-691.8 -377.829)" fill="#7d97f4"/>
        <path id="Trazado_205216" data-name="Trazado 205216" d="M841.485,391.272,831.31,375.929h5l-2.3-20.725h13.942L845.5,375.516l6.186.751Zm-8.393-14.386,8.4,12.67,8.517-12.528-5.577-.677,2.444-20.19H835.084l2.3,20.725Z" transform="translate(-809.578 -355.204)" fill="#7d97f4"/>
      </g>
      <g id="Grupo_152158" data-name="Grupo 152158" transform="translate(0 0)">
        <g id="Grupo_152156" data-name="Grupo 152156" opacity="0.64">
          <path id="Trazado_205217" data-name="Trazado 205217" d="M621.336,545.261a.8.8,0,0,1-.764-.573c-.122-.417-.238-.841-.344-1.26a.8.8,0,0,1,1.546-.39c.1.4.211.8.328,1.2a.8.8,0,0,1-.765,1.022Z" transform="translate(-619.22 -500.747)" fill="#7d97f4"/>
          <path id="Trazado_205218" data-name="Trazado 205218" d="M614.895,313.906a.8.8,0,0,1-.791-.7c-.106-.883-.178-1.782-.214-2.674a.8.8,0,0,1,1.593-.065c.035.85.1,1.708.2,2.549a.8.8,0,0,1-.7.886A.828.828,0,0,1,614.895,313.906Zm-.112-6.866-.068,0a.8.8,0,0,1-.727-.862c.076-.888.187-1.783.33-2.66a.8.8,0,0,1,1.573.257c-.137.837-.243,1.69-.315,2.538A.8.8,0,0,1,614.782,307.039Zm1.274-6.745a.8.8,0,0,1-.764-1.025c.255-.854.546-1.708.867-2.538a.8.8,0,0,1,1.487.574c-.305.791-.583,1.605-.826,2.419A.8.8,0,0,1,616.057,300.294Zm2.63-6.344a.8.8,0,0,1-.7-1.177c.424-.783.885-1.559,1.37-2.307a.8.8,0,1,1,1.338.867c-.462.713-.9,1.453-1.306,2.2A.8.8,0,0,1,618.686,293.951Zm3.875-5.671a.8.8,0,0,1-.608-1.312c.576-.681,1.185-1.347,1.811-1.978a.8.8,0,0,1,1.133,1.122c-.6.6-1.177,1.237-1.726,1.886A.8.8,0,0,1,622.561,288.28Zm4.947-4.763a.8.8,0,0,1-.492-1.425c.7-.549,1.432-1.077,2.173-1.57a.8.8,0,1,1,.883,1.328c-.707.47-1.4.974-2.073,1.5A.794.794,0,0,1,627.509,283.518Zm5.808-3.658a.8.8,0,0,1-.354-1.512c.8-.4,1.622-.764,2.447-1.094a.8.8,0,1,1,.593,1.48c-.786.315-1.572.666-2.333,1.043A.792.792,0,0,1,633.316,279.859Zm29.126-.262a.792.792,0,0,1-.34-.077c-.767-.362-1.559-.7-2.354-1a.8.8,0,1,1,.565-1.491c.834.316,1.665.669,2.469,1.049a.8.8,0,0,1-.341,1.518Zm-22.694-2.134a.8.8,0,0,1-.2-1.569c.863-.224,1.745-.415,2.621-.569a.8.8,0,1,1,.277,1.57c-.835.147-1.675.33-2.5.543A.793.793,0,0,1,639.747,277.463Zm16.216-.141a.787.787,0,0,1-.186-.022c-.825-.2-1.67-.364-2.509-.5a.8.8,0,0,1,.248-1.575c.881.139,1.766.314,2.632.521a.8.8,0,0,1-.185,1.573Zm-9.429-.885a.8.8,0,0,1-.037-1.593c.889-.042,1.785-.049,2.681-.022a.8.8,0,1,1-.048,1.594c-.855-.026-1.71-.02-2.558.021Z" transform="translate(-613.89 -274.806)" fill="#7d97f4"/>
          <path id="Trazado_205219" data-name="Trazado 205219" d="M946.343,310.919a.791.791,0,0,1-.454-.143c-.34-.236-.688-.469-1.035-.691a.8.8,0,1,1,.86-1.342c.364.233.729.477,1.085.724a.8.8,0,0,1-.456,1.452Z" transform="translate(-892.989 -303.35)" fill="#7d97f4"/>
        </g>
        <g id="Grupo_152157" data-name="Grupo 152157" transform="translate(13.109 26.807)" opacity="0.64">
          <path id="Trazado_205220" data-name="Trazado 205220" d="M1040.426,449.745a.8.8,0,0,1-.786-.668c-.067-.408-.142-.82-.224-1.224a.8.8,0,1,1,1.562-.317c.086.424.165.856.235,1.284a.8.8,0,0,1-.787.926Z" transform="translate(-986.227 -446.896)" fill="#7d97f4"/>
          <path id="Trazado_205221" data-name="Trazado 205221" d="M743.9,518.041h-.007c-.691-.006-1.395-.034-2.089-.082q-.274-.019-.546-.042a.8.8,0,0,1,.134-1.589q.261.022.523.04c.663.046,1.333.072,1.993.078a.8.8,0,0,1-.007,1.594Zm4.179-.223a.8.8,0,0,1-.091-1.589c.831-.1,1.667-.227,2.485-.387a.8.8,0,0,1,.307,1.565c-.858.168-1.736.305-2.607.407A.789.789,0,0,1,748.08,517.819Zm-10.9-.51a.8.8,0,0,1-.166-.018c-.859-.182-1.72-.4-2.56-.647a.8.8,0,0,1,.451-1.529c.8.236,1.621.444,2.44.617a.8.8,0,0,1-.164,1.577Zm17.493-.949a.8.8,0,0,1-.25-1.554c.791-.261,1.583-.558,2.354-.881a.8.8,0,0,1,.616,1.47c-.809.339-1.64.65-2.47.924A.8.8,0,0,1,754.677,516.36Zm-23.929-1.115a.8.8,0,0,1-.319-.067c-.8-.351-1.6-.738-2.376-1.151a.8.8,0,0,1,.75-1.407c.739.394,1.5.763,2.265,1.1a.8.8,0,0,1-.32,1.528ZM760.84,513.6a.8.8,0,0,1-.4-1.488c.726-.418,1.443-.868,2.132-1.337a.8.8,0,0,1,.9,1.317c-.722.492-1.473.964-2.234,1.4A.8.8,0,0,1,760.84,513.6Zm5.487-3.939a.8.8,0,0,1-.528-1.395c.627-.554,1.24-1.138,1.822-1.736a.8.8,0,1,1,1.143,1.111c-.61.628-1.253,1.24-1.91,1.82A.794.794,0,0,1,766.328,509.663Zm4.591-4.956a.8.8,0,0,1-.636-1.278c.5-.667.987-1.362,1.438-2.065a.8.8,0,0,1,1.343.859c-.473.738-.98,1.467-1.508,2.167A.8.8,0,0,1,770.919,504.706Zm3.506-5.778a.8.8,0,0,1-.72-1.14c.359-.756.693-1.535.992-2.314a.8.8,0,0,1,1.489.57c-.314.818-.664,1.635-1.041,2.428A.8.8,0,0,1,774.425,498.928Zm2.267-6.366a.787.787,0,0,1-.19-.023.8.8,0,0,1-.584-.964c.2-.81.368-1.639.5-2.465a.8.8,0,1,1,1.573.259c-.143.866-.321,1.736-.529,2.585A.8.8,0,0,1,776.692,492.562Zm.94-6.689H777.6a.8.8,0,0,1-.765-.828c.017-.438.026-.882.026-1.32,0-.4-.007-.8-.022-1.2a.8.8,0,0,1,1.593-.058c.015.417.023.839.023,1.256,0,.459-.009.924-.028,1.383A.8.8,0,0,1,777.632,485.872Z" transform="translate(-723.022 -476.279)" fill="#7d97f4"/>
          <path id="Trazado_205222" data-name="Trazado 205222" d="M699.869,662.891a.791.791,0,0,1-.459-.146c-.351-.248-.7-.508-1.051-.774a.8.8,0,1,1,.97-1.265c.33.253.667.5,1,.738a.8.8,0,0,1-.461,1.448Z" transform="translate(-698.047 -627.261)" fill="#7d97f4"/>
        </g>
      </g>
    </g>
    <g id="Grupo_152160" data-name="Grupo 152160" transform="translate(701.579 4091.777)">
      <path id="Trazado_205223" data-name="Trazado 205223" d="M695.121,1014.479h-2.768a.865.865,0,0,1,0-1.73h2.768a.865.865,0,0,1,0,1.73Zm-7.265,0h-2.768a.865.865,0,0,1,0-1.73h2.768a.865.865,0,0,1,0,1.73Zm-7.265,0h-2.768a.865.865,0,1,1,0-1.73h2.768a.865.865,0,1,1,0,1.73Zm-7.265,0h-2.768a.865.865,0,1,1,0-1.73h2.768a.865.865,0,0,1,0,1.73Zm-7.265,0h-2.768a.865.865,0,0,1,0-1.73h2.768a.865.865,0,1,1,0,1.73Zm-7.265,0h-2.768a.865.865,0,1,1,0-1.73H658.8a.865.865,0,1,1,0,1.73Z" transform="translate(-655.164 -1012.749)" fill="#bdd0fb"/>
    </g>
    <g id="Grupo_152161" data-name="Grupo 152161" transform="translate(825.081 4050.61)">
      <path id="Trazado_205224" data-name="Trazado 205224" d="M1473.44,766.455h-2.768a.865.865,0,0,1,0-1.73h1.038a.865.865,0,0,1,1.73,0Zm-7.265,0h-2.768a.865.865,0,0,1,0-1.73h2.768a.865.865,0,1,1,0,1.73Zm-7.265,0h-2.768a.865.865,0,0,1,0-1.73h2.768a.865.865,0,0,1,0,1.73Zm-7.265,0h-2.768a.865.865,0,1,1,0-1.73h2.768a.865.865,0,1,1,0,1.73Zm20.93-5.362a.865.865,0,0,1-.865-.865v-2.768a.865.865,0,0,1,1.73,0v2.768A.865.865,0,0,1,1472.575,761.093Zm0-7.265a.865.865,0,0,1-.865-.865V750.2a.865.865,0,0,1,1.73,0v2.768A.865.865,0,0,1,1472.575,753.828Zm11.935-3.632h-1.038a.865.865,0,0,1,0-1.73h1.038a.865.865,0,1,1,0,1.73Zm-5.535,0h-2.768a.865.865,0,0,1,0-1.73h2.768a.865.865,0,1,1,0,1.73Z" transform="translate(-1448.013 -748.466)" fill="#bdd0fb"/>
    </g>
    <g id="Grupo_152162" data-name="Grupo 152162" transform="translate(824.043 4086.935)">
      <path id="Trazado_205225" data-name="Trazado 205225" d="M1474.042,983.387h-2.768a.865.865,0,0,1,0-1.73h2.768a.865.865,0,0,1,0,1.73Zm-7.265,0h-2.768a.865.865,0,1,1,0-1.73h2.768a.865.865,0,0,1,0,1.73Zm-7.265,0h-2.767a.865.865,0,1,1,0-1.73h2.767a.865.865,0,1,1,0,1.73Zm-7.265,0h-2.767a.865.865,0,1,1,0-1.73h2.767a.865.865,0,1,1,0,1.73Zm-7.265,0h-2.767a.865.865,0,1,1,0-1.73h2.767a.865.865,0,1,1,0,1.73Z" transform="translate(-1441.35 -981.657)" fill="#bdd0fb"/>
    </g>
    <g id="Grupo_152171" data-name="Grupo 152171" transform="translate(838.167 4078.652)">
      <g id="Grupo_152165" data-name="Grupo 152165" transform="translate(41.039 51.963)">
        <g id="Grupo_152163" data-name="Grupo 152163" transform="translate(12.421 6.189)">
          <rect id="Rect치ngulo_44829" data-name="Rect치ngulo 44829" width="2.403" height="25.992" fill="#7d97f4"/>
        </g>
        <g id="Grupo_152164" data-name="Grupo 152164" transform="translate(3.097 31.118)">
          <path id="Trazado_205226" data-name="Trazado 205226" d="M1836.408,1463.407h-21.051v-1.19a.375.375,0,0,1,.375-.375H1836a.4.4,0,0,1,.4.4Z" transform="translate(-1815.357 -1461.842)" fill="#7d97f4"/>
        </g>
        <path id="Rect치ngulo_44830" data-name="Rect치ngulo 44830" d="M3.989,0H24.14a3.989,3.989,0,0,1,3.989,3.989v0A3.989,3.989,0,0,1,24.14,7.978H3.989A3.989,3.989,0,0,1,0,3.989v0A3.989,3.989,0,0,1,3.989,0Z" fill="#7d97f4"/>
      </g>
      <g id="Grupo_152167" data-name="Grupo 152167" transform="translate(20.59)">
        <path id="Trazado_205227" data-name="Trazado 205227" d="M1765.5,1432.6s-6.863,4.947-5.672,8.271c0,0,7.509-3.24,8.417-5.792s-.153-3.679-.153-3.679Z" transform="translate(-1744.811 -1353.059)" fill="url(#linear-gradient-20)"/>
        <path id="Trazado_205228" data-name="Trazado 205228" d="M1787.133,1412.492l1.122,3.244a1.128,1.128,0,0,1-.438,1.324,2.953,2.953,0,0,1-.929.36,1.314,1.314,0,0,1-1.453-.66l-1.343-2.528Z" transform="translate(-1765.418 -1337.098)" fill="url(#linear-gradient-21)"/>
        <path id="Trazado_205229" data-name="Trazado 205229" d="M1755.079,1225.025s-14.1,2.443-20.144,8.029,5.55,23.405,5.55,23.405a7.22,7.22,0,0,0,4.2-1.985s-6.876-13.4-.95-17.31a38.175,38.175,0,0,1,14.341-5.383l-2.863-6.326Z" transform="translate(-1722.443 -1178.833)" fill="url(#linear-gradient-22)"/>
        <path id="Trazado_205230" data-name="Trazado 205230" d="M1754.822,1459.612c1.51-.7,5.783-3.69,6.5-3.822s1.97.715,1.97.715a1.948,1.948,0,0,1-.021,1.5,13.493,13.493,0,0,1-6.225,4.39,5.217,5.217,0,0,1-4.7-.649A6.364,6.364,0,0,1,1754.822,1459.612Z" transform="translate(-1738.616 -1373.64)" fill="url(#linear-gradient-23)"/>
        <path id="Trazado_205231" data-name="Trazado 205231" d="M1754.674,1474.474a13.5,13.5,0,0,0,6.225-4.39,6.071,6.071,0,0,1-1.809,2.447c-2.685,2.413-7.812,3.283-8.9,3.115-.875-.134-.792-.942-.215-1.821A5.217,5.217,0,0,0,1754.674,1474.474Z" transform="translate(-1736.241 -1385.719)" fill="url(#linear-gradient-24)"/>
        <path id="Trazado_205232" data-name="Trazado 205232" d="M1809.35,1440.321a11.593,11.593,0,0,1-1.364,2.642,1.3,1.3,0,0,1-1.1.614,3.335,3.335,0,0,1-.907-.109.84.84,0,0,1-.565-1.046l.971-3.315Z" transform="translate(-1783.391 -1359.568)" fill="url(#linear-gradient-25)"/>
        <path id="Trazado_205233" data-name="Trazado 205233" d="M1829.6,1197.86s3.131,8.371,0,10.917-10.6,5.412-12.268,10.483-4.5,14.925-8.289,18.415c0,0-2.662-.258-3.658-1.319,0,0,2.158-14.711,3.581-18.486,1.233-3.269,3.049-7.987,6.529-10.624,1-.755.823-1.951.361-3.112l-.841-2.115Z" transform="translate(-1783.391 -1155.899)" fill="url(#linear-gradient-26)"/>
        <path id="Trazado_205234" data-name="Trazado 205234" d="M1750.561,1110.2c5.249.316,3.614-8.07,3.519-8.4l7.967,5.627s-.422,4.485-7.046,6.837a8.234,8.234,0,0,1-4.562.331A7.248,7.248,0,0,0,1750.561,1110.2Z" transform="translate(-1737.007 -1074.797)" fill="#ff7d00"/>
        <path id="Trazado_205235" data-name="Trazado 205235" d="M1667.607,1136.258a4.059,4.059,0,0,1,4.172,0c2.615,1.711,4.55,2.438,5.978,2.524a7.247,7.247,0,0,1-.122,4.391,11.272,11.272,0,0,1-5.937-3.838.946.946,0,0,0-1.31-.143c-.407.322-.8.762-.731,1.225.141.914-.919,1.2-1,.873a13.671,13.671,0,0,1,.363-2.3s-2.121,2.133-2.95,2.953a1.452,1.452,0,0,1-1.87,0S1665.651,1137.619,1667.607,1136.258Z" transform="translate(-1664.202 -1103.383)" fill="url(#linear-gradient-27)"/>
        <path id="Trazado_205236" data-name="Trazado 205236" d="M1787.243,1016.7s-7.637-3.058-21.849,8.676a5.341,5.341,0,0,0,.108,4.644c1.3,2.187,13.635,12.844,15.331,18.754,0,0,7.351,2.389,14.954-3.275C1795.787,1045.5,1795.116,1029.055,1787.243,1016.7Z" transform="translate(-1749.212 -1002.66)" fill="#ff7d00"/>
        <path id="Trazado_205237" data-name="Trazado 205237" d="M1783.93,1001.132l3.759,4.557a1.5,1.5,0,0,1,.2,1.609,4.274,4.274,0,0,1-4.506,2.4,2.308,2.308,0,0,1-1.9-1.294l-2.629-5.434Z" transform="translate(-1760.995 -989.816)" fill="url(#linear-gradient-28)"/>
        <path id="Trazado_205238" data-name="Trazado 205238" d="M1902.446,1038.169c.887-3.611-8.093-11.66-8.093-11.66l2.181-7.859s19.39,12.908,14.449,23.289a7.559,7.559,0,0,1-2.74,3.228C1906.681,1040.964,1904.193,1039.036,1902.446,1038.169Z" transform="translate(-1858.502 -1004.605)" fill="#ff7d00"/>
        <path id="Trazado_205239" data-name="Trazado 205239" d="M1901.335,1075.089a.212.212,0,0,0,.206-.162c.907-3.692-7.787-11.536-8.158-11.868a.212.212,0,1,0-.284.316c.089.08,8.875,8.005,8.029,11.451a.212.212,0,0,0,.156.257A.218.218,0,0,0,1901.335,1075.089Z" transform="translate(-1857.384 -1042.051)" fill="url(#linear-gradient-29)"/>
        <path id="Trazado_205240" data-name="Trazado 205240" d="M1810.413,1141.042s10.646,4.134,13.245,1.024a1.746,1.746,0,0,0,.356-.714c1.747.867,4.235,2.795,5.8,7-5.6,3.578-15.171-1.991-17.759-3.632a1.933,1.933,0,0,0-1.43-.262,13.208,13.208,0,0,1-3.653.368c-1.36-.209-3.315,4.59-5.52,3.109C1801.449,1147.934,1803.337,1139.592,1810.413,1141.042Z" transform="translate(-1780.07 -1107.789)" fill="url(#linear-gradient-30)"/>
        <g id="Grupo_152166" data-name="Grupo 152166" transform="translate(12.434)">
          <path id="Trazado_205241" data-name="Trazado 205241" d="M1758.914,952.092c-.038.146.881,10.109.881,10.109l5.677-.646.532-9.572S1759.547,949.639,1758.914,952.092Z" transform="translate(-1756.594 -947.47)" fill="url(#linear-gradient-31)"/>
          <path id="Trazado_205242" data-name="Trazado 205242" d="M1751.959,934.983l.115,5.061a.7.7,0,0,1-.022.191c-.1.385-.536,1.684-1.838,1.156a6.359,6.359,0,0,0-3.065-.748.707.707,0,0,0-.572.76,30.552,30.552,0,0,0,.777,4.68.705.705,0,0,0,.806.508,22.783,22.783,0,0,0,5.1-1.462.708.708,0,0,0,.412-.595c.085-1.265.358-5.109.6-6.168.227-.994,1.529-1.462,2.09-1.619a.694.694,0,0,0,.427-.344,1.833,1.833,0,0,0-.934-2.791.708.708,0,0,1-.346-.959,1.836,1.836,0,0,0-.746-2.635,2.59,2.59,0,0,0-3.153.4.708.708,0,0,1-.908.008.559.559,0,0,0-.635-.048.7.7,0,0,1-.948-.4,2.112,2.112,0,0,0-2.305-1.483c-2.529.153-3.112,2.873-2.634,4.557s3.211,1.362,4.637.7c1.084-.506,2.332.286,2.868.7A.7.7,0,0,1,1751.959,934.983Z" transform="translate(-1744.028 -928.486)" fill="url(#linear-gradient-32)"/>
          <path id="Trazado_205243" data-name="Trazado 205243" d="M1808.765,983.267s-.707-2.97.418-3.555,2.638-.051,2.069,1.982C1810.545,984.223,1808.765,983.267,1808.765,983.267Z" transform="translate(-1798.496 -971.545)" fill="url(#linear-gradient-33)"/>
        </g>
      </g>
      <g id="Grupo_152168" data-name="Grupo 152168" transform="translate(1.52 21.122)">
        <path id="Trazado_205244" data-name="Trazado 205244" d="M1697.219,1183.326h-.051l-22.338-.024a1,1,0,1,1,0-2l22.338.024a1,1,0,0,1,.049,2Z" transform="translate(-1653.26 -1163.044)" fill="url(#linear-gradient-34)"/>
        <path id="Trazado_205245" data-name="Trazado 205245" d="M1543.266,1064.086h18.6a3.545,3.545,0,0,1,3.207,2.033l8.6,18.237h-23.119a2.155,2.155,0,0,1-2-1.363l-6.669-16.875A1.486,1.486,0,0,1,1543.266,1064.086Z" transform="translate(-1541.779 -1064.086)" fill="url(#linear-gradient-35)"/>
        <path id="Trazado_205246" data-name="Trazado 205246" d="M1619.368,1114.015c.4,1.253.105,2.469-.665,2.717s-1.722-.566-2.125-1.819-.105-2.469.665-2.717S1618.965,1112.762,1619.368,1114.015Z" transform="translate(-1604.775 -1104.664)" fill="#7d97f4"/>
      </g>
      <g id="Grupo_152170" data-name="Grupo 152170" transform="translate(0 41.192)">
        <g id="Grupo_152169" data-name="Grupo 152169" transform="translate(5.085 1.998)">
          <path id="Trazado_205247" data-name="Trazado 205247" d="M1565.6,1251.88a.963.963,0,0,1-.37-.074.9.9,0,0,1-.491-1.194l19.687-44.308a.951.951,0,0,1,1.233-.476.9.9,0,0,1,.491,1.194l-19.687,44.308A.941.941,0,0,1,1565.6,1251.88Z" transform="translate(-1564.663 -1205.755)" fill="#91b3fa"/>
          <path id="Trazado_205248" data-name="Trazado 205248" d="M1601.277,1251.88a.941.941,0,0,1-.863-.55l-19.687-44.308a.9.9,0,0,1,.491-1.194.951.951,0,0,1,1.233.476l19.687,44.308a.9.9,0,0,1-.491,1.194A.966.966,0,0,1,1601.277,1251.88Z" transform="translate(-1578.16 -1205.754)" fill="#91b3fa"/>
          <path id="Trazado_205249" data-name="Trazado 205249" d="M1956.822,1251.88a.964.964,0,0,1-.371-.074.9.9,0,0,1-.491-1.194l19.687-44.308a.951.951,0,0,1,1.233-.476.9.9,0,0,1,.491,1.194l-19.687,44.308A.941.941,0,0,1,1956.822,1251.88Z" transform="translate(-1894.943 -1205.755)" fill="#91b3fa"/>
          <path id="Trazado_205250" data-name="Trazado 205250" d="M1992.5,1251.88a.94.94,0,0,1-.863-.55l-19.687-44.308a.9.9,0,0,1,.491-1.194.951.951,0,0,1,1.233.476l19.687,44.308a.9.9,0,0,1-.491,1.194A.966.966,0,0,1,1992.5,1251.88Z" transform="translate(-1908.439 -1205.754)" fill="#91b3fa"/>
        </g>
        <path id="Trazado_205251" data-name="Trazado 205251" d="M1623.47,1194.107a1.079,1.079,0,0,0-.186-.819.852.852,0,0,0-.683-.361h-89.562a1,1,0,0,0-.859.526,1.261,1.261,0,0,0-.067,1.094l.971,2.352a1.358,1.358,0,0,0,1.234.883h87.669a1.067,1.067,0,0,0,1.01-.933Z" transform="translate(-1532.019 -1192.927)" fill="#bdd0fb"/>
      </g>
    </g>
    <g id="Grupo_152184" data-name="Grupo 152184" transform="translate(785.393 3960.82)">
      <g id="Grupo_152177" data-name="Grupo 152177">
        <g id="Grupo_152173" data-name="Grupo 152173" transform="translate(0 8.953)">
          <path id="Trazado_205252" data-name="Trazado 205252" d="M1256.208,264.383l-2.493-1.432a2.376,2.376,0,0,1-1.177-1.856,25.387,25.387,0,0,0-1.172-5.669,2.379,2.379,0,0,1,.346-2.173l1.724-2.3a2.842,2.842,0,0,0,.077-3.3l-2.033-3a2.842,2.842,0,0,0-3.094-1.148l-2.777.751a2.379,2.379,0,0,1-2.147-.482,25.37,25.37,0,0,0-4.835-3.184,2.378,2.378,0,0,1-1.29-1.78l-.409-2.845a2.843,2.843,0,0,0-2.279-2.387l-3.556-.681a2.842,2.842,0,0,0-3,1.376l-1.432,2.493a2.377,2.377,0,0,1-1.856,1.177,25.381,25.381,0,0,0-5.669,1.172,2.379,2.379,0,0,1-2.173-.346l-2.3-1.724a2.843,2.843,0,0,0-3.3-.077l-3,2.033a2.843,2.843,0,0,0-1.148,3.094l.751,2.778a2.379,2.379,0,0,1-.482,2.147,25.381,25.381,0,0,0-3.184,4.835,2.377,2.377,0,0,1-1.779,1.29l-2.845.409a2.842,2.842,0,0,0-2.387,2.279l-.681,3.556a2.842,2.842,0,0,0,1.376,3l2.493,1.432a2.376,2.376,0,0,1,1.177,1.856,25.39,25.39,0,0,0,1.172,5.669,2.379,2.379,0,0,1-.346,2.173l-1.724,2.3a2.843,2.843,0,0,0-.077,3.3l2.033,3a2.843,2.843,0,0,0,3.094,1.148l2.778-.751a2.379,2.379,0,0,1,2.147.482,25.377,25.377,0,0,0,4.835,3.184,2.378,2.378,0,0,1,1.29,1.779l.409,2.845a2.843,2.843,0,0,0,2.279,2.387l3.556.681a2.843,2.843,0,0,0,3-1.376l1.432-2.493a2.377,2.377,0,0,1,1.856-1.177,25.377,25.377,0,0,0,5.67-1.172,2.379,2.379,0,0,1,2.173.346l2.3,1.724a2.843,2.843,0,0,0,3.3.077l3-2.033a2.842,2.842,0,0,0,1.148-3.094l-.751-2.778a2.379,2.379,0,0,1,.482-2.147,25.36,25.36,0,0,0,3.184-4.835,2.377,2.377,0,0,1,1.779-1.29l2.845-.409a2.843,2.843,0,0,0,2.387-2.279l.681-3.556A2.843,2.843,0,0,0,1256.208,264.383Zm-30.97,19.991a21.07,21.07,0,1,1,22.845-19.13A21.07,21.07,0,0,1,1225.237,284.374Z" transform="translate(-1196.037 -232.329)" fill="url(#linear-gradient-36)"/>
          <g id="Grupo_152172" data-name="Grupo 152172">
            <path id="Trazado_205253" data-name="Trazado 205253" d="M1220.821,291.635a3.385,3.385,0,0,1-.632-.06l-3.556-.681a3.364,3.364,0,0,1-2.7-2.823l-.409-2.845a1.862,1.862,0,0,0-1.01-1.39,25.952,25.952,0,0,1-4.934-3.249,1.864,1.864,0,0,0-1.679-.379l-2.777.751a3.364,3.364,0,0,1-3.659-1.358l-2.033-3a3.363,3.363,0,0,1,.091-3.9l1.724-2.3a1.863,1.863,0,0,0,.268-1.7,25.964,25.964,0,0,1-1.2-5.785,1.863,1.863,0,0,0-.918-1.452l-2.493-1.431a3.363,3.363,0,0,1-1.627-3.547l.681-3.556a3.363,3.363,0,0,1,2.823-2.695l2.845-.409a1.862,1.862,0,0,0,1.39-1.01,25.931,25.931,0,0,1,3.249-4.934,1.864,1.864,0,0,0,.379-1.679l-.751-2.778a3.363,3.363,0,0,1,1.357-3.659l3-2.033a3.364,3.364,0,0,1,3.9.09l2.3,1.725a1.862,1.862,0,0,0,1.7.268,25.915,25.915,0,0,1,5.785-1.2,1.863,1.863,0,0,0,1.452-.919l1.432-2.493a3.366,3.366,0,0,1,3.547-1.628l3.556.681a3.363,3.363,0,0,1,2.7,2.824l.409,2.845a1.861,1.861,0,0,0,1.01,1.39,25.94,25.94,0,0,1,4.934,3.249,1.862,1.862,0,0,0,1.679.379l2.777-.751a3.364,3.364,0,0,1,3.659,1.358l2.033,3a3.363,3.363,0,0,1-.091,3.9l-1.724,2.3a1.865,1.865,0,0,0-.268,1.7,25.958,25.958,0,0,1,1.2,5.785,1.862,1.862,0,0,0,.918,1.452l2.493,1.432a3.363,3.363,0,0,1,1.628,3.548l-.681,3.556a3.363,3.363,0,0,1-2.823,2.695l-2.845.409a1.863,1.863,0,0,0-1.39,1.011,25.937,25.937,0,0,1-3.249,4.934,1.864,1.864,0,0,0-.379,1.679l.751,2.778a3.362,3.362,0,0,1-1.358,3.659l-3,2.033a3.363,3.363,0,0,1-3.9-.09l-2.3-1.724a1.861,1.861,0,0,0-1.7-.268,25.947,25.947,0,0,1-5.786,1.2,1.863,1.863,0,0,0-1.453.919l-1.431,2.492A3.365,3.365,0,0,1,1220.821,291.635Zm-14.443-12.528a2.921,2.921,0,0,1,1.872.684,24.9,24.9,0,0,0,4.736,3.119,2.9,2.9,0,0,1,1.569,2.169l.409,2.845a2.326,2.326,0,0,0,1.863,1.952l3.556.681a2.325,2.325,0,0,0,2.452-1.125l1.431-2.492a2.9,2.9,0,0,1,2.26-1.436,24.9,24.9,0,0,0,5.554-1.148,2.9,2.9,0,0,1,2.647.423l2.3,1.724a2.324,2.324,0,0,0,2.7.063l3-2.033a2.324,2.324,0,0,0,.939-2.529l-.751-2.778a2.9,2.9,0,0,1,.585-2.615,24.892,24.892,0,0,0,3.119-4.737,2.9,2.9,0,0,1,2.169-1.569l2.845-.409a2.325,2.325,0,0,0,1.951-1.863l.681-3.556a2.325,2.325,0,0,0-1.125-2.452l-2.493-1.431a2.9,2.9,0,0,1-1.435-2.26,24.916,24.916,0,0,0-1.148-5.553,2.9,2.9,0,0,1,.423-2.647l1.725-2.3a2.325,2.325,0,0,0,.062-2.7l-2.033-3a2.325,2.325,0,0,0-2.53-.938l-2.777.751a2.9,2.9,0,0,1-2.616-.585,24.906,24.906,0,0,0-4.736-3.119,2.9,2.9,0,0,1-1.569-2.168l-.409-2.845a2.324,2.324,0,0,0-1.863-1.952l-3.556-.681a2.324,2.324,0,0,0-2.452,1.125l-1.432,2.493a2.9,2.9,0,0,1-2.26,1.435,24.884,24.884,0,0,0-5.553,1.148,2.9,2.9,0,0,1-2.646-.423l-2.3-1.725a2.324,2.324,0,0,0-2.7-.063l-3,2.033a2.324,2.324,0,0,0-.938,2.529l.751,2.778a2.9,2.9,0,0,1-.585,2.615,24.9,24.9,0,0,0-3.119,4.737,2.9,2.9,0,0,1-2.169,1.569l-2.845.409a2.325,2.325,0,0,0-1.951,1.863l-.681,3.556a2.324,2.324,0,0,0,1.125,2.452l2.492,1.432a2.9,2.9,0,0,1,1.435,2.26,24.928,24.928,0,0,0,1.148,5.554,2.9,2.9,0,0,1-.423,2.646l-1.724,2.3a2.325,2.325,0,0,0-.063,2.7l2.033,3a2.325,2.325,0,0,0,2.53.938l2.777-.751A2.839,2.839,0,0,1,1206.379,279.107Zm17.921,3.06q-.953,0-1.92-.085h0a21.577,21.577,0,1,1,1.92.085Zm-1.828-1.119a20.551,20.551,0,1,0-18.659-22.283,20.569,20.569,0,0,0,18.659,22.283Z" transform="translate(-1193.225 -229.519)" fill="#bdd0fb"/>
          </g>
        </g>
        <g id="Grupo_152176" data-name="Grupo 152176" transform="translate(9.563)">
          <path id="Trazado_205254" data-name="Trazado 205254" d="M1335.416,323.1c-.516.223,2.56,20.1-.784,33.151a22.255,22.255,0,0,0,12.933,1.816s11.5-17.592,11.811-19.708c.357-2.4-1.486-14.7-1.486-14.7S1348.157,317.592,1335.416,323.1Z" transform="translate(-1322.168 -297.619)" fill="#ff7d00"/>
          <path id="Trazado_205255" data-name="Trazado 205255" d="M1398.786,331.474c5.948.2,6.421-4.895,6.082-8.293a25.07,25.07,0,0,0-13.5-2.234C1391.251,323.848,1391.646,331.232,1398.786,331.474Z" transform="translate(-1370.056 -297.626)" fill="url(#linear-gradient-37)"/>
          <path id="Trazado_205256" data-name="Trazado 205256" d="M1423.422,264.668s-2.954,6.242-4.68,8.875a1.806,1.806,0,0,0,.365,2.39,6.574,6.574,0,0,0,4.213,1.346,1.917,1.917,0,0,0,1.86-1.417l1.947-7.131Z" transform="translate(-1392.925 -250.24)" fill="url(#linear-gradient-38)"/>
          <path id="Trazado_205257" data-name="Trazado 205257" d="M1483.939,339.232s8.694,15.886,24.4,3.092l1.79,2.835s-11.5,17.76-25.672,5.435Z" transform="translate(-1448.217 -313.189)" fill="url(#linear-gradient-39)"/>
          <path id="Trazado_205258" data-name="Trazado 205258" d="M1649.648,335.64a2.208,2.208,0,0,0-1.291-1.412l-6.074-2.443s-.092-.779,1.283-1.309a1.828,1.828,0,0,0,1.054-2.069s-1.879.857-4.629,2.216a6.439,6.439,0,0,0-2.923,3.183l1.564,2.056a27.794,27.794,0,0,0,11.353.894Z" transform="translate(-1577.493 -304.05)" fill="url(#linear-gradient-40)"/>
          <path id="Trazado_205259" data-name="Trazado 205259" d="M1267.865,335.618s-14.752,7.64-13.122,22.053,23.975,1.182,23.975,1.182l-.542-3.469s-13.671,3.967-15.948.555c-1.67-2.5,3.929-8.366,7.032-11.314a3.669,3.669,0,0,0,.811-4.19Z" transform="translate(-1254.617 -310.138)" fill="url(#linear-gradient-41)"/>
          <g id="Grupo_152174" data-name="Grupo 152174" transform="translate(22.064 28.101)">
            <path id="Trazado_205260" data-name="Trazado 205260" d="M1396.289,389.315l6.187-21.6a.629.629,0,0,1,.533-.454c1.121-.131,4.369-.5,8.119-.815a92.112,92.112,0,0,1,12.9-.428.632.632,0,0,1,.517.91c-1.782,3.606-9.115,18.276-12.786,23.081a.634.634,0,0,1-.51.25l-14.354-.134A.632.632,0,0,1,1396.289,389.315Z" transform="translate(-1396.264 -363.817)" fill="#bdd0fb"/>
            <path id="Trazado_205261" data-name="Trazado 205261" d="M1492.849,353.195l4.485-.747a.322.322,0,0,1,.359.418l-.444,1.345a.321.321,0,0,1-.263.218l-4.316.577a.322.322,0,0,1-.356-.393l.275-1.175A.322.322,0,0,1,1492.849,353.195Z" transform="translate(-1477.345 -352.443)" fill="#7d97f4"/>
            <path id="Trazado_205262" data-name="Trazado 205262" d="M1474.194,364.276l.37-1.924a.445.445,0,0,1,.392-.359l9.059-.919a.445.445,0,0,1,.478.546l-.576,2.4a.445.445,0,0,1-.41.34l-8.853.446A.445.445,0,0,1,1474.194,364.276Z" transform="translate(-1462.048 -359.727)" fill="#7d97f4"/>
            <path id="Trazado_205263" data-name="Trazado 205263" d="M1402.784,442.7s-.862-3.544-.514-4.8,1.021-2.874,3.266-2.514a32.844,32.844,0,0,1,4.893,1.3,1.285,1.285,0,0,1-1.84,1.109l1.058.819s-.151,1.311-1.592.611l.984,1.086a1.147,1.147,0,0,1-1.679.386C1406.3,440.012,1405.791,443.129,1402.784,442.7Z" transform="translate(-1401.265 -422.424)" fill="url(#linear-gradient-42)"/>
          </g>
          <g id="Grupo_152175" data-name="Grupo 152175" transform="translate(1.706)">
            <path id="Trazado_205264" data-name="Trazado 205264" d="M1459.788,222.718s1.368,3.16-.239,7.964-4.234,5.222-5.9,4.034a9.471,9.471,0,0,1-4.089-7.662C1449.294,222.7,1457.9,218.722,1459.788,222.718Z" transform="translate(-1420.896 -213.432)" fill="url(#linear-gradient-43)"/>
            <path id="Trazado_205265" data-name="Trazado 205265" d="M1437.357,200.538s2.9-6.5,7.256-2.452l.336,1.674s4.146-1.181,2.783-4.938a7.615,7.615,0,0,0-10.751-3.87c-4.434,2.435-5.941,5.3-5.7,8.723s2.8,2.25,2.8,2.25.493-2.514,1.7-2.961,1.178,1.457,1.178,1.457Z" transform="translate(-1405.445 -187.198)" fill="url(#linear-gradient-44)"/>
            <path id="Trazado_205266" data-name="Trazado 205266" d="M1453.322,239.453s1.511-3.334-.606-3.454-1.256,3.213-.834,4.43Z" transform="translate(-1422.408 -226.033)" fill="url(#linear-gradient-45)"/>
            <path id="Trazado_205267" data-name="Trazado 205267" d="M1295.279,178.205a1.488,1.488,0,0,0,.857-2.492c-2.6-2.846-7.521-6-14.525-1.158-7.89,5.458-12.159,7.927-14.1,7.409a1.5,1.5,0,0,0-1.778,2.091,6.342,6.342,0,0,0,3.021,2.6C1281.654,193.017,1288.321,179.053,1295.279,178.205Z" transform="translate(-1265.568 -172.042)" fill="url(#linear-gradient-46)"/>
          </g>
        </g>
      </g>
      <g id="Grupo_152183" data-name="Grupo 152183" transform="translate(68.583 27.422)">
        <g id="Grupo_152179" data-name="Grupo 152179">
          <path id="Trazado_205268" data-name="Trazado 205268" d="M1713.089,406.379l-2.456-2.934a3.164,3.164,0,0,1-.617-2.859,33.78,33.78,0,0,0,1.142-7.621,3.166,3.166,0,0,1,1.43-2.556l3.213-2.085a3.783,3.783,0,0,0,1.612-4.086l-1.162-4.677a3.784,3.784,0,0,0-3.338-2.856l-3.815-.338a3.167,3.167,0,0,1-2.461-1.589,33.782,33.782,0,0,0-4.577-6.2,3.164,3.164,0,0,1-.793-2.816l.8-3.742a3.784,3.784,0,0,0-1.749-4.029l-4.129-2.485a3.784,3.784,0,0,0-4.38.34l-2.934,2.456a3.164,3.164,0,0,1-2.859.617,33.783,33.783,0,0,0-7.621-1.142,3.167,3.167,0,0,1-2.556-1.43l-2.085-3.213a3.784,3.784,0,0,0-4.087-1.612l-4.677,1.162a3.784,3.784,0,0,0-2.856,3.338l-.338,3.815a3.166,3.166,0,0,1-1.589,2.461,33.78,33.78,0,0,0-6.2,4.577,3.164,3.164,0,0,1-2.816.793l-3.742-.8a3.783,3.783,0,0,0-4.029,1.75l-2.485,4.129a3.783,3.783,0,0,0,.34,4.38l2.456,2.934a3.163,3.163,0,0,1,.617,2.859,33.794,33.794,0,0,0-1.142,7.621,3.166,3.166,0,0,1-1.43,2.556l-3.213,2.085a3.784,3.784,0,0,0-1.612,4.087l1.162,4.677a3.784,3.784,0,0,0,3.338,2.856l3.815.338a3.166,3.166,0,0,1,2.461,1.589,33.786,33.786,0,0,0,4.577,6.2,3.163,3.163,0,0,1,.793,2.816l-.8,3.742a3.784,3.784,0,0,0,1.75,4.03l4.129,2.485a3.784,3.784,0,0,0,4.38-.34l2.934-2.456a3.164,3.164,0,0,1,2.859-.617,33.784,33.784,0,0,0,7.621,1.142,3.166,3.166,0,0,1,2.556,1.43l2.085,3.213a3.784,3.784,0,0,0,4.087,1.612l4.677-1.162a3.784,3.784,0,0,0,2.856-3.338l.338-3.815a3.166,3.166,0,0,1,1.589-2.461,33.762,33.762,0,0,0,6.2-4.577,3.165,3.165,0,0,1,2.816-.793l3.742.8a3.784,3.784,0,0,0,4.03-1.75l2.485-4.129A3.784,3.784,0,0,0,1713.089,406.379Zm-47.875,10.738a28.044,28.044,0,1,1,37.33-13.4A28.044,28.044,0,0,1,1665.214,417.118Z" transform="translate(-1636.317 -350.892)" fill="url(#linear-gradient-47)"/>
          <g id="Grupo_152178" data-name="Grupo 152178">
            <path id="Trazado_205269" data-name="Trazado 205269" d="M1680.974,429.808a4.3,4.3,0,0,1-3.61-1.961l-2.085-3.213a2.653,2.653,0,0,0-2.139-1.194,34.352,34.352,0,0,1-7.738-1.159,2.649,2.649,0,0,0-2.391.514l-2.934,2.456a4.3,4.3,0,0,1-4.98.387l-4.129-2.485a4.3,4.3,0,0,1-1.99-4.582l.8-3.742a2.65,2.65,0,0,0-.665-2.354,34.355,34.355,0,0,1-4.647-6.294,2.653,2.653,0,0,0-2.057-1.331l-3.815-.339a4.3,4.3,0,0,1-3.8-3.248l-1.162-4.677a4.3,4.3,0,0,1,1.833-4.647l3.213-2.085a2.652,2.652,0,0,0,1.194-2.139,34.371,34.371,0,0,1,1.159-7.738,2.65,2.65,0,0,0-.514-2.391l-2.456-2.934a4.3,4.3,0,0,1-.387-4.98l2.485-4.129a4.3,4.3,0,0,1,4.582-1.989l3.742.8a2.652,2.652,0,0,0,2.354-.666,34.369,34.369,0,0,1,6.295-4.647,2.653,2.653,0,0,0,1.331-2.057l.338-3.815a4.3,4.3,0,0,1,3.248-3.8l4.677-1.163a4.307,4.307,0,0,1,4.647,1.833l2.085,3.213a2.653,2.653,0,0,0,2.138,1.194,34.348,34.348,0,0,1,7.738,1.159,2.65,2.65,0,0,0,2.391-.514l2.934-2.456a4.3,4.3,0,0,1,4.981-.387l4.129,2.485a4.3,4.3,0,0,1,1.99,4.582l-.8,3.742a2.65,2.65,0,0,0,.665,2.354,34.363,34.363,0,0,1,4.647,6.295,2.653,2.653,0,0,0,2.057,1.331l3.815.338a4.3,4.3,0,0,1,3.8,3.248l1.162,4.677a4.3,4.3,0,0,1-1.833,4.646l-3.213,2.085a2.653,2.653,0,0,0-1.194,2.139,34.359,34.359,0,0,1-1.159,7.738,2.65,2.65,0,0,0,.514,2.391l2.456,2.934a4.3,4.3,0,0,1,.387,4.98l-2.485,4.129a4.3,4.3,0,0,1-4.582,1.99l-3.742-.8a2.651,2.651,0,0,0-2.354.665,34.347,34.347,0,0,1-6.295,4.647,2.653,2.653,0,0,0-1.331,2.057l-.338,3.815a4.306,4.306,0,0,1-3.248,3.8l-4.677,1.163A4.312,4.312,0,0,1,1680.974,429.808ZM1664.7,421.15a3.735,3.735,0,0,1,.973.129,33.321,33.321,0,0,0,7.5,1.124,3.692,3.692,0,0,1,2.973,1.667l2.085,3.213a3.266,3.266,0,0,0,3.526,1.391l4.677-1.163a3.266,3.266,0,0,0,2.464-2.88l.338-3.815a3.693,3.693,0,0,1,1.847-2.865,33.307,33.307,0,0,0,6.1-4.506,3.683,3.683,0,0,1,3.277-.921l3.742.8a3.268,3.268,0,0,0,3.477-1.51l2.485-4.129a3.267,3.267,0,0,0-.293-3.779l-2.456-2.934a3.689,3.689,0,0,1-.72-3.328,33.315,33.315,0,0,0,1.124-7.5,3.691,3.691,0,0,1,1.667-2.973l3.213-2.085a3.266,3.266,0,0,0,1.391-3.526l-1.162-4.677a3.267,3.267,0,0,0-2.88-2.465l-3.815-.338a3.691,3.691,0,0,1-2.865-1.847,33.335,33.335,0,0,0-4.506-6.1,3.689,3.689,0,0,1-.922-3.277l.8-3.742a3.265,3.265,0,0,0-1.51-3.477l-4.129-2.485a3.267,3.267,0,0,0-3.779.294l-2.934,2.456a3.688,3.688,0,0,1-3.328.72,33.329,33.329,0,0,0-7.5-1.124,3.692,3.692,0,0,1-2.974-1.666l-2.085-3.213a3.265,3.265,0,0,0-3.526-1.391l-4.677,1.163a3.265,3.265,0,0,0-2.465,2.88l-.338,3.815a3.692,3.692,0,0,1-1.847,2.865,33.318,33.318,0,0,0-6.1,4.506,3.686,3.686,0,0,1-3.277.922l-3.743-.8a3.27,3.27,0,0,0-3.476,1.51l-2.485,4.129a3.266,3.266,0,0,0,.294,3.779l2.456,2.934a3.689,3.689,0,0,1,.72,3.327,33.317,33.317,0,0,0-1.124,7.5,3.691,3.691,0,0,1-1.667,2.973l-3.213,2.085a3.268,3.268,0,0,0-1.391,3.527l1.162,4.677a3.266,3.266,0,0,0,2.88,2.464l3.815.339a3.693,3.693,0,0,1,2.865,1.847,33.335,33.335,0,0,0,4.506,6.1,3.689,3.689,0,0,1,.922,3.277l-.8,3.742a3.266,3.266,0,0,0,1.51,3.477l4.129,2.485a3.265,3.265,0,0,0,3.779-.294l2.934-2.456A3.666,3.666,0,0,1,1664.7,421.15Zm9.626-3.644a28.393,28.393,0,0,1-12.144-2.729h0a28.568,28.568,0,1,1,12.144,2.729Zm-11.7-3.668a27.525,27.525,0,1,0-13.149-36.639,27.557,27.557,0,0,0,13.149,36.639Z" transform="translate(-1633.505 -348.082)" fill="#bdd0fb"/>
          </g>
        </g>
        <g id="Grupo_152182" data-name="Grupo 152182" transform="translate(13.906 3.856)">
          <path id="Trazado_205270" data-name="Trazado 205270" d="M1779.955,550.744a72.45,72.45,0,0,1,24.746-1.2,12.36,12.36,0,0,1,8.675,5.648c3.478,5.5,8.4,15.312,7.355,25.541l-5.459,1.35s-3.773-12.139-8.019-17.08c0,0-5.029,11.463-4.774,17.757q.011.267.035.521c.577,6.158-24.14,1.149-24.14,1.149Z" transform="translate(-1769.714 -521.527)" fill="#ff7d00"/>
          <path id="Trazado_205271" data-name="Trazado 205271" d="M1850.854,469.66l.549,8.535a1.852,1.852,0,0,0,1.285,1.68,12.228,12.228,0,0,0,7.865-.154,1.222,1.222,0,0,0,.662-1.5l-4.063-13.051Z" transform="translate(-1830.903 -450.788)" fill="url(#linear-gradient-48)"/>
          <g id="Grupo_152180" data-name="Grupo 152180" transform="translate(15.215)">
            <path id="Trazado_205272" data-name="Trazado 205272" d="M1826.139,414.642s-2.6,5.962-2.77,9.092-.849,5.16,2.77,5.79a7.692,7.692,0,0,0,8.318-4.29s2.587-4.8,2.007-6.77S1826.139,414.642,1826.139,414.642Z" transform="translate(-1822.776 -408.13)" fill="url(#linear-gradient-49)"/>
            <path id="Trazado_205273" data-name="Trazado 205273" d="M1830.894,387.7h-.457s1.885-3.866.229-4.545-8.216-2.017-9.631-4.344a4.328,4.328,0,0,1,1.673-5.954.244.244,0,0,1,.31.114l.151.285a.246.246,0,0,0,.453-.047h0a.245.245,0,0,1,.441-.067c.433.7,1.606,1.828,4.753,2.409,4.465.824,7.416,2.631,7.489,5.716a.246.246,0,0,0,.38.2c.33-.2.857-.3,1.562.3,1.226,1.031.724,3.7-1.963,5.9a.244.244,0,0,0,.011.394c.487.317,1.213,1.072-.668,2.078-1.925,1.029-3.064.917-3.494.807a.246.246,0,0,1-.186-.254l.169-2.734a.246.246,0,0,0-.245-.261Z" transform="translate(-1820.45 -372.839)" fill="url(#linear-gradient-50)"/>
            <path id="Trazado_205274" data-name="Trazado 205274" d="M1886.778,456.047s.99-3.809,2.7-2.741-.886,4.267-2.259,4.41Z" transform="translate(-1876.446 -440.613)" fill="url(#linear-gradient-51)"/>
          </g>
          <g id="Grupo_152181" data-name="Grupo 152181" transform="translate(0 29.217)">
            <path id="Trazado_205275" data-name="Trazado 205275" d="M1733.094,584.94c-.533-3.764,3.365-9.3,4.977-11.4a3.491,3.491,0,0,0,.726-2.092c.047-5.33-2.191-8.753-5.777-11.052,0,0-13.015,15.163-9.7,26.826a9.813,9.813,0,0,0,1.614,3.269C1725.455,586.1,1730.534,585.143,1733.094,584.94Z" transform="translate(-1722.778 -560.401)" fill="#ff7d00"/>
            <path id="Trazado_205276" data-name="Trazado 205276" d="M1787.875,653.9l-.5-.057c.42-3.691,3.659-8.247,5.032-10.035l.4.3C1791.459,645.865,1788.281,650.331,1787.875,653.9Z" transform="translate(-1777.316 -630.814)" fill="#ff7d00"/>
            <path id="Trazado_205277" data-name="Trazado 205277" d="M1744.874,718.458a4.379,4.379,0,0,1-.1-.521c-2.56.2-7.639,1.162-8.162,5.556,5.808,7.682,21.818,4.91,21.818,4.91v-2.989S1746.132,723.13,1744.874,718.458Z" transform="translate(-1734.455 -693.398)" fill="url(#linear-gradient-52)"/>
          </g>
          <path id="Trazado_205278" data-name="Trazado 205278" d="M1866.792,758.023s2.364-5.578,6.529-3.6,3.838,3.273,3.838,3.273Z" transform="translate(-1844.359 -694.625)" fill="url(#linear-gradient-53)"/>
          <path id="Trazado_205279" data-name="Trazado 205279" d="M1863.37,765.428h0a.791.791,0,0,0,.816.728l21.583-.753a.791.791,0,0,0,.727-.554l.626-2a.791.791,0,0,0-.713-1.026l-7.871-.418a.8.8,0,0,0-.213.018l-14.339,3.176A.791.791,0,0,0,1863.37,765.428Z" transform="translate(-1841.467 -700.874)" fill="url(#linear-gradient-54)"/>
          <path id="Trazado_205280" data-name="Trazado 205280" d="M1956.261,767.205l.594-2.767,8.085.386-.532,2.3Z" transform="translate(-1919.891 -703.438)" fill="url(#linear-gradient-55)"/>
          <path id="Trazado_205281" data-name="Trazado 205281" d="M1912.775,574.41c-.458,3.739-2.516,18.929-3.105,23.269a1,1,0,0,0,1.018,1.13l34.918-1a1,1,0,0,0,.945-.781l5.432-24.462a1,1,0,0,0-1.033-1.213l-37.243,2.181A1,1,0,0,0,1912.775,574.41Z" transform="translate(-1880.55 -540.43)" fill="url(#linear-gradient-56)"/>
          <path id="Trazado_205282" data-name="Trazado 205282" d="M1991.79,683.279l-5.161,14.648,12,.254,1-14.814a1.151,1.151,0,0,0-1.225-1.226l-5.6.372A1.151,1.151,0,0,0,1991.79,683.279Z" transform="translate(-1945.529 -633.959)" fill="url(#linear-gradient-57)"/>
          <path id="Trazado_205283" data-name="Trazado 205283" d="M1955.227,778.142h0a.623.623,0,0,0,.592.818h18.792a.623.623,0,0,0,.623-.623v-.806a.623.623,0,0,0-.65-.623l-18.792.806A.623.623,0,0,0,1955.227,778.142Z" transform="translate(-1918.992 -713.965)" fill="url(#linear-gradient-58)"/>
        </g>
        <path id="Trazado_205284" data-name="Trazado 205284" d="M1924.714,597.576l-.343-.043,1.715-13.53a1.811,1.811,0,0,1,1.686-1.578l32.184-1.944.021.345-32.184,1.943a1.465,1.465,0,0,0-1.363,1.276Z" transform="translate(-1879.063 -544.28)" fill="#bdd0fb"/>
        <rect id="Rect치ngulo_44831" data-name="Rect치ngulo 44831" width="2.953" height="0.346" transform="translate(44.449 60.036) rotate(-82.819)" fill="#bdd0fb"/>
      </g>
    </g>
    <g id="Grupo_152187" data-name="Grupo 152187" transform="translate(664.879 3956.008)">
      <g id="Grupo_152185" data-name="Grupo 152185" transform="translate(36.578 0)">
        <path id="Trazado_205285" data-name="Trazado 205285" d="M695.5,154.414a.328.328,0,0,1-.321-.322c-.033-1.8-.6-10.757-8.48-12.628-8.779-2.083-12.8,6.844-12.8,6.844s-10.862-4.166-12.945,6.993c-6.81,1.634-8.58,10.529-4.15,14.875a3.807,3.807,0,0,0,2.633,1.09l42.651.384a2.808,2.808,0,0,0,2.717-2.008C706.144,165.145,707.891,154.7,695.5,154.414Z" transform="translate(-654.38 -141.149)" fill="#7d97f4"/>
        <path id="Trazado_205286" data-name="Trazado 205286" d="M701.283,160.4a.328.328,0,0,1-.32-.321c-.035-1.73-.592-10.032-8.019-11.772-8.3-1.945-12.1,6.392-12.1,6.392s-10.271-3.891-12.24,6.531c-6.378,1.512-8.08,9.674-4.043,13.773a3.809,3.809,0,0,0,2.68,1.136l40.151.357a2.809,2.809,0,0,0,2.719-2.016C711.364,170.2,712.85,160.673,701.283,160.4Z" transform="translate(-661.136 -146.94)" fill="#91b3fa"/>
      </g>
      <g id="Grupo_152186" data-name="Grupo 152186" transform="translate(0 28.531)">
        <path id="Trazado_205287" data-name="Trazado 205287" d="M444.392,332.316a.2.2,0,0,1-.194-.194c-.02-1.089-.359-6.495-5.12-7.625-5.3-1.258-7.726,4.132-7.726,4.132s-6.558-2.515-7.816,4.222c-4.112.987-5.181,6.357-2.506,8.981a2.3,2.3,0,0,0,1.59.658l25.753.232a1.7,1.7,0,0,0,1.641-1.213C450.817,338.8,451.872,332.491,444.392,332.316Z" transform="translate(-419.563 -324.307)" fill="#7d97f4"/>
        <path id="Trazado_205288" data-name="Trazado 205288" d="M447.882,335.928a.2.2,0,0,1-.193-.194c-.021-1.044-.357-6.057-4.841-7.108-5.012-1.175-7.305,3.859-7.305,3.859s-6.2-2.349-7.391,3.943a5.08,5.08,0,0,0-2.441,8.316,2.3,2.3,0,0,0,1.618.686l24.243.216a1.7,1.7,0,0,0,1.642-1.217C453.969,341.85,454.866,336.095,447.882,335.928Z" transform="translate(-423.642 -327.803)" fill="#91b3fa"/>
      </g>
    </g>
    <g id="Grupo_152190" data-name="Grupo 152190" transform="translate(687.894 4043.978)">
      <g id="Grupo_152188" data-name="Grupo 152188" transform="translate(0 18.033)">
        <path id="Trazado_205289" data-name="Trazado 205289" d="M1813.582,1183.025l-.525.454a.183.183,0,0,1-.24-.277l0,0,0,0,.535-.436h0a.173.173,0,0,1,.222.265Z" transform="translate(-1618.751 -1126.478)" fill="#bdd0fb"/>
        <path id="Trazado_205290" data-name="Trazado 205290" d="M1792.312,1199.369l-.55.423a.244.244,0,0,1-.3-.386l0,0,0,0,.559-.4h0a.234.234,0,0,1,.279.375Z" transform="translate(-1600.698 -1140.178)" fill="#bdd0fb"/>
        <path id="Trazado_205291" data-name="Trazado 205291" d="M1770.212,1214.579l-.57.4a.3.3,0,0,1-.347-.5l.006,0,0,0,.578-.377h0a.294.294,0,0,1,.329.488Z" transform="translate(-1581.951 -1152.921)" fill="#bdd0fb"/>
        <path id="Trazado_205292" data-name="Trazado 205292" d="M1747.463,1228.812l-.585.373a.365.365,0,0,1-.392-.615l.008,0,0,0,.592-.353h0a.355.355,0,0,1,.372.6Z" transform="translate(-1562.663 -1164.836)" fill="#bdd0fb"/>
        <path id="Trazado_205293" data-name="Trazado 205293" d="M1724.3,1242.246l-.6.348a.407.407,0,1,1-.409-.7l0,0,0,0,.6-.336h0a.4.4,0,0,1,.4.7Z" transform="translate(-1543.052 -1176.098)" fill="#bdd0fb"/>
        <path id="Trazado_205294" data-name="Trazado 205294" d="M1700.745,1254.993l-.61.33a.441.441,0,1,1-.42-.776l0,0,0,0,.612-.318h0a.435.435,0,0,1,.408.769Z" transform="translate(-1523.124 -1186.8)" fill="#bdd0fb"/>
        <path id="Trazado_205295" data-name="Trazado 205295" d="M1676.842,1267.073l-.619.314a.475.475,0,1,1-.43-.847l0,0,0,0,.62-.3h0a.469.469,0,0,1,.418.841Z" transform="translate(-1502.904 -1196.939)" fill="#bdd0fb"/>
        <path id="Trazado_205296" data-name="Trazado 205296" d="M1652.647,1278.559l-.626.3a.509.509,0,1,1-.44-.919l.005,0,0,0,.627-.288h0a.5.5,0,0,1,.427.912Z" transform="translate(-1482.44 -1206.578)" fill="#bdd0fb"/>
        <path id="Trazado_205297" data-name="Trazado 205297" d="M1628.19,1289.43l-.642.27a.529.529,0,0,1-.409-.975h0l0,0,.635-.262,0,0a.527.527,0,0,1,.405.973Z" transform="translate(-1461.774 -1215.709)" fill="#bdd0fb"/>
        <path id="Trazado_205298" data-name="Trazado 205298" d="M1603.277,1299.136l-.654.237a.533.533,0,0,1-.362-1h0l.647-.233h0a.532.532,0,0,1,.361,1Z" transform="translate(-1440.749 -1223.886)" fill="#bdd0fb"/>
        <path id="Trazado_205299" data-name="Trazado 205299" d="M1577.981,1307.753l-.662.212a.537.537,0,0,1-.326-1.023h0l.656-.208h0a.536.536,0,0,1,.325,1.021Z" transform="translate(-1419.399 -1231.149)" fill="#bdd0fb"/>
        <path id="Trazado_205300" data-name="Trazado 205300" d="M1552.415,1315.48l-.668.19a.541.541,0,0,1-.3-1.04h0l.663-.188h0a.54.54,0,0,1,.3,1.039Z" transform="translate(-1397.819 -1237.662)" fill="#bdd0fb"/>
        <path id="Trazado_205301" data-name="Trazado 205301" d="M1526.641,1322.46l-.672.173a.545.545,0,0,1-.271-1.055h0l.668-.17h0a.544.544,0,0,1,.27,1.054Z" transform="translate(-1376.064 -1243.545)" fill="#bdd0fb"/>
        <path id="Trazado_205302" data-name="Trazado 205302" d="M1500.706,1328.79l-.676.157a.548.548,0,0,1-.248-1.069h0l.672-.154h0a.548.548,0,0,1,.246,1.067Z" transform="translate(-1354.173 -1248.88)" fill="#bdd0fb"/>
        <path id="Trazado_205303" data-name="Trazado 205303" d="M1474.64,1334.542l-.679.142a.552.552,0,1,1-.227-1.081h0l.676-.14h0a.552.552,0,0,1,.226,1.08Z" transform="translate(-1332.17 -1253.727)" fill="#bdd0fb"/>
        <path id="Trazado_205304" data-name="Trazado 205304" d="M1448.467,1339.766l-.681.13a.556.556,0,0,1-.208-1.093h0l.678-.128a.556.556,0,1,1,.208,1.092Z" transform="translate(-1310.076 -1258.13)" fill="#bdd0fb"/>
        <path id="Trazado_205305" data-name="Trazado 205305" d="M1422.2,1344.505l-.684.117a.56.56,0,0,1-.19-1.1h0l.68-.116a.56.56,0,1,1,.19,1.1Z" transform="translate(-1287.904 -1262.122)" fill="#bdd0fb"/>
        <path id="Trazado_205306" data-name="Trazado 205306" d="M1395.647,1348.822l-.685.106a.564.564,0,1,1-.172-1.115h0l.682-.1a.564.564,0,0,1,.172,1.114Z" transform="translate(-1265.489 -1265.759)" fill="#bdd0fb"/>
        <path id="Trazado_205307" data-name="Trazado 205307" d="M1368.791,1352.731l-.687.094a.568.568,0,1,1-.155-1.125h0l.684-.093a.567.567,0,1,1,.155,1.124Z" transform="translate(-1242.819 -1269.051)" fill="#bdd0fb"/>
        <path id="Trazado_205308" data-name="Trazado 205308" d="M1342.326,1356.154l-.688.084a.572.572,0,1,1-.139-1.136h0l.686-.082a.571.571,0,1,1,.139,1.134Z" transform="translate(-1220.479 -1271.933)" fill="#bdd0fb"/>
        <path id="Trazado_205309" data-name="Trazado 205309" d="M1315.813,1359.173l-.689.074a.576.576,0,1,1-.122-1.146h0l.687-.072a.575.575,0,1,1,.122,1.144Z" transform="translate(-1198.099 -1274.474)" fill="#bdd0fb"/>
        <path id="Trazado_205310" data-name="Trazado 205310" d="M1289.259,1361.8l-.69.063a.58.58,0,1,1-.106-1.155h0l.688-.062a.579.579,0,0,1,.106,1.154Z" transform="translate(-1175.684 -1276.682)" fill="#bdd0fb"/>
        <path id="Trazado_205311" data-name="Trazado 205311" d="M1262.67,1364.028l-.691.053a.584.584,0,1,1-.09-1.164h0l.688-.052a.583.583,0,1,1,.09,1.163Z" transform="translate(-1153.239 -1278.559)" fill="#bdd0fb"/>
        <path id="Trazado_205312" data-name="Trazado 205312" d="M1236.05,1365.871l-.692.043a.588.588,0,0,1-.073-1.173h0l.689-.042a.587.587,0,1,1,.073,1.172Z" transform="translate(-1130.769 -1280.107)" fill="#bdd0fb"/>
        <path id="Trazado_205313" data-name="Trazado 205313" d="M1209.407,1367.323l-.693.033a.592.592,0,0,1-.056-1.182h0l.69-.031a.591.591,0,1,1,.057,1.181Z" transform="translate(-1108.279 -1281.326)" fill="#bdd0fb"/>
        <path id="Trazado_205314" data-name="Trazado 205314" d="M1182.763,1368.383l-.693.021a.594.594,0,1,1-.036-1.187l.69-.022a.594.594,0,1,1,.042,1.188Z" transform="translate(-1085.792 -1282.215)" fill="#bdd0fb"/>
        <path id="Trazado_205315" data-name="Trazado 205315" d="M1156.133,1369.073l-.693.011a.59.59,0,1,1-.018-1.179l.69-.012a.59.59,0,0,1,.023,1.181Z" transform="translate(-1063.321 -1282.804)" fill="#bdd0fb"/>
        <path id="Trazado_205316" data-name="Trazado 205316" d="M1129.494,1369.354h-.693a.586.586,0,1,1,0-1.172h.69a.586.586,0,1,1,.005,1.173Z" transform="translate(-1040.843 -1283.048)" fill="#bdd0fb"/>
        <path id="Trazado_205317" data-name="Trazado 205317" d="M1102.856,1369.157l-.693-.011a.582.582,0,1,1,.02-1.164l.69.01a.583.583,0,1,1-.014,1.165Z" transform="translate(-1018.365 -1282.88)" fill="#bdd0fb"/>
        <path id="Trazado_205318" data-name="Trazado 205318" d="M1076.225,1368.515l-.693-.023a.578.578,0,1,1,.039-1.156l.69.022a.579.579,0,0,1-.033,1.157Z" transform="translate(-995.894 -1282.335)" fill="#bdd0fb"/>
        <path id="Trazado_205319" data-name="Trazado 205319" d="M1049.608,1367.417l-.693-.035a.574.574,0,1,1,.059-1.147l.689.034a.575.575,0,1,1-.053,1.149Z" transform="translate(-973.435 -1281.403)" fill="#bdd0fb"/>
        <path id="Trazado_205320" data-name="Trazado 205320" d="M1023.016,1365.838l-.692-.048a.571.571,0,0,1,.079-1.139h0l.688.046h0a.571.571,0,1,1-.077,1.14Z" transform="translate(-950.997 -1280.067)" fill="#bdd0fb"/>
        <path id="Trazado_205321" data-name="Trazado 205321" d="M996.458,1363.755l-.691-.061a.567.567,0,1,1,.1-1.129h0l.688.06h0a.567.567,0,0,1-.1,1.13Z" transform="translate(-928.589 -1278.305)" fill="#bdd0fb"/>
        <path id="Trazado_205322" data-name="Trazado 205322" d="M969.947,1361.138l-.69-.076a.563.563,0,1,1,.123-1.119h0l.686.074h0a.564.564,0,0,1-.121,1.121Z" transform="translate(-906.222 -1276.091)" fill="#bdd0fb"/>
        <path id="Trazado_205323" data-name="Trazado 205323" d="M943.5,1357.952l-.688-.091a.559.559,0,1,1,.146-1.108h0l.684.089h0a.56.56,0,0,1-.144,1.11Z" transform="translate(-883.907 -1273.396)" fill="#bdd0fb"/>
        <path id="Trazado_205324" data-name="Trazado 205324" d="M917.128,1354.156l-.686-.107a.555.555,0,1,1,.172-1.1h0l.682.105h0a.556.556,0,1,1-.17,1.1Z" transform="translate(-861.661 -1270.185)" fill="#bdd0fb"/>
        <path id="Trazado_205325" data-name="Trazado 205325" d="M890.862,1349.7l-.683-.125a.551.551,0,0,1,.2-1.085h0l.678.123h0a.552.552,0,1,1-.2,1.086Z" transform="translate(-839.504 -1266.418)" fill="#bdd0fb"/>
        <path id="Trazado_205326" data-name="Trazado 205326" d="M864.725,1344.535l-.68-.144a.547.547,0,1,1,.227-1.071h0l.674.142h0a.548.548,0,0,1-.226,1.073Z" transform="translate(-817.457 -1262.049)" fill="#bdd0fb"/>
        <path id="Trazado_205327" data-name="Trazado 205327" d="M838.753,1338.592l-.675-.165a.544.544,0,0,1,.259-1.056h0l.67.163h0a.544.544,0,1,1-.257,1.058Z" transform="translate(-795.551 -1257.024)" fill="#bdd0fb"/>
        <path id="Trazado_205328" data-name="Trazado 205328" d="M812.99,1331.8l-.669-.189a.54.54,0,0,1,.293-1.039h0l.663.186h0a.541.541,0,0,1-.292,1.041Z" transform="translate(-773.824 -1251.277)" fill="#bdd0fb"/>
        <path id="Trazado_205329" data-name="Trazado 205329" d="M787.493,1324.058l-.662-.215a.536.536,0,1,1,.33-1.02h0l.655.211h0a.537.537,0,1,1-.329,1.022Z" transform="translate(-752.323 -1244.734)" fill="#bdd0fb"/>
        <path id="Trazado_205330" data-name="Trazado 205330" d="M762.335,1315.276l-.652-.243a.532.532,0,0,1,.372-1h0l.645.239h0a.533.533,0,0,1-.37,1Z" transform="translate(-731.113 -1237.308)" fill="#bdd0fb"/>
        <path id="Trazado_205331" data-name="Trazado 205331" d="M737.622,1305.336l-.64-.276a.528.528,0,0,1,.418-.969h0l.632.27,0,0a.529.529,0,0,1-.415.973Z" transform="translate(-710.283 -1228.905)" fill="#bdd0fb"/>
        <path id="Trazado_205332" data-name="Trazado 205332" d="M713.51,1294.125l-.623-.312a.516.516,0,0,1,.459-.924l0,0,.615.3,0,0a.518.518,0,1,1-.459.928Z" transform="translate(-689.97 -1219.439)" fill="#bdd0fb"/>
        <path id="Trazado_205333" data-name="Trazado 205333" d="M690.13,1281.455l-.6-.353a.5.5,0,0,1,.507-.872l.005,0,.594.343,0,0a.506.506,0,1,1-.506.876Z" transform="translate(-670.279 -1208.741)" fill="#bdd0fb"/>
        <path id="Trazado_205334" data-name="Trazado 205334" d="M667.705,1267.158l-.574-.4a.493.493,0,0,1,.558-.812l.006,0,.565.386.006,0a.495.495,0,0,1-.558.817Z" transform="translate(-651.402 -1196.668)" fill="#bdd0fb"/>
        <path id="Trazado_205335" data-name="Trazado 205335" d="M646.529,1251.065l-.538-.446a.481.481,0,0,1,.612-.742l.006,0,.529.434.006,0a.483.483,0,1,1-.612.747Z" transform="translate(-633.588 -1183.08)" fill="#bdd0fb"/>
        <path id="Trazado_205336" data-name="Trazado 205336" d="M626.978,1233.032l-.491-.5a.469.469,0,0,1,.667-.661l.006.006.482.484.006.006a.471.471,0,1,1-.668.665Z" transform="translate(-617.155 -1167.856)" fill="#bdd0fb"/>
        <path id="Trazado_205337" data-name="Trazado 205337" d="M609.5,1212.977l-.431-.552a.458.458,0,0,1,.72-.565l.006.007.423.535.006.007a.46.46,0,0,1-.721.57Z" transform="translate(-602.482 -1150.93)" fill="#bdd0fb"/>
        <path id="Trazado_205338" data-name="Trazado 205338" d="M594.594,1190.946l-.359-.6a.446.446,0,0,1,.766-.458l.005.009.352.584,0,.008a.448.448,0,1,1-.768.462Z" transform="translate(-589.988 -1132.343)" fill="#bdd0fb"/>
        <path id="Trazado_205339" data-name="Trazado 205339" d="M582.715,1167.141l-.274-.646a.435.435,0,0,1,.8-.342l0,.009.27.626,0,.009a.437.437,0,0,1-.8.346Z" transform="translate(-580.055 -1112.268)" fill="#bdd0fb"/>
        <path id="Trazado_205340" data-name="Trazado 205340" d="M574.185,1141.939l-.184-.677a.423.423,0,0,1,.816-.224l0,.009.183.657,0,.009a.425.425,0,0,1-.819.227Z" transform="translate(-572.946 -1091.026)" fill="#bdd0fb"/>
        <path id="Trazado_205341" data-name="Trazado 205341" d="M569.1,1115.821l-.094-.694a.411.411,0,0,1,.815-.113v.009l.1.676v.009a.413.413,0,1,1-.818.116Z" transform="translate(-568.738 -1069.018)" fill="#bdd0fb"/>
        <path id="Trazado_205342" data-name="Trazado 205342" d="M567.32,1089.269l-.01-.7a.4.4,0,0,1,.8-.014v.008l.014.684v.007a.4.4,0,0,1-.8.016Z" transform="translate(-567.31 -1046.65)" fill="#bdd0fb"/>
        <path id="Trazado_205343" data-name="Trazado 205343" d="M568.2,1062.68l.064-.7a.388.388,0,0,1,.773.069v.006l-.059.683v.006a.39.39,0,1,1-.777-.067Z" transform="translate(-568.056 -1024.25)" fill="#bdd0fb"/>
        <path id="Trazado_205344" data-name="Trazado 205344" d="M571.717,1036.374l.129-.685a.371.371,0,0,1,.729.134v.005l-.121.676v.005a.374.374,0,0,1-.737-.131Z" transform="translate(-571.025 -1002.093)" fill="#bdd0fb"/>
        <path id="Trazado_205345" data-name="Trazado 205345" d="M577.555,1010.505l.183-.672a.35.35,0,0,1,.677.181v0l-.174.665v0a.354.354,0,1,1-.684-.179Z" transform="translate(-575.948 -980.303)" fill="#bdd0fb"/>
        <path id="Trazado_205346" data-name="Trazado 205346" d="M585.321,985.148l.228-.657a.33.33,0,0,1,.624.213v0l-.219.652v0a.333.333,0,1,1-.631-.212Z" transform="translate(-582.5 -958.939)" fill="#bdd0fb"/>
        <path id="Trazado_205347" data-name="Trazado 205347" d="M594.708,960.34l.266-.642a.309.309,0,0,1,.572.234v0l-.258.639v0a.312.312,0,0,1-.579-.234Z" transform="translate(-590.42 -938.034)" fill="#bdd0fb"/>
        <path id="Trazado_205348" data-name="Trazado 205348" d="M605.462,936.083l.3-.627a.288.288,0,0,1,.522.245v0l-.29.625v0a.292.292,0,0,1-.53-.245Z" transform="translate(-599.495 -917.59)" fill="#bdd0fb"/>
        <path id="Trazado_205349" data-name="Trazado 205349" d="M617.373,912.362l.325-.613a.268.268,0,0,1,.474.249v0l-.317.613v0a.271.271,0,0,1-.481-.25Z" transform="translate(-609.548 -897.595)" fill="#bdd0fb"/>
        <path id="Trazado_205350" data-name="Trazado 205350" d="M630.271,889.154l.348-.6a.247.247,0,0,1,.428.248l-.341.6a.25.25,0,1,1-.437-.245Z" transform="translate(-620.435 -878.029)" fill="#bdd0fb"/>
        <path id="Trazado_205351" data-name="Trazado 205351" d="M644.018,866.426l.369-.587a.226.226,0,0,1,.384.24l-.361.589a.23.23,0,1,1-.393-.238Z" transform="translate(-632.039 -858.866)" fill="#bdd0fb"/>
        <path id="Trazado_205352" data-name="Trazado 205352" d="M658.5,844.149l.386-.575a.206.206,0,0,1,.342.228l-.379.578a.209.209,0,1,1-.351-.228Z" transform="translate(-644.266 -840.082)" fill="#bdd0fb"/>
        <path id="Trazado_205353" data-name="Trazado 205353" d="M673.627,822.294l.4-.565a.185.185,0,0,1,.3.214l-.395.567a.189.189,0,0,1-.31-.214Z" transform="translate(-657.036 -821.652)" fill="#bdd0fb"/>
      </g>
      <g id="Grupo_152189" data-name="Grupo 152189" transform="translate(12.185)">
        <path id="Trazado_205354" data-name="Trazado 205354" d="M683,776.22l1.888,4.292,2.1-3.124Z" transform="translate(-677.164 -765.264)" fill="#7d97f4"/>
        <path id="Trazado_205355" data-name="Trazado 205355" d="M669.588,705.887l-7.119,15.268a1.187,1.187,0,0,1-1.617.554l-15.06-7.725a.476.476,0,0,1,.078-.878Z" transform="translate(-645.534 -705.887)" fill="#91b3fa"/>
        <path id="Trazado_205356" data-name="Trazado 205356" d="M683.01,716.842l18.216-10.956-15.79,12.21.473,1.213Z" transform="translate(-677.173 -705.887)" fill="#7d97f4"/>
        <path id="Trazado_205357" data-name="Trazado 205357" d="M697.108,785l-1.984,2.306.54-3.038Z" transform="translate(-687.399 -772.06)" fill="#7d97f4"/>
      </g>
    </g>
    <g id="Grupo_152193" data-name="Grupo 152193" transform="translate(730.786 3989.608)">
      <g id="Grupo_152191" data-name="Grupo 152191">
        <path id="Trazado_205358" data-name="Trazado 205358" d="M891.777,1141.754l-.664-1.958,0-.007a.3.3,0,0,1,.566-.192h0l.663,1.975a.3.3,0,1,1-.56.188Z" transform="translate(-883.551 -1017.498)" fill="#bdd0fb"/>
        <path id="Trazado_205359" data-name="Trazado 205359" d="M878.161,1104.128l-.71-1.952a.308.308,0,0,1,.58-.211h0v0l.7,1.951a.305.305,0,1,1-.573.209Z" transform="translate(-872.017 -985.727)" fill="#bdd0fb"/>
        <path id="Trazado_205360" data-name="Trazado 205360" d="M865.368,1066.167l-.628-1.985a.318.318,0,1,1,.606-.192h0l0,.006.618,1.975,0,.006a.315.315,0,0,1-.6.189Z" transform="translate(-861.289 -953.652)" fill="#bdd0fb"/>
        <path id="Trazado_205361" data-name="Trazado 205361" d="M854.915,1027.5l-.487-2.026a.327.327,0,1,1,.636-.153h0l0,.009.477,2.011,0,.008a.324.324,0,0,1-.631.151Z" transform="translate(-852.587 -920.984)" fill="#bdd0fb"/>
        <path id="Trazado_205362" data-name="Trazado 205362" d="M847.519,988.14l-.319-2.06a.337.337,0,1,1,.666-.1h0v.01l.31,2.043v.009a.334.334,0,0,1-.66.1Z" transform="translate(-846.491 -887.737)" fill="#bdd0fb"/>
        <path id="Trazado_205363" data-name="Trazado 205363" d="M843.487,948.3l-.141-2.081a.346.346,0,0,1,.691-.047h0v.01l.134,2.061v.01a.343.343,0,0,1-.685.045Z" transform="translate(-843.239 -854.099)" fill="#bdd0fb"/>
        <path id="Trazado_205364" data-name="Trazado 205364" d="M842.667,908.26l.034-2.085a.356.356,0,0,1,.711.011h0v.01l-.04,2.065v.01a.353.353,0,0,1-.705-.012Z" transform="translate(-842.667 -820.312)" fill="#bdd0fb"/>
        <path id="Trazado_205365" data-name="Trazado 205365" d="M844.38,868.307l.2-2.075a.365.365,0,1,1,.727.069h0v.009l-.2,2.056v.009a.362.362,0,0,1-.721-.07Z" transform="translate(-844.112 -786.607)" fill="#bdd0fb"/>
        <path id="Trazado_205366" data-name="Trazado 205366" d="M849.163,828.665l.348-2.055a.375.375,0,1,1,.739.125h0v.008l-.351,2.037,0,.009a.372.372,0,0,1-.733-.125Z" transform="translate(-848.147 -753.172)" fill="#bdd0fb"/>
        <path id="Trazado_205367" data-name="Trazado 205367" d="M856.722,789.577l.478-2.013a.384.384,0,0,1,.748.178h0l0,.008-.481,2,0,.008a.381.381,0,0,1-.741-.177Z" transform="translate(-854.524 -720.222)" fill="#bdd0fb"/>
        <path id="Trazado_205368" data-name="Trazado 205368" d="M866.9,751.109l.638-1.987a.393.393,0,0,1,.749.241h0l0,.01-.637,1.965,0,.01a.39.39,0,0,1-.743-.24Z" transform="translate(-863.11 -687.788)" fill="#bdd0fb"/>
        <path id="Trazado_205369" data-name="Trazado 205369" d="M880.142,713.645l.8-1.929a.4.4,0,0,1,.745.307h0l0,.01-.793,1.907,0,.01a.4.4,0,0,1-.738-.306Z" transform="translate(-874.279 -656.229)" fill="#bdd0fb"/>
        <path id="Trazado_205370" data-name="Trazado 205370" d="M896.358,677.428l.946-1.86a.412.412,0,0,1,.735.374h0l0,.01-.941,1.838,0,.01a.409.409,0,0,1-.728-.372Z" transform="translate(-887.957 -625.732)" fill="#bdd0fb"/>
        <path id="Trazado_205371" data-name="Trazado 205371" d="M915.4,642.659l1.087-1.781a.421.421,0,0,1,.719.439h0l-.006.009-1.081,1.759-.006.009a.418.418,0,0,1-.713-.437Z" transform="translate(-904.02 -596.465)" fill="#bdd0fb"/>
        <path id="Trazado_205372" data-name="Trazado 205372" d="M937.091,609.5l1.218-1.694a.431.431,0,0,1,.7.5h0l-.006.009-1.211,1.673-.006.009a.427.427,0,0,1-.693-.5Z" transform="translate(-922.314 -568.566)" fill="#bdd0fb"/>
        <path id="Trazado_205373" data-name="Trazado 205373" d="M961.246,578.135l1.34-1.6a.433.433,0,1,1,.664.556h0l-.007.008-1.328,1.583-.007.008a.432.432,0,0,1-.662-.555Z" transform="translate(-942.69 -542.185)" fill="#bdd0fb"/>
        <path id="Trazado_205374" data-name="Trazado 205374" d="M987.646,548.614l1.448-1.5a.435.435,0,1,1,.626.6h0l-.007.007-1.435,1.486-.007.007a.434.434,0,0,1-.625-.6Z" transform="translate(-964.96 -517.364)" fill="#bdd0fb"/>
        <path id="Trazado_205375" data-name="Trazado 205375" d="M1016.062,521.012l1.546-1.4a.437.437,0,0,1,.587.648h0l-.007.007-1.532,1.386-.007.006a.436.436,0,0,1-.586-.647Z" transform="translate(-988.931 -494.164)" fill="#bdd0fb"/>
        <path id="Trazado_205376" data-name="Trazado 205376" d="M1046.291,495.382l1.634-1.3a.439.439,0,1,1,.546.688h0l-.007.006-1.62,1.283-.007.006a.438.438,0,0,1-.545-.687Z" transform="translate(-1014.432 -472.629)" fill="#bdd0fb"/>
        <path id="Trazado_205377" data-name="Trazado 205377" d="M1078.143,471.765l1.712-1.19a.441.441,0,1,1,.5.725h0l-.008.005-1.7,1.178-.007.005a.441.441,0,0,1-.5-.724Z" transform="translate(-1041.303 -452.794)" fill="#bdd0fb"/>
        <path id="Trazado_205378" data-name="Trazado 205378" d="M1111.443,450.194l1.782-1.083a.443.443,0,0,1,.46.758h0l-.008,0-1.767,1.072-.008,0a.443.443,0,0,1-.46-.757Z" transform="translate(-1069.396 -434.686)" fill="#bdd0fb"/>
        <path id="Trazado_205379" data-name="Trazado 205379" d="M1146.03,430.7l1.843-.973a.445.445,0,0,1,.416.788h0l-.008,0-1.828.964-.008,0a.445.445,0,0,1-.415-.787Z" transform="translate(-1098.575 -418.334)" fill="#bdd0fb"/>
        <path id="Trazado_205380" data-name="Trazado 205380" d="M1181.757,413.328l1.9-.862a.447.447,0,1,1,.37.815h0l-.008,0-1.882.854-.008,0a.447.447,0,0,1-.369-.814Z" transform="translate(-1128.715 -403.769)" fill="#bdd0fb"/>
        <path id="Trazado_205381" data-name="Trazado 205381" d="M1218.483,398.119l1.946-.749a.45.45,0,0,1,.323.839h0l-.008,0-1.93.741-.008,0a.449.449,0,0,1-.322-.838Z" transform="translate(-1159.699 -391.033)" fill="#bdd0fb"/>
        <path id="Trazado_205382" data-name="Trazado 205382" d="M1256.083,385.133l1.987-.631a.452.452,0,0,1,.273.861h0l-.009,0-1.97.624-.008,0a.451.451,0,0,1-.273-.859Z" transform="translate(-1191.42 -380.177)" fill="#bdd0fb"/>
        <path id="Trazado_205383" data-name="Trazado 205383" d="M1294.43,374.45l2.022-.51a.454.454,0,1,1,.222.88h0l-.009,0-2,.5-.009,0a.453.453,0,0,1-.221-.879Z" transform="translate(-1223.77 -371.267)" fill="#bdd0fb"/>
        <path id="Trazado_205384" data-name="Trazado 205384" d="M1333.4,366.166l2.05-.382a.456.456,0,1,1,.167.9h0l-.009,0-2.031.377-.009,0a.455.455,0,1,1-.167-.895Z" transform="translate(-1256.645 -364.386)" fill="#bdd0fb"/>
        <path id="Trazado_205385" data-name="Trazado 205385" d="M1372.861,360.409l2.071-.248a.458.458,0,1,1,.109.909h-.01l-2.051.244h-.01a.457.457,0,0,1-.109-.908Z" transform="translate(-1289.932 -359.643)" fill="#bdd0fb"/>
        <path id="Trazado_205386" data-name="Trazado 205386" d="M1412.664,357.33l2.084-.1a.46.46,0,0,1,.046.919h-.011l-2.062.1h-.011a.459.459,0,0,1-.046-.917Z" transform="translate(-1323.507 -357.167)" fill="#bdd0fb"/>
        <path id="Trazado_205387" data-name="Trazado 205387" d="M1452.641,356.853l2.087.049a.462.462,0,1,1-.022.924h-.012l-2.063-.05h-.011a.461.461,0,0,1,.022-.922Z" transform="translate(-1357.227 -356.853)" fill="#bdd0fb"/>
        <path id="Trazado_205388" data-name="Trazado 205388" d="M1492.6,358.832c.693.067,1.386.134,2.076.214a.464.464,0,1,1-.106.922h0c-.684-.08-1.369-.146-2.053-.213h-.007a.463.463,0,0,1,.09-.922Z" transform="translate(-1390.929 -358.522)" fill="#bdd0fb"/>
        <path id="Trazado_205389" data-name="Trazado 205389" d="M1532.262,363.836l2.056.355a.466.466,0,1,1-.159.919h0l-.011,0-2.035-.353-.011,0a.465.465,0,0,1,.159-.917Z" transform="translate(-1424.384 -362.743)" fill="#bdd0fb"/>
        <path id="Trazado_205390" data-name="Trazado 205390" d="M1571.5,371.565l2.026.5a.468.468,0,0,1-.224.909h0l-.011,0-2-.5-.011,0a.467.467,0,1,1,.224-.907Z" transform="translate(-1457.477 -369.262)" fill="#bdd0fb"/>
        <path id="Trazado_205391" data-name="Trazado 205391" d="M1610.08,382.071l1.985.645a.47.47,0,0,1-.291.894h0l-.011,0-1.963-.639-.011,0a.469.469,0,0,1,.291-.893Z" transform="translate(-1490.021 -378.123)" fill="#bdd0fb"/>
        <path id="Trazado_205392" data-name="Trazado 205392" d="M1647.8,395.357l1.933.788a.472.472,0,1,1-.357.874h0l-.011,0-1.911-.781-.01,0a.471.471,0,0,1,.356-.873Z" transform="translate(-1521.833 -389.33)" fill="#bdd0fb"/>
        <path id="Trazado_205393" data-name="Trazado 205393" d="M1684.447,411.353l1.871.925a.474.474,0,0,1-.42.85h0l-.01-.005-1.85-.916-.01,0a.473.473,0,0,1,.42-.849Z" transform="translate(-1552.745 -402.822)" fill="#bdd0fb"/>
        <path id="Trazado_205394" data-name="Trazado 205394" d="M1719.867,429.912l1.8,1.052a.476.476,0,0,1-.48.822h0l-.009-.005-1.782-1.042-.009-.005a.476.476,0,0,1,.48-.821Z" transform="translate(-1582.622 -418.477)" fill="#bdd0fb"/>
        <path id="Trazado_205395" data-name="Trazado 205395" d="M1753.944,450.836l1.729,1.167a.478.478,0,1,1-.535.793h0l-.008-.006-1.712-1.156-.008-.006a.478.478,0,0,1,.535-.792Z" transform="translate(-1611.365 -436.127)" fill="#bdd0fb"/>
        <path id="Trazado_205396" data-name="Trazado 205396" d="M1786.624,473.878l1.656,1.268a.48.48,0,0,1-.584.763h0l-.007-.006-1.64-1.257-.007-.006a.48.48,0,0,1,.583-.761Z" transform="translate(-1638.932 -455.566)" fill="#bdd0fb"/>
        <path id="Trazado_205397" data-name="Trazado 205397" d="M1817.913,498.774l1.584,1.354a.482.482,0,1,1-.627.733h0l-.006-.005-1.571-1.344-.006-.005a.482.482,0,0,1,.626-.732Z" transform="translate(-1665.327 -476.569)" fill="#bdd0fb"/>
        <path id="Trazado_205398" data-name="Trazado 205398" d="M1847.872,525.253l1.517,1.427a.484.484,0,1,1-.663.706h0l0,0-1.506-1.418-.005,0a.484.484,0,0,1,.663-.7Z" transform="translate(-1690.603 -498.911)" fill="#bdd0fb"/>
        <path id="Trazado_205399" data-name="Trazado 205399" d="M1876.606,553.053l1.458,1.486a.486.486,0,0,1-.695.681h0l0,0-1.448-1.478,0,0a.486.486,0,0,1,.694-.68Z" transform="translate(-1714.846 -522.368)" fill="#bdd0fb"/>
        <path id="Trazado_205400" data-name="Trazado 205400" d="M1904.263,581.922l1.407,1.533a.488.488,0,1,1-.719.66h0l0,0-1.4-1.526,0,0a.488.488,0,0,1,.719-.659Z" transform="translate(-1738.182 -546.729)" fill="#bdd0fb"/>
        <path id="Trazado_205401" data-name="Trazado 205401" d="M1931.017,611.625l1.366,1.567a.49.49,0,0,1-.739.645h0l0,0-1.36-1.563,0,0a.49.49,0,0,1,.739-.643Z" transform="translate(-1760.759 -571.797)" fill="#bdd0fb"/>
        <path id="Trazado_205402" data-name="Trazado 205402" d="M1957.075,641.937l1.337,1.591a.492.492,0,0,1-.754.634h0v0l-1.333-1.588v0a.492.492,0,0,1,.753-.633Z" transform="translate(-1782.75 -597.381)" fill="#bdd0fb"/>
        <path id="Trazado_205403" data-name="Trazado 205403" d="M1982.67,672.637l1.321,1.6a.494.494,0,0,1-.763.629h0l-1.319-1.6a.494.494,0,1,1,.761-.629Z" transform="translate(-1804.353 -623.296)" fill="#bdd0fb"/>
        <path id="Trazado_205404" data-name="Trazado 205404" d="M2008.07,703.488l1.321,1.6a.5.5,0,1,1-.765.634h0l-1.321-1.6a.5.5,0,1,1,.766-.63Z" transform="translate(-1825.793 -649.34)" fill="#bdd0fb"/>
        <path id="Trazado_205405" data-name="Trazado 205405" d="M2033.585,734.228l1.338,1.583,0,0a.5.5,0,0,1-.761.644h0l-1.341-1.588a.5.5,0,1,1,.761-.642Z" transform="translate(-1847.332 -675.294)" fill="#bdd0fb"/>
        <path id="Trazado_205406" data-name="Trazado 205406" d="M2059.591,764.544l1.377,1.545,0,0a.5.5,0,1,1-.747.666h0l-1.384-1.555a.5.5,0,0,1,.747-.665Z" transform="translate(-1869.29 -700.893)" fill="#bdd0fb"/>
        <path id="Trazado_205407" data-name="Trazado 205407" d="M2086.542,794l1.443,1.479.007.007a.5.5,0,0,1-.72.7h0l-1.455-1.494a.5.5,0,1,1,.719-.7Z" transform="translate(-1892.051 -725.776)" fill="#bdd0fb"/>
        <path id="Trazado_205408" data-name="Trazado 205408" d="M2115,821.988l1.54,1.37.011.01a.5.5,0,1,1-.671.754h0l-1.561-1.391a.5.5,0,0,1,.671-.752Z" transform="translate(-1916.088 -749.418)" fill="#bdd0fb"/>
        <path id="Trazado_205409" data-name="Trazado 205409" d="M2145.614,847.537l1.671,1.195.018.013a.507.507,0,1,1-.589.824h0l-1.7-1.221a.506.506,0,0,1,.589-.823Z" transform="translate(-1941.964 -771.013)" fill="#bdd0fb"/>
        <path id="Trazado_205410" data-name="Trazado 205410" d="M2179.135,869.2q.9.487,1.826.92a.509.509,0,1,1-.43.922h0q-.955-.446-1.88-.949a.508.508,0,1,1,.484-.893Z" transform="translate(-1970.319 -789.337)" fill="#bdd0fb"/>
        <path id="Trazado_205411" data-name="Trazado 205411" d="M2215.762,884.762q.974.3,1.967.526a.511.511,0,0,1-.226,1h0q-1.031-.235-2.041-.547a.51.51,0,1,1,.3-.975Z" transform="translate(-2001.317 -802.51)" fill="#bdd0fb"/>
        <path id="Trazado_205412" data-name="Trazado 205412" d="M2254.844,892.027q1.016.067,2.035.055a.513.513,0,0,1,.013,1.025h0q-1.058.012-2.115-.058a.512.512,0,0,1,.068-1.022Z" transform="translate(-2034.408 -808.662)" fill="#bdd0fb"/>
        <path id="Trazado_205413" data-name="Trazado 205413" d="M2293.942,882.38a12.357,12.357,0,0,0,1.789-.872.515.515,0,1,1,.523.887h0a13.374,13.374,0,0,1-1.939.943.514.514,0,1,1-.373-.958Z" transform="translate(-2067.599 -799.722)" fill="#bdd0fb"/>
        <path id="Trazado_205414" data-name="Trazado 205414" d="M2326.445,856.382a16.805,16.805,0,0,0,1.3-1.538.517.517,0,1,1,.828.619h0a17.907,17.907,0,0,1-1.379,1.632.516.516,0,0,1-.747-.713Z" transform="translate(-2095.196 -777.096)" fill="#bdd0fb"/>
        <path id="Trazado_205415" data-name="Trazado 205415" d="M2348.373,821.482a18.549,18.549,0,0,0,.719-1.885.518.518,0,0,1,.987.315,18.861,18.861,0,0,1-.76,1.993.518.518,0,1,1-.947-.422Z" transform="translate(-2113.79 -747.211)" fill="#bdd0fb"/>
        <path id="Trazado_205416" data-name="Trazado 205416" d="M2358.163,782.5c.04-.67.041-1.348.018-2.027a.5.5,0,0,1,.991-.038c.029.7.034,1.411,0,2.123a.5.5,0,1,1-1.005-.053Z" transform="translate(-2122.093 -714.048)" fill="#bdd0fb"/>
        <path id="Trazado_205417" data-name="Trazado 205417" d="M2354.091,742.973l-.32-2.034,0-.016a.473.473,0,0,1,.935-.15l.34,2.065a.481.481,0,0,1-.949.156v0Z" transform="translate(-2118.379 -680.634)" fill="#bdd0fb"/>
        <path id="Trazado_205418" data-name="Trazado 205418" d="M2345.921,704.261l-.479-2.009,0-.01a.426.426,0,0,1,.826-.206l.526,2.019a.447.447,0,0,1-.866.225l0-.007Z" transform="translate(-2111.342 -647.998)" fill="#bdd0fb"/>
        <path id="Trazado_205419" data-name="Trazado 205419" d="M2334.9,666.325l-.629-1.968,0-.009a.361.361,0,0,1,.686-.227l.676,1.973a.383.383,0,1,1-.724.248l0-.006Z" transform="translate(-2101.904 -616.052)" fill="#bdd0fb"/>
        <path id="Trazado_205420" data-name="Trazado 205420" d="M2320.7,629.785c-.259-.637-.53-1.269-.82-1.892a.264.264,0,0,1,.475-.23c.314.622.611,1.253.894,1.889a.3.3,0,1,1-.545.243Z" transform="translate(-2089.756 -585.357)" fill="#bdd0fb"/>
      </g>
      <g id="Grupo_152192" data-name="Grupo 152192" transform="translate(206.731 11.367)">
        <path id="Trazado_205421" data-name="Trazado 205421" d="M2277.467,549.4l-3.478,5.207-2.031-4.594Z" transform="translate(-2256.048 -530.777)" fill="#0ab1cb"/>
        <path id="Trazado_205422" data-name="Trazado 205422" d="M2169.818,429.826l5.825,21.726a1.585,1.585,0,0,0,2,1.1l21.593-6.67a.635.635,0,0,0,.1-1.173Z" transform="translate(-2169.818 -429.826)" fill="#0ab1cb"/>
        <path id="Trazado_205423" data-name="Trazado 205423" d="M2191.235,448.452l-21.417-18.626,17.936,19.713-.9,1.485Z" transform="translate(-2169.818 -429.826)" fill="#f7e7cf"/>
        <path id="Trazado_205424" data-name="Trazado 205424" d="M2271.679,557.008l2.075,3.492-.006-4.12Z" transform="translate(-2255.812 -536.666)" fill="#0ab1cb"/>
      </g>
    </g>
  </g>
</svg>
