<svg xmlns="http://www.w3.org/2000/svg" width="505" height="59" viewBox="0 0 505 59">
  <g id="Grupo_156426" data-name="Grupo 156426" transform="translate(-285 -9513)">
    <rect id="Rectángulo_43607" data-name="Rectángulo 43607" width="505" height="59" transform="translate(285 9513)" fill="#8bdae6"/>
    <path id="Trazado_220910" data-name="Trazado 220910" d="M30.478,14.838H24.853v3.809h6.6V21H21.923V6.781h9.512V9.154H24.853v3.389h5.625ZM35.966,21H33.134V6h2.832Zm18.652-4.736a5.031,5.031,0,0,1-1.694,3.613A5.951,5.951,0,0,1,48.9,21.2a5.351,5.351,0,0,1-4.3-1.841A7.548,7.548,0,0,1,43.026,14.3v-.869a8.523,8.523,0,0,1,.723-3.613,5.415,5.415,0,0,1,2.065-2.4A6.455,6.455,0,0,1,52.9,7.9a5.407,5.407,0,0,1,1.738,3.7h-2.93a2.97,2.97,0,0,0-.767-2,2.839,2.839,0,0,0-2.007-.62,2.489,2.489,0,0,0-2.192,1.05A5.883,5.883,0,0,0,46,13.295v1.074a6.3,6.3,0,0,0,.7,3.369A2.443,2.443,0,0,0,48.9,18.8a2.892,2.892,0,0,0,2.026-.62,2.8,2.8,0,0,0,.767-1.919Zm1.3-.645a6.267,6.267,0,0,1,.605-2.8,4.432,4.432,0,0,1,1.743-1.9,5.086,5.086,0,0,1,2.642-.674A4.812,4.812,0,0,1,64.4,11.547,5.252,5.252,0,0,1,65.907,15.1l.02.723a5.523,5.523,0,0,1-1.357,3.9,5.261,5.261,0,0,1-7.29,0,5.62,5.62,0,0,1-1.362-3.984Zm2.822.2a3.95,3.95,0,0,0,.566,2.3,2.035,2.035,0,0,0,3.223.01,4.322,4.322,0,0,0,.576-2.518,3.91,3.91,0,0,0-.576-2.289,1.873,1.873,0,0,0-1.621-.812,1.842,1.842,0,0,0-1.6.807A4.395,4.395,0,0,0,58.739,15.819ZM61.464,6H64.54L61.835,9.027H59.54Zm5.762,9.639A6.368,6.368,0,0,1,68.334,11.7a3.6,3.6,0,0,1,3.032-1.465,3.236,3.236,0,0,1,2.549,1.152V6h2.832V21H74.2l-.137-1.123A3.321,3.321,0,0,1,71.347,21.2a3.587,3.587,0,0,1-2.993-1.47A6.573,6.573,0,0,1,67.226,15.639Zm2.822.21a4.171,4.171,0,0,0,.518,2.279,1.686,1.686,0,0,0,1.5.792,1.888,1.888,0,0,0,1.846-1.105V13.638a1.861,1.861,0,0,0-1.826-1.105Q70.048,12.533,70.048,15.849ZM81.913,21H79.081V10.434h2.832Zm-3-13.3a1.39,1.39,0,0,1,.425-1.045,1.831,1.831,0,0,1,2.31,0,1.382,1.382,0,0,1,.43,1.045,1.386,1.386,0,0,1-.435,1.055,1.81,1.81,0,0,1-2.295,0A1.386,1.386,0,0,1,78.915,7.7Zm4.912,7.939a6.193,6.193,0,0,1,1.157-3.916,3.75,3.75,0,0,1,3.12-1.484A3.289,3.289,0,0,1,90.81,11.43l.117-1h2.559V20.648a4.516,4.516,0,0,1-.63,2.412,4.045,4.045,0,0,1-1.772,1.563,6.231,6.231,0,0,1-2.676.537,5.794,5.794,0,0,1-2.266-.464,4.021,4.021,0,0,1-1.67-1.2l1.25-1.719a3.306,3.306,0,0,0,2.559,1.182,2.42,2.42,0,0,0,1.748-.6,2.253,2.253,0,0,0,.625-1.7v-.566a3.264,3.264,0,0,1-2.568,1.1A3.74,3.74,0,0,1,85,19.706a6.191,6.191,0,0,1-1.177-3.95Zm2.822.21a3.856,3.856,0,0,0,.576,2.254,1.833,1.833,0,0,0,1.582.817,1.96,1.96,0,0,0,1.846-.968V13.5a1.955,1.955,0,0,0-1.826-.968,1.844,1.844,0,0,0-1.6.831A4.346,4.346,0,0,0,86.649,15.849Zm8.564-.23a6.266,6.266,0,0,1,.605-2.8,4.432,4.432,0,0,1,1.743-1.9,5.086,5.086,0,0,1,2.642-.674,4.812,4.812,0,0,1,3.491,1.309A5.252,5.252,0,0,1,105.2,15.1l.02.723a5.523,5.523,0,0,1-1.357,3.9,5.261,5.261,0,0,1-7.29,0,5.62,5.62,0,0,1-1.362-3.984Zm2.822.2a3.95,3.95,0,0,0,.566,2.3,2.035,2.035,0,0,0,3.223.01,4.322,4.322,0,0,0,.576-2.518,3.91,3.91,0,0,0-.576-2.289,1.873,1.873,0,0,0-1.621-.812,1.842,1.842,0,0,0-1.6.807A4.395,4.395,0,0,0,98.036,15.819ZM119.5,17.27A1.5,1.5,0,0,0,118.915,16a7.685,7.685,0,0,0-2.109-.937,14.953,14.953,0,0,1-2.412-.972,3.941,3.941,0,0,1-2.422-3.525,3.434,3.434,0,0,1,.649-2.056,4.236,4.236,0,0,1,1.865-1.411,7.02,7.02,0,0,1,2.729-.508,6.39,6.39,0,0,1,2.715.552A4.323,4.323,0,0,1,121.781,8.7a4.076,4.076,0,0,1,.659,2.285h-2.93a1.917,1.917,0,0,0-.615-1.519,2.529,2.529,0,0,0-1.729-.542,2.7,2.7,0,0,0-1.67.454,1.432,1.432,0,0,0-.6,1.2,1.372,1.372,0,0,0,.7,1.162,7.889,7.889,0,0,0,2.056.879,8.882,8.882,0,0,1,3.643,1.865,3.715,3.715,0,0,1,1.143,2.773,3.422,3.422,0,0,1-1.4,2.9,6.113,6.113,0,0,1-3.76,1.05,7.26,7.26,0,0,1-2.988-.6,4.729,4.729,0,0,1-2.056-1.646,4.214,4.214,0,0,1-.708-2.422h2.939q0,2.354,2.813,2.354a2.736,2.736,0,0,0,1.631-.425A1.382,1.382,0,0,0,119.5,17.27Zm11.064,2.656a3.539,3.539,0,0,1-2.891,1.27,3.338,3.338,0,0,1-2.593-.977,4.169,4.169,0,0,1-.913-2.861V10.434h2.822v6.834q0,1.652,1.5,1.652a2.038,2.038,0,0,0,1.973-1V10.434H133.3V21h-2.656Zm10.586-1.846a.909.909,0,0,0-.513-.815,5.824,5.824,0,0,0-1.646-.532q-3.77-.791-3.77-3.2a2.9,2.9,0,0,1,1.167-2.349,4.708,4.708,0,0,1,3.052-.942,5.067,5.067,0,0,1,3.218.947,2.985,2.985,0,0,1,1.206,2.461h-2.822a1.366,1.366,0,0,0-.391-1,1.653,1.653,0,0,0-1.221-.4,1.689,1.689,0,0,0-1.1.322,1.017,1.017,0,0,0-.391.82.87.87,0,0,0,.444.757,4.571,4.571,0,0,0,1.5.5,12.244,12.244,0,0,1,1.777.474,2.92,2.92,0,0,1,2.236,2.842,2.756,2.756,0,0,1-1.24,2.339,5.35,5.35,0,0,1-3.2.894,5.588,5.588,0,0,1-2.358-.474,3.957,3.957,0,0,1-1.616-1.3,3.018,3.018,0,0,1-.586-1.782h2.676a1.473,1.473,0,0,0,.557,1.152,2.208,2.208,0,0,0,1.387.4,2.044,2.044,0,0,0,1.226-.308A.957.957,0,0,0,141.151,18.08Zm7.939-10.244v2.6H150.9V12.5h-1.807v5.273a1.259,1.259,0,0,0,.225.84,1.128,1.128,0,0,0,.859.254A4.5,4.5,0,0,0,151,18.8v2.139a5.81,5.81,0,0,1-1.709.254q-2.969,0-3.027-3V12.5h-1.543v-2.07h1.543v-2.6ZM158.593,21a3.134,3.134,0,0,1-.283-.947,3.415,3.415,0,0,1-2.666,1.143,3.752,3.752,0,0,1-2.573-.9,2.889,2.889,0,0,1-1.021-2.266,2.986,2.986,0,0,1,1.245-2.578,6.144,6.144,0,0,1,3.6-.908h1.3v-.605a1.741,1.741,0,0,0-.376-1.172,1.479,1.479,0,0,0-1.187-.439,1.682,1.682,0,0,0-1.118.342,1.161,1.161,0,0,0-.405.938h-2.822a2.835,2.835,0,0,1,.566-1.7,3.744,3.744,0,0,1,1.6-1.226,5.837,5.837,0,0,1,2.324-.444,4.611,4.611,0,0,1,3.1.981,3.433,3.433,0,0,1,1.147,2.759v4.58a5.052,5.052,0,0,0,.42,2.275V21Zm-2.334-1.963a2.431,2.431,0,0,0,1.152-.278,1.828,1.828,0,0,0,.781-.747V16.2h-1.055q-2.119,0-2.256,1.465l-.01.166a1.13,1.13,0,0,0,.371.869A1.441,1.441,0,0,0,156.259,19.037Zm9.531-8.6.088,1.221a3.689,3.689,0,0,1,3.037-1.416,3.066,3.066,0,0,1,2.5.986,4.6,4.6,0,0,1,.84,2.949V21h-2.822V14.242a1.831,1.831,0,0,0-.391-1.3,1.749,1.749,0,0,0-1.3-.405,1.942,1.942,0,0,0-1.787,1.016V21h-2.822V10.434Zm11.982-2.6v2.6h1.807V12.5h-1.807v5.273a1.259,1.259,0,0,0,.225.84,1.128,1.128,0,0,0,.859.254,4.5,4.5,0,0,0,.83-.068v2.139a5.81,5.81,0,0,1-1.709.254q-2.969,0-3.027-3V12.5h-1.543v-2.07h1.543v-2.6ZM184.13,21H181.3V10.434h2.832Zm-3-13.3a1.39,1.39,0,0,1,.425-1.045,1.831,1.831,0,0,1,2.31,0A1.382,1.382,0,0,1,184.3,7.7a1.386,1.386,0,0,1-.435,1.055,1.81,1.81,0,0,1-2.295,0A1.386,1.386,0,0,1,181.132,7.7Zm9.277,9.854,1.963-7.119h2.949L191.757,21h-2.7L185.5,10.434h2.949Zm5.566-1.934a6.267,6.267,0,0,1,.605-2.8,4.432,4.432,0,0,1,1.743-1.9,5.086,5.086,0,0,1,2.642-.674,4.812,4.812,0,0,1,3.491,1.309,5.252,5.252,0,0,1,1.509,3.555l.02.723a5.523,5.523,0,0,1-1.357,3.9,5.261,5.261,0,0,1-7.29,0,5.62,5.62,0,0,1-1.362-3.984Zm2.822.2a3.95,3.95,0,0,0,.566,2.3,2.035,2.035,0,0,0,3.223.01,4.322,4.322,0,0,0,.576-2.518,3.91,3.91,0,0,0-.576-2.289,1.873,1.873,0,0,0-1.621-.812,1.842,1.842,0,0,0-1.6.807A4.395,4.395,0,0,0,198.8,15.819Zm13.467-.181a6.368,6.368,0,0,1,1.108-3.936,3.6,3.6,0,0,1,3.032-1.465,3.236,3.236,0,0,1,2.549,1.152V6h2.832V21h-2.549l-.137-1.123a3.321,3.321,0,0,1-2.715,1.318,3.587,3.587,0,0,1-2.993-1.47A6.573,6.573,0,0,1,212.265,15.639Zm2.822.21a4.171,4.171,0,0,0,.518,2.279,1.686,1.686,0,0,0,1.5.792,1.888,1.888,0,0,0,1.846-1.105V13.638a1.861,1.861,0,0,0-1.826-1.105Q215.087,12.533,215.087,15.849Zm13.75,5.347a5.187,5.187,0,0,1-3.784-1.426,5.068,5.068,0,0,1-1.46-3.8V15.7a6.383,6.383,0,0,1,.615-2.847,4.515,4.515,0,0,1,1.743-1.934,4.893,4.893,0,0,1,2.573-.679,4.385,4.385,0,0,1,3.413,1.367,5.555,5.555,0,0,1,1.245,3.877v1.152h-6.729a2.622,2.622,0,0,0,.825,1.66,2.5,2.5,0,0,0,1.743.625,3.046,3.046,0,0,0,2.549-1.182l1.387,1.553a4.237,4.237,0,0,1-1.719,1.4A5.639,5.639,0,0,1,228.837,21.2Zm-.322-8.682a1.764,1.764,0,0,0-1.362.569,2.946,2.946,0,0,0-.669,1.628h3.926v-.226a2.1,2.1,0,0,0-.508-1.457A1.819,1.819,0,0,0,228.515,12.514ZM237.763,21h-2.832V6h2.832ZM255.37,9.154h-4.355V21h-2.93V9.154h-4.3V6.781H255.37Zm6.787,3.926A7.668,7.668,0,0,0,261.142,13a2.067,2.067,0,0,0-2.1,1.084V21H256.22V10.434h2.666l.078,1.26a2.615,2.615,0,0,1,2.354-1.455,2.957,2.957,0,0,1,.879.127ZM269.345,21a3.134,3.134,0,0,1-.283-.947A3.415,3.415,0,0,1,266.4,21.2a3.752,3.752,0,0,1-2.573-.9,2.89,2.89,0,0,1-1.021-2.266,2.986,2.986,0,0,1,1.245-2.578,6.144,6.144,0,0,1,3.6-.908h1.3v-.605a1.741,1.741,0,0,0-.376-1.172,1.479,1.479,0,0,0-1.187-.439,1.682,1.682,0,0,0-1.118.342,1.161,1.161,0,0,0-.405.938h-2.822a2.835,2.835,0,0,1,.566-1.7,3.744,3.744,0,0,1,1.6-1.226,5.837,5.837,0,0,1,2.324-.444,4.611,4.611,0,0,1,3.1.981,3.433,3.433,0,0,1,1.147,2.759v4.58a5.051,5.051,0,0,0,.42,2.275V21Zm-2.334-1.963a2.431,2.431,0,0,0,1.152-.278,1.828,1.828,0,0,0,.781-.747V16.2H267.89q-2.119,0-2.256,1.465l-.01.166A1.13,1.13,0,0,0,266,18.7,1.441,1.441,0,0,0,267.011,19.037Zm16.455-3.223a6.4,6.4,0,0,1-1.084,3.96,3.591,3.591,0,0,1-3.027,1.421,3.3,3.3,0,0,1-2.744-1.318L276.483,21h-2.539V6h2.822v5.381a3.214,3.214,0,0,1,2.568-1.143,3.62,3.62,0,0,1,3.032,1.421,6.408,6.408,0,0,1,1.1,4Zm-2.822-.205a4.2,4.2,0,0,0-.508-2.339,1.717,1.717,0,0,0-1.514-.737,1.862,1.862,0,0,0-1.855,1.1v4.17a1.887,1.887,0,0,0,1.875,1.113,1.742,1.742,0,0,0,1.8-1.348A6.952,6.952,0,0,0,280.644,15.609ZM291.327,21a3.134,3.134,0,0,1-.283-.947,3.415,3.415,0,0,1-2.666,1.143,3.752,3.752,0,0,1-2.573-.9,2.89,2.89,0,0,1-1.021-2.266,2.986,2.986,0,0,1,1.245-2.578,6.144,6.144,0,0,1,3.6-.908h1.3v-.605a1.741,1.741,0,0,0-.376-1.172,1.479,1.479,0,0,0-1.187-.439,1.682,1.682,0,0,0-1.118.342,1.161,1.161,0,0,0-.405.938h-2.822a2.835,2.835,0,0,1,.566-1.7,3.744,3.744,0,0,1,1.6-1.226,5.837,5.837,0,0,1,2.324-.444,4.611,4.611,0,0,1,3.1.981,3.433,3.433,0,0,1,1.147,2.759v4.58a5.051,5.051,0,0,0,.42,2.275V21Zm-2.334-1.963a2.431,2.431,0,0,0,1.152-.278,1.828,1.828,0,0,0,.781-.747V16.2h-1.055q-2.119,0-2.256,1.465l-.01.166a1.13,1.13,0,0,0,.371.869A1.441,1.441,0,0,0,288.993,19.037Zm9.922-8.6V21.576a3.78,3.78,0,0,1-.928,2.72,3.526,3.526,0,0,1-2.676.972,5.738,5.738,0,0,1-1.4-.166V22.865a5.3,5.3,0,0,0,.889.088q1.279,0,1.279-1.357V10.434ZM295.858,7.7a1.39,1.39,0,0,1,.425-1.045,1.838,1.838,0,0,1,2.314,0,1.39,1.39,0,0,1,.425,1.045,1.386,1.386,0,0,1-.435,1.055,1.81,1.81,0,0,1-2.295,0A1.386,1.386,0,0,1,295.858,7.7Zm4.824,7.92a6.266,6.266,0,0,1,.605-2.8,4.432,4.432,0,0,1,1.743-1.9,5.086,5.086,0,0,1,2.642-.674,4.812,4.812,0,0,1,3.491,1.309,5.252,5.252,0,0,1,1.509,3.555l.02.723a5.523,5.523,0,0,1-1.357,3.9,5.261,5.261,0,0,1-7.29,0,5.62,5.62,0,0,1-1.362-3.984Zm2.822.2a3.95,3.95,0,0,0,.566,2.3,2.035,2.035,0,0,0,3.223.01,4.322,4.322,0,0,0,.576-2.518,3.91,3.91,0,0,0-.576-2.289,1.873,1.873,0,0,0-1.621-.812,1.842,1.842,0,0,0-1.6.807A4.395,4.395,0,0,0,303.5,15.819ZM141.3,39.219a14.987,14.987,0,0,1,.6-4.258,11.236,11.236,0,0,1,1.758-3.579,6.563,6.563,0,0,1,2.52-2.163l.547,1.523A6.8,6.8,0,0,0,144.491,34a15.1,15.1,0,0,0-.8,5.156v.3a15.391,15.391,0,0,0,.791,5.176,6.93,6.93,0,0,0,2.236,3.311l-.547,1.494a6.566,6.566,0,0,1-2.476-2.1,11.048,11.048,0,0,1-1.753-3.481,14.9,14.9,0,0,1-.645-4.121Zm18.242,1.045a5.031,5.031,0,0,1-1.694,3.613,5.951,5.951,0,0,1-4.028,1.318,5.351,5.351,0,0,1-4.3-1.841,7.548,7.548,0,0,1-1.567-5.054v-.869a8.523,8.523,0,0,1,.723-3.613,5.415,5.415,0,0,1,2.065-2.4,6.455,6.455,0,0,1,7.085.483,5.407,5.407,0,0,1,1.738,3.7h-2.93a2.97,2.97,0,0,0-.767-2,2.839,2.839,0,0,0-2.007-.62,2.489,2.489,0,0,0-2.192,1.05,5.883,5.883,0,0,0-.747,3.257v1.074a6.3,6.3,0,0,0,.7,3.369,2.443,2.443,0,0,0,2.2,1.064,2.892,2.892,0,0,0,2.026-.62,2.8,2.8,0,0,0,.767-1.919Zm9.3,1.006A1.5,1.5,0,0,0,168.251,40a7.685,7.685,0,0,0-2.109-.937,14.953,14.953,0,0,1-2.412-.972,3.941,3.941,0,0,1-2.422-3.525,3.434,3.434,0,0,1,.649-2.056,4.236,4.236,0,0,1,1.865-1.411,7.021,7.021,0,0,1,2.729-.508,6.39,6.39,0,0,1,2.715.552,4.323,4.323,0,0,1,1.851,1.558,4.076,4.076,0,0,1,.659,2.285h-2.93a1.917,1.917,0,0,0-.615-1.519,2.529,2.529,0,0,0-1.729-.542,2.7,2.7,0,0,0-1.67.454,1.432,1.432,0,0,0-.6,1.2,1.372,1.372,0,0,0,.7,1.162,7.889,7.889,0,0,0,2.056.879,8.882,8.882,0,0,1,3.643,1.865,3.715,3.715,0,0,1,1.143,2.773,3.422,3.422,0,0,1-1.4,2.9,6.113,6.113,0,0,1-3.76,1.05,7.26,7.26,0,0,1-2.988-.6,4.729,4.729,0,0,1-2.056-1.646,4.214,4.214,0,0,1-.708-2.422h2.939q0,2.354,2.813,2.354a2.736,2.736,0,0,0,1.631-.425A1.382,1.382,0,0,0,168.837,41.27Zm15.625-8.115h-4.355V45h-2.93V33.154h-4.3V30.781h11.582Zm6.348,6.289a14.221,14.221,0,0,1-.635,4.248,11.531,11.531,0,0,1-1.826,3.6,6.579,6.579,0,0,1-2.549,2.148l-.547-1.494a6.867,6.867,0,0,0,2.188-3.223,14.923,14.923,0,0,0,.83-5.01V39.2a15.261,15.261,0,0,0-.8-5.146,7.158,7.158,0,0,0-2.222-3.34l.547-1.494a6.581,6.581,0,0,1,2.5,2.09,11.383,11.383,0,0,1,1.826,3.525A14.12,14.12,0,0,1,190.81,39Z" transform="translate(372 9517)" fill="#12263f"/>
  </g>
</svg>
