<svg xmlns="http://www.w3.org/2000/svg" xmlns:xlink="http://www.w3.org/1999/xlink" width="269.143" height="227" viewBox="0 0 269.143 227">
  <defs>
    <clipPath id="clip-path">
      <path id="Trazado_206374" data-name="Trazado 206374" d="M716.969,878.227l14.972-4.016c.435-.117.867-.249,1.293-.4l-14.972,4.016Q717.622,878.052,716.969,878.227Z" transform="translate(-716.969 -873.815)" fill="none"/>
    </clipPath>
    <clipPath id="clip-path-2">
      <path id="Trazado_206383" data-name="Trazado 206383" d="M567.239,500.295l14.972-4.016c-1.027.275-2.84-.911-4.5-1.806l-14.972,4.016C564.4,499.384,566.212,500.57,567.239,500.295Z" transform="translate(-562.738 -494.473)" fill="#323f79"/>
    </clipPath>
  </defs>
  <g id="Grupo_153384" data-name="Grupo 153384" transform="translate(-419.745 -169.771)">
    <g id="Grupo_153339" data-name="Grupo 153339" transform="translate(419.745 179.117)">
      <g id="Grupo_153293" data-name="Grupo 153293" transform="translate(19.776)">
        <path id="Trazado_206325" data-name="Trazado 206325" d="M692.6,1286.686c0,7.506,13.675,13.591,30.546,13.591s30.545-6.085,30.545-13.591-13.676-13.59-30.545-13.59S692.6,1279.179,692.6,1286.686Z" transform="translate(-666.082 -1095.249)" fill="#adb5da"/>
        <g id="Grupo_153292" data-name="Grupo 153292">
          <g id="Grupo_153269" data-name="Grupo 153269" transform="translate(36.042 182.925)">
            <g id="Grupo_153268" data-name="Grupo 153268" transform="translate(0)">
              <path id="Trazado_206326" data-name="Trazado 206326" d="M759.469,1308.492a16.638,16.638,0,0,1-5.715,3.333,4.879,4.879,0,0,1-4.762-1.233.912.912,0,0,1,.139-1.4c6.323-4.806,8.216-6.169,8.216-6.169h5.8a13.214,13.214,0,0,1,.126,3.275,5.023,5.023,0,0,1-3.184,1.929c-.119.021-.342-.155-.455-.108Z" transform="translate(-748.738 -1303.027)" fill="#212020"/>
            </g>
            <path id="Trazado_206327" data-name="Trazado 206327" d="M749.1,1319.636a1.618,1.618,0,0,0,.122.4,3.179,3.179,0,0,0,2.938,1.471,8.5,8.5,0,0,0,3.614-1.226,16.077,16.077,0,0,0,2.993-2.03,9,9,0,0,1,2.263-1.132,11.487,11.487,0,0,0,2.283-1.538c0,.626-.04,1.146-.04,1.146a5.023,5.023,0,0,1-3.184,1.929c-.119.021-.342-.155-.455-.108l-.168.369a16.638,16.638,0,0,1-5.715,3.333,4.879,4.879,0,0,1-4.762-1.233A.91.91,0,0,1,749.1,1319.636Z" transform="translate(-748.737 -1313.447)" fill="#030200"/>
          </g>
          <g id="Grupo_153270" data-name="Grupo 153270" transform="translate(41.26 88.162)">
            <path id="Trazado_206328" data-name="Trazado 206328" d="M789.33,792.18c-6.455,7.127-9.013-.412-9.013-.412l-.8-43.8c-.083.651-.3-4.418,7.85-3.32,8.126,1.094,10.183,4.262,10.183,4.262s-4.47,30.256-8.22,43.273" transform="translate(-779.495 -744.489)" fill="#e79677"/>
            <path id="Trazado_206329" data-name="Trazado 206329" d="M784.093,1002.485s3.276,46.13,3.542,47.749c0,0,3.981.881,4-.036.045-2.21,4.591-29.2,4.649-32.676.149-8.791-2.118-10.453-4.378-16.375C791.905,1001.146,784.077,995.359,784.093,1002.485Z" transform="translate(-783.313 -955.76)" fill="#e79677"/>
          </g>
          <g id="Grupo_153272" data-name="Grupo 153272" transform="translate(40.793 88.162)">
            <g id="Grupo_153271" data-name="Grupo 153271">
              <path id="Trazado_206330" data-name="Trazado 206330" d="M788.531,792.471c3.75-13.017,6.731-43.564,6.731-43.564s-2.057-3.168-10.183-4.262c-8.148-1.1-7.934,3.971-7.85,3.32a285.349,285.349,0,0,0,.759,43.248S783.527,795.636,788.531,792.471Z" transform="translate(-776.738 -744.489)" fill="#171d2b"/>
              <path id="Trazado_206331" data-name="Trazado 206331" d="M793.35,1023.566c-6.455,7.127-9.013-.412-9.013-.412" transform="translate(-783.048 -975.875)" fill="#171d2b"/>
              <path id="Trazado_206332" data-name="Trazado 206332" d="M785.386,1045.03c-.952-1.337-1.293-47.641-1.293-47.641-.016-7.126,8.758-3.841,8.758-3.841,2.261,5.922,3.582,10.087,3.433,18.878-.058,3.472-2.378,31.029-2.423,33.238C793.86,1045.664,788.11,1048.856,785.386,1045.03Z" transform="translate(-782.845 -950.664)" fill="#171d2b"/>
            </g>
          </g>
          <path id="Trazado_206333" data-name="Trazado 206333" d="M797.224,702.761a15.468,15.468,0,0,1,0,14.937c-4.365,7.9-17.689,5.017-17.728-5.208C779.456,702.387,788.65,698.525,797.224,702.761Z" transform="translate(-738.235 -620.269)" fill="#171d2b"/>
          <path id="Trazado_206334" data-name="Trazado 206334" d="M803.531,612.89c1.152,4.1,5.9,19.74,5.9,19.74-17.011,20.353-29.828,2.544-30,.687-.2-2.222,2.277-10.707,2.728-19.858C782.166,613.46,786.8,606.319,803.531,612.89Z" transform="translate(-738.177 -544.747)" fill="#f4a886"/>
          <path id="Trazado_206335" data-name="Trazado 206335" d="M779.031,695.919c-.807-5.482.865-11.011,1.726-16.551h24.92c1.594,5.313,3.252,10.77,3.252,10.77s1.066,12.565-9.606,14.071C799.323,704.209,780.725,707.432,779.031,695.919Z" transform="translate(-737.671 -602.254)" fill="#171d2b"/>
          <g id="Grupo_153273" data-name="Grupo 153273" transform="translate(52.091 89.384)">
            <path id="Trazado_206336" data-name="Trazado 206336" d="M860.948,799.12c-5.328,8.005-8.974.929-8.974.929l-8.643-42.672c.013.656.259-5.559,8.48-5.68,8.2-.12,10.7,2.707,10.7,2.707s.215,31.288-1.566,44.716" transform="translate(-843.331 -751.693)" fill="#f4a886"/>
            <path id="Trazado_206337" data-name="Trazado 206337" d="M893.092,1014.25s8.558,48.61,9.061,50.171c0,0,4.068.282,3.95-.629-.283-2.191.451-32.845-.006-36.287-1.156-8.716-2.364-10.215-5.477-15.736C900.62,1011.77,892.021,1007.2,893.092,1014.25Z" transform="translate(-884.573 -966.437)" fill="#f4a886"/>
          </g>
          <g id="Grupo_153274" data-name="Grupo 153274" transform="translate(66.876 185.434)">
            <path id="Trazado_206338" data-name="Trazado 206338" d="M932.884,1318.81l-2.407,7.341s.5,6.572,5.768,2.5l1.569-1.521a1.68,1.68,0,0,0,.567-1.613l-.469-2.813-.559-3.893S934.051,1316.569,932.884,1318.81Z" transform="translate(-930.477 -1317.814)" fill="#212020"/>
            <path id="Trazado_206339" data-name="Trazado 206339" d="M936.245,1364.6l1.569-1.52a1.634,1.634,0,0,0,.54-.841l.028.165a1.681,1.681,0,0,1-.567,1.613l-1.569,1.521c-5.271,4.073-5.768-2.5-5.768-2.5l.093-.286C930.866,1364.3,932.028,1367.858,936.245,1364.6Z" transform="translate(-930.477 -1354.701)" fill="#030200"/>
          </g>
          <g id="Grupo_153276" data-name="Grupo 153276" transform="translate(51.01 84.837)">
            <g id="Grupo_153275" data-name="Grupo 153275">
              <path id="Trazado_206340" data-name="Trazado 206340" d="M953.863,1032.213" transform="translate(-934.029 -980.072)" fill="#1f2535"/>
              <path id="Trazado_206341" data-name="Trazado 206341" d="M856.795,777.031c1.781-13.428.413-49.095.413-49.095s-2.13-3.164-10.329-3.043c-8.221.122-9.9,9.481-9.918,8.824,0,0,6.916,36.53,9.918,45.34C846.879,779.058,851.956,783.4,856.795,777.031Z" transform="translate(-836.961 -724.89)" fill="#1f2535"/>
              <path id="Trazado_206342" data-name="Trazado 206342" d="M899.616,1056.486c-.5-1.561-7.227-50.052-7.227-50.052-.083-6.587,8.584-4.971,8.584-4.971,3.113,5.521,3.836,8.1,4.991,16.817.457,3.442,1.339,35.28,1.622,37.472A8.847,8.847,0,0,1,899.616,1056.486Z" transform="translate(-882.984 -954.394)" fill="#1f2535"/>
            </g>
          </g>
          <g id="Grupo_153280" data-name="Grupo 153280" transform="translate(0 30.731)">
            <g id="Grupo_153279" data-name="Grupo 153279" transform="translate(0 30.396)">
              <path id="Trazado_206343" data-name="Trazado 206343" d="M630.934,585.14a229.084,229.084,0,0,0-24.608,5.021s-2.054,1.632-.261,2.71,25.982.96,27.612-.215C637.868,589.636,630.934,585.14,630.934,585.14Z" transform="translate(-593.62 -585.14)" fill="#e79677"/>
              <g id="Grupo_153278" data-name="Grupo 153278" transform="translate(0 2.017)">
                <g id="Grupo_153277" data-name="Grupo 153277" transform="translate(0 1.277)">
                  <path id="Trazado_206344" data-name="Trazado 206344" d="M542.783,609.287c3.568.548,4.125.28,5.055-.024,4-1.3.021-4.146-1.132-4.661-.662-.3-1.7,1.022-4.689,1.346,0,0-3.954-.468-4.549-1.091,0,0-.781-.43-1.165.079C536.3,604.936,537.381,607.532,542.783,609.287Z" transform="translate(-536.304 -604.558)" fill="#e79677"/>
                </g>
                <path id="Trazado_206345" data-name="Trazado 206345" d="M575.157,598.167s.758,1.711-1.476,1.471l-2.293-1.45a.849.849,0,0,1-.518-.958s.225-.387.944-.084Z" transform="translate(-564.981 -597.03)" fill="#e79677"/>
              </g>
            </g>
            <path id="Trazado_206346" data-name="Trazado 206346" d="M750.574,425.375s-3,21.28-5.94,29.567c0,0-4.849,1.037-6.421-1.709,0,0,.54-18.19,1.17-29.149C739.383,424.084,745.356,417.348,750.574,425.375Z" transform="translate(-703.957 -418.817)" fill="#e79677"/>
            <path id="Trazado_206347" data-name="Trazado 206347" d="M747.3,416.056a5.672,5.672,0,0,0,7.922-1.045,5.594,5.594,0,0,0-1.092-7.869,5.672,5.672,0,0,0-7.922,1.046A5.594,5.594,0,0,0,747.3,416.056Z" transform="translate(-709.639 -405.985)" fill="#e79677"/>
          </g>
          <path id="Trazado_206348" data-name="Trazado 206348" d="M738.594,405.865a7.433,7.433,0,0,0-5.4,7.126l-.829,21.377a20.059,20.059,0,0,0,11.745,2.82S751.76,408.639,738.594,405.865Z" transform="translate(-699.103 -375.155)" fill="#15616d"/>
          <path id="Trazado_206349" data-name="Trazado 206349" d="M781.072,256.094c-.657-.582-1.937-2.36-1.873-3.273.019-.273.289-.488.289-.831s-.155-.491-.282-.777a3.364,3.364,0,0,1-.323-1.644c0-.5-.094-1.477.246-1.873.506-.59,1.512-.106,2.043.21,1.1.656,1.723,1.723,2.863,2.352a4.581,4.581,0,0,1,1.826,2.115c.686,1.176,1.258,3.357-.207,4.244A4.23,4.23,0,0,1,781.072,256.094Z" transform="translate(-737.716 -243.591)" fill="#422918"/>
          <path id="Trazado_206350" data-name="Trazado 206350" d="M948.484,1055.2" transform="translate(-878.552 -914.318)" fill="#f4a886"/>
          <path id="Trazado_206351" data-name="Trazado 206351" d="M846.3,268.677s1-1.927,3.213-5.626c0,0,4.7-4.832,2.068-10.9,0,0-1.447-5.078-10.326-4.34C841.256,247.807,840.406,261.783,846.3,268.677Z" transform="translate(-789.482 -243.852)" fill="#f4a37f"/>
          <path id="Trazado_206352" data-name="Trazado 206352" d="M824.531,324.531s-1.494,13.93,1.692,14.984l-11.36-.676s1.785-4.21-.291-7.313Z" transform="translate(-767.36 -307.62)" fill="#f4a886"/>
          <path id="Trazado_206353" data-name="Trazado 206353" d="M815.487,336.406c.189-3.183-.212-3.829-.915-4.88l9.959-6.994a67.8,67.8,0,0,0-.314,8.58A10.782,10.782,0,0,1,815.487,336.406Z" transform="translate(-767.36 -307.62)" fill="#e18a72"/>
          <path id="Trazado_206354" data-name="Trazado 206354" d="M757.4,400.273c-2.53,1.849-2.82,6.268-1.917,9.029,1.037,3.17,1.448,7.216,2.486,11.8,1.407,6.214,2.361,11,3.929,17.171,1.3,5.1,21.806.991,21.806.991l7.35-25.118s1.265-6.557-4.675-8.739a88.677,88.677,0,0,0-10.839-4.929,19.754,19.754,0,0,0-9.663-1.244A48.011,48.011,0,0,0,757.4,400.273Z" transform="translate(-717.906 -369.562)" fill="#f4a886"/>
          <path id="Trazado_206355" data-name="Trazado 206355" d="M792.358,269.453l-.472-1.576s-1.2-5.823-1.2-5.824a5.91,5.91,0,0,1,.093-2.42,5.934,5.934,0,0,0,.207-2.485,7.222,7.222,0,0,1,1.556-6.35c2.6-3.7,8.314-3.408,8.314-3.408,7.046.7,7.3,7.569,7.3,7.569.918,4.6-2.889,8.208-2.9,8.215-.3.287-.231,1.792-.34,2.213-.464,1.8-2.256,2.824-3.833,3.515a17.013,17.013,0,0,1-5.721,1.632C794.645,270.564,792.63,270.356,792.358,269.453Z" transform="translate(-747.459 -243.563)" fill="#f4a37f"/>
          <path id="Trazado_206356" data-name="Trazado 206356" d="M790.3,236.271c-2.111-2.584-6.176-.249-8.8-1.842-1.222-.742-1.2-2.076-2.8-2.078-3.407-.007-3.005-3.667-1.113-4.735a6.321,6.321,0,0,1,1.149.049c.944.109,1.556.519,2.507.178a26.4,26.4,0,0,0,2.788-1.506,9.915,9.915,0,0,1,3.841-1.477c1.716-.078,2.262,1.175,3.532,2,.854.552,1.9.485,2.826.821a24.008,24.008,0,0,1,3.9,2.108c.887.522,2.1,1.22,1.972,2.422-.118,1.14-1.277,1.4-.924,2.637a10.228,10.228,0,0,1-.591,6.4,19.062,19.062,0,0,1-1.656,3.64,14.343,14.343,0,0,1-2.726,3.018,11.842,11.842,0,0,0-1.93,1.782c-.066-2.808.5-2.577-.238-3.974-.286-.544.03-1,.231-1.538s.671-.985.6-1.569a1,1,0,0,1-.907,0c-.347-.292-.063-1.265-.122-1.646a12.092,12.092,0,0,0-1.008-3.861A5.036,5.036,0,0,0,790.3,236.271Z" transform="translate(-735.461 -224.856)" fill="#422918"/>
          <g id="Grupo_153289" data-name="Grupo 153289" transform="translate(56.15 16.672)">
            <g id="Grupo_153285" data-name="Grupo 153285">
              <g id="Grupo_153284" data-name="Grupo 153284">
                <g id="Grupo_153283" data-name="Grupo 153283">
                  <g id="Grupo_153282" data-name="Grupo 153282">
                    <g id="Grupo_153281" data-name="Grupo 153281">
                      <path id="Trazado_206357" data-name="Trazado 206357" d="M867.81,327.312a1.568,1.568,0,0,0,.968.428,2.3,2.3,0,0,0,2.359-2.09,2.1,2.1,0,0,0-1.7-2.516,1.979,1.979,0,0,0-1.465.466,2.858,2.858,0,0,0-.707,2.265A2.152,2.152,0,0,0,867.81,327.312Z" transform="translate(-867.254 -323.123)" fill="#f4a37f"/>
                    </g>
                  </g>
                </g>
              </g>
            </g>
            <g id="Grupo_153288" data-name="Grupo 153288" transform="translate(1.124 0.75)">
              <g id="Grupo_153286" data-name="Grupo 153286" transform="translate(0.446)">
                <path id="Trazado_206358" data-name="Trazado 206358" d="M876.521,327.937c.147-.661,1.424.141,1.173.494a2.069,2.069,0,0,1-.606.463.994.994,0,0,0-.5.681c-.009.039-.03.155.005.187.161.143.813-.443.956-.565a1.13,1.13,0,0,0,.292-1.051.678.678,0,0,0-.684-.592c-.305-.019-.618-.035-.645.345,0,.009.006.073.013.039Z" transform="translate(-876.508 -327.545)" fill="#e98e72"/>
              </g>
              <g id="Grupo_153287" data-name="Grupo 153287" transform="translate(0 1.055)">
                <path id="Trazado_206359" data-name="Trazado 206359" d="M874.688,333.85c-.124-.159-.272-.059-.429.029a.643.643,0,0,0-.29.366,1.585,1.585,0,0,0,.034,1.138.851.851,0,0,0,.681.474c.408.036.573-.308.63-.652.015-.092.05-.31-.034-.378s-.178.071-.251.128a.584.584,0,0,1-.361.088.744.744,0,0,1-.574-.344.39.39,0,0,1-.049-.113c-.026.225-.02.277.018.156a.592.592,0,0,1,.1-.149c.113-.146.286-.233.409-.369.059-.063.182-.294.12-.374Z" transform="translate(-873.88 -333.767)" fill="#e98e72"/>
              </g>
            </g>
          </g>
          <path id="Trazado_206360" data-name="Trazado 206360" d="M809.116,317.9l1.92.742s-2.591.16-2.691-.592c0,0,.393-1.469.817-2.859C809.163,315.193,808.832,317.793,809.116,317.9Z" transform="translate(-762.191 -299.866)" fill="#e98e72"/>
          <g id="Grupo_153290" data-name="Grupo 153290" transform="translate(43.394 12.422)">
            <path id="Trazado_206361" data-name="Trazado 206361" d="M832.64,311.6c0,.405.224.733.5.733s.5-.328.5-.733-.223-.735-.5-.735S832.64,311.19,832.64,311.6Z" transform="translate(-825.757 -308.691)" fill="#422918"/>
            <path id="Trazado_206362" data-name="Trazado 206362" d="M799.993,307.969c0,.405.224.734.5.734s.5-.328.5-.734-.223-.735-.5-.735S799.993,307.563,799.993,307.969Z" transform="translate(-798.649 -305.68)" fill="#422918"/>
            <path id="Trazado_206363" data-name="Trazado 206363" d="M828.378,302.539c-.18.038-.223-.2-.223-.2a.845.845,0,0,1,.012-.431.416.416,0,0,1,.214-.216,6.023,6.023,0,0,1,2.121.277c.421.125,1.1.439,1.149.827.013.116.024.316-.108.351A17.3,17.3,0,0,0,828.378,302.539Z" transform="translate(-822.014 -301.06)" fill="#422918"/>
            <path id="Trazado_206364" data-name="Trazado 206364" d="M792.138,298.921a15.083,15.083,0,0,1,2.476.26c.163.084.27-.135.271-.135a.849.849,0,0,0,.106-.419.414.414,0,0,0-.146-.266,4.516,4.516,0,0,0-1.836-.287,3.6,3.6,0,0,0-.922.125A1.769,1.769,0,0,0,792.138,298.921Z" transform="translate(-792.073 -298.073)" fill="#422918"/>
          </g>
          <g id="Grupo_153291" data-name="Grupo 153291" transform="translate(45.652 20.382)">
            <path id="Trazado_206365" data-name="Trazado 206365" d="M805.582,344.987c-.157,0-.242.072-.183.185a2.369,2.369,0,0,0,4.1.495c.1-.106.013-.212-.183-.238C809.314,345.429,807.226,345.163,805.582,344.987Z" transform="translate(-805.381 -344.987)" fill="#fff"/>
          </g>
          <path id="Trazado_206366" data-name="Trazado 206366" d="M859.391,705.223a15.469,15.469,0,0,1,0,14.937c-4.365,7.9-17.689,5.017-17.729-5.209C841.623,704.849,850.817,700.986,859.391,705.223Z" transform="translate(-789.854 -622.314)" fill="#1f2535"/>
          <path id="Trazado_206367" data-name="Trazado 206367" d="M765.874,399.756a48.011,48.011,0,0,0-8.477,1.036c-2.53,1.849-2.82,6.268-1.917,9.029,1.037,3.17,1.448,7.216,2.486,11.8,1.407,6.214,1.283,11.05,2.851,17.221,1.3,5.1,25.325.566,25.325.566l4.91-24.743s1.265-6.557-4.675-8.739a81.941,81.941,0,0,0-10.555-4.831s.715,4.831-7.161,3.5C768.66,404.6,763.849,403.434,765.874,399.756Z" transform="translate(-717.906 -370.082)" fill="#15616d"/>
          <path id="Trazado_206368" data-name="Trazado 206368" d="M799.11,615.586c1.152,4.1,3.524,17.061,3.524,17.061-3.119,12.937-31.821,3.629-31.991,1.772-.2-2.222,2.293-11.963,2.743-21.114C773.387,613.306,782.382,609.015,799.11,615.586Z" transform="translate(-730.875 -546.258)" fill="#15616d"/>
          <path id="Trazado_206369" data-name="Trazado 206369" d="M899.45,453.453c2.807,3.182,12.813,17.788,15.766,20.134.785.624,7.5,3.462,7.424-1.733-8.285-18.427-14.353-26.815-14.353-26.815s-6.6-3.025-9.775,2.294C898.513,447.333,897.483,451.252,899.45,453.453Z" transform="translate(-836.836 -406.971)" fill="#f4a886"/>
          <path id="Trazado_206370" data-name="Trazado 206370" d="M892.118,443.794a6.713,6.713,0,1,0,7.737-5.5A6.713,6.713,0,0,0,892.118,443.794Z" transform="translate(-831.671 -402)" fill="#f4a886"/>
          <path id="Trazado_206371" data-name="Trazado 206371" d="M893,429.395s5.576,2.169,8.122,6.329l6.647,10.282s-2.722,7.772-9.493,9.381l-10.635-12.924S881.625,434.889,893,429.395Z" transform="translate(-826.713 -394.692)" fill="#15616d"/>
        </g>
      </g>
      <g id="Grupo_153335" data-name="Grupo 153335" transform="translate(0 32.551)">
        <g id="Grupo_153302" data-name="Grupo 153302" transform="translate(13.918 8.6)">
          <g id="Grupo_153301" data-name="Grupo 153301" style="isolation: isolate">
            <path id="Trazado_206372" data-name="Trazado 206372" d="M564.226,570.322q.02-.506.059-1.009c0-.064.007-.129.012-.193,0-.024.006-.048.007-.073,0-.04.009-.081.013-.123q.038-.41.091-.819c.007-.059.014-.119.022-.178q.06-.441.136-.879c.01-.064.022-.128.035-.192.047-.262.1-.523.155-.784.009-.045.018-.09.028-.135q.1-.432.211-.86c.018-.068.036-.136.055-.2.08-.291.163-.58.254-.868,1.809-5.681,5.541-9.35,9.968-10.537l14.973-4.016c-4.428,1.187-8.159,4.856-9.969,10.537-.091.289-.176.58-.255.872-.018.065-.036.13-.053.2-.076.288-.147.578-.213.871-.008.038-.015.076-.023.114-.059.268-.111.538-.16.808-.01.059-.022.118-.033.177q-.075.442-.136.887c-.009.058-.015.115-.022.174-.034.27-.066.542-.09.814,0,.044-.01.089-.014.134-.009.084-.011.168-.018.252q-.04.506-.06,1.015c-.005.131-.009.262-.012.393q-.011.462-.006.926c0,.119,0,.238,0,.357.006.224.016.447.026.671.008.138.011.276.021.414.016.273.041.544.065.817.009.091.014.181.023.271.014.142.034.283.051.425.023.2.046.406.075.608.018.135.041.269.062.4.032.208.063.416.1.624.019.1.04.209.06.313.043.227.086.455.134.682.029.128.059.256.088.384.046.2.091.4.141.606.033.129.068.258.1.387.052.2.1.391.16.585.039.136.08.272.121.408.056.184.112.368.172.552.045.142.093.283.141.425.06.176.121.352.185.526.052.143.105.286.159.428.065.168.129.335.2.5s.124.3.187.456.14.329.213.492q.1.219.2.437c.071.155.146.31.22.463.083.169.166.338.251.505.076.147.151.292.229.436.089.167.18.332.272.5q.113.2.229.4.191.325.39.644c.07.111.136.223.208.332.162.252.329.5.5.744.047.067.091.136.137.2s.095.129.141.194c.137.189.275.377.416.562.07.09.14.178.211.267.123.157.249.313.376.467.077.092.155.185.234.277q.191.223.388.442c.077.086.154.172.233.257.093.1.188.2.282.294.168.173.337.346.51.514.1.1.2.19.3.283q.255.239.516.469c.1.088.2.177.305.263.189.16.381.314.575.466.09.071.18.144.271.214.287.217.577.427.875.627.225.152.453.3.68.436.072.044.145.086.219.129.155.092.31.183.467.27l.256.137c.146.077.293.153.438.226l.262.127c.139.065.278.127.417.188.1.045.207.092.311.134.136.056.272.108.408.161.1.039.2.079.307.116.14.05.281.1.421.141.1.032.195.065.293.094.151.046.3.086.453.127.086.022.172.048.259.07.054.013.108.023.162.036.241.057.483.107.723.15l.275.045c.214.034.428.062.641.085.085.009.17.02.255.027.187.017.372.027.558.035.076,0,.153.01.229.012.261.007.521.007.78,0,.066,0,.133-.009.2-.012.18-.009.359-.018.536-.035.091-.008.182-.022.273-.033.152-.018.3-.035.455-.058s.295-.05.442-.079c.073-.014.146-.025.219-.041.221-.046.44-.1.657-.155l-14.972,4.016c-.216.058-.435.11-.656.156-.075.016-.149.027-.224.041-.126.024-.251.051-.378.071-.019,0-.039,0-.059.007-.152.023-.305.04-.46.058-.088.01-.177.023-.267.031-.183.017-.367.027-.553.036-.057,0-.114.01-.172.011h-.012c-.258.009-.518.009-.777,0-.078,0-.156-.009-.234-.012-.184-.008-.368-.019-.554-.035-.029,0-.059,0-.089-.006-.055-.005-.113-.016-.169-.022-.212-.023-.424-.051-.637-.085-.092-.015-.184-.028-.275-.045q-.361-.064-.719-.148c-.043-.01-.088-.016-.13-.027l-.038-.01c-.084-.021-.168-.045-.252-.068-.154-.041-.306-.081-.46-.128-.1-.03-.193-.063-.289-.094-.141-.046-.283-.091-.424-.142-.1-.037-.2-.077-.305-.115-.136-.052-.273-.1-.41-.161-.1-.043-.206-.088-.309-.133-.083-.037-.166-.07-.251-.109-.056-.025-.111-.055-.166-.081-.088-.041-.174-.083-.262-.127-.146-.072-.292-.148-.437-.225-.086-.045-.172-.091-.256-.138-.156-.086-.312-.177-.468-.269-.074-.044-.146-.084-.219-.129-.227-.14-.454-.284-.681-.436-.3-.2-.587-.41-.874-.628-.092-.069-.181-.142-.271-.213q-.292-.227-.575-.466c-.1-.087-.2-.175-.305-.264-.173-.153-.346-.309-.516-.469-.1-.093-.2-.187-.3-.283q-.258-.252-.509-.514c-.061-.063-.125-.122-.184-.186-.033-.035-.065-.073-.1-.108-.08-.085-.156-.171-.232-.257-.131-.145-.261-.293-.39-.442q-.117-.137-.232-.276-.192-.233-.379-.47c-.069-.087-.139-.174-.206-.262-.146-.192-.291-.387-.432-.583-.04-.057-.083-.113-.124-.17l-.029-.039c-.043-.061-.083-.126-.126-.187-.165-.238-.326-.477-.483-.721-.072-.112-.141-.225-.212-.339-.131-.212-.261-.424-.387-.64-.034-.059-.072-.116-.106-.175-.043-.074-.082-.151-.124-.224q-.138-.247-.271-.5c-.077-.145-.154-.29-.228-.437-.086-.167-.17-.336-.253-.506-.04-.085-.084-.169-.125-.254-.033-.068-.062-.139-.094-.208-.067-.145-.133-.292-.2-.439-.072-.163-.143-.326-.213-.49s-.126-.3-.188-.457c-.032-.083-.069-.164-.1-.247s-.061-.169-.094-.254q-.081-.212-.158-.426c-.064-.176-.126-.354-.186-.531-.048-.141-.1-.282-.141-.424-.021-.063-.043-.125-.062-.188-.038-.119-.071-.238-.107-.358-.043-.138-.083-.276-.123-.414-.055-.192-.106-.384-.157-.577-.034-.132-.072-.263-.1-.395l-.029-.108c-.039-.162-.073-.325-.11-.487-.03-.132-.062-.263-.09-.4-.046-.22-.088-.441-.13-.662-.021-.111-.045-.221-.065-.332,0-.014,0-.028-.007-.042-.032-.184-.058-.37-.087-.554-.022-.144-.047-.287-.067-.43-.03-.216-.053-.433-.079-.649-.014-.125-.032-.251-.045-.377,0-.01,0-.019,0-.029-.009-.1-.014-.194-.024-.292-.023-.257-.046-.514-.062-.771-.009-.138-.012-.276-.019-.414-.011-.225-.022-.451-.028-.676,0-.038,0-.075,0-.113,0-.077,0-.154,0-.231q-.006-.47.006-.94C564.217,570.579,564.221,570.45,564.226,570.322Z" transform="translate(-553.614 -535.531)" fill="#323f79"/>
            <g id="Grupo_153296" data-name="Grupo 153296" transform="translate(36.51 68.953)" style="isolation: isolate">
              <g id="Grupo_153295" data-name="Grupo 153295" clip-path="url(#clip-path)">
                <g id="Grupo_153294" data-name="Grupo 153294" style="isolation: isolate">
                  <path id="Trazado_206373" data-name="Trazado 206373" d="M716.969,878.227l14.972-4.016c.435-.117.867-.249,1.293-.4l-14.972,4.016q-.641.22-1.294.4" transform="translate(-716.969 -873.815)" fill="#444c77"/>
                </g>
              </g>
            </g>
            <g id="Grupo_153299" data-name="Grupo 153299" transform="translate(10.343)">
              <path id="Trazado_206375" data-name="Trazado 206375" d="M657.267,859.7l14.972-4.016c-1.014.272-2.071,2.019-3.127,3.461l-14.971,4.017C655.195,861.722,656.251,859.975,657.267,859.7Z" transform="translate(-638.633 -789.809)" fill="#323f79"/>
              <g id="Grupo_153298" data-name="Grupo 153298" transform="translate(0 4.593)">
                <path id="Trazado_206376" data-name="Trazado 206376" d="M567.239,500.295l14.972-4.016c-1.027.275-2.84-.911-4.5-1.806l-14.972,4.016C564.4,499.384,566.212,500.57,567.239,500.295Z" transform="translate(-562.738 -494.473)" fill="#323f79"/>
                <g id="Grupo_153297" data-name="Grupo 153297" clip-path="url(#clip-path-2)">
                  <path id="Trazado_206377" data-name="Trazado 206377" d="M588.691,509.132l14.972-4.016a1.178,1.178,0,0,1-.117.025l-14.973,4.016c.041-.006.08-.015.118-.025" transform="translate(-584.19 -503.31)" fill="#323f79"/>
                  <path id="Trazado_206378" data-name="Trazado 206378" d="M587.789,509.277l14.973-4.016a1.468,1.468,0,0,1-.162.015l-14.972,4.016a1.308,1.308,0,0,0,.16-.015" transform="translate(-583.406 -503.431)" fill="#323f79"/>
                  <path id="Trazado_206379" data-name="Trazado 206379" d="M586.518,509.328l14.972-4.016a1.7,1.7,0,0,1-.227-.007l-14.972,4.016a1.717,1.717,0,0,0,.227.008" transform="translate(-582.295 -503.466)" fill="#323f79"/>
                  <path id="Trazado_206380" data-name="Trazado 206380" d="M584.488,509l14.971-4.016a2.547,2.547,0,0,1-.367-.065l-14.973,4.016a2.59,2.59,0,0,0,.369.065" transform="translate(-580.491 -503.15)" fill="#323f79"/>
                  <path id="Trazado_206381" data-name="Trazado 206381" d="M579.154,507.113l14.973-4.016a5.805,5.805,0,0,1-1.015-.373L578.14,506.74a5.841,5.841,0,0,0,1.014.373" transform="translate(-575.527 -501.324)" fill="#323f79"/>
                  <path id="Trazado_206382" data-name="Trazado 206382" d="M565.351,499.889l14.972-4.016c-.821-.377-1.739-.929-2.613-1.4l-14.972,4.016c.875.471,1.792,1.023,2.613,1.4" transform="translate(-562.738 -494.473)" fill="#323f79"/>
                </g>
              </g>
              <path id="Trazado_206384" data-name="Trazado 206384" d="M726.318,845.984a.951.951,0,0,1,.22-.088l14.972-4.016a.975.975,0,0,0-.22.088c-.976.547-1.291,3.121-1.723,5.33l-14.972,4.016C725.028,849.105,725.341,846.532,726.318,845.984Z" transform="translate(-697.134 -778.345)" fill="#323f79"/>
              <path id="Trazado_206385" data-name="Trazado 206385" d="M630.094,474.892c-.027-.023-.053-.048-.078-.073l-.13-.121-.085-.086c-.041-.042-.084-.085-.125-.129l-.038-.039c-.012-.013-.025-.029-.038-.042-.076-.082-.151-.166-.228-.253l-.034-.038c-.088-.1-.175-.205-.263-.313-.023-.026-.043-.052-.065-.078l-.226-.281c-.015-.021-.032-.04-.049-.06l-.274-.353-.04-.052c-.085-.112-.171-.225-.257-.34-.01-.012-.021-.026-.031-.04l-.364-.483-.156-.206-.1-.136c-.09-.118-.179-.237-.269-.353l14.972-4.015.273.358.087.114c.069.091.136.182.205.273l.313.415.054.071c.082.108.162.215.244.321l.046.06c.091.119.183.237.274.353.014.019.03.038.044.057.077.1.156.193.231.287l.059.072c.09.109.178.215.267.317l.029.033c.079.089.157.175.234.259l.072.078c.044.045.086.09.13.133l.082.083c.044.043.086.082.129.122l.078.073c.047.041.092.078.137.115l.068.056c.068.053.134.1.2.146a2.342,2.342,0,0,0,.281.16l.055.027a1.4,1.4,0,0,0,.225.08,1.1,1.1,0,0,0,.169.028.888.888,0,0,0,.147,0l.044,0a.94.94,0,0,0,.147-.027l-14.971,4.016a1,1,0,0,1-.111.023l-.037,0-.044,0c-.013,0-.027,0-.041,0a1,1,0,0,1-.106,0h-.015a1.023,1.023,0,0,1-.15-.026h0a1.446,1.446,0,0,1-.225-.079.2.2,0,0,0-.023-.008c-.01-.005-.02-.014-.032-.018a2.369,2.369,0,0,1-.281-.16c-.067-.045-.133-.094-.2-.147-.022-.016-.043-.036-.064-.053C630.188,474.972,630.142,474.934,630.094,474.892Z" transform="translate(-616.297 -467.4)" fill="#323f79"/>
              <path id="Trazado_206386" data-name="Trazado 206386" d="M699.587,487.835c-.074-.218-.148-.44-.219-.666,0-.015-.01-.029-.014-.045-.011-.034-.022-.071-.033-.106-.093-.3-.185-.6-.276-.9-.109-.361-.218-.722-.329-1.074l14.972-4.016c.108.346.216.7.324,1.055.1.325.2.649.3.969.009.025.017.052.025.078q.114.359.231.7c.011.035.023.07.035.106q.115.333.235.645c.021.056.043.112.065.166s.044.11.067.164.055.132.083.2.047.105.07.157l.069.144c.06.122.119.239.182.349.01.019.022.041.033.06q.1.17.2.316c.051.072.1.14.154.2l.037.042c.044.05.088.1.133.142.017.017.034.033.052.049a1.727,1.727,0,0,0,.177.143,1.462,1.462,0,0,0,.194.109,1.576,1.576,0,0,0,.248.086c.03.008.061.014.092.02.048.01.1.018.148.024l.1.009c.061,0,.123.006.186,0,.029,0,.057,0,.086,0a3.039,3.039,0,0,0,.33-.033l.056-.011c.144-.024.291-.055.442-.1l-14.973,4.016a4.468,4.468,0,0,1-.44.1c-.013,0-.026.007-.039.009h-.019a2.889,2.889,0,0,1-.329.033l-.03,0h-.059c-.062,0-.125,0-.185-.005-.018,0-.037,0-.055,0s-.029-.006-.044-.007c-.051-.006-.1-.015-.15-.025-.021,0-.043,0-.063-.011a.217.217,0,0,1-.026-.008,1.423,1.423,0,0,1-.442-.2,1.491,1.491,0,0,1-.178-.143c-.018-.015-.035-.033-.051-.049s-.042-.038-.062-.06-.047-.054-.071-.082-.025-.027-.036-.041c-.049-.059-.1-.12-.143-.186,0-.005-.007-.012-.012-.017-.067-.1-.133-.2-.2-.313l-.009-.015c-.01-.018-.02-.039-.03-.058-.061-.107-.118-.219-.175-.337-.01-.021-.021-.04-.031-.061s-.026-.058-.039-.086c-.023-.051-.046-.1-.069-.155s-.057-.129-.084-.2-.045-.108-.067-.164c-.014-.035-.029-.07-.043-.106-.008-.021-.015-.043-.023-.064q-.119-.306-.232-.635Z" transform="translate(-675.645 -478.717)" fill="#323f79"/>
              <path id="Trazado_206387" data-name="Trazado 206387" d="M762.692,539.7c.013-.588.045-1.2.073-1.81.014-.293.027-.585.036-.874L777.774,533c-.01.292-.023.588-.037.884-.028.608-.059,1.218-.073,1.8,0,.009,0,.019,0,.029-.006.279-.008.551,0,.814,0,.037,0,.073,0,.109,0,.109.007.216.012.321,0,.049.006.1.009.147.006.091.013.181.02.269l.015.146c.013.122.029.24.048.355.005.028.008.057.013.085.009.048.019.093.029.139.013.063.025.125.039.185.007.023.014.044.019.067.018.072.04.142.062.209.008.023.016.045.025.067a2.389,2.389,0,0,0,.1.234l0,.009a1.817,1.817,0,0,0,.129.23c.022.035.048.066.071.1s.073.093.113.138l.059.063c.038.04.081.079.123.116.02.017.039.035.06.052.064.052.13.1.2.151a3.3,3.3,0,0,0,.362.207c.025.013.05.026.075.038.126.061.259.117.4.168l.075.026q.187.067.385.126l.084.025c.146.041.3.08.449.117.1.024.21.047.317.07.081.018.161.037.243.053.113.023.226.044.34.066l.248.048.207.039c.307.057.615.114.917.175l-14.972,4.016c-.452-.092-.919-.174-1.378-.262l-.334-.065-.233-.051c-.11-.024-.221-.048-.329-.074l-.056-.012c-.132-.032-.261-.066-.388-.1l-.085-.025c-.133-.04-.26-.081-.385-.126l-.075-.027c-.116-.043-.227-.088-.334-.136l-.063-.032c-.026-.012-.051-.025-.076-.038a3.27,3.27,0,0,1-.362-.207c-.071-.047-.138-.1-.2-.152l-.056-.05c-.044-.038-.085-.077-.125-.118l-.029-.027c-.01-.012-.02-.025-.03-.037-.039-.042-.075-.087-.109-.133-.011-.015-.025-.028-.036-.043s-.027-.039-.04-.059-.038-.06-.055-.09-.05-.092-.073-.14l0-.008s0,0,0-.005c-.025-.053-.049-.108-.071-.165-.008-.021-.015-.044-.023-.066s-.016-.042-.023-.064l-.021-.062c-.016-.049-.029-.1-.043-.152-.006-.021-.012-.042-.018-.064l-.007-.023c-.013-.052-.021-.108-.034-.161s-.02-.093-.029-.141c0-.007,0-.013,0-.019s-.006-.044-.01-.065q-.026-.173-.047-.356c0-.021-.007-.04-.008-.06s0-.058-.007-.086c-.008-.087-.015-.175-.021-.265,0-.05-.006-.1-.01-.154,0-.105-.009-.212-.011-.319,0-.03,0-.058,0-.087,0-.007,0-.013,0-.019,0-.263,0-.533,0-.81C762.692,539.723,762.692,539.711,762.692,539.7Z" transform="translate(-728.763 -521.868)" fill="#323f79"/>
              <path id="Trazado_206388" data-name="Trazado 206388" d="M779.1,796.959c.009-.039.015-.08.025-.117.014-.055.031-.1.047-.156.009-.029.018-.06.029-.088a1.587,1.587,0,0,1,.1-.212,1.729,1.729,0,0,1,1.117-.729l14.973-4.016a1.735,1.735,0,0,0-1.118.729,1.536,1.536,0,0,0-.1.213c-.011.028-.019.058-.028.088-.017.05-.034.1-.048.155-.009.037-.017.077-.024.117s-.02.1-.029.156-.011.089-.017.134-.012.11-.016.167-.005.091-.008.139,0,.122-.006.185c0,.048,0,.1,0,.145s0,.113,0,.169c0,.08.005.161.011.245,0,.056.007.112.011.169.006.084.013.17.022.257.006.055.01.109.015.165.018.165.038.333.06.5a.032.032,0,0,1,0,.01c.023.174.049.35.077.528q.012.076.024.151.035.22.072.443c.007.037.012.073.018.109.033.188.065.378.1.567l.093.532c0,.027.009.055.014.083.041.234.082.468.12.7l-14.972,4.016c-.038-.231-.08-.465-.12-.7-.07-.394-.139-.79-.205-1.181-.007-.036-.012-.072-.019-.109-.024-.149-.049-.3-.072-.443-.007-.05-.015-.1-.022-.151-.028-.178-.054-.355-.078-.528a.059.059,0,0,0,0-.011c-.024-.172-.043-.339-.06-.5,0-.02-.006-.041-.007-.06,0-.035-.006-.068-.009-.1-.008-.087-.015-.173-.022-.258,0-.057-.008-.113-.01-.168,0-.083-.009-.164-.012-.243,0-.033,0-.068,0-.1s0-.049,0-.074c0-.047,0-.093,0-.139,0-.066,0-.129,0-.192,0-.045.005-.091.008-.135l0-.067c0-.035.009-.066.012-.1s.011-.091.017-.134S779.088,797.01,779.1,796.959Z" transform="translate(-742.328 -736.63)" fill="#323f79"/>
              <path id="Trazado_206389" data-name="Trazado 206389" d="M821.542,704.183c-1.5,1.1-3.292,2.145-3.452,3.557a1.924,1.924,0,0,0-.011.262c0,.01,0,.018,0,.027,0,.073.009.148.018.225,0,.029.007.058.012.086.009.06.02.122.034.185.007.034.014.069.022.1.012.051.028.1.041.156s.03.113.048.17c.012.037.025.074.036.111.033.1.068.2.107.3.017.045.035.092.054.138.025.062.05.125.078.189s.048.11.072.165.06.132.091.2l.075.157c.035.076.074.152.112.229.026.051.051.1.078.155.039.078.08.157.122.235.026.051.053.1.081.155.045.083.089.166.135.251l.079.143c.049.091.1.183.152.274.022.042.045.083.068.126.061.109.122.219.185.328.012.023.026.047.04.07l.234.416c.025.046.051.091.076.136l.149.265c.075.133.149.267.222.4l-14.972,4.016c-.266-.485-.546-.976-.819-1.462-.023-.041-.047-.082-.069-.123-.043-.075-.083-.149-.124-.223s-.07-.126-.1-.189-.072-.131-.107-.2l-.11-.2-.1-.187c-.036-.068-.072-.137-.106-.2s-.062-.122-.092-.182l-.1-.2-.043-.085c-.015-.034-.03-.068-.046-.1-.026-.058-.052-.117-.08-.175s-.055-.124-.081-.185-.046-.11-.068-.165c-.012-.029-.026-.06-.038-.089s-.017-.048-.025-.072q-.053-.139-.1-.273c-.01-.029-.022-.06-.031-.088s-.008-.026-.012-.04c-.017-.054-.03-.107-.045-.159s-.024-.082-.034-.121c0-.014-.006-.027-.01-.041-.007-.033-.014-.065-.02-.1s-.018-.077-.025-.114-.008-.053-.011-.08-.008-.053-.012-.079,0-.039-.007-.057c-.007-.058-.009-.115-.011-.171a.255.255,0,0,1,0-.026.008.008,0,0,0,0-.005c0-.073,0-.144.008-.213,0-.015,0-.03,0-.044.16-1.412,1.954-2.458,3.452-3.557Z" transform="translate(-762.324 -664.01)" fill="#323f79"/>
              <path id="Trazado_206390" data-name="Trazado 206390" d="M797.591,620.573q.05-.227.122-.462c.008-.027.017-.055.026-.083.046-.148.1-.3.155-.45.008-.023.017-.045.024-.068.064-.165.131-.333.2-.5.015-.037.03-.072.046-.108.072-.168.147-.336.226-.507.008-.02.018-.039.027-.059q.116-.251.235-.5c.016-.032.03-.065.046-.1.04-.086.082-.172.123-.258.026-.056.054-.111.079-.168s.045-.095.069-.142c.086-.183.172-.366.256-.547L814.2,612.6c-.083.182-.17.364-.257.547-.023.048-.045.1-.068.143s-.053.111-.079.167c-.041.086-.083.171-.123.258-.016.032-.031.064-.045.1-.081.169-.16.336-.237.5l-.027.058q-.116.255-.226.507c-.015.036-.032.072-.046.109-.072.168-.14.336-.2.5-.008.023-.015.045-.024.068-.057.151-.108.3-.155.449-.009.028-.019.055-.026.083-.049.157-.088.31-.121.462-.008.033-.015.067-.021.1a4.252,4.252,0,0,0-.07.451c0,.032,0,.062,0,.093,0,.075-.009.149-.009.222s.006.172.014.255c0,.01,0,.02,0,.029a2.168,2.168,0,0,0,.044.256,2.28,2.28,0,0,0,.077.252c0,.007.005.015.009.023a2.447,2.447,0,0,0,.1.231q.019.038.041.077c.026.049.055.1.083.147s.075.12.116.181l.071.1c.055.076.113.151.173.226.019.021.034.043.052.065.08.1.166.192.255.288l.071.072c.072.074.144.148.221.222.034.034.07.068.106.1.069.065.139.131.211.2l.113.1c.08.07.16.141.243.212l.091.078c.114.1.23.192.347.288l.057.047.308.249.138.11.308.245.245.195.151.12c.123.1.244.2.366.3L801.505,626.1l-.37-.3-.123-.1-.308-.246-.241-.192-.171-.137-.271-.218c-.03-.025-.062-.05-.092-.076-.116-.094-.228-.188-.34-.282-.035-.029-.069-.059-.1-.088-.079-.066-.156-.134-.232-.2l-.12-.108c-.069-.062-.136-.125-.2-.187l-.116-.11c-.072-.069-.139-.139-.206-.209-.024-.023-.048-.047-.07-.07l-.013-.015c-.09-.1-.174-.19-.253-.286-.017-.021-.033-.042-.049-.063q-.095-.113-.177-.227c-.008-.011-.018-.022-.026-.033s-.029-.046-.046-.07c-.04-.06-.079-.121-.115-.181-.011-.018-.024-.036-.035-.054s-.032-.062-.049-.092-.028-.053-.041-.08-.014-.026-.021-.039c-.027-.056-.051-.111-.073-.167,0-.007,0-.015-.007-.022l-.01-.026c-.013-.034-.024-.068-.035-.1s-.028-.091-.039-.137a.022.022,0,0,1,0-.011c-.012-.044-.022-.089-.029-.134s-.012-.081-.016-.122c0-.01,0-.02,0-.03s0-.011,0-.016a2.117,2.117,0,0,1-.012-.214c0-.008,0-.017,0-.025,0-.072,0-.147.009-.221,0-.029,0-.056,0-.085a.044.044,0,0,1,0-.009,4.169,4.169,0,0,1,.069-.451C797.577,620.64,797.583,620.607,797.591,620.573Z" transform="translate(-757.659 -587.969)" fill="#323f79"/>
            </g>
            <path id="Trazado_206391" data-name="Trazado 206391" d="M505.232,517.272c-.162,1.412-1.954,2.458-3.453,3.557a44.97,44.97,0,0,0,.4,6.055c1.659,1.359,3.611,2.695,3.953,4.124s-.8,3.45-1.68,5.359a46.776,46.776,0,0,0,2.4,5.626,12.462,12.462,0,0,1,4.1,1.158,2.2,2.2,0,0,1,.627.618c.769,1.18.491,3.765.409,6.1a37.1,37.1,0,0,0,3.923,4.072c1.674-.686,3.5-1.669,4.579-.94s1.744,3.384,2.469,5.686a25.242,25.242,0,0,0,4.671,1.716c1.174-1.6,2.349-3.585,3.465-3.5a1.579,1.579,0,0,1,.731.3,20.038,20.038,0,0,1,3.256,3.8,19.988,19.988,0,0,0,4.5-.981c.433-2.209.746-4.782,1.723-5.33s2.933.755,4.721,1.719a23.509,23.509,0,0,0,3.434-3.473c-.393-2.372-1-5.038-.369-6.13.616-1.059,2.7-.9,4.524-.984.345-.841.665-1.715.953-2.62s.539-1.825.757-2.752c-1.138-2.078-2.568-4.286-2.41-5.653.16-1.412,1.954-2.458,3.452-3.557a45.249,45.249,0,0,0-.4-6.054c-1.663-1.36-3.615-2.7-3.955-4.125s.8-3.449,1.679-5.359a46.781,46.781,0,0,0-2.4-5.626,12.473,12.473,0,0,1-4.1-1.157,2.2,2.2,0,0,1-.627-.619c-.77-1.18-.49-3.765-.41-6.1a36.909,36.909,0,0,0-3.921-4.07c-1.675.685-3.5,1.668-4.578.94s-1.746-3.387-2.469-5.687a25.256,25.256,0,0,0-4.673-1.716c-1.175,1.6-2.348,3.585-3.466,3.494a1.562,1.562,0,0,1-.73-.295,20.017,20.017,0,0,1-3.258-3.8,20.056,20.056,0,0,0-4.5.981c-.432,2.21-.746,4.783-1.722,5.331s-2.934-.755-4.72-1.717a23.433,23.433,0,0,0-3.434,3.471c.393,2.372,1,5.038.368,6.13-.616,1.059-2.7.9-4.521.986-.346.841-.669,1.713-.956,2.618s-.538,1.826-.755,2.754C503.961,513.7,505.388,515.9,505.232,517.272Zm8.237-1.745c3.291-10.333,12.944-14.01,21.563-8.2s12.935,18.887,9.645,29.222-12.944,14.009-21.562,8.207S510.179,525.86,513.469,515.526Z" transform="translate(-501.779 -487.052)" fill="#6673b4"/>
            <g id="Grupo_153300" data-name="Grupo 153300" transform="translate(28.74 0.596)">
              <path id="Trazado_206392" data-name="Trazado 206392" d="M780.982,832.063a23.644,23.644,0,0,1-3.433,3.473l-14.973,4.016a23.517,23.517,0,0,0,3.434-3.473Z" transform="translate(-747.068 -770.789)" fill="#3b4c8f"/>
              <path id="Trazado_206393" data-name="Trazado 206393" d="M808.258,765.237c.288-.9.539-1.825.757-2.752l14.972-4.016c-.217.927-.469,1.848-.756,2.752s-.609,1.779-.954,2.62L807.3,767.857C807.649,767.016,807.969,766.142,808.258,765.237Z" transform="translate(-784.207 -709.681)" fill="#3b4c8f"/>
              <path id="Trazado_206394" data-name="Trazado 206394" d="M742.453,515.157c-.237-.249-.477-.492-.721-.734-.12-.12-.239-.243-.363-.362-.366-.355-.739-.7-1.119-1.041L755.223,509c.381.338.754.688,1.122,1.043.118.114.231.233.349.348.248.247.494.5.736.751.047.05.1.1.142.145.144.154.284.311.427.468.094.1.19.208.285.314q.437.492.86,1l-14.972,4.016q-.423-.511-.862-1c-.089-.1-.184-.2-.275-.3C742.843,515.573,742.65,515.364,742.453,515.157Z" transform="translate(-728.531 -502.541)" fill="#3b4c8f"/>
              <path id="Trazado_206395" data-name="Trazado 206395" d="M836.311,669.928c0,.013,0,.026,0,.04q.085.845.138,1.691c.01.164.015.328.024.492.022.405.04.81.05,1.215,0,.081.008.162.009.243q.01.474.009.948l-14.972,4.016c0-.4-.008-.792-.018-1.188s-.028-.815-.049-1.223c-.009-.162-.014-.324-.024-.486q-.053-.847-.137-1.693-.075-.733-.17-1.464l14.971-4.016Q836.237,669.215,836.311,669.928Z" transform="translate(-795.722 -634.98)" fill="#3b4c8f"/>
              <path id="Trazado_206396" data-name="Trazado 206396" d="M794.87,586.133c-.083-.193-.172-.384-.258-.576-.128-.29-.257-.579-.391-.866-.193-.413-.392-.824-.6-1.23l14.972-4.016q.274.541.535,1.092c.021.045.04.091.061.136.136.289.266.58.4.873.085.191.171.378.254.57.142.331.277.666.411,1,.057.142.119.283.175.426.006.014.011.029.016.043.191.492.376.987.55,1.486l-14.972,4.016q-.263-.748-.551-1.486c-.062-.158-.128-.314-.191-.471C795.146,586.8,795.01,586.463,794.87,586.133Z" transform="translate(-772.848 -561.031)" fill="#3b4c8f"/>
              <path id="Trazado_206397" data-name="Trazado 206397" d="M674.516,476.052c-.229-.1-.457-.184-.685-.271-.143-.056-.288-.113-.432-.165-.251-.091-.5-.174-.753-.255-.12-.039-.242-.082-.363-.12-.371-.115-.742-.221-1.113-.315l14.971-4.016q.555.143,1.111.315c.127.039.253.084.38.125.245.081.489.16.734.249.149.054.3.114.447.171.223.086.446.172.668.265.157.065.314.134.471.2.133.059.265.111.4.172.155.071.31.144.465.218l-14.972,4.016c-.289-.139-.58-.266-.871-.393C674.822,476.183,674.667,476.115,674.516,476.052Z" transform="translate(-671.171 -470.91)" fill="#3b4c8f"/>
            </g>
          </g>
        </g>
        <g id="Grupo_153334" data-name="Grupo 153334">
          <path id="Trazado_206398" data-name="Trazado 206398" d="M419.745,1349.947c0,7.182,13.085,13,29.227,13s29.226-5.822,29.226-13-13.086-13-29.226-13S419.745,1342.766,419.745,1349.947Z" transform="translate(-419.745 -1180.815)" fill="#adb5da"/>
          <g id="Grupo_153333" data-name="Grupo 153333" transform="translate(1.177)">
            <g id="Grupo_153304" data-name="Grupo 153304" transform="translate(28.935 166)">
              <g id="Grupo_153303" data-name="Grupo 153303" transform="translate(0.808)">
                <path id="Trazado_206399" data-name="Trazado 206399" d="M615.1,1397.86s3.1-.567,2.228,1.962c0,0-7.238,3.109-12.292,2.408a3.165,3.165,0,0,1-3-3.974l-.06-3.133,4.766.9-.271,2.977Z" transform="translate(-601.983 -1395.124)" fill="#e79677"/>
              </g>
              <path id="Trazado_206400" data-name="Trazado 206400" d="M598.089,1409.949a2,2,0,0,0,.476,1.343c1.247,1.438,3.7,1.482,5.426,1.372a58.506,58.506,0,0,0,8.255-1.155c.591-.125.755-.318.761-.491a2.407,2.407,0,0,0-1.857-1.465l2.639-.338a6.652,6.652,0,0,1,4.11.84c.674,1.927-2.608,3.212-2.608,3.212a53.448,53.448,0,0,1-7.685,2.146s-9.264,2.184-10.384-.665Z" transform="translate(-597.222 -1406.817)" fill="#551c2f"/>
            </g>
            <g id="Grupo_153306" data-name="Grupo 153306" transform="translate(10.531 161.694)">
              <g id="Grupo_153305" data-name="Grupo 153305" transform="translate(0.807)">
                <path id="Trazado_206401" data-name="Trazado 206401" d="M506.629,1372.479s3.1-.567,2.228,1.962c0,0-7.238,3.108-12.292,2.408a3.166,3.166,0,0,1-3-3.974l-.059-3.133,4.766.9-.271,2.977Z" transform="translate(-493.509 -1369.743)" fill="#e79677"/>
              </g>
              <path id="Trazado_206402" data-name="Trazado 206402" d="M489.618,1384.569a2,2,0,0,0,.476,1.343c1.248,1.438,3.7,1.482,5.426,1.372a58.5,58.5,0,0,0,8.255-1.155c.591-.125.755-.318.761-.492a2.407,2.407,0,0,0-1.857-1.465l2.639-.338a6.655,6.655,0,0,1,4.11.84c.674,1.927-2.607,3.212-2.607,3.212a53.472,53.472,0,0,1-7.685,2.146s-9.265,2.185-10.384-.665Z" transform="translate(-488.751 -1381.436)" fill="#551c2f"/>
            </g>
            <g id="Grupo_153310" data-name="Grupo 153310" transform="translate(7.624 62.919)">
              <g id="Grupo_153307" data-name="Grupo 153307" transform="translate(0 9.005)">
                <path id="Trazado_206403" data-name="Trazado 206403" d="M489.312,849.481a8.846,8.846,0,1,1-8.847-8.846A8.847,8.847,0,0,1,489.312,849.481Z" transform="translate(-471.619 -840.635)" fill="#014083"/>
                <path id="Trazado_206404" data-name="Trazado 206404" d="M474.9,929.439s.123,2.224,4.119,2.279c0,0,3.781,1.29,5.414-3.634,6.434-19.394,4.734-39.632,4.734-39.632s-9.085-5.06-17.546-1.6C471.619,886.852,472.987,912.309,474.9,929.439Z" transform="translate(-471.619 -878.006)" fill="#014083"/>
              </g>
              <path id="Trazado_206405" data-name="Trazado 206405" d="M488.8,1135.8s-3.117,41.915-3.408,43.413a5.2,5.2,0,0,1-5.727-.053c.015-2.056-2.226-19.2-2.458-22.415-.4-5.532-1.063-12.521,2.434-20.471Z" transform="translate(-475.986 -1076.714)" fill="#014083"/>
              <g id="Grupo_153308" data-name="Grupo 153308" transform="translate(10.735 9.002)">
                <path id="Trazado_206406" data-name="Trazado 206406" d="M555.533,925.724s.852,2.058,4.64.785c0,0,4-.035,3.905-5.223-.354-20.43-9.307-41.6-9.307-41.6s-10.082-.963-16.921,5.105C537.851,884.789,548.056,910.194,555.533,925.724Z" transform="translate(-537.349 -873.009)" fill="#004d9c"/>
                <path id="Trazado_206407" data-name="Trazado 206407" d="M552.09,846.538a8.847,8.847,0,1,1-11.277-5.416A8.846,8.846,0,0,1,552.09,846.538Z" transform="translate(-534.894 -840.62)" fill="#004d9c"/>
              </g>
              <path id="Trazado_206408" data-name="Trazado 206408" d="M471.619,804.124c1.069-9.837,6-14.4,6-14.4l17.1-2.16s4.715,8.2,5.207,16.564c-2.043,5.576-9.33,7.2-9.33,7.2l-5.532,1.641S472.531,811.061,471.619,804.124Z" transform="translate(-471.619 -787.56)" fill="#004d9c"/>
              <g id="Grupo_153309" data-name="Grupo 153309" transform="translate(21.8 57.028)">
                <path id="Trazado_206409" data-name="Trazado 206409" d="M614.983,1128.006s-8.482,44.031-8.992,45.469c.223-.107-4.009,1.946-5.884-.7.319-2.031.5-24.4.746-27.615.425-5.531.367-10.692,5-18.037C605.853,1127.119,617.434,1118.829,614.983,1128.006Z" transform="translate(-600.107 -1123.684)" fill="#004d9c"/>
              </g>
            </g>
            <path id="Trazado_206410" data-name="Trazado 206410" d="M599.384,1334.368" transform="translate(-570.083 -1178.676)" fill="#3a190f"/>
            <g id="Grupo_153313" data-name="Grupo 153313" transform="translate(0 23.546)">
              <g id="Grupo_153311" data-name="Grupo 153311" transform="translate(0.602 23.624)">
                <path id="Trazado_206411" data-name="Trazado 206411" d="M435.983,694.738s3.115,3.669,9.311,12.525l-1.071,1.816s-10.613-5.346-14-11.345Z" transform="translate(-430.226 -694.738)" fill="#e79677"/>
              </g>
              <g id="Grupo_153312" data-name="Grupo 153312">
                <path id="Trazado_206412" data-name="Trazado 206412" d="M441.81,565.994s-7.988,17.432-12.786,16.768c0,0-1.655.1-1.986-1.144,0,0-3.388-3,10.7-24.68a4.343,4.343,0,0,1,4.2-1.366S446.212,558.4,441.81,565.994Z" transform="translate(-426.681 -555.494)" fill="#e79677"/>
              </g>
            </g>
            <g id="Grupo_153314" data-name="Grupo 153314" transform="translate(19.413 20.401)">
              <rect id="Rectángulo_44882" data-name="Rectángulo 44882" width="8.635" height="9.178" fill="#f5bc93"/>
            </g>
            <g id="Grupo_153315" data-name="Grupo 153315" transform="translate(14.765 1.277)">
              <path id="Trazado_206413" data-name="Trazado 206413" d="M532.33,443.569l.325-1.467s.646-5.374.646-5.376a4.882,4.882,0,0,0-.319-2.183,4.967,4.967,0,0,1-.44-2.233,6.3,6.3,0,0,0-2.153-5.618c-2.947-3.128-8.625-2.379-8.627-2.379-2.935.558-5.45,1.8-6.771,4.321a9.156,9.156,0,0,0-.809,7.468,15.16,15.16,0,0,0,5.19,6.519c1.5,1.16,2.962,1.237,4.862,1.759a21.252,21.252,0,0,0,5.194.424C530.15,444.771,532.145,444.412,532.33,443.569Z" transform="translate(-513.704 -424.236)" fill="#f4a886"/>
            </g>
            <g id="Grupo_153316" data-name="Grupo 153316" transform="translate(29.458 15.635)">
              <path id="Trazado_206414" data-name="Trazado 206414" d="M600.309,508.866" transform="translate(-600.309 -508.866)" fill="#3a190f"/>
            </g>
            <g id="Grupo_153317" data-name="Grupo 153317" transform="translate(13.845)">
              <path id="Trazado_206415" data-name="Trazado 206415" d="M523.9,432.347c-.427-.6-1.977-.977-1.978-.977-1.874,0-1.63,2.5-1.806,3.586-.057.352-.126.715-.2,1.075-.894,3.182-3.567,3.155-5.852,3.539-.085-.05-.174-.1-.267-.152a9.146,9.146,0,0,0-1.73-2.875c-3.432-2.967-4.552-8.3-3.245-12.494a9.943,9.943,0,0,1,2.141-3.582,12.627,12.627,0,0,1,7.092-3.658c2.656-.5,12.161.789,9.568,6.562,0,0-3.91,4.511-3.717,8.975" transform="translate(-508.282 -416.712)" fill="#3a190f"/>
            </g>
            <g id="Grupo_153325" data-name="Grupo 153325" transform="translate(26.093 14.157)">
              <g id="Grupo_153321" data-name="Grupo 153321">
                <g id="Grupo_153318" data-name="Grupo 153318" transform="translate(0.208 0.175)">
                  <path id="Trazado_206416" data-name="Trazado 206416" d="M584.858,502.489a1.8,1.8,0,0,0-2.116-1.238,1.414,1.414,0,0,0-1.034,1.526c.014.155.048.306.062.461a3.249,3.249,0,0,0,2.009,2.274" transform="translate(-581.701 -501.186)" fill="#f7bc93"/>
                </g>
                <g id="Grupo_153319" data-name="Grupo 153319" transform="translate(1.103 0.904)">
                  <path id="Trazado_206417" data-name="Trazado 206417" d="M587.3,505.6a.944.944,0,0,1,.417-.114c.63-.039,1.138.931.508,1.1a.359.359,0,0,0,.008.5c.217.236.508.573.443.905-.04.2-.259.3-.457.352-.157.039-.19-.085-.064-.145a.7.7,0,0,0,.24-.2c0-.012.013-.022.019-.033a.113.113,0,0,0,.015-.026.209.209,0,0,0,.007-.143.388.388,0,0,1-.489-.006c-.119-.144-.028-.368-.069-.532a1.264,1.264,0,0,0-.146-.326.336.336,0,0,1,.231-.563,1.682,1.682,0,0,1,.191.014c.264-.137-.03-.533-.191-.6a.505.505,0,0,0-.55.1.782.782,0,0,0-.175.556,1.836,1.836,0,0,0,.171.666c.057.119.129.259.187.378.065.135-.092.194-.157.059a3.966,3.966,0,0,1-.449-1.1A.828.828,0,0,1,587.3,505.6Z" transform="translate(-586.977 -505.482)" fill="#e1a685"/>
                </g>
                <g id="Grupo_153320" data-name="Grupo 153320">
                  <path id="Trazado_206418" data-name="Trazado 206418" d="M583.84,501.634s-.075-.108-.2-.3a2.6,2.6,0,0,0-.261-.3,2.075,2.075,0,0,0-.4-.309,1.64,1.64,0,0,0-.538-.195,1.376,1.376,0,0,0-.614.043,1.635,1.635,0,0,0-.312.132,1.522,1.522,0,0,0-.248.19,1.186,1.186,0,0,0-.328.559,1.68,1.68,0,0,0-.01.7l.024.189,0,.024v0a.227.227,0,1,0,0-.023v.006l0,.012.009.046.019.093a2,2,0,0,0,.089.333,2.707,2.707,0,0,0,.293.583,3.4,3.4,0,0,0,.377.469,4.226,4.226,0,0,0,.712.59c.188.125.306.187.306.187a2.108,2.108,0,0,1-.345-.113,3.568,3.568,0,0,1-.839-.479,2.852,2.852,0,0,1-.47-.461,2.454,2.454,0,0,1-.39-.641,2.407,2.407,0,0,1-.126-.378l-.024-.091-.011-.047,0-.012-.006-.037,0-.024-.028-.189a2.07,2.07,0,0,1,.008-.846,1.628,1.628,0,0,1,.463-.753c.057-.047.11-.1.17-.139l.2-.111a1.864,1.864,0,0,1,.381-.134,1.575,1.575,0,0,1,.778.011,1.691,1.691,0,0,1,.61.305,1.75,1.75,0,0,1,.382.411,2.786,2.786,0,0,1,.213.367C583.8,501.509,583.84,501.634,583.84,501.634Z" transform="translate(-580.475 -500.157)" fill="#e1a685"/>
                </g>
              </g>
              <g id="Grupo_153324" data-name="Grupo 153324" transform="translate(2.286 3.575)">
                <g id="Grupo_153322" data-name="Grupo 153322">
                  <path id="Trazado_206419" data-name="Trazado 206419" d="M593.946,521.75a.523.523,0,1,0,.523-.523A.524.524,0,0,0,593.946,521.75Z" transform="translate(-593.946 -521.227)" fill="#fff"/>
                </g>
                <g id="Grupo_153323" data-name="Grupo 153323">
                  <path id="Trazado_206420" data-name="Trazado 206420" d="M594.344,522.029a.414.414,0,0,0,.415-.414.407.407,0,0,0-.289-.388h0a.523.523,0,1,1-.523.523c0-.013,0-.025,0-.037A.407.407,0,0,0,594.344,522.029Z" transform="translate(-593.946 -521.227)" fill="#ececec"/>
                </g>
              </g>
            </g>
            <g id="Grupo_153326" data-name="Grupo 153326" transform="translate(5.451 23.56)">
              <path id="Trazado_206421" data-name="Trazado 206421" d="M458.907,601.2c.033-.048,9.533-13.679,9.533-13.679.444-2.01-.558-6.009-.558-6.009l-3.048-20.962c.362-2.4.528-5.452,3.779-4.907a20.142,20.142,0,0,1,4.16,1.16c-.414,1.946,2.946,3.2,2.946,3.2,4.622,2,5.69.681,5.69.681a68.685,68.685,0,0,1,6.469,3.632c1.122.922,1.8,2.359,1.448,4.778L486,588.958l.584,4.935,6.077,15.406a13.078,13.078,0,0,0-5.921-.708c-1.889.226-3.517,1.341-5.394,1.548-2.835.313-4.94-.712-7.08-2.067a34.156,34.156,0,0,1-8.194-2.88h-.179c-2.12.011-4.522-.025-6.087-1.685C459.476,603.157,458.506,601.776,458.907,601.2Z" transform="translate(-458.811 -555.579)" fill="#551c2f"/>
            </g>
            <g id="Grupo_153327" data-name="Grupo 153327" transform="translate(28.845 32.259)">
              <path id="Trazado_206422" data-name="Trazado 206422" d="M606.3,638.686l-.055-24.133c-.588-6.613-3.873-7.669-3.873-7.669-6.638-.778-5.616,11.522-5.616,11.522l2.772,20.792" transform="translate(-596.696 -606.849)" fill="#f4a886"/>
            </g>
            <g id="Grupo_153328" data-name="Grupo 153328" transform="translate(55.089 71.333)">
              <path id="Trazado_206423" data-name="Trazado 206423" d="M755.864,843.11c-3.045-1.63-3.318-2.156-3.855-2.922-2.314-3.289,2.365-3.185,3.543-2.918.677.153.718,1.762,2.815,3.724,0,0,3.3,1.913,4.109,1.778,0,0,.844.12.844.729C763.32,843.5,761.006,844.869,755.864,843.11Z" transform="translate(-751.375 -837.15)" fill="#f4a886"/>
            </g>
            <g id="Grupo_153331" data-name="Grupo 153331" transform="translate(31.705 60.728)">
              <g id="Grupo_153329" data-name="Grupo 153329" transform="translate(2.395 0.047)">
                <path id="Trazado_206424" data-name="Trazado 206424" d="M627.668,774.919" transform="translate(-627.668 -774.919)" fill="#f7bc93"/>
              </g>
              <g id="Grupo_153330" data-name="Grupo 153330">
                <path id="Trazado_206425" data-name="Trazado 206425" d="M619.794,775.47l20.672,11.313c.892,2.487-.256,2.845-.256,2.845l-16-4.6c-6.832-1.828-9.539-4.7-9.539-4.7s-2.988-2.07.825-5.152C615.492,775.175,617.229,773.8,619.794,775.47Z" transform="translate(-613.553 -774.644)" fill="#f4a886"/>
              </g>
            </g>
            <g id="Grupo_153332" data-name="Grupo 153332" transform="translate(6.766 0.292)">
              <path id="Trazado_206426" data-name="Trazado 206426" d="M491.088,432.3c-.536,4,.067,9.3-1.927,13.674-.888,1.948-1.867,2.913-1.335,5.172.436,1.849,1.31,3.594,1.785,5.508,1.048,4.226-.376,8.354-5.3,6.824-2.362-.734-2.626-.722-4.776.112a6.247,6.247,0,0,1-5.3.021c-2.783-1.355-1.945-3.405-3.505-5.458-1.188-1.564-2.868-1.526-3.765-3.627-1.081-2.537.207-3.891,1.525-6.044a7.915,7.915,0,0,0,1.139-6.423c-.379-2.271.183-3.42.934-5.509.771-2.14.435-4,.8-6.15.722-4.244,3.041-10,7.488-11.248,2.179-.61,5-1.088,7.09-.318,2.856,1.047,6.036,2.163,5.912,5.674A58.112,58.112,0,0,1,491.088,432.3Z" transform="translate(-466.56 -418.431)" fill="#3a190f"/>
            </g>
            <path id="Trazado_206427" data-name="Trazado 206427" d="M772.382,830.486s-.58,1.694,1.53,1.279l2.065-1.572a.814.814,0,0,0,.415-.957s-.248-.35-.907,0Z" transform="translate(-713.669 -759.117)" fill="#f4a886"/>
          </g>
        </g>
      </g>
      <g id="Grupo_153338" data-name="Grupo 153338" transform="translate(76.724 63.806)">
        <path id="Trazado_206428" data-name="Trazado 206428" d="M937,601.565A229.174,229.174,0,0,0,925.4,623.843s-.025,2.623,1.941,1.908,17.105-19.58,17.22-21.586C944.857,599.009,937,601.565,937,601.565Z" transform="translate(-916.336 -600.931)" fill="#f4a886"/>
        <g id="Grupo_153337" data-name="Grupo 153337" transform="translate(0 22.971)">
          <g id="Grupo_153336" data-name="Grupo 153336">
            <path id="Trazado_206429" data-name="Trazado 206429" d="M879.438,742.994c2.672-2.426,2.815-3.029,3.164-3.942,1.509-3.923-3.208-2.628-4.333-2.056-.646.328-.28,1.968-1.907,4.49,0,0-2.854,2.778-3.711,2.847,0,0-.826.336-.672.955C871.979,745.288,874.674,746.086,879.438,742.994Z" transform="translate(-871.96 -736.326)" fill="#f4a886"/>
          </g>
          <path id="Trazado_206430" data-name="Trazado 206430" d="M890.617,740.631s1.806.488.213,2.073l-2.57.869a.849.849,0,0,1-1.071-.2s-.159-.419.528-.786Z" transform="translate(-884.592 -739.901)" fill="#f4a886"/>
        </g>
      </g>
    </g>
    <g id="Grupo_153383" data-name="Grupo 153383" transform="translate(541.53 169.771)">
      <g id="Grupo_153369" data-name="Grupo 153369" transform="translate(0)">
        <g id="Grupo_153364" data-name="Grupo 153364">
          <path id="Trazado_206431" data-name="Trazado 206431" d="M1369.431,198.385s-2.432,6.708,1.3,19.076c0,0,2.324,5.975,10.526,6.178,0,0-3.479-6.086-2.786-24.649A7.635,7.635,0,0,0,1369.431,198.385Z" transform="translate(-1329.443 -192.534)" fill="#28539e"/>
          <ellipse id="Elipse_5506" data-name="Elipse 5506" cx="30.362" cy="13.509" rx="30.362" ry="13.509" transform="translate(0 164.309)" fill="#adb5da"/>
          <g id="Grupo_153363" data-name="Grupo 153363" transform="translate(16.878)">
            <g id="Grupo_153346" data-name="Grupo 153346" transform="translate(29.488 25.938)">
              <g id="Grupo_153340" data-name="Grupo 153340">
                <path id="Trazado_206432" data-name="Trazado 206432" d="M1427.336,353.442l-6.668-24.169c-2.4-6.466-5.981-6.624-5.981-6.624-6.864,1.039-2.47,13.085-2.47,13.085l8.473,20.076" transform="translate(-1410.831 -322.649)" fill="#e79677"/>
              </g>
              <g id="Grupo_153345" data-name="Grupo 153345" transform="translate(9.515 27.934)">
                <g id="Grupo_153341" data-name="Grupo 153341" transform="translate(25.852 3.691)">
                  <path id="Trazado_206433" data-name="Trazado 206433" d="M1625.149,514.762c-3.519-.708-3.946-1.149-4.711-1.751-3.289-2.577,1.4-3.877,2.649-3.965.718-.049,1.242,1.537,3.917,2.86,0,0,3.852.915,4.618.537,0,0,.877-.134,1.06.472C1632.683,512.916,1630.791,514.971,1625.149,514.762Z" transform="translate(-1619.288 -509.046)" fill="#e79677"/>
                </g>
                <g id="Grupo_153344" data-name="Grupo 153344">
                  <g id="Grupo_153342" data-name="Grupo 153342" transform="translate(1.419 0.616)">
                    <path id="Trazado_206434" data-name="Trazado 206434" d="M1475.276,490.921" transform="translate(-1475.276 -490.921)" fill="#e79677"/>
                  </g>
                  <g id="Grupo_153343" data-name="Grupo 153343">
                    <path id="Trazado_206435" data-name="Trazado 206435" d="M1472.393,487.53l23.953,5.056c1.634,2.206.6,2.906.6,2.906l-17.3.218c-7.344.229-10.9-1.811-10.9-1.811s-3.592-1.163-.724-5.372C1468.025,488.527,1469.341,486.641,1472.393,487.53Z" transform="translate(-1466.915 -487.292)" fill="#e79677"/>
                  </g>
                </g>
                <path id="Trazado_206436" data-name="Trazado 206436" d="M1638.3,497.242s-.07,1.859,1.9.813l1.582-2.184a.844.844,0,0,0,.126-1.075s-.351-.275-.9.269Z" transform="translate(-1609.22 -493.466)" fill="#e79677"/>
              </g>
            </g>
            <path id="Trazado_206437" data-name="Trazado 206437" d="M1417.63,322.649a16.189,16.189,0,0,1,5.76,8.473s-2.459,8.345-8.8,8.473C1414.59,339.595,1408.171,324.788,1417.63,322.649Z" transform="translate(-1382.698 -296.711)" fill="#00b0c2"/>
            <path id="Trazado_206438" data-name="Trazado 206438" d="M1344.924,262.639h9.877c-.449-1.438-1.38-5.16.06-7.694l-9.979-6.552S1346.657,259.388,1344.924,262.639Z" transform="translate(-1326.583 -235.054)" fill="#f4a886"/>
            <path id="Trazado_206439" data-name="Trazado 206439" d="M1346.031,256.434a4.341,4.341,0,0,0,3.109,2.742,10.426,10.426,0,0,0,5.016.371,7.808,7.808,0,0,1,.705-4.6l-9.979-6.552s.54,3.354.734,6.9C1345.751,255.676,1345.883,256.056,1346.031,256.434Z" transform="translate(-1326.583 -235.054)" fill="#e18a72"/>
            <path id="Trazado_206440" data-name="Trazado 206440" d="M1343.124,195.3l.524-1.486,1.279-4.37a4.4,4.4,0,0,0,.022-2.319,7.026,7.026,0,0,1-.2-3.628c.814-3.977-.951-6.053-.951-6.053-2.322-3.656-7.8-3.639-7.8-3.639-6.773.351-7.326,6.909-7.326,6.909-1.088,4.363,2.391,7.986,2.4,7.992a4.822,4.822,0,0,1,.7,1.768,5.456,5.456,0,0,0,.994,1.657,12.163,12.163,0,0,0,3.472,2.787,13.411,13.411,0,0,0,5.221,1.231C1342.145,196.145,1342.824,196.154,1343.124,195.3Z" transform="translate(-1312.947 -173.122)" fill="#f4a886"/>
            <path id="Trazado_206441" data-name="Trazado 206441" d="M1255.826,886.48c-5.008,9.248-5.895,13.011-6.785,20.044-.52,4.09-.347,21.318-.883,23.888-.224,1.065,3.825.481,3.825.481.74-1.8,12.531-41.386,12.531-41.386s1.319-4.1.224-4.813C1259.241,881.112,1258.01,882.449,1255.826,886.48Z" transform="translate(-1246.262 -761.671)" fill="#f4a886"/>
            <path id="Trazado_206442" data-name="Trazado 206442" d="M1305.727,499.753s3.849,16.29,3.332,18.069c-1.488,5.126-15.3,12.318-27.889,1.83a93.223,93.223,0,0,1,8.857-22.24S1292.223,499.681,1305.727,499.753Z" transform="translate(-1273.681 -441.824)" fill="#272c34"/>
            <path id="Trazado_206443" data-name="Trazado 206443" d="M1320.992,315.047s5.038,9.739,7.286,15.081c-.942,6.262-4.345,15.553-5.712,17.512-3,4.293-16.7.46-16.7.46l-3.949-13.185c11.529-4.139,5.457-16.287,5.457-16.287l1.808-1.141s1.844,5.97,9.346,5.757c0,0,2.465-1.6.651-8.415A10.562,10.562,0,0,1,1320.992,315.047Z" transform="translate(-1290.909 -290.219)" fill="#694896"/>
            <path id="Trazado_206444" data-name="Trazado 206444" d="M1340.435,598.937s1.325,26.28,6.188,40.413c.724,2.108,9.032-.693,9.032-.693s4.193-22.612,3.942-31.98c-.143-5.295-2.037-16.711-2.037-16.711S1341.978,587.929,1340.435,598.937Z" transform="translate(-1322.891 -518.551)" fill="#e79677"/>
            <path id="Trazado_206445" data-name="Trazado 206445" d="M1359.214,878.283l8.794-.6s-5.4,44.862-5.893,46.748c0,0-3.78,1.367-3.7.281.183-2.619-2.971-22.752-3.066-26.874C1355.19,891.217,1355.45,887.035,1359.214,878.283Z" transform="translate(-1335.244 -757.578)" fill="#e79677"/>
            <path id="Trazado_206446" data-name="Trazado 206446" d="M1357,630.814c1.2-7.444,2.752-18.332,2.6-24.137-.143-5.295-2.037-16.711-2.037-16.711s-15.582-2.037-17.125,8.971c0,0,.993,19.671,4.41,34.128A18.183,18.183,0,0,0,1357,630.814Z" transform="translate(-1322.891 -518.551)" fill="#f9c852"/>
            <path id="Trazado_206447" data-name="Trazado 206447" d="M1277.047,624.3s.1,26.29,3.569,40.829c.516,2.168,8.437,1.5,8.437,1.5s5.169-24.863,5.828-34.211c.372-5.284,1.429-14.53,1.429-14.53S1277.768,616.056,1277.047,624.3Z" transform="translate(-1270.257 -541.719)" fill="#f4a886"/>
            <path id="Trazado_206448" data-name="Trazado 206448" d="M1287.405,321.128a6.079,6.079,0,0,0-1.976,7.4l7.633,18.537s12.377,4.21,15.374-.083c1.367-1.959,2.634-7.157,4.3-14.651,1.129-5.093,1.206-13.99-1.662-16.625-1.653-1.52-7-1.489-7.044-1.669l-8.67,2.793Z" transform="translate(-1276.779 -289.557)" fill="#f4a886"/>
            <path id="Trazado_206449" data-name="Trazado 206449" d="M1302.852,494.232c.734-.133,4.691,1.43,4.691,1.43s2.849,12.147,3.011,13.993-12.54,11.407-26.729,5.964c0,0,7.165-16.9,8.212-20.434C1293.24,491.129,1302.852,494.232,1302.852,494.232Z" transform="translate(-1275.885 -438.241)" fill="#f4a886"/>
            <path id="Trazado_206450" data-name="Trazado 206450" d="M1424.833,360.4s4.189,4.931,4.541,8.6c.2,2.041-2.381,5.455-3.669,6.714C1424.792,376.6,1419.381,363.8,1424.833,360.4Z" transform="translate(-1390.976 -328.054)" fill="#00b0c2"/>
            <path id="Trazado_206451" data-name="Trazado 206451" d="M1281.9,597.438s-5,1.111-4.551,10.282c.439,8.956,16.746,10.818,18.84,1.794C1298.439,599.8,1290.8,594.109,1281.9,597.438Z" transform="translate(-1270.482 -524.085)" fill="#492b55"/>
            <path id="Trazado_206452" data-name="Trazado 206452" d="M1318.946,187.886c-.035-3.093.043-2.9.043-2.9.073-.9,1.845,1.044,1.809-.133-.168-5.388,1.79-7.954,2.556-8.369a9.483,9.483,0,0,1,6.011-1.14c2.726.484,2.622,4.112,2.622,4.112,2.322-13.281-12.49-9.037-12.49-9.037a8.209,8.209,0,0,0-6.47,8.692c-.884,7.3,6.032,11.517,6.032,11.517Z" transform="translate(-1300.067 -169.771)" fill="#28539e"/>
            <g id="Grupo_153355" data-name="Grupo 153355" transform="translate(16.467 13.025)">
              <g id="Grupo_153351" data-name="Grupo 153351">
                <g id="Grupo_153350" data-name="Grupo 153350">
                  <g id="Grupo_153349" data-name="Grupo 153349">
                    <g id="Grupo_153348" data-name="Grupo 153348">
                      <g id="Grupo_153347" data-name="Grupo 153347">
                        <path id="Trazado_206453" data-name="Trazado 206453" d="M1336.973,250.578a1.448,1.448,0,0,1-.94.286,2.132,2.132,0,0,1-1.944-2.19,1.959,1.959,0,0,1,1.852-2.133,1.845,1.845,0,0,1,1.3.593,2.66,2.66,0,0,1,.4,2.169A2,2,0,0,1,1336.973,250.578Z" transform="translate(-1334.088 -246.54)" fill="#f4a37f"/>
                      </g>
                    </g>
                  </g>
                </g>
              </g>
              <g id="Grupo_153354" data-name="Grupo 153354" transform="translate(0.977 0.686)">
                <g id="Grupo_153352" data-name="Grupo 153352">
                  <path id="Trazado_206454" data-name="Trazado 206454" d="M1341.145,251.008c-.062-.627-1.33-.029-1.138.325a1.944,1.944,0,0,0,.507.494.917.917,0,0,1,.39.685c0,.035.012.144-.025.169-.164.114-.7-.5-.819-.627a1.046,1.046,0,0,1-.152-1,.626.626,0,0,1,.694-.469c.286.016.576.036.559.39,0,.007-.013.066-.017.034Z" transform="translate(-1339.846 -250.582)" fill="#e98e72"/>
                </g>
                <g id="Grupo_153353" data-name="Grupo 153353" transform="translate(0.163 1.015)">
                  <path id="Trazado_206455" data-name="Trazado 206455" d="M1341.539,256.628c.133-.132.259-.022.393.075a.6.6,0,0,1,.227.369,1.471,1.471,0,0,1-.158,1.047.789.789,0,0,1-.68.361c-.382-.011-.5-.348-.51-.671,0-.086-.011-.29.073-.344s.157.083.218.145a.543.543,0,0,0,.324.122.692.692,0,0,0,.567-.254.3.3,0,0,0,.058-.1c0,.211-.011.257-.033.142a.574.574,0,0,0-.073-.149c-.088-.146-.237-.246-.336-.385-.047-.065-.136-.291-.07-.359Z" transform="translate(-1340.809 -256.567)" fill="#e98e72"/>
                </g>
              </g>
            </g>
            <g id="Grupo_153357" data-name="Grupo 153357" transform="translate(23.115 9.486)">
              <path id="Trazado_206456" data-name="Trazado 206456" d="M1381.967,240.034c.037.376-.141.7-.4.725s-.49-.259-.526-.635.141-.7.4-.724S1381.93,239.66,1381.967,240.034Z" transform="translate(-1379.722 -237.072)" fill="#422918"/>
              <path id="Trazado_206457" data-name="Trazado 206457" d="M1412.68,235.753c.014.377-.181.69-.437.7s-.474-.288-.488-.665.181-.69.437-.7S1412.667,235.377,1412.68,235.753Z" transform="translate(-1405.225 -233.493)" fill="#422918"/>
              <path id="Trazado_206458" data-name="Trazado 206458" d="M1373.268,230.954c.938-1.268,3.634-1.007,3.634-1.007s.154-.009.112-.478c0,0-.011-.415-.344-.375C1376.67,229.094,1373.441,228.727,1373.268,230.954Z" transform="translate(-1373.268 -228.497)" fill="#28539e"/>
              <path id="Trazado_206459" data-name="Trazado 206459" d="M1409.617,225.879c-.9-.5-2.929.111-2.929.111-.33.048-.233.451-.233.451.083.464.234.43.234.43a6.653,6.653,0,0,1,2.835-.429C1409.569,226.275,1409.578,226.048,1409.617,225.879Z" transform="translate(-1400.813 -225.683)" fill="#28539e"/>
              <g id="Grupo_153356" data-name="Grupo 153356" transform="translate(2.872 7.72)">
                <path id="Trazado_206460" data-name="Trazado 206460" d="M1394.12,271.187l-3.71.686c-.194.036-.272.152-.167.256a2.346,2.346,0,0,0,4.074-.763C1394.369,271.245,1394.28,271.176,1394.12,271.187Z" transform="translate(-1390.196 -271.185)" fill="#fff"/>
              </g>
              <path id="Trazado_206461" data-name="Trazado 206461" d="M1397.621,251.093c1.944-.141,2.051-.65,2.051-.65l-1.019-2.049S1398.886,250.442,1397.621,251.093Z" transform="translate(-1393.489 -244.54)" fill="#e98e72"/>
            </g>
            <path id="Trazado_206462" data-name="Trazado 206462" d="M1277.047,624.3s.071,18.362,2.12,32.881c3.735,1.463,8.047,2.909,11.5,1.4,1.577-8.109,3.8-20.24,4.218-26.157.372-5.284,1.429-14.53,1.429-14.53S1277.768,616.056,1277.047,624.3Z" transform="translate(-1270.257 -541.719)" fill="#f9c852"/>
            <path id="Trazado_206463" data-name="Trazado 206463" d="M1305.727,499.753s3.849,16.29,3.332,18.069c-1.488,5.126-15.3,12.318-27.889,1.83a93.223,93.223,0,0,1,8.857-22.24S1292.223,499.681,1305.727,499.753Z" transform="translate(-1273.681 -441.824)" fill="#f9c852"/>
            <path id="Trazado_206464" data-name="Trazado 206464" d="M1307.135,348.1s14.09,4.342,17.087.048c1.368-1.959,4.381-11.758,5.324-18.021-2.248-5.342-7.286-15.081-7.286-15.081a10.561,10.561,0,0,0-1.811-.217c1.813,6.81-.651,8.415-.651,8.415-7.5.213-9.347-5.757-9.347-5.757l-1.808,1.141s5.589,11.609-5.2,16.918C1303.445,335.547,1305.664,347.345,1307.135,348.1Z" transform="translate(-1292.177 -290.219)" fill="#15616d"/>
            <path id="Trazado_206465" data-name="Trazado 206465" d="M1345.1,268.482a.642.642,0,1,1-.643-.643A.642.642,0,0,1,1345.1,268.482Z" transform="translate(-1325.702 -251.201)" fill="#fff"/>
            <g id="Grupo_153360" data-name="Grupo 153360" transform="translate(4.667 31.283)">
              <path id="Trazado_206466" data-name="Trazado 206466" d="M1286.372,356.134a5.791,5.791,0,0,1-.251,8.188c-2.331,2.192-9.654,6.372-9.722,3.173-.134-6.287.111-9.7,2.441-11.894S1284.18,353.8,1286.372,356.134Z" transform="translate(-1274.361 -354.153)" fill="#f4a886"/>
              <path id="Trazado_206467" data-name="Trazado 206467" d="M1276.806,382.876l-5.062-2.918-5.087,3.183s-2.978,18.971-1.88,23.313c1.169,4.626,3.294,1.218,4.3-.047C1269.075,406.406,1277.379,386.562,1276.806,382.876Z" transform="translate(-1264.534 -375.58)" fill="#f4a886"/>
              <path id="Trazado_206468" data-name="Trazado 206468" d="M1270.5,516.82s9.1,6.5,17.182,10.036c0,0,2.669-1.121,1.334-2.355-2.267-2.1-12.176-11.584-14.463-13.683C1270.5,509.434,1270.5,516.82,1270.5,516.82Z" transform="translate(-1269.484 -484.095)" fill="#f4a886"/>
              <g id="Grupo_153359" data-name="Grupo 153359" transform="translate(17.759 40.332)">
                <g id="Grupo_153358" data-name="Grupo 153358" transform="translate(0 0.001)">
                  <path id="Trazado_206469" data-name="Trazado 206469" d="M1374.245,597.934c-3.294-1.423-3.622-1.944-4.245-2.69-2.682-3.2,2.171-3.5,3.415-3.329.713.1.9,1.762,3.238,3.61,0,0,3.578,1.694,4.408,1.483,0,0,.885.051.938.682C1382,597.69,1379.721,599.308,1374.245,597.934Z" transform="translate(-1369.204 -591.876)" fill="#f4a886"/>
                </g>
                <path id="Trazado_206470" data-name="Trazado 206470" d="M1390.848,591.872s-1.41,1.212.7,1.951l2.678-.322s.755.03.873-.639c0,0-.036-.444-.811-.479Z" transform="translate(-1386.793 -591.872)" fill="#f4a886"/>
              </g>
            </g>
            <path id="Trazado_206471" data-name="Trazado 206471" d="M1281.284,337.221l-6.736,3.2s-3.88,1.9-4.053,9.294c0,0,5,6.255,9.956,4.885l4.447-10.127S1285.529,340.622,1281.284,337.221Z" transform="translate(-1264.818 -308.811)" fill="#15616d"/>
            <path id="Trazado_206472" data-name="Trazado 206472" d="M1409.569,314.83s3.675.185,5.635,1.327c0,0,3.23,4,1.938,12.6C1417.143,328.754,1409,323.889,1409.569,314.83Z" transform="translate(-1380.272 -290.219)" fill="#15616d"/>
            <g id="Grupo_153361" data-name="Grupo 153361" transform="translate(21.228 164.553)">
              <path id="Trazado_206473" data-name="Trazado 206473" d="M1367.934,1140.242s.184,3.276,1,4.315a30.356,30.356,0,0,0,3.161,2.984l2.589,1.839s1.792,2.952-2.917,1.91c-5.7-1.262-9.619-6.488-9.619-6.488l2.009-5.149Z" transform="translate(-1362.147 -1139.653)" fill="#e79677"/>
              <path id="Trazado_206474" data-name="Trazado 206474" d="M1374.683,1162.769l-2.291-1.628c.125.3.327.639.174.931a1.385,1.385,0,0,1-1.678.662c-3.331-1.256-5.862-4.167-7.8-6.956l-.941,2.413s3.916,5.225,9.619,6.488C1376.475,1165.721,1374.683,1162.769,1374.683,1162.769Z" transform="translate(-1362.147 -1153.042)" fill="#3e264c"/>
            </g>
            <g id="Grupo_153362" data-name="Grupo 153362" transform="translate(0 168.208)">
              <path id="Trazado_206475" data-name="Trazado 206475" d="M1242.816,1161.786s.184,3.276,1,4.315a30.338,30.338,0,0,0,3.161,2.984l2.589,1.839s1.792,2.952-2.917,1.91c-5.7-1.262-9.619-6.488-9.619-6.488l2.009-5.149Z" transform="translate(-1237.029 -1161.197)" fill="#f4a886"/>
              <path id="Trazado_206476" data-name="Trazado 206476" d="M1249.565,1184.313l-2.291-1.628c.125.3.327.639.173.931a1.385,1.385,0,0,1-1.678.661c-3.331-1.257-5.862-4.167-7.8-6.956l-.941,2.413s3.917,5.226,9.619,6.488C1251.357,1187.265,1249.565,1184.313,1249.565,1184.313Z" transform="translate(-1237.029 -1174.586)" fill="#3e264c"/>
            </g>
          </g>
          <path id="Trazado_206477" data-name="Trazado 206477" d="M1308.615,188.841s-3.766,6.06-2.673,18.932c0,0,1.039,6.326,9.021,8.221,0,0,.2-19.651,5.225-26.159C1320.188,189.834,1314.3,186.959,1308.615,188.841Z" transform="translate(-1277.207 -185.075)" fill="#28539e"/>
        </g>
        <g id="Grupo_153368" data-name="Grupo 153368" transform="translate(43.011 6.015)">
          <g id="Grupo_153367" data-name="Grupo 153367" transform="translate(0 44.256)">
            <g id="Grupo_153365" data-name="Grupo 153365" transform="translate(0.324 6.854)">
              <path id="Trazado_206478" data-name="Trazado 206478" d="M1407.2,525.831c-2.083,2.083-6.734.809-10.387-2.846s-4.926-8.306-2.842-10.388l6.133-6.131,13.229,13.234Z" transform="translate(-1392.973 -506.466)" fill="#ff7d00"/>
            </g>
            <path id="Trazado_206479" data-name="Trazado 206479" d="M1395.23,578.559a14.092,14.092,0,0,1-3.378-5.163l-.144.144c-1.345,1.344-.523,4.347,1.835,6.706s5.361,3.181,6.705,1.837l.143-.143A14.1,14.1,0,0,1,1395.23,578.559Z" transform="translate(-1391.062 -555.187)" fill="#ff7d00"/>
            <g id="Grupo_153366" data-name="Grupo 153366" transform="translate(3.761)">
              <path id="Trazado_206480" data-name="Trazado 206480" d="M1437.048,481.49c-4.946-4.948-6.669-11.245-3.848-14.066s9.118-1.094,14.064,3.854,6.669,11.246,3.849,14.065S1441.995,486.438,1437.048,481.49Z" transform="translate(-1428.686 -466.07)" fill="#ff7d00"/>
              <path id="Trazado_206481" data-name="Trazado 206481" d="M1421.593,489.808c-4.755-4.755-6.528-10.757-4.153-13.72l-2.852,2.811c-2.822,2.82-1.1,9.118,3.848,14.066s11.243,6.673,14.065,3.853l3.158-3.157C1432.836,496.481,1426.539,494.757,1421.593,489.808Z" transform="translate(-1413.23 -474.388)" fill="#ff7d00"/>
              <path id="Trazado_206482" data-name="Trazado 206482" d="M1458.267,498.811c-3.058-3.058-4.123-6.952-2.379-8.7s5.637-.677,8.694,2.382,4.123,6.952,2.379,8.695S1461.324,501.871,1458.267,498.811Z" transform="translate(-1447.954 -485.341)" fill="#ff7d00"/>
            </g>
          </g>
          <path id="Trazado_206483" data-name="Trazado 206483" d="M1492.291,253.358a28.194,28.194,0,1,0-48.007-17.349l-.069-.069s.905,7.82-6.5,15.219h0c-2.655,2.655-1.033,8.584,3.623,13.242s10.585,6.281,13.241,3.627l0,0c7.4-7.4,15.221-6.492,15.221-6.492l-.047-.046A28.134,28.134,0,0,0,1492.291,253.358Z" transform="translate(-1428.742 -205.223)" fill="#ff7d00" opacity="0.3"/>
          <path id="Trazado_206484" data-name="Trazado 206484" d="M1480.509,260.416a32.018,32.018,0,0,1-8.562-1.023,20.5,20.5,0,0,1-7.606-3.751,27.157,27.157,0,0,1-5.741-6.989c-3.068-4.978-5.155-10.851-4.064-16.754a30.07,30.07,0,0,1,8.572-15.9,25.368,25.368,0,0,1,7.277-5.078,23.9,23.9,0,0,1,7.493-1.842,34.23,34.23,0,0,1,8.791.223l.419.072a28.2,28.2,0,0,0-42.805,26.636l-.069-.069s.905,7.82-6.5,15.219c-2.655,2.655-1.033,8.584,3.623,13.242s10.585,6.281,13.241,3.627l0,0c7.4-7.4,15.221-6.492,15.221-6.492l-.047-.046A28.318,28.318,0,0,0,1480.509,260.416Z" transform="translate(-1428.742 -205.228)" fill="#ff7d00" opacity="0.3"/>
          <path id="Trazado_206485" data-name="Trazado 206485" d="M1716.145,301.448c.558,6.5-2.221,12.049-6.207,12.391s-7.671-4.65-8.229-11.151,2.221-12.049,6.208-12.392S1715.587,294.947,1716.145,301.448Z" transform="translate(-1648.944 -275.848)" fill="#ff7d00" opacity="0.5"/>
          <path id="Trazado_206486" data-name="Trazado 206486" d="M1581.259,478.161" transform="translate(-1548.99 -431.854)" fill="#ff7d00"/>
          <path id="Trazado_206487" data-name="Trazado 206487" d="M1477.344,435.588l11.872-11.868a1.137,1.137,0,0,1,1.706.067,3.3,3.3,0,0,1,.654,2.845c-.385,1.564-2.18,1.725-3.474,1.6a4.353,4.353,0,0,1-1.975-.711,7.8,7.8,0,0,1-2.9-3.535,4.2,4.2,0,0,1,1.006-4.658c1.147-1,2.768-.579,2.431,1.141a4,4,0,0,1-1.775,2.091,3.788,3.788,0,0,1-2.715.257,6.7,6.7,0,0,1-4.237-3.615,7.232,7.232,0,0,1-.741-3.116,3.5,3.5,0,0,1,2.218-3.282c2.1-.716,3.293,1.891,2.431,3.537l-11.872,11.868" transform="translate(-1456.582 -377.485)" fill="#ff7d00"/>
        </g>
      </g>
      <g id="Grupo_153382" data-name="Grupo 153382" transform="translate(60.452 17.614)">
        <path id="Trazado_206488" data-name="Trazado 206488" d="M1533.756,637.731s-1.86-1.206-.074-3.433a34.253,34.253,0,0,0,10.043-2.787c6.785-2.135,16.315-12.638,20.653-17.417,4.872-5.367,12.249-.811,8.29,5.316-7.407,11.465-26.875,19.022-38.815,18.575" transform="translate(-1526.282 -554.348)" fill="#f4a37f"/>
        <path id="Trazado_206489" data-name="Trazado 206489" d="M1817.61,846.846c-2.836-13.246-3.685-43.926-3.685-43.926s2.272-3.016,10.455-3.542c8.205-.529,7.638,4.513,7.6,3.858a285.288,285.288,0,0,1-3.765,43.09S1822.381,850.351,1817.61,846.846Z" transform="translate(-1759.621 -710.139)" fill="#143a6a"/>
        <path id="Trazado_206490" data-name="Trazado 206490" d="M1773.389,750.168c.807-5.481-.864-11.01-1.726-16.55h-24.92c-1.594,5.312-3.252,10.768-3.252,10.768s-1.066,12.566,9.606,14.072C1753.1,758.459,1771.7,761.682,1773.389,750.168Z" transform="translate(-1701.113 -655.568)" fill="#007fa6"/>
        <path id="Trazado_206491" data-name="Trazado 206491" d="M1585.274,1301.354c0,10.565-19.249,19.13-42.994,19.13s-42.991-8.564-42.991-19.13,19.248-19.128,42.991-19.128S1585.274,1290.79,1585.274,1301.354Z" transform="translate(-1498.367 -1111.098)" fill="#adb5da"/>
        <g id="Grupo_153370" data-name="Grupo 153370" transform="translate(10.553 183.476)">
          <path id="Trazado_206492" data-name="Trazado 206492" d="M1564.41,1361.093l1.42-.082c.484-.075.481.686.546.712a15.441,15.441,0,0,0,3.362,1.066s2.626-.341,2.908-1.137l-.371-4.874c-2.927-.246-5.982-.812-5.982-.812l-6.434-.9c-3.1-.323-3.658.8-3.658.8S1554.3,1358.69,1564.41,1361.093Z" transform="translate(-1556.059 -1355.004)" fill="#212020"/>
          <path id="Trazado_206493" data-name="Trazado 206493" d="M1568.315,1363.21a7.721,7.721,0,0,0-1.664-.541c-3.173-.556-6.278-.871-8.92-2.91a2.613,2.613,0,0,1-1.147-1.857,1.148,1.148,0,0,0-.384.364s-1.9,2.831,8.21,5.234l1.42-.082c.484-.075.481.686.546.712a15.443,15.443,0,0,0,3.362,1.066s2.626-.342,2.908-1.137l-.091-1.188A5.07,5.07,0,0,1,1568.315,1363.21Z" transform="translate(-1556.059 -1357.41)" fill="#141211"/>
        </g>
        <g id="Grupo_153371" data-name="Grupo 153371" transform="translate(53.535 182.268)">
          <path id="Trazado_206494" data-name="Trazado 206494" d="M1817.745,1353.976l1.42-.082c.484-.075.481.685.547.712a15.475,15.475,0,0,0,3.361,1.066s2.626-.341,2.907-1.138l-.369-4.873c-2.928-.246-5.983-.812-5.983-.812l-6.434-.9c-3.1-.323-3.658.8-3.658.8S1807.639,1351.573,1817.745,1353.976Z" transform="translate(-1809.394 -1347.886)" fill="#212020"/>
          <path id="Trazado_206495" data-name="Trazado 206495" d="M1821.65,1356.1a7.77,7.77,0,0,0-1.664-.542c-3.174-.556-6.278-.871-8.921-2.911a2.611,2.611,0,0,1-1.147-1.856,1.15,1.15,0,0,0-.383.364s-1.9,2.831,8.21,5.234l1.42-.082c.484-.075.481.685.547.712a15.5,15.5,0,0,0,3.361,1.066s2.626-.341,2.907-1.138l-.089-1.187A5.073,5.073,0,0,1,1821.65,1356.1Z" transform="translate(-1809.394 -1350.297)" fill="#141211"/>
        </g>
        <path id="Trazado_206496" data-name="Trazado 206496" d="M1839.641,1104.929c-1.054-1.257-4.512-47.467-4.512-47.467-.573-7.1,11.238-4.121,11.238-4.121,1.72,7.073,1.442,8.4,1.982,17.178.214,3.466-.338,32.173-.21,34.381C1848.138,1104.9,1842.656,1108.531,1839.641,1104.929Z" transform="translate(-1777.21 -920.53)" fill="#143a6a"/>
        <path id="Trazado_206497" data-name="Trazado 206497" d="M1788.117,763.567s-7.092,12.076-2.728,19.971,22.753-.7,21.623-9.839C1805.772,763.672,1796.69,759.331,1788.117,763.567Z" transform="translate(-1734.748 -679.094)" fill="#334c87"/>
        <path id="Trazado_206498" data-name="Trazado 206498" d="M1749.54,667.133c-1.152,4.1-5.9,19.74-5.9,19.74,13.022,12.28,29.827,2.544,30,.687.2-2.222-2.277-10.707-2.728-19.858C1770.905,667.7,1766.268,660.562,1749.54,667.133Z" transform="translate(-1701.258 -598.055)" fill="#f4a886"/>
        <path id="Trazado_206499" data-name="Trazado 206499" d="M1746.071,1086.462" transform="translate(-1703.28 -948.548)" fill="#1f2535"/>
        <path id="Trazado_206500" data-name="Trazado 206500" d="M1686.085,825.1c1.382-13.477,10.982-47.854,10.982-47.854s2.805-2.583,10.753-.565c7.968,2.024,8.827,12.393,8.993,11.757a315.924,315.924,0,0,1-21.553,40.931S1689.316,832.413,1686.085,825.1Z" transform="translate(-1653.471 -690.685)" fill="#334c87"/>
        <path id="Trazado_206501" data-name="Trazado 206501" d="M1615.412,1100.592c.233-1.624,12.218-49.909,12.218-49.909,2.821-5.954,10.922.316,10.922.316a51.317,51.317,0,0,1-2.934,17.872c-1.1,3.293-11.29,33.112-12,35.2C1623.619,1104.076,1617.6,1105.984,1615.412,1100.592Z" transform="translate(-1594.789 -916.708)" fill="#334c87"/>
        <g id="Grupo_153372" data-name="Grupo 153372" transform="translate(67.764 32.617)">
          <path id="Trazado_206502" data-name="Trazado 206502" d="M1905.03,483.816s1.288,21.687.466,30.443c0,0,0,3.979-7.007,5.973,0,0-2.549-24.146-4.624-34.925C1893.865,485.307,1898,477.313,1905.03,483.816Z" transform="translate(-1893.763 -478.648)" fill="#e79677"/>
          <path id="Trazado_206503" data-name="Trazado 206503" d="M1896.706,476.6a5.672,5.672,0,0,0,7.424-2.956,5.6,5.6,0,0,0-2.988-7.362,5.674,5.674,0,0,0-7.424,2.957A5.594,5.594,0,0,0,1896.706,476.6Z" transform="translate(-1893.264 -465.832)" fill="#e79677"/>
        </g>
        <path id="Trazado_206504" data-name="Trazado 206504" d="M1893.052,460.114a7.433,7.433,0,0,1,5.4,7.126l.829,21.376a20.051,20.051,0,0,1-11.745,2.82S1879.885,462.889,1893.052,460.114Z" transform="translate(-1818.906 -428.467)" fill="#ff7d00"/>
        <path id="Trazado_206505" data-name="Trazado 206505" d="M1751.451,1109.438" transform="translate(-1707.747 -967.625)" fill="#f4a886"/>
        <path id="Trazado_206506" data-name="Trazado 206506" d="M1813.4,380.128s-.045,7.634-.713,15.239l10.071-1.668a7.453,7.453,0,0,1,.6-6.578Z" transform="translate(-1758.594 -362.052)" fill="#f4a886"/>
        <path id="Trazado_206507" data-name="Trazado 206507" d="M1765.615,454.522c2.529,1.848,2.82,6.268,1.917,9.028-1.037,3.171-1.448,7.217-2.487,11.8-1.407,6.214-2.36,11-3.928,17.171-1.3,5.1-21.806.991-21.806.991L1731.96,468.4s-1.265-6.556,4.675-8.739a88.841,88.841,0,0,1,10.838-4.93,19.768,19.768,0,0,1,9.664-1.243A48.042,48.042,0,0,1,1765.615,454.522Z" transform="translate(-1691.469 -422.876)" fill="#f4a886"/>
        <path id="Trazado_206508" data-name="Trazado 206508" d="M1744.289,759.472a15.468,15.468,0,0,0,0,14.937c4.365,7.9,17.689,5.017,17.729-5.208C1762.056,759.1,1752.862,755.235,1744.289,759.472Z" transform="translate(-1700.189 -675.626)" fill="#334c87"/>
        <path id="Trazado_206509" data-name="Trazado 206509" d="M1757.136,454.006a48.045,48.045,0,0,1,8.478,1.036c2.632,1.924,2.585,5.7,2.077,8.559-.97,5.465-1.955,10.986-2.462,16.515-.225,2.45-.835,7.435-1.018,9.887-.178,2.379-.93,3.69-3.366,4.948-1.851.955-3.226.2-5.243.251a101.559,101.559,0,0,1-15.272-1.05c-.214-.025-8.145,5.324-5.536,1.388l-2.836-26.622s-1.265-6.556,4.675-8.739a47.769,47.769,0,0,1,8.759-4.167S1753.36,456.215,1757.136,454.006Z" transform="translate(-1691.469 -423.396)" fill="#ff7d00"/>
        <path id="Trazado_206510" data-name="Trazado 206510" d="M1789.546,321.129l-.43-1.658s-1.019-6.112-1.019-6.114a6.145,6.145,0,0,1,.191-2.517,6.2,6.2,0,0,0,.313-2.58c-.584-4.379,1.868-6.554,1.868-6.554,2.854-3.75,8.791-3.226,8.793-3.225,3.079.466,5.769,1.739,7.3,4.548a11.453,11.453,0,0,1,1.322,8.5,17.217,17.217,0,0,1-4.962,7.763c-1.479,1.414-2.991,1.588-4.927,2.3a20.063,20.063,0,0,1-5.36.79C1791.884,322.377,1789.793,322.082,1789.546,321.129Z" transform="translate(-1738.128 -294.236)" fill="#f4a37f"/>
        <path id="Trazado_206511" data-name="Trazado 206511" d="M1797.266,297.836l.946,3.8a1.846,1.846,0,0,1,1.365,2.31l-.343,3.135.853.327c-.071-1.255,1.671-1.273,1.671-1.273,1.273-.073,1.49,1.012,1.417,2.056-.189,2.713.8,7.021,3.073,7.779.9.3,2.591.611,2.875-.606.347-1.487,3.164-4.442,3.164-4.442,3.385-3.277,4.233-8.871,2.633-13.145a10.338,10.338,0,0,0-2.43-3.591,13.113,13.113,0,0,0-7.568-3.377s-3.859-.471-6.028,1.052a12.546,12.546,0,0,0-2.8,2.562S1795.271,296.162,1797.266,297.836Z" transform="translate(-1744.676 -287.828)" fill="#452008"/>
        <g id="Grupo_153377" data-name="Grupo 153377" transform="translate(55.043 17.973)">
          <g id="Grupo_153376" data-name="Grupo 153376">
            <g id="Grupo_153375" data-name="Grupo 153375">
              <g id="Grupo_153374" data-name="Grupo 153374">
                <g id="Grupo_153373" data-name="Grupo 153373">
                  <path id="Trazado_206512" data-name="Trazado 206512" d="M1818.941,383.79a1.565,1.565,0,0,0,.99.372,2.3,2.3,0,0,0,2.237-2.22,2.1,2.1,0,0,0-1.843-2.416,1.986,1.986,0,0,0-1.437.548,2.858,2.858,0,0,0-.578,2.3A2.152,2.152,0,0,0,1818.941,383.79Z" transform="translate(-1818.284 -379.524)" fill="#f4a37f"/>
                </g>
              </g>
            </g>
          </g>
        </g>
        <g id="Grupo_153380" data-name="Grupo 153380" transform="translate(56.188 18.72)">
          <g id="Grupo_153378" data-name="Grupo 153378" transform="translate(0.351)">
            <path id="Trazado_206513" data-name="Trazado 206513" d="M1827.113,384.343c.111-.668,1.43.061,1.2.427a2.05,2.05,0,0,1-.579.5,1,1,0,0,0-.465.708c-.008.04-.022.156.015.185.168.134.787-.487.923-.616a1.132,1.132,0,0,0,.233-1.066.679.679,0,0,0-.716-.552c-.306,0-.62,0-.626.381,0,.008.01.072.014.038Z" transform="translate(-1827.099 -383.924)" fill="#e98e72"/>
          </g>
          <g id="Grupo_153379" data-name="Grupo 153379" transform="translate(0 1.07)">
            <path id="Trazado_206514" data-name="Trazado 206514" d="M1825.789,390.308c-.133-.152-.275-.043-.427.053a.64.64,0,0,0-.269.381,1.585,1.585,0,0,0,.1,1.134.851.851,0,0,0,.707.435c.41.014.555-.34.593-.686.01-.092.033-.313-.055-.374s-.173.08-.243.141a.581.581,0,0,1-.356.108.745.745,0,0,1-.593-.311.4.4,0,0,1-.054-.109c-.014.227-.005.277.026.155a.561.561,0,0,1,.087-.155c.1-.152.272-.25.388-.392.054-.065.166-.3.1-.38Z" transform="translate(-1825.033 -390.232)" fill="#e98e72"/>
          </g>
        </g>
        <g id="Grupo_153381" data-name="Grupo 153381" transform="translate(0 79.256)">
          <path id="Trazado_206515" data-name="Trazado 206515" d="M1494.22,742.546c.521-.772.065-1.175,1.122-1.209,1.2-.04,2.282-.634,3.1-.611,1.423.04,6.8,1.293,3.19,4.369-.839.717-3.241,3.928-4.9,2.977-2.456-1.408-1.621-.888-2.87-3.944Z" transform="translate(-1493.857 -740.725)" fill="#f4a886"/>
        </g>
        <path id="Trazado_206516" data-name="Trazado 206516" d="M1734.51,504.74a6.306,6.306,0,1,1-8.712-1.9A6.306,6.306,0,0,1,1734.51,504.74Z" transform="translate(-1684.039 -463.116)" fill="#f4a886"/>
        <path id="Trazado_206517" data-name="Trazado 206517" d="M1738.146,644.565c-.818,8.6-1.348,29.655-1.348,29.655,3.052,8.143,32.16,1.271,32.329-.586.2-2.222-.394-17.87-.843-27.021A35.094,35.094,0,0,0,1738.146,644.565Z" transform="translate(-1695.58 -579.573)" fill="#ff7d00"/>
        <path id="Trazado_206518" data-name="Trazado 206518" d="M1708.964,486.183c-7.667,2.158-8.62,11.436-8.62,11.436l-3.462,15.238s8.711,6.908,14.02,4.964a113.114,113.114,0,0,0,5.683-22.967S1716.531,486.433,1708.964,486.183Z" transform="translate(-1662.437 -450.114)" fill="#ff7d00"/>
        <path id="Trazado_206519" data-name="Trazado 206519" d="M1780.373,283.509c.866.7,1.969.24,2.959.01,1.35,1.585-.266,3.167,1.779,3.935a22.693,22.693,0,0,0,3.885.716c.958.155,1.927-.067,2.612.649.742.775.039,3.188.916,3.649,1.532.809,2.735-3.385,4.688-3.053,1.666.283,1.961,2.927,1.378,4.227a2.048,2.048,0,0,1,.436-.3c.795-2.071,1.809-2.107,2.685-3.58,1.358-2.283,1.128-1.738,1.4-3.93,0-.02-.267-.96-.271-.972-.638-2.333-1.728-2.73-2.252-3.72a19.652,19.652,0,0,0-2.114-2.7,26.986,26.986,0,0,0-1.731-2.749,8.105,8.105,0,0,0-4.57-1.935c-1.687-.222-3.292.825-4.963.531-.686-.12-1.328-.742-2.016-.7-.839.048-1.42.88-2.145,1.205-1.348.607-3.472.361-4.623,1.31-1.273,1.049-1,2.565-.215,3.85.44.72,1.331,1.135,1.727,1.882C1780.048,282.043,1780.346,283.487,1780.373,283.509Z" transform="translate(-1729.415 -273.588)" fill="#452008"/>
      </g>
    </g>
  </g>
</svg>
