<svg xmlns="http://www.w3.org/2000/svg" xmlns:xlink="http://www.w3.org/1999/xlink" width="362.325" height="286.043" viewBox="0 0 362.325 286.043">
  <defs>
    <linearGradient id="linear-gradient" x1="0.571" y1="1.795" x2="0.493" y2="0.379" gradientUnits="objectBoundingBox">
      <stop offset="0" stop-color="#d1d7e0"/>
      <stop offset="1" stop-color="#ebebff"/>
    </linearGradient>
    <linearGradient id="linear-gradient-2" x1="0.5" y1="1.147" x2="0.5" y2="0.24" xlink:href="#linear-gradient"/>
    <linearGradient id="linear-gradient-3" x1="0.5" x2="0.5" y2="1" gradientUnits="objectBoundingBox">
      <stop offset="0" stop-color="#8eafdc"/>
      <stop offset="1" stop-color="#47586e"/>
    </linearGradient>
    <linearGradient id="linear-gradient-4" x1="0.5" y1="2.165" x2="0.5" y2="0.322" xlink:href="#linear-gradient"/>
    <linearGradient id="linear-gradient-5" x1="0.983" y1="0.961" x2="0.233" y2="0.108" gradientUnits="objectBoundingBox">
      <stop offset="0" stop-color="#3076a1"/>
      <stop offset="1" stop-color="#48c9b6"/>
    </linearGradient>
    <linearGradient id="linear-gradient-6" x1="0.079" y1="2.027" x2="0.485" y2="0.07" gradientUnits="objectBoundingBox">
      <stop offset="0" stop-color="#c9c4c1"/>
      <stop offset="1" stop-color="#fff6de"/>
    </linearGradient>
    <linearGradient id="linear-gradient-7" x1="-0.105" y1="0.5" x2="0.895" y2="0.5" xlink:href="#linear-gradient-6"/>
    <linearGradient id="linear-gradient-9" x1="0" y1="0.5" x2="1" y2="0.5" xlink:href="#linear-gradient"/>
  </defs>
  <g id="Grupo_153576" data-name="Grupo 153576" transform="translate(-498.839 -263.873)">
    <path id="Rectángulo_44920" data-name="Rectángulo 44920" d="M45.562,0h0A45.563,45.563,0,0,1,91.125,45.563v0A45.562,45.562,0,0,1,45.563,91.125h0A45.562,45.562,0,0,1,0,45.563v0A45.562,45.562,0,0,1,45.562,0Z" transform="translate(630.334 304.056)" opacity="0.95" fill="url(#linear-gradient)"/>
    <rect id="Rectángulo_44921" data-name="Rectángulo 44921" width="42.189" height="2.084" transform="translate(654.802 374.434)" fill="#96bfe6"/>
    <rect id="Rectángulo_44922" data-name="Rectángulo 44922" width="30.238" height="2.084" transform="translate(660.777 381.002)" fill="#96bfe6"/>
    <rect id="Rectángulo_44923" data-name="Rectángulo 44923" width="124.715" height="146.387" rx="62.357" transform="translate(736.45 335.66)" opacity="0.95" fill="url(#linear-gradient-2)"/>
    <g id="Grupo_153434" data-name="Grupo 153434" transform="translate(792.997 422.019)">
      <rect id="Rectángulo_44924" data-name="Rectángulo 44924" width="9.892" height="1.832" transform="translate(0 0)" fill="#4598e6"/>
    </g>
    <g id="Grupo_153435" data-name="Grupo 153435" transform="translate(755.443 438.806)">
      <rect id="Rectángulo_44925" data-name="Rectángulo 44925" width="57.557" height="3.547" transform="translate(0 0)" fill="#96bfe6"/>
      <rect id="Rectángulo_44926" data-name="Rectángulo 44926" width="46.544" height="3.547" transform="translate(0 17.028)" fill="#96bfe6"/>
      <rect id="Rectángulo_44927" data-name="Rectángulo 44927" width="27.286" height="3.547" transform="translate(0 8.514)" fill="#96bfe6"/>
    </g>
    <g id="Grupo_153436" data-name="Grupo 153436" transform="translate(756.434 350.258)">
      <path id="Trazado_206574" data-name="Trazado 206574" d="M2061.519,763.9v1.791h10.548v9.9h1.791V763.9Zm-71.624,11.69h1.791v-9.9h10.547V763.9H1989.9Zm82.172,51.078v9.9h-10.548v1.791h12.339V826.67Zm-80.381,0H1989.9v11.694h12.339v-1.791h-10.547Z" transform="translate(-1989.895 -763.902)" fill="#4598e6"/>
    </g>
    <g id="Grupo_153439" data-name="Grupo 153439" transform="translate(824.265 438.545)">
      <g id="Grupo_153437" data-name="Grupo 153437" transform="translate(0 0)">
        <path id="Trazado_206575" data-name="Trazado 206575" d="M2393.071,1296.036a10.548,10.548,0,1,1,10.548-10.548A10.56,10.56,0,0,1,2393.071,1296.036Zm0-19.055a8.507,8.507,0,1,0,8.507,8.507A8.516,8.516,0,0,0,2393.071,1276.981Z" transform="translate(-2382.523 -1274.94)" fill="#4598e6"/>
      </g>
      <g id="Grupo_153438" data-name="Grupo 153438" transform="translate(5.083 7.118)">
        <path id="Trazado_206576" data-name="Trazado 206576" d="M2416.74,1323.724l-4.792-4.792,1.444-1.443,3.348,3.349,4.694-4.694,1.444,1.443Z" transform="translate(-2411.947 -1316.143)" fill="#4598e6"/>
      </g>
    </g>
    <path id="Trazado_206577" data-name="Trazado 206577" d="M841.156,1834.867c0,4.424-76.63,8.011-171.159,8.011s-171.159-3.587-171.159-8.011,76.63-8.011,171.159-8.011S841.156,1830.442,841.156,1834.867Z" transform="translate(0 -1292.961)" fill="url(#linear-gradient-3)"/>
    <rect id="Rectángulo_44928" data-name="Rectángulo 44928" width="61.421" height="52.699" transform="translate(645.186 307.463)" opacity="0.95" fill="url(#linear-gradient-4)"/>
    <g id="Grupo_153444" data-name="Grupo 153444" transform="translate(644.969 299.839)">
      <path id="Trazado_206578" data-name="Trazado 206578" d="M1399.081,645.92a15.115,15.115,0,0,0-9.177-8.574c-.817-.271-2.276-.748-3.814-1.245-2.77-.9-5.8-1.869-5.8-1.869h-9.56s-3.31,1.109-6.828,2.342a0,0,0,0,1,0,0c-3.241,1.136-6.654,2.376-7.805,2.954-2.4,1.2-6.445,9.777-7.262,10.76a75.606,75.606,0,0,0-4.142,7.579h10.3c1.088-1.869,1.926-3.319,1.926-3.319s.651,1.429,1.441,3.319h32.993c.521-2.195.847-4.959.847-4.959s1.766,2.4,3.7,4.959h9.508A95.608,95.608,0,0,1,1399.081,645.92Z" transform="translate(-1344.693 -606.215)" fill="#385369"/>
      <g id="Grupo_153440" data-name="Grupo 153440" transform="translate(23.015 1.678)">
        <path id="Trazado_206579" data-name="Trazado 206579" d="M1486.858,481.841s7.475,1.178,6.336,12.872-7.735,10.736-8.176,10.724-6.623.213-7.1-14.065C1477.914,491.372,1477.7,480.814,1486.858,481.841Z" transform="translate(-1477.914 -481.771)" fill="#eea886"/>
      </g>
      <g id="Grupo_153441" data-name="Grupo 153441" transform="translate(37.978 10.932)">
        <path id="Trazado_206580" data-name="Trazado 206580" d="M1564.956,535.721s.818-.874,1.119.011-1.117,4.833-1.167,5.017c0,0-.149.343-.346.155A42.8,42.8,0,0,1,1564.956,535.721Z" transform="translate(-1564.521 -535.336)" fill="#eea886"/>
      </g>
      <g id="Grupo_153442" data-name="Grupo 153442" transform="translate(22.049 10.77)">
        <path id="Trazado_206581" data-name="Trazado 206581" d="M1473.49,534.8s-.8-.89-1.119-.011,1.011,4.852,1.071,5.039c0,0,.143.346.343.161A42.866,42.866,0,0,0,1473.49,534.8Z" transform="translate(-1472.322 -534.402)" fill="#eea886"/>
      </g>
      <g id="Grupo_153443" data-name="Grupo 153443" transform="translate(22.152 0)">
        <path id="Trazado_206582" data-name="Trazado 206582" d="M1489.175,485.169l-1.07,1.431a28.57,28.57,0,0,0-.141-3.628c-.172-.492-.435-1.994-.578-2.349s-6.419-2.113-11.962.513c0,0,.244,2.255-.287,2.456s-.271,3.673-.271,3.673l-.88-.993s-1.347-9-1.014-9.935,1.392-6.576,12.764-3.229c0,0,3.545-.751,4.257,1.7S1489.175,485.169,1489.175,485.169Z" transform="translate(-1472.918 -472.059)" fill="#434343"/>
      </g>
      <path id="Trazado_206583" data-name="Trazado 206583" d="M1479.367,598.66c0-.01-.959-.471-.959-.471-.465-1.041-.12-5.435-.12-5.435s-9.52-2.423-9.248-.57-.82,6.157-.82,6.157l-4.884,2.425s5.2,13.972,11.184,12.17,8.239-12.673,8.239-12.673Z" transform="translate(-1442.839 -570.854)" fill="#eea886"/>
      <path id="Trazado_206584" data-name="Trazado 206584" d="M1497.146,606.425a5.644,5.644,0,0,0,4.2,1.98c1.751,0,3.008-.491,4.753-2.192a5.011,5.011,0,0,1-4.741,3.531S1498.464,610.111,1497.146,606.425Z" transform="translate(-1470.808 -583.036)" fill="#a77860"/>
    </g>
    <g id="Grupo_153501" data-name="Grupo 153501" transform="translate(614.159 368.937)">
      <g id="Grupo_153449" data-name="Grupo 153449" transform="translate(15.54 0)">
        <g id="Grupo_153448" data-name="Grupo 153448">
          <g id="Grupo_153447" data-name="Grupo 153447">
            <g id="Grupo_153446" data-name="Grupo 153446">
              <g id="Grupo_153445" data-name="Grupo 153445">
                <path id="Trazado_206585" data-name="Trazado 206585" d="M1270.428,873.224s5.493,2.687,4.135,10-1.959,8.294-.44,11.15,3.312,15.039,1.944,17.348-16.923-10.148-19.08-20.6,1.367-15.1,2.613-16.831S1265.579,870.763,1270.428,873.224Z" transform="translate(-1256.303 -872.018)" fill="#0e2d3d"/>
              </g>
            </g>
          </g>
        </g>
      </g>
      <g id="Grupo_153450" data-name="Grupo 153450" transform="translate(26.304 155.642)">
        <path id="Trazado_206586" data-name="Trazado 206586" d="M1319.9,1788.124h1.245v-5.871a16.673,16.673,0,0,1,3.974,3.878c1.532,2.25,3.639,2.059,6.846,1.915s3.064-1.436,2.777-3.256-3.543-2.394-4.6-2.681-3.444-4.407-4.213-5.41a13.76,13.76,0,0,1-1.6-2.681s-.6-2.442-3.567,0-2.107,7.134-1.771,7.565S1319.9,1788.124,1319.9,1788.124Z" transform="translate(-1318.611 -1772.933)" fill="#163342"/>
      </g>
      <g id="Grupo_153451" data-name="Grupo 153451" transform="translate(27.779 156.082)">
        <path id="Trazado_206587" data-name="Trazado 206587" d="M1333.233,1784.216c1.1.718,3.974,0,3.974,0-.814-1.053-5.817-8.091-5.817-8.091-3.04-1.772-4.242.666-4.242.666C1328.388,1777.17,1332.132,1783.5,1333.233,1784.216Z" transform="translate(-1327.148 -1775.48)" fill="#eea886"/>
      </g>
      <g id="Grupo_153455" data-name="Grupo 153455" transform="translate(65.718 53.207)">
        <g id="Grupo_153454" data-name="Grupo 153454">
          <g id="Grupo_153453" data-name="Grupo 153453">
            <g id="Grupo_153452" data-name="Grupo 153452">
              <path id="Trazado_206588" data-name="Trazado 206588" d="M1546.911,1183.3s1.993.382,2.674-.555a6.508,6.508,0,0,1,2.31-1.6c.545-.253,1.927-1.651,2.253-.968s-2.168,2.415-2.619,2.883,2.445.674,2.945,1.129-.115,5.232-2.086,4.859-3.831-2.07-4.191-2.067a12.325,12.325,0,0,1-1.445-.214Z" transform="translate(-1546.752 -1179.997)" fill="#eea886"/>
            </g>
          </g>
        </g>
      </g>
      <g id="Grupo_153459" data-name="Grupo 153459" transform="translate(71.448 57.209)">
        <g id="Grupo_153458" data-name="Grupo 153458">
          <g id="Grupo_153457" data-name="Grupo 153457">
            <g id="Grupo_153456" data-name="Grupo 153456">
              <path id="Trazado_206589" data-name="Trazado 206589" d="M1581.472,1203.166s5.959,1.539,6.27,1.974.209.753-.354.632-5.8-1.321-5.8-1.321,6.746,3.007,7.079,3.308c.195.176.033.8-.275.766s-7.164-2.635-7.164-2.635,6.294,2.819,6.5,3.154a.475.475,0,0,1-.6.654c-.481-.177-6.471-2.463-6.471-2.463s4.452,2.34,4.457,2.724c0,.235-.111.784-1.241.144s-3.954-1.869-3.954-1.869Z" transform="translate(-1579.92 -1203.166)" fill="#eea886"/>
            </g>
          </g>
        </g>
      </g>
      <g id="Grupo_153460" data-name="Grupo 153460" transform="translate(11.111 160.418)">
        <path id="Trazado_206590" data-name="Trazado 206590" d="M1231.022,1811.394h.766v-4.309a9.372,9.372,0,0,1,1.985,3.46c.623,2.059,2.851,2.669,6.25,2.574s3.447-1.438,3.16-3.448-3.16-3.064-3.16-3.064a53.767,53.767,0,0,1-4.5-5.913,4.483,4.483,0,0,0-3.674.754c-1.616,1.3-1.113,4.25-1.065,5.016S1231.022,1811.394,1231.022,1811.394Z" transform="translate(-1230.671 -1800.578)" fill="#163342"/>
      </g>
      <g id="Grupo_153461" data-name="Grupo 153461" transform="translate(6.837 66.884)">
        <path id="Trazado_206591" data-name="Trazado 206591" d="M1212.9,1260.867a30.059,30.059,0,0,0-5.149,11.514c-1.1,6.248.649,27.219.6,30.307s-2.921,10.773-2.346,16.59,2.842,34.77,2.842,34.77l6.207-1.232s-.359-29.517,0-31.958,1.08-11.342,1.223-12.348,9.118-27.406,9.118-31.911S1222.669,1253.517,1212.9,1260.867Z" transform="translate(-1205.931 -1259.166)" fill="#1d3b54"/>
      </g>
      <g id="Grupo_153462" data-name="Grupo 153462" transform="translate(20.228 69.324)">
        <path id="Trazado_206592" data-name="Trazado 206592" d="M1297.37,1274.611s6.655,25.4,7.445,28.918,1.934,6.421,1.934,7.916a52.314,52.314,0,0,1-1.288,9.033l-8.451,40.418h-8.048s4.484-24.248,4.605-28.99,3.779-11.5,3.061-13.511-11.562-25.208-11.562-25.208S1276.855,1267.238,1297.37,1274.611Z" transform="translate(-1283.443 -1273.293)" fill="#1d3b54"/>
      </g>
      <g id="Grupo_153463" data-name="Grupo 153463" transform="translate(12.288 160.534)">
        <path id="Trazado_206593" data-name="Trazado 206593" d="M1245.656,1807.159l-4.5-5.913-3.674.754a16.662,16.662,0,0,0,2.775,4.638C1242.371,1809,1245.656,1807.159,1245.656,1807.159Z" transform="translate(-1237.481 -1801.246)" fill="#eea886"/>
      </g>
      <g id="Grupo_153465" data-name="Grupo 153465" transform="translate(28.991 27.48)">
        <g id="Grupo_153464" data-name="Grupo 153464">
          <path id="Trazado_206594" data-name="Trazado 206594" d="M1336.579,1031.084a8.3,8.3,0,0,1,4.817,2.48,31.778,31.778,0,0,1,4.562,6.948c.543,1.185,8.154,12.164,8.549,12.411s4.221,1.525,6.756,2.378c3.912,1.317,11.754,4.166,11.754,4.166l-1.557,4.931s-14.746-4.825-18.439-5.735c-4.516-1.113-14.911-14.449-14.911-14.449S1330.359,1035.132,1336.579,1031.084Z" transform="translate(-1334.162 -1031.084)" fill="#285173"/>
        </g>
      </g>
      <g id="Grupo_153467" data-name="Grupo 153467" transform="translate(7.569 25.369)">
        <g id="Grupo_153466" data-name="Grupo 153466">
          <path id="Trazado_206595" data-name="Trazado 206595" d="M1229.219,1019.051a37.167,37.167,0,0,0,4.788,1.925c1.234.247,6.022,6.466,6.861,8.737s0,5.677-1.728,9.675-.1,5.331-.888,9.329-.536,18.956-.388,21.177-23.1,5.588-27.7,1.541c0,0,3.108-13.481,6.787-17.328.8-.832.712-6.377.169-7.759s-6.664-11.7-6.664-11.7-.45-10.464,2.221-12.538c2.32-1.8,8.643-2.444,9.778-2.839A19.4,19.4,0,0,1,1229.219,1019.051Z" transform="translate(-1210.169 -1018.865)" fill="#ff7d00"/>
        </g>
      </g>
      <g id="Grupo_153469" data-name="Grupo 153469" transform="translate(19.862 16.59)">
        <g id="Grupo_153468" data-name="Grupo 153468">
          <path id="Trazado_206596" data-name="Trazado 206596" d="M1289.775,972.911s-.106.979-.229,2.3c-.047.523-.1,1.1-.146,1.693a39.993,39.993,0,0,0-.186,4.649s-3.694,3.7-7.893-4.319a11.022,11.022,0,0,0,.436-7.811C1280.428,964.919,1289.775,972.911,1289.775,972.911Z" transform="translate(-1281.321 -968.047)" fill="#eea886"/>
        </g>
      </g>
      <g id="Grupo_153470" data-name="Grupo 153470" transform="translate(36.901 37.858)">
        <path id="Trazado_206597" data-name="Trazado 206597" d="M1381.706,1100.663s.889-5.913-.056-9.509a22.965,22.965,0,0,1-1.7,7.483Z" transform="translate(-1379.954 -1091.154)" fill="#183c59"/>
      </g>
      <g id="Grupo_153471" data-name="Grupo 153471" transform="translate(17.024 25.685)">
        <path id="Trazado_206598" data-name="Trazado 206598" d="M1264.894,1021.356s2.54,7.5,9.515,6.952,3.306-6.336,3.306-6.336a15.389,15.389,0,0,0-2.228-1.091c-.489-.094-7.712-.186-7.712-.186Z" transform="translate(-1264.894 -1020.695)" fill="#eea886"/>
      </g>
      <g id="Grupo_153472" data-name="Grupo 153472" transform="translate(29.846 26.962)">
        <path id="Trazado_206599" data-name="Trazado 206599" d="M1339.112,1028.084a68.738,68.738,0,0,1,3.653,20.405c0,10.3.294,27.077,1.57,32.375s4.906,21.683,4.906,21.683l2.845-1.472s-6.842-26.15-7.359-28.036.393-21.807.883-23.474,2.577-9.093,2.253-11.152c-.409-2.6-2.839-6.439-6.763-9.743Z" transform="translate(-1339.112 -1028.084)" fill="#285173"/>
      </g>
      <g id="Grupo_153473" data-name="Grupo 153473" transform="translate(2.985 26.03)">
        <path id="Trazado_206600" data-name="Trazado 206600" d="M1199.051,1022.691a105.054,105.054,0,0,1,3.422,16.582c1.151,9.311-3.532,52.533-6.672,62.345l-12.166-1.962s2.619-30.551,6.174-36.111,4.686-10.479.849-22.083,1.682-17.352,1.682-17.352S1197.984,1022.812,1199.051,1022.691Z" transform="translate(-1183.634 -1022.691)" fill="#285173"/>
      </g>
      <g id="Grupo_153474" data-name="Grupo 153474" transform="translate(0.377 47.025)">
        <path id="Trazado_206601" data-name="Trazado 206601" d="M1199.687,1154.052l-14.752,25.55-16.4-9.468,14.111-25.92Z" transform="translate(-1168.537 -1144.214)" fill="#616161"/>
      </g>
      <g id="Grupo_153475" data-name="Grupo 153475" transform="translate(2.084 49.004)">
        <path id="Trazado_206602" data-name="Trazado 206602" d="M1206.081,1164.409l-13.1,22.692-14.564-8.409,12.532-23.02Z" transform="translate(-1178.415 -1155.672)" fill="#e0cec7"/>
      </g>
      <g id="Grupo_153476" data-name="Grupo 153476" transform="translate(18.798 50.71)">
        <path id="Trazado_206603" data-name="Trazado 206603" d="M1281.281,1170.541l.92-1.593-5.888-3.4-1.15,1.46Z" transform="translate(-1275.163 -1165.549)" fill="#616161"/>
      </g>
      <g id="Grupo_153482" data-name="Grupo 153482" transform="translate(17.449 65.889)">
        <g id="Grupo_153481" data-name="Grupo 153481">
          <g id="Grupo_153480" data-name="Grupo 153480">
            <g id="Grupo_153479" data-name="Grupo 153479">
              <g id="Grupo_153478" data-name="Grupo 153478">
                <g id="Grupo_153477" data-name="Grupo 153477">
                  <path id="Trazado_206604" data-name="Trazado 206604" d="M1274.119,1261.35a3.054,3.054,0,0,1-.965-.139s-.515-.3-.894-.489a2.74,2.74,0,0,0-.3-.134,5.6,5.6,0,0,1-1.645-.7,37.453,37.453,0,0,1-2.962-3.126l1.091-1.659.8-1.7s4.85.313,5.506.664a1.861,1.861,0,0,1,.182.11,7.112,7.112,0,0,1,1.026,1.05c.093.08.968.936.937,1.3a1.194,1.194,0,0,1-.581,1.006,2.856,2.856,0,0,1-.612,1.447,1.776,1.776,0,0,1-.855,1.314S1274.658,1261.217,1274.119,1261.35Z" transform="translate(-1267.355 -1253.408)" fill="#eea886"/>
                </g>
              </g>
            </g>
          </g>
        </g>
      </g>
      <g id="Grupo_153484" data-name="Grupo 153484" transform="translate(0 27.33)">
        <g id="Grupo_153483" data-name="Grupo 153483">
          <path id="Trazado_206605" data-name="Trazado 206605" d="M1180.572,1030.365s-4.479-1.283-7.046,3.653a22.526,22.526,0,0,0-2.9,9.453c-.324,2.276-1.786,8.49-1.934,9.132s-3.46,8.294-1.941,10.968,17.031,10.6,16.933,11.194,2.685-5.983,2.685-5.983-6.274-3.5-7.3-4.573c-1.669-1.749-5.19-3.633-4.466-5.8.85-2.549,3.4-11.147,3.994-12.406S1184.348,1031.969,1180.572,1030.365Z" transform="translate(-1166.355 -1030.215)" fill="#285173"/>
        </g>
      </g>
      <g id="Grupo_153489" data-name="Grupo 153489" transform="translate(18.348 1.783)">
        <g id="Grupo_153488" data-name="Grupo 153488">
          <g id="Grupo_153487" data-name="Grupo 153487">
            <g id="Grupo_153486" data-name="Grupo 153486">
              <g id="Grupo_153485" data-name="Grupo 153485">
                <path id="Trazado_206606" data-name="Trazado 206606" d="M1283.082,882.575s7.975,2.506,3.646,16.269-15.221-1.595-14.082-9.98S1283.082,882.575,1283.082,882.575Z" transform="translate(-1272.563 -882.342)" fill="#eea987"/>
              </g>
            </g>
          </g>
        </g>
      </g>
      <g id="Grupo_153494" data-name="Grupo 153494" transform="translate(17.72 0.678)">
        <g id="Grupo_153493" data-name="Grupo 153493">
          <g id="Grupo_153492" data-name="Grupo 153492">
            <g id="Grupo_153491" data-name="Grupo 153491">
              <g id="Grupo_153490" data-name="Grupo 153490">
                <path id="Trazado_206607" data-name="Trazado 206607" d="M1284.531,885.312a17.991,17.991,0,0,1-10.594,4.375s-2.549,2.988-2.745,4.161c0,0-5.917-10.086,1.357-16.132S1287.2,882.821,1284.531,885.312Z" transform="translate(-1268.922 -875.943)" fill="#0e2d3d"/>
              </g>
            </g>
          </g>
        </g>
      </g>
      <g id="Grupo_153499" data-name="Grupo 153499" transform="translate(20.046 11.942)">
        <g id="Grupo_153498" data-name="Grupo 153498">
          <g id="Grupo_153497" data-name="Grupo 153497">
            <g id="Grupo_153496" data-name="Grupo 153496">
              <g id="Grupo_153495" data-name="Grupo 153495">
                <path id="Trazado_206608" data-name="Trazado 206608" d="M1285.156,943.9c-.051-1-.668-3.281-2.157-2.643s.091,5.28,1.078,4.995C1284.078,946.247,1285.278,946.265,1285.156,943.9Z" transform="translate(-1282.389 -941.141)" fill="#eea987"/>
              </g>
            </g>
          </g>
        </g>
      </g>
      <g id="Grupo_153500" data-name="Grupo 153500" transform="translate(22.068 20.002)">
        <path id="Trazado_206609" data-name="Trazado 206609" d="M1300.114,991.548c-.047.523-.1,1.1-.146,1.693,0,0-3.52-.21-5.873-5.446C1294.248,988.024,1296.827,991.812,1300.114,991.548Z" transform="translate(-1294.095 -987.795)" fill="#a77860"/>
      </g>
    </g>
    <g id="Grupo_153507" data-name="Grupo 153507" transform="translate(519.329 411.549)">
      <g id="Grupo_153502" data-name="Grupo 153502" transform="translate(35.101 24.185)">
        <path id="Trazado_206610" data-name="Trazado 206610" d="M821.109,1341.483c5.114-3.6,11.1-28.658,11.456-43.586.183-7.647,2.443-10.832,4.437-13.643,1.906-2.687,3.552-5.007,2.594-10.334-1.833-10.182,2.986-14.577,3.035-14.62l-.558-.636c-.214.188-5.232,4.721-3.309,15.405.9,4.978-.581,7.06-2.451,9.7-1.962,2.765-4.4,6.207-4.593,14.112-.383,16.02-6.5,39.683-11.1,42.914Z" transform="translate(-820.622 -1258.664)" fill="#f9c852"/>
      </g>
      <g id="Grupo_153503" data-name="Grupo 153503" transform="translate(0 58.659)">
        <path id="Trazado_206611" data-name="Trazado 206611" d="M642.314,1499.25c-.483-1.094-.982-2.225-1.548-3.419-2.921-6.167-5.509-7.182-9.8-8.864-1.048-.411-2.235-.877-3.538-1.463-6.141-2.76-4.952-6.827-3.9-10.416.147-.5.293-1,.42-1.5.54-2.111-.5-3.169-2.068-4.772a17.918,17.918,0,0,1-3.74-5.015c-1.226-2.563-.6-3.937.139-4.638,1.558-1.477,5.15-1.2,8.542.647a12.347,12.347,0,0,1,2.84,2.445c2.162,2.264,4.853,5.082,11.659,5.114,3.881.018,6.006.554,7.107,1.791,1.249,1.4,1.014,3.505.688,6.414-.113,1.006-.241,2.147-.318,3.379a19.709,19.709,0,0,0,3.919,12.7c2.592,3.087,5.786,9.492,4.408,13.434a4.718,4.718,0,0,1-3.841,3.091,10.933,10.933,0,0,1-2.162.234C646.359,1508.418,644.617,1504.47,642.314,1499.25Zm-15.9-38.7c-3.029-1.653-6.277-1.987-7.555-.775-.971.92-.513,2.5.042,3.659a16.955,16.955,0,0,0,3.582,4.788c1.644,1.677,2.942,3,2.284,5.574-.129.5-.278,1.014-.428,1.525-1.045,3.574-2.031,6.949,3.438,9.407,1.285.577,2.462,1.039,3.5,1.447,4.328,1.7,7.187,2.82,10.252,9.29.57,1.2,1.072,2.34,1.557,3.44,2.646,6,4.242,9.615,10.026,8.446a3.925,3.925,0,0,0,3.21-2.541c1.215-3.474-1.692-9.556-4.258-12.612a20.2,20.2,0,0,1-4.115-13.3c.079-1.252.208-2.4.322-3.419.3-2.691.519-4.636-.479-5.758-.913-1.026-2.911-1.491-6.479-1.507-7.165-.034-9.994-3-12.267-5.375a11.577,11.577,0,0,0-2.633-2.287Z" transform="translate(-617.446 -1458.216)" fill="#f9c852"/>
      </g>
      <g id="Grupo_153504" data-name="Grupo 153504" transform="translate(6.56 65.413)">
        <path id="Trazado_206612" data-name="Trazado 206612" d="M684.6,1545.641l.844-.044c-.042-.793-1.107-19.5-8.617-24.971-8.239-6.005-10.836-12.459-12.073-16.791-1.458-5.1-8.878-6.469-9.193-6.524l-.147.833c.072.013,7.214,1.329,8.526,5.924,1.272,4.452,3.939,11.083,12.388,17.242C683.517,1526.548,684.59,1545.45,684.6,1545.641Z" transform="translate(-655.415 -1497.31)" fill="#f9c852"/>
      </g>
      <g id="Grupo_153505" data-name="Grupo 153505" transform="translate(27.794 0)">
        <path id="Trazado_206613" data-name="Trazado 206613" d="M784.848,1236.624c-1.767-.88-1.7-4.418-1.606-9.774.123-6.767.29-16.036-3.252-24.561-3.763-9.056-.407-11.7,2.839-14.263,3.635-2.867,7.069-5.574.479-17.8-3.027-5.613-3.988-9.41-3.024-11.949.952-2.509,3.624-3.487,6.453-4.522,4.883-1.787,10.417-3.812,9.7-14.147-.219-3.168.153-5.116,1.172-6.131,1.107-1.1,2.738-.983,4.627-.845,2.854.209,6.086.445,8.9-3.228.293-.918,2.985-9.112,6.205-10.515a2.28,2.28,0,0,1,1.97.011h0c2.223,1.063,3.513,2.324,3.944,3.855.75,2.663-1.2,5.666-3.46,9.144-3.549,5.465-7.572,11.659-3.4,19.031,5.517,9.746,2.6,13.157-1.43,17.878a31.778,31.778,0,0,0-6.68,10.77c-1.408,4.021.994,7.855,3.316,11.563,2.914,4.651,5.926,9.46-.417,13.634-10.488,6.9-20.845,29.423-20.948,29.65l-.043.094-.081.064c-1.932,1.514-3.339,2.237-4.4,2.237A1.922,1.922,0,0,1,784.848,1236.624Zm25.876-32.554c5.652-3.719,3.109-7.778.165-12.478-2.316-3.7-4.941-7.886-3.4-12.291a32.494,32.494,0,0,1,6.835-11.039c3.951-4.625,6.562-7.681,1.337-16.912-4.425-7.818-.072-14.521,3.427-19.908,2.147-3.305,4-6.16,3.355-8.454-.361-1.283-1.5-2.37-3.495-3.322h0a1.449,1.449,0,0,0-1.267,0c-2.988,1.3-5.731,9.976-5.759,10.063l-.022.07-.044.059c-3.1,4.1-6.75,3.834-9.682,3.619-1.751-.128-3.134-.229-3.968.6s-1.124,2.608-.925,5.474c.759,10.969-5.348,13.2-10.255,15-2.757,1.009-5.138,1.88-5.953,4.028-.87,2.292.076,5.867,2.978,11.248,6.928,12.848,3.05,15.906-.7,18.862-3.136,2.474-6.1,4.81-2.582,13.274,3.611,8.688,3.441,18.059,3.317,24.9-.085,4.671-.151,8.36,1.138,9,.754.376,2.2-.259,4.289-1.886C790.353,1232.158,800.273,1210.946,810.724,1204.07Z" transform="translate(-778.327 -1118.674)" fill="#f9c852"/>
      </g>
      <path id="Trazado_206614" data-name="Trazado 206614" d="M690.98,1232.148c5.338-1.83,4.229,8.457,6.484,16.069s25.091,3.32,15.505,22.381,12.122,6.375,5.638,23.007-.564,34.422-7.612,29.9-3.959-25.47-11.289-27.959-8.526-5.392-1.269-12.157-19.017-13.483-12.533-27.145S684.813,1234.262,690.98,1232.148Z" transform="translate(-673.219 -1212.367)" fill="url(#linear-gradient-5)"/>
      <g id="Grupo_153506" data-name="Grupo 153506" transform="translate(21.259 43.345)">
        <path id="Trazado_206615" data-name="Trazado 206615" d="M754.56,1436.27c.671-2.847,6.4-27.906,1.055-30.935-4.714-2.67-4.6-13.053-3.863-22.859.651-8.68-10.5-12.736-10.971-12.905l-.283.8c.11.039,11.013,4.011,10.411,12.045-.755,10.07-.836,20.755,4.289,23.658,4.061,2.3.322,22.439-1.461,30Z" transform="translate(-740.498 -1369.572)" fill="#fff"/>
      </g>
      <path id="Trazado_206616" data-name="Trazado 206616" d="M783.932,1704l-7.621,28.912h-17.03L751.66,1704Z" transform="translate(-728.473 -1602.876)" fill="url(#linear-gradient-6)"/>
      <path id="Trazado_206617" data-name="Trazado 206617" d="M783.932,1704s-16.777,3.15-16.777,28.912h-7.875L751.66,1704Z" transform="translate(-728.473 -1602.875)" fill="url(#linear-gradient-7)"/>
    </g>
    <path id="Rectángulo_44929" data-name="Rectángulo 44929" d="M30.148,0H36.8A30.148,30.148,0,0,1,66.95,30.148v0A30.148,30.148,0,0,1,36.8,60.3H30.149A30.149,30.149,0,0,1,0,30.148v0A30.148,30.148,0,0,1,30.148,0Z" transform="translate(730.41 270.311)" opacity="0.95" fill="url(#linear-gradient-2)"/>
    <g id="Grupo_153508" data-name="Grupo 153508" transform="translate(760.976 319.203)">
      <rect id="Rectángulo_44930" data-name="Rectángulo 44930" width="5.31" height="0.983" transform="translate(0)" fill="#4598e6"/>
    </g>
    <g id="Grupo_153524" data-name="Grupo 153524" transform="translate(750.883 263.873)">
      <g id="Grupo_153511" data-name="Grupo 153511" transform="translate(5.825)">
        <g id="Grupo_153510" data-name="Grupo 153510">
          <g id="Grupo_153509" data-name="Grupo 153509">
            <path id="Trazado_206618" data-name="Trazado 206618" d="M2003.2,265.03s4.278,2.349,2.92,8.126-1.875,6.539-.771,8.873,2.074,12.116.9,13.905-13.111-8.728-14.437-17.143,1.659-11.988,2.718-13.322S1999.428,262.885,2003.2,265.03Z" transform="translate(-1991.477 -263.873)" fill="#344052"/>
          </g>
        </g>
      </g>
      <g id="Grupo_153512" data-name="Grupo 153512" transform="translate(13.265 21.533)">
        <path id="Trazado_206619" data-name="Trazado 206619" d="M2046.862,415.88h-4.58c-.222-2.259-.426-3.832-.384-4.065.067-.384-4.558-12.516-4.99-13.52s-2.13-3.692-2.352-6.226,3.081-3.557,3.081-3.557c4.46.8,5.971,6.969,5.971,6.969s1.873,12.511,2.82,16.031A22.413,22.413,0,0,1,2046.862,415.88Z" transform="translate(-2034.545 -388.512)" fill="#eea886"/>
      </g>
      <path id="Trazado_206620" data-name="Trazado 206620" d="M2044.927,393.232l-6.821,2.876s-6.27-15.558-1.014-13.821C2042.331,384.019,2044.688,387.275,2044.927,393.232Z" transform="translate(-2021.65 -361.718)" fill="#eb4747"/>
      <g id="Grupo_153513" data-name="Grupo 153513" transform="translate(2.149 19.54)">
        <path id="Trazado_206621" data-name="Trazado 206621" d="M1989.808,396.275c-.2,1.545-1.015,7.017-.833,8.494.031.244.132.8.283,1.567h-16.446c.437-1.561.835-2.943,1.076-3.748.8-2.649.034-3.358-.37-5.477-.157-.83-.709-2.405-1.312-4.185-.2-.594-.409-1.214-.608-1.836a37.9,37.9,0,0,1-1.267-5.87c-.992-6.327,3.874-6.935,3.874-6.935,1.808-.334,4.967-1.309,4.967-1.309l4.948,1.029a5.364,5.364,0,0,1,1.158.684s0,0,0,0a9.029,9.029,0,0,1,1.113.976,29.908,29.908,0,0,1,2.691,3.891c.328.536.659,1.085.97,1.626,1.006,1.741,1.721,3.145,1.7,4.729C1991.734,391.471,1990.007,394.731,1989.808,396.275Z" transform="translate(-1970.198 -376.975)" fill="#e6f1ff"/>
      </g>
      <path id="Trazado_206622" data-name="Trazado 206622" d="M2014.135,378.2s3.1,5.3,1.947,5.693-7.228-.942-9.6-5.947A9.187,9.187,0,0,1,2014.135,378.2Z" transform="translate(-1998.063 -357.633)" fill="#eea886"/>
      <path id="Trazado_206623" data-name="Trazado 206623" d="M2018.679,348.094s-2.753,1.165-5.246-2.67c0,0,.67-4.355-.747-6.875s6.191,3.02,6.191,3.02-.123.519-.251,1.286c-.065.392-.132.849-.184,1.333-.043.4-.076.828-.09,1.25A6.83,6.83,0,0,0,2018.679,348.094Z" transform="translate(-2003.052 -325.105)" fill="#eea886"/>
      <path id="Trazado_206624" data-name="Trazado 206624" d="M1983.548,431.289c-.567,2.915-4.634,6.568-4.634,6.568-.2-.6-.408-1.214-.607-1.835A26.613,26.613,0,0,0,1983.548,431.289Z" transform="translate(-1974.757 -402.366)" fill="#393d63"/>
      <g id="Grupo_153514" data-name="Grupo 153514" transform="translate(0.61 21.723)">
        <path id="Trazado_206625" data-name="Trazado 206625" d="M1968.449,399.135c-.258,1.063-1.443,11.824-1.314,12.191.075.21.65,2.7,1.225,5.466h-5.309a13.043,13.043,0,0,1-.788-4.1c.339-3.63-.891-15.2-.891-15.2s-1.1-7,4.707-7.874c0,0,3.431.452,3.638,2.985S1968.707,398.075,1968.449,399.135Z" transform="translate(-1961.288 -389.615)" fill="#eea886"/>
      </g>
      <path id="Trazado_206626" data-name="Trazado 206626" d="M1958.024,396.742l7.208,1.684s5.718-11.1.568-13.129C1960.372,383.16,1956.722,390.686,1958.024,396.742Z" transform="translate(-1957.759 -364.012)" fill="#e6f1ff"/>
      <g id="Grupo_153517" data-name="Grupo 153517" transform="translate(8.201 1.483)">
        <g id="Grupo_153516" data-name="Grupo 153516">
          <g id="Grupo_153515" data-name="Grupo 153515">
            <path id="Trazado_206627" data-name="Trazado 206627" d="M2013.914,272.749s6.265,2.3,2.294,13.11-12.076-1.845-10.852-8.489S2013.914,272.749,2013.914,272.749Z" transform="translate(-2005.232 -272.459)" fill="#eea987"/>
          </g>
        </g>
      </g>
      <g id="Grupo_153520" data-name="Grupo 153520" transform="translate(7.972 0.585)">
        <g id="Grupo_153519" data-name="Grupo 153519">
          <g id="Grupo_153518" data-name="Grupo 153518">
            <path id="Trazado_206628" data-name="Trazado 206628" d="M2016.069,275.02a14.359,14.359,0,0,1-8.612,3.089s-1.24,3.023-1.441,3.951c0,0-5.242-9,.785-13.547S2018.294,273.134,2016.069,275.02Z" transform="translate(-2003.902 -267.262)" fill="#344052"/>
          </g>
        </g>
      </g>
      <g id="Grupo_153523" data-name="Grupo 153523" transform="translate(10.08 9.822)">
        <g id="Grupo_153522" data-name="Grupo 153522">
          <g id="Grupo_153521" data-name="Grupo 153521">
            <path id="Trazado_206629" data-name="Trazado 206629" d="M2018.269,322.987c0-.8-.409-2.641-1.62-2.189s-.126,4.213.672,4.023C2017.321,324.821,2018.277,324.881,2018.269,322.987Z" transform="translate(-2016.107 -320.727)" fill="#eea987"/>
          </g>
        </g>
      </g>
      <path id="Trazado_206630" data-name="Trazado 206630" d="M2026.656,362.715a6.663,6.663,0,0,1-4.117-3.714c2.394,3.093,4.2,2.649,4.2,2.649C2026.7,362.054,2026.693,362.306,2026.656,362.715Z" transform="translate(-2011.348 -342.567)" fill="#a77860"/>
    </g>
    <g id="Grupo_153525" data-name="Grupo 153525" transform="translate(741.348 281.222)">
      <path id="Trazado_206631" data-name="Trazado 206631" d="M1941.02,364.3v.962h5.662v5.314h.962V364.3Zm-38.45,6.276h.962v-5.314h5.662V364.3h-6.624Zm44.112,27.42v5.316h-5.662v.962h6.624v-6.277Zm-43.15,0h-.962v6.277h6.624v-.962h-5.662Z" transform="translate(-1902.57 -364.297)" fill="#4598e6"/>
    </g>
    <g id="Grupo_153526" data-name="Grupo 153526" transform="translate(672.35 364.253)">
      <rect id="Rectángulo_44931" data-name="Rectángulo 44931" width="7.092" height="1.314" transform="translate(0)" fill="#4598e6"/>
    </g>
    <g id="Grupo_153527" data-name="Grupo 153527" transform="translate(645.794 313.522)">
      <path id="Trazado_206632" data-name="Trazado 206632" d="M1400.827,551.257v1.284h7.563v7.1h1.284v-8.382Zm-51.357,8.382h1.285v-7.1h7.563v-1.284h-8.847Zm58.92,36.624v7.1h-7.563v1.285h8.847v-8.385Zm-57.635,0h-1.285v8.385h8.847v-1.285h-7.563Z" transform="translate(-1349.47 -551.257)" fill="#4598e6"/>
    </g>
    <g id="Grupo_153543" data-name="Grupo 153543" transform="translate(756.551 325.667)">
      <g id="Grupo_153528" data-name="Grupo 153528" transform="translate(1.942 40.474)">
        <path id="Trazado_206633" data-name="Trazado 206633" d="M2077.648,901.9h-6c-.11-.24-.2-.449-.271-.616-1.78-4.2-10.954-13.841-10.954-13.841v.021a.017.017,0,0,0-.005.01v.01c-.005.016-.01.026-.016.041a.791.791,0,0,1-.021.079.187.187,0,0,0-.01.052c-.005.016-.01.026-.016.042-.375,1.4-2.224,8.4-3.148,14.2h-40.6c-.094-.538-.2-1.05-.329-1.525a32.907,32.907,0,0,1-.783-4.2c-.005-.068-.015-.13-.021-.2-.031-.245-.058-.491-.078-.731a38.5,38.5,0,0,1-.068-6.72c-.115.245-.934,3.253-2.01,6.965-.59,2.036-1.258,4.286-1.922,6.406h-9.586l12.03-34.705c.266-.209,3.388-1.718,5.665-2.8,2.324-1.107,5.127-2.731,7.659-4.119,1.295-.71,2.517-1.352,3.577-1.838l.162-.073v-.005c1.749-.8,2.913-1.326,2.913-1.326h.005c.042-.005.319-.031.757-.073,2.443-.235,10.025-.945,12.562-1.091.209-.016.386-.021.522-.026a2.083,2.083,0,0,1,.256,0,32,32,0,0,1,3.937,1.347c.078.026.157.057.235.089l.292.11c.177.068.36.136.543.209.365.146.747.292,1.128.444.131.052.266.1.4.157,4.109,1.629,8.819,3.65,9.936,4.454.741.527,3.044,4.866,5.712,10.233A299.321,299.321,0,0,1,2077.648,901.9Z" transform="translate(-2001.815 -855.835)" fill="#decbc4"/>
      </g>
      <g id="Grupo_153529" data-name="Grupo 153529" transform="translate(33.784 26.844)">
        <path id="Trazado_206634" data-name="Trazado 206634" d="M2200.33,789.4c-.108,5.457-10.674,8.442-10.674,8.442s-4.419-5.541-3.364-6.071c.415-.209.583-1.036.635-1.963a19.209,19.209,0,0,0-.061-2.475c-.031-.386-.061-.634-.061-.634s1.509-1.593,3.43-3.49c3.356-3.318,7.969-7.569,7.977-5.878a1.519,1.519,0,0,1-.039.32C2197.363,781.455,2200.33,789.4,2200.33,789.4Z" transform="translate(-2186.13 -776.945)" fill="#eea886"/>
      </g>
      <g id="Grupo_153530" data-name="Grupo 153530" transform="translate(33.472 31.302)">
        <path id="Trazado_206635" data-name="Trazado 206635" d="M2194.767,802.748h0c-.021.032-.469.7-1.234,1.664-1.622,2.04-4.671,5.392-8.1,6.738a19.213,19.213,0,0,0-.06-2.475,5.51,5.51,0,0,1-1.049-.126,32.548,32.548,0,0,1,2.3-3.364l2.121-.635Z" transform="translate(-2184.324 -802.748)" fill="#a77860"/>
      </g>
      <g id="Grupo_153531" data-name="Grupo 153531" transform="translate(26.347 8.963)">
        <path id="Trazado_206636" data-name="Trazado 206636" d="M2162.677,691.781c-.914,1.988-1.782,3.429-2.029,4h0a7.067,7.067,0,0,1-1.234,1.664c-1.741,1.876-4.978,4.35-8.16,4.263a5.507,5.507,0,0,1-1.049-.126,4.992,4.992,0,0,1-3.636-2.512c-6.592-12.905-1.819-23.458-1.819-23.458s18.023-5.1,20.843.329C2167.572,679.747,2164.824,687.109,2162.677,691.781Z" transform="translate(-2143.08 -673.442)" fill="#eea886"/>
      </g>
      <g id="Grupo_153532" data-name="Grupo 153532" transform="translate(25.816)">
        <path id="Trazado_206637" data-name="Trazado 206637" d="M2142.2,632.693s-1.674-.093-2.088-3.266c-.409-3.135.418-4,.418-4s7.441-3.115,10.113-3.52,9.242-.794,10.782.967c0,0,3.742-.87,4.761,5.342,1.617,9.855-5.511,19.424-5.511,19.424s.061-6.438-1.359-7.291-2.646,1.176-2.646,1.176l-2.9.52s4.411-9.525-.88-9.878S2145.233,633.246,2142.2,632.693Z" transform="translate(-2140.003 -621.559)" fill="#e8734d"/>
      </g>
      <g id="Grupo_153533" data-name="Grupo 153533" transform="translate(42.475 14.678)">
        <path id="Trazado_206638" data-name="Trazado 206638" d="M2236.525,709.24c.276-2.836,5.405-3.919,5.062-.946s-2.87,5.829-4.036,5.729S2236.314,711.4,2236.525,709.24Z" transform="translate(-2236.431 -706.523)" fill="#eea886"/>
      </g>
      <g id="Grupo_153534" data-name="Grupo 153534" transform="translate(38.036 41.825)">
        <path id="Trazado_206639" data-name="Trazado 206639" d="M2245.293,879.616c-1.671-5.352-3.117-9.586-3.759-10.046-1.123-.8-10.02-3.253-14.243-4.908-.136-.052-.271-.1-.4-.157-.381-.151-.762-.3-1.128-.444-.183-.073-.365-.141-.543-.209l-.292-.11c-.078-.031-.156-.063-.235-.089-.005.005-.01.016-.021.021a69.382,69.382,0,0,0-4.662,5.963c-4.365,6.2-10.051,16.253-9.179,25.532.281,2.976.626,7.252,1.206,12.051.042.381.088.762.141,1.149h19.694c.24-5.023.668-11.638,1.316-14.2.005-.015.01-.026.016-.042a.186.186,0,0,1,.01-.052c.005-.026.016-.052.021-.079s.01-.026.015-.042v-.01a.017.017,0,0,1,.006-.01s4.767,7.451,5.012,14.437h12.4C2250.055,901.879,2248.159,888.8,2245.293,879.616Z" transform="translate(-2210.738 -863.655)" fill="#3c4145"/>
      </g>
      <g id="Grupo_153535" data-name="Grupo 153535" transform="translate(0 43.072)">
        <path id="Trazado_206640" data-name="Trazado 206640" d="M2021.53,870.941s-1.488,4.95-3.409,17.308v.005c-.068.413-.13.836-.2,1.269-.005.047-.016.1-.021.152-.047.282-.089.574-.13.867-.005.036-.01.068-.016.1-.031.193-.063.391-.089.6-.073.486-.146.987-.219,1.493-.721,5.044-1.681,13.058-2.658,21.61H2007a36.3,36.3,0,0,1-.788-6.02.752.752,0,0,0-.037.1c-.621,1.723-1.305,3.6-2,5.419l-.188.5h-13.418l13.366-34.966c.266-.209,3.707-2.062,5.984-3.143,2.376-1.133,5.378-2.527,8.041-3.754,1.274-.59,2.47-1.138,3.483-1.6Z" transform="translate(-1990.573 -870.878)" fill="#3c4145"/>
      </g>
      <g id="Grupo_153536" data-name="Grupo 153536" transform="translate(38.037 41.825)">
        <path id="Trazado_206641" data-name="Trazado 206641" d="M2221.764,877.194l-5.143,2.9,2.2,2.24L2214,908.369h-1.817c-.668-5.263-1.049-9.988-1.347-13.2-1.342-14.348,12.975-30.528,13.862-31.515.689.261,1.43.548,2.2.851Z" transform="translate(-2210.743 -863.655)" fill="#51565c"/>
      </g>
      <g id="Grupo_153537" data-name="Grupo 153537" transform="translate(22.462 42.999)">
        <path id="Trazado_206642" data-name="Trazado 206642" d="M2129.162,870.455s-1.922,6.271-4.156,21.929c-.72,5.038-1.686,13.058-2.663,21.61h-.757l-1-24.6,2.449-2.653-2.177-2.72,4.658-11.894c1.274-.59,2.469-1.138,3.482-1.6Z" transform="translate(-2120.589 -870.455)" fill="#51565c"/>
      </g>
      <g id="Grupo_153538" data-name="Grupo 153538" transform="translate(37.311 39.298)">
        <path id="Trazado_206643" data-name="Trazado 206643" d="M2221.479,851.617l-4.262-2.589s-.119,2.337-10.674,8.442l3,8.442Z" transform="translate(-2206.544 -849.028)" fill="#f5e2d9"/>
      </g>
      <g id="Grupo_153539" data-name="Grupo 153539" transform="translate(31.035 40.475)">
        <path id="Trazado_206644" data-name="Trazado 206644" d="M2173.684,855.844s.166,2.522,2.808,7.265l-5.85,7.626-.427-12.368Z" transform="translate(-2170.216 -855.844)" fill="#f5e2d9"/>
      </g>
      <g id="Grupo_153540" data-name="Grupo 153540" transform="translate(33.768 47.74)">
        <path id="Trazado_206645" data-name="Trazado 206645" d="M2189.594,897.9s1.133,4.535.726,5.8c0,0-2.493.907-4.285-.227A19.913,19.913,0,0,1,2189.594,897.9Z" transform="translate(-2186.035 -897.895)" fill="#d44040"/>
      </g>
      <g id="Grupo_153541" data-name="Grupo 153541" transform="translate(29.909 52.272)">
        <path id="Trazado_206646" data-name="Trazado 206646" d="M2169.741,935.016a114,114,0,0,0-.752,23.381h-5c-.068-.987-.13-2.015-.193-3.091-.93-16.128,4.772-30.539,4.772-30.539l2.543-.637S2170.295,931.257,2169.741,935.016Z" transform="translate(-2163.697 -924.13)" fill="#d44040"/>
      </g>
      <g id="Grupo_153542" data-name="Grupo 153542" transform="translate(13.434 63.593)">
        <path id="Trazado_206647" data-name="Trazado 206647" d="M2070.7,999.272c-.19,3.87-.163,7.307-.163,7.307v0c0,.019,0,.123-.013.3-.008-.066-.016-.13-.024-.194-.619,1.722-1.305,3.595-2,5.418a58.009,58.009,0,0,1-.155-5.9c.277-10.85,3.69-16.54,3.69-16.54C2071.257,991.547,2070.881,995.6,2070.7,999.272Z" transform="translate(-2068.331 -989.656)" fill="#2d3133"/>
      </g>
    </g>
    <g id="Grupo_153566" data-name="Grupo 153566" transform="translate(693.655 368.937)">
      <g id="Grupo_153544" data-name="Grupo 153544" transform="translate(0 20.126)">
        <path id="Trazado_206648" data-name="Trazado 206648" d="M1658.5,1011.706l-15.965,8.776-16.032-25.23,19.391-6.736Z" transform="translate(-1626.504 -988.517)" fill="#292c47"/>
      </g>
      <g id="Grupo_153545" data-name="Grupo 153545" transform="translate(1.062 20.871)">
        <path id="Trazado_206649" data-name="Trazado 206649" d="M1662.573,1014.517l-14.93,8.206-14.993-23.594,18.134-6.3Z" transform="translate(-1632.65 -992.83)" fill="#fff"/>
      </g>
      <g id="Grupo_153546" data-name="Grupo 153546" transform="translate(17.523 32.902)">
        <path id="Trazado_206650" data-name="Trazado 206650" d="M1746.861,1067.711s-2.779-1.329-4-2.024-4.357-1.648-4.61-1.875-9.3-.784-9.849-1.258-1.083,1.109,1.263,1.623,5.608,1.769,5.786,2.686-2.409,1.133-2.67,1.889.074.585.444.747,3.077-1.337,4.267-.911,3.009-.164,3.921.148,5.347,1.8,5.347,1.8Z" transform="translate(-1727.931 -1062.468)" fill="#eea886"/>
      </g>
      <g id="Grupo_153547" data-name="Grupo 153547" transform="translate(3.03 32.928)">
        <path id="Trazado_206651" data-name="Trazado 206651" d="M1656.265,1078.615s-2.335-2.1-3.464-2.98-3.25-3.464-3.562-3.615-4.361-8.459-5.021-8.792.624-1.452,2.021.558,3.851,4.6,4.784,4.407.13-2.711.74-3.252.58-.158.877.128-.062,3.42.8,4.376,1.017,2.9,1.667,3.637,3.783,4.336,3.783,4.336Z" transform="translate(-1644.04 -1062.617)" fill="#eea886"/>
      </g>
      <g id="Grupo_153548" data-name="Grupo 153548" transform="translate(65.528 160.772)">
        <path id="Trazado_206652" data-name="Trazado 206652" d="M2005.8,1803.078s.505,3.5.568,4.031,5.617-.31,5.617-.31l.45-4.172S2006.5,1802.583,2005.8,1803.078Z" transform="translate(-2005.805 -1802.625)" fill="#424773"/>
      </g>
      <g id="Grupo_153549" data-name="Grupo 153549" transform="translate(56.399 164.573)">
        <path id="Trazado_206653" data-name="Trazado 206653" d="M1962.6,1824.862a14.991,14.991,0,0,1-3.462,3.033c-1.7.921-4.377,1.285-5.383,2.238-.726.688-2.646,3.649,4.423,3.589s10.478.418,11.235-.717-1.1-8.38-1.1-8.38S1966.64,1825.228,1962.6,1824.862Z" transform="translate(-1952.959 -1824.625)" fill="#292c47"/>
      </g>
      <g id="Grupo_153550" data-name="Grupo 153550" transform="translate(25.731 160.772)">
        <path id="Trazado_206654" data-name="Trazado 206654" d="M1775.445,1803.078s.505,3.5.568,4.031,5.617-.31,5.617-.31l.45-4.172S1776.139,1802.583,1775.445,1803.078Z" transform="translate(-1775.445 -1802.625)" fill="#424773"/>
      </g>
      <g id="Grupo_153551" data-name="Grupo 153551" transform="translate(13.336 164.573)">
        <path id="Trazado_206655" data-name="Trazado 206655" d="M1716.6,1824.862a15,15,0,0,1-3.462,3.033c-1.7.921-7.966,1.677-8.972,2.629-.726.688-1.935,3.457,8.012,3.2,7.066-.184,10.477.418,11.234-.717s-1.1-8.38-1.1-8.38S1720.743,1825.269,1716.6,1824.862Z" transform="translate(-1703.7 -1824.625)" fill="#292c47"/>
      </g>
      <g id="Grupo_153552" data-name="Grupo 153552" transform="translate(48.185 71.161)">
        <path id="Trazado_206656" data-name="Trazado 206656" d="M1918.161,1283.926s5.219,8.292,4.829,15.787,1.892,15.678,2.676,23.508c.874,8.729,4.451,29.393,4.581,34.062s-.555,19.579-.555,19.579l-7.16.164s-6.013-36.126-7.571-39.813-9.281-29.966-9.54-32.914S1918.161,1283.926,1918.161,1283.926Z" transform="translate(-1905.418 -1283.926)" fill="#292c47"/>
      </g>
      <g id="Grupo_153553" data-name="Grupo 153553" transform="translate(24.764 69.733)">
        <path id="Trazado_206657" data-name="Trazado 206657" d="M1778.537,1278.21s-3.933,20.543-4.452,25.131-.865,22.2-1.125,25.067-1.731,37.519-3.115,41.779H1779s7.026-25.19,7.026-37.109,5.428-25.911,8.932-33.775,11.525-8.05,13.679-22.64C1808.637,1276.662,1781.453,1273.582,1778.537,1278.21Z" transform="translate(-1769.845 -1275.658)" fill="#292c47"/>
      </g>
      <g id="Grupo_153554" data-name="Grupo 153554" transform="translate(39.744 0.807)">
        <path id="Trazado_206658" data-name="Trazado 206658" d="M1869.032,877.332s-7-2.616-10.235,2.716-2.919,16.008.612,17.32,8.835.626,10.643-2.71,3.44-8.16,3.361-11.384S1870.872,878.262,1869.032,877.332Z" transform="translate(-1856.556 -876.69)" fill="#eea886"/>
      </g>
      <g id="Grupo_153555" data-name="Grupo 153555" transform="translate(43.15 15.081)">
        <path id="Trazado_206659" data-name="Trazado 206659" d="M1876.478,965.959a6.058,6.058,0,0,1-.19,2.823c-.482.932,9.075.956,9.075.956a62.959,62.959,0,0,1,2.247-9.349C1889.081,956.107,1876.478,965.959,1876.478,965.959Z" transform="translate(-1876.27 -959.311)" fill="#eea886"/>
      </g>
      <g id="Grupo_153556" data-name="Grupo 153556" transform="translate(40.045)">
        <path id="Trazado_206660" data-name="Trazado 206660" d="M1872.741,888.178s-.659,1.088-3.352.666-5.978-4-7.1-4.4-1.135-1.053-1.135-1.053l-.7,1.028-1.194.075s1.089-3.2-.554-4.511,1.705-10.372,10.34-7.354c0,0,6.632,1.828,6.391,5.6S1874.226,886.3,1872.741,888.178Z" transform="translate(-1858.297 -872.019)" fill="#3a3f47"/>
      </g>
      <g id="Grupo_153557" data-name="Grupo 153557" transform="translate(42.6 21.821)">
        <path id="Trazado_206661" data-name="Trazado 206661" d="M1873.088,1000.948s.03-1.78.837-1.951,8.906-.949,9.9-.56v2.073S1881.914,1001.685,1873.088,1000.948Z" transform="translate(-1873.088 -998.329)" fill="#e2d2ca"/>
      </g>
      <g id="Grupo_153558" data-name="Grupo 153558" transform="translate(42.867 8.626)">
        <path id="Trazado_206662" data-name="Trazado 206662" d="M1874.846,923.326c.151-.633,1.76-2.441,2.376-.5s-.931,4.54-1.793,4.317S1874.464,924.93,1874.846,923.326Z" transform="translate(-1874.635 -921.951)" fill="#eea886"/>
      </g>
      <g id="Grupo_153559" data-name="Grupo 153559" transform="translate(10.422 45.471)">
        <path id="Trazado_206663" data-name="Trazado 206663" d="M1686.865,1135.222a.024.024,0,0,1,.013,0C1686.823,1135.245,1686.815,1135.247,1686.865,1135.222Z" transform="translate(-1686.832 -1135.22)" fill="#323657"/>
      </g>
      <g id="Grupo_153560" data-name="Grupo 153560" transform="translate(10.469 24.002)">
        <path id="Trazado_206664" data-name="Trazado 206664" d="M1743.452,1077.866a74.093,74.093,0,0,1-11.622,2.072c-7.326.807-25.63-.292-25.745-1.157s3.937-32.227,3.707-33.843-.354-7.37-.354-7.37a40.547,40.547,0,0,1-3.636,11.528c-.7,1.269-3.051,5.245-4.184,4.34-5.484-4.378-13.975-20.877-14.513-21.015.453-.2,4.024-1.841,4.525-2.008.439-.146,4.395,4.042,6.792,6.638,1.069,1.158,1.828,2,1.828,2,.692-1.557,3.213-11.368,4-14.763,1.767-7.657,1.5-7.976,1.5-7.976,5.359-1.621,13.494-4.921,13.494-4.921l10.734-.437s9.851,2.168,13.731,3.921c.368.166.37,8.789,1.38,11.05l-3.217,6.786s-1.858,13.442-2.243,19.421C1739.443,1054.875,1743.452,1077.866,1743.452,1077.866Z" transform="translate(-1687.105 -1010.954)" fill="#ff7d00"/>
      </g>
      <g id="Grupo_153561" data-name="Grupo 153561" transform="translate(56.941 27.923)">
        <path id="Trazado_206665" data-name="Trazado 206665" d="M1968.047,1055.894a4.239,4.239,0,0,1-2.38,2,3.075,3.075,0,0,1-1.718.173l-.421-.078h0l-7.356-1.364s-1.61-18.536,10.049-22.977C1966.529,1033.751,1970.621,1047.594,1968.047,1055.894Z" transform="translate(-1956.097 -1033.65)" fill="#ff7d00"/>
      </g>
      <g id="Grupo_153562" data-name="Grupo 153562" transform="translate(64.372 42.793)">
        <path id="Trazado_206666" data-name="Trazado 206666" d="M2001.25,1129.1h0a3.075,3.075,0,0,1-1.718.173l-.421-.078h0l.725-9.472Z" transform="translate(-1999.111 -1119.72)" fill="#ab9546"/>
      </g>
      <g id="Grupo_153563" data-name="Grupo 153563" transform="translate(21.785 50.101)">
        <path id="Trazado_206667" data-name="Trazado 206667" d="M1754.432,1164.021l-.9,3.807a30.09,30.09,0,0,1-.929-5.806C1753.673,1163.18,1754.432,1164.021,1754.432,1164.021Z" transform="translate(-1752.603 -1162.023)" fill="#ab9546"/>
      </g>
      <g id="Grupo_153564" data-name="Grupo 153564" transform="translate(54.215 2.058)">
        <path id="Trazado_206668" data-name="Trazado 206668" d="M1940.32,883.953s9.181-1.15.156,14.185Z" transform="translate(-1940.32 -883.934)" fill="#3a3f47"/>
      </g>
      <g id="Grupo_153565" data-name="Grupo 153565" transform="translate(6.447 21.369)">
        <path id="Trazado_206669" data-name="Trazado 206669" d="M1664.755,999.848l-.933-1.6,7.35-2.536.933,1.595Z" transform="translate(-1663.822 -995.709)" fill="#292c47"/>
      </g>
    </g>
    <g id="Grupo_153567" data-name="Grupo 153567" transform="translate(820.103 320.149)" opacity="0.95">
      <path id="Trazado_206670" data-name="Trazado 206670" d="M2473.095,606.146h5.207l-1.594-3.306H2471.5Z" transform="translate(-2451.967 -600.556)" fill="url(#linear-gradient-9)"/>
      <path id="Trazado_206671" data-name="Trazado 206671" d="M2458.99,606.146h1.24l-1.594-3.306H2457.4Z" transform="translate(-2440.299 -600.556)" fill="url(#linear-gradient-9)"/>
      <path id="Trazado_206672" data-name="Trazado 206672" d="M2359.131,591.271h21.086l-.7-1.653h-21.086Z" transform="translate(-2358.432 -589.618)" fill="url(#linear-gradient-9)"/>
    </g>
    <g id="Grupo_153574" data-name="Grupo 153574" transform="translate(699.113 266.401)">
      <g id="Grupo_153568" data-name="Grupo 153568" transform="translate(0 0)">
        <path id="Rectángulo_44932" data-name="Rectángulo 44932" d="M1.346,0H7.589A1.346,1.346,0,0,1,8.935,1.346v0A1.346,1.346,0,0,1,7.589,2.693H1.346A1.346,1.346,0,0,1,0,1.346v0A1.346,1.346,0,0,1,1.346,0Z" fill="url(#linear-gradient-9)"/>
      </g>
      <g id="Grupo_153569" data-name="Grupo 153569" transform="translate(0 6.457)">
        <rect id="Rectángulo_44933" data-name="Rectángulo 44933" width="8.935" height="2.693" rx="1.346" fill="url(#linear-gradient-9)"/>
      </g>
      <g id="Grupo_153570" data-name="Grupo 153570" transform="translate(0 12.914)">
        <path id="Rectángulo_44934" data-name="Rectángulo 44934" d="M1.347,0H7.589A1.346,1.346,0,0,1,8.935,1.346v0A1.346,1.346,0,0,1,7.589,2.693H1.346A1.346,1.346,0,0,1,0,1.347v0A1.347,1.347,0,0,1,1.347,0Z" fill="url(#linear-gradient-9)"/>
      </g>
      <g id="Grupo_153571" data-name="Grupo 153571" transform="translate(12.625 0)">
        <path id="Rectángulo_44935" data-name="Rectángulo 44935" d="M1.271,0h0A1.271,1.271,0,0,1,2.542,1.271v.151A1.271,1.271,0,0,1,1.272,2.693h0A1.271,1.271,0,0,1,0,1.422V1.271A1.271,1.271,0,0,1,1.271,0Z" fill="url(#linear-gradient-9)"/>
      </g>
      <g id="Grupo_153572" data-name="Grupo 153572" transform="translate(12.625 6.457)">
        <path id="Rectángulo_44936" data-name="Rectángulo 44936" d="M1.271,0h0A1.271,1.271,0,0,1,2.542,1.271v.15A1.271,1.271,0,0,1,1.271,2.693h0A1.271,1.271,0,0,1,0,1.422V1.271A1.271,1.271,0,0,1,1.271,0Z" fill="url(#linear-gradient-9)"/>
      </g>
      <g id="Grupo_153573" data-name="Grupo 153573" transform="translate(12.625 12.914)">
        <path id="Rectángulo_44937" data-name="Rectángulo 44937" d="M1.271,0h0A1.271,1.271,0,0,1,2.542,1.271v.151A1.271,1.271,0,0,1,1.271,2.693h0A1.27,1.27,0,0,1,0,1.422V1.271A1.271,1.271,0,0,1,1.271,0Z" fill="url(#linear-gradient-9)"/>
      </g>
    </g>
    <g id="Grupo_153575" data-name="Grupo 153575" transform="translate(671.965 408.582)">
      <path id="Trazado_206673" data-name="Trazado 206673" d="M1529.131,1107.434h9.347l-2.861-5.934h-9.347Z" transform="translate(-1521.897 -1101.5)" fill="url(#linear-gradient-9)"/>
      <path id="Trazado_206674" data-name="Trazado 206674" d="M1503.814,1107.434h2.227l-2.861-5.934h-2.227Z" transform="translate(-1500.953 -1101.5)" fill="url(#linear-gradient-9)"/>
    </g>
  </g>
</svg>
