<svg xmlns="http://www.w3.org/2000/svg" width="400" height="42" viewBox="0 0 400 42">
  <g id="Grupo_156459" data-name="Grupo 156459" transform="translate(-1020 -13366)">
    <g id="Grupo_156456" data-name="Grupo 156456">
      <rect id="Rectángulo_43618" data-name="Rectángulo 43618" width="400" height="42" transform="translate(1020 13366)" fill="#f9c852"/>
      <path id="Trazado_220922" data-name="Trazado 220922" d="M97.712,6.781l3.652,10.313L105,6.781h3.848V21h-2.939V17.113L106.2,10.4,102.36,21h-2.012L96.521,10.414l.293,6.7V21h-2.93V6.781ZM114.2,21h-2.832V10.434H114.2Zm-3-13.3a1.39,1.39,0,0,1,.425-1.045,1.831,1.831,0,0,1,2.31,0,1.382,1.382,0,0,1,.43,1.045,1.386,1.386,0,0,1-.435,1.055,1.81,1.81,0,0,1-2.295,0A1.386,1.386,0,0,1,111.2,7.7Zm9.346,5.889,1.777-3.154h3.018l-3.008,5.176L125.466,21h-3.027l-1.885-3.32L118.679,21h-3.037l3.135-5.391-3-5.176h3.027Zm9.531-5.752v2.6h1.807V12.5h-1.807v5.273a1.259,1.259,0,0,0,.225.84,1.128,1.128,0,0,0,.859.254,4.5,4.5,0,0,0,.83-.068v2.139a5.81,5.81,0,0,1-1.709.254q-2.969,0-3.027-3V12.5H125.71v-2.07h1.543v-2.6Zm2.646,7.783a6.267,6.267,0,0,1,.605-2.8,4.432,4.432,0,0,1,1.743-1.9,5.086,5.086,0,0,1,2.642-.674,4.812,4.812,0,0,1,3.491,1.309,5.252,5.252,0,0,1,1.509,3.555l.02.723a5.523,5.523,0,0,1-1.357,3.9,5.261,5.261,0,0,1-7.29,0,5.62,5.62,0,0,1-1.362-3.984Zm2.822.2a3.95,3.95,0,0,0,.566,2.3,2.035,2.035,0,0,0,3.223.01,4.322,4.322,0,0,0,.576-2.518,3.91,3.91,0,0,0-.576-2.289,1.873,1.873,0,0,0-1.621-.812,1.842,1.842,0,0,0-1.6.807A4.395,4.395,0,0,0,135.544,15.819Z" transform="translate(1102 13376)" fill="#12263f"/>
      <g id="Light_Button_Secondary_Icon" data-name="Light/Button/Secondary/Icon" transform="translate(1378 13373)">
        <g id="Rectangle" fill="none" stroke="#12263f" stroke-miterlimit="10" stroke-width="1">
          <rect width="28" height="28" rx="14" stroke="none"/>
          <rect x="0.5" y="0.5" width="27" height="27" rx="13.5" fill="none"/>
        </g>
      </g>
    </g>
    <path id="Path" d="M0,6.026l.936.861L4.591,3.443.936,0,0,.861,2.755,3.443Z" transform="translate(1388.331 13389.069) rotate(-90)" fill="#12263f"/>
  </g>
</svg>
