<svg xmlns="http://www.w3.org/2000/svg" width="400" height="42" viewBox="0 0 400 42">
  <g id="Grupo_156458" data-name="Grupo 156458" transform="translate(-599 -13366)">
    <g id="Grupo_156455" data-name="Grupo 156455">
      <rect id="Rectángulo_43617" data-name="Rectángulo 43617" width="400" height="42" transform="translate(599 13366)" fill="#f9c852"/>
      <path id="Trazado_220921" data-name="Trazado 220921" d="M93.425,14.838H87.8v3.809h6.6V21H84.87V6.781h9.512V9.154H87.8v3.389h5.625Zm6.533-1.25,1.777-3.154h3.018l-3.008,5.176L104.88,21h-3.027l-1.885-3.32L98.093,21H95.056l3.135-5.391-3-5.176H98.22Zm9.531-5.752v2.6H111.3V12.5h-1.807v5.273a1.259,1.259,0,0,0,.225.84,1.128,1.128,0,0,0,.859.254,4.5,4.5,0,0,0,.83-.068v2.139a5.81,5.81,0,0,1-1.709.254q-2.969,0-3.027-3V12.5h-1.543v-2.07h1.543v-2.6ZM117.731,21.2a5.187,5.187,0,0,1-3.784-1.426,5.068,5.068,0,0,1-1.46-3.8V15.7a6.383,6.383,0,0,1,.615-2.847,4.515,4.515,0,0,1,1.743-1.934,4.893,4.893,0,0,1,2.573-.679,4.385,4.385,0,0,1,3.413,1.367,5.555,5.555,0,0,1,1.245,3.877v1.152h-6.729a2.622,2.622,0,0,0,.825,1.66,2.5,2.5,0,0,0,1.743.625,3.046,3.046,0,0,0,2.549-1.182l1.387,1.553a4.237,4.237,0,0,1-1.719,1.4A5.639,5.639,0,0,1,117.731,21.2Zm-.322-8.682a1.764,1.764,0,0,0-1.362.569,2.946,2.946,0,0,0-.669,1.628H119.3v-.226a2.1,2.1,0,0,0-.508-1.457A1.819,1.819,0,0,0,117.409,12.514Zm12.207.566A7.667,7.667,0,0,0,128.6,13a2.067,2.067,0,0,0-2.1,1.084V21h-2.822V10.434h2.666l.078,1.26a2.615,2.615,0,0,1,2.354-1.455,2.957,2.957,0,0,1,.879.127Zm3.955-2.646.088,1.221a3.689,3.689,0,0,1,3.037-1.416,3.066,3.066,0,0,1,2.5.986,4.6,4.6,0,0,1,.84,2.949V21h-2.822V14.242a1.831,1.831,0,0,0-.391-1.3,1.749,1.749,0,0,0-1.3-.405,1.942,1.942,0,0,0-1.787,1.016V21h-2.822V10.434Zm8.164,5.186a6.267,6.267,0,0,1,.605-2.8,4.432,4.432,0,0,1,1.743-1.9,5.086,5.086,0,0,1,2.642-.674,4.812,4.812,0,0,1,3.491,1.309,5.252,5.252,0,0,1,1.509,3.555l.02.723a5.523,5.523,0,0,1-1.357,3.9,5.261,5.261,0,0,1-7.29,0,5.62,5.62,0,0,1-1.362-3.984Zm2.822.2a3.95,3.95,0,0,0,.566,2.3,2.035,2.035,0,0,0,3.223.01,4.322,4.322,0,0,0,.576-2.518,3.91,3.91,0,0,0-.576-2.289,1.873,1.873,0,0,0-1.621-.812,1.842,1.842,0,0,0-1.6.807A4.395,4.395,0,0,0,144.558,15.819Z" transform="translate(682 13376)" fill="#12263f"/>
      <g id="Light_Button_Secondary_Icon" data-name="Light/Button/Secondary/Icon" transform="translate(957 13373)">
        <g id="Rectangle" fill="none" stroke="#12263f" stroke-miterlimit="10" stroke-width="1">
          <rect width="28" height="28" rx="14" stroke="none"/>
          <rect x="0.5" y="0.5" width="27" height="27" rx="13.5" fill="none"/>
        </g>
      </g>
    </g>
    <path id="Path" d="M0,6.026l.936.861L4.591,3.443.936,0,0,.861,2.755,3.443Z" transform="translate(967.331 13389.069) rotate(-90)" fill="#12263f"/>
  </g>
</svg>
