<svg xmlns="http://www.w3.org/2000/svg" width="286.388" height="256.559" viewBox="0 0 286.388 256.559">
  <g id="Grupo_146694" data-name="Grupo 146694" transform="translate(-1216.123 -868.586)">
    <ellipse id="Elipse_4992" data-name="Elipse 4992" cx="40.846" cy="7.073" rx="40.846" ry="7.073" transform="translate(1319.444 1111)" fill="#e6f2f7"/>
    <ellipse id="Elipse_4993" data-name="Elipse 4993" cx="34.906" cy="6.045" rx="34.906" ry="6.045" transform="translate(1377.841 1109.311)" fill="#e6f2f7"/>
    <ellipse id="Elipse_4994" data-name="Elipse 4994" cx="34.906" cy="6.045" rx="34.906" ry="6.045" transform="translate(1258.745 1109.311)" fill="#e6f2f7"/>
    <ellipse id="Elipse_4995" data-name="Elipse 4995" cx="34.906" cy="6.045" rx="34.906" ry="6.045" transform="translate(1432.699 1107.68)" fill="#e6f2f7"/>
    <path id="Trazado_191437" data-name="Trazado 191437" d="M1282.752,1041.757c0,2.716-14.344,4.915-32.041,4.915s-32.041-2.2-32.041-4.915,14.346-4.912,32.042-4.912S1282.752,1039.043,1282.752,1041.757Z" transform="translate(1.082 71.465)" fill="#e6f2f7"/>
    <g id="Grupo_146693" data-name="Grupo 146693" transform="translate(1216.123 868.586)">
      <g id="Grupo_146688" data-name="Grupo 146688" transform="translate(0 27.906)">
        <path id="Trazado_191438" data-name="Trazado 191438" d="M1258.222,900.773a27.534,27.534,0,0,1,5.99,12.6,27.454,27.454,0,0,1-6.143,5.068,28.4,28.4,0,0,1-14.592,3.994,15.66,15.66,0,0,1-7.681-1.688,16.13,16.13,0,0,1-7.065-7.681q.312-1.872.767-3.84a62.881,62.881,0,0,1,7.219-17.818Z" transform="translate(-1210.769 -886.8)" fill="#231f20"/>
        <path id="Trazado_191439" data-name="Trazado 191439" d="M1237.515,1035.108a12.189,12.189,0,0,1-.512,2.047,12.544,12.544,0,0,1-2.458,4.2h6.094a3.928,3.928,0,0,0,.409-5.222A3.7,3.7,0,0,0,1237.515,1035.108Z" transform="translate(-1208.299 -825.809)" fill="#415066"/>
        <path id="Trazado_191440" data-name="Trazado 191440" d="M1237.254,915.7c-2.347,9.613-5.27,19.941-8.936,30.816-3.64,10.8-7.534,20.727-11.455,29.746a6.238,6.238,0,0,0,5.94,3.431,86.146,86.146,0,0,0,18.015-49.1Z" transform="translate(-1215.809 -876.48)" fill="#415066"/>
        <path id="Trazado_191441" data-name="Trazado 191441" d="M1242.083,993.417q.507,4.661.933,9.418c1.571,17.528,2.174,34.386,2.034,50.48a2.807,2.807,0,0,1-4.917.17q-1.665-7.606-3.275-15.32-4.326-20.734-7.983-40.906Z" transform="translate(-1210.707 -843.472)" fill="#f7a592"/>
        <path id="Trazado_191442" data-name="Trazado 191442" d="M1248.954,995.868q.2,2.719.315,5.559c.116,2.841.135,3.405.125,6.807-.01,4.434-2.09,22.593-7.148,47a2.254,2.254,0,0,1-2.612,1.307,2.183,2.183,0,0,1-1.459-1.69q-.361-7.932-.66-15.954-.788-21.284-1.093-41.993Z" transform="translate(-1207.501 -842.431)" fill="#fcc3ab"/>
        <path id="Trazado_191443" data-name="Trazado 191443" d="M1227.294,951.471a104.9,104.9,0,0,0-1.942,10.751c-1.572,12.3-.537,21.76.591,31.539a212.992,212.992,0,0,0,5.018,27.443,29.641,29.641,0,0,0,17,1.228,28.538,28.538,0,0,0,8.625-3.583c.815-4.82,1.879-11.64,2.867-19.865,2.552-21.257,1.676-27.636,1.228-30.311a61.982,61.982,0,0,0-6.785-19.429Z" transform="translate(-1212.544 -862.234)" fill="#61738f"/>
        <path id="Trazado_191444" data-name="Trazado 191444" d="M1234.018,916.314a31.9,31.9,0,0,1,11.166-2.053,32.426,32.426,0,0,1,16.171,4.363q-1.789,4.789-3.465,10.01c-2.049,6.413-3.689,12.556-5.005,18.354a38.968,38.968,0,0,0,4.75,19.751,31.609,31.609,0,0,1-6.963,4.71,32,32,0,0,1-12.7,3.277l-2.661-3.481q-.754,1.688-1.51,3.378a17.233,17.233,0,0,1-7.911-4.2c.554-2.811,1.054-5.793,1.453-8.936a129.294,129.294,0,0,0,1.026-16.813,10.561,10.561,0,0,1-2.181-2.438,11.279,11.279,0,0,1-1.664-6.931q1.676-3.157,3.337-6.416Q1231.106,922.512,1234.018,916.314Z" transform="translate(-1212.573 -877.092)" fill="#e6f1ff"/>
        <path id="Trazado_191445" data-name="Trazado 191445" d="M1251.686,916.809l1.664.879a220.111,220.111,0,0,1,5.8,61.557,8.746,8.746,0,0,1-7.343-.789,263.514,263.514,0,0,0-3.27-28.317c-1.261-7.391-2.765-14.306-4.4-20.7.9-1.782,1.9-3.629,3.01-5.525C1248.658,921.34,1250.184,918.97,1251.686,916.809Z" transform="translate(-1204.221 -876.01)" fill="#61738f"/>
        <path id="Trazado_191446" data-name="Trazado 191446" d="M1235.228,909.477a29.589,29.589,0,0,1,.484,10.532,17.5,17.5,0,0,0,2.425.677,18.429,18.429,0,0,0,8.1-.215q.536-7.527,1.076-15.052Z" transform="translate(-1208.009 -880.848)" fill="#f7a592"/>
        <path id="Trazado_191447" data-name="Trazado 191447" d="M1217.721,957.971a15.57,15.57,0,0,0-1.036,2.5,8.076,8.076,0,0,0-.547,3.459,7.612,7.612,0,0,0,.586,2.084c.387,1.04,1.031,2.757,1.707,2.711.454-.031.739-.849.768-.925a2.975,2.975,0,0,0,0-1.459c-.077-.613-.155-1.177-.231-1.69l1.121-1.234a10.836,10.836,0,0,0-.053,1.1c0,1.06.007,2.412.621,2.671a.768.768,0,0,0,.768-.154c.265-.244.225-.647.231-1a12.727,12.727,0,0,1,.537-2,26.947,26.947,0,0,1,1.2-3.177,6.643,6.643,0,0,0-1.6-1.6A7.392,7.392,0,0,0,1217.721,957.971Z" transform="translate(-1216.123 -858.527)" fill="#fcc3ab"/>
        <path id="Trazado_191448" data-name="Trazado 191448" d="M1233.207,892.89q-.528,4.715-1.026,9.5-.445,4.253-.856,8.47a19.82,19.82,0,0,0,2.139,2.824,20.163,20.163,0,0,0,6.075,4.531,22.581,22.581,0,0,0,11.551-7.015c.185-1.124.335-2.324.427-3.593a40.209,40.209,0,0,0-.514-9.925,16.7,16.7,0,0,0-10.264-5.646A16.013,16.013,0,0,0,1233.207,892.89Z" transform="translate(-1209.667 -886.588)" fill="#fcc3ab"/>
        <path id="Trazado_191449" data-name="Trazado 191449" d="M1236.579,912.649l-2.725,3.3a4.311,4.311,0,0,0,.766,3.647,3.7,3.7,0,0,0,1.437,1.007l2.633-2.867q.978,1.81,1.96,3.623a11.7,11.7,0,0,0,9.178-5.26l-2.535-3.84a16.972,16.972,0,0,1-8.414,3.786,5,5,0,0,1-2.3-3.4Z" transform="translate(-1208.645 -877.94)" fill="#c23961"/>
        <path id="Trazado_191450" data-name="Trazado 191450" d="M1235.519,894.9a19.684,19.684,0,0,0,1.455,2.14,20.276,20.276,0,0,0,5.39,4.791,25.67,25.67,0,0,0,6.246,2.567,83.853,83.853,0,0,0,10.356,2.508,15.47,15.47,0,0,0-1.228-11.213c-3.358-5.893-11.243-8.895-19.354-6.913a7.124,7.124,0,0,0-4.455,1.844c-.594.573-1.362,1.55-2,4.148a22.573,22.573,0,0,0-.308,8.907,44.171,44.171,0,0,1,3.9-8.785Z" transform="translate(-1209.668 -888.173)" fill="#231f20"/>
        <path id="Trazado_191451" data-name="Trazado 191451" d="M1237.8,1036.543a15.342,15.342,0,0,1-.925,6.144H1242c.123-.6.228-1.251.3-1.942a21.188,21.188,0,0,0,.053-4.043l-2.1-.564q-.385,1.1-.766,2.2l-.205-2.253Z" transform="translate(-1207.308 -825.349)" fill="#415066"/>
        <path id="Trazado_191452" data-name="Trazado 191452" d="M1249.657,914.906a52.444,52.444,0,0,0-7.219,9.063c-12.945,20.6-7.582,44.477-5.377,52.53a31.891,31.891,0,0,0,7.835,2.459,32.336,32.336,0,0,0,13.823-.614l-6.758-17.972a38.526,38.526,0,0,1-1.536-7.065,42.206,42.206,0,0,1,4.454-23.807q1.241-5.569,2.483-11.137a27.651,27.651,0,0,0-7.7-3.456Z" transform="translate(-1208.502 -876.818)" fill="#61738f"/>
        <path id="Trazado_191453" data-name="Trazado 191453" d="M1254.807,961.258c0,.093-1.61.454-4.864.511a47.9,47.9,0,0,1-14.029-1.842l-.231-3.354a18.976,18.976,0,0,0,2.688,1.919C1245.9,962.929,1254.8,961.044,1254.807,961.258Z" transform="translate(-1207.816 -859.121)" fill="#415066"/>
        <path id="Trazado_191454" data-name="Trazado 191454" d="M1238.13,914.655a100.6,100.6,0,0,0-6.86,13.871c-1.162,2.891-2.127,5.669-2.918,8.293q.37,4.751.614,9.677c.472,9.476.54,18.554.308,27.185a12.669,12.669,0,0,1-4.915,3.687c.418-2.466.94-5.883,1.382-9.987.379-3.492.709-6.552.768-10.449a81.634,81.634,0,0,0-.768-12.441c-.277-.8-.542-1.675-.767-2.613a27.754,27.754,0,0,1-.768-6.757q1.357-2.9,2.765-5.837,3.274-6.824,6.605-13.364Z" transform="translate(-1212.691 -876.925)" fill="#61738f"/>
        <path id="Trazado_191455" data-name="Trazado 191455" d="M1228.844,955.3a7,7,0,0,1,.716,3.429,10.229,10.229,0,0,1-4.351.871l3.226-2.4Q1228.636,956.244,1228.844,955.3Z" transform="translate(-1212.264 -859.662)" fill="#415066"/>
        <path id="Trazado_191456" data-name="Trazado 191456" d="M1248.082,947.788l-10.292,1.076a3.263,3.263,0,0,0,.463,2c1.71,2.6,8.258,2.258,9.676-.614A3.5,3.5,0,0,0,1248.082,947.788Z" transform="translate(-1206.927 -862.852)" fill="#415066"/>
        <path id="Trazado_191457" data-name="Trazado 191457" d="M1240.1,918.73l-1.114.53.554,3.891-2.138.41v-3.824l-2.612,3.211-1.06-2.1,2.547-2.117,2.4-2.62Z" transform="translate(-1208.643 -876.308)" fill="#15616d"/>
        <path id="Trazado_191458" data-name="Trazado 191458" d="M1250.681,959.791a8.424,8.424,0,0,1-.685,1.392,13.154,13.154,0,0,0-1.156,1.784c-.261.641-.06.7-.262,1.6-.377,1.7-1.275,2.411-.883,2.909a.871.871,0,0,0,.768.268c.56-.084.668-.786,1.331-1.616a5.152,5.152,0,0,1,1.192-1.073,3.656,3.656,0,0,1,.189,1.628,3.548,3.548,0,0,1-.264.992,1.508,1.508,0,0,0-.761.3,1.44,1.44,0,0,0-.507,1.232,6.235,6.235,0,0,0,.413.586c.278.345.41.517.567.563.35.1.845-.276,1.261-.875.37-.11.771-.247,1.185-.416a12.5,12.5,0,0,0,1.884-.96,11.975,11.975,0,0,0,2.349-7.511,8.8,8.8,0,0,0-6.624-.8Z" transform="translate(-1202.755 -857.888)" fill="#fcc3ab"/>
        <path id="Trazado_191459" data-name="Trazado 191459" d="M1250.137,962.916q-.406-1.68-.913-3.455c-.589-2.043-1.227-3.956-1.891-5.733l1.5-1.825.913,1.5Q1249.94,958.156,1250.137,962.916Z" transform="translate(-1202.868 -861.104)" fill="#415066"/>
      </g>
      <g id="Grupo_146689" data-name="Grupo 146689" transform="translate(214.043 23.349)">
        <path id="Trazado_191460" data-name="Trazado 191460" d="M1379.337,1039.035a6.487,6.487,0,0,0,.443,2.657c.341.856.633,1.026.59,1.48-.107,1.126-2.134,2.22-3.986,2.066-1.251-.1-2.886-.8-3.248-2.066-.071-.249-.128-.647.443-2.362a27.1,27.1,0,0,1,1.182-2.953Z" transform="translate(-1363.497 -820.04)" fill="#415066"/>
        <path id="Trazado_191461" data-name="Trazado 191461" d="M1407.6,1037.112q.331,1.109.664,2.215c.8.258,1.911.6,3.248.959,4.531,1.211,7.028,1.358,7.011,1.624-.02.38-4.773.66-9.893.221a57.88,57.88,0,0,1-6.635-.957q-.051-2.61-.1-5.216Z" transform="translate(-1351.264 -820.847)" fill="#415066"/>
        <path id="Trazado_191462" data-name="Trazado 191462" d="M1401.085,915.8c1.929,10.306,4.3,21.194,7.232,32.568,2.662,10.328,5.527,20.082,8.488,29.231a9.521,9.521,0,0,1-10.037,3.321q-4.9-14.579-9.8-29.157Z" transform="translate(-1353.354 -871.882)" fill="#e6f1ff"/>
        <path id="Trazado_191463" data-name="Trazado 191463" d="M1408.39,959.92q1.541,19.027,2.657,38.824,2.1,37.583,2.362,72.721a7.44,7.44,0,0,1-6.6.137q-8.476-50.487-16.949-100.975l3.174-10.091Z" transform="translate(-1356.374 -853.143)" fill="#61738f"/>
        <path id="Trazado_191464" data-name="Trazado 191464" d="M1381.956,959.487q-1.421,12.806-2.656,25.883-4.213,44.663-5.764,86.761a6.608,6.608,0,0,0,6.936,1.034q11.374-56.221,22.742-112.443Z" transform="translate(-1363.308 -853.327)" fill="#61738f"/>
        <path id="Trazado_191465" data-name="Trazado 191465" d="M1366.961,959.893c-.11,1.882-.259,3.4-.379,4.467-.224,2.007-.435,3.207.316,4.09a2.551,2.551,0,0,0,1.2.755,5.8,5.8,0,0,0,2.579,1.824,3.448,3.448,0,0,0,1.571,2.516c1.748.916,4.216-.472,4.28-1.446a1.422,1.422,0,0,0-.819-1.133c-.543-.278-.933-.02-1.2-.185-.358-.232-.413-1.225.881-4.531a5.275,5.275,0,0,0,.755,1.825c.429.647.858,1.294,1.635,1.446a1.8,1.8,0,0,0,1.888-.755c.261-.561-.2-1.033-.692-2.328-.534-1.4-.3-1.646-.816-3.649a23.088,23.088,0,0,0-1.07-3.144Z" transform="translate(-1366.35 -853.259)" fill="#fcc3ab"/>
        <path id="Trazado_191466" data-name="Trazado 191466" d="M1373.274,913.577q1.756,13.834,3.375,27.942,2.37,20.621,4.331,40.746a151.9,151.9,0,0,0,34.645-.59c.093-7.353-.024-15.039-.395-23.031a396.168,396.168,0,0,0-4.079-41.279,59.717,59.717,0,0,0-12.537-4.049A61.028,61.028,0,0,0,1373.274,913.577Z" transform="translate(-1363.419 -873.448)" fill="#e6f1ff"/>
        <path id="Trazado_191467" data-name="Trazado 191467" d="M1376.212,913.144a167.363,167.363,0,0,0-9.534,66.94,15.013,15.013,0,0,0,11.537.567,140.62,140.62,0,0,1,6.877-52.1,26.424,26.424,0,0,0-8.876-15.411Z" transform="translate(-1366.357 -873.01)" fill="#e6f1ff"/>
        <path id="Trazado_191468" data-name="Trazado 191468" d="M1384.021,905.654q-.331-1.31-.625-2.693a68.33,68.33,0,0,1-1.351-10.074l4.56-5.025a11.806,11.806,0,0,1,8.021-2.884,12.23,12.23,0,0,1,10.449,7.86,25,25,0,0,1-.6,8.925,24.665,24.665,0,0,1-1.544,4.33Z" transform="translate(-1359.694 -884.975)" fill="#231f20"/>
        <path id="Trazado_191469" data-name="Trazado 191469" d="M1385.636,903.653c-.068,1-.175,2.052-.326,3.134a44.4,44.4,0,0,1-2.395,9.389l10.264,5.609,4.476-2.4a31.212,31.212,0,0,1,.587-12.082Z" transform="translate(-1359.324 -877.041)" fill="#f7a592"/>
        <path id="Trazado_191470" data-name="Trazado 191470" d="M1383.5,910.39a18.324,18.324,0,0,0,8.97,7.3,16.955,16.955,0,0,0,9.443-6.152l1.11-19.443a14.122,14.122,0,0,0-5.024-3.082c-6.864-2.392-13.19,1.648-14.155,2.288Q1383.67,900.848,1383.5,910.39Z" transform="translate(-1359.076 -883.576)" fill="#fcc3ab"/>
        <path id="Trazado_191471" data-name="Trazado 191471" d="M1385.495,900.331a2.572,2.572,0,0,0-4.74-1.221c-.963,1.523.325,4.2,2.255,4.87a3.63,3.63,0,0,0,2.488-.133Q1385.5,902.088,1385.495,900.331Z" transform="translate(-1360.381 -879.479)" fill="#fcc3ab"/>
        <path id="Trazado_191472" data-name="Trazado 191472" d="M1395.612,900.808a2.571,2.571,0,0,1,4.8-.949c.875,1.573-.563,4.177-2.529,4.733a3.61,3.61,0,0,1-2.475-.278Z" transform="translate(-1354.017 -879.214)" fill="#fcc3ab"/>
        <path id="Trazado_191473" data-name="Trazado 191473" d="M1403.882,896.227a22.82,22.82,0,0,1-3.78-4.972q-2.517,1.374-5.135,2.734-6.219,3.229-12.206,5.965.165-4.33.329-8.661a16.4,16.4,0,0,1,8.387-3.639,17.106,17.106,0,0,1,12.548,3.774Q1403.953,893.822,1403.882,896.227Z" transform="translate(-1359.389 -883.874)" fill="#231f20"/>
        <path id="Trazado_191474" data-name="Trazado 191474" d="M1393.262,917.934l2.147-2.056-1.109-2.067-2.807.591-3.838-.664-1.312,1.794,3.217,2.11,1.191,34.3,7.28,7.454,3.814-8.174Z" transform="translate(-1357.868 -872.758)" fill="#15616d"/>
        <path id="Trazado_191475" data-name="Trazado 191475" d="M1376.334,940.882a25.209,25.209,0,0,0,3.4-15.8Q1378.034,932.983,1376.334,940.882Z" transform="translate(-1362.119 -867.939)" fill="#e6f1ff"/>
        <path id="Trazado_191476" data-name="Trazado 191476" d="M1413.288,959.15a22.728,22.728,0,0,1,.817,3.882,11.872,11.872,0,0,1-.15,5.139,9.988,9.988,0,0,1-1.408,2.847c-.788,1.117-1.757,2.489-2.89,2.361a1.794,1.794,0,0,1-1.48-1.386c-.1-.7.491-1.083,1.037-2.083a6.237,6.237,0,0,0,.74-2.776l-1.556-.763c-.057.36-.141.915-.222,1.6-.205,1.72-.144,2.127-.519,2.432a1.931,1.931,0,0,1-2.218-.14c-.524-.462-.268-1.01-.446-2.848-.137-1.416-.329-1.489-.519-3.194a24.3,24.3,0,0,1-.148-2.431,9.769,9.769,0,0,1,2.743-1.873A10.82,10.82,0,0,1,1413.288,959.15Z" transform="translate(-1350.23 -853.537)" fill="#fcc3ab"/>
        <path id="Trazado_191477" data-name="Trazado 191477" d="M1394.133,910.509l-3.4,3.791,2.312,6.054q1.819-2.708,3.642-5.414Z" transform="translate(-1356.002 -874.129)" fill="#c23961"/>
        <path id="Trazado_191478" data-name="Trazado 191478" d="M1391.748,914.767l-1.9,6.349-8.268-8.071,3.15-3.642Z" transform="translate(-1359.889 -874.599)" fill="#c23961"/>
      </g>
      <g id="Grupo_146690" data-name="Grupo 146690" transform="translate(48.758 7.558)">
        <path id="Trazado_191479" data-name="Trazado 191479" d="M1276.926,1038.983a9.825,9.825,0,0,1-2.951,4.853,9.137,9.137,0,0,0,6.091,1.426,8.6,8.6,0,0,0,3.236-1.141l-1.057-5.042Z" transform="translate(-1240.31 -803.771)" fill="#415066"/>
        <path id="Trazado_191480" data-name="Trazado 191480" d="M1262.076,1038.209q-.357,1.189-.714,2.378c-.858.276-2.05.647-3.486,1.03-4.861,1.3-7.546,1.458-7.53,1.744.023.409,5.125.71,10.62.238a61.954,61.954,0,0,0,7.127-1.03q.054-2.8.105-5.6Z" transform="translate(-1250.346 -804.627)" fill="#415066"/>
        <path id="Trazado_191481" data-name="Trazado 191481" d="M1263.439,955.323q-1.654,20.435-2.854,41.688-2.254,40.353-2.535,78.083a7.992,7.992,0,0,0,7.087.147l16.434-110.14q-.825-4.556-1.646-9.115Z" transform="translate(-1247.073 -839.304)" fill="#61738f"/>
        <path id="Trazado_191482" data-name="Trazado 191482" d="M1294.4,955.773q-.671,13.816-1.589,27.892c-2.09,32.042-5.034,63.046-8.656,92.96a7.094,7.094,0,0,1-7.531-.085q-2.485-61.54-4.972-123.076Z" transform="translate(-1241.296 -840.094)" fill="#61738f"/>
        <path id="Trazado_191483" data-name="Trazado 191483" d="M1275.5,943.747a28.78,28.78,0,0,1-6.252,2.875,30.067,30.067,0,0,1-15.627.625c1.158-5.187,2.429-9.432,3.438-12.5,4.845-14.738,8.929-18.321,10.376-22.69a5.243,5.243,0,0,1,1.875-2.751,4.554,4.554,0,0,1,1.942-.749q.2,3.488.5,7.063C1272.577,925.532,1273.878,934.921,1275.5,943.747Z" transform="translate(-1248.953 -859.168)" fill="#15616d"/>
        <path id="Trazado_191484" data-name="Trazado 191484" d="M1302.642,906.2a284.2,284.2,0,0,1-3.87,74.364,163.886,163.886,0,0,1-37.2-.634c-.092-7.9.026-16.148.422-24.729a425.625,425.625,0,0,1,4.384-44.322,45.517,45.517,0,0,1,13.57-5.43A46.261,46.261,0,0,1,1302.642,906.2Z" transform="translate(-1245.59 -860.939)" fill="#15616d"/>
        <path id="Trazado_191485" data-name="Trazado 191485" d="M1290.047,898.881q.842-.742,1.69-1.517,2.086-1.908,3.985-3.8-1.93-3.513-3.861-7.028.156-.68.311-1.359l-4.9-5.4c-2.7-.832-5.588-1.849-8.612-3.1-2.2-.906-4.253-1.849-6.172-2.792a18.607,18.607,0,0,0-2.4,2.469,19.13,19.13,0,0,0-3.568,7.111l.918,1.647a23.626,23.626,0,0,1-2.455,8.795,9.836,9.836,0,0,0,4.754,5.437Z" transform="translate(-1244.129 -873.891)" fill="#231f20"/>
        <path id="Trazado_191486" data-name="Trazado 191486" d="M1285.115,895.9c.073,1.08.185,2.2.35,3.367a47.6,47.6,0,0,0,2.57,10.079l-11.016,6.025-4.809-2.572a33.485,33.485,0,0,0-.633-12.971Z" transform="translate(-1241.328 -864.542)" fill="#f7a592"/>
        <path id="Trazado_191487" data-name="Trazado 191487" d="M1288.752,903.137a19.677,19.677,0,0,1-9.633,7.843,18.2,18.2,0,0,1-10.14-6.607q-.592-10.438-1.188-20.877a15.161,15.161,0,0,1,5.394-3.31c7.37-2.569,14.162,1.771,15.2,2.458Z" transform="translate(-1242.936 -871.559)" fill="#fcc3ab"/>
        <path id="Trazado_191488" data-name="Trazado 191488" d="M1281.987,892.335a2.762,2.762,0,0,1,5.086-1.312c1.034,1.634-.351,4.514-2.422,5.227a3.892,3.892,0,0,1-2.671-.142Q1281.984,894.222,1281.987,892.335Z" transform="translate(-1236.91 -867.158)" fill="#fcc3ab"/>
        <path id="Trazado_191489" data-name="Trazado 191489" d="M1271.184,892.848a2.761,2.761,0,0,0-5.156-1.017c-.939,1.691.606,4.485,2.716,5.086a3.9,3.9,0,0,0,2.659-.295Q1271.293,894.731,1271.184,892.848Z" transform="translate(-1243.805 -866.875)" fill="#fcc3ab"/>
        <path id="Trazado_191490" data-name="Trazado 191490" d="M1267.426,887.927a24.614,24.614,0,0,0,4.058-5.339,29.877,29.877,0,0,1,5.713,1.228,31.393,31.393,0,0,1,12.9,8.112q-.177-4.648-.353-9.3a17.607,17.607,0,0,0-9.007-3.908,18.372,18.372,0,0,0-13.468,4.055Z" transform="translate(-1243.158 -871.879)" fill="#231f20"/>
        <path id="Trazado_191491" data-name="Trazado 191491" d="M1276.985,911.237l-2.307-2.208,1.19-2.218,3.012.634,4.122-.714,1.409,1.928-3.456,2.265-1.278,36.824-7.816,8-4.1-8.776Z" transform="translate(-1242.948 -859.943)" fill="#e6f1ff"/>
        <path id="Trazado_191492" data-name="Trazado 191492" d="M1272.99,903.263l3.646,4.069-2.483,6.5-3.91-5.811Z" transform="translate(-1241.895 -861.416)" fill="#69c3e0"/>
        <path id="Trazado_191493" data-name="Trazado 191493" d="M1276.9,907.834l2.035,6.816,8.878-8.667-3.382-3.909Z" transform="translate(-1239.067 -861.921)" fill="#69c3e0"/>
        <path id="Trazado_191494" data-name="Trazado 191494" d="M1272.753,933.2a28.858,28.858,0,0,0,7.028,6.935,29.406,29.406,0,0,0,14.346,5.062q2.438-6.935,4.874-13.877Z" transform="translate(-1240.829 -849.498)" fill="#15616d"/>
        <path id="Trazado_191495" data-name="Trazado 191495" d="M1261.417,926.061c1.422.237,2.926.544,4.5.937.945.235,1.849.487,2.719.749q1.789,1.665,3.845,3.375c1.626,1.349,3.215,2.576,4.75,3.687a24.568,24.568,0,0,1-19.285,5.126,15.638,15.638,0,0,1,.844-9.939A14.661,14.661,0,0,1,1261.417,926.061Z" transform="translate(-1247.308 -851.733)" fill="#15616d"/>
        <path id="Trazado_191496" data-name="Trazado 191496" d="M1259.723,927.4a7.352,7.352,0,0,1,5.438-5.25,7.451,7.451,0,0,1,8.062,4.032l-5.907,4.031Z" transform="translate(-1246.363 -853.448)" fill="#fcc3ab"/>
        <path id="Trazado_191497" data-name="Trazado 191497" d="M1299.985,905.42q-1.911,8.091-4.124,16.5-2.105,7.973-4.313,15.565a63.067,63.067,0,0,1-22.406-7.067,5.922,5.922,0,0,0-3.5,2.157,6.109,6.109,0,0,0-1,5,55.331,55.331,0,0,0,11,8.252,56.157,56.157,0,0,0,22.092,7.034,56.982,56.982,0,0,0,8.813-18c1.48-5.223,5.826-20.62-1.5-27A11.263,11.263,0,0,0,1299.985,905.42Z" transform="translate(-1244.344 -860.499)" fill="#15616d"/>
        <path id="Trazado_191498" data-name="Trazado 191498" d="M1276.968,928.4c-.225-1.8,3.552-3.7,5.063-4.313a12.41,12.41,0,0,1,6.38-.751c1.274,2.721,1.406,5.652,0,7.315C1285.533,934.047,1277.283,930.917,1276.968,928.4Z" transform="translate(-1239.043 -852.946)" fill="#fcc3ab"/>
        <path id="Trazado_191499" data-name="Trazado 191499" d="M1284.63,927.283a18.589,18.589,0,0,1,.185-5.252,19.213,19.213,0,0,1,4.313-9Q1286.88,920.156,1284.63,927.283Z" transform="translate(-1235.829 -857.267)" fill="#15616d"/>
      </g>
      <g id="Grupo_146691" data-name="Grupo 146691" transform="translate(168.926 20.17)">
        <path id="Trazado_191500" data-name="Trazado 191500" d="M1372.081,891.219a13.751,13.751,0,0,1,2.741,3.027,13.91,13.91,0,0,1,2.178,5.826c-.56,1.895-1.21,3.868-1.968,5.9a90.769,90.769,0,0,1-5.187,11.449,25.946,25.946,0,0,1,2.143,3.669,26.514,26.514,0,0,1,2.492,9.168,7.648,7.648,0,0,1,5.137,3.211,7.344,7.344,0,0,1,.778,5.24c-1.288,6.75-11.449,11.119-19.587,12.075a23.8,23.8,0,0,1-8.229-.447c-8.647-2.026-13.526-8.407-15.027-10.554a25.079,25.079,0,0,1-.984-5.187,25.379,25.379,0,0,1,.984-9.3q-.556-2.774-1.073-5.635-1.032-5.727-1.79-11.18a46.978,46.978,0,0,1,7.334-12.791c4.563-7.093,12.173-11.036,19.5-10.016A18.582,18.582,0,0,1,1372.081,891.219Z" transform="translate(-1334.69 -881.565)" fill="#231f20"/>
        <path id="Trazado_191501" data-name="Trazado 191501" d="M1356.143,947.858a23.585,23.585,0,0,0,6.41,2.948c9.212,2.641,17.319-1.271,19.852-2.627a66.366,66.366,0,0,0-4.779-12.425c-5.282-10.418-11.918-16.477-13.216-20.391a5.371,5.371,0,0,0-1.924-2.82,4.646,4.646,0,0,0-1.987-.769q-.207,3.576-.511,7.242C1359.144,929.181,1357.807,938.808,1356.143,947.858Z" transform="translate(-1325.578 -870.413)" fill="#15616d"/>
        <path id="Trazado_191502" data-name="Trazado 191502" d="M1355.987,1037.058a12.627,12.627,0,0,0,.536,2.14,13.083,13.083,0,0,0,2.569,4.388h-6.373a4.1,4.1,0,0,1-.427-5.455A3.865,3.865,0,0,1,1355.987,1037.058Z" transform="translate(-1327.571 -817.247)" fill="#415066"/>
        <path id="Trazado_191503" data-name="Trazado 191503" d="M1353.98,993.472q-.528,4.875-.974,9.845c-1.643,18.326-2.274,35.948-2.127,52.772a2.935,2.935,0,0,0,5.141.177q1.742-7.952,3.422-16.016,4.523-21.675,8.346-42.762Z" transform="translate(-1327.823 -835.713)" fill="#f7a592"/>
        <path id="Trazado_191504" data-name="Trazado 191504" d="M1345.794,996.035q-.209,2.842-.329,5.811c-.12,2.969-.14,3.559-.131,7.12.011,4.635,2.185,23.619,7.473,49.136a2.355,2.355,0,0,0,2.73,1.365,2.277,2.277,0,0,0,1.526-1.765q.378-8.294.69-16.678.825-22.251,1.142-43.9Z" transform="translate(-1330.17 -834.625)" fill="#fcc3ab"/>
        <path id="Trazado_191505" data-name="Trazado 191505" d="M1375.811,949.622a108.521,108.521,0,0,1,2.034,11.241c1.64,12.861.563,22.747-.617,32.97a222.686,222.686,0,0,1-5.246,28.688,30.971,30.971,0,0,1-17.769,1.284,29.8,29.8,0,0,1-9.016-3.745c-.852-5.039-1.965-12.169-3-20.767-2.667-22.22-1.752-28.888-1.285-31.686a64.826,64.826,0,0,1,7.094-20.311Z" transform="translate(-1332.274 -855.326)" fill="#61738f"/>
        <path id="Trazado_191506" data-name="Trazado 191506" d="M1368.858,912.873a33.342,33.342,0,0,0-11.673-2.147,33.9,33.9,0,0,0-16.9,4.562q1.87,5.007,3.623,10.465c2.142,6.7,3.857,13.125,5.232,19.185a40.744,40.744,0,0,1-4.965,20.647,33.077,33.077,0,0,0,7.279,4.925,33.459,33.459,0,0,0,13.274,3.421l2.784-3.639,1.577,3.532a18.014,18.014,0,0,0,8.271-4.388c-.584-2.938-1.1-6.055-1.52-9.339a135.241,135.241,0,0,1-1.072-17.576,11.012,11.012,0,0,0,2.28-2.55,11.783,11.783,0,0,0,1.745-7.245q-1.753-3.3-3.488-6.708Q1371.9,919.347,1368.858,912.873Z" transform="translate(-1332.316 -870.858)" fill="#15616d"/>
        <path id="Trazado_191507" data-name="Trazado 191507" d="M1370.456,934.279a24.678,24.678,0,0,1-5.5,1.433,25.781,25.781,0,0,1-13.022-1.633l-5.257-13.3,4.063,17.084a22.527,22.527,0,0,0,7.645.832A23.2,23.2,0,0,0,1370.456,934.279Z" transform="translate(-1329.597 -866.589)" fill="#15616d"/>
        <path id="Trazado_191508" data-name="Trazado 191508" d="M1359.865,905.725a30.945,30.945,0,0,0-.507,11.01,18.586,18.586,0,0,1-2.535.707,19.27,19.27,0,0,1-8.464-.225q-.562-7.867-1.124-15.736Z" transform="translate(-1329.362 -874.785)" fill="#f7a592"/>
        <path id="Trazado_191509" data-name="Trazado 191509" d="M1364.539,888.382q.553,4.93,1.073,9.928.462,4.451.894,8.855a20.683,20.683,0,0,1-2.236,2.952,21.09,21.09,0,0,1-6.351,4.741,23.624,23.624,0,0,1-12.075-7.334c-.194-1.175-.35-2.429-.447-3.757a42.046,42.046,0,0,1,.537-10.376,17.464,17.464,0,0,1,10.734-5.9A16.727,16.727,0,0,1,1364.539,888.382Z" transform="translate(-1330.189 -880.785)" fill="#fcc3ab"/>
        <path id="Trazado_191510" data-name="Trazado 191510" d="M1359.7,909.038l2.849,3.453a4.5,4.5,0,0,1-.8,3.813,3.857,3.857,0,0,1-1.5,1.053l-2.751-2.995-2.05,3.791a12.233,12.233,0,0,1-9.594-5.5l2.65-4.015a17.726,17.726,0,0,0,8.794,3.958,5.225,5.225,0,0,0,2.4-3.556Z" transform="translate(-1329.948 -871.744)" fill="#69c3e0"/>
        <path id="Trazado_191511" data-name="Trazado 191511" d="M1364.952,890.787a20.546,20.546,0,0,1-1.52,2.237,21.166,21.166,0,0,1-5.635,5.008,23.632,23.632,0,0,1-6.53,2.681,24.342,24.342,0,0,1-12.612-.358,15.721,15.721,0,0,1,1.7-8.137c3.521-6.693,12.27-10.335,22.092-9.3,4.095-.021,5.678,1.089,6.352,2.147.608.956.435,1.807.983,4.115a23.265,23.265,0,0,0,1.522,4.382,7.423,7.423,0,0,1-2.594-.269A7.675,7.675,0,0,1,1364.952,890.787Z" transform="translate(-1333.018 -882.743)" fill="#231f20"/>
        <path id="Trazado_191512" data-name="Trazado 191512" d="M1355.139,1038.558a16.035,16.035,0,0,0,.961,6.423h-5.355c-.13-.63-.239-1.308-.316-2.035a22.2,22.2,0,0,1-.054-4.229l2.2-.589.8,2.3q.107-1.178.214-2.355Z" transform="translate(-1328.061 -816.769)" fill="#415066"/>
        <path id="Trazado_191513" data-name="Trazado 191513" d="M1353.3,916.108l.962.375c-2.043.192-3,.648-3.184,1.285-.453,1.606,3.964,4.808,5.3,3.934.919-.6.322-3.1.615-3.132.255-.03.386,1.9,1.874,3.479.469.5.878.925,1.338.856.822-.12,1.4-1.757,1.285-3-.218-2.379-2.995-3.629-3.264-3.747a3.33,3.33,0,0,0-.108-1.5c-.393-1.248-1.678-2.589-2.943-2.355C1353.958,912.529,1352.869,914.177,1353.3,916.108Z" transform="translate(-1327.744 -870.198)" fill="#e6f1ff"/>
        <path id="Trazado_191514" data-name="Trazado 191514" d="M1372.062,934.978a37.155,37.155,0,0,1-15.612,12.267,35.65,35.65,0,0,1-9.238,2.389L1344.5,936.1Z" transform="translate(-1330.522 -860.557)" fill="#15616d"/>
        <path id="Trazado_191515" data-name="Trazado 191515" d="M1376.716,932.169c-1.458.245-3,.556-4.615.962q-1.453.363-2.788.769-1.861,1.71-3.941,3.459c-2.047,1.717-4.056,3.281-6,4.706a23.045,23.045,0,0,0,8.6.956,23.5,23.5,0,0,0,12.106-4.625Z" transform="translate(-1324.207 -861.751)" fill="#15616d"/>
        <path id="Trazado_191516" data-name="Trazado 191516" d="M1373.1,933.561a5.7,5.7,0,0,0-2.708-4.142c-2.281-1.151-5.541-.212-7.329,2.549l3.028,4.459Z" transform="translate(-1322.641 -863.123)" fill="#fcc3ab"/>
        <path id="Trazado_191517" data-name="Trazado 191517" d="M1347.941,912.17a87.206,87.206,0,0,0,7.168,29.629,54.375,54.375,0,0,0,19.594-4.461,6.045,6.045,0,0,1,2.547,2.231,6.225,6.225,0,0,1,.8,4.459,47.558,47.558,0,0,1-28.674,10.513,74.293,74.293,0,0,1-7.008-14.176c-2.8-7.607-7.338-20.066-1.963-25.583C1341.725,913.424,1343.969,912.211,1347.941,912.17Z" transform="translate(-1333.326 -870.245)" fill="#15616d"/>
        <path id="Trazado_191518" data-name="Trazado 191518" d="M1359.227,933.243c-.011-.664-1.295-1.143-3.346-1.911a20.508,20.508,0,0,0-6.212-1.274c-.567,1.07-1.872,3.812-.8,5.256C1350.788,937.885,1359.255,934.963,1359.227,933.243Z" transform="translate(-1328.841 -862.647)" fill="#fcc3ab"/>
      </g>
      <g id="Grupo_146692" data-name="Grupo 146692" transform="translate(108.828)">
        <path id="Trazado_191519" data-name="Trazado 191519" d="M1322.5,942.488a32.229,32.229,0,0,0,6.973,3.206,33.324,33.324,0,0,0,16,1.017,57.864,57.864,0,0,0-2.4-14.26c-1.4-4.646-3.106-7.94-6.316-14.413-1.825-3.681-4.37-8.507-7.725-14.018l-5.1-2.072a84.988,84.988,0,0,1,1.355,8.92A87.665,87.665,0,0,1,1322.5,942.488Z" transform="translate(-1279.771 -854.416)" fill="#61738f"/>
        <path id="Trazado_191520" data-name="Trazado 191520" d="M1303.8,1040.64a7.265,7.265,0,0,0,.494,2.959c.38.953.705,1.144.658,1.645-.12,1.254-2.379,2.471-4.438,2.3-1.393-.112-3.217-.9-3.62-2.3-.078-.278-.143-.721.494-2.633a30.133,30.133,0,0,1,1.316-3.291Z" transform="translate(-1290.668 -796.07)" fill="#415066"/>
        <path id="Trazado_191521" data-name="Trazado 191521" d="M1335.292,1038.5q.37,1.233.74,2.468c.889.288,2.127.67,3.619,1.069,5.047,1.351,7.832,1.515,7.815,1.809-.023.424-5.32.741-11.023.248a64.413,64.413,0,0,1-7.4-1.068l-.11-5.813Z" transform="translate(-1277.036 -796.966)" fill="#415066"/>
        <path id="Trazado_191522" data-name="Trazado 191522" d="M1336.062,952.469q1.718,21.207,2.959,43.269,2.34,41.887,2.631,81.042a8.3,8.3,0,0,1-7.354.153l-18.507-111.98,3.159-11.8Z" transform="translate(-1282.619 -832.959)" fill="#61738f"/>
        <path id="Trazado_191523" data-name="Trazado 191523" d="M1306.718,951.987q-1.586,14.272-2.959,28.851-4.7,49.769-6.423,96.688a7.364,7.364,0,0,0,7.732,1.153q12.669-62.658,25.343-125.314Z" transform="translate(-1290.457 -833.163)" fill="#61738f"/>
        <path id="Trazado_191524" data-name="Trazado 191524" d="M1297.67,900.889q1.331,15.443,2.867,31.156,2.25,23.025,4.825,45.409a64.568,64.568,0,0,0,38.61-.658,241.769,241.769,0,0,0-.44-25.665c-.59-8.292-1.356-12.854-2.845-27.579-.8-7.866-1.358-14.287-1.705-18.425A72.831,72.831,0,0,0,1310.195,899Z" transform="translate(-1290.316 -855.669)" fill="#e6f1ff"/>
        <path id="Trazado_191525" data-name="Trazado 191525" d="M1310.818,889.764c-.075,1.12-.2,2.287-.365,3.493a49.44,49.44,0,0,1-2.667,10.462l11.433,6.253,4.988-2.669a34.8,34.8,0,0,1,.655-13.464Z" transform="translate(-1286.019 -859.591)" fill="#f7a592"/>
        <path id="Trazado_191526" data-name="Trazado 191526" d="M1308.438,897.274a20.414,20.414,0,0,0,10,8.138,18.894,18.894,0,0,0,10.525-6.857q.618-10.833,1.233-21.667a15.724,15.724,0,0,0-5.6-3.436c-7.648-2.666-14.7,1.839-15.775,2.55Q1308.63,886.64,1308.438,897.274Z" transform="translate(-1285.742 -866.875)" fill="#fcc3ab"/>
        <path id="Trazado_191527" data-name="Trazado 191527" d="M1311.582,886.062a2.865,2.865,0,0,0-5.281-1.361c-1.073,1.7.362,4.683,2.513,5.425a4.034,4.034,0,0,0,2.774-.148Q1311.583,888.021,1311.582,886.062Z" transform="translate(-1286.805 -862.308)" fill="#fcc3ab"/>
        <path id="Trazado_191528" data-name="Trazado 191528" d="M1322.92,884a2.355,2.355,0,0,1,2.413.768c1.354,1.543.335,4.894-1.646,5.7a3.067,3.067,0,0,1-1.858.093C1320.95,887.144,1321.586,884.527,1322.92,884Z" transform="translate(-1280.226 -862.073)" fill="#fcc3ab"/>
        <path id="Trazado_191529" data-name="Trazado 191529" d="M1319.271,905.718l2.438-2.331-1.235-2.3-3.125.657-4.277-.739-1.462,2,3.586,2.351,1.325,38.221,8.114,8.308,3.223-8.89Z" transform="translate(-1284.395 -854.819)" fill="#15616d"/>
        <path id="Trazado_191530" data-name="Trazado 191530" d="M1335.217,950.761a83.434,83.434,0,0,1-23.638.385q-.192,3.428-.383,6.854a55.415,55.415,0,0,0,24.678-.987Q1335.547,953.886,1335.217,950.761Z" transform="translate(-1284.571 -833.684)" fill="#415066"/>
        <path id="Trazado_191531" data-name="Trazado 191531" d="M1320.193,956.292l.111,3.619a15.008,15.008,0,0,1-2.414,2.633c-5.586,4.786-13.106,3.954-15.357,3.619l15.3-10.475Z" transform="translate(-1288.25 -831.591)" fill="#415066"/>
        <path id="Trazado_191532" data-name="Trazado 191532" d="M1310.183,899.02a242.349,242.349,0,0,1,11.325,84.327,22.764,22.764,0,0,1-6.38,4.8,23.074,23.074,0,0,1-11.3,2.412l-3.816-64.862q-1.425-12.207-2.848-24.42a43.246,43.246,0,0,1,13.018-2.258Z" transform="translate(-1290.528 -855.66)" fill="#61738f"/>
        <path id="Trazado_191533" data-name="Trazado 191533" d="M1325.554,954.492l.329,2.851q3.291,2.8,6.581,5.595Z" transform="translate(-1278.472 -832.099)" fill="#415066"/>
        <path id="Trazado_191534" data-name="Trazado 191534" d="M1320.96,901.168q2.665,25.068,5.119,50.53,1.357,14.1,2.626,28.092l7.476,7.447c-.293-11.117-.861-22.683-1.765-34.661-1.287-17.038-3.124-33.186-5.324-48.37A25.948,25.948,0,0,0,1320.96,901.168Z" transform="translate(-1280.423 -854.748)" fill="#61738f"/>
        <path id="Trazado_191535" data-name="Trazado 191535" d="M1325.952,938.436c.391-1.446.851-2.867,1.278-4.3.45-1.425.932-2.838,1.395-4.253l-.024.245-1.453-7.081c-.509-2.354-1.017-4.707-1.573-7.051l-1.664-7.038-.878-3.513-.868-3.526c.489,1.11.917,2.244,1.351,3.375s.819,2.281,1.2,3.431q1.162,3.445,2.074,6.971c.6,2.351,1.148,4.716,1.606,7.1s.87,4.773,1.154,7.181l.019.148-.041.1c-.579,1.378-1.14,2.761-1.731,4.132C1327.185,935.71,1326.6,937.088,1325.952,938.436Z" transform="translate(-1279.912 -854.43)" fill="#415066"/>
        <path id="Trazado_191536" data-name="Trazado 191536" d="M1315.937,940.584a31.755,31.755,0,0,1-3.236-2.084,29.347,29.347,0,0,1-2.992-2.448q-.714-.656-1.388-1.351l-.671-.7-.345-.378-.3-.37c-.813-.987-1.6-1.995-2.391-3l-.114-.144-.006-.185c-.087-2.5-.111-5.009-.161-7.515l-.027-3.757c-.03-1.255.014-2.5.075-3.757.091-2.5.316-5,.544-7.49s.573-4.977.983-7.446l-.218,7.49c-.087,2.5-.083,4.989-.131,7.48s.06,4.979.087,7.471.055,4.981.033,7.474l-.121-.335c.758,1.03,1.52,2.056,2.255,3.1l.278.39.278.346.61.725q.618.718,1.274,1.4,1.319,1.366,2.731,2.65C1313.931,939,1314.925,939.8,1315.937,940.584Z" transform="translate(-1287.502 -855.262)" fill="#415066"/>
        <path id="Trazado_191537" data-name="Trazado 191537" d="M1330.077,890.4a29.2,29.2,0,0,0,2.084-15.136,10.658,10.658,0,0,0-7.238-4.824,13.523,13.523,0,0,0-9.762-1.536,13.273,13.273,0,0,0-6.934,4.223,27.485,27.485,0,0,0-.419,13.545,25.881,25.881,0,0,0,1.2,3.84q.651-3.394,1.316-6.8.545-2.8,1.1-5.595a28.854,28.854,0,0,0,4.525,2.084,29.847,29.847,0,0,0,12.175,1.646,20.028,20.028,0,0,1,.85,2.084A20.443,20.443,0,0,1,1330.077,890.4Z" transform="translate(-1286.286 -868.586)" fill="#231f20"/>
        <path id="Trazado_191538" data-name="Trazado 191538" d="M1320.288,897.4l-3.784,4.223,2.577,6.745,4.058-6.031Z" transform="translate(-1282.316 -856.346)" fill="#c23961"/>
        <path id="Trazado_191539" data-name="Trazado 191539" d="M1317.628,902.151l-2.111,7.074-9.214-8.994,3.515-4.059Z" transform="translate(-1286.649 -856.87)" fill="#c23961"/>
        <path id="Trazado_191540" data-name="Trazado 191540" d="M1322.6,930.765a26.114,26.114,0,0,1-19.474,12.545l-4.131-12.033Z" transform="translate(-1289.754 -842.177)" fill="#415066"/>
        <path id="Trazado_191541" data-name="Trazado 191541" d="M1337.49,922.377c-1.584.266-3.264.607-5.018,1.046q-1.581.4-3.033.832c-1.329,1.234-2.758,2.5-4.288,3.764-1.814,1.506-3.588,2.874-5.3,4.115a31.01,31.01,0,0,0,8.367,4.6,31.427,31.427,0,0,0,14.189,1.651,21.414,21.414,0,0,0-1.986-11.616A20.334,20.334,0,0,0,1337.49,922.377Z" transform="translate(-1280.894 -845.74)" fill="#61738f"/>
        <path id="Trazado_191542" data-name="Trazado 191542" d="M1337.309,923.872a8.2,8.2,0,0,0-6.065-5.857,8.314,8.314,0,0,0-8.994,4.5l6.588,4.5Z" transform="translate(-1279.875 -847.653)" fill="#fcc3ab"/>
        <path id="Trazado_191543" data-name="Trazado 191543" d="M1305.876,899.753c.714,5.749,1.616,11.774,2.747,18.04,1.086,6.011,2.291,11.744,3.57,17.18a70.335,70.335,0,0,0,24.99-7.882,6.608,6.608,0,0,1,3.9,2.405,6.817,6.817,0,0,1,1.116,5.578,61.785,61.785,0,0,1-12.27,9.2,62.664,62.664,0,0,1-24.642,7.846,63.621,63.621,0,0,1-9.831-20.079c-1.48-5.224-6.663-23.693,1.674-30.119C1300.049,899.679,1303.712,899.6,1305.876,899.753Z" transform="translate(-1292.508 -855.369)" fill="#61738f"/>
        <path id="Trazado_191544" data-name="Trazado 191544" d="M1317.727,924.982c.251-2.007-3.961-4.125-5.648-4.807a13.836,13.836,0,0,0-7.111-.833c-1.422,3.036-1.572,6.3,0,8.157C1308.173,931.282,1317.377,927.791,1317.727,924.982Z" transform="translate(-1287.693 -847.091)" fill="#fcc3ab"/>
        <path id="Trazado_191545" data-name="Trazado 191545" d="M1324.28,931.855a18.072,18.072,0,0,0,2.469,2.231,18.374,18.374,0,0,0,5.974,2.946l-.319-2.946Z" transform="translate(-1279.013 -841.714)" fill="#415066"/>
        <path id="Trazado_191546" data-name="Trazado 191546" d="M1330.283,924.476a47.449,47.449,0,0,1-9.637,7.646,19.641,19.641,0,0,0,5.5,3.106q-.477-1.434-.955-2.867Q1327.734,928.419,1330.283,924.476Z" transform="translate(-1280.557 -844.848)" fill="#415066"/>
        <path id="Trazado_191547" data-name="Trazado 191547" d="M1306.8,917.29a40.786,40.786,0,0,0-6.053-11.151q3.069,8.64,6.133,17.284Q1306.837,920.358,1306.8,917.29Z" transform="translate(-1289.01 -852.636)" fill="#415066"/>
      </g>
    </g>
  </g>
</svg>
