<svg id="Grupo_156338" data-name="Grupo 156338" xmlns="http://www.w3.org/2000/svg" xmlns:xlink="http://www.w3.org/1999/xlink" width="234.673" height="236.316" viewBox="0 0 234.673 236.316">
  <defs>
    <clipPath id="clip-path">
      <path id="Trazado_220660" data-name="Trazado 220660" d="M973.7,1959.632l-5.661,50.769h65.676l-8.554-50.769Z" transform="translate(-968.042 -1959.632)" fill="none"/>
    </clipPath>
    <linearGradient id="linear-gradient" x1="-1.198" y1="1.298" x2="-1.197" y2="1.298" gradientUnits="objectBoundingBox">
      <stop offset="0" stop-color="#2b3582"/>
      <stop offset="1" stop-color="#150e42"/>
    </linearGradient>
    <clipPath id="clip-path-2">
      <path id="Trazado_220661" data-name="Trazado 220661" d="M827.152,2507.633l-92.665,2.892a3.976,3.976,0,0,0-3.9,2.6l-1.234,4.878c-.5,2,1.456,3.856,4.068,3.856h96.122c2.654,0,4.624-1.916,4.046-3.935l-2.224-7.77a4.055,4.055,0,0,0-4.044-2.528c-.056,0-.112,0-.168,0" transform="translate(-729.272 -2507.63)" fill="none"/>
    </clipPath>
    <linearGradient id="linear-gradient-2" x1="-1.526" y1="0.642" x2="-1.525" y2="0.642" xlink:href="#linear-gradient"/>
    <clipPath id="clip-path-3">
      <path id="Trazado_220662" data-name="Trazado 220662" d="M84.521,529.4a12.821,12.821,0,0,0-12.534,12.82V658.495a17.639,17.639,0,0,0,17.184,17.634c42.469,1.1,151.854,3.75,192.282,3.155a12.979,12.979,0,0,0,12.778-12.609c.78-27.012,2.046-91.968-2.64-122.124a13.356,13.356,0,0,0-12.771-11.3c-31.681-1.013-128.94-3.99-178.41-3.99-6.094,0-11.458.045-15.89.145" transform="translate(-71.987 -529.255)" fill="none"/>
    </clipPath>
    <linearGradient id="linear-gradient-3" x1="-0.027" y1="1.268" x2="-0.027" y2="1.268" xlink:href="#linear-gradient"/>
    <clipPath id="clip-path-4">
      <path id="Trazado_220663" data-name="Trazado 220663" d="M157.19,589.891V700.36a10.22,10.22,0,0,0,10.067,10.219l186.287,2.785a9.946,9.946,0,0,0,10.095-9.908l.377-109.482a7.274,7.274,0,0,0-7.1-7.3l-191.656-4.663-.2,0a7.881,7.881,0,0,0-7.878,7.882" transform="translate(-157.19 -582.009)" fill="none"/>
    </clipPath>
    <linearGradient id="linear-gradient-4" x1="0.005" y1="1" x2="0.005" y2="1" gradientUnits="objectBoundingBox">
      <stop offset="0" stop-color="#53d8ff"/>
      <stop offset="1" stop-color="#3840f7"/>
    </linearGradient>
    <clipPath id="clip-path-5">
      <rect id="Rectángulo_46340" data-name="Rectángulo 46340" width="234.673" height="236.317" fill="none"/>
    </clipPath>
    <clipPath id="clip-path-6">
      <rect id="Rectángulo_46329" data-name="Rectángulo 46329" width="208.723" height="4.79" fill="none"/>
    </clipPath>
    <clipPath id="clip-path-7">
      <rect id="Rectángulo_46330" data-name="Rectángulo 46330" width="4.036" height="123.089" fill="none"/>
    </clipPath>
    <clipPath id="clip-path-8">
      <rect id="Rectángulo_46331" data-name="Rectángulo 46331" width="147.687" height="78.175" fill="none"/>
    </clipPath>
    <clipPath id="clip-path-9">
      <rect id="Rectángulo_46335" data-name="Rectángulo 46335" width="58.076" height="48.16" fill="none"/>
    </clipPath>
    <clipPath id="clip-path-10">
      <path id="Trazado_220693" data-name="Trazado 220693" d="M1889.735,511.206a.563.563,0,0,0-.544.4q-.133.437-.255.878a.563.563,0,0,0,1.085.3q.118-.428.247-.851a.563.563,0,0,0-.375-.7.556.556,0,0,0-.158-.025" transform="translate(-1888.916 -511.206)" fill="none"/>
    </clipPath>
    <linearGradient id="linear-gradient-5" x1="-107.436" y1="93.759" x2="-107.379" y2="93.759" gradientUnits="objectBoundingBox">
      <stop offset="0" stop-color="#b37cff"/>
      <stop offset="1" stop-color="#f895e7"/>
    </linearGradient>
    <clipPath id="clip-path-11">
      <path id="Trazado_220694" data-name="Trazado 220694" d="M1874.908,554.553a.563.563,0,0,1,.447.659c-.111.576-.208,1.164-.29,1.748a.563.563,0,0,1-1.115-.156c.084-.6.185-1.208.3-1.8a.563.563,0,0,1,.557-.457.569.569,0,0,1,.1.01m-.657,4.676a.563.563,0,0,1,.529.595c-.035.587-.055,1.182-.061,1.771a.563.563,0,0,1-.568.557h0a.563.563,0,0,1-.557-.568c.006-.607.027-1.222.063-1.826a.563.563,0,0,1,.566-.529h.029m.552,5.245c.041.588.1,1.181.165,1.764a.563.563,0,0,1-1.118.132c-.071-.6-.128-1.213-.17-1.819a.563.563,0,0,1,.523-.6h.045a.563.563,0,0,1,.555.524m.617,4.607c.115.575.247,1.156.39,1.728a.563.563,0,0,1-1.091.275c-.148-.589-.284-1.189-.4-1.782a.563.563,0,0,1,.442-.662.544.544,0,0,1,.116-.011.563.563,0,0,1,.546.453m1.206,4.488c.189.556.395,1.115.612,1.662a.563.563,0,1,1-1.046.415c-.224-.564-.436-1.141-.631-1.715a.563.563,0,1,1,1.066-.362m1.781,4.294c.26.527.538,1.056.824,1.571a.563.563,0,1,1-.983.548c-.3-.531-.582-1.077-.851-1.62a.563.563,0,1,1,1.009-.5m2.326,4.028c.326.489.67.977,1.021,1.45a.563.563,0,1,1-.9.67c-.362-.488-.716-.991-1.053-1.5a.563.563,0,0,1,.936-.625m2.827,3.693c.388.443.791.883,1.2,1.305a.563.563,0,0,1-.81.782c-.421-.436-.836-.889-1.236-1.347a.563.563,0,1,1,.847-.74m3.278,3.3c.441.39.9.774,1.355,1.14a.563.563,0,1,1-.7.879c-.473-.378-.943-.774-1.4-1.176a.563.563,0,0,1,.746-.843m3.673,2.848c.487.33.989.652,1.49.956a.563.563,0,0,1-.584.962c-.517-.314-1.034-.646-1.537-.986a.563.563,0,1,1,.631-.932m37.8,2.137a.563.563,0,0,1-.23.762c-.537.287-1.086.565-1.632.824a.563.563,0,0,1-.482-1.017c.53-.251,1.062-.52,1.582-.8a.563.563,0,0,1,.762.23m-33.793.213c.525.264,1.063.518,1.6.755a.563.563,0,1,1-.455,1.029c-.554-.244-1.109-.506-1.65-.779a.563.563,0,1,1,.505-1.005m29.526,1.809a.563.563,0,0,1-.327.725c-.566.214-1.147.418-1.726.6a.563.563,0,0,1-.345-1.071c.561-.181,1.124-.378,1.673-.586a.562.562,0,0,1,.726.327m-25.25,0c.556.194,1.122.375,1.683.541a.563.563,0,1,1-.318,1.08c-.578-.17-1.162-.358-1.736-.558a.563.563,0,1,1,.371-1.063m20.755,1.448a.563.563,0,0,1-.419.677c-.592.139-1.194.265-1.789.375a.563.563,0,1,1-.2-1.107c.577-.106,1.161-.228,1.735-.363a.555.555,0,0,1,.135-.015.563.563,0,0,1,.542.434m-16.281-.207c.573.119,1.159.226,1.743.318a.563.563,0,0,1-.175,1.112c-.6-.094-1.206-.2-1.8-.328a.563.563,0,1,1,.229-1.1m11.635,1.062a.563.563,0,0,1-.5.617c-.529.054-1.065.1-1.593.129l-.23.013a.563.563,0,0,1-.059-1.124l.221-.013c.513-.031,1.034-.073,1.547-.125a.523.523,0,0,1,.063,0,.563.563,0,0,1,.554.505m-7.034-.414c.587.044,1.182.074,1.77.089a.563.563,0,0,1-.029,1.125c-.606-.016-1.22-.046-1.825-.092a.563.563,0,0,1,.047-1.124h.037" transform="translate(-1873.593 -554.543)" fill="none"/>
    </clipPath>
    <linearGradient id="linear-gradient-6" x1="-2.924" y1="4.247" x2="-2.922" y2="4.247" xlink:href="#linear-gradient-5"/>
    <clipPath id="clip-path-12">
      <path id="Trazado_220695" data-name="Trazado 220695" d="M2531.231,986.972a.561.561,0,0,0-.322.1q-.365.249-.738.49a.563.563,0,0,0,.61.946q.384-.248.761-.505a.563.563,0,0,0-.312-1.028" transform="translate(-2529.914 -986.972)" fill="none"/>
    </clipPath>
    <linearGradient id="linear-gradient-7" x1="-106.623" y1="89.15" x2="-106.581" y2="89.15" xlink:href="#linear-gradient-5"/>
    <clipPath id="clip-path-13">
      <rect id="Rectángulo_46339" data-name="Rectángulo 46339" width="59.444" height="45.187" fill="none"/>
    </clipPath>
    <clipPath id="clip-path-14">
      <path id="Trazado_220696" data-name="Trazado 220696" d="M2716.372,713.528a.562.562,0,0,0-.558.459q-.082.436-.174.869a.563.563,0,0,0,1.1.234q.095-.447.179-.9a.563.563,0,0,0-.45-.657.587.587,0,0,0-.1-.009" transform="translate(-2715.628 -713.528)" fill="none"/>
    </clipPath>
    <linearGradient id="linear-gradient-8" x1="-165.842" y1="84.927" x2="-165.781" y2="84.927" xlink:href="#linear-gradient-5"/>
    <clipPath id="clip-path-15">
      <path id="Trazado_220697" data-name="Trazado 220697" d="M2100.569,209.288a.563.563,0,0,1-.015,1.126h0l-.324,0c-.47,0-.947,0-1.42.014a.563.563,0,1,1-.034-1.125c.488-.015.98-.02,1.465-.015Zm2.917.169c.595.058,1.2.132,1.785.218a.563.563,0,0,1-.164,1.113c-.572-.084-1.154-.155-1.731-.212a.563.563,0,0,1,.06-1.123l.05,0m-7.011.54a.563.563,0,0,1-.5.62c-.575.062-1.157.139-1.73.228a.563.563,0,1,1-.174-1.112c.591-.092,1.191-.172,1.783-.236a.575.575,0,0,1,.066,0,.563.563,0,0,1,.553.5m11.667.218c.583.134,1.169.283,1.743.445a.563.563,0,1,1-.305,1.083c-.556-.157-1.124-.3-1.689-.431a.563.563,0,1,1,.251-1.1m-16.26.5a.563.563,0,0,1-.417.678c-.564.135-1.132.285-1.686.447a.563.563,0,0,1-.315-1.081c.572-.166,1.157-.322,1.739-.461a.562.562,0,0,1,.678.416m20.78.846c.558.206,1.119.429,1.668.663a.563.563,0,1,1-.441,1.036c-.532-.227-1.076-.443-1.617-.643a.563.563,0,1,1,.39-1.056m-25.243.453a.562.562,0,0,1-.326.726c-.542.206-1.085.428-1.615.659a.563.563,0,1,1-.451-1.031c.546-.239,1.106-.467,1.666-.68a.562.562,0,0,1,.726.327m29.551,1.46c.527.275,1.056.568,1.572.871a.563.563,0,1,1-.569.971c-.5-.293-1.013-.577-1.523-.844a.563.563,0,1,1,.521-1m-33.811.4a.562.562,0,0,1-.23.762c-.51.273-1.02.563-1.517.861a.563.563,0,0,1-.579-.965c.513-.307,1.039-.606,1.565-.887a.562.562,0,0,1,.761.23M2121,215.921c.489.341.977.7,1.449,1.063a.563.563,0,1,1-.687.891c-.458-.353-.931-.7-1.406-1.031a.563.563,0,1,1,.644-.923m3.69,2.938c.442.4.881.817,1.3,1.239a.563.563,0,0,1-.795.8c-.41-.409-.835-.813-1.264-1.2a.563.563,0,0,1,.755-.834m3.29,3.382c.388.454.771.923,1.137,1.395a.563.563,0,1,1-.889.69c-.354-.457-.726-.912-1.1-1.352a.563.563,0,0,1,.855-.732m2.835,3.773c.328.5.648,1.015.951,1.529a.563.563,0,1,1-.97.571c-.293-.5-.6-1-.922-1.482a.563.563,0,1,1,.941-.617m2.333,4.105c.261.538.513,1.089.748,1.639a.563.563,0,0,1-1.035.442c-.228-.533-.471-1.068-.725-1.589a.563.563,0,1,1,1.012-.492m1.787,4.37c.189.564.368,1.142.531,1.718a.563.563,0,0,1-1.083.306c-.157-.559-.331-1.119-.514-1.666a.563.563,0,1,1,1.067-.358m1.212,4.559c.116.585.219,1.182.307,1.772a.563.563,0,1,1-1.113.165c-.085-.572-.185-1.15-.3-1.718a.563.563,0,1,1,1.1-.219m.622,4.676q.013.183.024.366c.028.476.048.957.058,1.43a.563.563,0,1,1-1.125.024c-.01-.459-.029-.925-.056-1.387q-.011-.178-.023-.356a.563.563,0,0,1,.522-.6h.045a.563.563,0,0,1,.555.524m-.5,4.124a.563.563,0,0,1,.53.594c-.034.6-.083,1.2-.146,1.793a.563.563,0,0,1-1.119-.118c.061-.574.108-1.159.141-1.738a.563.563,0,0,1,.567-.531h.027" transform="translate(-2080.558 -209.281)" fill="none"/>
    </clipPath>
    <linearGradient id="linear-gradient-9" x1="-3.159" y1="5.264" x2="-3.157" y2="5.264" xlink:href="#linear-gradient-5"/>
    <clipPath id="clip-path-16">
      <path id="Trazado_220698" data-name="Trazado 220698" d="M2045.068,288.214a.56.56,0,0,0-.332.1q-.372.265-.737.54a.563.563,0,1,0,.676.9q.354-.266.715-.523a.563.563,0,0,0-.322-1.021" transform="translate(-2043.775 -288.214)" fill="none"/>
    </clipPath>
    <linearGradient id="linear-gradient-10" x1="-87.42" y1="122.181" x2="-87.377" y2="122.181" xlink:href="#linear-gradient-5"/>
    <clipPath id="clip-path-17">
      <path id="Trazado_220699" data-name="Trazado 220699" d="M2005.369,315.349l-6.36.583a.437.437,0,0,0-.385.331l-1.268,5.168a23.193,23.193,0,0,0-6.65,3.5l-4.98-1.885a.438.438,0,0,0-.491.129l-4.085,4.91a.438.438,0,0,0-.038.507l2.76,4.554a23.191,23.191,0,0,0-2.232,7.175l-4.851,2.187a.437.437,0,0,0-.256.439l.583,6.36a.437.437,0,0,0,.331.385l5.168,1.268a23.194,23.194,0,0,0,3.5,6.65l-1.885,4.98a.437.437,0,0,0,.13.491l4.91,4.085a.438.438,0,0,0,.507.038l4.553-2.76a23.193,23.193,0,0,0,7.176,2.232l2.187,4.851a.437.437,0,0,0,.439.256l6.36-.583a.438.438,0,0,0,.385-.331l1.268-5.168a23.194,23.194,0,0,0,6.65-3.5l4.98,1.885a.437.437,0,0,0,.491-.129l4.085-4.91a.437.437,0,0,0,.038-.506l-2.76-4.554a23.2,23.2,0,0,0,2.232-7.175l4.851-2.187a.437.437,0,0,0,.256-.439l-.583-6.36a.437.437,0,0,0-.332-.385l-5.168-1.268a23.2,23.2,0,0,0-3.5-6.65l1.885-4.98a.438.438,0,0,0-.13-.491l-4.91-4.085a.438.438,0,0,0-.506-.038l-4.554,2.759a23.192,23.192,0,0,0-7.175-2.232l-2.187-4.851a.438.438,0,0,0-.4-.258l-.04,0" transform="translate(-1976.532 -315.347)" fill="#ff7d00"/>
    </clipPath>
    <clipPath id="clip-path-19">
      <rect id="Rectángulo_46345" data-name="Rectángulo 46345" width="35.046" height="29.059" fill="none"/>
    </clipPath>
    <clipPath id="clip-path-20">
      <path id="Trazado_220702" data-name="Trazado 220702" d="M1501.226,183.979a.314.314,0,0,0-.3.223q-.115.379-.218.765a.314.314,0,1,0,.607.161q.1-.374.211-.743a.313.313,0,0,0-.3-.405" transform="translate(-1500.695 -183.979)" fill="none"/>
    </clipPath>
    <linearGradient id="linear-gradient-11" x1="-140.7" y1="155.637" x2="-140.606" y2="155.637" xlink:href="#linear-gradient-5"/>
    <clipPath id="clip-path-21">
      <path id="Trazado_220703" data-name="Trazado 220703" d="M1492.909,210.971a.314.314,0,0,1,.25.367c-.1.513-.175,1.036-.234,1.556a.314.314,0,1,1-.624-.071c.061-.534.142-1.073.241-1.6a.314.314,0,0,1,.311-.256.324.324,0,0,1,.055.005m-.406,3.165a.314.314,0,0,1,.3.326q-.014.339-.017.681,0,.444.01.892a.314.314,0,1,1-.627.019q-.014-.46-.01-.917,0-.352.018-.7a.314.314,0,0,1,.316-.3h.01m.4,3.47c.054.52.126,1.044.217,1.558a.314.314,0,1,1-.618.109c-.093-.528-.168-1.067-.223-1.6a.314.314,0,0,1,.28-.344l.036,0a.314.314,0,0,1,.309.282m.545,3.1c.128.507.276,1.015.44,1.51a.314.314,0,0,1-.6.2c-.169-.51-.321-1.033-.452-1.554a.314.314,0,0,1,.228-.381.327.327,0,0,1,.08-.009.314.314,0,0,1,.3.237m.988,2.984c.2.483.42.964.655,1.432a.314.314,0,1,1-.561.282c-.242-.481-.469-.976-.674-1.473a.314.314,0,0,1,.58-.24m1.413,2.811c.268.448.556.893.856,1.321a.314.314,0,0,1-.514.36c-.309-.441-.605-.9-.881-1.359a.314.314,0,0,1,.539-.322m1.805,2.576c.328.4.677.8,1.037,1.184a.314.314,0,0,1-.457.43c-.37-.393-.729-.8-1.067-1.218a.314.314,0,1,1,.487-.4m2.157,2.289c.383.352.785.7,1.2,1.022a.314.314,0,0,1-.391.492c-.422-.336-.836-.689-1.23-1.051a.314.314,0,0,1,.425-.463m2.463,1.955c.429.293.876.575,1.33.84a.314.314,0,0,1-.316.542c-.466-.272-.927-.562-1.368-.863a.314.314,0,1,1,.354-.519m22.845,1.363a.314.314,0,0,1-.129.425c-.475.253-.965.491-1.456.708a.314.314,0,0,1-.254-.574c.477-.211.953-.442,1.415-.688a.314.314,0,0,1,.425.129m-20.129.216c.47.229.953.444,1.437.638a.314.314,0,0,1-.234.583c-.5-.2-.995-.421-1.478-.657a.314.314,0,1,1,.275-.564m17.229,1.116a.314.314,0,0,1-.19.4c-.5.18-1.024.345-1.544.489a.314.314,0,0,1-.168-.6c.505-.14,1.01-.3,1.5-.475a.314.314,0,0,1,.4.19m-14.314.054c.5.159,1.008.3,1.515.423a.314.314,0,1,1-.147.61c-.521-.125-1.046-.272-1.559-.436a.314.314,0,1,1,.191-.6m11.251.842a.314.314,0,0,1-.246.369c-.527.105-1.065.193-1.6.26a.314.314,0,0,1-.078-.623c.518-.065,1.041-.15,1.553-.253a.313.313,0,0,1,.369.246m-8.195-.108c.515.085,1.039.151,1.56.2a.314.314,0,0,1-.056.625c-.536-.048-1.076-.117-1.606-.2a.314.314,0,0,1,.054-.624.335.335,0,0,1,.048,0m5.035.551a.314.314,0,0,1-.3.33c-.475.026-.957.036-1.433.032l-.186,0a.314.314,0,0,1,.009-.628h0l.18,0c.463,0,.931-.006,1.393-.031h.02a.314.314,0,0,1,.31.3" transform="translate(-1492.158 -210.966)" fill="none"/>
    </clipPath>
    <linearGradient id="linear-gradient-12" x1="-3.867" y1="8.158" x2="-3.864" y2="8.158" xlink:href="#linear-gradient-5"/>
    <clipPath id="clip-path-22">
      <path id="Trazado_220704" data-name="Trazado 220704" d="M1887.409,471.493a.312.312,0,0,0-.179.054q-.319.217-.646.424a.314.314,0,0,0,.335.531q.337-.213.665-.436a.314.314,0,0,0-.174-.573" transform="translate(-1886.437 -471.493)" fill="none"/>
    </clipPath>
    <linearGradient id="linear-gradient-13" x1="-117.819" y1="177.781" x2="-117.756" y2="177.781" xlink:href="#linear-gradient-5"/>
    <clipPath id="clip-path-23">
      <rect id="Rectángulo_46349" data-name="Rectángulo 46349" width="35.865" height="27.243" fill="none"/>
    </clipPath>
    <clipPath id="clip-path-24">
      <path id="Trazado_220705" data-name="Trazado 220705" d="M2001.5,303.479a.314.314,0,0,0-.312.26c-.044.255-.094.507-.147.759a.314.314,0,0,0,.614.131q.083-.388.152-.781a.314.314,0,0,0-.255-.363.3.3,0,0,0-.052,0" transform="translate(-2001.036 -303.479)" fill="none"/>
    </clipPath>
    <linearGradient id="linear-gradient-14" x1="-205.978" y1="147.256" x2="-205.875" y2="147.256" xlink:href="#linear-gradient-5"/>
    <clipPath id="clip-path-25">
      <path id="Trazado_220706" data-name="Trazado 220706" d="M1630.341,1.651c.53.018,1.065.055,1.588.11a.314.314,0,0,1,.28.345.31.31,0,0,1-.345.279c-.509-.053-1.029-.089-1.544-.107a.314.314,0,0,1,.013-.628h.008m-1.268.306a.314.314,0,0,1-.3.325q-.247.009-.494.024c-.349.021-.7.05-1.051.088a.314.314,0,0,1-.067-.624c.357-.038.721-.069,1.08-.09.17-.01.34-.019.509-.025h.015a.314.314,0,0,1,.31.3m4.433.027c.522.093,1.046.206,1.557.335a.314.314,0,0,1-.154.609c-.5-.126-1.006-.235-1.513-.326a.314.314,0,0,1,.058-.623.352.352,0,0,1,.052,0m-7.56.266a.314.314,0,0,1-.253.365c-.507.091-1.016.2-1.513.329a.314.314,0,0,1-.155-.608c.511-.13,1.035-.244,1.557-.338a.313.313,0,0,1,.365.253m10.644.515c.5.166,1,.352,1.492.554a.314.314,0,1,1-.24.58c-.476-.2-.964-.377-1.45-.538a.314.314,0,0,1,.1-.612.321.321,0,0,1,.1.016m-13.7.217a.314.314,0,0,1-.2.4c-.489.162-.977.345-1.45.541a.314.314,0,0,1-.241-.58c.487-.2.989-.39,1.493-.558a.32.32,0,0,1,.1-.016.314.314,0,0,1,.295.215m16.637,1c.472.235.942.492,1.4.761a.314.314,0,0,1-.32.54c-.443-.262-.9-.511-1.359-.74a.314.314,0,0,1,.28-.562m-19.554.165a.314.314,0,0,1-.14.421c-.459.231-.916.481-1.358.744a.314.314,0,0,1-.321-.54c.454-.27.925-.528,1.4-.765a.314.314,0,0,1,.422.14M1642.269,5.6c.436.3.866.623,1.277.952a.314.314,0,0,1-.393.49c-.4-.321-.817-.632-1.241-.926a.314.314,0,0,1,.182-.572.31.31,0,0,1,.175.056m2.483,1.992c.389.361.769.739,1.129,1.123a.314.314,0,1,1-.458.429c-.35-.374-.72-.741-1.1-1.092a.314.314,0,0,1,.427-.461m2.177,2.323c.334.412.656.84.959,1.272a.314.314,0,0,1-.514.36c-.294-.421-.608-.837-.933-1.236a.314.314,0,0,1,.488-.4m1.826,2.61c.272.455.531.925.769,1.4a.314.314,0,1,1-.56.283c-.231-.458-.483-.915-.747-1.357a.314.314,0,0,1,.539-.322m1.436,2.845c.2.488.393.99.561,1.491a.314.314,0,1,1-.6.2c-.163-.486-.346-.974-.545-1.449a.314.314,0,1,1,.579-.242m1.013,3.018c.132.512.247,1.035.342,1.555a.314.314,0,1,1-.618.112c-.093-.505-.2-1.014-.332-1.511a.314.314,0,0,1,.226-.382.309.309,0,0,1,.081-.01.314.314,0,0,1,.3.236m.572,3.131c.041.376.074.758.1,1.134q.013.227.022.453a.314.314,0,1,1-.627.025q-.009-.221-.022-.441c-.022-.366-.053-.737-.094-1.1a.314.314,0,0,1,.278-.346l.038,0a.314.314,0,0,1,.309.279m-.179,2.857a.314.314,0,0,1,.3.324c-.017.529-.052,1.064-.106,1.589a.314.314,0,1,1-.624-.064c.052-.51.087-1.03.1-1.545a.314.314,0,0,1,.317-.3Z" transform="translate(-1618.004 -1.651)" fill="none"/>
    </clipPath>
    <linearGradient id="linear-gradient-15" x1="-4.08" y1="9.472" x2="-4.078" y2="9.472" xlink:href="#linear-gradient-5"/>
    <clipPath id="clip-path-26">
      <path id="Trazado_220707" data-name="Trazado 220707" d="M1595.968,47.593a.314.314,0,0,0-.182.057q-.326.228-.644.466a.314.314,0,1,0,.377.5q.309-.232.626-.454a.314.314,0,0,0-.177-.571" transform="translate(-1595.016 -47.593)" fill="none"/>
    </clipPath>
    <linearGradient id="linear-gradient-16" x1="-101.383" y1="205.713" x2="-101.319" y2="205.713" xlink:href="#linear-gradient-5"/>
    <clipPath id="clip-path-27">
      <path id="Trazado_220708" data-name="Trazado 220708" d="M1571.5,65.307l-3.844.353a.264.264,0,0,0-.232.2l-.766,3.123a14.022,14.022,0,0,0-4.019,2.115l-3.009-1.139a.265.265,0,0,0-.3.078L1556.864,73a.264.264,0,0,0-.023.306l1.668,2.752a14.026,14.026,0,0,0-1.349,4.336l-2.932,1.322a.264.264,0,0,0-.154.265l.352,3.843a.264.264,0,0,0,.2.233l3.123.766a14.022,14.022,0,0,0,2.115,4.019l-1.139,3.009a.265.265,0,0,0,.078.3l2.967,2.468a.264.264,0,0,0,.306.023l2.752-1.668a14.014,14.014,0,0,0,4.336,1.349l1.322,2.932a.264.264,0,0,0,.265.155l3.844-.353a.264.264,0,0,0,.233-.2l.766-3.123a14.013,14.013,0,0,0,4.019-2.115l3.009,1.139a.264.264,0,0,0,.3-.078l2.468-2.967a.264.264,0,0,0,.023-.306l-1.668-2.752a14.013,14.013,0,0,0,1.349-4.336L1588.024,83a.265.265,0,0,0,.155-.265l-.353-3.844a.264.264,0,0,0-.2-.232l-3.123-.766a14.016,14.016,0,0,0-2.115-4.019l1.139-3.009a.264.264,0,0,0-.078-.3l-2.967-2.468a.264.264,0,0,0-.306-.023l-2.752,1.668a14.019,14.019,0,0,0-4.336-1.349l-1.322-2.931a.264.264,0,0,0-.241-.156h-.024" transform="translate(-1554.073 -65.306)" fill="#ff7d00"/>
    </clipPath>
    <clipPath id="clip-path-29">
      <rect id="Rectángulo_46352" data-name="Rectángulo 46352" width="7.483" height="7.483" fill="none"/>
    </clipPath>
    <clipPath id="clip-path-30">
      <rect id="Rectángulo_46353" data-name="Rectángulo 46353" width="19.255" height="19.255" fill="none"/>
    </clipPath>
    <clipPath id="clip-path-31">
      <path id="Trazado_220711" data-name="Trazado 220711" d="M411.863,2662.3a12.034,12.034,0,0,1-4.774-.467q0,.141.008.264a.862.862,0,0,0,.818.814,146.266,146.266,0,0,0,16.353.016.613.613,0,0,0,.5-.921,5.02,5.02,0,0,0-.416-.579c-3.043.263-8.325.69-12.489.874" transform="translate(-407.089 -2661.426)" fill="none"/>
    </clipPath>
    <linearGradient id="linear-gradient-17" x1="-1.946" y1="4.377" x2="-1.941" y2="4.377" xlink:href="#linear-gradient-4"/>
    <clipPath id="clip-path-32">
      <path id="Trazado_220712" data-name="Trazado 220712" d="M409.17,2589.66a11.25,11.25,0,0,0-2.092,6.552,12.029,12.029,0,0,0,4.774.467c4.164-.183,9.446-.611,12.489-.874-2.992-3.671-12.489-6.145-12.489-6.145Z" transform="translate(-407.077 -2589.66)" fill="none"/>
    </clipPath>
    <linearGradient id="linear-gradient-18" x1="-2.016" y1="2.043" x2="-2.011" y2="2.043" xlink:href="#linear-gradient"/>
    <clipPath id="clip-path-33">
      <path id="Trazado_220713" data-name="Trazado 220713" d="M426.242,2538.521l.251,4.967a1.134,1.134,0,0,0,.968,1.067,4.412,4.412,0,0,0,2.015-.167,1.342,1.342,0,0,0,.9-1.032l.867-4.835Z" transform="translate(-426.242 -2538.521)" fill="none"/>
    </clipPath>
    <linearGradient id="linear-gradient-19" x1="-7.294" y1="3.095" x2="-7.277" y2="3.095" gradientUnits="objectBoundingBox">
      <stop offset="0" stop-color="#f9b776"/>
      <stop offset="1" stop-color="#f47960"/>
    </linearGradient>
    <clipPath id="clip-path-34">
      <path id="Trazado_220714" data-name="Trazado 220714" d="M36.839,2704.178a2.361,2.361,0,0,0,1.156,2.528,6.019,6.019,0,0,0,3.2.647,2.96,2.96,0,0,0,2.4-1.43l.007-.013c-.994.636-2.39.711-4.591.314a2.619,2.619,0,0,1-2.167-2.072l0,.025" transform="translate(-36.794 -2704.153)" fill="none"/>
    </clipPath>
    <linearGradient id="linear-gradient-20" x1="-0.431" y1="1.465" x2="-0.419" y2="1.465" xlink:href="#linear-gradient-4"/>
    <clipPath id="clip-path-35">
      <path id="Trazado_220715" data-name="Trazado 220715" d="M37.372,2569.039a2.618,2.618,0,0,0,2.167,2.072c2.2.4,3.6.322,4.591-.314,1.82-3.1,2.723-7.63,3.157-10.276a3.837,3.837,0,0,0-1.525-4.134H43.5c-3.342,0-5.44,9.113-6.129,12.653" transform="translate(-37.372 -2556.386)" fill="none"/>
    </clipPath>
    <linearGradient id="linear-gradient-21" x1="-0.307" y1="1.152" x2="-0.299" y2="1.152" xlink:href="#linear-gradient"/>
    <clipPath id="clip-path-36">
      <path id="Trazado_220716" data-name="Trazado 220716" d="M98.069,2507.438a1.326,1.326,0,0,0,.69,1.5,4.7,4.7,0,0,0,2.544.616,1.107,1.107,0,0,0,.9-.738l1.8-5.14-4.712-1.125Z" transform="translate(-98.029 -2502.552)" fill="none"/>
    </clipPath>
    <linearGradient id="linear-gradient-22" x1="-1.36" y1="3.097" x2="-1.346" y2="3.097" xlink:href="#linear-gradient-19"/>
    <clipPath id="clip-path-37">
      <path id="Trazado_220717" data-name="Trazado 220717" d="M101.638,1801.819a14.87,14.87,0,0,0,5.671,2.06c5.949-16.336,24.683-49.12,24.683-49.12-2.326,14.064-3.319,50.743-3.319,50.743a9.132,9.132,0,0,0,6.337-.176c-.181-.377,10.8-68.992,10.8-68.992l-18.616-1.386c-5.381,7.86-25.552,66.87-25.552,66.87" transform="translate(-101.638 -1734.949)" fill="#15616d"/>
    </clipPath>
    <clipPath id="clip-path-38">
      <path id="Trazado_220718" data-name="Trazado 220718" d="M464.008,1873.768l-4.134,6.6.234.146,4.071-6.5,2.961-.6-.054-.27Z" transform="translate(-459.874 -1873.149)" fill="none"/>
    </clipPath>
    <linearGradient id="linear-gradient-23" x1="-5.147" y1="10.11" x2="-5.136" y2="10.11" gradientUnits="objectBoundingBox">
      <stop offset="0" stop-color="#cb236d"/>
      <stop offset="1" stop-color="#4c246d"/>
    </linearGradient>
    <clipPath id="clip-path-39">
      <path id="Trazado_220719" data-name="Trazado 220719" d="M904.157,970.211a4.114,4.114,0,0,0-2.015,2.026c-1.347,2.951-5.379,10.353-13.2,13.885a21.535,21.535,0,0,1,3.728,9.827c4.7-3.495,8.749-9.331,10.7-18.9a3.819,3.819,0,0,0,3.331-.092c.977-.474,2.1-1.147,2.951-1.676a3.868,3.868,0,0,0,1.716-2.3,13.363,13.363,0,0,0,.133-3.568l3.807-1.18a1.354,1.354,0,0,0,.763-1.728,73.574,73.574,0,0,0-11.912,3.714" transform="translate(-888.946 -966.497)" fill="none"/>
    </clipPath>
    <linearGradient id="linear-gradient-24" x1="-1.741" y1="3.992" x2="-1.738" y2="3.992" xlink:href="#linear-gradient-19"/>
    <clipPath id="clip-path-40">
      <path id="Trazado_220720" data-name="Trazado 220720" d="M190.1,1193.073a9.074,9.074,0,0,0-5.474,4.983c-3.159,7.249-8.273,23.759,5.925,32.094a35.216,35.216,0,0,1,3.426-6.484c-2.286-3.857-2.964-9.124,1.094-15.984,2.959,7.989,4.347,19.645,4.637,24.8a11.087,11.087,0,0,1-.869,4.962l-.073.171a.587.587,0,0,0,.412.8,67.341,67.341,0,0,0,18.79,1.1,1.025,1.025,0,0,0,.913-.782c3.887-16.377,3.9-27.548,2.944-34.61,3.636.813,14.754,2.546,23.594-4.033a21.534,21.534,0,0,0-3.728-9.827c-4.857,2.194-11.174,2.9-19.219.108a8.547,8.547,0,0,0-2.3-.453c-1.224-.072-3.251-.16-5.795-.16-6.356,0-15.938.554-24.278,3.309" transform="translate(-181.073 -1189.764)" fill="#ff7d00"/>
    </clipPath>
    <clipPath id="clip-path-41">
      <path id="Trazado_220721" data-name="Trazado 220721" d="M626.84,1251.416c-.936-7.068-2.838-10.065-2.838-10.065Z" transform="translate(-624.002 -1241.351)" fill="none"/>
    </clipPath>
    <linearGradient id="linear-gradient-25" x1="-4.813" y1="18.846" x2="-4.805" y2="18.846" gradientUnits="objectBoundingBox">
      <stop offset="0" stop-color="#fdf53f"/>
      <stop offset="1" stop-color="#d93c65"/>
    </linearGradient>
    <clipPath id="clip-path-42">
      <path id="Trazado_220722" data-name="Trazado 220722" d="M408.679,1091.3a.864.864,0,0,0,.407.987c1.208.691,4.106,1.817,8.071-.126a1.8,1.8,0,0,0,1-1.692l-.349-8.262-7.606-1.985s-.809,8.549-1.521,11.078" transform="translate(-408.646 -1080.226)" fill="none"/>
    </clipPath>
    <linearGradient id="linear-gradient-26" x1="-2.073" y1="11.867" x2="-2.068" y2="11.867" xlink:href="#linear-gradient-19"/>
    <clipPath id="clip-path-43">
      <path id="Trazado_220723" data-name="Trazado 220723" d="M396.6,956.306c-.578,1.96,2,6.746,2,6.746a7.665,7.665,0,0,0,8.288,4.274c3.605-.628,2.934-2.651,2.76-5.769s-2.76-9.059-2.76-9.059-9.71,1.848-10.288,3.808" transform="translate(-396.514 -952.498)" fill="none"/>
    </clipPath>
    <linearGradient id="linear-gradient-27" x1="-1.448" y1="7.478" x2="-1.444" y2="7.478" xlink:href="#linear-gradient-19"/>
    <clipPath id="clip-path-44">
      <path id="Trazado_220724" data-name="Trazado 220724" d="M358.133,876.892l-.15.285a.245.245,0,0,1-.452-.046h0a.244.244,0,0,0-.441-.063c-.434.694-1.6,1.819-4.734,2.4-4.448.821-7.389,2.621-7.462,5.695a.245.245,0,0,1-.379.2c-.328-.2-.854-.294-1.556.3-1.222,1.027-.722,3.692,1.956,5.883a.243.243,0,0,1-.012.392c-.486.316-1.209,1.068.666,2.07a6.315,6.315,0,0,0,3.946.86.244.244,0,0,0,.2-.295l-.6-2.7a.245.245,0,0,1,.239-.3h.927l.205-.091a.5.5,0,0,0,.242-.68c-.508-.982-1.5-3.234-.219-3.759,1.65-.677,8.187-2.01,9.6-4.329a4.316,4.316,0,0,0-1.65-5.925.261.261,0,0,0-.108-.023.243.243,0,0,0-.217.129" transform="translate(-342.327 -876.763)" fill="none"/>
    </clipPath>
    <linearGradient id="linear-gradient-28" x1="-0.94" y1="6.232" x2="-0.937" y2="6.232" xlink:href="#linear-gradient"/>
    <clipPath id="clip-path-45">
      <path id="Trazado_220725" data-name="Trazado 220725" d="M399.17,1022.428c-1.7,1.064.883,4.252,2.251,4.394l.437-1.663s-.759-2.919-2.093-2.919a1.115,1.115,0,0,0-.595.188" transform="translate(-398.609 -1022.24)" fill="none"/>
    </clipPath>
    <linearGradient id="linear-gradient-29" x1="-5.111" y1="23.727" x2="-5.098" y2="23.727" xlink:href="#linear-gradient-19"/>
    <clipPath id="clip-path-47">
      <path id="Trazado_220727" data-name="Trazado 220727" d="M291.721,1592.156c3.1,1.819,7.169,4.98,12.329,5.839l11.671-.254s-10.177-2.877-10.809-2.093c0,0-6.308-4.145-9.765-9.976a35.21,35.21,0,0,0-3.426,6.484" transform="translate(-291.721 -1585.671)" fill="none"/>
    </clipPath>
    <linearGradient id="linear-gradient-30" x1="-1.069" y1="4.021" x2="-1.066" y2="4.021" xlink:href="#linear-gradient-19"/>
    <clipPath id="clip-path-48">
      <path id="Trazado_220728" data-name="Trazado 220728" d="M437.708,1709.957c3.317-.367,8.673-3.46,8.673-3.46s-13.959-.037-14.536-.515c0,0-.241,4.65,5.863,3.975" transform="translate(-431.843 -1705.982)" fill="none"/>
    </clipPath>
    <linearGradient id="linear-gradient-31" x1="-2.467" y1="7.786" x2="-2.461" y2="7.786" xlink:href="#linear-gradient-19"/>
    <clipPath id="clip-path-49">
      <path id="Trazado_220729" data-name="Trazado 220729" d="M475.68,1690.185l-29.018.031a1.285,1.285,0,0,0-.064,2.569h.067l29.018-.031a1.285,1.285,0,1,0,.02-2.57h-.023" transform="translate(-445.365 -1690.185)" fill="none"/>
    </clipPath>
    <linearGradient id="linear-gradient-32" x1="-3.877" y1="3.426" x2="-3.87" y2="3.426" xlink:href="#linear-gradient"/>
    <clipPath id="clip-path-50">
      <path id="Trazado_220730" data-name="Trazado 220730" d="M658.062,1416.123a4.609,4.609,0,0,0-4.166,2.613l-11.172,23.44h30.032a2.8,2.8,0,0,0,2.6-1.752l8.663-21.69a1.912,1.912,0,0,0-1.795-2.611Z" transform="translate(-642.724 -1416.123)" fill="none"/>
    </clipPath>
    <linearGradient id="linear-gradient-33" x1="-1.073" y1="2.641" x2="-1.071" y2="2.641" xlink:href="#linear-gradient"/>
    <clipPath id="clip-path-51">
      <path id="Trazado_220731" data-name="Trazado 220731" d="M902.741,1530.9c-.524,1.61-.137,3.173.864,3.492s2.237-.728,2.76-2.338.137-3.173-.864-3.492a1.22,1.22,0,0,0-.372-.057c-.918,0-1.928.98-2.388,2.395" transform="translate(-902.507 -1528.505)" fill="none"/>
    </clipPath>
    <linearGradient id="linear-gradient-34" x1="-10.33" y1="13.697" x2="-10.318" y2="13.697" xlink:href="#linear-gradient-4"/>
    <clipPath id="clip-path-52">
      <path id="Trazado_220732" data-name="Trazado 220732" d="M618.588,9.707s-14.54-5.646-17.329,9.478c-9.117,2.215-11.486,14.27-5.556,20.16a5.065,5.065,0,0,0,3.525,1.477l57.1.521a3.765,3.765,0,0,0,3.638-2.722c1.784-6.095,4.121-20.245-12.463-20.639a.442.442,0,0,1-.429-.436c-.044-2.444-.8-14.579-11.352-17.115A14.861,14.861,0,0,0,632.242,0c-9.342,0-13.654,9.7-13.654,9.7" transform="translate(-592.451 -0.004)" fill="none"/>
    </clipPath>
    <linearGradient id="linear-gradient-35" x1="-1.286" y1="3.277" x2="-1.284" y2="3.277" gradientUnits="objectBoundingBox">
      <stop offset="0" stop-color="#5ab6ff"/>
      <stop offset="1" stop-color="#2f68e3"/>
    </linearGradient>
    <clipPath id="clip-path-53">
      <path id="Trazado_220733" data-name="Trazado 220733" d="M636.653,25.976S622.9,20.7,620.267,34.827c-8.538,2.049-10.817,13.11-5.413,18.666a5.068,5.068,0,0,0,3.588,1.54l53.748.484a3.765,3.765,0,0,0,3.64-2.732C677.508,47,679.5,34.079,664.013,33.7a.442.442,0,0,1-.429-.436c-.047-2.344-.792-13.6-10.734-15.955a14.217,14.217,0,0,0-3.287-.4c-8.833,0-12.911,9.061-12.911,9.061" transform="translate(-611.939 -16.915)" fill="none"/>
    </clipPath>
    <linearGradient id="linear-gradient-36" x1="-1.086" y1="3.299" x2="-1.084" y2="3.299" xlink:href="#linear-gradient-4"/>
  </defs>
  <g id="Grupo_156339" data-name="Grupo 156339">
    <g id="Grupo_156221" data-name="Grupo 156221" transform="translate(82.894 167.804)">
      <g id="Grupo_156220" data-name="Grupo 156220" clip-path="url(#clip-path)">
        <rect id="Rectángulo_46325" data-name="Rectángulo 46325" width="68.153" height="54.018" transform="translate(-2.558 0.129) rotate(-2.891)" fill="url(#linear-gradient)"/>
      </g>
    </g>
    <g id="Grupo_156223" data-name="Grupo 156223" transform="translate(62.448 214.729)">
      <g id="Grupo_156222" data-name="Grupo 156222" clip-path="url(#clip-path-2)">
        <rect id="Rectángulo_46326" data-name="Rectángulo 46326" width="56.604" height="101.744" transform="matrix(0.414, -0.91, 0.91, 0.414, -5.794, 11.787)" fill="url(#linear-gradient-2)"/>
      </g>
    </g>
    <g id="Grupo_156225" data-name="Grupo 156225" transform="translate(6.164 45.32)">
      <g id="Grupo_156224" data-name="Grupo 156224" clip-path="url(#clip-path-3)">
        <rect id="Rectángulo_46327" data-name="Rectángulo 46327" width="224.29" height="150.624" transform="translate(0 0)" fill="url(#linear-gradient-3)"/>
      </g>
    </g>
    <g id="Grupo_156227" data-name="Grupo 156227" transform="translate(13.46 49.838)">
      <g id="Grupo_156226" data-name="Grupo 156226" clip-path="url(#clip-path-4)">
        <rect id="Rectángulo_46328" data-name="Rectángulo 46328" width="236.08" height="241.663" transform="matrix(0.669, -0.743, 0.743, 0.669, -65.359, 72.591)" fill="url(#linear-gradient-4)"/>
      </g>
    </g>
    <g id="Grupo_156256" data-name="Grupo 156256" transform="translate(0 0)">
      <g id="Grupo_156255" data-name="Grupo 156255" clip-path="url(#clip-path-5)">
        <g id="Grupo_156230" data-name="Grupo 156230" transform="translate(13.172 180.905)" opacity="0.65">
          <g id="Grupo_156229" data-name="Grupo 156229">
            <g id="Grupo_156228" data-name="Grupo 156228" clip-path="url(#clip-path-6)">
              <path id="Trazado_220664" data-name="Trazado 220664" d="M362.258,2117.421h-.006l-208.146-4.213a.288.288,0,1,1,.012-.577l208.146,4.214a.288.288,0,0,1-.006.576" transform="translate(-153.823 -2112.631)" fill="#fff"/>
            </g>
          </g>
        </g>
        <path id="Trazado_220665" data-name="Trazado 220665" d="M1378.9,2549.793a.288.288,0,0,1,0-.577l3.971-.058h0a.288.288,0,0,1,0,.577l-3.971.058Z" transform="translate(-1260.559 -2330.874)" fill="#fff"/>
        <path id="Trazado_220666" data-name="Trazado 220666" d="M768.679,2558.678a.292.292,0,0,1-.046,0,.288.288,0,0,1-.239-.33l.567-3.548a3.932,3.932,0,0,1,3.832-3.318l42.116-.616a.3.3,0,0,1,.292.284.288.288,0,0,1-.284.292l-42.116.616a3.357,3.357,0,0,0-3.272,2.832l-.567,3.548a.288.288,0,0,1-.284.243" transform="translate(-702.593 -2332.433)" fill="#fff"/>
        <path id="Trazado_220667" data-name="Trazado 220667" d="M402.921,753.636a3.487,3.487,0,1,1-3.487-3.487,3.487,3.487,0,0,1,3.487,3.487" transform="translate(-362.043 -685.914)" fill="#fff"/>
        <path id="Trazado_220668" data-name="Trazado 220668" d="M402.921,969.085a3.487,3.487,0,1,1-3.487-3.487,3.487,3.487,0,0,1,3.487,3.487" transform="translate(-362.043 -882.914)" fill="#fff"/>
        <path id="Trazado_220669" data-name="Trazado 220669" d="M402.921,1184.534a3.487,3.487,0,1,1-3.487-3.487,3.487,3.487,0,0,1,3.487,3.487" transform="translate(-362.043 -1079.914)" fill="#fff"/>
        <path id="Trazado_220670" data-name="Trazado 220670" d="M402.921,1399.983a3.487,3.487,0,1,1-3.487-3.487,3.487,3.487,0,0,1,3.487,3.487" transform="translate(-362.043 -1276.914)" fill="#fff"/>
        <path id="Trazado_220671" data-name="Trazado 220671" d="M402.921,1639a3.487,3.487,0,1,1-3.487-3.487,3.487,3.487,0,0,1,3.487,3.487" transform="translate(-362.043 -1495.46)" fill="#fff"/>
        <path id="Trazado_220672" data-name="Trazado 220672" d="M402.921,1854.445a3.487,3.487,0,1,1-3.487-3.487,3.487,3.487,0,0,1,3.487,3.487" transform="translate(-362.043 -1692.461)" fill="#fff"/>
        <g id="Grupo_156233" data-name="Grupo 156233" transform="translate(49.471 54.09)" opacity="0.7">
          <g id="Grupo_156232" data-name="Grupo 156232">
            <g id="Grupo_156231" data-name="Grupo 156231" clip-path="url(#clip-path-7)">
              <path id="Trazado_220673" data-name="Trazado 220673" d="M581.388,754.771h-3.275a.38.38,0,0,1-.38-.38V632.062a.38.38,0,0,1,.38-.38h3.275a.38.38,0,0,1,.38.38V754.39a.38.38,0,0,1-.38.38" transform="translate(-577.733 -631.682)" fill="#fff"/>
            </g>
          </g>
        </g>
        <g id="Grupo_156236" data-name="Grupo 156236" transform="translate(59.272 76.575)" opacity="0.6">
          <g id="Grupo_156235" data-name="Grupo 156235">
            <g id="Grupo_156234" data-name="Grupo 156234" clip-path="url(#clip-path-8)">
              <path id="Trazado_220674" data-name="Trazado 220674" d="M794.72,898.3H692.57a.38.38,0,0,1-.38-.38v-3.275a.38.38,0,0,1,.38-.38H794.72a.38.38,0,0,1,.38.38v3.275a.38.38,0,0,1-.38.38" transform="translate(-692.19 -894.261)" fill="#fff"/>
              <path id="Trazado_220675" data-name="Trazado 220675" d="M729.957,1051.071H692.57a.38.38,0,0,1-.38-.38v-3.275a.38.38,0,0,1,.38-.38h37.386a.38.38,0,0,1,.38.38v3.275a.38.38,0,0,1-.38.38" transform="translate(-692.19 -1033.953)" fill="#fff"/>
              <path id="Trazado_220676" data-name="Trazado 220676" d="M2009.183,1353.041H1971.8a.38.38,0,0,1-.38-.38v-3.275a.38.38,0,0,1,.38-.38h37.386a.38.38,0,0,1,.38.38v3.275a.38.38,0,0,1-.38.38" transform="translate(-1861.877 -1310.065)" fill="#fff"/>
              <path id="Trazado_220677" data-name="Trazado 220677" d="M1416.376,1502.966H1378.99a.38.38,0,0,1-.38-.38v-3.275a.38.38,0,0,1,.38-.38h37.386a.38.38,0,0,1,.38.38v3.275a.38.38,0,0,1-.38.38" transform="translate(-1319.832 -1447.152)" fill="#fff"/>
              <path id="Trazado_220678" data-name="Trazado 220678" d="M1233.775,1639.544h-22.781a.38.38,0,0,1-.38-.38v-3.275a.38.38,0,0,1,.38-.38h22.781a.38.38,0,0,1,.38.38v3.275a.38.38,0,0,1-.38.38" transform="translate(-1166.221 -1572.035)" fill="#fff"/>
              <path id="Trazado_220679" data-name="Trazado 220679" d="M732.184,1764.1H709.4a.381.381,0,0,1-.38-.38v-3.275a.38.38,0,0,1,.38-.38h22.781a.38.38,0,0,1,.38.38v3.275a.38.38,0,0,1-.38.38" transform="translate(-707.582 -1685.926)" fill="#fff"/>
              <path id="Trazado_220680" data-name="Trazado 220680" d="M746.789,1639.544H709.4a.38.38,0,0,1-.38-.38v-3.275a.38.38,0,0,1,.38-.38h37.386a.38.38,0,0,1,.38.38v3.275a.38.38,0,0,1-.38.38" transform="translate(-707.581 -1572.035)" fill="#fff"/>
              <path id="Trazado_220681" data-name="Trazado 220681" d="M1608.784,1639.544h-62.273a.38.38,0,0,1-.38-.38v-3.275a.38.38,0,0,1,.38-.38h62.273a.38.38,0,0,1,.38.38v3.275a.38.38,0,0,1-.38.38" transform="translate(-1473.008 -1572.035)" fill="#fff"/>
              <path id="Trazado_220682" data-name="Trazado 220682" d="M1770.442,1202.237h-54.49a.38.38,0,0,1-.38-.38v-3.275a.38.38,0,0,1,.38-.38h54.49a.38.38,0,0,1,.38.38v3.275a.38.38,0,0,1-.38.38" transform="translate(-1627.94 -1172.174)" fill="#fff"/>
              <path id="Trazado_220683" data-name="Trazado 220683" d="M747.06,1502.966H692.57a.38.38,0,0,1-.38-.38v-3.275a.38.38,0,0,1,.38-.38h54.49a.38.38,0,0,1,.38.38v3.275a.38.38,0,0,1-.38.38" transform="translate(-692.19 -1447.152)" fill="#fff"/>
              <path id="Trazado_220684" data-name="Trazado 220684" d="M1279.308,1051.071h-81.779a.38.38,0,0,1-.38-.38v-3.275a.38.38,0,0,1,.38-.38h81.779a.38.38,0,0,1,.38.38v3.275a.38.38,0,0,1-.38.38" transform="translate(-1153.909 -1033.953)" fill="#fff"/>
              <path id="Trazado_220685" data-name="Trazado 220685" d="M774.35,1202.237H692.571a.38.38,0,0,1-.38-.38v-3.275a.38.38,0,0,1,.38-.38H774.35a.38.38,0,0,1,.38.38v3.275a.38.38,0,0,1-.38.38" transform="translate(-692.191 -1172.174)" fill="#fff"/>
              <path id="Trazado_220686" data-name="Trazado 220686" d="M794.72,1353.041H692.57a.38.38,0,0,1-.38-.38v-3.275a.38.38,0,0,1,.38-.38H794.72a.38.38,0,0,1,.38.38v3.275a.38.38,0,0,1-.38.38" transform="translate(-692.19 -1310.065)" fill="#fff"/>
            </g>
          </g>
        </g>
        <path id="Trazado_220687" data-name="Trazado 220687" d="M772.687,743.245l-4.3-3.185.084-1,4.768-2.408-.122,1.447-3.287,1.581,2.975,2.122Z" transform="translate(-702.593 -673.569)" fill="#fff"/>
        <path id="Trazado_220688" data-name="Trazado 220688" d="M832.425,723.971l-4.3,9.1-1.646-.139,4.3-9.1Z" transform="translate(-755.711 -661.851)" fill="#fff"/>
        <path id="Trazado_220689" data-name="Trazado 220689" d="M896.931,748.393l3.307-1.593-3-2.111.122-1.447,4.3,3.173-.085,1-4.769,2.421Z" transform="translate(-820.015 -679.599)" fill="#fff"/>
        <path id="Trazado_220690" data-name="Trazado 220690" d="M729.508,1897.833l-4.3-3.185.084-1,4.768-2.408-.122,1.447-3.287,1.581,2.975,2.122Z" transform="translate(-663.111 -1729.289)" fill="#fff"/>
        <path id="Trazado_220691" data-name="Trazado 220691" d="M789.246,1878.559l-4.3,9.1-1.646-.139,4.3-9.1Z" transform="translate(-716.229 -1717.571)" fill="#fff"/>
        <path id="Trazado_220692" data-name="Trazado 220692" d="M853.751,1902.981l3.307-1.593-2.995-2.111.122-1.447,4.3,3.173-.084,1-4.769,2.421Z" transform="translate(-780.533 -1735.319)" fill="#fff"/>
        <g id="Grupo_156245" data-name="Grupo 156245" transform="translate(160.436 43.775)" opacity="0.24">
          <g id="Grupo_156244" data-name="Grupo 156244">
            <g id="Grupo_156243" data-name="Grupo 156243" clip-path="url(#clip-path-9)">
              <g id="Grupo_156238" data-name="Grupo 156238" transform="translate(1.312 0)">
                <g id="Grupo_156237" data-name="Grupo 156237" clip-path="url(#clip-path-10)">
                  <rect id="Rectángulo_46332" data-name="Rectángulo 46332" width="1.505" height="2.054" transform="translate(-0.062 -0.002)" fill="url(#linear-gradient-5)"/>
                </g>
              </g>
              <g id="Grupo_156240" data-name="Grupo 156240" transform="translate(0 3.711)">
                <g id="Grupo_156239" data-name="Grupo 156239" clip-path="url(#clip-path-11)">
                  <rect id="Rectángulo_46333" data-name="Rectángulo 46333" width="54.87" height="44.461" transform="translate(-0.003 -0.003)" fill="url(#linear-gradient-6)"/>
                </g>
              </g>
              <g id="Grupo_156242" data-name="Grupo 156242" transform="translate(56.201 40.74)">
                <g id="Grupo_156241" data-name="Grupo 156241" clip-path="url(#clip-path-12)">
                  <rect id="Rectángulo_46334" data-name="Rectángulo 46334" width="2.031" height="1.703" transform="translate(-0.079 -0.001)" fill="url(#linear-gradient-7)"/>
                </g>
              </g>
            </g>
          </g>
        </g>
        <g id="Grupo_156254" data-name="Grupo 156254" transform="translate(175.008 17.92)" opacity="0.24">
          <g id="Grupo_156253" data-name="Grupo 156253">
            <g id="Grupo_156252" data-name="Grupo 156252" clip-path="url(#clip-path-13)">
              <g id="Grupo_156247" data-name="Grupo 156247" transform="translate(57.531 43.179)">
                <g id="Grupo_156246" data-name="Grupo 156246" clip-path="url(#clip-path-14)">
                  <rect id="Rectángulo_46336" data-name="Rectángulo 46336" width="1.402" height="2.063" transform="translate(-0.052 -0.002)" fill="url(#linear-gradient-8)"/>
                </g>
              </g>
              <g id="Grupo_156249" data-name="Grupo 156249" transform="translate(3.15 0)">
                <g id="Grupo_156248" data-name="Grupo 156248" clip-path="url(#clip-path-15)">
                  <rect id="Rectángulo_46337" data-name="Rectángulo 46337" width="56.379" height="41.489" transform="translate(-0.08 -0.003)" fill="url(#linear-gradient-9)"/>
                </g>
              </g>
              <g id="Grupo_156251" data-name="Grupo 156251" transform="translate(0 6.759)">
                <g id="Grupo_156250" data-name="Grupo 156250" clip-path="url(#clip-path-16)">
                  <rect id="Rectángulo_46338" data-name="Rectángulo 46338" width="2.001" height="1.732" transform="translate(-0.074 -0.001)" fill="url(#linear-gradient-10)"/>
                </g>
              </g>
            </g>
          </g>
        </g>
      </g>
    </g>
    <g id="Grupo_156258" data-name="Grupo 156258" transform="translate(169.251 27.003)">
      <g id="Grupo_156257" data-name="Grupo 156257" clip-path="url(#clip-path-17)">
        <rect id="Rectángulo_46341" data-name="Rectángulo 46341" width="67.84" height="67.851" transform="matrix(0.228, -0.974, 0.974, 0.228, -12.548, 53.517)" fill="#ff7d00"/>
      </g>
    </g>
    <g id="Grupo_156278" data-name="Grupo 156278" transform="translate(0 0)">
      <g id="Grupo_156277" data-name="Grupo 156277" clip-path="url(#clip-path-5)">
        <path id="Trazado_220700" data-name="Trazado 220700" d="M2241.642,573.461a6.1,6.1,0,1,1-.9-.075,6.2,6.2,0,0,1,.9.075m2.125,10.267a5.221,5.221,0,1,0-3.884.938,5.3,5.3,0,0,0,.772.064,5.181,5.181,0,0,0,3.113-1" transform="translate(-2043.223 -524.287)" fill="#fff"/>
        <path id="Trazado_220701" data-name="Trazado 220701" d="M2140.394,463.388a15.743,15.743,0,0,0-1.588.065q-.319.029-.636.072a15.756,15.756,0,0,0-2.2.452l-.062.017q-.185.053-.37.111a.225.225,0,0,0-.158.212.221.221,0,0,0,.01.07.225.225,0,0,0,.282.148,15.3,15.3,0,0,1,3.171-.633h0a15.2,15.2,0,0,1,16.435,13.081c.029.216.054.435.074.654a15.522,15.522,0,0,1,.064,1.562,15.187,15.187,0,1,1-28.878-6.749.225.225,0,1,0-.406-.195,15.637,15.637,0,1,0,29.734,6.949,16.008,16.008,0,0,0-.066-1.608,15.659,15.659,0,0,0-15.411-14.208" transform="translate(-1942.668 -423.708)" fill="#fff"/>
        <g id="Grupo_156267" data-name="Grupo 156267" transform="translate(127.774 15.754)" opacity="0.3">
          <g id="Grupo_156266" data-name="Grupo 156266">
            <g id="Grupo_156265" data-name="Grupo 156265" clip-path="url(#clip-path-19)">
              <g id="Grupo_156260" data-name="Grupo 156260" transform="translate(0.731 0)">
                <g id="Grupo_156259" data-name="Grupo 156259" clip-path="url(#clip-path-20)">
                  <rect id="Rectángulo_46342" data-name="Rectángulo 46342" width="0.913" height="1.417" transform="translate(-0.034 -0.001)" fill="url(#linear-gradient-11)"/>
                </g>
              </g>
              <g id="Grupo_156262" data-name="Grupo 156262" transform="translate(0 2.311)">
                <g id="Grupo_156261" data-name="Grupo 156261" clip-path="url(#clip-path-21)">
                  <rect id="Rectángulo_46343" data-name="Rectángulo 46343" width="33.043" height="26.753" transform="translate(-0.002 -0.001)" fill="url(#linear-gradient-12)"/>
                </g>
              </g>
              <g id="Grupo_156264" data-name="Grupo 156264" transform="translate(33.762 24.62)">
                <g id="Grupo_156263" data-name="Grupo 156263" clip-path="url(#clip-path-22)">
                  <rect id="Rectángulo_46344" data-name="Rectángulo 46344" width="1.371" height="1.102" transform="translate(-0.044 -0.001)" fill="url(#linear-gradient-13)"/>
                </g>
              </g>
            </g>
          </g>
        </g>
        <g id="Grupo_156276" data-name="Grupo 156276" transform="translate(136.582 0.141)" opacity="0.3">
          <g id="Grupo_156275" data-name="Grupo 156275">
            <g id="Grupo_156274" data-name="Grupo 156274" clip-path="url(#clip-path-23)">
              <g id="Grupo_156269" data-name="Grupo 156269" transform="translate(34.767 25.846)">
                <g id="Grupo_156268" data-name="Grupo 156268" clip-path="url(#clip-path-24)">
                  <rect id="Rectángulo_46346" data-name="Rectángulo 46346" width="0.832" height="1.428" transform="translate(-0.029 -0.001)" fill="url(#linear-gradient-14)"/>
                </g>
              </g>
              <g id="Grupo_156271" data-name="Grupo 156271" transform="translate(1.968 0)">
                <g id="Grupo_156270" data-name="Grupo 156270" clip-path="url(#clip-path-25)">
                  <rect id="Rectángulo_46347" data-name="Rectángulo 46347" width="33.947" height="24.935" transform="translate(-0.044 -0.002)" fill="url(#linear-gradient-15)"/>
                </g>
              </g>
              <g id="Grupo_156273" data-name="Grupo 156273" transform="translate(0 3.934)">
                <g id="Grupo_156272" data-name="Grupo 156272" clip-path="url(#clip-path-26)">
                  <rect id="Rectángulo_46348" data-name="Rectángulo 46348" width="1.347" height="1.129" transform="translate(-0.041 -0.001)" fill="url(#linear-gradient-16)"/>
                </g>
              </g>
            </g>
          </g>
        </g>
      </g>
    </g>
    <g id="Grupo_156280" data-name="Grupo 156280" transform="translate(133.075 5.592)">
      <g id="Grupo_156279" data-name="Grupo 156279" clip-path="url(#clip-path-27)">
        <rect id="Rectángulo_46351" data-name="Rectángulo 46351" width="41.04" height="41.047" transform="matrix(0.23, -0.973, 0.973, 0.23, -7.634, 32.316)" fill="#ff7d00"/>
      </g>
    </g>
    <g id="Grupo_156288" data-name="Grupo 156288" transform="translate(0 0)">
      <g id="Grupo_156287" data-name="Grupo 156287" clip-path="url(#clip-path-5)">
        <g id="Grupo_156283" data-name="Grupo 156283" transform="translate(146.386 18.903)" opacity="0.56">
          <g id="Grupo_156282" data-name="Grupo 156282">
            <g id="Grupo_156281" data-name="Grupo 156281" clip-path="url(#clip-path-29)">
              <path id="Trazado_220709" data-name="Trazado 220709" d="M1713.845,220.8a3.723,3.723,0,1,1-.553-.046,3.794,3.794,0,0,1,.553.046m1.253,6.212a3.113,3.113,0,0,0-1.35-5.592h0a3.113,3.113,0,1,0-.966,6.151,3.157,3.157,0,0,0,.46.038,3.088,3.088,0,0,0,1.856-.6" transform="translate(-1709.523 -220.756)" fill="#fff"/>
            </g>
          </g>
        </g>
        <g id="Grupo_156286" data-name="Grupo 156286" transform="translate(140.56 13.075)" opacity="0.56">
          <g id="Grupo_156285" data-name="Grupo 156285">
            <g id="Grupo_156284" data-name="Grupo 156284" clip-path="url(#clip-path-30)">
              <path id="Trazado_220710" data-name="Trazado 220710" d="M1651.2,152.7a9.712,9.712,0,0,0-.978.04l-.044,0a9.656,9.656,0,0,0-1.932.387l-.034.011a.314.314,0,0,0-.22.3.309.309,0,0,0,.015.1.314.314,0,0,0,.393.206,9.051,9.051,0,0,1,1.879-.375h.007a9,9,0,1,1-7.3,5.066.311.311,0,0,0,.031-.133.314.314,0,0,0-.6-.139,9.628,9.628,0,1,0,18.307,4.268,9.763,9.763,0,0,0-.04-.98,9.641,9.641,0,0,0-9.489-8.747" transform="translate(-1641.477 -152.696)" fill="#fff"/>
            </g>
          </g>
        </g>
      </g>
    </g>
    <g id="Grupo_156290" data-name="Grupo 156290" transform="translate(34.859 227.898)">
      <g id="Grupo_156289" data-name="Grupo 156289" clip-path="url(#clip-path-31)">
        <rect id="Rectángulo_46355" data-name="Rectángulo 46355" width="17.915" height="1.923" fill="url(#linear-gradient-17)"/>
      </g>
    </g>
    <g id="Grupo_156292" data-name="Grupo 156292" transform="translate(34.858 221.753)">
      <g id="Grupo_156291" data-name="Grupo 156291" clip-path="url(#clip-path-32)">
        <rect id="Rectángulo_46356" data-name="Rectángulo 46356" width="17.284" height="7.129" transform="translate(-0.019)" fill="url(#linear-gradient-18)"/>
      </g>
    </g>
    <g id="Grupo_156294" data-name="Grupo 156294" transform="translate(36.499 217.374)">
      <g id="Grupo_156293" data-name="Grupo 156293" clip-path="url(#clip-path-33)">
        <rect id="Rectángulo_46357" data-name="Rectángulo 46357" width="5.004" height="6.12" fill="url(#linear-gradient-19)"/>
      </g>
    </g>
    <g id="Grupo_156296" data-name="Grupo 156296" transform="translate(3.151 231.557)">
      <g id="Grupo_156295" data-name="Grupo 156295" clip-path="url(#clip-path-34)">
        <rect id="Rectángulo_46358" data-name="Rectángulo 46358" width="6.957" height="3.25" transform="translate(-0.15)" fill="url(#linear-gradient-20)"/>
      </g>
    </g>
    <g id="Grupo_156298" data-name="Grupo 156298" transform="translate(3.2 218.904)">
      <g id="Grupo_156297" data-name="Grupo 156297" clip-path="url(#clip-path-35)">
        <rect id="Rectángulo_46359" data-name="Rectángulo 46359" width="10.408" height="15.122" transform="translate(0 -0.001)" fill="url(#linear-gradient-21)"/>
      </g>
    </g>
    <g id="Grupo_156300" data-name="Grupo 156300" transform="translate(8.394 214.294)">
      <g id="Grupo_156299" data-name="Grupo 156299" clip-path="url(#clip-path-36)">
        <rect id="Rectángulo_46360" data-name="Rectángulo 46360" width="6.091" height="7.111" transform="translate(-0.111)" fill="url(#linear-gradient-22)"/>
      </g>
    </g>
    <g id="Grupo_156302" data-name="Grupo 156302" transform="translate(8.703 148.564)">
      <g id="Grupo_156301" data-name="Grupo 156301" clip-path="url(#clip-path-37)">
        <rect id="Rectángulo_46361" data-name="Rectángulo 46361" width="84.26" height="75.087" transform="translate(-31.912 52.275) rotate(-58.597)" fill="#15616d"/>
      </g>
    </g>
    <g id="Grupo_156304" data-name="Grupo 156304" transform="translate(39.379 160.398)">
      <g id="Grupo_156303" data-name="Grupo 156303" clip-path="url(#clip-path-38)">
        <rect id="Rectángulo_46362" data-name="Rectángulo 46362" width="7.616" height="7.517" transform="matrix(0.035, -0.999, 0.999, 0.035, -0.256, 7.359)" fill="url(#linear-gradient-23)"/>
      </g>
    </g>
    <g id="Grupo_156306" data-name="Grupo 156306" transform="translate(76.121 82.761)">
      <g id="Grupo_156305" data-name="Grupo 156305" clip-path="url(#clip-path-39)">
        <rect id="Rectángulo_46363" data-name="Rectángulo 46363" width="40.113" height="39.756" transform="matrix(0.609, -0.793, 0.793, 0.609, -14.23, 18.513)" fill="url(#linear-gradient-24)"/>
      </g>
    </g>
    <g id="Grupo_156308" data-name="Grupo 156308" transform="translate(15.505 101.88)">
      <g id="Grupo_156307" data-name="Grupo 156307" clip-path="url(#clip-path-40)">
        <rect id="Rectángulo_46364" data-name="Rectángulo 46364" width="74.904" height="83.914" transform="translate(-24.04 41.45) rotate(-65.014)" fill="#ff7d00"/>
      </g>
    </g>
    <g id="Grupo_156310" data-name="Grupo 156310" transform="translate(53.433 106.297)">
      <g id="Grupo_156309" data-name="Grupo 156309" clip-path="url(#clip-path-41)">
        <rect id="Rectángulo_46365" data-name="Rectángulo 46365" width="10.324" height="6.813" transform="translate(-3.845 8.279) rotate(-65.09)" fill="url(#linear-gradient-25)"/>
      </g>
    </g>
    <g id="Grupo_156312" data-name="Grupo 156312" transform="translate(34.992 92.5)">
      <g id="Grupo_156311" data-name="Grupo 156311" clip-path="url(#clip-path-42)">
        <rect id="Rectángulo_46366" data-name="Rectángulo 46366" width="15.436" height="12.042" transform="translate(-2.627 13.396) rotate(-79.216)" fill="url(#linear-gradient-26)"/>
      </g>
    </g>
    <g id="Grupo_156314" data-name="Grupo 156314" transform="translate(33.954 81.563)">
      <g id="Grupo_156313" data-name="Grupo 156313" clip-path="url(#clip-path-43)">
        <rect id="Rectángulo_46367" data-name="Rectángulo 46367" width="20.886" height="21.07" transform="matrix(0.794, -0.608, 0.608, 0.794, -7.953, 5.708)" fill="url(#linear-gradient-27)"/>
      </g>
    </g>
    <g id="Grupo_156316" data-name="Grupo 156316" transform="translate(29.313 75.077)">
      <g id="Grupo_156315" data-name="Grupo 156315" clip-path="url(#clip-path-44)">
        <rect id="Rectángulo_46368" data-name="Rectángulo 46368" width="26.791" height="26.535" transform="translate(-9.445 6.877) rotate(-37.836)" fill="url(#linear-gradient-28)"/>
      </g>
    </g>
    <g id="Grupo_156318" data-name="Grupo 156318" transform="translate(34.133 87.535)">
      <g id="Grupo_156317" data-name="Grupo 156317" clip-path="url(#clip-path-45)">
        <rect id="Rectángulo_46369" data-name="Rectángulo 46369" width="6.271" height="6.307" transform="translate(-3.352 1.692) rotate(-37.422)" fill="url(#linear-gradient-29)"/>
      </g>
    </g>
    <g id="Grupo_156320" data-name="Grupo 156320" transform="translate(0 0)">
      <g id="Grupo_156319" data-name="Grupo 156319" clip-path="url(#clip-path-5)">
        <path id="Trazado_220726" data-name="Trazado 220726" d="M1069.339,1015.326a.284.284,0,0,1-.22-.463c.28-.344,2.761-3.378,3.712-3.915.364-.206.572-.412.62-.614a.538.538,0,0,0-.059-.36l-2.962.594-1.662,1.427a.284.284,0,1,1-.37-.431l1.719-1.475a.284.284,0,0,1,.129-.063l3.233-.648a.283.283,0,0,1,.291.12,1.2,1.2,0,0,1,.234.967,1.634,1.634,0,0,1-.893.977,26.944,26.944,0,0,0-3.551,3.779.284.284,0,0,1-.22.1" transform="translate(-976.819 -922.94)" fill="#f8a570"/>
      </g>
    </g>
    <g id="Grupo_156322" data-name="Grupo 156322" transform="translate(24.98 135.781)">
      <g id="Grupo_156321" data-name="Grupo 156321" clip-path="url(#clip-path-47)">
        <rect id="Rectángulo_46371" data-name="Rectángulo 46371" width="23.566" height="26.805" transform="translate(-5.688 8.531) rotate(-56.31)" fill="url(#linear-gradient-30)"/>
      </g>
    </g>
    <g id="Grupo_156324" data-name="Grupo 156324" transform="translate(36.979 146.083)">
      <g id="Grupo_156323" data-name="Grupo 156323" clip-path="url(#clip-path-48)">
        <rect id="Rectángulo_46372" data-name="Rectángulo 46372" width="14.875" height="12.066" transform="translate(-2.386 1.431) rotate(-33.69)" fill="url(#linear-gradient-31)"/>
      </g>
    </g>
    <g id="Grupo_156326" data-name="Grupo 156326" transform="translate(38.137 144.731)">
      <g id="Grupo_156325" data-name="Grupo 156325" clip-path="url(#clip-path-49)">
        <rect id="Rectángulo_46373" data-name="Rectángulo 46373" width="12.326" height="30.853" transform="translate(-0.771 2.349) rotate(-71.842)" fill="url(#linear-gradient-32)"/>
      </g>
    </g>
    <g id="Grupo_156328" data-name="Grupo 156328" transform="translate(55.037 121.263)">
      <g id="Grupo_156327" data-name="Grupo 156327" clip-path="url(#clip-path-50)">
        <rect id="Rectángulo_46374" data-name="Rectángulo 46374" width="48.269" height="47.652" transform="matrix(0.726, -0.687, 0.687, 0.726, -13.006, 12.306)" fill="url(#linear-gradient-33)"/>
      </g>
    </g>
    <g id="Grupo_156330" data-name="Grupo 156330" transform="translate(77.282 130.886)">
      <g id="Grupo_156329" data-name="Grupo 156329" clip-path="url(#clip-path-51)">
        <rect id="Rectángulo_46375" data-name="Rectángulo 46375" width="7.325" height="7.754" transform="matrix(0.833, -0.553, 0.553, 0.833, -3.15, 1.899)" fill="url(#linear-gradient-34)"/>
      </g>
    </g>
    <g id="Grupo_156332" data-name="Grupo 156332" transform="translate(50.732 0)">
      <g id="Grupo_156331" data-name="Grupo 156331" clip-path="url(#clip-path-52)">
        <rect id="Rectángulo_46376" data-name="Rectángulo 46376" width="47.713" height="77.651" transform="translate(-6.291 41.036) rotate(-84.968)" fill="url(#linear-gradient-35)"/>
      </g>
    </g>
    <g id="Grupo_156334" data-name="Grupo 156334" transform="translate(52.4 1.448)">
      <g id="Grupo_156333" data-name="Grupo 156333" clip-path="url(#clip-path-53)">
        <rect id="Rectángulo_46377" data-name="Rectángulo 46377" width="53.554" height="77" transform="translate(-11.051 36.615) rotate(-76.838)" fill="url(#linear-gradient-36)"/>
      </g>
    </g>
    <g id="Grupo_156336" data-name="Grupo 156336" transform="translate(0 0)">
      <g id="Grupo_156335" data-name="Grupo 156335" clip-path="url(#clip-path-5)">
        <path id="Trazado_220734" data-name="Trazado 220734" d="M922.788,171.91l-5.081.205-.587-14.528a.335.335,0,0,1,.321-.348l4.389-.177a.357.357,0,0,1,.372.343Z" transform="translate(-838.587 -143.613)" fill="#fff"/>
        <path id="Trazado_220735" data-name="Trazado 220735" d="M906.241,321.282s3.109,5.508,4.159,7.177a.329.329,0,0,0,.577-.039l3.445-7.425c.123-.219.009-.563-.184-.555l-7.833.316c-.176.007-.27.308-.164.526" transform="translate(-828.599 -293.001)" fill="#fff"/>
        <path id="Trazado_220736" data-name="Trazado 220736" d="M1029.8,241.439l5.084-.075.213,14.538a.335.335,0,0,1-.33.34l-4.392.064a.357.357,0,0,1-.363-.352Z" transform="translate(-941.615 -220.696)" fill="#fff"/>
        <path id="Trazado_220737" data-name="Trazado 220737" d="M1018.347,164.926s-2.966-5.586-3.973-7.281a.329.329,0,0,0-.578.024L1010.162,165c-.129.216-.023.563.17.56l7.838-.115c.177,0,.277-.3.177-.521" transform="translate(-923.609 -143.999)" fill="#fff"/>
      </g>
    </g>
  </g>
</svg>
