<svg id="Grupo_155953" data-name="Grupo 155953" xmlns="http://www.w3.org/2000/svg" xmlns:xlink="http://www.w3.org/1999/xlink" width="275.687" height="275.539" viewBox="0 0 275.687 275.539">
  <defs>
    <clipPath id="clip-path">
      <rect id="Rectángulo_46226" data-name="Rectángulo 46226" width="275.687" height="275.539" fill="none"/>
    </clipPath>
    <clipPath id="clip-path-5">
      <rect id="Rectángulo_46217" data-name="Rectángulo 46217" width="90.293" height="32.607" fill="none"/>
    </clipPath>
    <clipPath id="clip-path-6">
      <rect id="Rectángulo_46219" data-name="Rectángulo 46219" width="28.01" height="9.294" fill="none"/>
    </clipPath>
  </defs>
  <g id="Grupo_155952" data-name="Grupo 155952" clip-path="url(#clip-path)">
    <g id="Grupo_155935" data-name="Grupo 155935">
      <g id="Grupo_155934" data-name="Grupo 155934" clip-path="url(#clip-path)">
        <path id="Trazado_220371" data-name="Trazado 220371" d="M118.487,51.91H101.949a6.44,6.44,0,0,1-6.44-6.44V28.932a6.44,6.44,0,0,1,6.44-6.44h16.538a6.44,6.44,0,0,1,6.44,6.44V45.47a6.44,6.44,0,0,1-6.44,6.44" transform="translate(-34.949 -8.23)" fill="#e0e0e0"/>
        <path id="Trazado_220372" data-name="Trazado 220372" d="M107.89,48.32l1.072-4a7.4,7.4,0,1,1,2.948,2.922Zm4.219-2.576.253.151a6.008,6.008,0,1,0-2.055-2.037l.155.255-.6,2.233Z" transform="translate(-39.48 -12.211)" fill="#fff"/>
        <path id="Trazado_220373" data-name="Trazado 220373" d="M120.316,44.163a1.245,1.245,0,0,0-1.058-.238c-.275.112-.45.543-.628.762a.263.263,0,0,1-.34.074,4.791,4.791,0,0,1-2.39-2.047.294.294,0,0,1,.037-.4,1.626,1.626,0,0,0,.435-.705,1.559,1.559,0,0,0-.194-.834,1.993,1.993,0,0,0-.616-.929.845.845,0,0,0-.917.136A1.864,1.864,0,0,0,114,41.456a2.143,2.143,0,0,0,.058.468,3.85,3.85,0,0,0,.449,1.034,8.014,8.014,0,0,0,.468.713,7.244,7.244,0,0,0,2.033,1.886,6.109,6.109,0,0,0,1.267.6,2.809,2.809,0,0,0,1.475.233,1.784,1.784,0,0,0,1.337-.995.866.866,0,0,0,.062-.508c-.076-.349-.549-.557-.832-.727" transform="translate(-41.715 -14.55)" fill="#fff" fill-rule="evenodd"/>
        <path id="Trazado_220374" data-name="Trazado 220374" d="M359.578,346.871a18.668,18.668,0,0,1,4.551-1.978l.937-4.505,7.611-.133,1.1,4.468a18.655,18.655,0,0,1,4.619,1.817l3.846-2.522,5.476,5.288-2.384,3.932a18.622,18.622,0,0,1,1.978,4.552l4.5.937.134,7.611-4.469,1.1a18.62,18.62,0,0,1-1.817,4.617l2.521,3.848-5.287,5.476-3.932-2.385a18.649,18.649,0,0,1-4.552,1.978l-.938,4.505-7.611.133-1.1-4.469a18.657,18.657,0,0,1-4.618-1.817l-3.846,2.522-5.477-5.288,2.384-3.933a18.648,18.648,0,0,1-1.978-4.552l-4.5-.937-.133-7.611,4.469-1.1a18.657,18.657,0,0,1,1.817-4.618l-2.521-3.847,5.287-5.476Zm4.057,10.139a8.166,8.166,0,1,0,11.546-.2,8.166,8.166,0,0,0-11.546.2" transform="translate(-126.828 -124.509)" fill="#ebebeb"/>
        <path id="Trazado_220375" data-name="Trazado 220375" d="M372.064,365.156a6.166,6.166,0,0,1,1.521-1.334,8.131,8.131,0,0,1,5.327-1.26,8.233,8.233,0,0,1,3.621,1.287,8.351,8.351,0,0,1,2.928,3.3,8.367,8.367,0,0,1,.789,4.806,8.332,8.332,0,0,1-6.893,7.14,8.373,8.373,0,0,1-4.832-.619,8.362,8.362,0,0,1-3.4-2.811,8.233,8.233,0,0,1-1.412-3.574,8.128,8.128,0,0,1,1.072-5.368,6.168,6.168,0,0,1,1.28-1.566c.044.037-.493.536-1.122,1.657a8.145,8.145,0,0,0-.9,5.228,7.982,7.982,0,0,0,4.662,6.04,7.982,7.982,0,0,0,4.579.561,7.913,7.913,0,0,0,6.516-6.75,7.987,7.987,0,0,0-.722-4.555,7.978,7.978,0,0,0-6.2-4.446,8.137,8.137,0,0,0-5.192,1.086c-1.1.668-1.578,1.222-1.617,1.179" transform="translate(-135.257 -132.654)" fill="#ebebeb"/>
        <path id="Trazado_220376" data-name="Trazado 220376" d="M359.48,346.79a1.818,1.818,0,0,1-.254-.134l-.755-.436-2.964-1.751.093-.012-5.256,5.507.015-.147,2.536,3.836.046.069-.041.074a18.618,18.618,0,0,0-1.787,4.587l-.022.09L351,358.5l-4.466,1.108.127-.164c.048,2.4.1,4.939.151,7.61l-.146-.177,4.506.928.114.024.032.112a18.56,18.56,0,0,0,1.964,4.5l.064.1-.063.105-2.379,3.936-.033-.258,5.483,5.281-.271-.025,3.844-2.526.113-.074.118.065a18.538,18.538,0,0,0,4.563,1.791l.133.032.032.134,1.1,4.468-.227-.175,7.611-.136-.223.185c.3-1.423.614-2.959.937-4.505l.029-.139.136-.039a18.484,18.484,0,0,0,4.491-1.95l0,0,.122-.073.12.073,3.932,2.385-.289.037,5.288-5.475-.027.288-2.52-3.848-.076-.117.068-.121a18.432,18.432,0,0,0,1.8-4.56l.034-.133.133-.032,4.47-1.092-.17.221q-.065-3.9-.126-7.611l.171.207-4.5-.943-.125-.027-.034-.122a18.472,18.472,0,0,0-1.949-4.5l-.063-.105.063-.1,2.391-3.928.031.241-5.466-5.3.223.02-3.853,2.512-.086.056-.089-.049a18.542,18.542,0,0,0-4.573-1.814l-.091-.023-.022-.09-1.08-4.472.137.105-7.612.1.1-.084c-.386,1.8-.7,3.271-.966,4.5l-.01.045-.044.012a19.265,19.265,0,0,0-3.48,1.339l-.819.427a1.9,1.9,0,0,1-.273.139,2.421,2.421,0,0,1,.254-.172c.174-.107.438-.268.8-.463a18.048,18.048,0,0,1,3.475-1.415l-.053.057c.248-1.231.545-2.709.909-4.511l.016-.082.085,0,7.61-.167.11,0,.027.108c.344,1.38.707,2.842,1.11,4.465l-.112-.112a18.792,18.792,0,0,1,4.663,1.819l-.174.006,3.841-2.531.119-.079.1.1,5.487,5.276.112.108-.081.133-2.378,3.936v-.209a18.878,18.878,0,0,1,2.006,4.6l-.159-.148,4.506.932.169.035,0,.172q.069,3.711.141,7.61l0,.178-.174.042-4.468,1.1.166-.165a18.885,18.885,0,0,1-1.836,4.675l-.009-.237,2.523,3.846.1.155-.128.133-5.286,5.478-.129.134-.16-.1-3.933-2.383h.242l0,0a18.9,18.9,0,0,1-4.6,2l.165-.177-.938,4.5-.038.182-.186,0-7.611.131-.183,0-.043-.178c-.377-1.543-.751-3.07-1.092-4.47l.165.166a18.963,18.963,0,0,1-4.672-1.843l.23-.008-3.849,2.518-.146.1-.125-.121-5.47-5.294-.12-.116.087-.142,2.39-3.929v.209a18.859,18.859,0,0,1-1.991-4.6l.146.136-4.5-.946-.144-.03,0-.147c-.041-2.671-.08-5.214-.116-7.611l0-.134.129-.032,4.471-1.083-.112.113a18.807,18.807,0,0,1,1.846-4.648l.005.142-2.506-3.857-.052-.08.066-.068,5.319-5.445.042-.044.05.032,2.9,1.8.745.473a2.268,2.268,0,0,1,.252.172" transform="translate(-126.73 -124.427)" fill="#ebebeb"/>
        <path id="Trazado_220377" data-name="Trazado 220377" d="M13.252,46.088A18.668,18.668,0,0,1,17.8,44.11l.937-4.505,7.611-.133,1.1,4.468a18.655,18.655,0,0,1,4.619,1.817l3.847-2.522,5.476,5.288L39,52.456a18.624,18.624,0,0,1,1.978,4.552l4.5.937.134,7.611-4.469,1.1a18.634,18.634,0,0,1-1.817,4.618l2.521,3.847-5.287,5.476-3.933-2.385a18.648,18.648,0,0,1-4.552,1.978l-.938,4.505-7.611.133-1.1-4.469a18.658,18.658,0,0,1-4.618-1.817L9.975,81.061,4.5,75.773l2.384-3.933A18.664,18.664,0,0,1,4.9,67.289L.4,66.352.267,58.74l4.469-1.1a18.658,18.658,0,0,1,1.817-4.618L4.031,49.18,9.318,43.7Zm4.057,10.139a8.166,8.166,0,1,0,11.546-.2,8.166,8.166,0,0,0-11.546.2" transform="translate(-0.098 -14.444)" fill="#ebebeb"/>
        <path id="Trazado_220378" data-name="Trazado 220378" d="M25.738,64.373a6.164,6.164,0,0,1,1.521-1.334,8.131,8.131,0,0,1,5.327-1.26,8.233,8.233,0,0,1,3.621,1.287,8.351,8.351,0,0,1,2.928,3.3,8.366,8.366,0,0,1,.789,4.806,8.331,8.331,0,0,1-6.893,7.14,8.372,8.372,0,0,1-4.832-.619,8.363,8.363,0,0,1-3.4-2.811,8.233,8.233,0,0,1-1.412-3.574,8.128,8.128,0,0,1,1.072-5.368,6.183,6.183,0,0,1,1.28-1.566c.044.037-.493.536-1.122,1.657a8.141,8.141,0,0,0-.9,5.228,7.98,7.98,0,0,0,4.661,6.04,7.981,7.981,0,0,0,4.579.561,7.913,7.913,0,0,0,6.516-6.75,7.988,7.988,0,0,0-.722-4.555,7.978,7.978,0,0,0-6.2-4.446,8.137,8.137,0,0,0-5.192,1.086c-1.1.668-1.578,1.222-1.617,1.179" transform="translate(-8.527 -22.589)" fill="#ebebeb"/>
        <path id="Trazado_220379" data-name="Trazado 220379" d="M13.153,46.007a1.659,1.659,0,0,1-.254-.134l-.755-.436L9.181,43.687l.093-.012L4.018,49.181l.015-.147L6.569,52.87l.046.07-.041.074A18.62,18.62,0,0,0,4.787,57.6l-.022.09-.091.022L.209,58.821l.127-.164c.048,2.4.1,4.939.151,7.61L.34,66.09l4.506.929.115.024.032.112a18.523,18.523,0,0,0,1.964,4.5l.063.1-.063.1L4.579,75.8l-.034-.257,5.483,5.281L9.758,80.8,13.6,78.272l.113-.074.118.065A18.562,18.562,0,0,0,18.4,80.055l.133.032.032.134,1.1,4.468-.227-.175,7.611-.136-.223.184c.3-1.422.615-2.957.937-4.5l.029-.139.136-.038a18.494,18.494,0,0,0,4.491-1.95l0,0,.122-.073.12.073,3.933,2.385-.289.037,5.288-5.475-.027.289-2.52-3.848-.076-.117.068-.12a18.43,18.43,0,0,0,1.8-4.56l.034-.133L41,66.352l4.47-1.093-.17.221q-.065-3.9-.126-7.611l.171.207-4.5-.943-.124-.027-.034-.122a18.5,18.5,0,0,0-1.95-4.5l-.063-.105.063-.1,2.391-3.928.031.241-5.466-5.3.223.02-3.853,2.512-.086.056-.089-.049a18.543,18.543,0,0,0-4.573-1.814l-.091-.023L27.2,43.9l-1.081-4.472.137.105-7.611.1.1-.084c-.386,1.8-.7,3.271-.966,4.5l-.01.045-.043.012a19.254,19.254,0,0,0-3.48,1.339l-.819.427a1.757,1.757,0,0,1-.273.138,2.637,2.637,0,0,1,.254-.172c.174-.107.438-.268.8-.463a18.026,18.026,0,0,1,3.475-1.415l-.053.057c.248-1.231.545-2.709.909-4.511l.016-.081.085,0,7.61-.167.11,0,.027.108,1.11,4.465-.113-.112a18.767,18.767,0,0,1,4.663,1.819l-.174.006,3.841-2.531.119-.079.1.1L41.425,48.3l.112.108-.081.133c-.772,1.279-1.562,2.587-2.378,3.937v-.209a18.876,18.876,0,0,1,2.006,4.6l-.159-.148,4.506.932.169.034,0,.173q.069,3.711.142,7.61l0,.178-.174.042-4.468,1.1.166-.166A18.891,18.891,0,0,1,39.437,71.3l-.009-.237q1.25,1.9,2.523,3.846l.1.155-.128.133-5.286,5.478-.13.134-.16-.1-3.933-2.383h.242l0,0a18.893,18.893,0,0,1-4.6,2l.165-.177c-.322,1.547-.642,3.081-.938,4.5l-.038.182-.186,0-7.611.131-.183,0-.044-.178c-.377-1.543-.75-3.07-1.093-4.47l.165.166a18.95,18.95,0,0,1-4.671-1.843l.23-.008L10,81.162l-.146.1-.125-.121-5.47-5.294-.12-.116.087-.143,2.39-3.928v.209a18.86,18.86,0,0,1-1.991-4.6l.146.136-4.5-.947L.12,66.42l0-.147C.077,63.6.038,61.06,0,58.663l0-.134L.129,58.5,4.6,57.414l-.112.112a18.827,18.827,0,0,1,1.846-4.647l.005.142L3.834,49.164l-.052-.079.066-.068,5.319-5.445.042-.044.05.032,2.9,1.8.745.473a2.433,2.433,0,0,1,.252.172" transform="translate(0 -14.363)" fill="#ebebeb"/>
        <path id="Trazado_220380" data-name="Trazado 220380" d="M401.844,310.251a9.86,9.86,0,0,1,2.411-1.048l.5-2.387,4.033-.071.58,2.368a9.862,9.862,0,0,1,2.447.962l2.038-1.336,2.9,2.8-1.263,2.083a9.884,9.884,0,0,1,1.048,2.412l2.387.5.07,4.032-2.368.581a9.87,9.87,0,0,1-.963,2.446L417,325.631l-2.8,2.9-2.084-1.263a9.894,9.894,0,0,1-2.412,1.047l-.5,2.387-4.033.071-.58-2.368a9.9,9.9,0,0,1-2.447-.963l-2.038,1.336-2.9-2.8,1.263-2.084a9.868,9.868,0,0,1-1.048-2.411l-2.387-.5-.071-4.032,2.368-.581a9.87,9.87,0,0,1,.963-2.446l-1.336-2.039,2.8-2.9Zm2.15,5.372a4.327,4.327,0,1,0,6.118-.108,4.326,4.326,0,0,0-6.118.108" transform="translate(-144.528 -112.246)" fill="#ebebeb"/>
        <path id="Trazado_220381" data-name="Trazado 220381" d="M45.63,3.506a9.859,9.859,0,0,1,2.411-1.048l.5-2.387L52.57,0l.58,2.368A9.865,9.865,0,0,1,55.6,3.33l2.038-1.336,2.9,2.8L59.274,6.879a9.885,9.885,0,0,1,1.048,2.412l2.387.5.07,4.033-2.368.581a9.87,9.87,0,0,1-.963,2.446l1.336,2.039-2.8,2.9L55.9,20.524a9.9,9.9,0,0,1-2.412,1.047l-.5,2.387-4.033.071-.58-2.368a9.9,9.9,0,0,1-2.447-.963l-2.038,1.336-2.9-2.8,1.263-2.084a9.87,9.87,0,0,1-1.048-2.411l-2.387-.5-.07-4.032,2.368-.581a9.87,9.87,0,0,1,.963-2.446L40.744,5.144l2.8-2.9Zm2.15,5.372A4.327,4.327,0,1,0,53.9,8.77a4.326,4.326,0,0,0-6.118.108" transform="translate(-14.18)" fill="#ebebeb"/>
        <path id="Trazado_220382" data-name="Trazado 220382" d="M408.46,319.938a3.275,3.275,0,0,1,.805-.707,4.312,4.312,0,0,1,2.823-.668,4.37,4.37,0,0,1,1.919.682,4.43,4.43,0,0,1,1.551,1.748,4.43,4.43,0,0,1,.418,2.546,4.415,4.415,0,0,1-3.652,3.783,4.441,4.441,0,0,1-2.56-.328,4.425,4.425,0,0,1-1.8-1.489,4.354,4.354,0,0,1-.748-1.893,4.306,4.306,0,0,1,.568-2.844,3.269,3.269,0,0,1,.678-.83c.023.02-.261.284-.595.878a4.317,4.317,0,0,0-.478,2.77,4.228,4.228,0,0,0,2.47,3.2,4.227,4.227,0,0,0,2.426.3,4.193,4.193,0,0,0,3.453-3.576,4.223,4.223,0,0,0-.383-2.414,4.227,4.227,0,0,0-3.285-2.356,4.313,4.313,0,0,0-2.751.575c-.582.354-.836.648-.857.625" transform="translate(-148.994 -116.562)" fill="#ebebeb"/>
        <path id="Trazado_220383" data-name="Trazado 220383" d="M401.793,310.208a.96.96,0,0,1-.134-.071l-.4-.231-1.571-.928.049-.006-2.784,2.917.008-.078,1.344,2.033.024.037-.021.039a9.843,9.843,0,0,0-.947,2.43l-.011.048-.048.012-2.366.588.067-.088c.025,1.269.052,2.617.081,4.032l-.078-.094,2.388.492.06.013.017.06a9.828,9.828,0,0,0,1.041,2.384l.034.056-.034.055-1.261,2.086-.018-.137,2.905,2.8-.144-.013,2.037-1.338.06-.039.062.035a9.824,9.824,0,0,0,2.418.949l.071.017.017.071.582,2.368-.12-.093,4.033-.073-.119.1.5-2.387.015-.074.072-.02A9.818,9.818,0,0,0,412,327.122h0l.065-.039.063.039,2.084,1.263-.153.02,2.8-2.9-.015.152-1.335-2.039-.041-.061.036-.065a9.748,9.748,0,0,0,.952-2.416l.018-.071.07-.017,2.368-.578-.09.117q-.034-2.065-.067-4.033l.091.11-2.385-.5-.067-.014-.018-.065a9.78,9.78,0,0,0-1.033-2.386l-.034-.056.034-.056,1.267-2.081.017.127-2.9-2.807.118.011-2.041,1.331-.046.03-.047-.027a9.857,9.857,0,0,0-2.423-.961l-.048-.012-.011-.048-.573-2.37.072.056-4.033.053.053-.044-.512,2.384-.005.024-.023.006a10.193,10.193,0,0,0-1.844.71l-.434.226a1.011,1.011,0,0,1-.145.074,1.245,1.245,0,0,1,.134-.091c.093-.057.232-.142.425-.245a9.62,9.62,0,0,1,1.841-.749l-.028.03c.131-.652.288-1.435.481-2.39l.008-.043h.045l4.032-.088h.058l.015.057c.182.732.374,1.506.588,2.366l-.06-.06a9.971,9.971,0,0,1,2.47.964l-.092,0,2.035-1.34.063-.042.055.053,2.907,2.8.059.057-.043.071-1.26,2.085v-.112a10.013,10.013,0,0,1,1.063,2.437l-.084-.079,2.387.494.089.018v.091q.037,1.967.075,4.032l0,.095-.092.023-2.367.582.088-.087a10,10,0,0,1-.973,2.477l0-.126,1.337,2.037.054.082-.068.071-2.8,2.9-.068.071-.085-.051L412,327.332h.126a10,10,0,0,1-2.44,1.06l.088-.094c-.171.82-.34,1.633-.5,2.387l-.02.1-.1,0-4.033.069-.1,0-.023-.094c-.2-.817-.4-1.626-.579-2.368l.087.088a10.03,10.03,0,0,1-2.475-.977l.122,0-2.04,1.334-.077.051-.066-.064-2.9-2.805-.063-.062.046-.075,1.266-2.081v.11a10.035,10.035,0,0,1-1.055-2.439l.078.072-2.386-.5-.076-.016v-.078c-.022-1.415-.042-2.763-.062-4.032v-.071l.068-.016,2.37-.574-.06.06a9.976,9.976,0,0,1,.978-2.463l0,.076-1.327-2.044-.028-.042.035-.036,2.818-2.886.022-.023.027.016,1.535.956.394.25a1.22,1.22,0,0,1,.134.091" transform="translate(-144.477 -112.203)" fill="#ebebeb"/>
        <path id="Trazado_220384" data-name="Trazado 220384" d="M290.532,364.245a18.946,18.946,0,0,1,10.735-1.181,9.372,9.372,0,0,1,5.3,2.144c1.325,1.325,1.576,3.657.055,4.795a5.5,5.5,0,0,1-3.343.769c-2.838-.03-5.987-.483-8.254,1.063-1.293.883-2.155,2.349-3.7,2.783A3.81,3.81,0,0,1,287.3,373a5.185,5.185,0,0,1-.455-4.177,6.367,6.367,0,0,1,3.683-4.575" transform="translate(-104.881 -132.755)" fill="#ebebeb"/>
        <path id="Trazado_220385" data-name="Trazado 220385" d="M279.906,328.98c2,2.583,5.877,1.727,7.677.152s2.56-3.862,3.252-6.04c1.582-4.978,3.177-10.2,2-15.27a8.161,8.161,0,0,0-2.153-4.151,5.207,5.207,0,0,0-4.638-1.4c-1.956.468-3.172,2.2-4.051,3.855a33.589,33.589,0,0,0-3.972,15.621c-.009,2.516.318,5.154,1.885,7.232" transform="translate(-101.735 -110.568)" fill="#ebebeb"/>
        <path id="Trazado_220386" data-name="Trazado 220386" d="M259.077,337.481a8.691,8.691,0,0,0,1.615-8.648,16.743,16.743,0,0,0-5.656-7.43,31.271,31.271,0,0,0-10.127-5.412,11.822,11.822,0,0,0-4.555-.7,4.871,4.871,0,0,0-3.822,2.094c-1.066,1.841-.044,4.074,1.061,5.9a69.706,69.706,0,0,0,6.651,9.174c1.994,2.328,4.277,4.624,7.317,5.676s6.194.928,7.805-.98" transform="translate(-86.389 -115.363)" fill="#ebebeb"/>
        <path id="Trazado_220387" data-name="Trazado 220387" d="M280.76,392.194a5.134,5.134,0,0,0,.181-1.174c.092-.854.207-1.926.344-3.2a42.07,42.07,0,0,1,.8-4.7,33.726,33.726,0,0,1,1.886-5.544,20,20,0,0,1,3.126-5.017,11.5,11.5,0,0,1,3.952-2.976,11.941,11.941,0,0,1,3.328-.939,6.864,6.864,0,0,0,1.29-.169,6.652,6.652,0,0,0-1.313-.018,10.924,10.924,0,0,0-3.47.818,11.538,11.538,0,0,0-4.169,3,19.6,19.6,0,0,0-3.241,5.118,31.525,31.525,0,0,0-1.872,5.635,36.226,36.226,0,0,0-.69,4.757c-.112,1.36-.155,2.461-.175,3.222a4.983,4.983,0,0,0,.027,1.185" transform="translate(-102.724 -134.824)" fill="#e0e0e0"/>
        <path id="Trazado_220388" data-name="Trazado 220388" d="M281,371.463a2.114,2.114,0,0,0,.035-.545c0-.409,0-.924,0-1.557,0-1.351,0-3.307.076-5.722.133-4.83.592-10.027,1.478-17.355.84-6.891,1.968-14.91,3.157-20.124.255-1.186.512-2.253.754-3.187s.427-1.744.618-2.4c.163-.615.3-1.116.4-1.513a2.129,2.129,0,0,0,.1-.538,2.2,2.2,0,0,0-.209.511l-.5,1.492c-.222.647-.448,1.449-.708,2.382s-.553,1.995-.833,3.179a161.311,161.311,0,0,0-3.319,18.673,174.723,174.723,0,0,0-1.325,18.871c-.032,2.421.025,4.381.093,5.733.043.632.078,1.147.105,1.556a2.1,2.1,0,0,0,.073.541" transform="translate(-102.724 -116.556)" fill="#e0e0e0"/>
        <path id="Trazado_220389" data-name="Trazado 220389" d="M270.228,360.842a9.464,9.464,0,0,0-.013-1.627,40.926,40.926,0,0,0-.55-4.407,53.543,53.543,0,0,0-1.583-6.421,49.29,49.29,0,0,0-2.965-7.6,40.321,40.321,0,0,0-8.706-12.278,21.513,21.513,0,0,0-2.048-1.724c-.314-.241-.592-.481-.875-.671l-.794-.5a11.8,11.8,0,0,0-1.512-.877,52.4,52.4,0,0,1,4.957,4,42.366,42.366,0,0,1,8.489,12.233,56.44,56.44,0,0,1,2.981,7.528,60.2,60.2,0,0,1,1.684,6.357c.371,1.832.586,3.328.715,4.364a9.526,9.526,0,0,0,.22,1.611" transform="translate(-91.913 -118.832)" fill="#e0e0e0"/>
        <path id="Trazado_220390" data-name="Trazado 220390" d="M257.429,396.772l1.427,17.7h25.113l1.427-17.7Z" transform="translate(-94.2 -145.19)" fill="#e0e0e0"/>
        <rect id="Rectángulo_46200" data-name="Rectángulo 46200" width="33.389" height="6.978" transform="translate(160.803 244.604)" fill="#e0e0e0"/>
        <path id="Trazado_220391" data-name="Trazado 220391" d="M253.6,423.625v1.934H286.44v-1.934Z" transform="translate(-92.8 -155.016)" fill="#ebebeb"/>
        <path id="Trazado_220392" data-name="Trazado 220392" d="M257.616,430.079l-1.538-3.4H286.15l-1.794,3.4Z" transform="translate(-93.706 -156.132)" fill="#e0e0e0"/>
        <path id="Trazado_220393" data-name="Trazado 220393" d="M285.174,404.462a.714.714,0,0,1-.117.163l-.375.45-1.463,1.7-.065.075-.063-.079-3.595-4.5h.207l-3.538,4.537-.111.143-.124-.134-4.2-4.522.242,0-.231.263-3.752,4.26-.126.142-.115-.148-3.54-4.537.206.009-4.361,4.5-.077.08-.059-.09-1.365-2.077-.35-.553a.81.81,0,0,1-.107-.2.953.953,0,0,1,.146.176l.387.533,1.433,2.039-.136-.01,4.29-4.554.108-.115.1.124L268,406.646l-.24-.006,3.744-4.267.231-.262.12-.136.122.133,4.185,4.53-.235.008,3.574-4.515.1-.132.1.132,3.518,4.551-.128,0,1.522-1.652.407-.427a.778.778,0,0,1,.151-.138" transform="translate(-94.445 -147.094)" fill="#f5f5f5"/>
        <path id="Trazado_220394" data-name="Trazado 220394" d="M285.866,396.506c0,.078-6.293.141-14.053.141s-14.054-.063-14.054-.141,6.291-.141,14.054-.141,14.053.063,14.053.141" transform="translate(-94.321 -145.041)" fill="#f5f5f5"/>
        <path id="Trazado_220395" data-name="Trazado 220395" d="M286.458,426.894c0,.078-6.838.141-15.273.141s-15.274-.063-15.274-.141,6.837-.141,15.274-.141,15.273.063,15.273.141" transform="translate(-93.645 -156.16)" fill="#f5f5f5"/>
        <path id="Trazado_220396" data-name="Trazado 220396" d="M211.75,271.871H193.885a6.1,6.1,0,0,1-6.1-6.1V247.91a6.1,6.1,0,0,1,6.1-6.1H211.75a6.1,6.1,0,0,1,6.1,6.1v17.864a6.1,6.1,0,0,1-6.1,6.1" transform="translate(-68.717 -88.486)" fill="#e0e0e0"/>
        <path id="Trazado_220397" data-name="Trazado 220397" d="M200.616,268.611a.668.668,0,0,1-.472-1.139l3.572-3.572a6.153,6.153,0,0,1,.445-8.138,6.109,6.109,0,1,1,.5,9.084l-3.571,3.57a.662.662,0,0,1-.472.2m7.863-13.3a4.769,4.769,0,1,0,3.375,1.4,4.74,4.74,0,0,0-3.375-1.4" transform="translate(-73.167 -92.935)" fill="#fff"/>
        <path id="Trazado_220398" data-name="Trazado 220398" d="M408.261,61.947H392.905a6.584,6.584,0,0,1-6.584-6.584V40.007a6.584,6.584,0,0,1,6.584-6.584h15.355a6.584,6.584,0,0,1,6.584,6.584V55.363a6.584,6.584,0,0,1-6.584,6.584" transform="translate(-141.365 -12.23)" fill="#e0e0e0"/>
        <path id="Trazado_220399" data-name="Trazado 220399" d="M409.273,63.007a1.2,1.2,0,1,1-1.2-1.208,1.2,1.2,0,0,1,1.2,1.208" transform="translate(-148.884 -22.614)" fill="#fff"/>
        <path id="Trazado_220400" data-name="Trazado 220400" d="M404.316,59.877a3.33,3.33,0,0,1,4.82-.063.677.677,0,0,0,.961-.952,4.7,4.7,0,0,0-6.732.055c-.6.63.35,1.592.952.961" transform="translate(-147.532 -21.029)" fill="#fff"/>
        <path id="Trazado_220401" data-name="Trazado 220401" d="M397.858,50.173a9.843,9.843,0,0,1,6.454-2.581,9.574,9.574,0,0,1,6.584,2.519c.634.6,1.6-.354.961-.952a10.98,10.98,0,0,0-7.538-2.92,11.3,11.3,0,0,0-7.412,2.973c-.659.57.3,1.527.952.961" transform="translate(-145.158 -16.92)" fill="#fff"/>
        <path id="Trazado_220402" data-name="Trazado 220402" d="M400.42,55.284a6.614,6.614,0,0,1,9.719-.139c.607.625,1.568-.327.961-.952a7.963,7.963,0,0,0-11.631.13c-.59.638.36,1.6.952.961" transform="translate(-146.108 -18.931)" fill="#fff"/>
      </g>
    </g>
    <g id="Grupo_155937" data-name="Grupo 155937">
      <g id="Grupo_155936" data-name="Grupo 155936" clip-path="url(#clip-path)">
        <path id="Trazado_220403" data-name="Trazado 220403" d="M348.912,229.577c.091,0,.165,3.2.165,7.138s-.074,7.139-.165,7.139-.165-3.2-.165-7.139.074-7.138.165-7.138" transform="translate(-127.616 -84.008)" fill="#263238"/>
        <path id="Trazado_220404" data-name="Trazado 220404" d="M264.2,95.7c-.091,0-.165-5.326-.165-11.9s.074-11.9.165-11.9.165,5.325.165,11.9-.074,11.9-.165,11.9" transform="translate(-96.616 -26.315)" fill="#263238"/>
        <path id="Trazado_220405" data-name="Trazado 220405" d="M218.631,144.389a2.158,2.158,0,0,1-.439.033l-1.259.031-4.63.053-15.274.048h-2.209a8.309,8.309,0,0,1-1.1-.041,3.859,3.859,0,0,1-1.061-.308,4.95,4.95,0,0,1-2.622-3.1,6.27,6.27,0,0,1-.275-1.906q.01-.918.02-1.781c.015-1.146.029-2.216.042-3.2.035-1.926.063-3.5.084-4.629.016-.52.029-.938.039-1.259a2.106,2.106,0,0,1,.037-.439,2.309,2.309,0,0,1,.03.439c.006.321.013.739.023,1.259.005,1.132.012,2.7.021,4.629,0,.981,0,2.051,0,3.2a11.811,11.811,0,0,0,.271,3.595,4.656,4.656,0,0,0,2.462,2.9,3.551,3.551,0,0,0,.975.28,8.09,8.09,0,0,0,1.057.036h2.209l15.274.048,4.63.053,1.259.031a2.154,2.154,0,0,1,.439.033" transform="translate(-69.439 -46.798)" fill="#263238"/>
        <path id="Trazado_220406" data-name="Trazado 220406" d="M264.145,49.4H238.67a6.584,6.584,0,0,1-6.584-6.584V17.344a6.584,6.584,0,0,1,6.584-6.584h25.475a6.584,6.584,0,0,1,6.584,6.584V42.819a6.584,6.584,0,0,1-6.584,6.584" transform="translate(-84.927 -3.937)" fill="#fff"/>
        <path id="Trazado_220407" data-name="Trazado 220407" d="M264.051,49.308a11.673,11.673,0,0,0,1.436-.2A6.564,6.564,0,0,0,268.968,47a6.335,6.335,0,0,0,1.368-2.619,13.923,13.923,0,0,0,.207-3.548c-.008-2.576-.016-5.508-.025-8.746s-.013-6.792-.02-10.6q0-1.429,0-2.906a11.155,11.155,0,0,0-.217-2.944,6.428,6.428,0,0,0-3.928-4.385,6.229,6.229,0,0,0-1.528-.379,13.964,13.964,0,0,0-1.616-.049l-3.328,0-6.864,0-14.434,0a6.472,6.472,0,0,0-3.408.984,6.109,6.109,0,0,0-1.358,1.141,6.01,6.01,0,0,0-.99,1.456,6.29,6.29,0,0,0-.555,1.657,8.993,8.993,0,0,0-.113,1.749q0,1.779,0,3.528c0,4.664-.006,9.162-.01,13.447q0,3.214-.007,6.261a16.388,16.388,0,0,0,.126,2.964,6.489,6.489,0,0,0,1.16,2.571A6.418,6.418,0,0,0,238,49.151c1.745.062,3.46.023,5.074.04l15.35.053,4.173.031,1.086.016c.244.006.37.017.37.017s-.126.011-.37.017l-1.086.016-4.173.03-15.35.053c-1.624-.01-3.307.037-5.1-.02a6.677,6.677,0,0,1-4.771-2.654,6.762,6.762,0,0,1-1.219-2.68,16.574,16.574,0,0,1-.139-3.019q0-3.045-.007-6.261c0-4.286-.006-8.784-.009-13.447q0-1.749,0-3.528a9.352,9.352,0,0,1,.118-1.808,6.586,6.586,0,0,1,.583-1.743,6.336,6.336,0,0,1,1.04-1.531,6.465,6.465,0,0,1,1.427-1.2A6.8,6.8,0,0,1,238.58,10.5l14.434,0,6.864,0,3.328,0a14.186,14.186,0,0,1,1.652.055,6.577,6.577,0,0,1,1.6.4,6.726,6.726,0,0,1,4.1,4.6,11.433,11.433,0,0,1,.218,3.017q0,1.477,0,2.906c-.007,3.81-.014,7.359-.02,10.6s-.017,6.17-.024,8.746a13.971,13.971,0,0,1-.24,3.588,6.437,6.437,0,0,1-1.424,2.664,6.548,6.548,0,0,1-3.562,2.095,5.856,5.856,0,0,1-1.08.129c-.245.007-.37,0-.37,0" transform="translate(-84.832 -3.842)" fill="#263238"/>
        <path id="Trazado_220408" data-name="Trazado 220408" d="M339.392,70.322H313.917a6.584,6.584,0,0,1-6.584-6.584V38.263a6.584,6.584,0,0,1,6.584-6.585h25.475a6.584,6.584,0,0,1,6.584,6.585V63.738a6.584,6.584,0,0,1-6.584,6.584" transform="translate(-112.461 -11.592)" fill="#fff"/>
        <path id="Trazado_220409" data-name="Trazado 220409" d="M339.3,70.226a11.69,11.69,0,0,0,1.436-.2,6.561,6.561,0,0,0,3.48-2.115,6.331,6.331,0,0,0,1.368-2.619,13.92,13.92,0,0,0,.207-3.548c-.008-2.577-.016-5.508-.025-8.747s-.013-6.792-.02-10.6q0-1.43,0-2.907a11.155,11.155,0,0,0-.217-2.944,6.429,6.429,0,0,0-3.928-4.385,6.229,6.229,0,0,0-1.528-.379,13.964,13.964,0,0,0-1.616-.049l-3.328,0-6.864,0-14.434,0a6.472,6.472,0,0,0-3.408.984,6.126,6.126,0,0,0-1.358,1.141,6.029,6.029,0,0,0-.99,1.456,6.29,6.29,0,0,0-.555,1.657,8.993,8.993,0,0,0-.113,1.749q0,1.779,0,3.528c0,4.664-.006,9.162-.009,13.447q0,3.214-.007,6.261a16.383,16.383,0,0,0,.126,2.964,6.489,6.489,0,0,0,1.16,2.571,6.418,6.418,0,0,0,4.574,2.564c1.745.062,3.46.023,5.075.04l15.35.053,4.173.032,1.086.015c.244.006.37.017.37.017s-.126.011-.37.017l-1.086.016-4.173.03-15.35.053c-1.625-.01-3.307.037-5.1-.02a6.677,6.677,0,0,1-4.77-2.654,6.759,6.759,0,0,1-1.219-2.679,16.575,16.575,0,0,1-.14-3.02q0-3.044-.007-6.261c0-4.286-.006-8.784-.01-13.447q0-1.749,0-3.528a9.352,9.352,0,0,1,.118-1.808,6.588,6.588,0,0,1,.583-1.743,6.338,6.338,0,0,1,1.04-1.531,6.465,6.465,0,0,1,1.427-1.2,6.791,6.791,0,0,1,3.583-1.034l14.434,0,6.864,0,3.328,0a14.045,14.045,0,0,1,1.652.055,6.547,6.547,0,0,1,1.6.4,6.726,6.726,0,0,1,4.1,4.6,11.432,11.432,0,0,1,.218,3.017q0,1.477,0,2.907c-.007,3.809-.014,7.358-.02,10.6s-.017,6.17-.024,8.747a13.967,13.967,0,0,1-.24,3.588A6.436,6.436,0,0,1,344.311,68a6.553,6.553,0,0,1-3.562,2.1,5.9,5.9,0,0,1-1.08.129c-.245.008-.37,0-.37,0" transform="translate(-112.367 -11.497)" fill="#263238"/>
        <path id="Trazado_220410" data-name="Trazado 220410" d="M405.675,143.915H380.2a6.584,6.584,0,0,1-6.584-6.584V111.856a6.584,6.584,0,0,1,6.584-6.584h25.475a6.584,6.584,0,0,1,6.584,6.584v25.475a6.584,6.584,0,0,1-6.584,6.584" transform="translate(-136.716 -38.522)" fill="#fff"/>
        <path id="Trazado_220411" data-name="Trazado 220411" d="M405.581,143.819a11.584,11.584,0,0,0,1.436-.2,6.569,6.569,0,0,0,3.48-2.115,6.334,6.334,0,0,0,1.368-2.62,13.921,13.921,0,0,0,.207-3.548c-.008-2.576-.016-5.508-.025-8.746s-.013-6.792-.02-10.6q0-1.429,0-2.906a11.156,11.156,0,0,0-.217-2.944,6.43,6.43,0,0,0-3.928-4.386,6.227,6.227,0,0,0-1.528-.378,13.683,13.683,0,0,0-1.615-.049l-3.328,0-6.864,0-14.434,0a6.478,6.478,0,0,0-3.408.984,6.145,6.145,0,0,0-1.358,1.141,5.976,5.976,0,0,0-.99,1.455,6.28,6.28,0,0,0-.556,1.657,8.983,8.983,0,0,0-.114,1.748q0,1.779,0,3.528c0,4.664-.006,9.162-.01,13.448q0,3.212-.007,6.261a16.388,16.388,0,0,0,.126,2.964,6.493,6.493,0,0,0,1.16,2.571,6.418,6.418,0,0,0,4.574,2.564c1.745.061,3.46.022,5.074.04l15.35.053,4.173.03,1.086.016c.244.006.37.016.37.016s-.126.011-.37.017l-1.086.016-4.173.032-15.35.053c-1.624-.01-3.307.037-5.1-.02a6.677,6.677,0,0,1-4.77-2.654,6.76,6.76,0,0,1-1.219-2.68,16.564,16.564,0,0,1-.139-3.019q0-3.044-.007-6.261c0-4.286-.006-8.784-.01-13.448q0-1.748,0-3.528a9.348,9.348,0,0,1,.118-1.808,6.585,6.585,0,0,1,.583-1.743,6.337,6.337,0,0,1,1.04-1.531,6.465,6.465,0,0,1,1.427-1.2,6.8,6.8,0,0,1,3.583-1.035l14.434,0,6.864,0,3.328,0a14.037,14.037,0,0,1,1.652.055,6.577,6.577,0,0,1,1.6.4,6.725,6.725,0,0,1,4.1,4.6,11.434,11.434,0,0,1,.218,3.017q0,1.476,0,2.906c-.007,3.81-.014,7.359-.02,10.6s-.017,6.17-.024,8.746a13.975,13.975,0,0,1-.24,3.588,6.448,6.448,0,0,1-1.424,2.664,6.547,6.547,0,0,1-3.563,2.095,5.958,5.958,0,0,1-1.08.129c-.245.007-.37,0-.37,0" transform="translate(-136.622 -38.426)" fill="#263238"/>
        <path id="Trazado_220412" data-name="Trazado 220412" d="M180.955,100.795H155.48A6.584,6.584,0,0,1,148.9,94.21V68.735a6.584,6.584,0,0,1,6.584-6.584h25.475a6.584,6.584,0,0,1,6.584,6.584V94.21a6.584,6.584,0,0,1-6.584,6.584" transform="translate(-54.485 -22.743)" fill="#fff"/>
        <path id="Trazado_220413" data-name="Trazado 220413" d="M180.861,100.7a11.689,11.689,0,0,0,1.436-.2,6.569,6.569,0,0,0,3.48-2.115,6.335,6.335,0,0,0,1.368-2.619,13.93,13.93,0,0,0,.207-3.548c-.008-2.576-.016-5.508-.025-8.746s-.013-6.792-.02-10.6q0-1.429,0-2.906a11.211,11.211,0,0,0-.217-2.944,6.433,6.433,0,0,0-3.929-4.386,6.256,6.256,0,0,0-1.528-.378,13.955,13.955,0,0,0-1.615-.049l-3.328,0-6.864,0-14.434,0a6.466,6.466,0,0,0-3.408.984,6.124,6.124,0,0,0-1.358,1.141,5.991,5.991,0,0,0-.99,1.456,6.268,6.268,0,0,0-.556,1.657,8.99,8.99,0,0,0-.113,1.749q0,1.779,0,3.528c0,4.664-.006,9.162-.01,13.447q0,3.213-.007,6.261a16.388,16.388,0,0,0,.126,2.964,6.489,6.489,0,0,0,1.16,2.571,6.418,6.418,0,0,0,4.574,2.564c1.745.062,3.46.023,5.074.04l15.35.053,4.173.03,1.086.016c.244.006.37.017.37.017s-.126.011-.37.017l-1.086.016-4.173.031-15.35.053c-1.624-.01-3.307.037-5.1-.02a6.678,6.678,0,0,1-4.771-2.654,6.766,6.766,0,0,1-1.219-2.68,16.572,16.572,0,0,1-.139-3.019q0-3.045-.007-6.261c0-4.286-.006-8.784-.01-13.447q0-1.749,0-3.528a9.351,9.351,0,0,1,.118-1.808,6.587,6.587,0,0,1,.583-1.743,6.356,6.356,0,0,1,1.04-1.531,6.464,6.464,0,0,1,1.427-1.2,6.8,6.8,0,0,1,3.583-1.035l14.434,0,6.864,0,3.328,0a14.318,14.318,0,0,1,1.652.054,6.579,6.579,0,0,1,1.6.4,6.725,6.725,0,0,1,4.1,4.6,11.433,11.433,0,0,1,.218,3.017q0,1.476,0,2.906c-.007,3.81-.014,7.359-.02,10.6s-.017,6.17-.024,8.746a13.972,13.972,0,0,1-.24,3.588,6.44,6.44,0,0,1-1.424,2.664,6.547,6.547,0,0,1-3.563,2.095,5.845,5.845,0,0,1-1.08.129c-.245.007-.37,0-.37,0" transform="translate(-54.391 -22.647)" fill="#263238"/>
        <path id="Trazado_220414" data-name="Trazado 220414" d="M363.725,136.886c0,.091-4.387.165-9.8.165s-9.8-.074-9.8-.165,4.385-.165,9.8-.165,9.8.074,9.8.165" transform="translate(-125.927 -50.03)" fill="#263238"/>
        <rect id="Rectángulo_46202" data-name="Rectángulo 46202" width="4.876" height="3.733" transform="translate(100.57 66.426)" fill="#ff725e"/>
        <rect id="Rectángulo_46203" data-name="Rectángulo 46203" width="4.876" height="12.342" transform="translate(106.742 57.817)" fill="#ff725e"/>
        <rect id="Rectángulo_46204" data-name="Rectángulo 46204" width="4.876" height="7.029" transform="translate(113.523 63.131)" fill="#ff725e"/>
        <rect id="Rectángulo_46205" data-name="Rectángulo 46205" width="4.876" height="15.923" transform="translate(119.998 54.236)" fill="#ff725e"/>
        <path id="Trazado_220415" data-name="Trazado 220415" d="M160.537,95.9a2.427,2.427,0,1,1,2.427-2.427,2.431,2.431,0,0,1-2.427,2.427m0-4.22a1.793,1.793,0,1,0,1.793,1.793,1.8,1.8,0,0,0-1.793-1.793" transform="translate(-57.857 -33.314)" fill="#ff725e"/>
        <path id="Trazado_220416" data-name="Trazado 220416" d="M171.537,81.331a2.427,2.427,0,1,1,2.427-2.427,2.43,2.43,0,0,1-2.427,2.427m0-4.22A1.793,1.793,0,1,0,173.33,78.9a1.8,1.8,0,0,0-1.793-1.793" transform="translate(-61.882 -27.985)" fill="#ff725e"/>
        <path id="Trazado_220417" data-name="Trazado 220417" d="M181.487,90.555a2.427,2.427,0,1,1,2.427-2.427,2.43,2.43,0,0,1-2.427,2.427m0-4.22a1.793,1.793,0,1,0,1.793,1.793,1.8,1.8,0,0,0-1.793-1.793" transform="translate(-65.523 -31.36)" fill="#ff725e"/>
        <path id="Trazado_220418" data-name="Trazado 220418" d="M192.119,77.183a2.427,2.427,0,1,1,2.427-2.427,2.43,2.43,0,0,1-2.427,2.427m0-4.22a1.793,1.793,0,1,0,1.793,1.793,1.8,1.8,0,0,0-1.793-1.793" transform="translate(-69.413 -26.467)" fill="#ff725e"/>
        <rect id="Rectángulo_46206" data-name="Rectángulo 46206" width="6.811" height="0.634" transform="translate(117.096 55.22) rotate(-54.896)" fill="#ff725e"/>
        <rect id="Rectángulo_46207" data-name="Rectángulo 46207" width="0.634" height="4.314" transform="translate(111.049 52.835) rotate(-43.726)" fill="#ff725e"/>
        <rect id="Rectángulo_46208" data-name="Rectángulo 46208" width="7.168" height="0.634" transform="matrix(0.613, -0.79, 0.79, 0.613, 103.598, 58.203)" fill="#ff725e"/>
        <path id="Trazado_220419" data-name="Trazado 220419" d="M192.039,122.749a1.848,1.848,0,1,1-1.848-1.848,1.848,1.848,0,0,1,1.848,1.848" transform="translate(-68.92 -44.241)" fill="#263238"/>
        <path id="Trazado_220420" data-name="Trazado 220420" d="M265.022,70.639a1.848,1.848,0,1,1-1.848-1.848,1.848,1.848,0,0,1,1.848,1.848" transform="translate(-95.627 -25.172)" fill="#263238"/>
        <path id="Trazado_220421" data-name="Trazado 220421" d="M374.18,135.915a1.848,1.848,0,1,1-1.848-1.848,1.848,1.848,0,0,1,1.848,1.848" transform="translate(-135.57 -49.059)" fill="#263238"/>
        <path id="Trazado_220422" data-name="Trazado 220422" d="M339.346,91.99a1.848,1.848,0,1,1-1.848-1.848,1.848,1.848,0,0,1,1.848,1.848" transform="translate(-122.824 -32.985)" fill="#263238"/>
        <path id="Trazado_220423" data-name="Trazado 220423" d="M192.233,31.229H180.346a6.584,6.584,0,0,1-6.584-6.584V12.758a6.584,6.584,0,0,1,6.584-6.584h11.887a6.584,6.584,0,0,1,6.584,6.584V24.645a6.584,6.584,0,0,1-6.584,6.584" transform="translate(-63.584 -2.259)" fill="#fff"/>
        <path id="Trazado_220424" data-name="Trazado 220424" d="M192.14,31.134c0-.022.313-.015.9-.1a6.3,6.3,0,0,0,2.4-.865,6.491,6.491,0,0,0,3.173-5.433c.015-.9,0-1.862,0-2.866-.006-2.013-.013-4.215-.02-6.579q0-.886,0-1.8a10.793,10.793,0,0,0-.091-1.834,5.952,5.952,0,0,0-.559-1.779,6.053,6.053,0,0,0-1.082-1.58,6.473,6.473,0,0,0-3.418-1.927,10.328,10.328,0,0,0-2.069-.128l-2.151,0-8.958,0a6.424,6.424,0,0,0-6.283,5.081,9.923,9.923,0,0,0-.144,2.107q0,1.065,0,2.11,0,2.088-.006,4.084t-.007,3.886a15.826,15.826,0,0,0,.052,1.842,6.775,6.775,0,0,0,.446,1.7,6.5,6.5,0,0,0,4.835,3.86,19.658,19.658,0,0,0,2.843.113l2.559.013,4.1.029,2.59.03.673.016a1.19,1.19,0,0,1,.23.017,1.189,1.189,0,0,1-.23.017l-.673.016-2.59.031-4.1.029-2.559.013a19.625,19.625,0,0,1-2.883-.093,6.739,6.739,0,0,1-5.047-3.983,7.024,7.024,0,0,1-.474-1.774,15.99,15.99,0,0,1-.062-1.877q0-1.89-.007-3.886t-.005-4.084q0-1.044,0-2.11a10.189,10.189,0,0,1,.147-2.174,6.744,6.744,0,0,1,6.6-5.344l8.958,0,2.151,0a10.618,10.618,0,0,1,2.132.139,6.772,6.772,0,0,1,3.577,2.028A6.332,6.332,0,0,1,198.2,9.744a6.224,6.224,0,0,1,.578,1.864,11.068,11.068,0,0,1,.087,1.879q0,.916,0,1.8c-.007,2.363-.014,4.566-.02,6.579-.008,1.007,0,1.961-.021,2.872a6.618,6.618,0,0,1-3.318,5.537,6.141,6.141,0,0,1-2.458.82,4.933,4.933,0,0,1-.9.036" transform="translate(-63.491 -2.164)" fill="#263238"/>
        <path id="Trazado_220425" data-name="Trazado 220425" d="M191.576,22.3a3.077,3.077,0,0,0,1.834-2.847,2.892,2.892,0,1,0-5.772-.027,3.073,3.073,0,0,0,1.839,2.874c-4.441.669-4.239,5.5-4.239,5.5l10.5.048s.239-4.879-4.163-5.544" transform="translate(-67.783 -5.988)" fill="#455a64"/>
        <path id="Trazado_220426" data-name="Trazado 220426" d="M195.745,27.852h-.015L185.213,27.8v-.015a6.917,6.917,0,0,1,.455-2.5,4.857,4.857,0,0,1,1.254-1.864,4.757,4.757,0,0,1,2.489-1.136,3.077,3.077,0,0,1-1.8-2.867,3.175,3.175,0,0,1,.859-2.183,2.793,2.793,0,0,1,2.042-.9h.013a3.008,3.008,0,0,1,2.889,3.107,3.087,3.087,0,0,1-1.793,2.839,4.634,4.634,0,0,1,2.461,1.142,4.854,4.854,0,0,1,1.229,1.881,7.111,7.111,0,0,1,.432,2.529Zm-10.5-.08,10.472.048a7.091,7.091,0,0,0-.431-2.5,4.794,4.794,0,0,0-1.221-1.868,4.616,4.616,0,0,0-2.5-1.143l-.056-.008.052-.022a3.05,3.05,0,0,0,1.824-2.832,2.976,2.976,0,0,0-2.858-3.075h-.013a2.762,2.762,0,0,0-2.02.887,3.144,3.144,0,0,0-.85,2.161,3.04,3.04,0,0,0,1.829,2.859l.052.022-.056.008a4.742,4.742,0,0,0-2.527,1.137A4.828,4.828,0,0,0,185.7,25.3a6.926,6.926,0,0,0-.454,2.477" transform="translate(-67.774 -5.979)" fill="#263238"/>
        <path id="Trazado_220427" data-name="Trazado 220427" d="M399.594,213.116H384.238a6.584,6.584,0,0,1-6.584-6.584V191.176a6.584,6.584,0,0,1,6.584-6.584h15.355a6.584,6.584,0,0,1,6.584,6.584v15.355a6.584,6.584,0,0,1-6.584,6.584" transform="translate(-138.194 -67.547)" fill="#fff"/>
        <path id="Trazado_220428" data-name="Trazado 220428" d="M399.5,213.021c0-.028.363,0,1.034-.122a6.622,6.622,0,0,0,2.718-1.134,6.542,6.542,0,0,0,2.553-3.8,12,12,0,0,0,.176-2.921q-.006-1.572-.012-3.317c-.006-2.326-.013-4.873-.02-7.606q0-1.025,0-2.085a11,11,0,0,0-.115-2.119,6.429,6.429,0,0,0-2.157-3.724,6.508,6.508,0,0,0-4.244-1.536l-4.924,0-10.356,0a6.432,6.432,0,0,0-6.425,6.436c0,3.345-.006,6.572-.009,9.647q0,2.306-.007,4.492a15.223,15.223,0,0,0,.071,2.128,6.019,6.019,0,0,0,.6,1.94A6.5,6.5,0,0,0,381,212.076a6.689,6.689,0,0,0,3.445.828l11.013.053,2.994.03.779.016a1.585,1.585,0,0,1,.265.017,1.576,1.576,0,0,1-.265.017l-.779.016-2.994.031-11.013.053a6.92,6.92,0,0,1-3.569-.84,6.747,6.747,0,0,1-2.747-2.87,6.285,6.285,0,0,1-.635-2.021,15.482,15.482,0,0,1-.082-2.169q0-2.185-.007-4.492c0-3.075-.006-6.3-.01-9.647a6.753,6.753,0,0,1,6.748-6.766l10.356,0,4.924,0a6.818,6.818,0,0,1,4.442,1.62,6.72,6.72,0,0,1,2.245,3.9,11.28,11.28,0,0,1,.112,2.171q0,1.06,0,2.085c-.007,2.733-.014,5.279-.02,7.606q-.006,1.743-.011,3.317a12.068,12.068,0,0,1-.206,2.964,6.647,6.647,0,0,1-2.658,3.863,6.5,6.5,0,0,1-2.781,1.1,4.767,4.767,0,0,1-.779.061,1.556,1.556,0,0,1-.266,0" transform="translate(-138.1 -67.452)" fill="#263238"/>
        <path id="Trazado_220429" data-name="Trazado 220429" d="M194.255,203.031H178.9a6.584,6.584,0,0,1-6.584-6.584V181.091a6.584,6.584,0,0,1,6.584-6.584h15.355a6.584,6.584,0,0,1,6.584,6.584v15.355a6.584,6.584,0,0,1-6.584,6.584" transform="translate(-63.055 -63.857)" fill="#fff"/>
        <path id="Trazado_220430" data-name="Trazado 220430" d="M194.161,202.936c0-.028.363,0,1.034-.122a6.622,6.622,0,0,0,2.718-1.134,6.542,6.542,0,0,0,2.553-3.8,12,12,0,0,0,.176-2.921q-.006-1.572-.012-3.317c-.006-2.326-.013-4.873-.02-7.606q0-1.024,0-2.085a10.991,10.991,0,0,0-.115-2.118,6.431,6.431,0,0,0-2.157-3.725,6.5,6.5,0,0,0-4.244-1.536l-4.924,0-10.356,0a6.432,6.432,0,0,0-6.425,6.436c0,3.345-.006,6.572-.01,9.647q0,2.306-.007,4.492a15.23,15.23,0,0,0,.071,2.128,6.018,6.018,0,0,0,.6,1.94,6.5,6.5,0,0,0,2.627,2.771,6.689,6.689,0,0,0,3.445.828l11.013.053,2.994.03.779.017a1.575,1.575,0,0,1,.265.017,1.587,1.587,0,0,1-.265.017l-.779.016-2.994.03-11.013.053a6.92,6.92,0,0,1-3.569-.84,6.747,6.747,0,0,1-2.747-2.87,6.284,6.284,0,0,1-.635-2.021,15.379,15.379,0,0,1-.082-2.169q0-2.185-.007-4.492c0-3.075-.006-6.3-.01-9.647a6.753,6.753,0,0,1,6.748-6.766l10.356,0,4.924,0a6.817,6.817,0,0,1,4.442,1.62,6.719,6.719,0,0,1,2.245,3.9,11.276,11.276,0,0,1,.112,2.171q0,1.06,0,2.085c-.007,2.733-.014,5.279-.02,7.606q-.006,1.743-.011,3.317a12.069,12.069,0,0,1-.206,2.964,6.647,6.647,0,0,1-2.658,3.863,6.5,6.5,0,0,1-2.781,1.1,4.68,4.68,0,0,1-.779.06,1.534,1.534,0,0,1-.266,0" transform="translate(-62.961 -63.762)" fill="#263238"/>
        <path id="Trazado_220431" data-name="Trazado 220431" d="M192.594,192.867a3.5,3.5,0,0,0,2.087-3.241,3.292,3.292,0,1,0-6.571-.03,3.5,3.5,0,0,0,2.094,3.271c-5.056.762-4.827,6.257-4.827,6.257l11.956.055s.273-5.554-4.739-6.312" transform="translate(-67.834 -68.102)" fill="#ff725e"/>
        <path id="Trazado_220432" data-name="Trazado 220432" d="M256.194,40.877a7.047,7.047,0,1,1,6.71-4.883,7.007,7.007,0,0,1-6.71,4.883m.01-12.824a5.778,5.778,0,1,0,1.77.28,5.787,5.787,0,0,0-1.77-.28" transform="translate(-91.172 -9.801)" fill="#263238"/>
        <path id="Trazado_220433" data-name="Trazado 220433" d="M271.578,51.66a.632.632,0,0,1-.467-.205l-5.237-5.7a.634.634,0,0,1,.935-.857l5.236,5.7a.634.634,0,0,1-.467,1.063" transform="translate(-97.229 -16.353)" fill="#263238"/>
        <path id="Trazado_220434" data-name="Trazado 220434" d="M398.088,140.69a11.752,11.752,0,1,1,11.752-11.752,11.765,11.765,0,0,1-11.752,11.752m0-22.87a11.118,11.118,0,1,0,11.118,11.118,11.131,11.131,0,0,0-11.118-11.118" transform="translate(-141.371 -42.882)" fill="#ff725e"/>
        <path id="Trazado_220435" data-name="Trazado 220435" d="M400.979,140.67a10.99,10.99,0,0,1-3.013-2.773,13.888,13.888,0,0,1-2.751-9.178,14.406,14.406,0,0,1,3.22-8.938,10.381,10.381,0,0,1,3.016-2.542l.28.569c-.055.027-5.584,2.859-5.882,10.935s5.381,11.342,5.438,11.374Z" transform="translate(-144.616 -42.901)" fill="#ff725e"/>
        <path id="Trazado_220436" data-name="Trazado 220436" d="M404.717,140.66l-.334-.539c.055-.035,5.555-3.541,5.256-11.624s-5.59-10.664-5.644-10.69l.269-.573c.233.109,5.7,2.767,6.008,11.24s-5.5,12.15-5.557,12.186" transform="translate(-147.833 -42.899)" fill="#ff725e"/>
        <path id="Trazado_220437" data-name="Trazado 220437" d="M399.6,127.841a15.157,15.157,0,0,1-9.562-2.971l.39-.5a14.532,14.532,0,0,0,9.173,2.837,13.555,13.555,0,0,0,8.816-2.823l.4.491a14.18,14.18,0,0,1-9.217,2.966" transform="translate(-142.724 -45.51)" fill="#ff725e"/>
        <path id="Trazado_220438" data-name="Trazado 220438" d="M408.452,144.567a14.836,14.836,0,0,0-9.177-2.753,13.83,13.83,0,0,0-8.819,2.739l-.394-.5a14.457,14.457,0,0,1,9.213-2.876,15.457,15.457,0,0,1,9.559,2.882Z" transform="translate(-142.734 -51.662)" fill="#ff725e"/>
        <rect id="Rectángulo_46209" data-name="Rectángulo 46209" width="22.602" height="0.634" transform="translate(245.566 85.774)" fill="#ff725e"/>
        <rect id="Rectángulo_46210" data-name="Rectángulo 46210" width="16.079" height="16.079" transform="translate(203.01 175.247)" fill="#e0e0e0"/>
        <rect id="Rectángulo_46211" data-name="Rectángulo 46211" width="16.56" height="1.376" transform="translate(223.144 176.224)" fill="#e0e0e0"/>
        <rect id="Rectángulo_46212" data-name="Rectángulo 46212" width="16.56" height="1.376" transform="translate(223.144 179.404)" fill="#e0e0e0"/>
        <rect id="Rectángulo_46213" data-name="Rectángulo 46213" width="16.56" height="1.376" transform="translate(223.144 182.584)" fill="#e0e0e0"/>
        <rect id="Rectángulo_46214" data-name="Rectángulo 46214" width="16.56" height="1.376" transform="translate(223.144 185.765)" fill="#e0e0e0"/>
        <rect id="Rectángulo_46215" data-name="Rectángulo 46215" width="16.56" height="1.376" transform="translate(223.144 188.945)" fill="#e0e0e0"/>
        <path id="Trazado_220439" data-name="Trazado 220439" d="M357.419,263.3H313.5v-6.345a4.407,4.407,0,0,1,4.407-4.407h35.037a4.471,4.471,0,0,1,4.471,4.471Z" transform="translate(-114.72 -92.414)" fill="#e0e0e0"/>
        <path id="Trazado_220440" data-name="Trazado 220440" d="M353.227,291.1a4.761,4.761,0,0,0,1.552-.342,4.113,4.113,0,0,0,1.533-1.139,4.005,4.005,0,0,0,.936-2.4c-.01-4.009-.023-9.791-.041-16.931-.006-3.576-.013-7.492-.02-11.694q0-.788,0-1.59a4.69,4.69,0,0,0-.176-1.558,4.009,4.009,0,0,0-3.55-2.831c-.545-.03-1.133-.008-1.7-.013l-3.5,0-30.755.013a4.007,4.007,0,0,0-1.883.462,3.964,3.964,0,0,0-1.415,1.3,3.843,3.843,0,0,0-.614,1.809c-.031.643-.009,1.328-.016,1.987q0,3.985,0,7.847c0,5.144-.006,10.107-.01,14.834q0,1.773,0,3.5,0,.864,0,1.716a8.316,8.316,0,0,0,.079,1.658,4.039,4.039,0,0,0,3.194,3.15,8.351,8.351,0,0,0,1.56.075l11.695.02,16.934.053,4.6.03,1.2.017c.269.006.408.017.408.017s-.138.011-.408.017l-1.2.016-4.6.031-16.934.053-11.695.02a8.59,8.59,0,0,1-1.611-.075,4.317,4.317,0,0,1-3.427-3.366,8.521,8.521,0,0,1-.089-1.715q0-.852,0-1.716,0-1.727,0-3.5c0-4.727-.006-9.69-.009-14.834q0-3.859,0-7.847c.007-.67-.017-1.318.016-2.012a4.181,4.181,0,0,1,.666-1.964,4.2,4.2,0,0,1,3.574-1.916l30.755.013,3.5,0c.58.008,1.137-.015,1.725.018a4.3,4.3,0,0,1,3.8,3.042,4.976,4.976,0,0,1,.184,1.64q0,.8,0,1.59c-.007,4.2-.014,8.119-.02,11.694-.02,7.152-.022,12.933-.064,16.938a4.126,4.126,0,0,1-2.572,3.59,4.174,4.174,0,0,1-1.169.276c-.271.008-.409,0-.409,0" transform="translate(-114.624 -92.318)" fill="#263238"/>
        <path id="Trazado_220441" data-name="Trazado 220441" d="M349.789,251.481a1.848,1.848,0,1,1-1.848-1.848,1.848,1.848,0,0,1,1.848,1.848" transform="translate(-126.645 -91.347)" fill="#263238"/>
        <path id="Trazado_220442" data-name="Trazado 220442" d="M389.118,208.339a9.183,9.183,0,0,0,14.126-8.154,6.553,6.553,0,0,0,1.611-1.671,6.455,6.455,0,0,1-1.854.508,3.23,3.23,0,0,0,1.419-1.786,6.453,6.453,0,0,1-2.049.784,3.231,3.231,0,0,0-5.5,2.945,9.162,9.162,0,0,1-6.655-3.374,3.233,3.233,0,0,0,1,4.311,3.215,3.215,0,0,1-1.463-.4,3.233,3.233,0,0,0,2.59,3.207,3.23,3.23,0,0,1-1.458.055A3.231,3.231,0,0,0,393.9,207a6.492,6.492,0,0,1-4.78,1.337" transform="translate(-142.389 -72.088)" fill="#455a64"/>
        <path id="Trazado_220443" data-name="Trazado 220443" d="M344.892,58.989a5.066,5.066,0,0,1-4.721,6.722H321.858a4.495,4.495,0,0,1-4.282-6.2,4.844,4.844,0,0,1,5.254-2.853,8.314,8.314,0,0,1,16.095-1.77s4.719-.256,5.967,4.1" transform="translate(-116.088 -18.056)" fill="#ff725e"/>
        <path id="Trazado_220444" data-name="Trazado 220444" d="M334.6,72.07V65.04h-2.754a.4.4,0,0,1-.325-.628l4.533-6.4a.4.4,0,0,1,.649,0l4.529,6.346a.4.4,0,0,1-.324.629h-2.68V72.07Z" transform="translate(-121.287 -21.168)" fill="#fff"/>
      </g>
    </g>
    <g id="Grupo_155945" data-name="Grupo 155945">
      <g id="Grupo_155944" data-name="Grupo 155944" clip-path="url(#clip-path)">
        <path id="Trazado_220445" data-name="Trazado 220445" d="M310.146,210.312l-8.277-29.132H229.522L220.1,210.215a2.717,2.717,0,0,0,2.555,3.572h33.044l1.338-1.338H272.64l1.338,1.338h33.583a2.715,2.715,0,0,0,2.584-3.474" transform="translate(-80.489 -66.299)" fill="#e0e0e0"/>
        <g id="Grupo_155940" data-name="Grupo 155940" transform="translate(139.47 114.881)" opacity="0.3">
          <g id="Grupo_155939" data-name="Grupo 155939">
            <g id="Grupo_155938" data-name="Grupo 155938" clip-path="url(#clip-path-5)">
              <path id="Trazado_220446" data-name="Trazado 220446" d="M310.146,210.312l-8.277-29.132H229.522L220.1,210.215a2.717,2.717,0,0,0,2.555,3.572h33.044l1.338-1.338H272.64l1.338,1.338h33.583a2.715,2.715,0,0,0,2.584-3.474" transform="translate(-219.959 -181.179)"/>
            </g>
          </g>
        </g>
        <path id="Trazado_220447" data-name="Trazado 220447" d="M234.991,153.558V110.813a3.059,3.059,0,0,1,3.051-3.068h66.481a3.059,3.059,0,0,1,3.051,3.068v42.745Z" transform="translate(-85.99 -39.427)" fill="#e0e0e0"/>
        <rect id="Rectángulo_46218" data-name="Rectángulo 46218" width="63.805" height="38.01" transform="translate(153.39 72.547)" fill="#fff"/>
        <path id="Trazado_220448" data-name="Trazado 220448" d="M305.622,152.33s-.009-.239-.014-.69-.008-1.127-.014-2c-.008-1.755-.018-4.323-.032-7.618-.017-6.589-.039-16.074-.068-27.705l.128.128-63.8.037h0l.165-.165c0,13.462-.008,26.313-.012,38.01l-.153-.153,45.89.075,13.176.042,3.515.018.909.01c.205,0,.314.009.314.009s-.1.006-.3.009l-.892.01-3.484.018-13.141.042-45.992.075h-.153v-.153c0-11.7-.008-24.548-.012-38.01v-.165h.17l63.8.037h.129v.128c-.029,11.664-.051,21.177-.068,27.784-.014,3.282-.025,5.84-.032,7.589q-.01,1.29-.014,1.973c-.005.443-.014.664-.014.664" transform="translate(-88.427 -41.772)" fill="#263238"/>
        <path id="Trazado_220449" data-name="Trazado 220449" d="M292.723,110.588a1.176,1.176,0,1,1-1.176-1.154,1.165,1.165,0,0,1,1.176,1.154" transform="translate(-106.255 -40.045)" fill="#263238"/>
        <path id="Trazado_220450" data-name="Trazado 220450" d="M310.146,208.613l-8.277-29.132H229.522L220.1,208.516a2.717,2.717,0,0,0,2.555,3.572h33.044l1.338-1.338H272.64l1.338,1.338h33.583a2.715,2.715,0,0,0,2.584-3.474" transform="translate(-80.489 -65.677)" fill="#e0e0e0"/>
        <path id="Trazado_220451" data-name="Trazado 220451" d="M300.885,182.3l-63.053-.212a1.465,1.465,0,0,0-1.423.878l-5.055,14.338c-.275.78.434,1.559,1.418,1.559h72.961c.98,0,1.688-.774,1.421-1.551L302.3,183.19a1.462,1.462,0,0,0-1.414-.886" transform="translate(-84.637 -66.632)" fill="#ebebeb"/>
        <g id="Grupo_155943" data-name="Grupo 155943" transform="translate(170.216 133.891)" opacity="0.1">
          <g id="Grupo_155942" data-name="Grupo 155942">
            <g id="Grupo_155941" data-name="Grupo 155941" clip-path="url(#clip-path-6)">
              <path id="Trazado_220452" data-name="Trazado 220452" d="M294.9,220.454H270.01a1.677,1.677,0,0,1-1.51-2.135l1.406-5.885a1.591,1.591,0,0,1,1.51-1.274h22.231a1.6,1.6,0,0,1,1.52,1.319l1.25,5.885a1.674,1.674,0,0,1-1.52,2.09" transform="translate(-268.448 -211.16)"/>
            </g>
          </g>
        </g>
        <path id="Trazado_220453" data-name="Trazado 220453" d="M306.9,187.644l-.648-3a.448.448,0,0,0-.438-.353h-3.882a.448.448,0,0,0-.443.511l.429,3.006a.447.447,0,0,0,.444.384l4.1-.006a.448.448,0,0,0,.437-.542" transform="translate(-110.323 -67.437)" fill="#263238"/>
        <path id="Trazado_220454" data-name="Trazado 220454" d="M288.616,187.714l-.276-3.016a.448.448,0,0,0-.446-.407h-3.967a.447.447,0,0,0-.447.464l.111,3.022a.447.447,0,0,0,.448.431l4.132-.006a.448.448,0,0,0,.446-.488" transform="translate(-103.733 -67.437)" fill="#263238"/>
        <path id="Trazado_220455" data-name="Trazado 220455" d="M297.89,187.683l-.429-3.008a.447.447,0,0,0-.443-.384h-4.564a.447.447,0,0,0-.446.488l.276,3.014a.448.448,0,0,0,.446.407l4.717-.006a.448.448,0,0,0,.443-.511" transform="translate(-106.853 -67.437)" fill="#263238"/>
        <path id="Trazado_220456" data-name="Trazado 220456" d="M252.676,187.763l.613-2.74a.6.6,0,0,0-.587-.734h-3.76a.6.6,0,0,0-.579.437l-.784,2.746a.6.6,0,0,0,.58.767l3.931-.006a.6.6,0,0,0,.587-.47" transform="translate(-90.587 -67.437)" fill="#263238"/>
        <path id="Trazado_220457" data-name="Trazado 220457" d="M336.6,187.55l-1.142-2.972a.448.448,0,0,0-.418-.287H327.66a.447.447,0,0,0-.42.6l1.11,2.983a.448.448,0,0,0,.42.291l7.41-.01a.448.448,0,0,0,.417-.608" transform="translate(-119.736 -67.437)" fill="#263238"/>
        <path id="Trazado_220458" data-name="Trazado 220458" d="M279.105,184.291h-4.29a.447.447,0,0,0-.447.426l-.146,3.031a.447.447,0,0,0,.448.469l4.548-.006a.448.448,0,0,0,.447-.464l-.112-3.025a.447.447,0,0,0-.447-.431" transform="translate(-100.345 -67.437)" fill="#263238"/>
        <path id="Trazado_220459" data-name="Trazado 220459" d="M244.241,184.291h-2.992a.6.6,0,0,0-.567.4l-.988,2.752a.6.6,0,0,0,.568.805l3.193,0a.6.6,0,0,0,.578-.436l.786-2.748a.6.6,0,0,0-.579-.767" transform="translate(-87.698 -67.437)" fill="#263238"/>
        <path id="Trazado_220460" data-name="Trazado 220460" d="M261.5,187.836l.4-3.04a.447.447,0,0,0-.443-.506H257.64a.448.448,0,0,0-.437.35l-.682,3.046a.448.448,0,0,0,.437.546l4.1-.006a.447.447,0,0,0,.443-.389" transform="translate(-93.864 -67.437)" fill="#263238"/>
        <path id="Trazado_220461" data-name="Trazado 220461" d="M265.66,184.68l-.4,3.038a.448.448,0,0,0,.444.506l4.247-.006a.447.447,0,0,0,.446-.426l.146-3.033a.448.448,0,0,0-.447-.469h-4a.448.448,0,0,0-.444.39" transform="translate(-97.065 -67.437)" fill="#263238"/>
        <path id="Trazado_220462" data-name="Trazado 220462" d="M315.825,187.6l-.887-2.992a.447.447,0,0,0-.429-.32h-4.138a.447.447,0,0,0-.437.542l.647,3a.448.448,0,0,0,.438.353l4.378-.006a.448.448,0,0,0,.429-.575" transform="translate(-113.409 -67.437)" fill="#263238"/>
        <path id="Trazado_220463" data-name="Trazado 220463" d="M324.584,187.566l-1.111-2.985a.447.447,0,0,0-.419-.292h-3.8a.448.448,0,0,0-.429.575l.886,2.99a.448.448,0,0,0,.43.32l4.024-.006a.447.447,0,0,0,.419-.6" transform="translate(-116.66 -67.437)" fill="#263238"/>
        <path id="Trazado_220464" data-name="Trazado 220464" d="M279.144,191.548h-4.681a.448.448,0,0,0-.447.426l-.151,3.127a.447.447,0,0,0,.448.469l4.947-.006a.448.448,0,0,0,.446-.464l-.115-3.12a.448.448,0,0,0-.447-.431" transform="translate(-100.214 -70.092)" fill="#263238"/>
        <path id="Trazado_220465" data-name="Trazado 220465" d="M327.121,194.922l-1.146-3.077a.448.448,0,0,0-.419-.292h-4.149a.447.447,0,0,0-.429.575l.914,3.083a.448.448,0,0,0,.43.32l4.38-.006a.447.447,0,0,0,.419-.6" transform="translate(-117.448 -70.094)" fill="#263238"/>
        <path id="Trazado_220466" data-name="Trazado 220466" d="M317.792,194.958l-.915-3.085a.448.448,0,0,0-.429-.321h-4.509a.448.448,0,0,0-.438.542l.668,3.092a.448.448,0,0,0,.438.353l4.756-.006a.448.448,0,0,0,.429-.575" transform="translate(-113.983 -70.094)" fill="#263238"/>
        <path id="Trazado_220467" data-name="Trazado 220467" d="M264.739,195.577l4.634-.006a.447.447,0,0,0,.446-.425l.151-3.13a.448.448,0,0,0-.447-.469h-4.376a.447.447,0,0,0-.444.389l-.41,3.136a.447.447,0,0,0,.444.505" transform="translate(-96.711 -70.092)" fill="#263238"/>
        <path id="Trazado_220468" data-name="Trazado 220468" d="M284.309,195.562l4.39-.006a.448.448,0,0,0,.445-.489l-.285-3.111a.448.448,0,0,0-.446-.407h-4.219a.447.447,0,0,0-.447.464l.115,3.118a.448.448,0,0,0,.448.431" transform="translate(-103.831 -70.093)" fill="#263238"/>
        <path id="Trazado_220469" data-name="Trazado 220469" d="M292.673,192.038l.285,3.109a.448.448,0,0,0,.446.407l4.957-.007a.447.447,0,0,0,.443-.51l-.443-3.1a.448.448,0,0,0-.443-.384h-4.8a.447.447,0,0,0-.446.488" transform="translate(-107.096 -70.093)" fill="#263238"/>
        <path id="Trazado_220470" data-name="Trazado 220470" d="M308.3,195l-.668-3.094a.447.447,0,0,0-.438-.353h-4.219a.447.447,0,0,0-.443.51l.443,3.1a.447.447,0,0,0,.444.384l4.445-.006A.448.448,0,0,0,308.3,195" transform="translate(-110.702 -70.094)" fill="#263238"/>
        <path id="Trazado_220471" data-name="Trazado 220471" d="M248,191.543H238.65a.448.448,0,0,0-.418.287l-1.217,3.161a.447.447,0,0,0,.418.609l9.86-.013a.448.448,0,0,0,.436-.35l.7-3.147a.448.448,0,0,0-.437-.545" transform="translate(-86.719 -70.09)" fill="#263238"/>
        <path id="Trazado_220472" data-name="Trazado 220472" d="M255.3,195.585l4.539-.006a.448.448,0,0,0,.443-.39l.41-3.138a.448.448,0,0,0-.444-.505H256a.448.448,0,0,0-.437.35l-.7,3.144a.448.448,0,0,0,.438.545" transform="translate(-93.257 -70.092)" fill="#263238"/>
        <path id="Trazado_220473" data-name="Trazado 220473" d="M338.643,195.519l2.922,0a.448.448,0,0,0,.415-.614l-1.231-3.064a.448.448,0,0,0-.415-.281h-2.687a.447.447,0,0,0-.425.585l.995,3.068a.448.448,0,0,0,.426.309" transform="translate(-123.391 -70.096)" fill="#263238"/>
        <path id="Trazado_220474" data-name="Trazado 220474" d="M334.9,194.935l-1-3.07a.447.447,0,0,0-.425-.309h-3.112a.448.448,0,0,0-.42.6l1.145,3.075a.448.448,0,0,0,.42.292l2.963,0a.448.448,0,0,0,.425-.586" transform="translate(-120.725 -70.095)" fill="#263238"/>
        <path id="Trazado_220475" data-name="Trazado 220475" d="M263.928,203.557l4.595.008a.674.674,0,0,0,.674-.642l.158-3.266a.674.674,0,0,0-.673-.706h-4.326a.674.674,0,0,0-.668.587l-.425,3.258a.674.674,0,0,0,.667.762" transform="translate(-96.332 -72.801)" fill="#263238"/>
        <path id="Trazado_220476" data-name="Trazado 220476" d="M340.554,198.951H333.5a.674.674,0,0,0-.632.909l1.24,3.332a.674.674,0,0,0,.63.439l7.118.011a.674.674,0,0,0,.63-.919l-1.3-3.343a.674.674,0,0,0-.628-.429" transform="translate(-121.789 -72.802)" fill="#263238"/>
        <path id="Trazado_220477" data-name="Trazado 220477" d="M253.831,199.477l-.727,3.248a.673.673,0,0,0,.656.821l4.545.008a.674.674,0,0,0,.67-.587l.425-3.255a.675.675,0,0,0-.668-.762h-4.244a.674.674,0,0,0-.658.527" transform="translate(-92.612 -72.801)" fill="#263238"/>
        <path id="Trazado_220478" data-name="Trazado 220478" d="M243.965,199.446l-.959,3.354a.582.582,0,0,0,.558.741l4.641.008a.583.583,0,0,0,.569-.455l.765-3.42a.581.581,0,0,0-.575-.708l-4.449.058a.581.581,0,0,0-.551.422" transform="translate(-88.914 -72.807)" fill="#263238"/>
        <path id="Trazado_220479" data-name="Trazado 220479" d="M313.189,199.767l.715,3.311a.674.674,0,0,0,.658.531l4.706.008a.674.674,0,0,0,.647-.866l-.984-3.319a.674.674,0,0,0-.646-.482h-4.437a.674.674,0,0,0-.659.816" transform="translate(-114.599 -72.802)" fill="#263238"/>
        <path id="Trazado_220480" data-name="Trazado 220480" d="M273.637,199.592l-.158,3.269a.674.674,0,0,0,.672.706l23.955.039a.674.674,0,0,0,.66-.817l-.715-3.307a.674.674,0,0,0-.659-.532H274.311a.674.674,0,0,0-.673.642" transform="translate(-100.073 -72.801)" fill="#263238"/>
        <path id="Trazado_220481" data-name="Trazado 220481" d="M235.509,199.3l-1.29,3.507a.535.535,0,0,0,.5.719l3.892.006a.535.535,0,0,0,.515-.387l1-3.513a.534.534,0,0,0-.514-.682h-3.606a.534.534,0,0,0-.5.35" transform="translate(-85.695 -72.802)" fill="#263238"/>
        <path id="Trazado_220482" data-name="Trazado 220482" d="M323.3,199.817l.985,3.322a.673.673,0,0,0,.645.482l4.3.007a.673.673,0,0,0,.633-.909l-1.238-3.329a.675.675,0,0,0-.632-.439h-4.042a.674.674,0,0,0-.646.866" transform="translate(-118.295 -72.802)" fill="#263238"/>
        <path id="Trazado_220483" data-name="Trazado 220483" d="M307.738,179.558c0,.091-16.219.165-36.221.165s-36.225-.074-36.225-.165,16.215-.165,36.225-.165,36.221.074,36.221.165" transform="translate(-86.1 -65.645)" fill="#263238"/>
        <path id="Trazado_220484" data-name="Trazado 220484" d="M266.812,129.093A9.687,9.687,0,0,1,269,127.727l.136-2.386,3.9-.653.905,2.212a9.686,9.686,0,0,1,2.512.578l1.782-1.59,3.219,2.3-.923,2.2a9.668,9.668,0,0,1,1.365,2.187l2.386.136.653,3.9-2.211.906a9.716,9.716,0,0,1-.579,2.512l1.59,1.782-2.3,3.219-2.2-.923a9.685,9.685,0,0,1-2.186,1.365l-.136,2.387-3.9.653-.906-2.212a9.693,9.693,0,0,1-2.512-.578l-1.782,1.59-3.219-2.3.923-2.2a9.687,9.687,0,0,1-1.366-2.186l-2.386-.136-.653-3.9,2.212-.906a9.684,9.684,0,0,1,.579-2.512l-1.591-1.783,2.3-3.219Zm2.863,4.9a4.242,4.242,0,1,0,5.916-.991,4.242,4.242,0,0,0-5.916.991" transform="translate(-95.548 -45.627)" fill="#f5f5f5"/>
        <path id="Trazado_220485" data-name="Trazado 220485" d="M301.762,145.576a6.573,6.573,0,0,1,1.48-.924l.092-1.616,2.64-.442.613,1.5a6.583,6.583,0,0,1,1.7.392l1.207-1.077,2.179,1.554-.625,1.492a6.559,6.559,0,0,1,.924,1.48l1.615.092.443,2.64-1.5.613a6.528,6.528,0,0,1-.392,1.7l1.077,1.207-1.554,2.179-1.492-.625a6.542,6.542,0,0,1-1.481.924l-.092,1.616-2.64.443-.614-1.5a6.552,6.552,0,0,1-1.7-.392l-1.207,1.077-2.179-1.555.625-1.491a6.564,6.564,0,0,1-.924-1.481l-1.616-.092-.442-2.64,1.5-.614a6.552,6.552,0,0,1,.391-1.7l-1.077-1.207,1.554-2.179Zm1.938,3.316a2.872,2.872,0,1,0,4.005-.671,2.872,2.872,0,0,0-4.005.671" transform="translate(-109.011 -52.179)" fill="#f5f5f5"/>
        <path id="Trazado_220486" data-name="Trazado 220486" d="M300.065,121.425a5.817,5.817,0,0,1,1.31-.818l.082-1.43,2.337-.391.543,1.325a5.854,5.854,0,0,1,1.505.347l1.068-.953,1.929,1.376-.553,1.32a5.812,5.812,0,0,1,.819,1.311l1.43.081.391,2.337-1.325.543a5.8,5.8,0,0,1-.347,1.505l.953,1.068-1.376,1.929-1.32-.554a5.811,5.811,0,0,1-1.311.819l-.081,1.43-2.337.392-.543-1.326a5.8,5.8,0,0,1-1.505-.347l-1.068.954-1.929-1.376.553-1.321a5.79,5.79,0,0,1-.819-1.31l-1.43-.081-.391-2.337,1.325-.543a5.8,5.8,0,0,1,.347-1.5l-.953-1.068,1.375-1.929Zm1.716,2.935a2.542,2.542,0,1,0,3.546-.594,2.542,2.542,0,0,0-3.546.594" transform="translate(-108.552 -43.467)" fill="#f5f5f5"/>
      </g>
    </g>
    <g id="Grupo_155947" data-name="Grupo 155947">
      <g id="Grupo_155946" data-name="Grupo 155946" clip-path="url(#clip-path)">
        <path id="Trazado_220487" data-name="Trazado 220487" d="M258.107,142.792l.456-1.024a3.1,3.1,0,0,0,1.62.484c.576,0,.8-.161.8-.4,0-.779-2.791-.211-2.791-2.035,0-.877.715-1.592,2.175-1.592a3.676,3.676,0,0,1,1.781.428l-.428,1.031a2.9,2.9,0,0,0-1.361-.379c-.582,0-.793.2-.793.442,0,.75,2.784.19,2.784,2,0,.855-.715,1.585-2.174,1.585a3.866,3.866,0,0,1-2.07-.54" transform="translate(-94.448 -50.58)" fill="#263238"/>
        <path id="Trazado_220488" data-name="Trazado 220488" d="M265.409,140.777a2.735,2.735,0,1,1,2.729,2.553,2.568,2.568,0,0,1-2.729-2.553m4.055,0a1.328,1.328,0,1,0-1.326,1.4,1.315,1.315,0,0,0,1.326-1.4" transform="translate(-97.12 -50.58)" fill="#263238"/>
        <path id="Trazado_220489" data-name="Trazado 220489" d="M276.557,139.453v1.08h2.167v1.073h-2.167v1.683h-1.389v-4.91h3.851v1.073Z" transform="translate(-100.691 -50.637)" fill="#263238"/>
        <path id="Trazado_220490" data-name="Trazado 220490" d="M283.106,139.481H281.6v-1.1H286v1.1h-1.5v3.809h-1.389Z" transform="translate(-103.044 -50.637)" fill="#263238"/>
        <path id="Trazado_220491" data-name="Trazado 220491" d="M296.649,138.38l-1.592,4.91h-1.488l-.94-2.988-.982,2.988h-1.486l-1.593-4.91H290l.988,3.135,1.039-3.135H293.3l.989,3.163,1.031-3.163Z" transform="translate(-105.595 -50.637)" fill="#263238"/>
        <path id="Trazado_220492" data-name="Trazado 220492" d="M304.786,142.336h-2.077l-.386.954H300.9l2.168-4.91h1.368l2.174,4.91h-1.444Zm-.407-1.024-.632-1.571-.632,1.571Z" transform="translate(-110.109 -50.637)" fill="#263238"/>
        <path id="Trazado_220493" data-name="Trazado 220493" d="M312.678,141.985h-.758v1.3h-1.389v-4.91h2.245c1.34,0,2.181.695,2.181,1.817a1.629,1.629,0,0,1-.961,1.55l1.059,1.543h-1.488Zm.014-2.512h-.772v1.438h.772c.575,0,.862-.266.862-.715s-.287-.723-.862-.723" transform="translate(-113.632 -50.637)" fill="#263238"/>
        <path id="Trazado_220494" data-name="Trazado 220494" d="M322.662,142.217v1.073H318.72v-4.91h3.851v1.073h-2.476v.827h2.182v1.039h-2.182v.9Z" transform="translate(-116.628 -50.637)" fill="#263238"/>
        <rect id="Rectángulo_46221" data-name="Rectángulo 46221" width="0.67" height="4.686" transform="translate(162.625 93.869)" fill="#263238"/>
        <path id="Trazado_220495" data-name="Trazado 220495" d="M263.779,148.042v4.686h-.548l-2.812-3.495v3.495h-.67v-4.686h.55l2.811,3.5v-3.5Z" transform="translate(-95.049 -54.173)" fill="#263238"/>
        <path id="Trazado_220496" data-name="Trazado 220496" d="M268.858,148.624h-1.607v-.582h3.877v.582h-1.607v4.1h-.663Z" transform="translate(-97.794 -54.173)" fill="#263238"/>
        <path id="Trazado_220497" data-name="Trazado 220497" d="M277.913,152.146v.582h-3.4v-4.686h3.307v.583h-2.638v1.439h2.35v.569h-2.35v1.514Z" transform="translate(-100.451 -54.172)" fill="#263238"/>
        <path id="Trazado_220498" data-name="Trazado 220498" d="M284.577,150.327h.643v1.827a2.77,2.77,0,0,1-1.774.6,2.4,2.4,0,1,1,.013-4.794,2.35,2.35,0,0,1,1.8.723l-.415.415a1.86,1.86,0,0,0-1.359-.542,1.8,1.8,0,1,0-.007,3.6,1.981,1.981,0,0,0,1.1-.3Z" transform="translate(-102.806 -54.141)" fill="#263238"/>
        <path id="Trazado_220499" data-name="Trazado 220499" d="M292.83,152.728l-1.011-1.439c-.094.006-.195.013-.295.013h-1.158v1.426h-.67v-4.686h1.828c1.219,0,1.955.616,1.955,1.633a1.479,1.479,0,0,1-1.031,1.48l1.112,1.573Zm-.02-3.053c0-.67-.448-1.051-1.306-1.051h-1.138v2.11H291.5c.857,0,1.306-.389,1.306-1.058" transform="translate(-106.008 -54.173)" fill="#263238"/>
        <path id="Trazado_220500" data-name="Trazado 220500" d="M299.945,151.557h-2.491l-.515,1.171h-.69l2.123-4.686h.663l2.129,4.686h-.7Zm-.235-.536-1.011-2.3-1.011,2.3Z" transform="translate(-108.406 -54.173)" fill="#263238"/>
        <path id="Trazado_220501" data-name="Trazado 220501" d="M305.263,148.624h-1.607v-.582h3.877v.582h-1.607v4.1h-.663Z" transform="translate(-111.116 -54.173)" fill="#263238"/>
        <rect id="Rectángulo_46222" data-name="Rectángulo 46222" width="0.67" height="4.686" transform="translate(197.144 93.869)" fill="#263238"/>
        <path id="Trazado_220502" data-name="Trazado 220502" d="M313.586,150.354a2.493,2.493,0,1,1,2.5,2.4,2.382,2.382,0,0,1-2.5-2.4m4.312,0a1.821,1.821,0,1,0-1.814,1.8,1.759,1.759,0,0,0,1.814-1.8" transform="translate(-114.75 -54.141)" fill="#263238"/>
        <path id="Trazado_220503" data-name="Trazado 220503" d="M327.083,148.042v4.686h-.548l-2.812-3.495v3.495h-.67v-4.686h.549l2.811,3.5v-3.5Z" transform="translate(-118.214 -54.173)" fill="#263238"/>
      </g>
    </g>
    <g id="Grupo_155949" data-name="Grupo 155949">
      <g id="Grupo_155948" data-name="Grupo 155948" clip-path="url(#clip-path)">
        <path id="Trazado_220504" data-name="Trazado 220504" d="M70.073,119.8c-2.9-1.781-3.654-6-2.142-9.047s4.788-4.932,8.138-5.523A15.656,15.656,0,0,1,89.622,109.5c1.882,1.881,3.42,4.349,5.945,5.187,2.22.737,4.653.007,6.977.273a10.522,10.522,0,0,1,7.446,5.205,22.714,22.714,0,0,1,2.751,8.923c.38,2.852.649,5.985,2.662,8.041,1.962,2.006,5.022,2.391,7.448,3.8a10.117,10.117,0,0,1,3.207,13.774c-.931,1.4-2.279,2.7-2.364,4.376-.079,1.535.932,2.886,1.418,4.344a6.83,6.83,0,0,1-5.719,8.565c-1.992.143-4.141-.6-5.915.315s-2.392,3.063-3.5,4.706A8.541,8.541,0,0,1,99.6,179.857c-1.477-.7-2.879-1.865-4.508-1.732s-2.886,1.541-4.481,1.874c-2.09.436-4.1-1.079-5.373-2.793s-2.169-3.743-3.785-5.138c-2.115-1.827-5.055-2.243-7.71-3.114a21.62,21.62,0,0,1-12.65-30.1" transform="translate(-21.551 -38.425)" fill="#263238"/>
        <path id="Trazado_220505" data-name="Trazado 220505" d="M124.674,185.84a5.867,5.867,0,0,1,2.308-1.567l-.178-.008a3.426,3.426,0,0,1,.5-.092,2.316,2.316,0,0,1,1.824.2h-.017a4.314,4.314,0,0,1,2.388,2.018,5.1,5.1,0,0,1-.524,5.267,3.9,3.9,0,0,1-7.176-1.235,4.842,4.842,0,0,1,.877-4.579" transform="translate(-45.219 -67.358)" fill="#455a64"/>
        <path id="Trazado_220506" data-name="Trazado 220506" d="M64.136,197.787l-3.871-55.974a4.757,4.757,0,0,1,4.043-5l24.941-7.459c8.038-1.2,13.835,8.511,14.7,16.593.955,8.98,1.767,19.98.989,26.744-1.564,13.6-12.655,15.819-12.655,15.819-.006-.046.12,13.825.274,18.736l3.309,15.183Z" transform="translate(-22.049 -47.296)" fill="#ffc09d"/>
        <path id="Trazado_220507" data-name="Trazado 220507" d="M119.433,173.06a1.734,1.734,0,0,1-1.6,1.82,1.659,1.659,0,0,1-1.853-1.486,1.735,1.735,0,0,1,1.593-1.82,1.66,1.66,0,0,1,1.855,1.486" transform="translate(-42.44 -62.78)" fill="#263238"/>
        <path id="Trazado_220508" data-name="Trazado 220508" d="M121.7,162.369c-.2.235-1.559-.68-3.423-.594-1.864.058-3.19,1.076-3.4.857-.1-.1.1-.514.675-.973a4.758,4.758,0,0,1,2.712-.966,4.577,4.577,0,0,1,2.737.755c.592.415.8.816.7.921" transform="translate(-42.026 -58.8)" fill="#263238"/>
        <path id="Trazado_220509" data-name="Trazado 220509" d="M92.96,173.959a1.734,1.734,0,0,1-1.6,1.82,1.658,1.658,0,0,1-1.853-1.485,1.735,1.735,0,0,1,1.593-1.821,1.66,1.66,0,0,1,1.855,1.486" transform="translate(-32.753 -63.109)" fill="#263238"/>
        <path id="Trazado_220510" data-name="Trazado 220510" d="M92.824,164.162c-.205.235-1.562-.679-3.425-.594-1.863.058-3.19,1.076-3.4.857-.1-.1.1-.514.675-.973a4.762,4.762,0,0,1,2.711-.966,4.573,4.573,0,0,1,2.737.755c.591.415.8.815.7.921" transform="translate(-31.459 -59.456)" fill="#263238"/>
        <path id="Trazado_220511" data-name="Trazado 220511" d="M107.5,177.532a12.33,12.33,0,0,1,3-.677c.474-.07.921-.184.987-.512a2.423,2.423,0,0,0-.378-1.4q-.747-1.7-1.564-3.565c-2.177-5.077-3.775-9.259-3.57-9.346s2.137,3.96,4.314,9.037q.788,1.878,1.506,3.588a2.757,2.757,0,0,1,.327,1.858,1.2,1.2,0,0,1-.753.73,3.219,3.219,0,0,1-.8.147,12.114,12.114,0,0,1-3.069.136" transform="translate(-38.774 -59.293)" fill="#263238"/>
        <path id="Trazado_220512" data-name="Trazado 220512" d="M100.543,218.9a32.459,32.459,0,0,1-17.487-4.1s4.059,9.995,17.525,8.148Z" transform="translate(-30.392 -78.6)" fill="#ff9b6c"/>
        <path id="Trazado_220513" data-name="Trazado 220513" d="M104.444,192.417a4.592,4.592,0,0,0-3.863-1.841,2.991,2.991,0,0,0-2.4,1.44,2.74,2.74,0,0,0,3.246,3.969,6.808,6.808,0,0,0,2.672-1.816,2.118,2.118,0,0,0,.56-.723.951.951,0,0,0-.113-.942" transform="translate(-35.804 -69.733)" fill="#ff9b6c"/>
        <path id="Trazado_220514" data-name="Trazado 220514" d="M99.67,188.882c.3-.03.393,1.993,2.188,3.354s3.938,1.047,3.966,1.329c.034.126-.464.413-1.373.477a5.044,5.044,0,0,1-3.306-.995,4.391,4.391,0,0,1-1.7-2.818c-.114-.843.091-1.354.23-1.348" transform="translate(-36.376 -69.117)" fill="#263238"/>
        <path id="Trazado_220515" data-name="Trazado 220515" d="M92.666,152.249c-.162.516-2.033.356-4.209.713-2.184.314-3.92,1.03-4.23.588-.138-.212.148-.7.841-1.224a7.424,7.424,0,0,1,6.429-.99c.817.288,1.238.67,1.169.913" transform="translate(-30.809 -55.254)" fill="#263238"/>
        <path id="Trazado_220516" data-name="Trazado 220516" d="M120.512,152.228c-.309.437-1.613.054-3.158.1-1.547-.008-2.84.408-3.16-.022-.141-.21.046-.642.6-1.068a4.574,4.574,0,0,1,5.091-.061c.564.411.762.84.626,1.053" transform="translate(-41.77 -55.047)" fill="#263238"/>
        <path id="Trazado_220517" data-name="Trazado 220517" d="M119.146,137.665a9.283,9.283,0,0,0-3.64-5.062,34.306,34.306,0,0,1-3.034-1.706c-1.976-1.548-2.468-4.286-3.707-6.469a10.208,10.208,0,0,0-7.851-5.045c-2.683-.235-5.43.609-8.05-.011-1.936-.458-3.64-1.686-5.6-2.029-3.818-.668-7.317,2.116-10.037,4.877.03,2.725,2.227,4.516,4.343,6.234a9.45,9.45,0,0,0,7.682,1.907c2.074-.41,4.338-1.5,6.155-.413,1.91,1.138,2.03,3.991,3.731,5.424,2.43,2.047,6.218.037,9.277.9,2.363.663,3.866,2.89,5.457,4.759s3.958,3.633,6.3,2.9a27.629,27.629,0,0,0-1.025-6.263" transform="translate(-28.259 -42.902)" fill="#263238"/>
        <path id="Trazado_220518" data-name="Trazado 220518" d="M72,127.278c-1.714-.464-5.222-1.517-6.159-2.984-2.035-3.186-5.572-5.33-9.15-5.082a8.61,8.61,0,0,0-7.652,6.919A12.382,12.382,0,0,0,38.5,133.136a12.982,12.982,0,0,0-.652,1.6,9.42,9.42,0,0,0-.514,7.917c.613,1.533,1.644,3.233.872,4.692-.786,1.485-2.825,1.561-4.4,2.132a6.255,6.255,0,0,0-3.837,7.043,7.633,7.633,0,0,1,.542,3.069,6.706,6.706,0,0,1-1.8,2.686,7.784,7.784,0,0,0,4.749,12.6c1.217.2,2.533.133,3.593.764,1.216.724,1.765,2.166,2.631,3.285a6.714,6.714,0,0,0,7.308,2.172,6.152,6.152,0,0,0,1.451-.756,4.82,4.82,0,0,0,4.3,1.829l-.918-28.489a2.359,2.359,0,0,0,1.747,1.328c4.588.968,5.119-8.467,4.061-11.007a26.584,26.584,0,0,0,4.519-4.893c1.235-1.885,2.273-6.99,1.97-9.277,1.65.072,8.638-2.349,7.885-2.553" transform="translate(-9.868 -43.616)" fill="#263238"/>
        <path id="Trazado_220519" data-name="Trazado 220519" d="M63.309,175.61c-.187-2.894-3.74-3.462-6.23-1.974-1.366.817-2.4,2.434-2.226,5.508.458,8.195,8.591,6.045,8.592,5.809,0-.146.082-5.954-.136-9.343" transform="translate(-20.065 -63.247)" fill="#ffc09d"/>
        <path id="Trazado_220520" data-name="Trazado 220520" d="M61.979,183.573c-.037-.024-.138.108-.372.232a1.43,1.43,0,0,1-1.066.082c-.884-.27-1.69-1.6-1.812-3.078a4.716,4.716,0,0,1,.285-2.066,1.649,1.649,0,0,1,1.013-1.155.727.727,0,0,1,.864.343c.123.223.08.39.124.4.024.02.168-.147.083-.481a.905.905,0,0,0-.351-.5,1.077,1.077,0,0,0-.8-.166,2.011,2.011,0,0,0-1.42,1.354,4.852,4.852,0,0,0-.368,2.312c.145,1.649,1.077,3.147,2.28,3.423a1.529,1.529,0,0,0,1.294-.289c.243-.217.276-.4.247-.416" transform="translate(-21.276 -64.832)" fill="#ff9b6c"/>
        <path id="Trazado_220521" data-name="Trazado 220521" d="M69.141,128.711a4.886,4.886,0,0,0-1.616,1.394c-.8,1.129-1.07,3.275-.521,5.679l.047.207-.2.053a7.928,7.928,0,0,0-5.215,4.731,6.161,6.161,0,0,0-.4,2.006,12.057,12.057,0,0,0,.289,2.163,16.275,16.275,0,0,1,.346,2.329,3.854,3.854,0,0,1-.614,2.429,9.94,9.94,0,0,1-4.023,3.116,13.791,13.791,0,0,0-3.771,2.55,10.251,10.251,0,0,0-2.962,6.916,10.7,10.7,0,0,0,1.155,5.052c.561,1.112,1.027,1.639.981,1.673-.016.013-.137-.112-.356-.363a8.738,8.738,0,0,1-.822-1.2,10.409,10.409,0,0,1-1.366-5.163A10.55,10.55,0,0,1,53.085,155a14.127,14.127,0,0,1,3.887-2.678,9.541,9.541,0,0,0,3.8-2.923c.89-1.257.46-2.877.2-4.343a12.461,12.461,0,0,1-.286-2.272,6.665,6.665,0,0,1,.448-2.2,8.312,8.312,0,0,1,5.612-4.957l-.154.259c-.522-2.52-.171-4.744.741-5.92A3.451,3.451,0,0,1,68.6,128.9a2.013,2.013,0,0,1,.543-.192" transform="translate(-18.331 -47.098)" fill="#455a64"/>
        <path id="Trazado_220522" data-name="Trazado 220522" d="M58.8,191.16a5.864,5.864,0,0,1,2.309-1.567l-.179-.008a3.427,3.427,0,0,1,.5-.092,2.314,2.314,0,0,1,1.824.2h-.017a4.309,4.309,0,0,1,2.388,2.018,5.1,5.1,0,0,1-.524,5.267,3.9,3.9,0,0,1-7.176-1.235,4.842,4.842,0,0,1,.877-4.579" transform="translate(-21.113 -69.305)" fill="#455a64"/>
        <path id="Trazado_220523" data-name="Trazado 220523" d="M246.864,276.877l5.587-2.142s1.523-4.873,2.538-6.3,6.408-5.811,6.724-5.93,3.86-8.066,5.475-7.807,2.728,1.392,2.277,3.549-4.03,6.458-3.038,7.173a7.247,7.247,0,0,0,2.6.974s.439-2.477,1.8-3.279,2.909.529,2.909.529l.041,1.068,1.343-1.229s1.412-4.976,3.553-4.951a8.707,8.707,0,0,1,2.112-2.839,1.842,1.842,0,0,1,2.838.829l-3.842,11.274-10.569,11.642s-4.954,1.9-6.215,2.487-6.991,4.549-9.526,5.4-5.48,2.138-5.48,2.138Z" transform="translate(-90.334 -93.197)" fill="#ffc09d"/>
        <path id="Trazado_220524" data-name="Trazado 220524" d="M264.358,284.089a6.416,6.416,0,0,0-2.006-.205,9.279,9.279,0,0,0-4.784,1.051,5.813,5.813,0,0,0-1.982,1.91,9.084,9.084,0,0,0-.945,2.006,5.979,5.979,0,0,0-.46,1.965,9.866,9.866,0,0,0,.817-1.827,7.157,7.157,0,0,1,2.844-3.585,10.267,10.267,0,0,1,4.52-1.136,8.9,8.9,0,0,0,2-.178" transform="translate(-93.006 -103.88)" fill="#ff9b6c"/>
        <path id="Trazado_220525" data-name="Trazado 220525" d="M276.175,271.44c.083-.119-.493-.642-1.392-.909s-1.666-.152-1.662-.006.694.278,1.507.526,1.464.519,1.547.389" transform="translate(-99.942 -98.935)" fill="#ff9b6c"/>
        <path id="Trazado_220526" data-name="Trazado 220526" d="M294.341,269.943a11.488,11.488,0,0,1,.247-2.446c.221-1.521.564-3.648.987-6.09l.159.318a12.691,12.691,0,0,0-1.157-.545,1.477,1.477,0,0,0-1.127.144,3.254,3.254,0,0,0-1.306,1.579,11.722,11.722,0,0,0-.692,1.95c-.306,1.3-.509,2.514-.7,3.52a20.158,20.158,0,0,1-.684,3.259,16.265,16.265,0,0,1,.256-3.325c.134-1.021.292-2.233.575-3.583a11.5,11.5,0,0,1,.7-2.073,3.776,3.776,0,0,1,1.569-1.872,2.081,2.081,0,0,1,1.578-.184,11.242,11.242,0,0,1,1.255.6l.2.094-.042.225c-.455,2.436-.874,4.549-1.2,6.051a11.465,11.465,0,0,1-.621,2.378" transform="translate(-106.133 -95.33)" fill="#ff9b6c"/>
        <path id="Trazado_220527" data-name="Trazado 220527" d="M274.924,282.06c-.026-.006-.009-.171.048-.484a6.676,6.676,0,0,1,.455-1.294,16.5,16.5,0,0,1,2.773-4.042l-.06.1c.731-2.165.067-5.3,2.027-8.1a2.568,2.568,0,0,1,2.036-.905,3.768,3.768,0,0,1,1.973.691l.141.1-.022.175c-.394,3.167-.757,5.9-1.039,7.843a5.1,5.1,0,0,1-.711,2.207c-.275.469-.473.691-.5.672a4.055,4.055,0,0,1,.321-.763,5.544,5.544,0,0,0,.521-2.18c.179-1.952.464-4.688.82-7.845l.119.271a3.233,3.233,0,0,0-1.642-.561,1.962,1.962,0,0,0-1.561.706,4.643,4.643,0,0,0-.913,1.9,17.934,17.934,0,0,0-.441,2.072c-.118.689-.149,1.323-.23,2a12.043,12.043,0,0,1-.413,1.868l-.018.057-.042.045a18.912,18.912,0,0,0-2.877,3.819c-.569,1.007-.7,1.663-.766,1.647" transform="translate(-100.598 -97.825)" fill="#ff9b6c"/>
        <path id="Trazado_220528" data-name="Trazado 220528" d="M60.7,232.4c.337-.486,2.579-4.816,2.579-4.816l12.718,10.962s12.467,10.441,12.467,9.765l1.989-10.044,2.45-9.138,4.574,6.911s14.371,28.174,14.371,28.512,8.894,29.5,8.894,29.5l-1.914,11.822-.225,41.882-26.8-1.125-5.291-8.444-9.12-53.7Z" transform="translate(-22.21 -83.279)" fill="#fff"/>
        <path id="Trazado_220529" data-name="Trazado 220529" d="M107.159,404.035h28.548l4.523,19.186h-43.9Z" transform="translate(-35.249 -147.847)" fill="#263238"/>
        <path id="Trazado_220530" data-name="Trazado 220530" d="M82.572,333.528c-.9-13.756-.522-39.705-5.788-53.244s-26.4-46.8-26.4-46.8l-5.189,8.067-13.6,5.106,18.455,74.809S42.938,338.2,39.553,347.978c-1.011,2.922-2.377,7.884-3.872,12.834h46.7c.413-10.88.613-20.786.189-27.284" transform="translate(-11.56 -85.437)" fill="#ff725e"/>
        <path id="Trazado_220531" data-name="Trazado 220531" d="M211.432,268.785l-36,20.013-24.949-35.6q-.1-.138-.215-.289c-2.838-3.758-5.629-7.894-10.223-8.927l-.7-.157,1.335,42.615s17.739,19.554,27.686,27.641c2.961,2.408,10.468.9,14.044-1.07,14.329-7.908,38.8-28.182,38.8-28.182Z" transform="translate(-50.992 -89.222)" fill="#ff725e"/>
        <path id="Trazado_220532" data-name="Trazado 220532" d="M141.451,320.976s2.623-20.342,3.482-25.45c4.5-26.736-15.331-56.295-15.331-56.295l-9.067-1.5-7.821-6.46,3.454,9.651s11.361,31.784,13.617,41.938,3.385,41.368,3.737,40.616c.207-.443,1.574,18.845,3.29,36.526h19.245Z" transform="translate(-41.245 -84.628)" fill="#ff725e"/>
        <path id="Trazado_220533" data-name="Trazado 220533" d="M144.285,302.054a3.713,3.713,0,0,1,.006-.663q.038-.709.1-1.888.039-.62.085-1.362,0-.753,0-1.624c0-1.165.028-2.491-.086-3.955a82.386,82.386,0,0,0-4.454-22.391,77.335,77.335,0,0,0-3.612-8.889l-.005-.009,0-.008a76.354,76.354,0,0,0-4.169-8.125c-1.377-2.392-2.646-4.476-3.709-6.2-1.054-1.689-1.9-3.045-2.513-4.021l-.669-1.076a2.085,2.085,0,0,1-.212-.384,1.944,1.944,0,0,1,.273.344l.727,1.039c.625.912,1.521,2.253,2.617,3.959s2.394,3.775,3.8,6.161a73.274,73.274,0,0,1,4.248,8.145l-.008-.016a75.1,75.1,0,0,1,3.655,8.94,79.159,79.159,0,0,1,4.348,22.52c.094,1.47.047,2.8.021,3.972-.014.581-.027,1.125-.039,1.629q-.068.743-.123,1.365c-.077.786-.139,1.413-.185,1.886a3.7,3.7,0,0,1-.094.654" transform="translate(-45.759 -88.356)" fill="#263238"/>
        <path id="Trazado_220534" data-name="Trazado 220534" d="M94.185,258.146a1.978,1.978,0,0,1-.506-.222l-1.373-.725-4.842-2.679.284-.143c-.237,2.176-.636,4.718-1.037,7.427-.162,1.1-.313,2.179-.438,3.207l-.048.4-.3-.258c-2.59-2.2-4.841-4.142-6.437-5.541l-1.862-1.658a4.054,4.054,0,0,1-.639-.638,4.145,4.145,0,0,1,.736.524l1.944,1.56c1.644,1.34,3.931,3.238,6.535,5.425l-.352.139c.119-1.036.268-2.116.43-3.22.4-2.714.821-5.249,1.092-7.408l.037-.289.247.146,4.763,2.816,1.32.816a1.956,1.956,0,0,1,.448.324" transform="translate(-28.17 -92.962)" fill="#263238"/>
        <path id="Trazado_220535" data-name="Trazado 220535" d="M111.641,240.921a5.759,5.759,0,0,1,.039,1.146c-.015.822-.034,1.869-.056,3.12-.066,2.633-.188,6.27-.351,10.286,0,.1-.008.2-.011.293l-.029.7-.376-.592-4.813-7.587.3-.037c-.531,1.461-.975,2.681-1.318,3.624a7.955,7.955,0,0,1-.55,1.316,8.035,8.035,0,0,1,.371-1.377l1.178-3.672.107-.335.195.3,4.9,7.532-.4.11c0-.1.008-.194.012-.293.162-4.016.334-7.65.479-10.281.079-1.248.144-2.293.2-3.114a5.733,5.733,0,0,1,.131-1.139" transform="translate(-38.229 -88.16)" fill="#263238"/>
        <path id="Trazado_220536" data-name="Trazado 220536" d="M22.666,254.256a20.334,20.334,0,0,0-3.158,2.43,21.508,21.508,0,0,0-5.5,8.667c-1.284,3.668-2.557,8.182-3.3,11.024L7.268,328.593a30.728,30.728,0,0,0,2.2,13.59l10.663,26.23H43.114L30.705,333.319l4.25-38.715Z" transform="translate(-2.635 -93.039)" fill="#ff725e"/>
        <path id="Trazado_220537" data-name="Trazado 220537" d="M53.926,244.834,58.983,260h5.388l-3.5,2.225,27.647,52.84" transform="translate(-19.733 -89.591)" fill="#ff725e"/>
        <path id="Trazado_220538" data-name="Trazado 220538" d="M88.521,315.065a.794.794,0,0,1-.122-.185l-.319-.561-1.187-2.179L82.6,304.088c-3.6-6.847-8.549-16.253-14.014-26.644l-7.893-15.125-.086-.166.157-.1,3.5-2.216.1.353-5.388-.02h-.125l-.039-.117L55.2,248.961l-.968-3.049-.24-.8a1.228,1.228,0,0,1-.066-.279,1.245,1.245,0,0,1,.115.263c.074.2.169.462.288.784l1.056,3.02,3.761,11.046-.163-.117,5.388-.02.658,0-.555.356L60.982,262.4l.071-.264,7.925,15.107,13.9,26.7,4.168,8.117c.471.938.843,1.68,1.113,2.218l.28.581a.839.839,0,0,1,.082.205" transform="translate(-19.732 -89.591)" fill="#263238"/>
        <path id="Trazado_220539" data-name="Trazado 220539" d="M37.841,265.915A33.721,33.721,0,0,1,45.3,294.61" transform="translate(-13.847 -97.306)" fill="#ff725e"/>
        <path id="Trazado_220540" data-name="Trazado 220540" d="M45.3,294.609c-.089-.016.289-1.7.448-4.462a35.1,35.1,0,0,0-.071-4.848,38.242,38.242,0,0,0-1-5.846,38.309,38.309,0,0,0-1.976-5.593,35.172,35.172,0,0,0-2.3-4.269c-1.484-2.334-2.635-3.62-2.565-3.678a6.282,6.282,0,0,1,.832.879,13,13,0,0,1,.9,1.1c.33.445.729.936,1.1,1.529a31.749,31.749,0,0,1,2.408,4.269,35.856,35.856,0,0,1,2.033,5.651,35.849,35.849,0,0,1,.976,5.924,31.752,31.752,0,0,1-.023,4.9c-.034.7-.143,1.321-.215,1.87a13.119,13.119,0,0,1-.247,1.4,6.337,6.337,0,0,1-.3,1.173" transform="translate(-13.845 -97.305)" fill="#263238"/>
        <path id="Trazado_220541" data-name="Trazado 220541" d="M56.581,391.7a.826.826,0,0,1-.079-.175L56.3,391c-.179-.484-.429-1.163-.749-2.026l-2.7-7.485c-2.26-6.355-5.376-15.113-8.832-24.83L44,356.623l0-.037c.03-.27.062-.562.094-.855,1.166-10.444,2.221-19.9,2.987-26.767.4-3.406.718-6.17.943-8.107.116-.939.208-1.677.273-2.2l.079-.572a.9.9,0,0,1,.039-.194.882.882,0,0,1-.005.2c-.012.147-.027.337-.046.575-.051.528-.121,1.268-.212,2.209-.2,1.94-.486,4.708-.838,8.119L44.43,355.766c-.032.293-.064.585-.094.855l-.008-.073c3.419,9.729,6.5,18.5,8.738,24.863l2.6,7.519c.295.873.526,1.558.691,2.047l.172.535a.834.834,0,0,1,.048.186" transform="translate(-16.102 -116.324)" fill="#263238"/>
        <path id="Trazado_220542" data-name="Trazado 220542" d="M148.881,265.209a51.062,51.062,0,0,1,3.732,7.1c.536,1.121.98,2.408,1.523,3.762.457,1.385,1.005,2.848,1.418,4.437.476,1.571.842,3.255,1.238,5l.491,2.679c.169.907.264,1.839.4,2.775a89.615,89.615,0,0,1,.257,19.349l-.373,3.325c-.1.979-.261,1.813-.358,2.5q-.159.992-.252,1.576a3.479,3.479,0,0,1-.11.545,3.51,3.51,0,0,1,.044-.555q.07-.586.191-1.583c.077-.688.216-1.524.3-2.5s.2-2.1.323-3.323A94.292,94.292,0,0,0,157.358,291c-.138-.932-.232-1.86-.4-2.763l-.483-2.668c-.39-1.734-.748-3.412-1.214-4.979-.4-1.585-.94-3.044-1.384-4.427-.53-1.352-.959-2.64-1.479-3.762l-.7-1.618c-.226-.509-.47-.975-.682-1.418-.43-.883-.793-1.648-1.138-2.248q-.474-.885-.753-1.405a3.577,3.577,0,0,1-.243-.5" transform="translate(-54.479 -97.047)" fill="#263238"/>
        <path id="Trazado_220543" data-name="Trazado 220543" d="M196,325.758a5.973,5.973,0,0,1-.662-1.562,15.644,15.644,0,0,1-.359-8.119,5.95,5.95,0,0,1,.521-1.615,15.619,15.619,0,0,1-.292,1.66,18.736,18.736,0,0,0,.354,8.009,15.505,15.505,0,0,1,.438,1.628" transform="translate(-71.214 -115.07)" fill="#263238"/>
      </g>
    </g>
    <g id="Grupo_155951" data-name="Grupo 155951">
      <g id="Grupo_155950" data-name="Grupo 155950" clip-path="url(#clip-path)">
        <path id="Trazado_220544" data-name="Trazado 220544" d="M271.4,434.2c0,.091-59.791.165-133.529.165-73.764,0-133.541-.074-133.541-.165s59.778-.165,133.541-.165c73.738,0,133.529.074,133.529.165" transform="translate(-1.585 -158.824)" fill="#263238"/>
      </g>
    </g>
  </g>
</svg>
