<svg xmlns="http://www.w3.org/2000/svg" width="67.535" height="62.564" viewBox="0 0 67.535 62.564">
  <g id="Grupo_156455" data-name="Grupo 156455" transform="translate(-286.796 -21242.031)">
    <ellipse id="Elipse_5258" data-name="Elipse 5258" cx="30" cy="30.5" rx="30" ry="30.5" transform="translate(294.331 21243.594)" fill="#dbdada"/>
    <g id="Grupo_149563" data-name="Grupo 149563" transform="translate(286.796 21242.031)">
      <path id="Trazado_201677" data-name="Trazado 201677" d="M58.848,44.708c-.049.159-4.654,17.862-22.75,17.856-15.643,0-23.057-13.6-23.057-13.6a8.1,8.1,0,0,1-3.255-.49A8.962,8.962,0,0,1,4.579,37.132L2.057,35.2c-9.771-7.443,17.908-41.5,27.7-33.8.05.039,2.336,1.88,2.336,1.88A19.969,19.969,0,0,1,41.913,0a6.326,6.326,0,0,1,4.821,1.807c2.54,2.751,1.627,8-1.842,13.321A8.732,8.732,0,0,1,46.7,17.755a6.25,6.25,0,0,1,2.173,3.931c.4,1.987.478,4.816.726,6.032.936.422.537.227,1.534.725a13.609,13.609,0,0,1,3.706,2.5,3.177,3.177,0,0,1,1.982,5.073c-.039.048-.215.257-.4.464a9.355,9.355,0,0,1,.865,2.461,3.287,3.287,0,0,1,2.283,1.8C60.315,42.541,58.848,44.708,58.848,44.708ZM51.675,58.077v.741h.284v-.741h.29v-.234h-.86v.234Zm.661-.234v.975h.259v-.7l.212.7h.221l.212-.706v.706H53.5v-.975h-.4l-.175.561-.177-.561Z" transform="translate(0 0)" fill="#684c46"/>
      <path id="Trazado_201678" data-name="Trazado 201678" d="M35.9,97.257h0a15.463,15.463,0,0,0,.593-1.824,11.529,11.529,0,0,1,.591,4.3h0a8.857,8.857,0,0,0,.775-1.435,6.573,6.573,0,0,1-6.231,7.845,6.673,6.673,0,0,1,0-13.328,6.039,6.039,0,0,1,2.548.562S35.526,94.051,35.9,97.257ZM70.352,111.7a16.122,16.122,0,0,0,5.846-8.66c1.208-1.448.879-2.875-.716-2.875a2.979,2.979,0,0,0-.891.134,8.346,8.346,0,0,0-.972-3.759,19.667,19.667,0,0,1-5.59,3.83A25.793,25.793,0,0,1,57.765,102.8h0c-1.192.052-1.929-.142-2.344,1.247a2.865,2.865,0,0,0,.024,1.431,2.809,2.809,0,0,0,2.367,1.926,10.049,10.049,0,0,0,1.805.223c8.632.242,15.563-6.49,15.646-6.546a1.316,1.316,0,0,0,.147-.143s-.076.178-.085.2c-1.247,2.8-8.465,7.888-15.651,7.743l-.024.008c-1.666-.006-3.691-.435-4.744-1.74-1.665-2.065-.8-5.5,1.853-5.579l.885-.021c6.572-.2,12.468-2.616,16.69-7.658.58-.721-.068-1.712-1.326-1.742a.042.042,0,0,1-.029-.013,12.081,12.081,0,0,0-3.97-2.754c-2.446-1.246-2.215-.17-2.784-6.213-.154-1.629-.463-3.851-1.894-4.7a2.328,2.328,0,0,0-1.211-.319,2.243,2.243,0,0,0-.709.1,3.728,3.728,0,0,0-1.788,1.133c-2.639,2.434-4.748,1.773-7.9,1.745a6.046,6.046,0,0,0-6.067,5.2v0a10.232,10.232,0,0,0,.174,4.1,6.578,6.578,0,0,1-1.185-1.007,8.289,8.289,0,0,0,3.1,4.785,4.307,4.307,0,0,1-1.014.056,11.054,11.054,0,0,0,2.813,1.607,10.814,10.814,0,0,0-2.949,4.248,11.485,11.485,0,0,0-.492,4.814l.721-1.075a9.43,9.43,0,0,0,.441,4.717c.3-.691.963-1.923.963-1.923a9.646,9.646,0,0,0,1.134,4.681c.032-.486.218-1.724.218-1.724a9.97,9.97,0,0,0,2.353,3.733C56.016,116.076,64.156,116.569,70.352,111.7Z" transform="translate(-19.172 -59.211)" fill="#f5dcba"/>
      <path id="Trazado_201679" data-name="Trazado 201679" d="M12.467,43.164A18.292,18.292,0,0,1,9.75,40.858c-1.983-3.347,1.467-10.221,3.922-14.128C19.74,17.072,29.84,9.452,34.427,10.54l4.711,2.432a38.088,38.088,0,0,0-4.658,3.276l-1,.841S30.55,19.059,29.094,20.3c-5.836,4.98-11.582,12.689-13.713,20.131A8.081,8.081,0,0,0,12.467,43.164Z" transform="translate(-6.94 -7.907)" fill="#0788bf"/>
      <path id="Trazado_201680" data-name="Trazado 201680" d="M48.521,10.54h0c-4.588-1.088-14.687,6.533-20.755,16.189l-.005.008.024,0,4.835,3.806a45.038,45.038,0,0,1,12.169-12.9l-.766-5.158,1.436-.687,2.882.933-.221-.963.4-1.233Z" transform="translate(-21.034 -7.907)" fill="#46b8e3"/>
      <path id="Trazado_201681" data-name="Trazado 201681" d="M104.079,11.784,99.421,15.06l-.326.255-4.13-3.375L94.87,11.3l1.436-.688,2.882.933.048-1.79.132-.406,1.261-.483Z" transform="translate(-71.881 -6.72)" fill="#ffd14f"/>
      <g id="Grupo_149562" data-name="Grupo 149562" transform="translate(8.441 1.851)">
        <path id="Trazado_201682" data-name="Trazado 201682" d="M67.783,7.638c-3.081,0-6.539,1.62-9.192,3.213-.372.219-.741.448-1.1.682L56.1,10.369l.5,1.752q-.286.2-.559.391l-2.868-.876,1.9,1.589c-.434.329-.82.636-1.142.9L49.383,10.37l.241,1.684,3.308,2.915S50,16.939,48.548,18.181c-5.836,4.98-11.582,12.689-13.713,20.131l.121-.068.049-.026c.059-.032.118-.063.178-.092l.114-.057c.061-.029.122-.056.183-.083l.108-.048c.066-.028.132-.053.2-.078l.092-.035c.1-.034.192-.066.288-.095a8.144,8.144,0,0,1,5.727.27,35.557,35.557,0,0,1,4.725-8.753c1.769-2.317,3.469-4.385,5.51-5.522,3.864-3.63,14.279-7.479,17.616-4.143a22.165,22.165,0,0,0,2.038-4.044C73.174,11.855,73.2,7.638,67.783,7.638Z" transform="translate(-34.835 -7.638)" fill="#122030"/>
        <path id="Trazado_201683" data-name="Trazado 201683" d="M112.863,13.338l-.681-2.474-.4,1.233.24.969Z" transform="translate(-93.136 -10.082)" fill="#122030"/>
      </g>
      <path id="Trazado_201684" data-name="Trazado 201684" d="M102.333,47.029a8.341,8.341,0,0,0-.972-3.759,19.671,19.671,0,0,1-5.59,3.829,25.794,25.794,0,0,1-10.265,2.434h0c-1.192.052-1.929-.142-2.344,1.247a2.264,2.264,0,0,0-.065.391v.014h0c0,.044-.007.089-.008.133,0,.127,0,.239,0,.337v.028c0,.061.009.12.015.174v.017a1.277,1.277,0,0,0,.077.335h0l.005.018a2.814,2.814,0,0,0,2.362,1.908,10.048,10.048,0,0,0,1.805.223c7.043.2,12.954-4.248,14.936-5.922A12.124,12.124,0,0,0,102.333,47.029ZM82.1,9.408a16.934,16.934,0,0,1,5.215-1.565,21.6,21.6,0,0,0-6.291,2.795,77.986,77.986,0,0,0-9.416,7.474c-1.934,1.918-9.7,11.229-9.692,11.221a37.183,37.183,0,0,1,4.6-6.829c1.271-1.6,2.626-3.152,4.014-4.587q.7-.724,1.409-1.4h0A38.371,38.371,0,0,1,82.1,9.408Z" transform="translate(-46.913 -5.943)" fill="#fff"/>
      <path id="Trazado_201685" data-name="Trazado 201685" d="M83.142,113.968a17.169,17.169,0,0,1-2.617,1.7,8.374,8.374,0,0,1-3.346-2.467,20.7,20.7,0,0,0,4.154-1.629,22.719,22.719,0,0,0,7.656-6.26A16.125,16.125,0,0,1,83.142,113.968ZM77.5,91.583a2.086,2.086,0,0,0-3.031,1.035c.581.029,1.2.468,1.158,1.03a2.224,2.224,0,0,1,1.559-.61A1.133,1.133,0,0,1,77.5,91.583ZM66.975,105.989a2.717,2.717,0,0,1,2.576-2.149l.885-.021c6.572-.2,12.468-2.616,16.69-7.658.58-.721-.068-1.712-1.326-1.742h-.018c-.213.225-.251.636-.6,1.25C83.9,97.9,82.119,98.92,79.75,100.1c-7.262,3.615-11.027,1.933-12.539,4.147a1.773,1.773,0,0,0-.237,1.739ZM80.114,90.826c-.694-.5-.719-1.368-1.1-5.389a8.328,8.328,0,0,0-1.123-3.992,1.068,1.068,0,0,0-.719-.3c-.5-.022-1.056.492-1.374.843a7.683,7.683,0,0,1-3.287,2.866,9.9,9.9,0,0,1-4.53.9c-1.114-.035-2.089-.219-3.045-.231a5.236,5.236,0,0,0-4.426,1.96A5.594,5.594,0,0,0,59.338,90.7q.006.22.019.416c.013.194.031.379.052.552a5.121,5.121,0,0,0,.19.939.045.045,0,0,1,0,.014q.014.045.028.087A6.585,6.585,0,0,1,58.439,91.7a8.117,8.117,0,0,0,2.906,4.632l.108.084.008.008.081.061a4.291,4.291,0,0,1-1.014.056,11.043,11.043,0,0,0,2.813,1.607,9.769,9.769,0,0,1,5.308-2.2c.977-.606,2.028-1.2,3.156-1.776-.342-2.127,1.545-4.269,3.919-4.475a3.377,3.377,0,0,1,3.29,1.531q.511-.163,1.154-.354A.367.367,0,0,1,80.114,90.826Zm.857,14.327a.368.368,0,0,0-.067.011c-.716.166-8.1,3.024-12.76,1.559a2.806,2.806,0,0,0,.09,1.025h0a13.647,13.647,0,0,0,2.635.232C77.01,107.981,81.434,105.19,80.971,105.153Zm-34.343-.573.005,0a1.781,1.781,0,0,0,.442-1.5c-.138-.773-1.013-.929-1.592-1.529l-.027-.029-.028-.032,0,0a1.294,1.294,0,0,1-.33-.944.872.872,0,0,1,1.113-.867,1.464,1.464,0,0,1,.769.57v0a1.861,1.861,0,0,0-.3-.776,2.687,2.687,0,0,0-2.82-.933h0a2.766,2.766,0,0,0-.369.1.956.956,0,0,0-.108.035c-.08.038-.155.063-.226.1h0a3.153,3.153,0,0,0-.5.307C41.077,101.106,43.744,104.793,46.629,104.58Z" transform="translate(-31.961 -61.479)" fill="#eabe8d"/>
      <path id="Trazado_201686" data-name="Trazado 201686" d="M64.149,63.657c.133.194.168.341.115.4-.107.125-.49-.044-1.055-.264a5.388,5.388,0,0,0-4.4.092,3.09,3.09,0,0,1-.977.3c-.264-.039-.008-.523.57-.993a4.3,4.3,0,0,1,4.124-.708A3.555,3.555,0,0,1,64.149,63.657Zm-.287,1.479a2.557,2.557,0,0,0-1.884-.377,4.079,4.079,0,0,0-.45.112,1.057,1.057,0,0,0-.153.053,2.605,2.605,0,0,0-.848.527c-.3.292-.388.563-.3.63s.295-.033.618-.164a5.177,5.177,0,0,1,2.577-.411c.352.024.587.045.642-.051C64.1,65.389,64.032,65.265,63.862,65.135Zm-23.3,5.55h0a2.118,2.118,0,0,1,.415.436c.333.471.227.746.363.88a.171.171,0,0,0,.19.035c.189-.078.281-.378.3-.587h0a2.1,2.1,0,0,0-.571-1.471h0a3.093,3.093,0,0,0-.838-.673,3.5,3.5,0,0,0-1.163-.4A4.379,4.379,0,0,0,37.569,69h0c-.106.031-.236.058-.348.1a3.832,3.832,0,0,0-2.375,2.5h0a4.361,4.361,0,0,0-.184,1.255,4.411,4.411,0,0,0,.1.931h0a2.952,2.952,0,0,0,.642,1.349h0c.411.444.861.359.669-.054a3.581,3.581,0,0,1-.328-1.429A4.179,4.179,0,0,1,36,72a3.117,3.117,0,0,1,.467-.811,2.972,2.972,0,0,1,.982-.766h0c.071-.038.145-.064.226-.1a1.008,1.008,0,0,1,.108-.036,2.774,2.774,0,0,1,.369-.1h0A2.816,2.816,0,0,1,40.559,70.685Zm-.208,1.881a.584.584,0,0,1-.234-.337.451.451,0,0,1,.192-.556c.168-.115.3-.17.3-.243.008-.137-.554-.277-.946.109a1.218,1.218,0,0,0,.091,1.635c.579.625,1.479.772,1.619,1.558a1.493,1.493,0,0,1,.022.357,1.9,1.9,0,0,1-.047.355,1.739,1.739,0,0,1-2.082,1.3c-.219-.032-.36-.059-.4,0-.091.127.417.709,1.349.688a2.325,2.325,0,0,0,2.105-1.727,2.6,2.6,0,0,0,.1-.565,2.342,2.342,0,0,0-.034-.6C42.147,73.225,40.838,72.954,40.352,72.566Zm31.761-9.4c-.36-.056-.715.3-.792.792a.812.812,0,0,0,.512,1c.36.056.715-.3.792-.792A.812.812,0,0,0,72.113,63.164Zm-3.957,1.441a1.074,1.074,0,1,0,1.255-.163A.918.918,0,0,0,68.156,64.605Zm-14.5-14.611c6.814-4.417,13.622-4.925,15.954-3.132h0c0-.012-.042-.115-.056-.144h0a5.162,5.162,0,0,0-3.2-2.488,4.811,4.811,0,0,1,.655.879,9.8,9.8,0,0,0-3.451-1.467s.153.11.18.135a3.324,3.324,0,0,1,.738.941,7.726,7.726,0,0,0-4.12-.515l-.166.039s.174.043.212.055a2.85,2.85,0,0,1,1.35.769,9.932,9.932,0,0,0-5.957.775,3.093,3.093,0,0,1,.31,0,4.713,4.713,0,0,1,1.863.338,11.1,11.1,0,0,0-4.5,1.842,9.222,9.222,0,0,1,1.727-.089,23.973,23.973,0,0,0-8.7,8.6h0A28.172,28.172,0,0,1,53.658,49.994Z" transform="translate(-26.263 -33.067)" fill="#9c7356"/>
      <path id="Trazado_201687" data-name="Trazado 201687" d="M179.4,105.256c-.009-.47.065-1.246.507-1.39h0c.756-.262,1.756,1.673,1.8,3.391a3.787,3.787,0,0,0-2.02-.363A5.817,5.817,0,0,1,179.4,105.256Z" transform="translate(-135.931 -78.679)" fill="#684c46"/>
    </g>
  </g>
</svg>
