<svg xmlns="http://www.w3.org/2000/svg" width="64.535" height="61" viewBox="0 0 64.535 61">
  <g id="Grupo_156451" data-name="Grupo 156451" transform="translate(-289.796 -21050.594)">
    <ellipse id="Elipse_5256" data-name="Elipse 5256" cx="30" cy="30.5" rx="30" ry="30.5" transform="translate(294.331 21050.594)" fill="#dbdada"/>
    <g id="Grupo_149560" data-name="Grupo 149560" transform="translate(177.489 20653.18)">
      <path id="Trazado_201672" data-name="Trazado 201672" d="M152.3,428.386c0,9.545-.017,19.089.024,28.633,0,1.012-.214,1.353-1.27,1.293-11.114-.632-20.626-4.793-28.2-13a38.752,38.752,0,0,1-10.521-27.357c.028-6.145.037-12.291-.024-18.435-.011-1.11.375-1.313,1.347-1.241a19.032,19.032,0,0,1,7.748,2.136,1.824,1.824,0,0,0,1.9-.073,19.719,19.719,0,0,1,18.109.07,1.721,1.721,0,0,0,1.793,0,19.285,19.285,0,0,1,7.619-2.122c1.053-.085,1.512.052,1.5,1.334C152.266,409.21,152.3,418.8,152.3,428.386Z"/>
      <path id="Trazado_201673" data-name="Trazado 201673" d="M140.4,432.935a10.629,10.629,0,0,1,2.648-4.766,8.606,8.606,0,1,1,6.111,14.838,7.619,7.619,0,0,1-3.9-.884,1.064,1.064,0,0,0-1.552.261c-.785.872-1.73,1.6-2.49,2.493-.673.788-1.105.67-1.723-.043-.769-.887-1.682-1.647-2.464-2.523a1.03,1.03,0,0,0-1.439-.24,8.513,8.513,0,0,1-12.239-6.639,8.586,8.586,0,0,1,16.7-3.7C140.165,432.053,140.247,432.385,140.4,432.935Z" transform="translate(-8.108 -20.33)" fill="#fefefe"/>
      <path id="Trazado_201674" data-name="Trazado 201674" d="M141.218,437.489c-1.464,1.972-1.565,3.441-.316,4.611,1.31,1.228,2.8,1.093,4.484-.407a5.112,5.112,0,0,1-2.224,5.913,5.646,5.646,0,0,1-7.081-.705,5.563,5.563,0,0,1-.781-7.065A5.231,5.231,0,0,1,141.218,437.489Z" transform="translate(-16.3 -28.853)" fill="#010101"/>
      <path id="Trazado_201675" data-name="Trazado 201675" d="M204.516,437.671a5.375,5.375,0,0,1,5.941,2.337,5.663,5.663,0,0,1-7.1,8.232c-2.369-1.1-3.558-3.466-3.121-6.411,1.01.835,2.011,1.587,3.379,1.2a2.9,2.9,0,0,0,1.592-1.07C206.123,440.736,205.9,439.286,204.516,437.671Z" transform="translate(-64.852 -29.021)" fill="#010101"/>
    </g>
  </g>
</svg>
