<svg xmlns="http://www.w3.org/2000/svg" width="61" height="61" viewBox="0 0 61 61">
  <g id="Grupo_156454" data-name="Grupo 156454" transform="translate(-810.331 -21435.594)">
    <g id="Grupo_149566" data-name="Grupo 149566" transform="translate(809.331 21433.594)">
      <circle id="Elipse_5263" data-name="Elipse 5263" cx="30.5" cy="30.5" r="30.5" transform="translate(1 2)" fill="#20c4cb"/>
      <path id="Trazado_201692" data-name="Trazado 201692" d="M44.344,50.1a6.228,6.228,0,0,1-3.8,2.054,1.476,1.476,0,0,1-1.556-1.432,2.7,2.7,0,0,1,.062-1,26.7,26.7,0,0,1,1-3.486c0-.124-.062-.187-.124-.187-.622,0-2.739,2.179-3.05,3.61l-.249,1.183a1.685,1.685,0,0,1-1.494,1.307.474.474,0,0,1-.5-.436v-.373l.124-.622a6.426,6.426,0,0,1-2.926,1.432A1.263,1.263,0,0,1,30.463,51.1a2.374,2.374,0,0,1-1.93,1.058A2.555,2.555,0,0,1,26.293,50.6a11.391,11.391,0,0,1-2.241,1.93,8.35,8.35,0,0,1-4.419,1.494,5.4,5.4,0,0,1-3.61-1.494,6.453,6.453,0,0,1-1.867-3.921c-.56-4.357,2.116-10.146,6.287-12.636A5.916,5.916,0,0,1,23.43,35.1,3.608,3.608,0,0,1,27.1,38.212a3.375,3.375,0,0,1-2.116,3.672c-.871.436-1.307.436-1.432.187a.407.407,0,0,1,.124-.5C25.3,40.266,25.3,39.146,25.11,37.59a1.628,1.628,0,0,0-1.494-1.618c-3.237,0-7.718,7.034-7.1,12.138C16.769,50.1,18.014,52.4,20.5,52.4a5.888,5.888,0,0,0,2.49-.622A7.829,7.829,0,0,0,25.919,49.6a5.152,5.152,0,0,1,4.855-5.353c1.307,0,2.365.5,2.49,1.556a1.3,1.3,0,0,1-1.369,1.556c-.373,0-.934-.124-1-.436-.062-.373.809-.187.685-1-.062-.5-.622-.685-1.12-.685-1.867,0-2.926,2.614-2.739,4.233.062.747.5,1.494,1.12,1.494.56,0,1.369-.809,1.618-1.93a1.685,1.685,0,0,1,1.494-1.307c.311,0,.5.124.5.436v.373c-.062.311-.311,1.494-.311,1.681a.486.486,0,0,0,.5.5,6.021,6.021,0,0,0,2.3-1.432c.311-1.556.685-3.486.685-3.61a1.412,1.412,0,0,1,1.618-1.307.474.474,0,0,1,.5.436v.373l-.311,1.681c1.12-1.494,2.863-2.614,3.921-2.614a.821.821,0,0,1,.871.685,3.213,3.213,0,0,1-.187,1.183,26.35,26.35,0,0,0-1.058,3.859.53.53,0,0,0,.56.685,4.454,4.454,0,0,0,2.8-1.93v-.622a8.086,8.086,0,0,1,.311-2.677,2.02,2.02,0,0,1,1.618-1.307.458.458,0,0,1,.5.5.789.789,0,0,1-.062.373,10.969,10.969,0,0,0-.622,3.3,10.309,10.309,0,0,0,.249,2.054.165.165,0,0,0,.187.187,8.207,8.207,0,0,0,2.3-2.677,2.868,2.868,0,0,1-1.245-2.552c0-1.867,1.12-2.863,2.241-2.863a1.646,1.646,0,0,1,1.618,1.867,5.942,5.942,0,0,1-.747,2.552h.249a1.9,1.9,0,0,0,1.494-.685,1.65,1.65,0,0,1,.373-.311,4.788,4.788,0,0,1,3.672-1.805c1.307,0,2.365.5,2.49,1.556A1.377,1.377,0,0,1,57.6,47.238c-.373,0-1-.124-1-.436-.062-.311.809-.187.747-1-.062-.5-.622-.747-1.12-.747-1.743,0-2.926,2.3-2.739,4.233.062.747.436,1.494,1.12,1.494.56,0,1.369-.809,1.681-1.93a1.768,1.768,0,0,1,1.494-1.307.441.441,0,0,1,.5.436,13.96,13.96,0,0,1-.311,1.743,5.362,5.362,0,0,0-.124,1.307,2.8,2.8,0,0,0,.747,1.556.569.569,0,0,1,.187.311.359.359,0,0,1-.373.373.374.374,0,0,1-.249-.062,3.044,3.044,0,0,1-2.054-2.3,2.309,2.309,0,0,1-1.93,1,2.774,2.774,0,0,1-2.552-2.428,4.183,4.183,0,0,1,.187-1.743,2.849,2.849,0,0,1-1.494.5h-.436a12.461,12.461,0,0,1-3.361,3.423,2.559,2.559,0,0,1-1,.311.676.676,0,0,1-.56-.249,2.178,2.178,0,0,1-.622-1.618Zm4.233-5.6a3.189,3.189,0,0,0,.809,1.992A4.279,4.279,0,0,0,49.7,45c0-.934-.373-1.369-.622-1.369C48.7,43.628,48.577,44.126,48.577,44.5Z" transform="translate(-4.939 -12.497)" fill="#fff"/>
    </g>
  </g>
</svg>
