<svg xmlns="http://www.w3.org/2000/svg" width="61" height="56.576" viewBox="0 0 61 56.576">
  <g id="Grupo_156457" data-name="Grupo 156457" transform="translate(-294.331 -21624.809)">
    <g id="Grupo_149567" data-name="Grupo 149567" transform="translate(-1051.799 21311.668)">
      <path id="Trazado_201693" data-name="Trazado 201693" d="M1376.62,313.141c3.312.1,6.626-.087,9.939.158,9.893.731,16.07,5.4,18.708,14.939a47.429,47.429,0,0,1-.563,28.155,18.548,18.548,0,0,1-17.4,13.061c-7.136.34-14.287.363-21.421-.008-8.942-.465-15.449-5.713-17.907-14.642a49.005,49.005,0,0,1,.155-27.221c2.567-8.738,9.04-13.68,18.106-14.272C1369.7,313.084,1373.161,313.233,1376.62,313.141Z" fill="#3576ec"/>
      <path id="Trazado_201694" data-name="Trazado 201694" d="M1403.395,385.287c-3.566-.118-7.136.144-10.7-.29-6.7-.816-10.666-4.677-11.387-11.418a95.813,95.813,0,0,1,.006-20.923c.543-4.832,2.626-8.714,7.5-10.524a17.493,17.493,0,0,1,5.935-1.132q8.78-.08,17.563,0a17.6,17.6,0,0,1,5.935,1.126c4.157,1.529,6.361,4.663,7.262,8.869a40.541,40.541,0,0,1,.719,8.448c.009,4.853.231,9.713-.488,14.542-.984,6.607-4.77,10.237-11.422,11.012C1410.679,385.417,1407.034,385.185,1403.395,385.287Z" transform="translate(-26.957 -21.668)" fill="#fefefe"/>
      <path id="Trazado_201695" data-name="Trazado 201695" d="M1427.069,384.191c-2.573,0-5.147-.015-7.72.011-.593.006-.927-.126-.83-.785a.544.544,0,0,0,0-.11c-.236-3.776.825-5.471,5.134-5.3,3.671.144,7.352.063,11.027.007.949-.014,1.192.295,1.148,1.187-.068,1.356-.052,2.72,0,4.078.025.713-.185.943-.925.93C1432.29,384.163,1429.679,384.191,1427.069,384.191Z" transform="translate(-56.36 -50.514)" fill="#3576ec"/>
      <path id="Trazado_201696" data-name="Trazado 201696" d="M1480.777,476.082c2.577,0,5.154.021,7.73-.014.678-.009.923.2.873.877-.051.7.017,1.4-.018,2.1a3.22,3.22,0,0,1-3.172,3.185c-4.417.031-8.835,0-13.252.025-.646,0-.807-.211-.792-.82.038-1.508.052-3.019,0-4.526-.027-.731.273-.842.9-.835C1475.623,476.1,1478.2,476.082,1480.777,476.082Z" transform="translate(-98.147 -126.901)" fill="#3576ec"/>
      <path id="Trazado_201697" data-name="Trazado 201697" d="M1528.334,387.353c0,1.951-.03,3.9.015,5.853.017.739-.151,1.051-.964,1.015-1.47-.064-2.945-.038-4.418-.008-.57.012-.768-.172-.767-.756q.011-7.288-.033-14.575c0-.574.171-.79.755-.756.7.042,1.4-.01,2.1.014a3.173,3.173,0,0,1,3.309,3.361C1528.352,383.451,1528.334,385.4,1528.334,387.353Z" transform="translate(-137.112 -50.612)" fill="#3576ec"/>
      <path id="Trazado_201698" data-name="Trazado 201698" d="M1424.7,439.761c0,2.355-.029,4.71.017,7.065.015.742-.23.962-.937.907s-1.4.013-2.1-.018a2.989,2.989,0,0,1-3.017-3.113c-.037-3.935-.045-7.87-.12-11.8-.016-.838.232-1.079,1.056-1.041,1.432.066,2.871.047,4.305.006.638-.018.812.209.8.823C1424.682,434.977,1424.7,437.369,1424.7,439.761Z" transform="translate(-56.402 -92.385)" fill="#3576ec"/>
    </g>
  </g>
</svg>
