<svg xmlns="http://www.w3.org/2000/svg" width="60" height="61" viewBox="0 0 60 61">
  <g id="Grupo_156452" data-name="Grupo 156452" transform="translate(-810.331 -21050.594)">
    <ellipse id="Elipse_5257" data-name="Elipse 5257" cx="30" cy="30.5" rx="30" ry="30.5" transform="translate(810.331 21050.594)" fill="#dbdada"/>
    <g id="Grupo_149561" data-name="Grupo 149561" transform="translate(-522.248 20883.234)">
      <path id="Trazado_201676" data-name="Trazado 201676" d="M1341.2,216.393V179.327a7.543,7.543,0,0,1,.5-1.363,4.4,4.4,0,0,1,2.922-2.171h35.906a6.18,6.18,0,0,1,1.284.5,4.514,4.514,0,0,1,2.14,3.037v37.066a4.426,4.426,0,0,1-3.424,3.534h-35.906A4.422,4.422,0,0,1,1341.2,216.393Zm18.544-19.656q0-6.506,0-13.012a1.942,1.942,0,0,0-2.078-2.149c-2.921-.006-5.843,0-8.765,0a2.2,2.2,0,0,0-.821.12,2.032,2.032,0,0,0-1.277,2.106q0,12.129,0,24.258c0,.589-.008,1.178,0,1.766a1.919,1.919,0,0,0,1.895,1.988c3.061.015,6.122.006,9.182,0a1.792,1.792,0,0,0,1.333-.616,2.195,2.195,0,0,0,.53-1.623Q1359.739,203.157,1359.746,196.737Zm5.664-5.575c0,2.485,0,4.969,0,7.454a1.939,1.939,0,0,0,2.094,2.171q4.362.007,8.723,0a1.968,1.968,0,0,0,2.123-2.195q.006-7.411,0-14.822a1.974,1.974,0,0,0-2.125-2.2q-4.341-.006-8.682,0a1.961,1.961,0,0,0-2.136,2.219Q1365.4,187.478,1365.41,191.161Z" transform="translate(0)" fill="#007ec7"/>
    </g>
  </g>
</svg>
