<svg xmlns="http://www.w3.org/2000/svg" width="61" height="61" viewBox="0 0 61 61">
  <g id="Grupo_156456" data-name="Grupo 156456" transform="translate(-294.331 -21435.596)">
    <g id="Grupo_149565" data-name="Grupo 149565" transform="translate(231.857 21414.051)">
      <path id="Trazado_201690" data-name="Trazado 201690" d="M67.272,52.508A26.167,26.167,0,0,0,82.02,76.055L69.538,41.86A26.071,26.071,0,0,0,67.272,52.508Zm43.828-1.32a13.778,13.778,0,0,0-2.158-7.216c-1.325-2.156-2.569-3.98-2.569-6.137a4.529,4.529,0,0,1,4.393-4.643c.117,0,.227.014.339.021a26.16,26.16,0,0,0-39.53,4.922c.615.021,1.194.033,1.684.033,2.737,0,6.974-.333,6.974-.333a1.082,1.082,0,0,1,.167,2.157s-1.418.166-2.994.248l9.527,28.342L92.66,51.409,88.584,40.24c-1.409-.082-2.744-.248-2.744-.248a1.082,1.082,0,0,1,.166-2.157s4.32.333,6.891.333c2.736,0,6.973-.333,6.973-.333a1.082,1.082,0,0,1,.167,2.157s-1.419.166-2.993.248L106.5,68.365l2.61-8.719A24.363,24.363,0,0,0,111.1,51.187ZM93.9,54.8,86.046,77.608a26.173,26.173,0,0,0,16.081-.417,2.379,2.379,0,0,1-.187-.36Zm22.5-14.841a19.98,19.98,0,0,1,.177,2.691,24.708,24.708,0,0,1-1.99,9.371l-7.991,23.105a26.168,26.168,0,0,0,9.8-35.167Z" transform="translate(-0.463 -0.463)" fill="#363432"/>
      <g id="Grupo_149565-2" data-name="Grupo 149565" transform="translate(62.474 21.545)">
        <path id="Trazado_201691" data-name="Trazado 201691" d="M62.474,52.045a30.5,30.5,0,1,0,30.5-30.5A30.534,30.534,0,0,0,62.474,52.045Zm1.4,0a29.1,29.1,0,1,1,29.1,29.1A29.134,29.134,0,0,1,63.873,52.045Z" transform="translate(-62.474 -21.545)" fill="#363432"/>
      </g>
    </g>
  </g>
</svg>
